<svg width="15" height="16" viewBox="0 0 15 16" fill="none" xmlns="http://www.w3.org/2000/svg">
<path d="M7.5 1.75C4.05375 1.75 1.25 4.55375 1.25 8C1.25 11.4462 4.05375 14.25 7.5 14.25C10.9462 14.25 13.75 11.4462 13.75 8C13.75 4.55375 10.9462 1.75 7.5 1.75ZM7.5 13C4.74313 13 2.5 10.7569 2.5 8C2.5 5.24313 4.74313 3 7.5 3C10.2569 3 12.5 5.24313 12.5 8C12.5 10.7569 10.2569 13 7.5 13Z" fill="#484848"/>
<path d="M7.5 7.37507C6.25 7.37507 6.25 6.98382 6.25 6.75007C6.25 6.44757 6.68813 6.12507 7.5 6.12507C8.24062 6.12507 8.36625 6.52382 8.375 6.76132L9 6.75007H9.625C9.625 6.10882 9.20875 5.20694 8.125 4.95069V4.25757H6.875V4.92819C5.64313 5.13507 5 5.94507 5 6.75007C5 7.45007 5.325 8.62507 7.5 8.62507C8.75 8.62507 8.75 9.04757 8.75 9.25007C8.75 9.50944 8.3625 9.87507 7.5 9.87507C6.34938 9.87507 6.25688 9.33944 6.25 9.25007H5C5 9.82382 5.41313 10.8457 6.875 11.0751V11.7501H8.125V11.0719C9.35687 10.8651 10 10.0551 10 9.25007C10 8.55007 9.675 7.37507 7.5 7.37507Z" fill="#484848"/>
</svg>
