<svg width="15" height="16" viewBox="0 0 15 16" fill="none" xmlns="http://www.w3.org/2000/svg">
<path d="M12.5 3H3.75C3.06062 3 2.5 3.56062 2.5 4.25V7.375H3.75V5.5L7.75 8.5C7.86125 8.58313 7.99312 8.625 8.125 8.625C8.25688 8.625 8.38875 8.58313 8.5 8.5L12.5 5.5V11.125H7.5V12.375H12.5C13.1894 12.375 13.75 11.8144 13.75 11.125V4.25C13.75 3.56062 13.1894 3 12.5 3ZM8.125 7.21875L4.16625 4.25H12.0837L8.125 7.21875Z" fill="white"/>
<path d="M1.25 8H5.625V9.25H1.25V8ZM2.5 9.875H6.25V11.125H2.5V9.875ZM4.375 11.75H6.875V13H4.375V11.75Z" fill="white"/>
</svg>
