<svg width="15" height="16" viewBox="0 0 15 16" fill="none" xmlns="http://www.w3.org/2000/svg">
<path d="M3.20127 13.625C3.43752 13.8613 3.75127 13.9913 4.08502 13.9913C4.41877 13.9913 4.73252 13.8613 4.96877 13.625L7.67877 10.915C8.12627 11.0531 8.59065 11.1231 9.0644 11.1231C10.3163 11.1231 11.4938 10.6363 12.3781 9.75125C13.7194 8.40938 14.12 6.40813 13.3981 4.6525L13.0419 3.785L10.3894 6.43688L9.06377 5.11063L11.7156 2.45875L10.8475 2.10188C10.2788 1.86812 9.67815 1.75 9.0619 1.75C7.81002 1.75 6.63315 2.2375 5.74877 3.1225C4.50815 4.3625 4.07252 6.1675 4.58502 7.82125L1.87502 10.5312C1.38752 11.0181 1.38752 11.8119 1.87502 12.2988L3.20127 13.625ZM6.04377 8.13063L5.88502 7.74563C5.35502 6.4575 5.64877 4.98938 6.63252 4.00625C7.28127 3.3575 8.14377 3 9.0619 3C9.17252 3 9.2819 3.005 9.39065 3.01563L7.29502 5.11125L10.3881 8.205L12.485 6.10813C12.5825 7.11313 12.2331 8.1275 11.4931 8.86813C10.5244 9.83688 9.01565 10.135 7.75315 9.61563L7.36877 9.45625L4.08502 12.7413H4.08565L4.08502 13.3663V12.7413L2.75877 11.415L6.04377 8.13063Z" fill="white"/>
</svg>
