<svg width="20" height="20" viewBox="0 0 20 20" fill="none" xmlns="http://www.w3.org/2000/svg">
<mask id="path-1-outside-1_8365_1431" maskUnits="userSpaceOnUse" x="0.000244141" y="1" width="20" height="18" fill="black">
<rect fill="white" x="0.000244141" y="1" width="20" height="18"/>
<path d="M12.6914 8.41667C13.5769 8.41667 14.2956 9.13533 14.2956 10.0208V14.3741C14.2956 15.4683 13.8609 16.5178 13.0871 17.2915C12.3134 18.0653 11.2639 18.5 10.1697 18.5C9.0754 18.5 8.02596 18.0653 7.2522 17.2915C6.47844 16.5178 6.04374 15.4683 6.04374 14.3741V10.0208C6.04374 9.13533 6.76149 8.41667 7.64791 8.41667H12.6914ZM12.6914 9.79167H7.64791C7.58713 9.79167 7.52884 9.81581 7.48587 9.85879C7.44289 9.90177 7.41874 9.96005 7.41874 10.0208V14.3741C7.41874 15.1037 7.70857 15.8034 8.22447 16.3193C8.74037 16.8352 9.44007 17.125 10.1697 17.125C10.8993 17.125 11.599 16.8352 12.1149 16.3193C12.6307 15.8034 12.9206 15.1037 12.9206 14.3741V10.0208C12.9206 9.96005 12.8964 9.90177 12.8535 9.85879C12.8105 9.81581 12.7522 9.79167 12.6914 9.79167ZM2.60441 8.41667H5.70366C5.38026 8.80725 5.18275 9.28663 5.13716 9.79167H2.60441C2.54363 9.79167 2.48534 9.81581 2.44237 9.85879C2.39939 9.90177 2.37524 9.96005 2.37524 10.0208V12.9991C2.37519 13.3455 2.45362 13.6874 2.60466 13.9991C2.7557 14.3108 2.97541 14.5843 3.2473 14.7989C3.51918 15.0136 3.83617 15.1638 4.17445 15.2383C4.51272 15.3129 4.86349 15.3098 5.20041 15.2293C5.27833 15.6913 5.42041 16.1323 5.61566 16.542C5.07233 16.6874 4.50286 16.7058 3.95126 16.5959C3.39967 16.486 2.88074 16.2507 2.4346 15.9083C1.98845 15.5658 1.62705 15.1253 1.37834 14.6209C1.12962 14.1164 1.00026 13.5615 1.00024 12.9991V10.0208C1.00024 9.13533 1.71891 8.41667 2.60441 8.41667ZM14.6357 8.41667H17.7294C18.6149 8.41667 19.3336 9.13533 19.3336 10.0208V13C19.3337 13.5621 19.2046 14.1166 18.9563 14.6209C18.7079 15.1251 18.347 15.5655 17.9013 15.908C17.4557 16.2505 16.9373 16.486 16.3861 16.5963C15.835 16.7065 15.2659 16.6886 14.7227 16.5438C14.9189 16.1332 15.061 15.6923 15.1398 15.2303C15.4763 15.3098 15.8265 15.3121 16.164 15.2371C16.5015 15.1621 16.8177 15.0117 17.0889 14.7972C17.36 14.5826 17.5791 14.3095 17.7297 13.9983C17.8803 13.687 17.9586 13.3458 17.9586 13V10.0208C17.9586 9.96005 17.9344 9.90177 17.8915 9.85879C17.8485 9.81581 17.7902 9.79167 17.7294 9.79167H15.2022C15.1566 9.28663 14.9591 8.80725 14.6357 8.41667ZM10.1669 2C10.8963 2 11.5957 2.28973 12.1115 2.80546C12.6272 3.32118 12.9169 4.02065 12.9169 4.75C12.9169 5.47935 12.6272 6.17882 12.1115 6.69454C11.5957 7.21027 10.8963 7.5 10.1669 7.5C9.43757 7.5 8.73809 7.21027 8.22237 6.69454C7.70664 6.17882 7.41691 5.47935 7.41691 4.75C7.41691 4.02065 7.70664 3.32118 8.22237 2.80546C8.73809 2.28973 9.43757 2 10.1669 2ZM16.1252 2.91667C16.733 2.91667 17.3159 3.15811 17.7457 3.58788C18.1755 4.01765 18.4169 4.60055 18.4169 5.20833C18.4169 5.81612 18.1755 6.39902 17.7457 6.82879C17.3159 7.25856 16.733 7.5 16.1252 7.5C15.5175 7.5 14.9346 7.25856 14.5048 6.82879C14.075 6.39902 13.8336 5.81612 13.8336 5.20833C13.8336 4.60055 14.075 4.01765 14.5048 3.58788C14.9346 3.15811 15.5175 2.91667 16.1252 2.91667ZM4.20858 2.91667C4.81637 2.91667 5.39926 3.15811 5.82903 3.58788C6.2588 4.01765 6.50024 4.60055 6.50024 5.20833C6.50024 5.81612 6.2588 6.39902 5.82903 6.82879C5.39926 7.25856 4.81637 7.5 4.20858 7.5C3.60079 7.5 3.0179 7.25856 2.58812 6.82879C2.15835 6.39902 1.91691 5.81612 1.91691 5.20833C1.91691 4.60055 2.15835 4.01765 2.58812 3.58788C3.0179 3.15811 3.60079 2.91667 4.20858 2.91667ZM10.1669 3.375C9.80224 3.375 9.4525 3.51987 9.19464 3.77773C8.93678 4.03559 8.79191 4.38533 8.79191 4.75C8.79191 5.11467 8.93678 5.46441 9.19464 5.72227C9.4525 5.98013 9.80224 6.125 10.1669 6.125C10.5316 6.125 10.8813 5.98013 11.1392 5.72227C11.397 5.46441 11.5419 5.11467 11.5419 4.75C11.5419 4.38533 11.397 4.03559 11.1392 3.77773C10.8813 3.51987 10.5316 3.375 10.1669 3.375ZM16.1252 4.29167C15.8821 4.29167 15.649 4.38824 15.4771 4.56015C15.3052 4.73206 15.2086 4.96522 15.2086 5.20833C15.2086 5.45145 15.3052 5.68461 15.4771 5.85651C15.649 6.02842 15.8821 6.125 16.1252 6.125C16.3684 6.125 16.6015 6.02842 16.7734 5.85651C16.9453 5.68461 17.0419 5.45145 17.0419 5.20833C17.0419 4.96522 16.9453 4.73206 16.7734 4.56015C16.6015 4.38824 16.3684 4.29167 16.1252 4.29167ZM4.20858 4.29167C3.96546 4.29167 3.7323 4.38824 3.5604 4.56015C3.38849 4.73206 3.29191 4.96522 3.29191 5.20833C3.29191 5.45145 3.38849 5.68461 3.5604 5.85651C3.7323 6.02842 3.96546 6.125 4.20858 6.125C4.45169 6.125 4.68485 6.02842 4.85676 5.85651C5.02867 5.68461 5.12524 5.45145 5.12524 5.20833C5.12524 4.96522 5.02867 4.73206 4.85676 4.56015C4.68485 4.38824 4.45169 4.29167 4.20858 4.29167Z"/>
</mask>
<path d="M12.6914 8.41667C13.5769 8.41667 14.2956 9.13533 14.2956 10.0208V14.3741C14.2956 15.4683 13.8609 16.5178 13.0871 17.2915C12.3134 18.0653 11.2639 18.5 10.1697 18.5C9.0754 18.5 8.02596 18.0653 7.2522 17.2915C6.47844 16.5178 6.04374 15.4683 6.04374 14.3741V10.0208C6.04374 9.13533 6.76149 8.41667 7.64791 8.41667H12.6914ZM12.6914 9.79167H7.64791C7.58713 9.79167 7.52884 9.81581 7.48587 9.85879C7.44289 9.90177 7.41874 9.96005 7.41874 10.0208V14.3741C7.41874 15.1037 7.70857 15.8034 8.22447 16.3193C8.74037 16.8352 9.44007 17.125 10.1697 17.125C10.8993 17.125 11.599 16.8352 12.1149 16.3193C12.6307 15.8034 12.9206 15.1037 12.9206 14.3741V10.0208C12.9206 9.96005 12.8964 9.90177 12.8535 9.85879C12.8105 9.81581 12.7522 9.79167 12.6914 9.79167ZM2.60441 8.41667H5.70366C5.38026 8.80725 5.18275 9.28663 5.13716 9.79167H2.60441C2.54363 9.79167 2.48534 9.81581 2.44237 9.85879C2.39939 9.90177 2.37524 9.96005 2.37524 10.0208V12.9991C2.37519 13.3455 2.45362 13.6874 2.60466 13.9991C2.7557 14.3108 2.97541 14.5843 3.2473 14.7989C3.51918 15.0136 3.83617 15.1638 4.17445 15.2383C4.51272 15.3129 4.86349 15.3098 5.20041 15.2293C5.27833 15.6913 5.42041 16.1323 5.61566 16.542C5.07233 16.6874 4.50286 16.7058 3.95126 16.5959C3.39967 16.486 2.88074 16.2507 2.4346 15.9083C1.98845 15.5658 1.62705 15.1253 1.37834 14.6209C1.12962 14.1164 1.00026 13.5615 1.00024 12.9991V10.0208C1.00024 9.13533 1.71891 8.41667 2.60441 8.41667ZM14.6357 8.41667H17.7294C18.6149 8.41667 19.3336 9.13533 19.3336 10.0208V13C19.3337 13.5621 19.2046 14.1166 18.9563 14.6209C18.7079 15.1251 18.347 15.5655 17.9013 15.908C17.4557 16.2505 16.9373 16.486 16.3861 16.5963C15.835 16.7065 15.2659 16.6886 14.7227 16.5438C14.9189 16.1332 15.061 15.6923 15.1398 15.2303C15.4763 15.3098 15.8265 15.3121 16.164 15.2371C16.5015 15.1621 16.8177 15.0117 17.0889 14.7972C17.36 14.5826 17.5791 14.3095 17.7297 13.9983C17.8803 13.687 17.9586 13.3458 17.9586 13V10.0208C17.9586 9.96005 17.9344 9.90177 17.8915 9.85879C17.8485 9.81581 17.7902 9.79167 17.7294 9.79167H15.2022C15.1566 9.28663 14.9591 8.80725 14.6357 8.41667ZM10.1669 2C10.8963 2 11.5957 2.28973 12.1115 2.80546C12.6272 3.32118 12.9169 4.02065 12.9169 4.75C12.9169 5.47935 12.6272 6.17882 12.1115 6.69454C11.5957 7.21027 10.8963 7.5 10.1669 7.5C9.43757 7.5 8.73809 7.21027 8.22237 6.69454C7.70664 6.17882 7.41691 5.47935 7.41691 4.75C7.41691 4.02065 7.70664 3.32118 8.22237 2.80546C8.73809 2.28973 9.43757 2 10.1669 2ZM16.1252 2.91667C16.733 2.91667 17.3159 3.15811 17.7457 3.58788C18.1755 4.01765 18.4169 4.60055 18.4169 5.20833C18.4169 5.81612 18.1755 6.39902 17.7457 6.82879C17.3159 7.25856 16.733 7.5 16.1252 7.5C15.5175 7.5 14.9346 7.25856 14.5048 6.82879C14.075 6.39902 13.8336 5.81612 13.8336 5.20833C13.8336 4.60055 14.075 4.01765 14.5048 3.58788C14.9346 3.15811 15.5175 2.91667 16.1252 2.91667ZM4.20858 2.91667C4.81637 2.91667 5.39926 3.15811 5.82903 3.58788C6.2588 4.01765 6.50024 4.60055 6.50024 5.20833C6.50024 5.81612 6.2588 6.39902 5.82903 6.82879C5.39926 7.25856 4.81637 7.5 4.20858 7.5C3.60079 7.5 3.0179 7.25856 2.58812 6.82879C2.15835 6.39902 1.91691 5.81612 1.91691 5.20833C1.91691 4.60055 2.15835 4.01765 2.58812 3.58788C3.0179 3.15811 3.60079 2.91667 4.20858 2.91667ZM10.1669 3.375C9.80224 3.375 9.4525 3.51987 9.19464 3.77773C8.93678 4.03559 8.79191 4.38533 8.79191 4.75C8.79191 5.11467 8.93678 5.46441 9.19464 5.72227C9.4525 5.98013 9.80224 6.125 10.1669 6.125C10.5316 6.125 10.8813 5.98013 11.1392 5.72227C11.397 5.46441 11.5419 5.11467 11.5419 4.75C11.5419 4.38533 11.397 4.03559 11.1392 3.77773C10.8813 3.51987 10.5316 3.375 10.1669 3.375ZM16.1252 4.29167C15.8821 4.29167 15.649 4.38824 15.4771 4.56015C15.3052 4.73206 15.2086 4.96522 15.2086 5.20833C15.2086 5.45145 15.3052 5.68461 15.4771 5.85651C15.649 6.02842 15.8821 6.125 16.1252 6.125C16.3684 6.125 16.6015 6.02842 16.7734 5.85651C16.9453 5.68461 17.0419 5.45145 17.0419 5.20833C17.0419 4.96522 16.9453 4.73206 16.7734 4.56015C16.6015 4.38824 16.3684 4.29167 16.1252 4.29167ZM4.20858 4.29167C3.96546 4.29167 3.7323 4.38824 3.5604 4.56015C3.38849 4.73206 3.29191 4.96522 3.29191 5.20833C3.29191 5.45145 3.38849 5.68461 3.5604 5.85651C3.7323 6.02842 3.96546 6.125 4.20858 6.125C4.45169 6.125 4.68485 6.02842 4.85676 5.85651C5.02867 5.68461 5.12524 5.45145 5.12524 5.20833C5.12524 4.96522 5.02867 4.73206 4.85676 4.56015C4.68485 4.38824 4.45169 4.29167 4.20858 4.29167Z" fill="white"/>
<path d="M12.6914 8.41667C13.5769 8.41667 14.2956 9.13533 14.2956 10.0208V14.3741C14.2956 15.4683 13.8609 16.5178 13.0871 17.2915C12.3134 18.0653 11.2639 18.5 10.1697 18.5C9.0754 18.5 8.02596 18.0653 7.2522 17.2915C6.47844 16.5178 6.04374 15.4683 6.04374 14.3741V10.0208C6.04374 9.13533 6.76149 8.41667 7.64791 8.41667H12.6914ZM12.6914 9.79167H7.64791C7.58713 9.79167 7.52884 9.81581 7.48587 9.85879C7.44289 9.90177 7.41874 9.96005 7.41874 10.0208V14.3741C7.41874 15.1037 7.70857 15.8034 8.22447 16.3193C8.74037 16.8352 9.44007 17.125 10.1697 17.125C10.8993 17.125 11.599 16.8352 12.1149 16.3193C12.6307 15.8034 12.9206 15.1037 12.9206 14.3741V10.0208C12.9206 9.96005 12.8964 9.90177 12.8535 9.85879C12.8105 9.81581 12.7522 9.79167 12.6914 9.79167ZM2.60441 8.41667H5.70366C5.38026 8.80725 5.18275 9.28663 5.13716 9.79167H2.60441C2.54363 9.79167 2.48534 9.81581 2.44237 9.85879C2.39939 9.90177 2.37524 9.96005 2.37524 10.0208V12.9991C2.37519 13.3455 2.45362 13.6874 2.60466 13.9991C2.7557 14.3108 2.97541 14.5843 3.2473 14.7989C3.51918 15.0136 3.83617 15.1638 4.17445 15.2383C4.51272 15.3129 4.86349 15.3098 5.20041 15.2293C5.27833 15.6913 5.42041 16.1323 5.61566 16.542C5.07233 16.6874 4.50286 16.7058 3.95126 16.5959C3.39967 16.486 2.88074 16.2507 2.4346 15.9083C1.98845 15.5658 1.62705 15.1253 1.37834 14.6209C1.12962 14.1164 1.00026 13.5615 1.00024 12.9991V10.0208C1.00024 9.13533 1.71891 8.41667 2.60441 8.41667ZM14.6357 8.41667H17.7294C18.6149 8.41667 19.3336 9.13533 19.3336 10.0208V13C19.3337 13.5621 19.2046 14.1166 18.9563 14.6209C18.7079 15.1251 18.347 15.5655 17.9013 15.908C17.4557 16.2505 16.9373 16.486 16.3861 16.5963C15.835 16.7065 15.2659 16.6886 14.7227 16.5438C14.9189 16.1332 15.061 15.6923 15.1398 15.2303C15.4763 15.3098 15.8265 15.3121 16.164 15.2371C16.5015 15.1621 16.8177 15.0117 17.0889 14.7972C17.36 14.5826 17.5791 14.3095 17.7297 13.9983C17.8803 13.687 17.9586 13.3458 17.9586 13V10.0208C17.9586 9.96005 17.9344 9.90177 17.8915 9.85879C17.8485 9.81581 17.7902 9.79167 17.7294 9.79167H15.2022C15.1566 9.28663 14.9591 8.80725 14.6357 8.41667ZM10.1669 2C10.8963 2 11.5957 2.28973 12.1115 2.80546C12.6272 3.32118 12.9169 4.02065 12.9169 4.75C12.9169 5.47935 12.6272 6.17882 12.1115 6.69454C11.5957 7.21027 10.8963 7.5 10.1669 7.5C9.43757 7.5 8.73809 7.21027 8.22237 6.69454C7.70664 6.17882 7.41691 5.47935 7.41691 4.75C7.41691 4.02065 7.70664 3.32118 8.22237 2.80546C8.73809 2.28973 9.43757 2 10.1669 2ZM16.1252 2.91667C16.733 2.91667 17.3159 3.15811 17.7457 3.58788C18.1755 4.01765 18.4169 4.60055 18.4169 5.20833C18.4169 5.81612 18.1755 6.39902 17.7457 6.82879C17.3159 7.25856 16.733 7.5 16.1252 7.5C15.5175 7.5 14.9346 7.25856 14.5048 6.82879C14.075 6.39902 13.8336 5.81612 13.8336 5.20833C13.8336 4.60055 14.075 4.01765 14.5048 3.58788C14.9346 3.15811 15.5175 2.91667 16.1252 2.91667ZM4.20858 2.91667C4.81637 2.91667 5.39926 3.15811 5.82903 3.58788C6.2588 4.01765 6.50024 4.60055 6.50024 5.20833C6.50024 5.81612 6.2588 6.39902 5.82903 6.82879C5.39926 7.25856 4.81637 7.5 4.20858 7.5C3.60079 7.5 3.0179 7.25856 2.58812 6.82879C2.15835 6.39902 1.91691 5.81612 1.91691 5.20833C1.91691 4.60055 2.15835 4.01765 2.58812 3.58788C3.0179 3.15811 3.60079 2.91667 4.20858 2.91667ZM10.1669 3.375C9.80224 3.375 9.4525 3.51987 9.19464 3.77773C8.93678 4.03559 8.79191 4.38533 8.79191 4.75C8.79191 5.11467 8.93678 5.46441 9.19464 5.72227C9.4525 5.98013 9.80224 6.125 10.1669 6.125C10.5316 6.125 10.8813 5.98013 11.1392 5.72227C11.397 5.46441 11.5419 5.11467 11.5419 4.75C11.5419 4.38533 11.397 4.03559 11.1392 3.77773C10.8813 3.51987 10.5316 3.375 10.1669 3.375ZM16.1252 4.29167C15.8821 4.29167 15.649 4.38824 15.4771 4.56015C15.3052 4.73206 15.2086 4.96522 15.2086 5.20833C15.2086 5.45145 15.3052 5.68461 15.4771 5.85651C15.649 6.02842 15.8821 6.125 16.1252 6.125C16.3684 6.125 16.6015 6.02842 16.7734 5.85651C16.9453 5.68461 17.0419 5.45145 17.0419 5.20833C17.0419 4.96522 16.9453 4.73206 16.7734 4.56015C16.6015 4.38824 16.3684 4.29167 16.1252 4.29167ZM4.20858 4.29167C3.96546 4.29167 3.7323 4.38824 3.5604 4.56015C3.38849 4.73206 3.29191 4.96522 3.29191 5.20833C3.29191 5.45145 3.38849 5.68461 3.5604 5.85651C3.7323 6.02842 3.96546 6.125 4.20858 6.125C4.45169 6.125 4.68485 6.02842 4.85676 5.85651C5.02867 5.68461 5.12524 5.45145 5.12524 5.20833C5.12524 4.96522 5.02867 4.73206 4.85676 4.56015C4.68485 4.38824 4.45169 4.29167 4.20858 4.29167Z" stroke="white" stroke-width="0.2" mask="url(#path-1-outside-1_8365_1431)"/>
</svg>
