<svg width="15" height="16" viewBox="0 0 15 16" fill="none" xmlns="http://www.w3.org/2000/svg">
<mask id="path-1-outside-1_8330_169765" maskUnits="userSpaceOnUse" x="-0.249878" y="1" width="15" height="14" fill="black">
<rect fill="white" x="-0.249878" y="1" width="15" height="14"/>
<path d="M9.5185 6.8125C10.1826 6.8125 10.7216 7.3515 10.7216 8.01562V11.2806C10.7216 12.1013 10.3956 12.8883 9.81528 13.4687C9.23496 14.049 8.44788 14.375 7.62718 14.375C6.80649 14.375 6.01941 14.049 5.43909 13.4687C4.85877 12.8883 4.53275 12.1013 4.53275 11.2806V8.01562C4.53275 7.3515 5.07106 6.8125 5.73587 6.8125H9.5185V6.8125ZM9.5185 7.84375H5.73587C5.69029 7.84375 5.64657 7.86186 5.61434 7.89409C5.58211 7.92632 5.564 7.97004 5.564 8.01562V11.2806C5.564 11.8278 5.78137 12.3525 6.16829 12.7395C6.55521 13.1264 7.07999 13.3437 7.62718 13.3438C8.17438 13.3437 8.69916 13.1264 9.08608 12.7395C9.473 12.3525 9.69037 11.8278 9.69037 11.2806V8.01562C9.69037 7.97004 9.67226 7.92632 9.64003 7.89409C9.6078 7.86186 9.56408 7.84375 9.5185 7.84375V7.84375ZM1.95325 6.8125H4.27768C4.03513 7.10544 3.887 7.46497 3.85281 7.84375H1.95325C1.90766 7.84375 1.86395 7.86186 1.83171 7.89409C1.79948 7.92632 1.78137 7.97004 1.78137 8.01562V10.2493C1.78133 10.5091 1.84016 10.7655 1.95343 10.9993C2.06671 11.2331 2.2315 11.4382 2.43541 11.5992C2.63933 11.7602 2.87707 11.8728 3.13077 11.9288C3.38448 11.9847 3.64756 11.9824 3.90025 11.922C3.95868 12.2685 4.06525 12.5992 4.21168 12.9065C3.80419 13.0155 3.37708 13.0293 2.96339 12.9469C2.54969 12.8645 2.16049 12.6881 1.82589 12.4312C1.49128 12.1744 1.22023 11.844 1.03369 11.4656C0.847154 11.0873 0.750131 10.6711 0.750122 10.2493V8.01562C0.750122 7.3515 1.28912 6.8125 1.95325 6.8125ZM10.9767 6.8125H13.297C13.9611 6.8125 14.5001 7.3515 14.5001 8.01562V10.25C14.5002 10.6716 14.4034 11.0875 14.2171 11.4657C14.0309 11.8438 13.7602 12.1741 13.4259 12.431C13.0917 12.6879 12.7029 12.8645 12.2895 12.9472C11.8762 13.0299 11.4493 13.0164 11.042 12.9079C11.1891 12.5999 11.2957 12.2692 11.3548 11.9227C11.6072 11.9823 11.8698 11.9841 12.1229 11.9278C12.3761 11.8716 12.6132 11.7588 12.8166 11.5979C13.02 11.437 13.1843 11.2321 13.2972 10.9987C13.4102 10.7653 13.4689 10.5093 13.4689 10.25V8.01562C13.4689 7.97004 13.4508 7.92632 13.4185 7.89409C13.3863 7.86186 13.3426 7.84375 13.297 7.84375H11.4016C11.3674 7.46497 11.2192 7.10544 10.9767 6.8125ZM7.62512 2C8.17213 2 8.69674 2.2173 9.08353 2.60409C9.47032 2.99089 9.68762 3.51549 9.68762 4.0625C9.68762 4.60951 9.47032 5.13411 9.08353 5.52091C8.69674 5.9077 8.17213 6.125 7.62512 6.125C7.07811 6.125 6.55351 5.9077 6.16671 5.52091C5.77992 5.13411 5.56262 4.60951 5.56262 4.0625C5.56262 3.51549 5.77992 2.99089 6.16671 2.60409C6.55351 2.2173 7.07811 2 7.62512 2V2ZM12.0939 2.6875C12.5497 2.6875 12.9869 2.86858 13.3092 3.19091C13.6315 3.51324 13.8126 3.95041 13.8126 4.40625C13.8126 4.86209 13.6315 5.29926 13.3092 5.62159C12.9869 5.94392 12.5497 6.125 12.0939 6.125C11.638 6.125 11.2009 5.94392 10.8785 5.62159C10.5562 5.29926 10.3751 4.86209 10.3751 4.40625C10.3751 3.95041 10.5562 3.51324 10.8785 3.19091C11.2009 2.86858 11.638 2.6875 12.0939 2.6875ZM3.15637 2.6875C3.61221 2.6875 4.04938 2.86858 4.37171 3.19091C4.69404 3.51324 4.87512 3.95041 4.87512 4.40625C4.87512 4.86209 4.69404 5.29926 4.37171 5.62159C4.04938 5.94392 3.61221 6.125 3.15637 6.125C2.70053 6.125 2.26336 5.94392 1.94103 5.62159C1.6187 5.29926 1.43762 4.86209 1.43762 4.40625C1.43762 3.95041 1.6187 3.51324 1.94103 3.19091C2.26336 2.86858 2.70053 2.6875 3.15637 2.6875V2.6875ZM7.62512 3.03125C7.35162 3.03125 7.08931 3.1399 6.89592 3.3333C6.70252 3.52669 6.59387 3.789 6.59387 4.0625C6.59387 4.336 6.70252 4.59831 6.89592 4.7917C7.08931 4.9851 7.35162 5.09375 7.62512 5.09375C7.89863 5.09375 8.16093 4.9851 8.35433 4.7917C8.54772 4.59831 8.65637 4.336 8.65637 4.0625C8.65637 3.789 8.54772 3.52669 8.35433 3.3333C8.16093 3.1399 7.89863 3.03125 7.62512 3.03125ZM12.0939 3.71875C11.9115 3.71875 11.7367 3.79118 11.6077 3.92011C11.4788 4.04905 11.4064 4.22391 11.4064 4.40625C11.4064 4.58859 11.4788 4.76345 11.6077 4.89239C11.7367 5.02132 11.9115 5.09375 12.0939 5.09375C12.2762 5.09375 12.4511 5.02132 12.58 4.89239C12.7089 4.76345 12.7814 4.58859 12.7814 4.40625C12.7814 4.22391 12.7089 4.04905 12.58 3.92011C12.4511 3.79118 12.2762 3.71875 12.0939 3.71875ZM3.15637 3.71875C2.97404 3.71875 2.79917 3.79118 2.67024 3.92011C2.54131 4.04905 2.46887 4.22391 2.46887 4.40625C2.46887 4.58859 2.54131 4.76345 2.67024 4.89239C2.79917 5.02132 2.97404 5.09375 3.15637 5.09375C3.33871 5.09375 3.51358 5.02132 3.64251 4.89239C3.77144 4.76345 3.84387 4.58859 3.84387 4.40625C3.84387 4.22391 3.77144 4.04905 3.64251 3.92011C3.51358 3.79118 3.33871 3.71875 3.15637 3.71875Z"/>
</mask>
<path d="M9.5185 6.8125C10.1826 6.8125 10.7216 7.3515 10.7216 8.01562V11.2806C10.7216 12.1013 10.3956 12.8883 9.81528 13.4687C9.23496 14.049 8.44788 14.375 7.62718 14.375C6.80649 14.375 6.01941 14.049 5.43909 13.4687C4.85877 12.8883 4.53275 12.1013 4.53275 11.2806V8.01562C4.53275 7.3515 5.07106 6.8125 5.73587 6.8125H9.5185V6.8125ZM9.5185 7.84375H5.73587C5.69029 7.84375 5.64657 7.86186 5.61434 7.89409C5.58211 7.92632 5.564 7.97004 5.564 8.01562V11.2806C5.564 11.8278 5.78137 12.3525 6.16829 12.7395C6.55521 13.1264 7.07999 13.3437 7.62718 13.3438C8.17438 13.3437 8.69916 13.1264 9.08608 12.7395C9.473 12.3525 9.69037 11.8278 9.69037 11.2806V8.01562C9.69037 7.97004 9.67226 7.92632 9.64003 7.89409C9.6078 7.86186 9.56408 7.84375 9.5185 7.84375V7.84375ZM1.95325 6.8125H4.27768C4.03513 7.10544 3.887 7.46497 3.85281 7.84375H1.95325C1.90766 7.84375 1.86395 7.86186 1.83171 7.89409C1.79948 7.92632 1.78137 7.97004 1.78137 8.01562V10.2493C1.78133 10.5091 1.84016 10.7655 1.95343 10.9993C2.06671 11.2331 2.2315 11.4382 2.43541 11.5992C2.63933 11.7602 2.87707 11.8728 3.13077 11.9288C3.38448 11.9847 3.64756 11.9824 3.90025 11.922C3.95868 12.2685 4.06525 12.5992 4.21168 12.9065C3.80419 13.0155 3.37708 13.0293 2.96339 12.9469C2.54969 12.8645 2.16049 12.6881 1.82589 12.4312C1.49128 12.1744 1.22023 11.844 1.03369 11.4656C0.847154 11.0873 0.750131 10.6711 0.750122 10.2493V8.01562C0.750122 7.3515 1.28912 6.8125 1.95325 6.8125ZM10.9767 6.8125H13.297C13.9611 6.8125 14.5001 7.3515 14.5001 8.01562V10.25C14.5002 10.6716 14.4034 11.0875 14.2171 11.4657C14.0309 11.8438 13.7602 12.1741 13.4259 12.431C13.0917 12.6879 12.7029 12.8645 12.2895 12.9472C11.8762 13.0299 11.4493 13.0164 11.042 12.9079C11.1891 12.5999 11.2957 12.2692 11.3548 11.9227C11.6072 11.9823 11.8698 11.9841 12.1229 11.9278C12.3761 11.8716 12.6132 11.7588 12.8166 11.5979C13.02 11.437 13.1843 11.2321 13.2972 10.9987C13.4102 10.7653 13.4689 10.5093 13.4689 10.25V8.01562C13.4689 7.97004 13.4508 7.92632 13.4185 7.89409C13.3863 7.86186 13.3426 7.84375 13.297 7.84375H11.4016C11.3674 7.46497 11.2192 7.10544 10.9767 6.8125ZM7.62512 2C8.17213 2 8.69674 2.2173 9.08353 2.60409C9.47032 2.99089 9.68762 3.51549 9.68762 4.0625C9.68762 4.60951 9.47032 5.13411 9.08353 5.52091C8.69674 5.9077 8.17213 6.125 7.62512 6.125C7.07811 6.125 6.55351 5.9077 6.16671 5.52091C5.77992 5.13411 5.56262 4.60951 5.56262 4.0625C5.56262 3.51549 5.77992 2.99089 6.16671 2.60409C6.55351 2.2173 7.07811 2 7.62512 2V2ZM12.0939 2.6875C12.5497 2.6875 12.9869 2.86858 13.3092 3.19091C13.6315 3.51324 13.8126 3.95041 13.8126 4.40625C13.8126 4.86209 13.6315 5.29926 13.3092 5.62159C12.9869 5.94392 12.5497 6.125 12.0939 6.125C11.638 6.125 11.2009 5.94392 10.8785 5.62159C10.5562 5.29926 10.3751 4.86209 10.3751 4.40625C10.3751 3.95041 10.5562 3.51324 10.8785 3.19091C11.2009 2.86858 11.638 2.6875 12.0939 2.6875ZM3.15637 2.6875C3.61221 2.6875 4.04938 2.86858 4.37171 3.19091C4.69404 3.51324 4.87512 3.95041 4.87512 4.40625C4.87512 4.86209 4.69404 5.29926 4.37171 5.62159C4.04938 5.94392 3.61221 6.125 3.15637 6.125C2.70053 6.125 2.26336 5.94392 1.94103 5.62159C1.6187 5.29926 1.43762 4.86209 1.43762 4.40625C1.43762 3.95041 1.6187 3.51324 1.94103 3.19091C2.26336 2.86858 2.70053 2.6875 3.15637 2.6875V2.6875ZM7.62512 3.03125C7.35162 3.03125 7.08931 3.1399 6.89592 3.3333C6.70252 3.52669 6.59387 3.789 6.59387 4.0625C6.59387 4.336 6.70252 4.59831 6.89592 4.7917C7.08931 4.9851 7.35162 5.09375 7.62512 5.09375C7.89863 5.09375 8.16093 4.9851 8.35433 4.7917C8.54772 4.59831 8.65637 4.336 8.65637 4.0625C8.65637 3.789 8.54772 3.52669 8.35433 3.3333C8.16093 3.1399 7.89863 3.03125 7.62512 3.03125ZM12.0939 3.71875C11.9115 3.71875 11.7367 3.79118 11.6077 3.92011C11.4788 4.04905 11.4064 4.22391 11.4064 4.40625C11.4064 4.58859 11.4788 4.76345 11.6077 4.89239C11.7367 5.02132 11.9115 5.09375 12.0939 5.09375C12.2762 5.09375 12.4511 5.02132 12.58 4.89239C12.7089 4.76345 12.7814 4.58859 12.7814 4.40625C12.7814 4.22391 12.7089 4.04905 12.58 3.92011C12.4511 3.79118 12.2762 3.71875 12.0939 3.71875ZM3.15637 3.71875C2.97404 3.71875 2.79917 3.79118 2.67024 3.92011C2.54131 4.04905 2.46887 4.22391 2.46887 4.40625C2.46887 4.58859 2.54131 4.76345 2.67024 4.89239C2.79917 5.02132 2.97404 5.09375 3.15637 5.09375C3.33871 5.09375 3.51358 5.02132 3.64251 4.89239C3.77144 4.76345 3.84387 4.58859 3.84387 4.40625C3.84387 4.22391 3.77144 4.04905 3.64251 3.92011C3.51358 3.79118 3.33871 3.71875 3.15637 3.71875Z" fill="#615E69"/>
<path d="M9.5185 6.8125C10.1826 6.8125 10.7216 7.3515 10.7216 8.01562V11.2806C10.7216 12.1013 10.3956 12.8883 9.81528 13.4687C9.23496 14.049 8.44788 14.375 7.62718 14.375C6.80649 14.375 6.01941 14.049 5.43909 13.4687C4.85877 12.8883 4.53275 12.1013 4.53275 11.2806V8.01562C4.53275 7.3515 5.07106 6.8125 5.73587 6.8125H9.5185V6.8125ZM9.5185 7.84375H5.73587C5.69029 7.84375 5.64657 7.86186 5.61434 7.89409C5.58211 7.92632 5.564 7.97004 5.564 8.01562V11.2806C5.564 11.8278 5.78137 12.3525 6.16829 12.7395C6.55521 13.1264 7.07999 13.3437 7.62718 13.3438C8.17438 13.3437 8.69916 13.1264 9.08608 12.7395C9.473 12.3525 9.69037 11.8278 9.69037 11.2806V8.01562C9.69037 7.97004 9.67226 7.92632 9.64003 7.89409C9.6078 7.86186 9.56408 7.84375 9.5185 7.84375V7.84375ZM1.95325 6.8125H4.27768C4.03513 7.10544 3.887 7.46497 3.85281 7.84375H1.95325C1.90766 7.84375 1.86395 7.86186 1.83171 7.89409C1.79948 7.92632 1.78137 7.97004 1.78137 8.01562V10.2493C1.78133 10.5091 1.84016 10.7655 1.95343 10.9993C2.06671 11.2331 2.2315 11.4382 2.43541 11.5992C2.63933 11.7602 2.87707 11.8728 3.13077 11.9288C3.38448 11.9847 3.64756 11.9824 3.90025 11.922C3.95868 12.2685 4.06525 12.5992 4.21168 12.9065C3.80419 13.0155 3.37708 13.0293 2.96339 12.9469C2.54969 12.8645 2.16049 12.6881 1.82589 12.4312C1.49128 12.1744 1.22023 11.844 1.03369 11.4656C0.847154 11.0873 0.750131 10.6711 0.750122 10.2493V8.01562C0.750122 7.3515 1.28912 6.8125 1.95325 6.8125ZM10.9767 6.8125H13.297C13.9611 6.8125 14.5001 7.3515 14.5001 8.01562V10.25C14.5002 10.6716 14.4034 11.0875 14.2171 11.4657C14.0309 11.8438 13.7602 12.1741 13.4259 12.431C13.0917 12.6879 12.7029 12.8645 12.2895 12.9472C11.8762 13.0299 11.4493 13.0164 11.042 12.9079C11.1891 12.5999 11.2957 12.2692 11.3548 11.9227C11.6072 11.9823 11.8698 11.9841 12.1229 11.9278C12.3761 11.8716 12.6132 11.7588 12.8166 11.5979C13.02 11.437 13.1843 11.2321 13.2972 10.9987C13.4102 10.7653 13.4689 10.5093 13.4689 10.25V8.01562C13.4689 7.97004 13.4508 7.92632 13.4185 7.89409C13.3863 7.86186 13.3426 7.84375 13.297 7.84375H11.4016C11.3674 7.46497 11.2192 7.10544 10.9767 6.8125ZM7.62512 2C8.17213 2 8.69674 2.2173 9.08353 2.60409C9.47032 2.99089 9.68762 3.51549 9.68762 4.0625C9.68762 4.60951 9.47032 5.13411 9.08353 5.52091C8.69674 5.9077 8.17213 6.125 7.62512 6.125C7.07811 6.125 6.55351 5.9077 6.16671 5.52091C5.77992 5.13411 5.56262 4.60951 5.56262 4.0625C5.56262 3.51549 5.77992 2.99089 6.16671 2.60409C6.55351 2.2173 7.07811 2 7.62512 2V2ZM12.0939 2.6875C12.5497 2.6875 12.9869 2.86858 13.3092 3.19091C13.6315 3.51324 13.8126 3.95041 13.8126 4.40625C13.8126 4.86209 13.6315 5.29926 13.3092 5.62159C12.9869 5.94392 12.5497 6.125 12.0939 6.125C11.638 6.125 11.2009 5.94392 10.8785 5.62159C10.5562 5.29926 10.3751 4.86209 10.3751 4.40625C10.3751 3.95041 10.5562 3.51324 10.8785 3.19091C11.2009 2.86858 11.638 2.6875 12.0939 2.6875ZM3.15637 2.6875C3.61221 2.6875 4.04938 2.86858 4.37171 3.19091C4.69404 3.51324 4.87512 3.95041 4.87512 4.40625C4.87512 4.86209 4.69404 5.29926 4.37171 5.62159C4.04938 5.94392 3.61221 6.125 3.15637 6.125C2.70053 6.125 2.26336 5.94392 1.94103 5.62159C1.6187 5.29926 1.43762 4.86209 1.43762 4.40625C1.43762 3.95041 1.6187 3.51324 1.94103 3.19091C2.26336 2.86858 2.70053 2.6875 3.15637 2.6875V2.6875ZM7.62512 3.03125C7.35162 3.03125 7.08931 3.1399 6.89592 3.3333C6.70252 3.52669 6.59387 3.789 6.59387 4.0625C6.59387 4.336 6.70252 4.59831 6.89592 4.7917C7.08931 4.9851 7.35162 5.09375 7.62512 5.09375C7.89863 5.09375 8.16093 4.9851 8.35433 4.7917C8.54772 4.59831 8.65637 4.336 8.65637 4.0625C8.65637 3.789 8.54772 3.52669 8.35433 3.3333C8.16093 3.1399 7.89863 3.03125 7.62512 3.03125ZM12.0939 3.71875C11.9115 3.71875 11.7367 3.79118 11.6077 3.92011C11.4788 4.04905 11.4064 4.22391 11.4064 4.40625C11.4064 4.58859 11.4788 4.76345 11.6077 4.89239C11.7367 5.02132 11.9115 5.09375 12.0939 5.09375C12.2762 5.09375 12.4511 5.02132 12.58 4.89239C12.7089 4.76345 12.7814 4.58859 12.7814 4.40625C12.7814 4.22391 12.7089 4.04905 12.58 3.92011C12.4511 3.79118 12.2762 3.71875 12.0939 3.71875ZM3.15637 3.71875C2.97404 3.71875 2.79917 3.79118 2.67024 3.92011C2.54131 4.04905 2.46887 4.22391 2.46887 4.40625C2.46887 4.58859 2.54131 4.76345 2.67024 4.89239C2.79917 5.02132 2.97404 5.09375 3.15637 5.09375C3.33871 5.09375 3.51358 5.02132 3.64251 4.89239C3.77144 4.76345 3.84387 4.58859 3.84387 4.40625C3.84387 4.22391 3.77144 4.04905 3.64251 3.92011C3.51358 3.79118 3.33871 3.71875 3.15637 3.71875Z" stroke="#615E69" stroke-width="0.15" mask="url(#path-1-outside-1_8330_169765)"/>
</svg>
