<svg width="15" height="16" viewBox="0 0 15 16" fill="none" xmlns="http://www.w3.org/2000/svg">
<path d="M2.5 13.625H12.4331C13.1225 13.625 13.6831 13.0644 13.6831 12.375V4.875V3.625C13.6831 2.93562 13.1225 2.375 12.4331 2.375H2.5C1.81063 2.375 1.25 2.93562 1.25 3.625V12.375C1.25 13.0644 1.81063 13.625 2.5 13.625ZM2.5 12.375V9.25H5V12.375H2.5ZM8.75 4.875V8H6.25V4.875H8.75ZM5 4.875V8H2.5V4.875H5ZM6.25 12.375V9.25H8.75V12.375H6.25ZM10 12.375V9.25H12.4338V12.375H10ZM12.4331 8H10V4.875H12.4331V8Z" fill="#615E69"/>
</svg>
