<svg width="15" height="16" viewBox="0 0 15 16" fill="none" xmlns="http://www.w3.org/2000/svg">
<path d="M1.71356 3.06873C1.41403 3.42816 1.25 3.88123 1.25 4.3491V11.875C1.25 13.5319 2.59315 14.875 4.25 14.875H10.75C12.4069 14.875 13.75 13.5319 13.75 11.875V4.3491C13.75 3.88123 13.586 3.42816 13.2864 3.06873L12.2664 1.84463C11.8864 1.38865 11.3235 1.125 10.7299 1.125H4.27008C3.67652 1.125 3.11363 1.38865 2.73364 1.84463L1.71356 3.06873Z" stroke="white" stroke-width="1.5"/>
<path d="M1.25 3.9375H13.75" stroke="white" stroke-width="1.5"/>
<path d="M10 6.75C10 8.13071 8.88071 9.25 7.5 9.25C6.11929 9.25 5 8.13071 5 6.75" stroke="white" stroke-width="1.5" stroke-linecap="round"/>
</svg>
