<svg width="15" height="16" viewBox="0 0 15 16" fill="none" xmlns="http://www.w3.org/2000/svg">
<path d="M7.5 4.25C5.43187 4.25 3.75 5.93187 3.75 8C3.75 10.0681 5.43187 11.75 7.5 11.75C9.56812 11.75 11.25 10.0681 11.25 8C11.25 5.93187 9.56812 4.25 7.5 4.25ZM7.5 10.5C6.12125 10.5 5 9.37875 5 8C5 6.62125 6.12125 5.5 7.5 5.5C8.87875 5.5 10 6.62125 10 8C10 9.37875 8.87875 10.5 7.5 10.5Z" fill="white"/>
<path d="M7.5 1.75C4.11188 1.75 1.25 4.61188 1.25 8C1.25 11.3881 4.11188 14.25 7.5 14.25C10.8881 14.25 13.75 11.3881 13.75 8C13.75 4.61188 10.8881 1.75 7.5 1.75ZM7.5 13C4.78938 13 2.5 10.7106 2.5 8C2.5 5.28938 4.78938 3 7.5 3C10.2106 3 12.5 5.28938 12.5 8C12.5 10.7106 10.2106 13 7.5 13Z" fill="white"/>
<path d="M7.5 6.75C6.82438 6.75 6.25 7.32438 6.25 8C6.25 8.67562 6.82438 9.25 7.5 9.25C8.17562 9.25 8.75 8.67562 8.75 8C8.75 7.32438 8.17562 6.75 7.5 6.75Z" fill="white"/>
</svg>
