<svg width="15" height="16" viewBox="0 0 15 16" fill="none" xmlns="http://www.w3.org/2000/svg">
<path d="M3.125 6.125V12.375H11.8763L11.875 6.125H3.125ZM10 8.625H5V7.375H10V8.625ZM12.5013 4.875L12.5 3.625H2.5V4.875H12.5H12.5013Z" fill="#3B9FF3"/>
<path d="M12.5 2.375H2.5C1.81062 2.375 1.25 2.93562 1.25 3.625V4.875C1.25 5.335 1.50312 5.73438 1.875 5.95125V12.375C1.875 13.0644 2.43562 13.625 3.125 13.625H11.875C12.5644 13.625 13.125 13.0644 13.125 12.375V5.95125C13.4969 5.73438 13.75 5.335 13.75 4.875V3.625C13.75 2.93562 13.1894 2.375 12.5 2.375ZM2.5 3.625H12.5L12.5013 4.875H12.5H2.5V3.625ZM3.125 12.375V6.125H11.875L11.8763 12.375H3.125Z" fill="white"/>
<path d="M5 7.375H10V8.625H5V7.375Z" fill="white"/>
</svg>
