<svg width="20" height="20" viewBox="0 0 20 20" fill="none" xmlns="http://www.w3.org/2000/svg">
<path d="M6.95252 2.05308C6.7429 2.05308 6.54376 2.06577 6.34703 2.05308C6.26975 2.05049 6.19383 2.03439 6.12376 2.00575C6.0537 1.9771 5.99089 1.93648 5.93905 1.88627C5.88721 1.83607 5.84738 1.7773 5.82191 1.71342C5.79643 1.64955 5.78584 1.58186 5.79073 1.51435C5.81089 1.21325 6.01003 1.04754 6.34542 1.00806C6.45265 0.999748 6.5604 0.997863 6.66792 1.00241H13.3339C13.4414 0.998738 13.549 1.00039 13.6564 1.00735C13.9958 1.0412 14.2409 1.27107 14.2135 1.54961C14.1852 1.84295 13.9942 2.02417 13.6491 2.05308C13.454 2.0693 13.2557 2.05308 13.0372 2.05308C13.0283 2.20751 13.017 2.32174 13.017 2.43598C13.017 4.18051 13.0098 5.92504 13.0259 7.66887C13.0331 7.87501 13.1047 8.07548 13.2331 8.2485C14.9745 10.5515 16.7321 12.8453 18.4784 15.1462C19.3355 16.2745 19.1178 17.6326 17.9616 18.4604C17.5082 18.7984 16.9328 18.9854 16.3371 18.9886C12.1068 18.9942 7.87646 19.0147 3.64696 18.9815C1.50479 18.9625 0.277703 16.833 1.46045 15.2309C2.53435 13.7768 3.65018 12.3454 4.74827 10.9041C5.4376 9.99867 6.13096 9.09538 6.81223 8.18433C6.91043 8.06187 6.96842 7.91823 6.97993 7.769C6.99122 5.94267 6.98799 4.11634 6.98638 2.29001C6.98557 2.22161 6.96703 2.15392 6.95252 2.05308ZM10.0098 17.9351H16.1557C16.8007 17.9351 17.3005 17.7045 17.6069 17.2053C17.9036 16.7194 17.8576 16.2329 17.511 15.7752C16.7585 14.78 15.9998 13.7879 15.235 12.7988C15.1539 12.7004 15.0337 12.632 14.898 12.607C13.616 12.4399 12.3245 12.32 11.049 12.1219C9.11806 11.8222 7.21454 11.8017 5.35053 12.4039C5.12001 12.4814 4.92007 12.6156 4.77488 12.7903C4.02105 13.7416 3.30753 14.7175 2.55854 15.6744C2.17155 16.1722 2.06271 16.6835 2.40213 17.2257C2.73269 17.7518 3.27286 17.9436 3.94446 17.9407C5.9681 17.9295 7.98853 17.9351 10.0098 17.9351ZM8.19734 2.0693C8.19734 2.23995 8.19734 2.37886 8.19734 2.51707C8.19734 4.00352 8.15219 5.49208 8.2183 6.97641C8.25862 7.88605 8.04013 8.66171 7.37901 9.37391C6.88882 9.90418 6.50102 10.5071 6.0447 11.1079C6.58971 11.0374 7.07587 10.9668 7.56445 10.909C9.10274 10.7363 10.6031 10.9682 12.1035 11.2256C12.7784 11.3413 13.4604 11.4238 14.1393 11.5218L14.1909 11.4322C14.1151 11.3279 14.0425 11.2207 13.9643 11.1191C13.3347 10.2913 12.6913 9.47122 12.0826 8.63139C11.9273 8.42023 11.8383 8.17703 11.8246 7.92625C11.802 6.11261 11.8101 4.29827 11.8085 2.48393V2.06789L8.19734 2.0693Z" fill="#615E69" stroke="#615E69" stroke-width="0.6"/>
</svg>
