<svg width="20" height="20" viewBox="0 0 20 20" fill="none" xmlns="http://www.w3.org/2000/svg">
<path d="M10.0002 6.66663C9.0185 6.66663 8.3335 7.35163 8.3335 8.33329C8.3335 9.31496 9.0185 9.99996 10.0002 9.99996C10.9818 9.99996 11.6668 9.31496 11.6668 8.33329C11.6668 7.35163 10.9818 6.66663 10.0002 6.66663Z" fill="white"/>
<path d="M10.0002 3.33337C6.386 3.33337 3.3335 6.38587 3.3335 10C3.3335 11.8134 4.10266 13.485 5.32516 14.7009C5.956 13.2009 7.44016 12.1442 9.16683 12.1442H10.8335C12.5602 12.1442 14.0452 13.2017 14.6752 14.7009C15.8977 13.485 16.6668 11.8134 16.6668 10C16.6668 6.38587 13.6143 3.33337 10.0002 3.33337ZM10.0002 11.6667C8.10016 11.6667 6.66683 10.2334 6.66683 8.33337C6.66683 6.43337 8.10016 5.00004 10.0002 5.00004C11.9002 5.00004 13.3335 6.43337 13.3335 8.33337C13.3335 10.2334 11.9002 11.6667 10.0002 11.6667Z" fill="white"/>
<path d="M9.99984 1.66663C5.48234 1.66663 1.6665 5.48246 1.6665 9.99996C1.6665 12.6575 2.99317 15.065 4.99984 16.6033V16.6666H5.08484C6.47484 17.7041 8.17734 18.3333 9.99984 18.3333C11.8223 18.3333 13.5248 17.7041 14.9148 16.6666H14.9998V16.6033C17.0065 15.065 18.3332 12.6583 18.3332 9.99996C18.3332 5.48246 14.5173 1.66663 9.99984 1.66663ZM6.72817 15.7725C6.97567 14.6516 7.97317 13.8108 9.1665 13.8108H10.8332C12.0265 13.8108 13.024 14.6525 13.2715 15.7725C12.2982 16.3366 11.1798 16.6666 9.99984 16.6666C8.81984 16.6666 7.7015 16.3366 6.72817 15.7725ZM14.6748 14.7008C14.044 13.2008 12.5598 12.1441 10.8332 12.1441H9.1665C7.43984 12.1441 5.95484 13.2016 5.32484 14.7008C4.10234 13.485 3.33317 11.8133 3.33317 9.99996C3.33317 6.38579 6.38567 3.33329 9.99984 3.33329C13.614 3.33329 16.6665 6.38579 16.6665 9.99996C16.6665 11.8133 15.8973 13.485 14.6748 14.7008Z" fill="#615E69"/>
<path d="M9.99984 5C8.09984 5 6.6665 6.43333 6.6665 8.33333C6.6665 10.2333 8.09984 11.6667 9.99984 11.6667C11.8998 11.6667 13.3332 10.2333 13.3332 8.33333C13.3332 6.43333 11.8998 5 9.99984 5ZM9.99984 10C9.01817 10 8.33317 9.315 8.33317 8.33333C8.33317 7.35167 9.01817 6.66667 9.99984 6.66667C10.9815 6.66667 11.6665 7.35167 11.6665 8.33333C11.6665 9.315 10.9815 10 9.99984 10Z" fill="#615E69"/>
</svg>
