<svg width="20" height="20" viewBox="0 0 20 20" fill="none" xmlns="http://www.w3.org/2000/svg">
<path d="M9.99992 6.66669C9.01825 6.66669 8.33325 7.35169 8.33325 8.33335C8.33325 9.31502 9.01825 10 9.99992 10C10.9816 10 11.6666 9.31502 11.6666 8.33335C11.6666 7.35169 10.9816 6.66669 9.99992 6.66669Z" fill="#3B9FF3"/>
<path d="M9.99992 3.33331C6.38575 3.33331 3.33325 6.38581 3.33325 9.99998C3.33325 11.8133 4.10242 13.485 5.32492 14.7008C5.95575 13.2008 7.43992 12.1441 9.16658 12.1441H10.8333C12.5599 12.1441 14.0449 13.2016 14.6749 14.7008C15.8974 13.485 16.6666 11.8133 16.6666 9.99998C16.6666 6.38581 13.6141 3.33331 9.99992 3.33331ZM9.99992 11.6666C8.09992 11.6666 6.66658 10.2333 6.66658 8.33331C6.66658 6.43331 8.09992 4.99998 9.99992 4.99998C11.8999 4.99998 13.3333 6.43331 13.3333 8.33331C13.3333 10.2333 11.8999 11.6666 9.99992 11.6666Z" fill="#3B9FF3"/>
<path d="M10.0001 1.66669C5.48258 1.66669 1.66675 5.48252 1.66675 10C1.66675 12.6575 2.99341 15.065 5.00008 16.6034V16.6667H5.08508C6.47508 17.7042 8.17758 18.3334 10.0001 18.3334C11.8226 18.3334 13.5251 17.7042 14.9151 16.6667H15.0001V16.6034C17.0067 15.065 18.3334 12.6584 18.3334 10C18.3334 5.48252 14.5176 1.66669 10.0001 1.66669ZM6.72842 15.7725C6.97592 14.6517 7.97341 13.8109 9.16675 13.8109H10.8334C12.0267 13.8109 13.0242 14.6525 13.2717 15.7725C12.2984 16.3367 11.1801 16.6667 10.0001 16.6667C8.82008 16.6667 7.70175 16.3367 6.72842 15.7725ZM14.6751 14.7009C14.0442 13.2009 12.5601 12.1442 10.8334 12.1442H9.16675C7.44008 12.1442 5.95508 13.2017 5.32508 14.7009C4.10258 13.485 3.33341 11.8134 3.33341 10C3.33341 6.38585 6.38591 3.33335 10.0001 3.33335C13.6142 3.33335 16.6667 6.38585 16.6667 10C16.6667 11.8134 15.8976 13.485 14.6751 14.7009Z" fill="white"/>
<path d="M10.0001 5C8.10008 5 6.66675 6.43333 6.66675 8.33333C6.66675 10.2333 8.10008 11.6667 10.0001 11.6667C11.9001 11.6667 13.3334 10.2333 13.3334 8.33333C13.3334 6.43333 11.9001 5 10.0001 5ZM10.0001 10C9.01841 10 8.33341 9.315 8.33341 8.33333C8.33341 7.35167 9.01841 6.66667 10.0001 6.66667C10.9817 6.66667 11.6667 7.35167 11.6667 8.33333C11.6667 9.315 10.9817 10 10.0001 10Z" fill="white"/>
</svg>
