<svg width="18" height="18" viewBox="0 0 18 18" fill="none" xmlns="http://www.w3.org/2000/svg">
<path d="M15.0993 5.23926L15.0994 5.24081L15.0995 5.2412C15.1022 5.2729 15.2675 7.18297 14.5912 9.45573C13.9132 11.7344 12.4024 14.3463 9.04021 15.8415L9.03779 15.8426C9.0286 15.8467 9.0164 15.85 8.99984 15.85C8.98327 15.85 8.97107 15.8467 8.96188 15.8426L8.95946 15.8415C8.89597 15.8133 8.83315 15.7847 8.77098 15.7557L9.28306 15.5078C12.4711 13.9644 13.8685 11.3495 14.4712 9.17347L14.6994 8.34995H13.8448H9.64984V3.08845V2.4628L15.0444 5.16008L15.0452 5.16046C15.0753 5.17548 15.0959 5.20499 15.0993 5.23926ZM8.34983 15.5481C5.4115 14.0208 4.04403 11.5916 3.40844 9.45546C2.73311 7.18576 2.89704 5.27794 2.90014 5.24193C2.90017 5.24152 2.90018 5.24135 2.90018 5.24142L2.90018 5.24142L2.90038 5.23944C2.90368 5.20628 2.92416 5.17555 2.95562 5.15953C2.95576 5.15946 2.9559 5.15939 2.95604 5.15932L8.95452 2.16008C8.98336 2.14566 9.01659 2.14613 9.04357 2.15967L9.0444 2.16008L9.22377 2.24976L8.70915 2.50707L3.43365 5.14482L3.08502 5.31914L3.07457 5.70877C3.05692 6.36662 3.09529 7.67521 3.50545 9.17176L3.63651 9.64995H4.13233H8.34983V14.9227V15.5481Z" fill="white" stroke="white" stroke-width="1.3"/>
</svg>
