<svg width="24" height="24" viewBox="0 0 24 24" fill="none" xmlns="http://www.w3.org/2000/svg">
<path d="M7 10.5H7.5V10V4C7.5 3.17314 8.17314 2.5 9 2.5H19C19.8269 2.5 20.5 3.17314 20.5 4V21C20.5 21.2762 20.2765 21.5 20 21.5H12H4C3.72347 21.5 3.5 21.2762 3.5 21V12C3.5 11.1731 4.17314 10.5 5 10.5H7ZM5 11.5H4.5V12V20V20.5H5H11H11.5V20V16V14V12V11.5H11H8H5ZM19 20.5H19.5V20V4V3.5H19H9H8.5V4V10V10.5H9H11C11.8269 10.5 12.5 11.1731 12.5 12V14V16V20V20.5H13H19Z" fill="#615E69" stroke="#615E69"/>
<path d="M11.5 6.5H12.5V7.5H11.5V6.5ZM15.5 6.5H16.5V7.5H15.5V6.5ZM15.5 10.531H16.5V11.5H15.5V10.531ZM15.5 14.5H16.5V15.5H15.5V14.5ZM7.5 14.501H8.5V15.501H7.5V14.501Z" fill="#615E69" stroke="#615E69"/>
</svg>
