<svg width="18" height="18" viewBox="0 0 18 18" fill="none" xmlns="http://www.w3.org/2000/svg">
<path d="M3.1 14.25V14.7968C2.97528 14.6488 2.9 14.458 2.9 14.25V3.75C2.9 3.54205 2.97528 3.35116 3.1 3.20319V3.75V14.25ZM3.75 15.1C3.54205 15.1 3.35116 15.0247 3.20319 14.9H3.75H14.2515H14.7968C14.6488 15.0247 14.458 15.1 14.25 15.1H3.75ZM15.1 14.25C15.1 14.4571 15.0254 14.6472 14.9016 14.7949L14.9015 14.2499L14.9 3.74991L14.8999 3.2031C15.0247 3.35108 15.1 3.542 15.1 3.75V14.25ZM14.25 2.9C14.458 2.9 14.6488 2.97528 14.7968 3.1H14.25H3.75H3.20319C3.35116 2.97528 3.54205 2.9 3.75 2.9H14.25Z" fill="#615E69" stroke="#615E69" stroke-width="1.3"/>
<path d="M5.25 5.25H6.7485V6.75H5.25V5.25ZM8.25 5.25H12.75V6.75H8.25V5.25ZM5.25 8.25H6.7485V9.75H5.25V8.25ZM8.25 8.25H12.75V9.75H8.25V8.25ZM5.25 11.25H6.7485V12.75H5.25V11.25ZM8.25 11.25H12.75V12.75H8.25V11.25Z" fill="#615E69"/>
</svg>
