<svg width="15" height="16" viewBox="0 0 15 16" fill="none" xmlns="http://www.w3.org/2000/svg">
<path d="M11.25 1.75H3.75C3.06062 1.75 2.5 2.31062 2.5 3V13.625C2.5 13.97 2.77938 14.25 3.125 14.25H11.875C12.2206 14.25 12.5 13.97 12.5 13.625V3C12.5 2.31062 11.9394 1.75 11.25 1.75ZM11.25 13H3.75V3H11.25V13Z" fill="white"/>
<path d="M5 4.25H6.875V5.5H5V4.25ZM8.125 4.25H10V5.5H8.125V4.25ZM5 6.75H6.875V8H5V6.75ZM8.125 6.76938H10V8H8.125V6.76938ZM5 9.25H6.875V10.5H5V9.25ZM8.125 9.25H10V10.5H8.125V9.25Z" fill="white"/>
</svg>
