<svg width="15" height="16" viewBox="0 0 15 16" fill="none" xmlns="http://www.w3.org/2000/svg">
<ellipse cx="2.5" cy="7.29688" rx="1.25" ry="1.17188" stroke="white" stroke-width="1.25"/>
<ellipse cx="12.5" cy="7.29688" rx="1.25" ry="1.17188" stroke="white" stroke-width="1.25"/>
<path d="M4.375 12.1797C4.375 10.4538 5.77411 9.05469 7.5 9.05469V9.05469C9.22589 9.05469 10.625 10.4538 10.625 12.1797V13.1562H4.375V12.1797Z" stroke="white" stroke-width="1.25"/>
<path d="M4.56486 11.1045L5.15171 11.3195L5.26831 11.0013L5.06522 10.73L4.56486 11.1045ZM4.375 13.1562H3.75V13.7812H4.375V13.1562ZM5 13.1562H5.625V12.5312H5V13.1562ZM5 13.1562V13.7812H5.625V13.1562H5ZM0.625 13.1562H0V13.7812H0.625V13.1562ZM5 12.1796C5 11.8763 5.05375 11.5869 5.15171 11.3195L3.97801 10.8895C3.83032 11.2926 3.75 11.7274 3.75 12.1796H5ZM5 13.1562V12.1796H3.75V13.1562H5ZM5 12.5312H4.375V13.7812H5V12.5312ZM4.375 13.1562V13.1562H5.625V13.1562H4.375ZM5 12.5312H4.0625V13.7812H5V12.5312ZM4.0625 12.5312H0.625V13.7812H4.0625V12.5312ZM1.25 13.1562V12.4141H0V13.1562H1.25ZM1.25 12.4141C1.25 11.5511 1.94956 10.8516 2.8125 10.8516V9.60156C1.2592 9.60156 0 10.8608 0 12.4141H1.25ZM2.8125 10.8516C3.32422 10.8516 3.77848 11.0969 4.06451 11.479L5.06522 10.73C4.55334 10.0461 3.73475 9.60156 2.8125 9.60156V10.8516Z" fill="white"/>
<path d="M10.4351 11.1045L9.84829 11.3195L9.73169 11.0013L9.93478 10.73L10.4351 11.1045ZM10.625 13.1562H11.25V13.7812H10.625V13.1562ZM10 13.1562H9.375V12.5312H10V13.1562ZM10 13.1562V13.7812H9.375V13.1562H10ZM14.375 13.1562H15V13.7812H14.375V13.1562ZM10 12.1796C10 11.8763 9.94625 11.5869 9.84829 11.3195L11.022 10.8895C11.1697 11.2926 11.25 11.7274 11.25 12.1796H10ZM10 13.1562V12.1796H11.25V13.1562H10ZM10 12.5312H10.625V13.7812H10V12.5312ZM10.625 13.1562V13.1562H9.375V13.1562H10.625ZM10 12.5312H10.9375V13.7812H10V12.5312ZM10.9375 12.5312H14.375V13.7812H10.9375V12.5312ZM13.75 13.1562V12.4141H15V13.1562H13.75ZM13.75 12.4141C13.75 11.5511 13.0504 10.8516 12.1875 10.8516V9.60156C13.7408 9.60156 15 10.8608 15 12.4141H13.75ZM12.1875 10.8516C11.6758 10.8516 11.2215 11.0969 10.9355 11.479L9.93478 10.73C10.4467 10.0461 11.2652 9.60156 12.1875 9.60156V10.8516Z" fill="white"/>
<g clip-path="url(#clip0_1486_1797)">
<path d="M3.75 4.36707L4.51875 4.40222C4.56418 4.01744 4.69429 3.64565 4.90085 3.3104C5.1074 2.97515 5.3859 2.68373 5.71875 2.45457L5.29875 1.84988C5.1975 1.68113 5.25 1.46668 5.4375 1.36824C5.625 1.27332 5.84625 1.32957 5.95125 1.49832L6.3 2.13816C6.67908 1.98538 7.08739 1.90658 7.5 1.90658C7.91261 1.90658 8.32091 1.98538 8.7 2.13816L9.04875 1.49832C9.15375 1.32957 9.375 1.27332 9.5625 1.36824C9.75 1.46668 9.8025 1.68113 9.70125 1.84988L9.28125 2.45457C9.6141 2.68373 9.89261 2.97515 10.0992 3.3104C10.3057 3.64565 10.4358 4.01744 10.4813 4.40222L11.25 4.36707C11.3495 4.36707 11.4448 4.40412 11.5152 4.47004C11.5855 4.53596 11.625 4.6254 11.625 4.71863C11.625 4.81186 11.5855 4.9013 11.5152 4.96722C11.4448 5.03317 11.3495 5.07019 11.25 5.07019L10.4813 5.03504C10.4358 5.41986 10.3057 5.79163 10.0992 6.12688C9.89261 6.4621 9.6141 6.75354 9.28125 6.98269L9.70125 7.58738C9.8025 7.75613 9.75 7.97058 9.5625 8.06902C9.375 8.16394 9.15375 8.10769 9.04875 7.93894L8.7 7.2991C8.32091 7.45189 7.91261 7.53067 7.5 7.53067C7.08739 7.53067 6.67908 7.45189 6.3 7.2991L5.95125 7.93894C5.84625 8.10769 5.625 8.16394 5.4375 8.06902C5.25 7.97058 5.1975 7.75613 5.29875 7.58738L5.71875 6.98269C5.3859 6.75354 5.1074 6.4621 4.90085 6.12688C4.69429 5.79163 4.56418 5.41986 4.51875 5.03504L3.75 5.07019C3.65054 5.07019 3.55516 5.03317 3.48483 4.96722C3.41451 4.9013 3.375 4.81186 3.375 4.71863C3.375 4.6254 3.41451 4.53596 3.48483 4.47004C3.55516 4.40412 3.65054 4.36707 3.75 4.36707ZM6.40125 4.49011C6.45 4.27566 6.57375 4.08582 6.75 3.94168L6.1275 3.04871C5.65701 3.38724 5.34834 3.8864 5.26875 4.43738L6.40125 4.49011ZM7.5 3.66395C7.62 3.66395 7.7325 3.68152 7.8375 3.71316L8.355 2.76746C8.0925 2.66551 7.80375 2.60926 7.5 2.60926C7.19625 2.60926 6.9075 2.66551 6.645 2.76746L7.1625 3.71316C7.2675 3.68152 7.38 3.66395 7.5 3.66395ZM8.59875 4.49011L9.73125 4.43738C9.65168 3.8864 9.34298 3.38724 8.8725 3.04871L8.25 3.94168C8.42625 4.08582 8.55 4.27566 8.59875 4.49011ZM8.59875 4.94714C8.55 5.1616 8.42625 5.35144 8.25 5.49558L8.8725 6.38855C9.34298 6.05003 9.65168 5.55088 9.73125 4.99988L8.59875 4.94714ZM7.5 5.77332C7.38 5.77332 7.2675 5.75574 7.15875 5.7241L6.645 6.6698C6.9075 6.77175 7.19625 6.828 7.5 6.828C7.80375 6.828 8.0925 6.77175 8.355 6.6698L7.84125 5.7241C7.7325 5.75574 7.62 5.77332 7.5 5.77332ZM6.40125 4.94714L5.26875 4.99988C5.35125 5.56238 5.66625 6.05808 6.1275 6.38855L6.75 5.49558C6.57375 5.35144 6.45 5.1616 6.40125 4.94714Z" fill="white"/>
</g>
<defs>
<clipPath id="clip0_1486_1797">
<rect width="9" height="8.4375" fill="white" transform="translate(3 0.5)"/>
</clipPath>
</defs>
</svg>
