<svg width="15" height="16" viewBox="0 0 15 16" fill="none" xmlns="http://www.w3.org/2000/svg">
<path d="M12.5 2.375H4.375C3.68563 2.375 3.125 2.93562 3.125 3.625V4.875H2.5C1.81062 4.875 1.25 5.43563 1.25 6.125V12.375C1.25 13.0644 1.81062 13.625 2.5 13.625H6.25C6.93937 13.625 7.5 13.0644 7.5 12.375H12.5C13.1894 12.375 13.75 11.8144 13.75 11.125V3.625C13.75 2.93562 13.1894 2.375 12.5 2.375ZM3.75 6.125H6.25L6.24813 11.75H2.5V6.125H3.75ZM7.5 11.125V6.125C7.5 5.43563 6.93937 4.875 6.25 4.875H4.375V3.625H11.25V11.125H7.5Z" fill="#615E69"/>
</svg>
