<svg width="15" height="16" viewBox="0 0 15 16" fill="none" xmlns="http://www.w3.org/2000/svg">
<path d="M10.3775 7.40498C10.755 6.76186 10.9225 6.01248 10.8469 5.25498C10.735 4.13998 10.1125 3.15436 9.09499 2.47998L8.40436 3.52123C9.10374 3.98498 9.52936 4.64561 9.60311 5.37998C9.67186 6.07061 9.42811 6.75123 8.93311 7.24623L8.18811 7.99123L9.19936 8.28811C11.8444 9.06311 11.875 11.7231 11.875 11.75H13.125C13.125 10.6319 12.5275 8.44686 10.3775 7.40498Z" fill="white"/>
<path d="M5.9375 8C7.31625 8 8.4375 6.87875 8.4375 5.5C8.4375 4.12125 7.31625 3 5.9375 3C4.55875 3 3.4375 4.12125 3.4375 5.5C3.4375 6.87875 4.55875 8 5.9375 8ZM5.9375 4.25C6.62687 4.25 7.1875 4.81062 7.1875 5.5C7.1875 6.18937 6.62687 6.75 5.9375 6.75C5.24813 6.75 4.6875 6.18937 4.6875 5.5C4.6875 4.81062 5.24813 4.25 5.9375 4.25ZM6.875 8.625H5C2.93187 8.625 1.25 10.3069 1.25 12.375V13H2.5V12.375C2.5 10.9963 3.62125 9.875 5 9.875H6.875C8.25375 9.875 9.375 10.9963 9.375 12.375V13H10.625V12.375C10.625 10.3069 8.94312 8.625 6.875 8.625Z" fill="white"/>
</svg>
