<svg width="20" height="20" viewBox="0 0 20 20" fill="none" xmlns="http://www.w3.org/2000/svg">
<path d="M14.1701 4.16675C14.1684 4.16675 14.1676 4.16675 14.1667 4.16675H14.1659H7.50008C5.96841 4.16675 4.51175 4.78091 3.39675 5.89675C2.28091 7.01258 1.66675 8.46925 1.66675 10.0001C1.66675 11.5317 2.28091 12.9884 3.39675 14.1034C4.51175 15.2192 5.96841 15.8334 7.50008 15.8334H14.1667V14.1667H7.50008C6.41425 14.1667 5.37508 13.7259 4.57508 12.9251C3.77425 12.1251 3.33341 11.0859 3.33341 10.0001C3.33341 8.91508 3.77425 7.87592 4.57508 7.07508C5.37508 6.27425 6.41425 5.83341 7.50008 5.83341H14.1667V5.00008L14.1676 5.83341C14.1684 5.83341 14.1692 5.83341 14.1701 5.83341C14.8284 5.83341 15.4526 6.09508 15.9276 6.57175C16.4034 7.04758 16.6659 7.67341 16.6667 8.33508C16.6676 8.99258 16.4059 9.61758 15.9301 10.0934C15.4526 10.5701 14.8259 10.8326 14.1667 10.8334H7.50008C7.28675 10.8334 7.07925 10.7442 6.91842 10.5834C6.75592 10.4209 6.66675 10.2134 6.66675 10.0001C6.66675 9.79008 6.75841 9.57758 6.91758 9.41842C7.07925 9.25592 7.28675 9.16675 7.50008 9.16675H14.1667V7.50008H7.50008C6.84175 7.50008 6.21592 7.76258 5.73842 8.24092C5.26175 8.71758 5.00008 9.34258 5.00008 10.0001C5.00008 10.6576 5.26175 11.2834 5.74008 11.7617C6.21675 12.2384 6.84258 12.5001 7.50008 12.5001H14.1676C15.2709 12.4992 16.3151 12.0642 17.1076 11.2726C17.9001 10.4809 18.3351 9.43591 18.3334 8.33258C18.3326 7.22758 17.8967 6.18342 17.1067 5.39341C16.3167 4.60175 15.2734 4.16675 14.1701 4.16675Z" fill="#615E69"/>
</svg>
