<svg width="20" height="20" viewBox="0 0 20 20" fill="none" xmlns="http://www.w3.org/2000/svg">
<path d="M14.17 4.16669C14.1683 4.16669 14.1675 4.16669 14.1666 4.16669H14.1658H7.49996C5.96829 4.16669 4.51163 4.78085 3.39663 5.89669C2.28079 7.01252 1.66663 8.46919 1.66663 10C1.66663 11.5317 2.28079 12.9884 3.39663 14.1034C4.51163 15.2192 5.96829 15.8334 7.49996 15.8334H14.1666V14.1667H7.49996C6.41413 14.1667 5.37496 13.7259 4.57496 12.925C3.77413 12.125 3.33329 11.0859 3.33329 10C3.33329 8.91502 3.77413 7.87585 4.57496 7.07502C5.37496 6.27419 6.41413 5.83335 7.49996 5.83335H14.1666V5.00002L14.1675 5.83335C14.1683 5.83335 14.1691 5.83335 14.17 5.83335C14.8283 5.83335 15.4525 6.09502 15.9275 6.57169C16.4033 7.04752 16.6658 7.67335 16.6666 8.33502C16.6675 8.99252 16.4058 9.61752 15.93 10.0934C15.4525 10.57 14.8258 10.8325 14.1666 10.8334H7.49996C7.28663 10.8334 7.07913 10.7442 6.91829 10.5834C6.75579 10.4209 6.66663 10.2134 6.66663 10C6.66663 9.79002 6.75829 9.57752 6.91746 9.41835C7.07913 9.25585 7.28663 9.16669 7.49996 9.16669H14.1666V7.50002H7.49996C6.84163 7.50002 6.21579 7.76252 5.73829 8.24085C5.26163 8.71752 4.99996 9.34252 4.99996 10C4.99996 10.6575 5.26163 11.2834 5.73996 11.7617C6.21663 12.2384 6.84246 12.5 7.49996 12.5H14.1675C15.2708 12.4992 16.315 12.0642 17.1075 11.2725C17.9 10.4809 18.335 9.43585 18.3333 8.33252C18.3325 7.22752 17.8966 6.18335 17.1066 5.39335C16.3166 4.60169 15.2733 4.16669 14.17 4.16669Z" fill="white"/>
</svg>
