<svg width="15" height="16" viewBox="0 0 15 16" fill="none" xmlns="http://www.w3.org/2000/svg">
<path d="M12.4394 5.86625C12.4087 5.8 12.3706 5.73688 12.3169 5.68313L8.56687 1.93312C8.51312 1.87937 8.45 1.84125 8.38375 1.81062C8.365 1.80187 8.345 1.79687 8.325 1.79C8.2725 1.7725 8.21875 1.76125 8.16313 1.75813C8.15 1.75688 8.13812 1.75 8.125 1.75H3.75C3.06062 1.75 2.5 2.31062 2.5 3V13C2.5 13.6894 3.06062 14.25 3.75 14.25H11.25C11.9394 14.25 12.5 13.6894 12.5 13V6.125C12.5 6.11188 12.4931 6.1 12.4919 6.08625C12.4887 6.03062 12.4781 5.97687 12.46 5.92438C12.4538 5.90438 12.4481 5.885 12.4394 5.86625ZM10.3663 5.5H8.75V3.88375L10.3663 5.5ZM3.75 13V3H7.5V6.125C7.5 6.47062 7.77938 6.75 8.125 6.75H11.25L11.2513 13H3.75Z" fill="#615E69"/>
<path d="M5 8H10V9.25H5V8ZM5 10.5H10V11.75H5V10.5ZM5 5.5H6.25V6.75H5V5.5Z" fill="#615E69"/>
</svg>
