<svg width="15" height="15" viewBox="0 0 20 20" fill="none" xmlns="http://www.w3.org/2000/svg">
<path d="M18.3334 12.5L15.8334 9.16667L13.3334 12.5H14.9217C14.5584 14.5575 12.8901 16.2258 10.8334 16.5883V10.8333H12.5001V9.16667H10.8334V7.78C12.1192 7.3975 13.0951 6.1775 13.0951 4.7625C13.0951 3.055 11.7067 1.66667 10.0001 1.66667C8.29341 1.66667 6.90508 3.055 6.90508 4.7625C6.90508 6.1775 7.88092 7.3975 9.16675 7.78V9.16667H7.50008V10.8333H9.16675V16.5883C7.10925 16.2258 5.44091 14.5575 5.07841 12.5H6.66675L4.16675 9.16667L1.66675 12.5H3.39425C3.82008 15.7375 6.66842 18.3333 10.0001 18.3333C13.3317 18.3333 16.1801 15.7375 16.6059 12.5H18.3334ZM8.57175 4.7625C8.57175 3.975 9.21258 3.33333 10.0001 3.33333C10.7876 3.33333 11.4284 3.975 11.4284 4.7625C11.4284 5.555 10.7609 6.25 10.0001 6.25C9.23925 6.25 8.57175 5.555 8.57175 4.7625Z" fill="white"/>
</svg>
