<svg width="20" height="20" viewBox="0 0 20 20" fill="none" xmlns="http://www.w3.org/2000/svg">
<path d="M4.16667 18.3334H15.8333C16.7525 18.3334 17.5 17.5859 17.5 16.6667V4.16669C17.5 3.24752 16.7525 2.50002 15.8333 2.50002H14.1667C14.1667 2.03919 13.7942 1.66669 13.3333 1.66669H6.66667C6.20583 1.66669 5.83333 2.03919 5.83333 2.50002H4.16667C3.2475 2.50002 2.5 3.24752 2.5 4.16669V16.6667C2.5 17.5859 3.2475 18.3334 4.16667 18.3334ZM4.16667 4.16669H5.83333V5.83335H14.1667V4.16669H15.8333V16.6667H4.16667V4.16669Z" fill="#3B9FF3"/>
<path d="M9.1667 11.3217L7.67253 9.82749L6.4942 11.0058L9.1667 13.6783L13.5059 9.33916L12.3275 8.16083L9.1667 11.3217Z" fill="#3B9FF3"/>
</svg>
