<svg width="20" height="20" viewBox="0 0 20 20" fill="none" xmlns="http://www.w3.org/2000/svg">
<path d="M4.16667 18.3333H15.8333C16.7525 18.3333 17.5 17.5858 17.5 16.6667V4.16667C17.5 3.2475 16.7525 2.5 15.8333 2.5H14.1667C14.1667 2.03917 13.7942 1.66667 13.3333 1.66667H6.66667C6.20583 1.66667 5.83333 2.03917 5.83333 2.5H4.16667C3.2475 2.5 2.5 3.2475 2.5 4.16667V16.6667C2.5 17.5858 3.2475 18.3333 4.16667 18.3333ZM4.16667 4.16667H5.83333V5.83333H14.1667V4.16667H15.8333V16.6667H4.16667V4.16667Z" fill="#34303E"/>
<path d="M9.16664 11.3217L7.67247 9.82751L6.49414 11.0058L9.16664 13.6783L13.5058 9.33917L12.3275 8.16084L9.16664 11.3217Z" fill="#34303E"/>
</svg>
