<svg width="20" height="20" viewBox="0 0 20 20" fill="none" xmlns="http://www.w3.org/2000/svg">
<path d="M15.8333 1.66669H7.5C6.58083 1.66669 5.83333 2.41419 5.83333 3.33335V8.33335H4.16667C3.2475 8.33335 2.5 9.08085 2.5 10V17.5C2.5 17.96 2.8725 18.3334 3.33333 18.3334H10H16.6667C17.1275 18.3334 17.5 17.96 17.5 17.5V3.33335C17.5 2.41419 16.7525 1.66669 15.8333 1.66669ZM4.16667 10H6.66667H9.16667V11.6667V13.3334V16.6667H4.16667V10ZM15.8333 16.6667H10.8333V13.3334V11.6667V10C10.8333 9.08085 10.0858 8.33335 9.16667 8.33335H7.5V3.33335H15.8333V16.6667Z" fill="#3B9FF3"/>
<path d="M9.16665 5H10.8333V6.66667H9.16665V5ZM12.5 5H14.1666V6.66667H12.5V5ZM12.5 8.35917H14.1666V10H12.5V8.35917ZM12.5 11.6667H14.1666V13.3333H12.5V11.6667ZM5.83331 11.6675H7.49998V13.3342H5.83331V11.6675Z" fill="#3B9FF3"/>
</svg>
