<svg width="20" height="20" viewBox="0 0 20 20" fill="none" xmlns="http://www.w3.org/2000/svg">
<path d="M9.99998 6.66669C9.01831 6.66669 8.33331 7.35169 8.33331 8.33335C8.33331 9.31502 9.01831 10 9.99998 10C10.9816 10 11.6666 9.31502 11.6666 8.33335C11.6666 7.35169 10.9816 6.66669 9.99998 6.66669Z" fill="white"/>
<path d="M9.99998 3.33331C6.38581 3.33331 3.33331 6.38581 3.33331 9.99998C3.33331 11.8133 4.10248 13.485 5.32498 14.7008C5.95581 13.2008 7.43998 12.1441 9.16665 12.1441H10.8333C12.56 12.1441 14.045 13.2016 14.675 14.7008C15.8975 13.485 16.6666 11.8133 16.6666 9.99998C16.6666 6.38581 13.6141 3.33331 9.99998 3.33331ZM9.99998 11.6666C8.09998 11.6666 6.66665 10.2333 6.66665 8.33331C6.66665 6.43331 8.09998 4.99998 9.99998 4.99998C11.9 4.99998 13.3333 6.43331 13.3333 8.33331C13.3333 10.2333 11.9 11.6666 9.99998 11.6666Z" fill="white"/>
<path d="M10 1.66669C5.48252 1.66669 1.66669 5.48252 1.66669 10C1.66669 12.6575 2.99335 15.065 5.00002 16.6034V16.6667H5.08502C6.47502 17.7042 8.17752 18.3334 10 18.3334C11.8225 18.3334 13.525 17.7042 14.915 16.6667H15V16.6034C17.0067 15.065 18.3334 12.6584 18.3334 10C18.3334 5.48252 14.5175 1.66669 10 1.66669ZM6.72835 15.7725C6.97585 14.6517 7.97335 13.8109 9.16669 13.8109H10.8334C12.0267 13.8109 13.0242 14.6525 13.2717 15.7725C12.2984 16.3367 11.18 16.6667 10 16.6667C8.82002 16.6667 7.70169 16.3367 6.72835 15.7725ZM14.675 14.7009C14.0442 13.2009 12.56 12.1442 10.8334 12.1442H9.16669C7.44002 12.1442 5.95502 13.2017 5.32502 14.7009C4.10252 13.485 3.33335 11.8134 3.33335 10C3.33335 6.38585 6.38585 3.33335 10 3.33335C13.6142 3.33335 16.6667 6.38585 16.6667 10C16.6667 11.8134 15.8975 13.485 14.675 14.7009Z" fill="#3B9FF3"/>
<path d="M10 5C8.10002 5 6.66669 6.43333 6.66669 8.33333C6.66669 10.2333 8.10002 11.6667 10 11.6667C11.9 11.6667 13.3334 10.2333 13.3334 8.33333C13.3334 6.43333 11.9 5 10 5ZM10 10C9.01835 10 8.33335 9.315 8.33335 8.33333C8.33335 7.35167 9.01835 6.66667 10 6.66667C10.9817 6.66667 11.6667 7.35167 11.6667 8.33333C11.6667 9.315 10.9817 10 10 10Z" fill="#3B9FF3"/>
</svg>
