<svg width="18" height="20" viewBox="0 0 18 20" fill="none" xmlns="http://www.w3.org/2000/svg">
<path d="M1.5 8.78924C1.5 7.83568 1.95332 6.93892 2.72115 6.37352L9 1.75L15.2788 6.37352C16.0467 6.93892 16.5 7.83568 16.5 8.78923V15.75C16.5 17.1307 15.3807 18.25 14 18.25H12.25C11.6977 18.25 11.25 17.8023 11.25 17.25V13.125C11.25 12.8489 11.0261 12.625 10.75 12.625H7.25C6.97386 12.625 6.75 12.8489 6.75 13.125V17.25C6.75 17.8023 6.30228 18.25 5.75 18.25H4C2.61929 18.25 1.5 17.1307 1.5 15.75V8.78924Z" stroke="#3B9FF3" stroke-width="1.75" stroke-linecap="round" stroke-linejoin="round"/>
</svg>
