<svg width="15" height="16" viewBox="0 0 15 16" fill="none" xmlns="http://www.w3.org/2000/svg">
<path d="M9.28694 0.850977C8.74152 0.630957 8.13984 0.5 7.5 0.5C5.70234 0.5 4.16853 1.47061 3.53203 2.84375H6.25045L9.28694 0.850977ZM11.468 2.84375C11.2035 2.27334 10.7759 1.7832 10.2462 1.39297L8.03538 2.84375H11.468ZM7.5 8C9.86685 8 11.7857 6.321 11.7857 4.25C11.7857 4.08945 11.7539 3.93652 11.7318 3.78125H3.26819C3.24576 3.93652 3.21429 4.08945 3.21429 4.25C3.21429 6.321 5.13315 8 7.5 8ZM2.67857 9.28027V15.5H6.97299L3.67667 9.01016C3.333 9.06557 2.99799 9.15624 2.67857 9.28027ZM0 14.0938C0 14.8704 0.719531 15.5 1.60714 15.5V9.88203C0.632143 10.6042 0 11.6697 0 12.875V14.0938ZM8.57143 12.6875H6.71719L8.14587 15.5H8.57143C9.4577 15.5 10.1786 14.8692 10.1786 14.0938C10.1786 13.3183 9.4577 12.6875 8.57143 12.6875ZM10.5 8.9375H9.94051C9.19587 9.23574 8.37087 9.40625 7.5 9.40625C6.62913 9.40625 5.80413 9.23574 5.05949 8.9375H4.81272L6.24141 11.75H8.57143C10.0483 11.75 11.25 12.8015 11.25 14.0938C11.25 14.6234 11.0404 15.1071 10.7006 15.5H13.3929C14.2805 15.5 15 14.8704 15 14.0938V12.875C15 10.7003 12.9854 8.9375 10.5 8.9375Z" fill="#1E62DC"/>
</svg>
