<svg width="15" height="16" viewBox="0 0 15 16" fill="none" xmlns="http://www.w3.org/2000/svg">
<path d="M7.5 11.125L8.125 9.875V6.66125C9.20062 6.38187 10 5.41125 10 4.25C10 2.87125 8.87875 1.75 7.5 1.75C6.12125 1.75 5 2.87125 5 4.25C5 5.41125 5.79938 6.38187 6.875 6.66125V9.875L7.5 11.125ZM6.25 4.25C6.25 3.56062 6.81062 3 7.5 3C8.18937 3 8.75 3.56062 8.75 4.25C8.75 4.93937 8.18937 5.5 7.5 5.5C6.81062 5.5 6.25 4.93937 6.25 4.25Z" fill="#1E62DC"/>
<path d="M10.1669 7.10188L9.83375 8.30688C11.4531 8.75438 12.5 9.61501 12.5 10.5C12.5 11.6825 10.4469 13 7.5 13C4.55313 13 2.5 11.6825 2.5 10.5C2.5 9.61501 3.54688 8.75438 5.16688 8.30626L4.83375 7.10126C2.62313 7.71251 1.25 9.01438 1.25 10.5C1.25 12.6025 3.99563 14.25 7.5 14.25C11.0044 14.25 13.75 12.6025 13.75 10.5C13.75 9.01438 12.3769 7.71251 10.1669 7.10188Z" fill="#1E62DC"/>
</svg>
