<svg width="15" height="16" viewBox="0 0 15 16" fill="none" xmlns="http://www.w3.org/2000/svg">
<path d="M10 1.75H5C2.93187 1.75 1.25 3.43187 1.25 5.5V13.625C1.25 13.9706 1.52938 14.25 1.875 14.25H10C12.0681 14.25 13.75 12.5681 13.75 10.5V5.5C13.75 3.43187 12.0681 1.75 10 1.75ZM12.5 10.5C12.5 11.8787 11.3787 13 10 13H2.5V5.5C2.5 4.12125 3.62125 3 5 3H10C11.3787 3 12.5 4.12125 12.5 5.5V10.5Z" fill="#615E69"/>
<path d="M9.5575 5.05933L7.5 7.11683L5.4425 5.05933L4.55875 5.94308L6.61625 8.00058L4.55875 10.0581L5.4425 10.9418L7.5 8.88433L9.5575 10.9418L10.4412 10.0581L8.38375 8.00058L10.4412 5.94308L9.5575 5.05933Z" fill="#615E69"/>
</svg>
