<svg width="20" height="20" viewBox="0 0 20 20" fill="none" xmlns="http://www.w3.org/2000/svg">
<path d="M9.51666 18.1792C9.66166 18.2817 9.83083 18.3334 9.99999 18.3334C10.1692 18.3334 10.3383 18.2817 10.4833 18.1792C10.7367 17.9984 16.6908 13.7 16.6667 8.33335C16.6667 4.65752 13.6758 1.66669 9.99999 1.66669C6.32416 1.66669 3.33333 4.65752 3.33333 8.33002C3.30916 13.7 9.26333 17.9984 9.51666 18.1792ZM9.99999 3.33335C12.7575 3.33335 15 5.57585 15 8.33669C15.0175 12.035 11.3433 15.3559 9.99999 16.4459C8.65749 15.3559 4.98249 12.035 4.99999 8.33335C4.99999 5.57585 7.24249 3.33335 9.99999 3.33335Z" fill="#615E69"/>
<path d="M9.16675 11.6667H10.8334V9.16667H13.3334V7.5H10.8334V5H9.16675V7.5H6.66675V9.16667H9.16675V11.6667Z" fill="#615E69"/>
</svg>
