<svg width="20" height="20" viewBox="0 0 20 20" fill="none" xmlns="http://www.w3.org/2000/svg">
<path d="M9.51666 18.1795C9.66166 18.282 9.83083 18.3337 9.99999 18.3337C10.1692 18.3337 10.3383 18.282 10.4833 18.1795C10.7367 17.9987 16.6908 13.7003 16.6667 8.33366C16.6667 4.65783 13.6758 1.66699 9.99999 1.66699C6.32416 1.66699 3.33333 4.65783 3.33333 8.33033C3.30916 13.7003 9.26333 17.9987 9.51666 18.1795ZM9.99999 3.33366C12.7575 3.33366 15 5.57616 15 8.33699C15.0175 12.0353 11.3433 15.3562 9.99999 16.4462C8.65749 15.3562 4.98249 12.0353 4.99999 8.33366C4.99999 5.57616 7.24249 3.33366 9.99999 3.33366Z" fill="#F9F9F9"/>
<path d="M9.16675 11.6667H10.8334V9.16667H13.3334V7.5H10.8334V5H9.16675V7.5H6.66675V9.16667H9.16675V11.6667Z" fill="#F9F9F9"/>
</svg>
