<svg width="15" height="16" viewBox="0 0 15 16" fill="none" xmlns="http://www.w3.org/2000/svg">
<path d="M7.5 9.25C8.87875 9.25 10 8.12875 10 6.75C10 5.37125 8.87875 4.25 7.5 4.25C6.12125 4.25 5 5.37125 5 6.75C5 8.12875 6.12125 9.25 7.5 9.25ZM7.5 5.5C8.18938 5.5 8.75 6.06062 8.75 6.75C8.75 7.43938 8.18938 8 7.5 8C6.81062 8 6.25 7.43938 6.25 6.75C6.25 6.06062 6.81062 5.5 7.5 5.5Z" fill="#615E69"/>
<path d="M7.13756 14.1337C7.24631 14.2112 7.37318 14.25 7.50005 14.25C7.62693 14.25 7.7538 14.2112 7.86255 14.1337C8.05255 13.9994 12.5182 10.775 12.5001 6.75C12.5001 3.99313 10.2569 1.75 7.50005 1.75C4.74318 1.75 2.50006 3.99312 2.50006 6.74687C2.48193 10.775 6.94756 13.9994 7.13756 14.1337ZM7.50005 3C9.56818 3 11.2501 4.68188 11.2501 6.75313C11.2632 9.52688 8.50755 12.0175 7.50005 12.8344C6.49318 12.0169 3.73693 9.52562 3.75005 6.75C3.75005 4.68187 5.43193 3 7.50005 3Z" fill="#615E69"/>
</svg>
