<svg width="15" height="16" viewBox="0 0 15 16" fill="none" xmlns="http://www.w3.org/2000/svg">
<path d="M6.25 11.75C7.40375 11.75 8.46438 11.3531 9.31063 10.695L12.0581 13.4425L12.9419 12.5588L10.1944 9.81125C10.8531 8.96438 11.25 7.90375 11.25 6.75C11.25 3.99313 9.00688 1.75 6.25 1.75C3.49313 1.75 1.25 3.99313 1.25 6.75C1.25 9.50688 3.49313 11.75 6.25 11.75ZM6.25 3C8.31812 3 10 4.68187 10 6.75C10 8.81812 8.31812 10.5 6.25 10.5C4.18187 10.5 2.5 8.81812 2.5 6.75C2.5 4.68187 4.18187 3 6.25 3Z" fill="#615E69"/>
<path d="M7.13258 5.86618C7.36945 6.10368 7.50008 6.41743 7.50008 6.74993H8.75008C8.75008 6.08431 8.49008 5.45681 8.01633 4.98243C7.07008 4.03743 5.42945 4.03743 4.48383 4.98243L5.36633 5.86743C5.84133 5.39368 6.66008 5.39493 7.13258 5.86618Z" fill="white"/>
</svg>
