<svg width="20" height="20" viewBox="0 0 20 20" fill="none" xmlns="http://www.w3.org/2000/svg">
<path d="M9.99984 13.3333C11.8408 13.3333 13.3332 11.841 13.3332 10C13.3332 8.15906 11.8408 6.66667 9.99984 6.66667C8.15889 6.66667 6.6665 8.15906 6.6665 10C6.6665 11.841 8.15889 13.3333 9.99984 13.3333Z" fill="#615E69"/>
<path d="M10.8332 3.39084V1.66667H9.1665V3.39084C6.15734 3.76834 3.769 6.15751 3.39067 9.16667H1.6665V10.8333H3.39067C3.769 13.8425 6.1565 16.2317 9.1665 16.6092V18.3333H10.8332V16.6092C13.8423 16.2317 16.2315 13.8433 16.609 10.8333H18.3332V9.16667H16.609C16.2315 6.15751 13.8423 3.76834 10.8332 3.39084ZM9.99984 15C7.24234 15 4.99984 12.7575 4.99984 10C4.99984 7.24251 7.24234 5.00001 9.99984 5.00001C12.7573 5.00001 14.9998 7.24251 14.9998 10C14.9998 12.7575 12.7573 15 9.99984 15Z" fill="#615E69"/>
</svg>