
<svg width="20" height="20" viewBox="0 0 20 20" fill="none" xmlns="http://www.w3.org/2000/svg">
<path d="M9.99999 13.3334C11.8409 13.3334 13.3333 11.841 13.3333 10.0001C13.3333 8.15913 11.8409 6.66675 9.99999 6.66675C8.15904 6.66675 6.66666 8.15913 6.66666 10.0001C6.66666 11.841 8.15904 13.3334 9.99999 13.3334Z" fill="white"/>
<path d="M10.8333 3.39091V1.66675H9.16666V3.39091C6.15749 3.76841 3.76916 6.15758 3.39082 9.16675H1.66666V10.8334H3.39082C3.76916 13.8426 6.15666 16.2317 9.16666 16.6092V18.3334H10.8333V16.6092C13.8425 16.2317 16.2317 13.8434 16.6092 10.8334H18.3333V9.16675H16.6092C16.2317 6.15758 13.8425 3.76841 10.8333 3.39091ZM9.99999 15.0001C7.24249 15.0001 4.99999 12.7576 4.99999 10.0001C4.99999 7.24258 7.24249 5.00008 9.99999 5.00008C12.7575 5.00008 15 7.24258 15 10.0001C15 12.7576 12.7575 15.0001 9.99999 15.0001Z" fill="white"/>
</svg>
