<svg width="15" height="16" viewBox="0 0 15 16" fill="none" xmlns="http://www.w3.org/2000/svg">
<path d="M3.46047 4.58568L3.68501 3.97569L2.36435 3.48956L2.85048 4.81022L3.46047 4.58568ZM11.4806 7.5379L11.9402 7.99752L12.6588 7.27895L11.7051 6.92791L11.4806 7.5379ZM6.41269 12.6058L5.8027 12.8303L6.15374 13.784L6.87231 13.0654L6.41269 12.6058ZM9.67813 9.34036L9.21851 8.88074L9.21851 8.88074L9.67813 9.34036ZM8.21515 10.8033L7.75553 10.3437L7.29592 10.8033L7.75553 11.263L8.21515 10.8033ZM10.0439 12.6321L9.58426 13.0917L10.0439 13.5513L10.5035 13.0917L10.0439 12.6321ZM11.5069 11.1691L11.9665 11.6287L12.4261 11.1691L11.9665 10.7095L11.5069 11.1691ZM3.23593 5.19567L11.2561 8.14788L11.7051 6.92791L3.68501 3.97569L3.23593 5.19567ZM7.02268 12.3813L4.07046 4.36114L2.85048 4.81022L5.8027 12.8303L7.02268 12.3813ZM9.21851 8.88074L5.95307 12.1462L6.87231 13.0654L10.1378 9.79998L9.21851 8.88074ZM8.67477 11.263L10.1378 9.79998L9.21851 8.88074L7.75553 10.3437L8.67477 11.263ZM10.5035 12.1725L8.67477 10.3437L7.75553 11.263L9.58426 13.0917L10.5035 12.1725ZM11.0472 10.7095L9.58426 12.1725L10.5035 13.0917L11.9665 11.6287L11.0472 10.7095ZM9.21851 9.79998L11.0472 11.6287L11.9665 10.7095L10.1378 8.88074L9.21851 9.79998ZM11.021 7.07828L9.21851 8.88074L10.1378 9.79998L11.9402 7.99752L11.021 7.07828Z" fill="white"/>
</svg>
