<svg width="16" height="18" viewBox="0 0 16 18" fill="none" xmlns="http://www.w3.org/2000/svg">
<path d="M15.4958 4.75279C15.4683 4.46779 15.2966 4.21695 15.04 4.08862L8.3958 0.755287C8.16164 0.63612 7.88497 0.636953 7.64997 0.75362L0.960803 4.08695C0.713303 4.21195 0.542469 4.45112 0.507469 4.72612C0.496636 4.80695 -0.446697 12.8436 7.62497 17.2328C7.7483 17.3003 7.8858 17.3336 8.02247 17.3336C8.16414 17.3336 8.3058 17.2978 8.43247 17.2253C16.1883 12.8428 15.5275 5.08112 15.4958 4.75279ZM8.01497 15.5395C2.2983 12.1978 2.06497 6.91279 2.12914 5.36862L8.02164 2.43279L13.8533 5.35862C13.8575 6.91695 13.4525 12.2278 8.01497 15.5395Z" fill="#34303E"/>
</svg>
