<svg width="16" height="18" viewBox="0 0 16 18" fill="none" xmlns="http://www.w3.org/2000/svg">
<path d="M15.496 4.75248C15.4685 4.46748 15.2969 4.21665 15.0402 4.08831L8.39605 0.754981C8.16188 0.635815 7.88521 0.636648 7.65021 0.753315L0.961047 4.08665C0.713547 4.21165 0.542713 4.45081 0.507713 4.72581C0.49688 4.80665 -0.446453 12.8433 7.62521 17.2325C7.74855 17.3 7.88605 17.3333 8.02271 17.3333C8.16438 17.3333 8.30605 17.2975 8.43271 17.225C16.1885 12.8425 15.5277 5.08081 15.496 4.75248ZM8.01521 15.5391C2.29855 12.1975 2.06521 6.91248 2.12938 5.36831L8.02188 2.43248L13.8535 5.35831C13.8577 6.91665 13.4527 12.2275 8.01521 15.5391Z" fill="#3B9FF3"/>
</svg>
