<svg width="15" height="16" viewBox="0 0 15 16" fill="none" xmlns="http://www.w3.org/2000/svg">
<path d="M1.25 7.37501L2.53125 7.43751C2.60697 6.75341 2.82382 6.09247 3.16807 5.49648C3.51233 4.90049 3.9765 4.38241 4.53125 3.97501L3.83125 2.90001C3.6625 2.60001 3.75 2.21876 4.0625 2.04376C4.375 1.87501 4.74375 1.97501 4.91875 2.27501L5.5 3.41251C6.13179 3.14089 6.81229 3.00081 7.5 3.00081C8.18771 3.00081 8.86821 3.14089 9.5 3.41251L10.0812 2.27501C10.2562 1.97501 10.625 1.87501 10.9375 2.04376C11.25 2.21876 11.3375 2.60001 11.1688 2.90001L10.4688 3.97501C11.0235 4.38241 11.4877 4.90049 11.8319 5.49648C12.1762 6.09247 12.393 6.75341 12.4688 7.43751L13.75 7.37501C13.9158 7.37501 14.0747 7.44086 14.1919 7.55807C14.3092 7.67528 14.375 7.83425 14.375 8.00001C14.375 8.16577 14.3092 8.32474 14.1919 8.44195C14.0747 8.55916 13.9158 8.62501 13.75 8.62501L12.4688 8.56251C12.393 9.2466 12.1762 9.90754 11.8319 10.5035C11.4877 11.0995 11.0235 11.6176 10.4688 12.025L11.1688 13.1C11.3375 13.4 11.25 13.7813 10.9375 13.9563C10.625 14.125 10.2562 14.025 10.0812 13.725L9.5 12.5875C8.86821 12.8591 8.18771 12.9992 7.5 12.9992C6.81229 12.9992 6.13179 12.8591 5.5 12.5875L4.91875 13.725C4.74375 14.025 4.375 14.125 4.0625 13.9563C3.75 13.7813 3.6625 13.4 3.83125 13.1L4.53125 12.025C3.9765 11.6176 3.51233 11.0995 3.16807 10.5035C2.82382 9.90754 2.60697 9.2466 2.53125 8.56251L1.25 8.62501C1.08424 8.62501 0.925268 8.55916 0.808058 8.44195C0.690848 8.32474 0.625 8.16577 0.625 8.00001C0.625 7.83425 0.690848 7.67528 0.808058 7.55807C0.925268 7.44086 1.08424 7.37501 1.25 7.37501ZM5.66875 7.59376C5.75 7.21251 5.95625 6.87501 6.25 6.61876L5.2125 5.03126C4.42835 5.63308 3.91389 6.52047 3.78125 7.50001L5.66875 7.59376ZM7.5 6.12501C7.7 6.12501 7.8875 6.15626 8.0625 6.21251L8.925 4.53126C8.4875 4.35001 8.00625 4.25001 7.5 4.25001C6.99375 4.25001 6.5125 4.35001 6.075 4.53126L6.9375 6.21251C7.1125 6.15626 7.3 6.12501 7.5 6.12501ZM9.33125 7.59376L11.2188 7.50001C11.0861 6.52047 10.5716 5.63308 9.7875 5.03126L8.75 6.61876C9.04375 6.87501 9.25 7.21251 9.33125 7.59376ZM9.33125 8.40626C9.25 8.78751 9.04375 9.12501 8.75 9.38126L9.7875 10.9688C10.5716 10.3669 11.0861 9.47954 11.2188 8.50001L9.33125 8.40626ZM7.5 9.87501C7.3 9.87501 7.1125 9.84376 6.93125 9.78751L6.075 11.4688C6.5125 11.65 6.99375 11.75 7.5 11.75C8.00625 11.75 8.4875 11.65 8.925 11.4688L8.06875 9.78751C7.8875 9.84376 7.7 9.87501 7.5 9.87501ZM5.66875 8.40626L3.78125 8.50001C3.91875 9.50001 4.44375 10.3813 5.2125 10.9688L6.25 9.38126C5.95625 9.12501 5.75 8.78751 5.66875 8.40626Z" fill="#615E69"/>
</svg>
