<svg width="15" height="16" viewBox="0 0 15 16" fill="none" xmlns="http://www.w3.org/2000/svg">
<path d="M2.51292 7.81205L2.86512 7.82923L2.90391 7.47875C2.97393 6.84622 3.17443 6.2351 3.49273 5.68403C3.81104 5.13296 4.24023 4.65393 4.75316 4.27724L5.03887 4.06742L4.84544 3.77036L4.15336 2.70753C4.0857 2.5779 4.1294 2.43766 4.24326 2.37229C4.38008 2.29993 4.51978 2.3434 4.5905 2.45686L5.16601 3.58313L5.32568 3.8956L5.64805 3.757C6.23306 3.5055 6.86316 3.37579 7.49994 3.37579C8.13672 3.37579 8.76682 3.5055 9.35183 3.757L9.6742 3.8956L9.83387 3.58313L10.4094 2.45686C10.4801 2.3434 10.6198 2.29993 10.7566 2.37229C10.8705 2.43766 10.9142 2.57791 10.8465 2.70753L10.1544 3.77036L9.96101 4.06742L10.2467 4.27724C10.7596 4.65393 11.1888 5.13296 11.5071 5.68403C11.8254 6.2351 12.026 6.84622 12.096 7.47875L12.1348 7.82923L12.487 7.81205L13.757 7.75009C13.8208 7.7519 13.8815 7.778 13.9267 7.82322C13.9736 7.8701 13.9999 7.93369 13.9999 7.99999C13.9999 8.0663 13.9736 8.12989 13.9267 8.17677C13.8815 8.22198 13.8208 8.24809 13.757 8.24989L12.487 8.18794L12.1348 8.17076L12.096 8.52124C12.026 9.15377 11.8254 9.76489 11.5071 10.316C11.1888 10.867 10.7596 11.3461 10.2467 11.7227L9.96101 11.9326L10.1544 12.2296L10.8465 13.2925C10.9142 13.4221 10.8705 13.5623 10.7566 13.6277C10.6198 13.7001 10.4801 13.6566 10.4094 13.5431L9.83387 12.4169L9.6742 12.1044L9.35183 12.243C8.76682 12.4945 8.13672 12.6242 7.49994 12.6242C6.86316 12.6242 6.23306 12.4945 5.64805 12.243L5.32568 12.1044L5.16601 12.4169L4.5905 13.5431C4.51978 13.6566 4.38007 13.7001 4.24326 13.6277C4.12939 13.5623 4.0857 13.4221 4.15336 13.2925L4.84544 12.2296L5.03887 11.9326L4.75316 11.7227C4.24023 11.3461 3.81104 10.867 3.49273 10.316C3.17443 9.76489 2.97393 9.15377 2.90391 8.52124L2.86512 8.17076L2.51292 8.18794L1.24285 8.24989C1.17912 8.24809 1.11837 8.22198 1.07316 8.17677C1.02628 8.12988 0.999939 8.0663 0.999939 7.99999C0.999939 7.93369 1.02628 7.8701 1.07316 7.82322C1.11837 7.778 1.17912 7.7519 1.24285 7.75009L2.51292 7.81205ZM5.65009 7.96828L5.96891 7.98412L6.03545 7.67191C6.09885 7.37444 6.26035 7.1073 6.49645 6.90133L6.74239 6.68679L6.56385 6.41359L5.52635 4.82609L5.30504 4.48746L4.98412 4.73376C4.12147 5.39584 3.5555 6.37207 3.40958 7.44967L3.35479 7.85428L3.76259 7.87453L5.65009 7.96828ZM7.94768 6.5695L8.25078 6.66693L8.39609 6.38366L9.25859 4.70241L9.44427 4.34049L9.06847 4.1848C8.58594 3.98489 8.05596 3.87499 7.49994 3.87499C6.94392 3.87499 6.41393 3.98489 5.93141 4.1848L5.55561 4.34049L5.74128 4.70241L6.60378 6.38366L6.7491 6.66693L7.05219 6.5695C7.19085 6.52494 7.33966 6.49999 7.49994 6.49999C7.66021 6.49999 7.80903 6.52494 7.94768 6.5695ZM8.96442 7.67191L9.03096 7.98412L9.34979 7.96828L11.2373 7.87453L11.6451 7.85428L11.5903 7.44967C11.4444 6.37207 10.8784 5.39584 10.0158 4.73376L9.69484 4.48746L9.47353 4.82609L8.43603 6.41359L8.25748 6.68679L8.50342 6.90133C8.73953 7.1073 8.90103 7.37444 8.96442 7.67191ZM9.34979 8.0317L9.03096 8.01587L8.96442 8.32808C8.90103 8.62555 8.73953 8.89269 8.50342 9.09865L8.25748 9.3132L8.43603 9.58639L9.47353 11.1739L9.69484 11.5125L10.0158 11.2662C10.8784 10.6041 11.4444 9.62791 11.5903 8.55031L11.6451 8.14571L11.2373 8.12545L9.34979 8.0317ZM7.04234 9.42934L6.74047 9.33566L6.59703 9.61731L5.74078 11.2986L5.55672 11.66L5.93141 11.8152C6.41393 12.0151 6.94392 12.125 7.49994 12.125C8.05596 12.125 8.58594 12.0151 9.06847 11.8152L9.44316 11.66L9.2591 11.2986L8.40285 9.61731L8.25941 9.33566L7.95754 9.42934C7.80968 9.47523 7.65962 9.49999 7.49994 9.49999C7.34025 9.49999 7.1902 9.47523 7.04234 9.42934ZM6.03545 8.32808L5.96891 8.01587L5.65009 8.0317L3.76259 8.12545L3.35395 8.14575L3.40968 8.55107C3.56075 9.6497 4.13782 10.6195 4.98474 11.2667L5.30549 11.5118L5.52635 11.1739L6.56385 9.58639L6.74239 9.3132L6.49645 9.09865C6.26035 8.89269 6.09885 8.62555 6.03545 8.32808Z" stroke="white" stroke-width="0.75"/>
</svg>
