<svg width="20" height="20" viewBox="0 0 20 20" fill="none" xmlns="http://www.w3.org/2000/svg">
<path d="M17.8382 5.07165L10.3382 1.73832C10.1215 1.64248 9.87734 1.64248 9.66067 1.73832L2.16067 5.07165C2.144 5.07915 2.13234 5.09165 2.11567 5.10082C2.09234 5.11248 2.06734 5.11998 2.04567 5.13415C2.02734 5.14665 2.01317 5.16248 1.99567 5.17582C1.97234 5.19332 1.94984 5.21248 1.929 5.23248C1.89484 5.26498 1.86484 5.29998 1.83734 5.33748C1.82067 5.36082 1.80317 5.38165 1.78817 5.40498C1.76234 5.44915 1.74317 5.49498 1.72484 5.54248C1.71734 5.56498 1.70567 5.58582 1.699 5.60832C1.679 5.68082 1.6665 5.75582 1.6665 5.83332V14.1667C1.6665 14.4967 1.85984 14.7942 2.1615 14.9283L9.6615 18.2617C9.76984 18.31 9.88484 18.3333 9.99984 18.3333C10.1157 18.3333 10.2273 18.3008 10.3348 18.2533L10.3382 18.2617L17.8382 14.9283C18.1398 14.7942 18.3332 14.4967 18.3332 14.1667V5.83332C18.3332 5.50332 18.1398 5.20582 17.8382 5.07165ZM9.99984 3.41248L15.4482 5.83332L9.99984 8.25415L8.90984 7.76998L4.55234 5.83332L9.99984 3.41248ZM3.33317 13.6258V7.11582L9.1665 9.70832V16.2175L3.33317 13.6258ZM10.8332 16.2175V9.70832L16.6665 7.11582V13.6258L10.8332 16.2175Z" fill="white"/>
</svg>
