<svg width="22" height="22" viewBox="0 0 22 22" fill="none" xmlns="http://www.w3.org/2000/svg">
<path d="M11.0143 1.0005C11.9906 1.0005 12.9678 1.0005 13.9442 1.0005C15.2217 1.0005 15.9918 1.76719 15.9965 3.04083C15.9965 3.94014 16.0028 4.83945 15.9965 5.73798C15.9965 5.94829 16.042 6.05187 16.2632 6.12564C16.9172 6.34458 17.3164 6.81935 17.4834 7.48716C17.747 8.53479 18.0128 9.58163 18.2677 10.6316C18.3187 10.8451 18.4136 10.9604 18.6277 11.024C19.2488 11.2162 19.8636 11.4281 20.4785 11.6408C20.9325 11.7977 21.0706 12.0473 20.9678 12.5126C20.6175 14.1009 20.2646 15.689 19.9091 17.2768C19.7475 17.9948 19.3178 18.4908 18.612 18.7097C16.1657 19.4699 13.717 20.2222 11.266 20.9666C11.08 21.015 10.8842 21.0107 10.7006 20.9541C8.26891 20.219 5.84248 19.4769 3.42127 18.7278C2.70212 18.5049 2.25276 18.0144 2.08807 17.2791C1.7315 15.6924 1.37938 14.1043 1.0317 12.515C0.929746 12.052 1.06856 11.8024 1.52341 11.6455C2.11316 11.4407 2.69977 11.2359 3.3005 11.0554C3.55224 10.9769 3.67693 10.8592 3.73889 10.5924C3.97886 9.5526 4.24786 8.51988 4.50901 7.48559C4.67684 6.81778 5.07601 6.34301 5.73007 6.12407C5.95358 6.0503 5.99749 5.94358 5.99514 5.73562C5.98573 4.84965 5.98965 3.96289 5.99514 3.07692C5.99514 1.77112 6.75585 1.00678 8.05063 1.00364C9.03485 0.998147 10.0246 1.0005 11.0143 1.0005ZM16.9337 10.4535C16.6898 9.48825 16.4726 8.6062 16.2412 7.72729C16.1526 7.39064 15.8993 7.26586 15.5628 7.25645C14.9206 7.23997 14.7457 7.05085 14.7457 6.39323C14.7457 5.25928 14.7457 4.12612 14.7457 2.99217C14.7457 2.49622 14.519 2.25373 14.0399 2.25216C12.0087 2.24745 9.97698 2.24745 7.94476 2.25216C7.48049 2.25216 7.24914 2.48758 7.23894 2.95058C7.2311 3.45831 7.23894 3.96682 7.23894 4.47533V6.00322H8.85134C10.1411 6.00322 11.4307 6.00322 12.72 6.00322C13.2101 6.00322 13.494 6.24335 13.4893 6.6365C13.4846 7.02966 13.2007 7.25174 12.7051 7.25488C12.2887 7.25488 11.8714 7.25488 11.455 7.25488C9.80079 7.25488 8.14657 7.25488 6.49235 7.25488C5.99906 7.25488 5.8132 7.40005 5.69164 7.87718C5.50186 8.62111 5.31625 9.36609 5.13483 10.1121C5.11673 10.2073 5.10416 10.3035 5.09719 10.4001C5.13473 10.4009 5.17227 10.3983 5.20933 10.3923C6.50568 9.9638 7.83653 9.61773 9.08818 9.08332C10.3939 8.52616 11.5907 8.52773 12.8972 9.08332C14.1763 9.62479 15.5299 9.98656 16.9337 10.4535ZM2.34451 12.6853C2.68095 14.1881 2.9868 15.639 3.34912 17.0751C3.4001 17.2776 3.70203 17.4855 3.93103 17.5632C4.99053 17.9195 6.06415 18.2302 7.13307 18.5583L10.3539 19.5494V10.0172L2.34451 12.6853ZM11.644 10.0172V19.5235C11.6907 19.5191 11.7371 19.5118 11.7828 19.5015C13.8948 18.8525 16.0059 18.1989 18.1202 17.5562C18.4794 17.4471 18.6441 17.214 18.7178 16.8656C18.8951 16.0251 19.088 15.1886 19.2715 14.3497C19.3931 13.8004 19.5068 13.2424 19.6315 12.6759L11.644 10.0172Z" fill="white" stroke="white" stroke-width="0.4"/>
<path d="M6.61732 16.6441C6.24563 16.6444 5.88223 16.5342 5.57328 16.3274C5.26434 16.1206 5.02378 15.8266 4.88216 15.4827C4.74054 15.1388 4.70425 14.7606 4.7779 14.396C4.85155 14.0315 5.03181 13.697 5.2958 13.4352C5.55978 13.1734 5.89558 12.9959 6.26054 12.9255C6.6255 12.855 7.00316 12.8946 7.34555 13.0394C7.68794 13.1841 7.97962 13.4274 8.18355 13.7384C8.38747 14.0493 8.49444 14.4139 8.49086 14.7858C8.4853 15.2798 8.2856 15.7517 7.93498 16.0995C7.58436 16.4473 7.111 16.6429 6.61732 16.6441ZM7.23765 14.7725C7.23842 14.6495 7.20274 14.529 7.13512 14.4263C7.0675 14.3236 6.97097 14.2432 6.85772 14.1953C6.74447 14.1475 6.61959 14.1343 6.49885 14.1574C6.37811 14.1805 6.26693 14.2389 6.17935 14.3253C6.09177 14.4116 6.03172 14.5219 6.00679 14.6424C5.98185 14.7628 5.99316 14.888 6.03927 15.002C6.08538 15.1161 6.16423 15.2138 6.26586 15.2831C6.36749 15.3523 6.48733 15.3898 6.61026 15.3909C6.77504 15.3909 6.93321 15.326 7.0506 15.2103C7.16799 15.0946 7.23518 14.9374 7.23765 14.7725Z" fill="white" stroke="white" stroke-width="0.2"/>
<path d="M15.3888 12.8915C15.7605 12.895 16.1227 13.009 16.4295 13.2189C16.7364 13.4288 16.9739 13.7252 17.112 14.0705C17.2502 14.4158 17.2826 14.7943 17.2053 15.1581C17.128 15.5219 16.9443 15.8545 16.6777 16.1136C16.4111 16.3728 16.0736 16.5468 15.708 16.6136C15.3423 16.6804 14.9651 16.6369 14.6242 16.4888C14.2833 16.3406 13.9941 16.0944 13.7933 15.7814C13.5925 15.4684 13.4892 15.1028 13.4965 14.731C13.507 14.237 13.7114 13.7671 14.0656 13.4228C14.4197 13.0786 14.8951 12.8877 15.3888 12.8915ZM15.3575 15.3901C15.4804 15.3928 15.6014 15.3588 15.7051 15.2926C15.8088 15.2265 15.8905 15.131 15.94 15.0183C15.9895 14.9057 16.0045 14.7808 15.983 14.6597C15.9616 14.5385 15.9048 14.4264 15.8197 14.3375C15.7346 14.2486 15.6251 14.187 15.505 14.1604C15.385 14.1338 15.2597 14.1434 15.1451 14.1881C15.0305 14.2327 14.9317 14.3103 14.8611 14.4112C14.7906 14.512 14.7515 14.6315 14.7489 14.7545C14.7468 14.9191 14.8093 15.078 14.9232 15.1969C15.037 15.3158 15.193 15.3852 15.3575 15.3901Z" fill="white" stroke="white" stroke-width="0.2"/>
</svg>
