<svg width="20" height="20" viewBox="0 0 20 20" fill="none" xmlns="http://www.w3.org/2000/svg">
<path d="M17.4998 3.33329H14.9998V2.49996C14.9998 2.03913 14.6273 1.66663 14.1665 1.66663H5.83317C5.37234 1.66663 4.99984 2.03913 4.99984 2.49996V3.33329H2.49984C2.039 3.33329 1.6665 3.70579 1.6665 4.16663V6.66663C1.6665 10.2583 3.16567 12.425 5.68234 12.51C6.41567 13.7675 7.679 14.6741 9.1665 14.925V16.6666H7.49984V18.3333H12.4998V16.6666H10.8332V14.925C12.3198 14.6733 13.584 13.7666 14.3173 12.51C16.834 12.425 18.3332 10.2583 18.3332 6.66663V4.16663C18.3332 3.70579 17.9607 3.33329 17.4998 3.33329ZM3.33317 6.66663V4.99996H4.99984V10.0175V10.6916C3.51317 10.065 3.33317 7.74913 3.33317 6.66663ZM9.99984 13.3333C8.1615 13.3333 6.6665 11.8383 6.6665 9.99996V3.33329H13.3332V9.99996C13.3332 11.8383 11.8382 13.3333 9.99984 13.3333ZM14.9998 10.6916V10.0175V4.99996H16.6665V6.66663C16.6665 7.74913 16.4865 10.065 14.9998 10.6916Z" fill="#615E69"/>
</svg>
