<svg width="24" height="24" viewBox="0 0 24 24" fill="none" xmlns="http://www.w3.org/2000/svg">
<path d="M13.5 8C13.5 8.87569 12.875 9.5 12 9.5C11.1258 9.5 10.5 8.87553 10.5 8C10.5 7.12447 11.1258 6.5 12 6.5C12.875 6.5 13.5 7.12431 13.5 8ZM15.4976 14.486H8.50238C8.56974 12.8713 10.0618 11.5 12 11.5C13.9382 11.5 15.4303 12.8713 15.4976 14.486Z" fill="#615E69" stroke="#615E69"/>
<path d="M9.35355 18.6464L9.20711 18.5H9H5C4.17314 18.5 3.5 17.8269 3.5 17V4C3.5 3.17314 4.17314 2.5 5 2.5H19C19.8269 2.5 20.5 3.17314 20.5 4V17C20.5 17.8269 19.8269 18.5 19 18.5H15H14.7929L14.6464 18.6464L12 21.2929L9.35355 18.6464ZM11.6464 19.3536L12 19.7071L12.3536 19.3536L14.2071 17.5H19.002H19.5021L19.502 16.9999L19.5 3.99992L19.4999 3.5H19H5H4.5V4V17V17.5H5H9.79289L11.6464 19.3536Z" fill="#615E69" stroke="#615E69"/>
</svg>
