<svg width="15" height="16" viewBox="0 0 15 16" fill="none" xmlns="http://www.w3.org/2000/svg">
<path d="M7.5 10.5C8.87875 10.5 10 9.37875 10 8C10 6.62125 8.87875 5.5 7.5 5.5C6.12125 5.5 5 6.62125 5 8C5 9.37875 6.12125 10.5 7.5 10.5ZM7.5 6.75C8.1775 6.75 8.75 7.3225 8.75 8C8.75 8.6775 8.1775 9.25 7.5 9.25C6.8225 9.25 6.25 8.6775 6.25 8C6.25 7.3225 6.8225 6.75 7.5 6.75Z" fill="#615E69"/>
<path d="M1.77813 10.585L2.40313 11.6663C2.735 12.2394 3.53375 12.4544 4.10938 12.1225L4.44 11.9313C4.80375 12.2169 5.20313 12.4513 5.625 12.6263V13C5.625 13.6894 6.18563 14.25 6.875 14.25H8.125C8.81438 14.25 9.375 13.6894 9.375 13V12.6263C9.79688 12.4513 10.1963 12.2169 10.56 11.9319L10.8906 12.1231C11.4675 12.4544 12.2644 12.2406 12.5975 11.6663L13.2219 10.5856C13.5669 9.98875 13.3619 9.2225 12.765 8.87813L12.4494 8.69563C12.4831 8.46375 12.5 8.23188 12.5 8C12.5 7.76813 12.4831 7.53563 12.4494 7.30563L12.765 7.12313C13.3619 6.77813 13.5669 6.0125 13.2219 5.41563L12.5975 4.335C12.2656 3.76 11.4675 3.54438 10.8906 3.8775L10.56 4.06875C10.1963 3.78313 9.79688 3.54875 9.375 3.37375V3C9.375 2.31063 8.81438 1.75 8.125 1.75H6.875C6.18563 1.75 5.625 2.31063 5.625 3V3.37375C5.20313 3.54875 4.80375 3.78313 4.44 4.06813L4.10938 3.87688C3.53188 3.545 2.73438 3.76 2.4025 4.33438L1.77813 5.415C1.43313 6.01188 1.63813 6.77813 2.235 7.1225L2.55063 7.305C2.51688 7.53563 2.5 7.76813 2.5 8C2.5 8.23188 2.51688 8.46375 2.55063 8.69438L2.235 8.87688C1.63813 9.22188 1.43313 9.98813 1.77813 10.585ZM3.85688 8.86125C3.78625 8.57813 3.75 8.28813 3.75 8C3.75 7.71125 3.78625 7.42125 3.85625 7.13875C3.92375 6.86813 3.80438 6.58563 3.5625 6.44625L2.86063 6.04L3.48438 4.95938L4.2 5.37313C4.44 5.51125 4.74188 5.47625 4.9425 5.28438C5.36938 4.88 5.88438 4.5775 6.4325 4.41C6.69563 4.33 6.875 4.08688 6.875 3.8125V3H8.125V3.8125C8.125 4.08688 8.30438 4.33 8.5675 4.41C9.11563 4.57813 9.63063 4.88 10.0575 5.28438C10.2581 5.47625 10.5613 5.51063 10.8 5.37313L11.515 4.96L12.14 6.04063L11.4375 6.44625C11.1956 6.58625 11.0763 6.86875 11.1438 7.13875C11.2138 7.42125 11.25 7.71125 11.25 8C11.25 8.28813 11.2138 8.57813 11.1431 8.86125C11.0763 9.13188 11.1956 9.41438 11.4375 9.55375L12.1394 9.95938L11.5156 11.04L10.8 10.6269C10.5606 10.4888 10.2581 10.5231 10.0575 10.7156C9.63063 11.12 9.11563 11.4225 8.5675 11.59C8.30438 11.67 8.125 11.9131 8.125 12.1875L8.12625 13H6.875V12.1875C6.875 11.9131 6.69563 11.67 6.4325 11.59C5.88438 11.4219 5.36938 11.12 4.9425 10.7156C4.82375 10.6019 4.66875 10.5438 4.5125 10.5438C4.405 10.5438 4.2975 10.5713 4.2 10.6275L3.485 11.0413L2.86 9.96063L3.5625 9.55375C3.80438 9.41438 3.92375 9.13188 3.85688 8.86125Z" fill="#615E69"/>
</svg>
