<svg width="24" height="24" viewBox="0 0 24 24" fill="none" xmlns="http://www.w3.org/2000/svg">
<path d="M2 11L4.05 11.1C4.17115 10.0055 4.51811 8.94796 5.06892 7.99437C5.61972 7.04078 6.36241 6.21185 7.25 5.56001L6.13 3.84001C5.86 3.36001 6 2.75001 6.5 2.47001C7 2.20001 7.59 2.36001 7.87 2.84001L8.8 4.66001C9.81087 4.22542 10.8997 4.00129 12 4.00129C13.1003 4.00129 14.1891 4.22542 15.2 4.66001L16.13 2.84001C16.41 2.36001 17 2.20001 17.5 2.47001C18 2.75001 18.14 3.36001 17.87 3.84001L16.75 5.56001C17.6376 6.21185 18.3803 7.04078 18.9311 7.99437C19.4819 8.94796 19.8288 10.0055 19.95 11.1L22 11C22.2652 11 22.5196 11.1054 22.7071 11.2929C22.8946 11.4804 23 11.7348 23 12C23 12.2652 22.8946 12.5196 22.7071 12.7071C22.5196 12.8947 22.2652 13 22 13L19.95 12.9C19.8288 13.9946 19.4819 15.0521 18.9311 16.0057C18.3803 16.9592 17.6376 17.7882 16.75 18.44L17.87 20.16C18.14 20.64 18 21.25 17.5 21.53C17 21.8 16.41 21.64 16.13 21.16L15.2 19.34C14.1891 19.7746 13.1003 19.9987 12 19.9987C10.8997 19.9987 9.81087 19.7746 8.8 19.34L7.87 21.16C7.59 21.64 7 21.8 6.5 21.53C6 21.25 5.86 20.64 6.13 20.16L7.25 18.44C6.36241 17.7882 5.61972 16.9592 5.06892 16.0057C4.51811 15.0521 4.17115 13.9946 4.05 12.9L2 13C1.73478 13 1.48043 12.8947 1.29289 12.7071C1.10536 12.5196 1 12.2652 1 12C1 11.7348 1.10536 11.4804 1.29289 11.2929C1.48043 11.1054 1.73478 11 2 11ZM9.07 11.35C9.2 10.74 9.53 10.2 10 9.79001L8.34 7.25001C7.08537 8.21293 6.26223 9.63276 6.05 11.2L9.07 11.35ZM12 9.00001C12.32 9.00001 12.62 9.05001 12.9 9.14001L14.28 6.45001C13.58 6.16001 12.81 6.00001 12 6.00001C11.19 6.00001 10.42 6.16001 9.72 6.45001L11.1 9.14001C11.38 9.05001 11.68 9.00001 12 9.00001ZM14.93 11.35L17.95 11.2C17.7378 9.63276 16.9146 8.21293 15.66 7.25001L14 9.79001C14.47 10.2 14.8 10.74 14.93 11.35ZM14.93 12.65C14.8 13.26 14.47 13.8 14 14.21L15.66 16.75C16.9146 15.7871 17.7378 14.3673 17.95 12.8L14.93 12.65ZM12 15C11.68 15 11.38 14.95 11.09 14.86L9.72 17.55C10.42 17.84 11.19 18 12 18C12.81 18 13.58 17.84 14.28 17.55L12.91 14.86C12.62 14.95 12.32 15 12 15ZM9.07 12.65L6.05 12.8C6.27 14.4 7.11 15.81 8.34 16.75L10 14.21C9.53 13.8 9.2 13.26 9.07 12.65Z" fill="#615E69"/>
</svg>
