<svg width="20" height="20" viewBox="0 0 20 20" fill="none" xmlns="http://www.w3.org/2000/svg">
<path d="M15.8333 1.67505H5C3.995 1.67505 2.5 2.34088 2.5 4.17505V6.67505V11.675V14.175V15.8417C2.5 17.6759 3.995 18.3417 5 18.3417H17.5V16.675H5.01C4.625 16.665 4.16667 16.5125 4.16667 15.8417C4.16667 15.7575 4.17417 15.6825 4.18667 15.6142C4.28 15.135 4.6725 15.0167 5.00917 15.0084H16.6667C16.6817 15.0084 16.6925 15.0009 16.7075 15H17.5V14.175V12.5V3.34172C17.5 2.42255 16.7525 1.67505 15.8333 1.67505ZM15.8333 13.3417H4.16667V11.675V6.67505V4.17505C4.16667 3.50338 4.625 3.35172 5 3.34172H10.8333V9.17505L12.5 8.34172L14.1667 9.17505V3.34172H15.8333V12.5V13.3417Z" fill="#615E69"/>
</svg>
