<svg width="20" height="20" viewBox="0 0 20 20" fill="none" xmlns="http://www.w3.org/2000/svg">
<path d="M15.8333 1.675H5C3.995 1.675 2.5 2.34084 2.5 4.175V6.675V11.675V14.175V15.8417C2.5 17.6758 3.995 18.3417 5 18.3417H17.5V16.675H5.01C4.625 16.665 4.16667 16.5125 4.16667 15.8417C4.16667 15.7575 4.17417 15.6825 4.18667 15.6142C4.28 15.135 4.6725 15.0167 5.00917 15.0083H16.6667C16.6817 15.0083 16.6925 15.0008 16.7075 15H17.5V14.175V12.5V3.34167C17.5 2.4225 16.7525 1.675 15.8333 1.675ZM15.8333 13.3417H4.16667V11.675V6.675V4.175C4.16667 3.50334 4.625 3.35167 5 3.34167H10.8333V9.175L12.5 8.34167L14.1667 9.175V3.34167H15.8333V12.5V13.3417Z" fill="white"/>
</svg>
