<svg width="15" height="16" viewBox="0 0 15 16" fill="none" xmlns="http://www.w3.org/2000/svg">
<path d="M5.18311 10.6826L6.06686 11.5664L7.49998 10.1332L8.9331 11.5664L9.81685 10.6826L8.38373 9.24949L9.81685 7.81637L8.9331 6.93262L7.49998 8.36574L6.06686 6.93262L5.18311 7.81637L6.61623 9.24949L5.18311 10.6826Z" fill="white"/>
<path d="M11.875 3H10.625V1.75H9.375V3H5.625V1.75H4.375V3H3.125C2.43562 3 1.875 3.56063 1.875 4.25V5.5V13C1.875 13.6894 2.43562 14.25 3.125 14.25H11.875C12.5644 14.25 13.125 13.6894 13.125 13V5.5V4.25C13.125 3.56063 12.5644 3 11.875 3ZM11.8763 13H3.125V5.5H11.875L11.8763 13Z" fill="white"/>
</svg>
