<svg width="15" height="16" viewBox="0 0 15 16" fill="none" xmlns="http://www.w3.org/2000/svg">
<path d="M5.18317 10.6826L6.06692 11.5664L7.50004 10.1332L8.93317 11.5664L9.81692 10.6826L8.38379 9.24949L9.81692 7.81637L8.93317 6.93262L7.50004 8.36574L6.06692 6.93262L5.18317 7.81637L6.61629 9.24949L5.18317 10.6826Z" fill="#615E69"/>
<path d="M11.875 3H10.625V1.75H9.375V3H5.625V1.75H4.375V3H3.125C2.43562 3 1.875 3.56063 1.875 4.25V5.5V13C1.875 13.6894 2.43562 14.25 3.125 14.25H11.875C12.5644 14.25 13.125 13.6894 13.125 13V5.5V4.25C13.125 3.56063 12.5644 3 11.875 3ZM11.8763 13H3.125V5.5H11.875L11.8763 13Z" fill="#615E69"/>
</svg>
