<svg width="18" height="17" viewBox="0 0 18 17" fill="none" xmlns="http://www.w3.org/2000/svg">
<path d="M9.73679 1.10992C9.44846 0.564922 8.55179 0.564922 8.26346 1.10992L0.763462 15.2766C0.695948 15.4036 0.662478 15.5459 0.666312 15.6896C0.670146 15.8334 0.711154 15.9737 0.785339 16.0969C0.859525 16.2201 0.964359 16.322 1.08963 16.3926C1.21489 16.4632 1.35632 16.5002 1.50013 16.4999H16.5001C16.6438 16.5002 16.7852 16.4633 16.9104 16.3927C17.0355 16.3221 17.1403 16.2203 17.2144 16.0971C17.2885 15.974 17.3295 15.8338 17.3332 15.6901C17.337 15.5465 17.3035 15.4043 17.236 15.2774L9.73679 1.10992ZM9.83346 13.9999H8.16679V12.3333H9.83346V13.9999ZM8.16679 10.6666V6.49992H9.83346L9.83429 10.6666H8.16679Z" fill="#FF5562"/>
</svg>
