<svg width="24" height="24" viewBox="0 0 24 24" fill="none" xmlns="http://www.w3.org/2000/svg">
<path d="M11.3634 8.14453C9.75376 8.14453 8.38438 9.22562 8.02402 10.6911C8 10.7872 7.85586 10.7872 7.80781 10.6911C7.42342 9.22562 6.07808 8.14453 4.46847 8.14453H0V15.8803H15.8559V8.14453H11.3634Z" fill="#252525"/>
<path d="M15.8559 20.1325C15.8559 22.2706 14.1261 24.0004 11.988 24.0004C9.84984 24.0004 8.12012 22.2706 8.12012 20.1325C8.12012 17.9944 9.84984 16.2646 11.988 16.2646C14.1261 16.2646 15.8559 17.9944 15.8559 20.1325Z" fill="#252525"/>
<path d="M16.2402 7.73614H24V0.0244141L16.2402 7.73614Z" fill="#252525"/>
<path d="M15.8318 7.73574H8.12012V3.86786C8.12012 1.72972 9.84984 0 11.988 0C14.1261 0 15.8559 1.72972 15.8559 3.86786V7.73574H15.8318Z" fill="#252525"/>
</svg>
