<svg width="25" height="25" viewBox="0 0 25 25" fill="none" xmlns="http://www.w3.org/2000/svg">
<path d="M14.2508 3.97015C13.4405 3.34328 12.3095 3.34328 11.4992 3.97015L4.74924 9.19205C4.19786 9.61861 3.875 10.2769 3.875 10.9745V19.2474C3.875 20.4915 4.88236 21.5 6.125 21.5H9.125C10.3676 21.5 11.375 20.4915 11.375 19.2474V16.9948C11.375 16.1655 12.0466 15.4931 12.875 15.4931C13.7034 15.4931 14.375 16.1655 14.375 16.9948V19.2474C14.375 20.4915 15.3824 21.5 16.625 21.5H19.625C20.8676 21.5 21.875 20.4915 21.875 19.2474V10.9745C21.875 10.2769 21.5521 9.61861 21.0008 9.19205L14.2508 3.97015Z" fill="#F6BA5F"/>
</svg>
