<svg width="25" height="25" viewBox="0 0 25 25" fill="none" xmlns="http://www.w3.org/2000/svg">
<path d="M5.20783 9.78591L11.9578 4.56346C12.498 4.14551 13.252 4.14551 13.7922 4.56347L20.5422 9.78591C20.9098 10.0703 21.125 10.5092 21.125 10.9743V19.2481C21.125 20.0776 20.4534 20.75 19.625 20.75H16.625C15.7966 20.75 15.125 20.0784 15.125 19.25V16.9953C15.125 15.7511 14.1176 14.7425 12.875 14.7425C11.6324 14.7425 10.625 15.7511 10.625 16.9953V19.25C10.625 20.0784 9.95343 20.75 9.125 20.75H6.125C5.29657 20.75 4.625 20.0776 4.625 19.2481V10.9743C4.625 10.5092 4.84024 10.0703 5.20783 9.78591Z" stroke="#999999" stroke-width="1.5" stroke-linecap="round" stroke-linejoin="round"/>
</svg>
