<svg width="19" height="13" viewBox="0 0 19 13" fill="none" xmlns="http://www.w3.org/2000/svg">
<path fill-rule="evenodd" clip-rule="evenodd" d="M0.125 1.625C0.125 1.00368 0.62868 0.5 1.25 0.5H17C17.6213 0.5 18.125 1.00368 18.125 1.625C18.125 2.24632 17.6213 2.75 17 2.75H1.25C0.62868 2.75 0.125 2.24632 0.125 1.625Z" fill="#F6BA5F"/>
<path fill-rule="evenodd" clip-rule="evenodd" d="M0.125 6.5C0.125 5.87868 0.62868 5.375 1.25 5.375H17C17.6213 5.375 18.125 5.87868 18.125 6.5C18.125 7.12132 17.6213 7.625 17 7.625H1.25C0.62868 7.625 0.125 7.12132 0.125 6.5Z" fill="#F6BA5F"/>
<path fill-rule="evenodd" clip-rule="evenodd" d="M0.125 11.375C0.125 10.7537 0.62868 10.25 1.25 10.25H17C17.6213 10.25 18.125 10.7537 18.125 11.375C18.125 11.9963 17.6213 12.5 17 12.5H1.25C0.62868 12.5 0.125 11.9963 0.125 11.375Z" fill="#F6BA5F"/>
</svg>
