<svg width="25" height="25" viewBox="0 0 25 25" fill="none" xmlns="http://www.w3.org/2000/svg">
<path d="M12.3751 3.5C9.88978 3.5 7.87506 5.51472 7.87506 8C7.87506 10.4853 9.88978 12.5 12.3751 12.5C14.8603 12.5 16.8751 10.4853 16.8751 8C16.8751 5.51472 14.8603 3.5 12.3751 3.5Z" fill="#F6BA5F"/>
<path d="M16.8751 14L7.87506 14C6.8428 14 5.86275 14.4465 5.27202 15.1693C4.65039 15.93 4.47839 16.9973 5.14822 17.9874C6.58578 20.1122 9.34546 21.5 12.3751 21.5C15.4047 21.5 18.1643 20.1122 19.6019 17.9874C20.2717 16.9973 20.0997 15.93 19.4781 15.1693C18.8874 14.4465 17.9073 14 16.8751 14Z" fill="#F6BA5F"/>
</svg>
