<svg width="15" height="16" viewBox="0 0 15 16" fill="none" xmlns="http://www.w3.org/2000/svg">
<path d="M14.1194 10.0447H7.31838L6.43764 9.16406H0C0.0498962 10.528 0.331993 11.8612 0.840797 13.1334L1.01429 13.5673H14.2488L14.3901 13.1726C14.7514 12.1629 14.9559 11.1126 15 10.0447H14.1194ZM11.17 11.3664H12.0506V12.2463H11.17V11.3664ZM9.1151 11.3664H9.99584V12.2463H9.1151V11.3664ZM7.0602 11.3664H7.94083V12.2463H7.0602V11.3664ZM5.0053 11.3664H5.88604V12.2463H5.0053V11.3664ZM2.9504 11.3664H3.83114V12.2463H2.9504V11.3664Z" fill="#1E62DC"/>
<path d="M6.80208 8.28408L7.6827 9.16482H9.99532V6.9624H2.95068V8.28408H6.80208Z" fill="#1E62DC"/>
<path d="M9.11482 6.08235V4.76136H6.91309V3.87994H7.79417V3H5.15219V3.87994H6.03316V4.76136H3.83154V6.08235H9.11482Z" fill="#1E62DC"/>
</svg>
