<svg width="15" height="16" viewBox="0 0 15 16" fill="none" xmlns="http://www.w3.org/2000/svg">
<path d="M7.05323 10.3098L7.16307 10.4196H7.31838H14.1194H14.6017C14.5304 11.3151 14.3415 12.1954 14.0371 13.0461C14.0371 13.0461 14.0371 13.0462 14.0371 13.0462L13.9848 13.1922H1.2682L1.18899 12.9941L1.18898 12.9941C0.744609 11.883 0.478895 10.7243 0.395517 9.539H6.28233L7.05323 10.3098ZM11.17 10.9913H10.795V11.3663V12.2462V12.6212H11.17H12.0506H12.4256V12.2462V11.3663V10.9913H12.0506H11.17ZM9.1151 10.9913H8.7401V11.3663V12.2462V12.6212H9.1151H9.99584H10.3708V12.2462V11.3663V10.9913H9.99584H9.1151ZM7.0602 10.9913H6.6852V11.3663V12.2462V12.6212H7.0602H7.94083H8.31583V12.2462V11.3663V10.9913H7.94083H7.0602ZM5.0053 10.9913H4.6303V11.3663V12.2462V12.6212H5.0053H5.88604H6.26104V12.2462V11.3663V10.9913H5.88604H5.0053ZM2.9504 10.9913H2.5754V11.3663V12.2462V12.6212H2.9504H3.83114H4.20614V12.2462V11.3663V10.9913H3.83114H2.9504Z" fill="white" stroke="white" stroke-width="0.75"/>
<path d="M6.80208 8.28396L7.6827 9.1647H9.99532V6.96228H2.95068V8.28396H6.80208Z" fill="white"/>
<path d="M9.11482 6.08235V4.76136H6.91309V3.87994H7.79417V3H5.15219V3.87994H6.03316V4.76136H3.83154V6.08235H9.11482Z" fill="white"/>
</svg>
