<svg width="15" height="16" viewBox="0 0 15 16" fill="none" xmlns="http://www.w3.org/2000/svg">
<path d="M14.1194 10.0447H7.31838L6.43764 9.16403H0C0.0498962 10.5279 0.331993 11.8612 0.840797 13.1334L1.01429 13.5673H14.2488L14.3901 13.1726C14.7514 12.1628 14.9559 11.1126 15 10.0447H14.1194ZM11.17 11.3663H12.0506V12.2463H11.17V11.3663ZM9.1151 11.3663H9.99584V12.2463H9.1151V11.3663ZM7.0602 11.3663H7.94083V12.2463H7.0602V11.3663ZM5.0053 11.3663H5.88604V12.2463H5.0053V11.3663ZM2.9504 11.3663H3.83114V12.2463H2.9504V11.3663Z" fill="#615E69"/>
<path d="M6.80208 8.28396L7.6827 9.1647H9.99532V6.96228H2.95068V8.28396H6.80208Z" fill="#615E69"/>
<path d="M9.11482 6.08235V4.76136H6.91309V3.87994H7.79417V3H5.15219V3.87994H6.03316V4.76136H3.83154V6.08235H9.11482Z" fill="#615E69"/>
</svg>
