<svg width="18" height="18" viewBox="0 0 18 18" fill="none" xmlns="http://www.w3.org/2000/svg">
<path d="M7.5 2.25H3C2.58525 2.25 2.25 2.58525 2.25 3V7.5C2.25 7.91475 2.58525 8.25 3 8.25H7.5C7.91475 8.25 8.25 7.91475 8.25 7.5V3C8.25 2.58525 7.91475 2.25 7.5 2.25ZM6.75 6.75H3.75V3.75H6.75V6.75ZM15 9.75H10.5C10.0852 9.75 9.75 10.0852 9.75 10.5V15C9.75 15.4148 10.0852 15.75 10.5 15.75H15C15.4148 15.75 15.75 15.4148 15.75 15V10.5C15.75 10.0852 15.4148 9.75 15 9.75ZM14.25 14.25H11.25V11.25H14.25V14.25ZM12.75 2.25C11.0955 2.25 9.75 3.5955 9.75 5.25C9.75 6.9045 11.0955 8.25 12.75 8.25C14.4045 8.25 15.75 6.9045 15.75 5.25C15.75 3.5955 14.4045 2.25 12.75 2.25ZM12.75 6.75C11.9227 6.75 11.25 6.07725 11.25 5.25C11.25 4.42275 11.9227 3.75 12.75 3.75C13.5773 3.75 14.25 4.42275 14.25 5.25C14.25 6.07725 13.5773 6.75 12.75 6.75ZM5.25 9.75C3.5955 9.75 2.25 11.0955 2.25 12.75C2.25 14.4045 3.5955 15.75 5.25 15.75C6.9045 15.75 8.25 14.4045 8.25 12.75C8.25 11.0955 6.9045 9.75 5.25 9.75ZM5.25 14.25C4.42275 14.25 3.75 13.5773 3.75 12.75C3.75 11.9227 4.42275 11.25 5.25 11.25C6.07725 11.25 6.75 11.9227 6.75 12.75C6.75 13.5773 6.07725 14.25 5.25 14.25Z" fill="#3B9FF3"/>
</svg>
