<svg width="18" height="18" viewBox="0 0 18 18" fill="none" xmlns="http://www.w3.org/2000/svg">
<path d="M6.803 3.6728C6.66907 3.6728 6.54184 3.68091 6.41616 3.6728C6.36678 3.67115 6.31828 3.66086 6.27352 3.64256C6.22875 3.62426 6.18862 3.5983 6.1555 3.56623C6.12238 3.53415 6.09694 3.49661 6.08066 3.4558C6.06439 3.41499 6.05762 3.37175 6.06075 3.32861C6.07362 3.13624 6.20085 3.03037 6.41513 3.00515C6.48364 2.99984 6.55248 2.99863 6.62117 3.00154H10.88C10.9487 2.99919 11.0174 3.00025 11.086 3.0047C11.3029 3.02632 11.4594 3.17319 11.4419 3.35114C11.4239 3.53855 11.3018 3.65433 11.0814 3.6728C10.9567 3.68316 10.83 3.6728 10.6904 3.6728C10.6847 3.77146 10.6775 3.84445 10.6775 3.91743C10.6775 5.03199 10.6729 6.14655 10.6832 7.26067C10.6878 7.39237 10.7336 7.52045 10.8156 7.63099C11.9282 9.10235 13.0511 10.5679 14.1668 12.0379C14.7143 12.7587 14.5753 13.6264 13.8366 14.1553C13.5469 14.3712 13.1793 14.4907 12.7987 14.4927C10.096 14.4963 7.39329 14.5094 4.69111 14.4882C3.32251 14.476 2.53853 13.1155 3.29418 12.0919C3.98028 11.163 4.69317 10.2484 5.39473 9.32761C5.83513 8.74915 6.27812 8.17205 6.71337 7.58999C6.77611 7.51175 6.81316 7.41998 6.82051 7.32464C6.82772 6.15782 6.82566 4.991 6.82463 3.82417C6.82412 3.78047 6.81227 3.73723 6.803 3.6728ZM8.75623 13.8196H12.6828C13.0949 13.8196 13.4142 13.6723 13.61 13.3534C13.7995 13.043 13.7702 12.7321 13.5487 12.4397C13.0679 11.8039 12.5832 11.17 12.0946 10.5381C12.0428 10.4752 11.966 10.4315 11.8792 10.4156C11.0602 10.3088 10.2351 10.2322 9.42019 10.1056C8.18654 9.91417 6.9704 9.90111 5.7795 10.2858C5.63223 10.3353 5.50449 10.4211 5.41173 10.5327C4.93011 11.1405 4.47426 11.764 3.99573 12.3753C3.74849 12.6934 3.67895 13.02 3.89581 13.3664C4.10699 13.7025 4.45211 13.825 4.88118 13.8232C6.17407 13.816 7.46489 13.8196 8.75623 13.8196ZM7.5983 3.68316C7.5983 3.79219 7.5983 3.88094 7.5983 3.96924C7.5983 4.91891 7.56946 5.86994 7.61169 6.81826C7.63745 7.39942 7.49786 7.89498 7.07548 8.35C6.7623 8.68878 6.51454 9.07397 6.223 9.4578C6.5712 9.41275 6.88181 9.3677 7.19395 9.33076C8.17675 9.22039 9.13534 9.3686 10.0939 9.53304C10.5251 9.60692 10.9608 9.65963 11.3945 9.72225L11.4275 9.66504C11.3791 9.59836 11.3327 9.52989 11.2828 9.46501C10.8805 8.93611 10.4694 8.41217 10.0805 7.87561C9.98133 7.7407 9.92448 7.58532 9.91571 7.4251C9.90129 6.26639 9.90644 5.10723 9.90541 3.94806V3.68226L7.5983 3.68316Z" fill="#3B9FF3" stroke="#3B9FF3" stroke-width="0.46"/>
</svg>
