<svg width="18" height="18" viewBox="0 0 18 18" fill="none" xmlns="http://www.w3.org/2000/svg">
<path d="M9 6C8.1165 6 7.5 6.6165 7.5 7.5C7.5 8.3835 8.1165 9 9 9C9.8835 9 10.5 8.3835 10.5 7.5C10.5 6.6165 9.8835 6 9 6Z" fill="white"/>
<path d="M9 3C5.74725 3 3 5.74725 3 9C3 10.632 3.69225 12.1365 4.7925 13.2308C5.36025 11.8807 6.696 10.9297 8.25 10.9297H9.75C11.304 10.9297 12.6405 11.8815 13.2075 13.2308C14.3078 12.1365 15 10.632 15 9C15 5.74725 12.2528 3 9 3ZM9 10.5C7.29 10.5 6 9.21 6 7.5C6 5.79 7.29 4.5 9 4.5C10.71 4.5 12 5.79 12 7.5C12 9.21 10.71 10.5 9 10.5Z" fill="white"/>
<path d="M9 1.5C4.93425 1.5 1.5 4.93425 1.5 9C1.5 11.3918 2.694 13.5585 4.5 14.943V15H4.5765C5.8275 15.9338 7.35975 16.5 9 16.5C10.6403 16.5 12.1725 15.9338 13.4235 15H13.5V14.943C15.306 13.5585 16.5 11.3925 16.5 9C16.5 4.93425 13.0658 1.5 9 1.5ZM6.0555 14.1952C6.27825 13.1865 7.176 12.4298 8.25 12.4298H9.75C10.824 12.4298 11.7217 13.1873 11.9445 14.1952C11.0685 14.703 10.062 15 9 15C7.938 15 6.9315 14.703 6.0555 14.1952ZM13.2075 13.2308C12.6398 11.8808 11.304 10.9298 9.75 10.9298H8.25C6.696 10.9298 5.3595 11.8815 4.7925 13.2308C3.69225 12.1365 3 10.632 3 9C3 5.74725 5.74725 3 9 3C12.2528 3 15 5.74725 15 9C15 10.632 14.3078 12.1365 13.2075 13.2308Z" fill="#3B9FF3"/>
<path d="M9 4.5C7.29 4.5 6 5.79 6 7.5C6 9.21 7.29 10.5 9 10.5C10.71 10.5 12 9.21 12 7.5C12 5.79 10.71 4.5 9 4.5ZM9 9C8.1165 9 7.5 8.3835 7.5 7.5C7.5 6.6165 8.1165 6 9 6C9.8835 6 10.5 6.6165 10.5 7.5C10.5 8.3835 9.8835 9 9 9Z" fill="#3B9FF3"/>
</svg>
