<svg width="15" height="16" viewBox="0 0 15 16" fill="none" xmlns="http://www.w3.org/2000/svg">
<path d="M7.49951 1.75C4.11139 1.75 1.24951 4.61188 1.24951 8C1.24951 11.3881 4.11139 14.25 7.49951 14.25C10.8876 14.25 13.7495 11.3881 13.7495 8C13.7495 4.61188 10.8876 1.75 7.49951 1.75ZM8.82014 9.875H6.24076L5.16389 7.94125L6.37576 6.125H8.71076L9.88014 8.03875L8.82014 9.875ZM2.49951 8C2.49951 7.40438 2.61576 6.83125 2.81701 6.29563L4.80951 9.875H2.88076C2.63701 9.2925 2.49951 8.65938 2.49951 8ZM10.1764 6.125H12.1176C12.362 6.7075 12.4995 7.34063 12.4995 8C12.4995 8.5275 12.4101 9.0375 12.2514 9.52L10.1764 6.125ZM11.367 4.875H7.20889L8.39951 3.08938C9.57826 3.31375 10.6258 3.96625 11.367 4.875ZM6.93264 3.03688L5.70701 4.875H5.62451V4.99813L4.48076 6.71375L3.53076 5.00875C4.34326 3.94438 5.56139 3.19938 6.93264 3.03688ZM3.63201 11.125H8.09889L7.03076 12.9756C5.67701 12.8425 4.46264 12.1438 3.63201 11.125ZM8.52451 12.8875L10.6226 9.25313L11.5876 10.8319C10.8664 11.8581 9.77451 12.6156 8.52451 12.8875Z" fill="white"/>
</svg>
