<svg width="18" height="18" viewBox="0 0 18 18" fill="none" xmlns="http://www.w3.org/2000/svg">
<path d="M8.56507 16.3612C8.69557 16.4535 8.84782 16.5 9.00007 16.5C9.15232 16.5 9.30457 16.4535 9.43507 16.3612C9.66307 16.1985 15.0218 12.33 15.0001 7.5C15.0001 4.19175 12.3083 1.5 9.00007 1.5C5.69182 1.5 3.00007 4.19175 3.00007 7.497C2.97832 12.33 8.33707 16.1985 8.56507 16.3612ZM9.00007 3C11.4818 3 13.5001 5.01825 13.5001 7.503C13.5158 10.8315 10.2091 13.8203 9.00007 14.8013C7.79182 13.8203 4.48432 10.8315 4.50007 7.5C4.50007 5.01825 6.51832 3 9.00007 3Z" fill="#3B9FF3"/>
<path d="M8.25 10.5H9.75V8.25H12V6.75H9.75V4.5H8.25V6.75H6V8.25H8.25V10.5Z" fill="#3B9FF3"/>
</svg>
