<svg width="16" height="16" viewBox="0 0 16 16" fill="none" xmlns="http://www.w3.org/2000/svg">
<path d="M8.00999 1.00035C8.69345 1.00035 9.37746 1.00035 10.0609 1.00035C10.9552 1.00035 11.4943 1.53703 11.4976 2.42858C11.4976 3.0581 11.502 3.68761 11.4976 4.31658C11.4976 4.4638 11.5294 4.53631 11.6842 4.58795C12.1421 4.74121 12.4215 5.07354 12.5384 5.54101C12.7229 6.27435 12.909 7.00714 13.0874 7.74213C13.1231 7.89154 13.1895 7.97229 13.3394 8.01679C13.7741 8.15137 14.2045 8.29969 14.6349 8.44855C14.9528 8.55841 15.0494 8.7331 14.9775 9.05884C14.7323 10.1707 14.4852 11.2823 14.2364 12.3938C14.1233 12.8964 13.8224 13.2435 13.3284 13.3968C11.616 13.9289 9.90191 14.4555 8.1862 14.9766C8.05601 15.0105 7.91896 15.0075 7.7904 14.9679C6.08824 14.4533 4.38973 13.9339 2.69489 13.4094C2.19149 13.2534 1.87693 12.9101 1.76165 12.3954C1.51205 11.2847 1.26556 10.173 1.02219 9.06049C0.950822 8.73639 1.04799 8.56171 1.36639 8.45185C1.77921 8.30848 2.18984 8.1651 2.61035 8.03876C2.78657 7.98383 2.87385 7.90143 2.91722 7.71466C3.08521 6.98682 3.2735 6.26392 3.45631 5.53991C3.57379 5.07244 3.85321 4.74011 4.31105 4.58685C4.4675 4.53521 4.49825 4.4605 4.4966 4.31493C4.49001 3.69476 4.49276 3.07403 4.4966 2.45385C4.4966 1.53978 5.0291 1.00475 5.93544 1.00255C6.62439 0.998703 7.31719 1.00035 8.00999 1.00035ZM12.1536 7.61743C11.9829 6.94177 11.8308 6.32434 11.6688 5.7091C11.6068 5.47345 11.4295 5.38611 11.194 5.37951C10.7444 5.36798 10.622 5.23559 10.622 4.77526C10.622 3.9815 10.622 3.18828 10.622 2.39452C10.622 2.04735 10.4633 1.87761 10.1279 1.87651C8.70608 1.87322 7.28389 1.87322 5.86133 1.87651C5.53634 1.87651 5.3744 2.04131 5.36726 2.36541C5.36177 2.72081 5.36726 3.07677 5.36726 3.43273V4.50225H6.49594C7.3988 4.50225 8.30149 4.50225 9.20399 4.50225C9.54709 4.50225 9.74582 4.67034 9.74253 4.94555C9.73923 5.22076 9.54051 5.37622 9.19356 5.37841C8.90206 5.37841 8.61001 5.37841 8.31851 5.37841C7.16055 5.37841 6.0026 5.37841 4.84464 5.37841C4.49934 5.37841 4.36924 5.48004 4.28415 5.81402C4.1513 6.33478 4.02138 6.85626 3.89438 7.37848C3.88171 7.44511 3.87291 7.51243 3.86803 7.58008C3.89431 7.58063 3.92059 7.57879 3.94653 7.57459C4.85398 7.27466 5.78557 7.03241 6.66172 6.65833C7.57575 6.26831 8.41348 6.26941 9.32806 6.65833C10.2234 7.03735 11.1709 7.29059 12.1536 7.61743ZM1.94116 9.17969C2.17667 10.2316 2.39076 11.2473 2.64439 12.2526C2.68007 12.3943 2.89142 12.5399 3.05172 12.5943C3.79337 12.8436 4.54491 13.0612 5.29315 13.2908L7.54776 13.9846V7.31201L1.94116 9.17969ZM8.45081 7.31201V13.9664C8.48349 13.9634 8.51594 13.9583 8.54797 13.9511C10.0263 13.4968 11.5042 13.0392 12.9842 12.5893C13.2356 12.513 13.3509 12.3498 13.4025 12.1059C13.5266 11.5176 13.6616 10.932 13.7901 10.3448C13.8751 9.96027 13.9547 9.56971 14.042 9.1731L8.45081 7.31201Z" fill="#3B9FF3" stroke="#3B9FF3" stroke-width="0.4"/>
<path d="M4.93276 11.9508C4.67257 11.951 4.4182 11.8738 4.20193 11.7291C3.98567 11.5843 3.81728 11.3785 3.71815 11.1378C3.61901 10.8971 3.59361 10.6323 3.64517 10.3771C3.69672 10.122 3.8229 9.88786 4.00769 9.70458C4.19248 9.52129 4.42754 9.3971 4.68301 9.34777C4.93848 9.29844 5.20284 9.32619 5.44252 9.42751C5.6822 9.52883 5.88637 9.69914 6.02912 9.91681C6.17187 10.1345 6.24674 10.3897 6.24424 10.65C6.24034 10.9958 6.10056 11.3261 5.85512 11.5696C5.60968 11.813 5.27833 11.95 4.93276 11.9508ZM5.36699 10.6407C5.36753 10.5546 5.34255 10.4702 5.29522 10.3983C5.24788 10.3264 5.18031 10.2702 5.10104 10.2367C5.02177 10.2032 4.93435 10.1939 4.84983 10.2101C4.76531 10.2263 4.68748 10.2672 4.62618 10.3276C4.56487 10.388 4.52284 10.4653 4.50539 10.5496C4.48793 10.6339 4.49585 10.7215 4.52812 10.8014C4.5604 10.8812 4.6156 10.9496 4.68674 10.9981C4.75788 11.0465 4.84177 11.0728 4.92782 11.0736C5.04316 11.0736 5.15388 11.0282 5.23605 10.9472C5.31823 10.8662 5.36526 10.7561 5.36699 10.6407Z" fill="#3B9FF3" stroke="#3B9FF3" stroke-width="0.2"/>
<path d="M11.073 9.32401C11.3331 9.32646 11.5867 9.40622 11.8015 9.55316C12.0162 9.7001 12.1825 9.90759 12.2792 10.1493C12.3759 10.391 12.3986 10.656 12.3445 10.9106C12.2904 11.1653 12.1618 11.3981 11.9752 11.5795C11.7886 11.7609 11.5523 11.8827 11.2964 11.9294C11.0404 11.9762 10.7763 11.9458 10.5377 11.8421C10.2991 11.7383 10.0966 11.566 9.95607 11.3469C9.81551 11.1278 9.7432 10.8719 9.7483 10.6116C9.75565 10.2659 9.89876 9.93689 10.1467 9.69592C10.3946 9.45494 10.7273 9.32134 11.073 9.32401ZM11.051 11.073C11.1371 11.0749 11.2218 11.0511 11.2943 11.0048C11.3669 10.9585 11.4241 10.8916 11.4588 10.8128C11.4934 10.7339 11.5039 10.6465 11.4889 10.5617C11.4739 10.4769 11.4341 10.3984 11.3746 10.3362C11.315 10.274 11.2384 10.2308 11.1543 10.2122C11.0703 10.1936 10.9826 10.2003 10.9023 10.2316C10.8221 10.2628 10.7529 10.3172 10.7036 10.3878C10.6542 10.4583 10.6269 10.542 10.625 10.6281C10.6235 10.7433 10.6673 10.8546 10.747 10.9378C10.8267 11.021 10.9359 11.0696 11.051 11.073Z" fill="#3B9FF3" stroke="#3B9FF3" stroke-width="0.2"/>
</svg>
