<svg width="18" height="18" viewBox="0 0 18 18" fill="none" xmlns="http://www.w3.org/2000/svg">
<path d="M15.75 3H13.5V2.25C13.5 1.83525 13.1648 1.5 12.75 1.5H5.25C4.83525 1.5 4.5 1.83525 4.5 2.25V3H2.25C1.83525 3 1.5 3.33525 1.5 3.75V6C1.5 9.2325 2.84925 11.1825 5.11425 11.259C5.77425 12.3907 6.91125 13.2067 8.25 13.4325V15H6.75V16.5H11.25V15H9.75V13.4325C11.088 13.206 12.2257 12.39 12.8857 11.259C15.1508 11.1825 16.5 9.2325 16.5 6V3.75C16.5 3.33525 16.1648 3 15.75 3ZM3 6V4.5H4.5V9.01575V9.6225C3.162 9.0585 3 6.97425 3 6ZM9 12C7.3455 12 6 10.6545 6 9V3H12V9C12 10.6545 10.6545 12 9 12ZM13.5 9.6225V9.01575V4.5H15V6C15 6.97425 14.838 9.0585 13.5 9.6225Z" fill="#3B9FF3"/>
</svg>
