<svg width="18" height="18" viewBox="0 0 18 18" fill="none" xmlns="http://www.w3.org/2000/svg">
<path d="M16.0545 4.56444L9.3045 1.56444C9.1095 1.47819 8.88975 1.47819 8.69475 1.56444L1.94475 4.56444C1.92975 4.57119 1.91925 4.58244 1.90425 4.59069C1.88325 4.60119 1.86075 4.60794 1.84125 4.62069C1.82475 4.63194 1.812 4.64619 1.79625 4.65819C1.77525 4.67394 1.755 4.69119 1.73625 4.70919C1.7055 4.73844 1.6785 4.76994 1.65375 4.80369C1.63875 4.82469 1.623 4.84344 1.6095 4.86444C1.58625 4.90419 1.569 4.94544 1.5525 4.98819C1.54575 5.00844 1.53525 5.02719 1.52925 5.04744C1.51125 5.11269 1.5 5.18019 1.5 5.24994V12.7499C1.5 13.0469 1.674 13.3147 1.9455 13.4354L8.6955 16.4354C8.793 16.4789 8.8965 16.4999 9 16.4999C9.10425 16.4999 9.20475 16.4707 9.3015 16.4279L9.3045 16.4354L16.0545 13.4354C16.326 13.3147 16.5 13.0469 16.5 12.7499V5.24994C16.5 4.95294 16.326 4.68519 16.0545 4.56444ZM9 3.07119L13.9035 5.24994L9 7.42869L8.019 6.99294L4.09725 5.24994L9 3.07119ZM3 12.2632V6.40419L8.25 8.73744V14.5957L3 12.2632ZM9.75 14.5957V8.73744L15 6.40419V12.2632L9.75 14.5957Z" fill="#615E69"/>
</svg>
