<svg width="15" height="16" viewBox="0 0 15 16" fill="none" xmlns="http://www.w3.org/2000/svg">
<path d="M7.5 1.75C4.05375 1.75 1.25 4.55375 1.25 8C1.25 11.4463 4.05375 14.25 7.5 14.25C10.9463 14.25 13.75 11.4463 13.75 8C13.75 4.55375 10.9463 1.75 7.5 1.75ZM7.5 13C4.74313 13 2.5 10.7569 2.5 8C2.5 5.24313 4.74313 3 7.5 3C10.2569 3 12.5 5.24313 12.5 8C12.5 10.7569 10.2569 13 7.5 13Z" fill="#615E69"/>
<path d="M6.24937 8.99234L4.81249 7.55797L3.92999 8.44297L6.25062 10.7586L10.4419 6.56734L9.55812 5.68359L6.24937 8.99234Z" fill="#615E69"/>
</svg>
