<svg width="16" height="16" viewBox="0 0 16 16" fill="none" xmlns="http://www.w3.org/2000/svg">
<path d="M3.33333 14.6667H12.6667C13.402 14.6667 14 14.0687 14 13.3334V3.33337C14 2.59804 13.402 2.00004 12.6667 2.00004H11.3333C11.3333 1.63137 11.0353 1.33337 10.6667 1.33337H5.33333C4.96467 1.33337 4.66667 1.63137 4.66667 2.00004H3.33333C2.598 2.00004 2 2.59804 2 3.33337V13.3334C2 14.0687 2.598 14.6667 3.33333 14.6667ZM3.33333 3.33337H4.66667V4.66671H11.3333V3.33337H12.6667V13.3334H3.33333V3.33337Z" fill="#615E69"/>
<path d="M7.33331 9.05735L6.13798 7.86202L5.19531 8.80469L7.33331 10.9427L10.8046 7.47135L9.86198 6.52869L7.33331 9.05735Z" fill="#615E69"/>
</svg>
