<svg width="16" height="16" viewBox="0 0 16 16" fill="none" xmlns="http://www.w3.org/2000/svg">
<path d="M3.33333 14.6666H12.6667C13.402 14.6666 14 14.0686 14 13.3333V3.33325C14 2.59792 13.402 1.99992 12.6667 1.99992H11.3333C11.3333 1.63125 11.0353 1.33325 10.6667 1.33325H5.33333C4.96467 1.33325 4.66667 1.63125 4.66667 1.99992H3.33333C2.598 1.99992 2 2.59792 2 3.33325V13.3333C2 14.0686 2.598 14.6666 3.33333 14.6666ZM3.33333 3.33325H4.66667V4.66659H11.3333V3.33325H12.6667V13.3333H3.33333V3.33325Z" fill="#3B9FF3"/>
<path d="M7.33331 9.05723L6.13798 7.8619L5.19531 8.80456L7.33331 10.9426L10.8046 7.47123L9.86198 6.52856L7.33331 9.05723Z" fill="#3B9FF3"/>
</svg>
