<svg width="18" height="18" viewBox="0 0 18 18" fill="none" xmlns="http://www.w3.org/2000/svg">
<path d="M1.5 8.2501L3.0375 8.3251C3.12837 7.50419 3.38858 6.71106 3.80169 5.99587C4.21479 5.28068 4.7718 4.65898 5.4375 4.1701L4.5975 2.8801C4.395 2.5201 4.5 2.0626 4.875 1.8526C5.25 1.6501 5.6925 1.7701 5.9025 2.1301L6.6 3.4951C7.35815 3.16916 8.17475 3.00106 9 3.00106C9.82525 3.00106 10.6418 3.16916 11.4 3.4951L12.0975 2.1301C12.3075 1.7701 12.75 1.6501 13.125 1.8526C13.5 2.0626 13.605 2.5201 13.4025 2.8801L12.5625 4.1701C13.2282 4.65898 13.7852 5.28068 14.1983 5.99587C14.6114 6.71106 14.8716 7.50419 14.9625 8.3251L16.5 8.2501C16.6989 8.2501 16.8897 8.32912 17.0303 8.46977C17.171 8.61042 17.25 8.80119 17.25 9.0001C17.25 9.19901 17.171 9.38978 17.0303 9.53043C16.8897 9.67108 16.6989 9.7501 16.5 9.7501L14.9625 9.6751C14.8716 10.496 14.6114 11.2891 14.1983 12.0043C13.7852 12.7195 13.2282 13.3412 12.5625 13.8301L13.4025 15.1201C13.605 15.4801 13.5 15.9376 13.125 16.1476C12.75 16.3501 12.3075 16.2301 12.0975 15.8701L11.4 14.5051C10.6418 14.831 9.82525 14.9991 9 14.9991C8.17475 14.9991 7.35815 14.831 6.6 14.5051L5.9025 15.8701C5.6925 16.2301 5.25 16.3501 4.875 16.1476C4.5 15.9376 4.395 15.4801 4.5975 15.1201L5.4375 13.8301C4.7718 13.3412 4.21479 12.7195 3.80169 12.0043C3.38858 11.2891 3.12837 10.496 3.0375 9.6751L1.5 9.7501C1.30109 9.7501 1.11032 9.67108 0.96967 9.53043C0.829018 9.38978 0.75 9.19901 0.75 9.0001C0.75 8.80119 0.829018 8.61042 0.96967 8.46977C1.11032 8.32912 1.30109 8.2501 1.5 8.2501ZM6.8025 8.5126C6.9 8.0551 7.1475 7.6501 7.5 7.3426L6.255 5.4376C5.31402 6.15979 4.69667 7.22466 4.5375 8.4001L6.8025 8.5126ZM9 6.7501C9.24 6.7501 9.465 6.7876 9.675 6.8551L10.71 4.8376C10.185 4.6201 9.6075 4.5001 9 4.5001C8.3925 4.5001 7.815 4.6201 7.29 4.8376L8.325 6.8551C8.535 6.7876 8.76 6.7501 9 6.7501ZM11.1975 8.5126L13.4625 8.4001C13.3033 7.22466 12.686 6.15979 11.745 5.4376L10.5 7.3426C10.8525 7.6501 11.1 8.0551 11.1975 8.5126ZM11.1975 9.4876C11.1 9.9451 10.8525 10.3501 10.5 10.6576L11.745 12.5626C12.686 11.8404 13.3033 10.7755 13.4625 9.6001L11.1975 9.4876ZM9 11.2501C8.76 11.2501 8.535 11.2126 8.3175 11.1451L7.29 13.1626C7.815 13.3801 8.3925 13.5001 9 13.5001C9.6075 13.5001 10.185 13.3801 10.71 13.1626L9.6825 11.1451C9.465 11.2126 9.24 11.2501 9 11.2501ZM6.8025 9.4876L4.5375 9.6001C4.7025 10.8001 5.3325 11.8576 6.255 12.5626L7.5 10.6576C7.1475 10.3501 6.9 9.9451 6.8025 9.4876Z" fill="#615E69"/>
</svg>
