<svg width="18" height="18" viewBox="0 0 18 18" fill="none" xmlns="http://www.w3.org/2000/svg">
<path d="M1.5 8.24998L3.0375 8.32498C3.12837 7.50407 3.38858 6.71094 3.80169 5.99575C4.21479 5.28055 4.7718 4.65886 5.4375 4.16998L4.5975 2.87998C4.395 2.51998 4.5 2.06248 4.875 1.85248C5.25 1.64998 5.6925 1.76998 5.9025 2.12998L6.6 3.49498C7.35815 3.16903 8.17475 3.00094 9 3.00094C9.82525 3.00094 10.6418 3.16903 11.4 3.49498L12.0975 2.12998C12.3075 1.76998 12.75 1.64998 13.125 1.85248C13.5 2.06248 13.605 2.51998 13.4025 2.87998L12.5625 4.16998C13.2282 4.65886 13.7852 5.28055 14.1983 5.99575C14.6114 6.71094 14.8716 7.50407 14.9625 8.32498L16.5 8.24998C16.6989 8.24998 16.8897 8.329 17.0303 8.46965C17.171 8.6103 17.25 8.80107 17.25 8.99998C17.25 9.19889 17.171 9.38966 17.0303 9.53031C16.8897 9.67096 16.6989 9.74998 16.5 9.74998L14.9625 9.67498C14.8716 10.4959 14.6114 11.289 14.1983 12.0042C13.7852 12.7194 13.2282 13.3411 12.5625 13.83L13.4025 15.12C13.605 15.48 13.5 15.9375 13.125 16.1475C12.75 16.35 12.3075 16.23 12.0975 15.87L11.4 14.505C10.6418 14.8309 9.82525 14.999 9 14.999C8.17475 14.999 7.35815 14.8309 6.6 14.505L5.9025 15.87C5.6925 16.23 5.25 16.35 4.875 16.1475C4.5 15.9375 4.395 15.48 4.5975 15.12L5.4375 13.83C4.7718 13.3411 4.21479 12.7194 3.80169 12.0042C3.38858 11.289 3.12837 10.4959 3.0375 9.67498L1.5 9.74998C1.30109 9.74998 1.11032 9.67096 0.96967 9.53031C0.829018 9.38966 0.75 9.19889 0.75 8.99998C0.75 8.80107 0.829018 8.6103 0.96967 8.46965C1.11032 8.329 1.30109 8.24998 1.5 8.24998ZM6.8025 8.51248C6.9 8.05498 7.1475 7.64998 7.5 7.34248L6.255 5.43748C5.31402 6.15967 4.69667 7.22454 4.5375 8.39998L6.8025 8.51248ZM9 6.74998C9.24 6.74998 9.465 6.78748 9.675 6.85498L10.71 4.83748C10.185 4.61998 9.6075 4.49998 9 4.49998C8.3925 4.49998 7.815 4.61998 7.29 4.83748L8.325 6.85498C8.535 6.78748 8.76 6.74998 9 6.74998ZM11.1975 8.51248L13.4625 8.39998C13.3033 7.22454 12.686 6.15967 11.745 5.43748L10.5 7.34248C10.8525 7.64998 11.1 8.05498 11.1975 8.51248ZM11.1975 9.48748C11.1 9.94498 10.8525 10.35 10.5 10.6575L11.745 12.5625C12.686 11.8403 13.3033 10.7754 13.4625 9.59998L11.1975 9.48748ZM9 11.25C8.76 11.25 8.535 11.2125 8.3175 11.145L7.29 13.1625C7.815 13.38 8.3925 13.5 9 13.5C9.6075 13.5 10.185 13.38 10.71 13.1625L9.6825 11.145C9.465 11.2125 9.24 11.25 9 11.25ZM6.8025 9.48748L4.5375 9.59998C4.7025 10.8 5.3325 11.8575 6.255 12.5625L7.5 10.6575C7.1475 10.35 6.9 9.94498 6.8025 9.48748Z" fill="#3B9FF3"/>
</svg>
