<svg width="18" height="18" viewBox="0 0 18 18" fill="none" xmlns="http://www.w3.org/2000/svg">
<path d="M14.25 1.50745H4.5C3.5955 1.50745 2.25 2.1067 2.25 3.75745V6.00745V10.5074V12.7574V14.2574C2.25 15.9082 3.5955 16.5074 4.5 16.5074H15.75V15.0074H4.509C4.1625 14.9984 3.75 14.8612 3.75 14.2574C3.75 14.1817 3.75675 14.1142 3.768 14.0527C3.852 13.6214 4.20525 13.5149 4.50825 13.5074H15C15.0135 13.5074 15.0232 13.5007 15.0367 13.4999H15.75V12.7574V11.2499V3.00745C15.75 2.1802 15.0773 1.50745 14.25 1.50745ZM14.25 12.0074H3.75V10.5074V6.00745V3.75745C3.75 3.15295 4.1625 3.01645 4.5 3.00745H9.75V8.25745L11.25 7.50745L12.75 8.25745V3.00745H14.25V11.2499V12.0074Z" fill="#615E69"/>
</svg>
