<svg width="18" height="18" viewBox="0 0 18 18" fill="none" xmlns="http://www.w3.org/2000/svg">
<path d="M14.25 1.50757H4.5C3.5955 1.50757 2.25 2.10682 2.25 3.75757V6.00757V10.5076V12.7576V14.2576C2.25 15.9083 3.5955 16.5076 4.5 16.5076H15.75V15.0076H4.509C4.1625 14.9986 3.75 14.8613 3.75 14.2576C3.75 14.1818 3.75675 14.1143 3.768 14.0528C3.852 13.6216 4.20525 13.5151 4.50825 13.5076H15C15.0135 13.5076 15.0232 13.5008 15.0367 13.5001H15.75V12.7576V11.2501V3.00757C15.75 2.18032 15.0773 1.50757 14.25 1.50757ZM14.25 12.0076H3.75V10.5076V6.00757V3.75757C3.75 3.15307 4.1625 3.01657 4.5 3.00757H9.75V8.25757L11.25 7.50757L12.75 8.25757V3.00757H14.25V11.2501V12.0076Z" fill="#3B9FF3"/>
</svg>
