<svg width="40" height="40" viewBox="0 0 40 40" fill="none" xmlns="http://www.w3.org/2000/svg">
<g clip-path="url(#clip0)">
<rect width="40" height="40" rx="20" fill="#C4C4C4"/>
<path d="M14.0476 31.36L8.08005 34.6151C7.72986 34.8061 7.41514 35.0408 7.12231 35.2966C10.6016 38.2302 15.0929 40 20 40C24.871 40 29.3336 38.2566 32.8031 35.363C32.4831 35.0929 32.1359 34.8498 31.751 34.6581L25.3608 31.4634C24.5351 31.0506 24.0136 30.2068 24.0136 29.2838V26.7766C24.1933 26.5721 24.3985 26.3095 24.6182 25.9993C25.4891 24.7691 26.148 23.4159 26.6046 21.9963C27.4242 21.7434 28.028 20.9864 28.028 20.0868V17.4106C28.028 16.8219 27.7661 16.2959 27.3593 15.9276V12.0589C27.3593 12.0589 28.154 6.03851 20.0008 6.03851C11.8476 6.03851 12.6423 12.0589 12.6423 12.0589V15.9276C12.2348 16.2959 11.9736 16.8219 11.9736 17.4106V20.0868C11.9736 20.7917 12.3442 21.4121 12.8989 21.7706C13.5676 24.6815 15.3185 26.7766 15.3185 26.7766V29.2219C15.3178 30.1125 14.8302 30.9329 14.0476 31.36Z" fill="#EEF2FA"/>
<path d="M20.3418 0.00303927C9.29807 -0.18564 0.191659 8.61436 0.00298021 19.6581C-0.10419 25.92 2.68675 31.5479 7.13053 35.2906C7.42109 35.037 7.73279 34.8045 8.07921 34.6159L14.0468 31.3608C14.8294 30.9336 15.3169 30.1132 15.3169 29.2211V26.7759C15.3169 26.7759 13.5652 24.6808 12.8973 21.7698C12.3434 21.4113 11.972 20.7917 11.972 20.0861V17.4098C11.972 16.8212 12.2339 16.2951 12.6407 15.9268V12.0581C12.6407 12.0581 11.846 6.03776 19.9992 6.03776C28.1524 6.03776 27.3577 12.0581 27.3577 12.0581V15.9268C27.7652 16.2951 28.0264 16.8212 28.0264 17.4098V20.0861C28.0264 20.9857 27.4226 21.7427 26.603 21.9955C26.1464 23.4151 25.4875 24.7683 24.6166 25.9985C24.3969 26.3087 24.1917 26.5713 24.012 26.7759V29.283C24.012 30.2061 24.5335 31.0506 25.3592 31.4627L31.7494 34.6574C32.1328 34.8491 32.4792 35.0913 32.7985 35.3608C37.1079 31.7668 39.892 26.3932 39.9954 20.3419C40.1856 9.29813 31.3864 0.191718 20.3418 0.00303927Z" fill="#3B9FF3"/>
</g>
<defs>
<clipPath id="clip0">
<rect width="40" height="40" fill="white"/>
</clipPath>
</defs>
</svg>
