<svg width="100" height="32" viewBox="0 0 100 32" fill="none" xmlns="http://www.w3.org/2000/svg">
<rect width="100" height="32" rx="6" fill="#E6F3FF"/>
<path d="M19.1318 21H17.3682V11.1357H19.1318V21ZM21.0973 21V13.7539H22.7311V15.0117H22.7652C22.9247 14.5833 23.1868 14.2438 23.5514 13.9932C23.916 13.7425 24.3421 13.6172 24.8297 13.6172C25.3401 13.6172 25.7708 13.7448 26.1217 14C26.4771 14.2507 26.721 14.6084 26.8531 15.0732H26.8941C27.0673 14.6266 27.3544 14.2734 27.7555 14.0137C28.1611 13.7493 28.6259 13.6172 29.15 13.6172C29.8655 13.6172 30.4374 13.8382 30.8658 14.2803C31.2988 14.7223 31.5152 15.3057 31.5152 16.0303V21H29.8131V16.4473C29.8131 16.0007 29.6992 15.6566 29.4713 15.415C29.248 15.1735 28.929 15.0527 28.5143 15.0527C28.1041 15.0527 27.7714 15.1895 27.5162 15.4629C27.261 15.7363 27.1334 16.0895 27.1334 16.5225V21H25.4791V16.3584C25.4791 15.9574 25.3629 15.6406 25.1305 15.4082C24.9026 15.1712 24.5904 15.0527 24.1939 15.0527C23.7838 15.0527 23.4488 15.1963 23.1891 15.4834C22.9293 15.766 22.7994 16.126 22.7994 16.5635V21H21.0973ZM37.2609 13.6309C38.1815 13.6309 38.913 13.9658 39.4553 14.6357C39.9976 15.3057 40.2687 16.2194 40.2687 17.377C40.2687 18.5299 39.9999 19.4414 39.4621 20.1113C38.9243 20.7812 38.1997 21.1162 37.2883 21.1162C36.7687 21.1162 36.3107 21 35.9143 20.7676C35.5178 20.5306 35.2193 20.207 35.0187 19.7969H34.9846V23.3857H33.2824V13.7539H34.9436V15.0049H34.9777C35.1874 14.5765 35.4904 14.2415 35.8869 14C36.2834 13.7539 36.7414 13.6309 37.2609 13.6309ZM36.7414 19.7217C37.2928 19.7217 37.7281 19.512 38.0471 19.0928C38.3661 18.6689 38.5256 18.097 38.5256 17.377C38.5256 16.6615 38.3638 16.0918 38.0402 15.668C37.7212 15.2441 37.2883 15.0322 36.7414 15.0322C36.2128 15.0322 35.7867 15.2464 35.4631 15.6748C35.1395 16.1032 34.9755 16.6706 34.9709 17.377C34.9755 18.0879 35.1395 18.6576 35.4631 19.0859C35.7867 19.5098 36.2128 19.7217 36.7414 19.7217ZM47.5252 20.1387C46.8917 20.8086 46.0395 21.1436 44.9686 21.1436C43.8976 21.1436 43.0454 20.8086 42.4119 20.1387C41.7785 19.4642 41.4617 18.5436 41.4617 17.377C41.4617 16.2148 41.7807 15.2965 42.4188 14.6221C43.0568 13.943 43.9067 13.6035 44.9686 13.6035C46.035 13.6035 46.8849 13.943 47.5184 14.6221C48.1564 15.2965 48.4754 16.2148 48.4754 17.377C48.4754 18.5436 48.1587 19.4642 47.5252 20.1387ZM43.6697 19.1611C43.9887 19.585 44.4217 19.7969 44.9686 19.7969C45.5154 19.7969 45.9484 19.585 46.2674 19.1611C46.5864 18.7373 46.7459 18.1426 46.7459 17.377C46.7459 16.6159 46.5864 16.0234 46.2674 15.5996C45.9484 15.1712 45.5154 14.957 44.9686 14.957C44.4262 14.957 43.9933 15.1712 43.6697 15.5996C43.3507 16.0234 43.1912 16.6159 43.1912 17.377C43.1912 18.1426 43.3507 18.7373 43.6697 19.1611ZM49.9691 21V13.7539H51.6029V15.0186H51.6371C51.7602 14.5765 51.9721 14.2347 52.2729 13.9932C52.5782 13.7516 52.9451 13.6309 53.3734 13.6309C53.5238 13.6309 53.7016 13.6536 53.9066 13.6992V15.2373C53.738 15.1735 53.5079 15.1416 53.2162 15.1416C52.7331 15.1416 52.3549 15.2874 52.0814 15.5791C51.808 15.8708 51.6713 16.2718 51.6713 16.7822V21H49.9691ZM55.6533 12.0586H57.3555V13.7539H58.7227V15.0664H57.3555V18.833C57.3555 19.1292 57.4261 19.348 57.5674 19.4893C57.7087 19.6305 57.9297 19.7012 58.2305 19.7012C58.431 19.7012 58.5928 19.6898 58.7158 19.667V20.9658C58.5107 21.0114 58.2168 21.0342 57.834 21.0342C57.0501 21.0342 56.4896 20.8838 56.1523 20.583C55.8197 20.2822 55.6533 19.7786 55.6533 19.0723V15.0664H54.6143V13.7539H55.6533V12.0586Z" fill="#1E62DC"/>
<path d="M77.5 21L80.8333 16.8334H78.3333V7.66669H76.6667V16.8334H74.1667L77.5 21Z" fill="#1E62DC"/>
<path d="M83.3333 13.5H80V15.1667H83.3333V22.6667H71.6667V15.1667H75V13.5H71.6667C70.7475 13.5 70 14.2475 70 15.1667V22.6667C70 23.5858 70.7475 24.3333 71.6667 24.3333H83.3333C84.2525 24.3333 85 23.5858 85 22.6667V15.1667C85 14.2475 84.2525 13.5 83.3333 13.5Z" fill="#1E62DC"/>
</svg>
