<svg width="127" height="90" viewBox="0 0 127 90" fill="none" xmlns="http://www.w3.org/2000/svg">
<path d="M0 4C0 1.79086 1.79086 0 4 0H6C8.20914 0 10 1.79086 10 4V90H0V4Z" fill="#CDDAEE"/>
<path d="M21 4C21 1.79086 22.7909 0 25 0H27C29.2091 0 31 1.79086 31 4V90H21V4Z" fill="#CDDAEE"/>
<path d="M39 4C39 1.79086 40.7909 0 43 0H45C47.2091 0 49 1.79086 49 4V90H39V4Z" fill="#CDDAEE"/>
<path d="M60 4C60 1.79086 61.7909 0 64 0H66C68.2091 0 70 1.79086 70 4V90H60V4Z" fill="#CDDAEE"/>
<path d="M78 4C78 1.79086 79.7909 0 82 0H84C86.2091 0 88 1.79086 88 4V90H78V4Z" fill="#CDDAEE"/>
<path d="M96 4C96 1.79086 97.7909 0 100 0H102C104.209 0 106 1.79086 106 4V90H96V4Z" fill="#CDDAEE"/>
<path d="M117 4C117 1.79086 118.791 0 121 0H123C125.209 0 127 1.79086 127 4V90H117V4Z" fill="#CDDAEE"/>
<path d="M0 64C0 61.7909 1.79086 60 4 60H6C8.20914 60 10 61.7909 10 64V90H0V64Z" fill="#D8D8D8"/>
<path d="M21 53C21 50.7909 22.7909 49 25 49H27C29.2091 49 31 50.7909 31 53V90H21V53Z" fill="#D8D8D8"/>
<path d="M60 36C60 33.7909 61.7909 32 64 32H66C68.2091 32 70 33.7909 70 36V90H60V36Z" fill="#D8D8D8"/>
<path d="M78 52C78 49.7909 79.7909 48 82 48H84C86.2091 48 88 49.7909 88 52V90H78V52Z" fill="#D8D8D8"/>
<path d="M96 70C96 67.7909 97.7909 66 100 66H102C104.209 66 106 67.7909 106 70V90H96V70Z" fill="#D8D8D8"/>
<path d="M117 83C117 80.7909 118.791 79 121 79H123C125.209 79 127 80.7909 127 83V90H117V83Z" fill="#D8D8D8"/>
<path d="M0 64C0 61.7909 1.79086 60 4 60H6C8.20914 60 10 61.7909 10 64V90H0V64Z" fill="#0842FF"/>
<path d="M21 53C21 50.7909 22.7909 49 25 49H27C29.2091 49 31 50.7909 31 53V90H21V53Z" fill="#0842FF"/>
<path d="M39 22C39 19.7909 40.7909 18 43 18H45C47.2091 18 49 19.7909 49 22V90H39V22Z" fill="#0842FF"/>
<path d="M60 36C60 33.7909 61.7909 32 64 32H66C68.2091 32 70 33.7909 70 36V90H60V36Z" fill="#0842FF"/>
<path d="M78 52C78 49.7909 79.7909 48 82 48H84C86.2091 48 88 49.7909 88 52V90H78V52Z" fill="#0842FF"/>
<path d="M96 70C96 67.7909 97.7909 66 100 66H102C104.209 66 106 67.7909 106 70V90H96V70Z" fill="#0842FF"/>
<path d="M117 83C117 80.7909 118.791 79 121 79H123C125.209 79 127 80.7909 127 83V90H117V83Z" fill="#0842FF"/>
</svg>
