<svg width="136" height="170" viewBox="0 0 136 170" fill="none" xmlns="http://www.w3.org/2000/svg">
<path d="M120.979 63.7025C120.864 62.3539 119.996 61.2465 118.714 60.8122L108.31 57.289L118.438 45.6687C119.111 44.8973 119.392 43.8773 119.21 42.8704C119.029 41.8636 118.408 41.0064 117.508 40.5189L104.441 33.4391C103.587 32.9767 102.521 33.2936 102.058 34.1472C101.596 35.0008 101.913 36.0677 102.766 36.5301L115.654 43.5126L104.86 55.8959L70.7674 37.424L77.0934 30.1665C77.8214 30.4337 78.6075 30.5795 79.4269 30.5795C81.971 30.5795 84.1917 29.1725 85.3549 27.0967L95.1235 32.3894C95.3898 32.5335 95.6764 32.6019 95.9593 32.6019C96.5837 32.6019 97.1881 32.2687 97.5067 31.6811C97.9691 30.8275 97.652 29.7606 96.7984 29.2982L86.213 23.5632C86.0937 19.9222 83.0967 16.9965 79.4271 16.9965C75.6822 16.9965 72.6356 20.0431 72.6356 23.788C72.6356 25.4368 73.2267 26.9497 74.2073 28.1275L68.0001 35.2488L57.0029 22.6325C55.9646 21.4412 54.2694 21.1348 52.8793 21.8877L48.5806 24.2167C48.0769 20.2334 44.6698 17.142 40.552 17.142C36.0886 17.142 32.4571 20.7734 32.4571 25.2371C32.4571 27.7051 33.5688 29.9174 35.3161 31.4033L18.4916 40.5189C17.592 41.0064 16.9719 41.8633 16.7898 42.8704C16.6081 43.8773 16.8894 44.8973 17.5618 45.6684L27.6902 57.2888L17.2864 60.8117C16.0041 61.246 15.1363 62.3534 15.0214 63.702C14.9066 65.0507 15.5745 66.2891 16.7647 66.9339L28.982 73.5531V80.1881C28.982 81.1589 29.7688 81.9459 30.7399 81.9459C31.7109 81.9459 32.4977 81.1589 32.4977 80.1881V75.4579L49.5903 84.7186C50.3194 85.1137 51.1329 85.3146 51.9495 85.3146C52.4834 85.3146 53.019 85.2286 53.5327 85.0547L66.2425 80.7513V115.725L33.2467 97.8476C32.7848 97.5973 32.4979 97.1154 32.4979 96.59V88.8659C32.4979 87.8951 31.7111 87.108 30.7401 87.108C29.7691 87.108 28.9823 87.8951 28.9823 88.8659V96.59C28.9823 98.4069 29.9744 100.073 31.5719 100.939L65.6441 119.4C66.3819 119.8 67.1912 119.999 68.0005 119.999C68.8098 119.999 69.6191 119.799 70.357 119.4L104.429 100.939C106.026 100.073 107.019 98.4069 107.019 96.59V73.5529L119.236 66.9336C120.425 66.2896 121.094 65.0513 120.979 63.7025ZM71.886 50.1035C78.0394 51.8332 82.3369 57.5075 82.3369 63.9024C82.3369 65.6832 82.017 67.4115 81.3846 69.0491L68.0001 76.301L54.6155 69.0491C53.9834 67.4115 53.6633 65.6832 53.6633 63.9024C53.6633 57.4878 57.9772 51.8086 64.1544 50.0918C65.0896 49.8319 65.6371 48.8627 65.3772 47.9276C65.1175 46.9922 64.1479 46.4449 63.2129 46.7046C55.5205 48.8428 50.1479 55.9147 50.1479 63.9024C50.1479 64.8657 50.2259 65.8166 50.3759 66.7522L34.4299 58.1124L68.0005 39.9234L101.571 58.1126L85.6249 66.7525C85.7749 65.8168 85.853 64.866 85.853 63.9027C85.853 55.9393 80.501 48.8733 72.8378 46.7191C71.9031 46.4562 70.9326 47.0013 70.6701 47.9356C70.4067 48.8702 70.9511 49.8408 71.886 50.1035ZM79.4269 20.5126C81.2332 20.5126 82.703 21.9821 82.703 23.7885C82.703 25.5948 81.2332 27.0646 79.4269 27.0646C77.6205 27.0646 76.151 25.5948 76.151 23.7885C76.151 21.9821 77.6205 20.5126 79.4269 20.5126ZM40.552 20.6581C43.077 20.6581 45.1315 22.7124 45.1315 25.2376C45.1315 27.7625 43.077 29.8171 40.552 29.8171C38.0271 29.8171 35.9728 27.7628 35.9728 25.2376C35.9728 22.7124 38.0271 20.6581 40.552 20.6581ZM39.3117 33.2376C39.7162 33.3002 40.1304 33.3327 40.552 33.3327C43.8281 33.3327 46.6535 31.3755 47.9264 28.57L54.4388 25.0417L65.2323 37.4245L31.1397 55.8964L20.346 43.5131L39.3117 33.2376ZM52.4049 81.7254C52.029 81.8529 51.6132 81.817 51.2649 81.6281L31.585 70.9656C31.5799 70.9628 31.5745 70.96 31.5693 70.9572L18.7691 64.022L30.5765 60.0237L63.6212 77.9278L52.4049 81.7254ZM103.502 96.5907C103.502 97.1162 103.215 97.598 102.754 97.8483L69.7579 115.726V80.752L82.4677 85.0554C82.9814 85.2293 83.517 85.3153 84.0511 85.3153C84.8672 85.3153 85.681 85.1142 86.4101 84.7193L103.503 75.4586V96.5907H103.502ZM84.735 81.6281C84.3867 81.817 83.971 81.8529 83.595 81.7254L72.3789 77.9278L105.424 60.0237L117.231 64.022L84.735 81.6281ZM117.586 64.1422C117.586 64.1422 117.586 64.142 117.585 64.142L117.586 64.1422Z" fill="#BBBABF"/>
<path d="M81.1462 99.5357L77.1138 101.721C76.2602 102.183 75.9433 103.25 76.4057 104.103C76.724 104.691 77.3287 105.024 77.9531 105.024C78.2357 105.024 78.5228 104.956 78.7889 104.812L82.8213 102.627C83.6749 102.164 83.9917 101.098 83.5293 100.244C83.0669 99.3904 82.0005 99.0731 81.1462 99.5357Z" fill="#BBBABF"/>
<path d="M47.3034 14.8031C47.6467 15.1462 48.0967 15.318 48.5465 15.318C48.9963 15.318 49.4463 15.1464 49.7896 14.8031L51.2397 13.353L52.6898 14.8031C53.0331 15.1462 53.4831 15.318 53.9329 15.318C54.3827 15.318 54.8327 15.1464 55.176 14.8031C55.8625 14.1166 55.8625 13.0035 55.176 12.3173L53.7257 10.867L55.176 9.41666C55.8625 8.73018 55.8625 7.61713 55.176 6.93088C54.4893 6.24439 53.3765 6.24439 52.69 6.93088L51.2399 8.38096L49.7899 6.93088C49.1031 6.24439 47.9903 6.24439 47.3038 6.93088C46.6174 7.61736 46.6174 8.73041 47.3038 9.41666L48.7542 10.867L47.3038 12.3173C46.6169 13.0035 46.6169 14.1166 47.3034 14.8031Z" fill="#BBBABF"/>
<path d="M99.3445 26.318C99.6879 26.6611 100.138 26.8329 100.588 26.8329C101.037 26.8329 101.487 26.6613 101.831 26.318L103.281 24.8679L104.731 26.318C105.074 26.6611 105.524 26.8329 105.974 26.8329C106.424 26.8329 106.874 26.6613 107.217 26.318C107.904 25.6315 107.904 24.5184 107.217 23.8322L105.767 22.3819L107.217 20.9316C107.904 20.2451 107.904 19.132 107.217 18.4458C106.53 17.7593 105.418 17.7593 104.731 18.4458L103.281 19.8958L101.831 18.4458C101.144 17.7593 100.031 17.7593 99.345 18.4458C98.6585 19.1323 98.6585 20.2453 99.345 20.9316L100.795 22.3819L99.345 23.8322C98.658 24.5184 98.658 25.6315 99.3445 26.318Z" fill="#BBBABF"/>
<path d="M89.6398 15.3166C93.8627 15.3166 97.2982 11.8812 97.2982 7.65844C97.298 3.43547 93.8625 0 89.6398 0C85.417 0 81.9813 3.43547 81.9813 7.65844C81.9813 11.8812 85.4168 15.3166 89.6398 15.3166ZM89.6398 3.51562C91.924 3.51562 93.7826 5.37398 93.7826 7.65844C93.7826 9.94266 91.924 11.801 89.6398 11.801C87.3555 11.801 85.4969 9.94266 85.4969 7.65844C85.4969 5.37398 87.3555 3.51562 89.6398 3.51562Z" fill="#BBBABF"/>
<path d="M67.8015 65.7458C66.1079 65.7458 64.5094 66.3074 63.2982 67.3288C62.5562 67.9546 62.4617 69.0636 63.0877 69.8057C63.7133 70.5479 64.8223 70.6422 65.5646 70.0164C66.1341 69.5361 66.9488 69.2612 67.8017 69.2612H67.8134C68.6705 69.2638 69.4883 69.5439 70.0576 70.0297C70.3887 70.3124 70.7944 70.4504 71.1978 70.4504C71.6944 70.4504 72.188 70.2411 72.5356 69.8338C73.1659 69.0955 73.0782 67.9857 72.3399 67.3555C71.1296 66.3224 69.5255 65.7505 67.8235 65.7454C67.8162 65.7458 67.8087 65.7458 67.8015 65.7458Z" fill="#BBBABF"/>
<path d="M60.3644 60.5404H60.348C59.3763 60.5261 58.5933 61.3154 58.5862 62.286C58.5797 63.2568 59.3693 64.0492 60.34 64.056H60.3525C61.3174 64.056 62.1033 63.2769 62.11 62.3104C62.1168 61.3396 61.3354 60.5471 60.3644 60.5404Z" fill="#BBBABF"/>
<path d="M75.3079 64.0201C75.314 64.0212 75.3203 64.0219 75.3264 64.0231C75.377 64.033 75.4284 64.0412 75.4804 64.0466C75.4973 64.0482 75.5144 64.0482 75.5313 64.0494C75.5704 64.0522 75.6095 64.0559 75.6496 64.0562H75.662C75.7225 64.0562 75.7823 64.0531 75.8413 64.047C76.7289 63.9582 77.4217 63.2091 77.4217 62.2981C77.4217 61.399 76.7465 60.6591 75.8758 60.5544C75.8678 60.5534 75.8601 60.5515 75.8521 60.5508C75.812 60.5466 75.771 60.5455 75.73 60.5438C75.7113 60.5431 75.693 60.5408 75.674 60.5405H75.6649C75.6646 60.5405 75.6642 60.5405 75.6639 60.5405H75.6576H75.6473C75.6466 60.5405 75.6459 60.5405 75.6452 60.5405C74.6803 60.5405 73.9026 61.3196 73.8958 62.2862C73.8899 63.14 74.5002 63.8553 75.3079 64.0201Z" fill="#BBBABF"/>
<path d="M1.39844 162H3.13672V150.877H3.18555L10.9395 162H12.6484V147.908H10.9102V159.031H10.8613L3.10742 147.908H1.39844V162ZM19.3281 162.195C22.1309 162.195 24.0254 160.164 24.0254 156.922V156.902C24.0254 153.66 22.1211 151.648 19.3184 151.648C16.5156 151.648 14.6211 153.67 14.6211 156.902V156.922C14.6211 160.154 16.5059 162.195 19.3281 162.195ZM19.3379 160.691C17.541 160.691 16.3594 159.314 16.3594 156.922V156.902C16.3594 154.529 17.5508 153.152 19.3184 153.152C21.1152 153.152 22.2871 154.52 22.2871 156.902V156.922C22.2871 159.305 21.125 160.691 19.3379 160.691ZM29.8457 162H31.5449V155.73C31.5449 154.188 32.4043 153.27 33.7227 153.27C34.1328 153.27 34.4941 153.318 34.6309 153.367V151.717C34.4941 151.697 34.2402 151.648 33.9473 151.648C32.8047 151.648 31.9258 152.391 31.584 153.562H31.5449V151.844H29.8457V162ZM39.709 162.195C41.9258 162.195 43.5859 160.867 43.918 159.188L43.9375 159.09H42.2676L42.2383 159.178C41.9453 160.047 41.0371 160.691 39.748 160.691C37.9414 160.691 36.7891 159.471 36.75 157.381H44.0645V156.756C44.0645 153.709 42.375 151.648 39.6016 151.648C36.8281 151.648 35.0312 153.807 35.0312 156.951V156.961C35.0312 160.154 36.7891 162.195 39.709 162.195ZM39.5918 153.152C41.0762 153.152 42.1699 154.08 42.3359 156.053H36.7793C36.9648 154.158 38.1172 153.152 39.5918 153.152ZM49.3867 162.195C51.6523 162.195 53.332 160.945 53.332 159.168V159.158C53.332 157.713 52.5898 156.902 50.5391 156.404L48.9277 156.014C47.8047 155.74 47.3457 155.262 47.3457 154.568V154.559C47.3457 153.66 48.1074 153.064 49.3379 153.064C50.5977 153.064 51.3496 153.719 51.4863 154.705L51.4961 154.773H53.1172L53.1074 154.646C52.9805 152.947 51.5645 151.648 49.3379 151.648C47.1406 151.648 45.6074 152.889 45.6074 154.637V154.646C45.6074 156.111 46.5352 157 48.4492 157.459L50.0605 157.85C51.2129 158.133 51.5938 158.543 51.5938 159.275V159.285C51.5938 160.203 50.7734 160.779 49.3965 160.779C48.0098 160.779 47.2578 160.184 47.0527 159.168L47.0332 159.07H45.334L45.3438 159.158C45.5488 160.975 46.9941 162.195 49.3867 162.195ZM58.5664 162.195C60.1094 162.195 61.1445 161.502 61.6914 160.555H61.7305V162H63.4297V151.844H61.7305V157.82C61.7305 159.549 60.6855 160.691 59.084 160.691C57.5215 160.691 56.75 159.783 56.75 158.133V151.844H55.0508V158.436C55.0508 160.75 56.3398 162.195 58.5664 162.195ZM65.7344 162H67.4336V147.908H65.7344V162ZM73.0293 162.195C73.3613 162.195 73.7227 162.156 73.9375 162.127V160.75C73.791 160.76 73.5957 160.789 73.3906 160.789C72.4824 160.789 72.0039 160.486 72.0039 159.402V153.25H73.9375V151.844H72.0039V149.1H70.2461V151.844H68.7617V153.25H70.2461V159.412C70.2461 161.355 71.1641 162.195 73.0293 162.195ZM79.3672 162.195C81.6328 162.195 83.3125 160.945 83.3125 159.168V159.158C83.3125 157.713 82.5703 156.902 80.5195 156.404L78.9082 156.014C77.7852 155.74 77.3262 155.262 77.3262 154.568V154.559C77.3262 153.66 78.0879 153.064 79.3184 153.064C80.5781 153.064 81.3301 153.719 81.4668 154.705L81.4766 154.773H83.0977L83.0879 154.646C82.9609 152.947 81.5449 151.648 79.3184 151.648C77.1211 151.648 75.5879 152.889 75.5879 154.637V154.646C75.5879 156.111 76.5156 157 78.4297 157.459L80.041 157.85C81.1934 158.133 81.5742 158.543 81.5742 159.275V159.285C81.5742 160.203 80.7539 160.779 79.377 160.779C77.9902 160.779 77.2383 160.184 77.0332 159.168L77.0137 159.07H75.3145L75.3242 159.158C75.5293 160.975 76.9746 162.195 79.3672 162.195ZM89.7285 162H91.4277V153.25H93.498V151.844H91.4082V150.604C91.4082 149.598 91.877 149.119 92.8145 149.119C93.0781 149.119 93.3418 149.129 93.5469 149.158V147.781C93.293 147.742 92.8926 147.713 92.5117 147.713C90.6367 147.713 89.7285 148.641 89.7285 150.594V151.844H88.3125V153.25H89.7285V162ZM98.4883 162.195C101.291 162.195 103.186 160.164 103.186 156.922V156.902C103.186 153.66 101.281 151.648 98.4785 151.648C95.6758 151.648 93.7812 153.67 93.7812 156.902V156.922C93.7812 160.154 95.666 162.195 98.4883 162.195ZM98.498 160.691C96.7012 160.691 95.5195 159.314 95.5195 156.922V156.902C95.5195 154.529 96.7109 153.152 98.4785 153.152C100.275 153.152 101.447 154.52 101.447 156.902V156.922C101.447 159.305 100.285 160.691 98.498 160.691ZM108.371 162.195C109.914 162.195 110.949 161.502 111.496 160.555H111.535V162H113.234V151.844H111.535V157.82C111.535 159.549 110.49 160.691 108.889 160.691C107.326 160.691 106.555 159.783 106.555 158.133V151.844H104.855V158.436C104.855 160.75 106.145 162.195 108.371 162.195ZM115.451 162H117.15V156.023C117.15 154.295 118.195 153.152 119.797 153.152C121.359 153.152 122.131 154.061 122.131 155.711V162H123.83V155.408C123.83 153.094 122.541 151.648 120.314 151.648C118.771 151.648 117.736 152.342 117.189 153.289H117.15V151.844H115.451V162ZM129.816 162.195C131.271 162.195 132.404 161.463 133.039 160.281H133.078V162H134.777V147.908H133.078V153.543H133.039C132.404 152.371 131.223 151.648 129.787 151.648C127.238 151.648 125.5 153.709 125.5 156.912V156.922C125.5 160.125 127.219 162.195 129.816 162.195ZM130.148 160.691C128.352 160.691 127.238 159.256 127.238 156.922V156.912C127.238 154.598 128.352 153.152 130.148 153.152C131.857 153.152 133.088 154.646 133.088 156.912V156.922C133.088 159.197 131.867 160.691 130.148 160.691Z" fill="#8E8C94"/>
</svg>
