<svg xmlns="http://www.w3.org/2000/svg" viewBox="0 0 228.98 52.46"><defs><style>.cls-1,.cls-10{fill:#999;}.cls-2{fill:#ccc;}.cls-3,.cls-4{fill:#c4c4c4;}.cls-4{stroke:#ccc;stroke-width:5px;}.cls-4,.cls-8{stroke-linejoin:round;}.cls-5{fill:#666;}.cls-6{fill:#7e7e7e;}.cls-7{fill:#d4d4d6;}.cls-8{fill:none;stroke:#666;stroke-width:2px;}.cls-9{fill:#009ace;}.cls-10{font-size:11.04px;font-family:Verdana-Italic, Verdana;font-style:italic;}</style></defs><title>Asset 5</title><g id="Layer_2" data-name="Layer 2"><g id="Layer_6" data-name="Layer 6"><path class="cls-1" d="M20.62,52.46l-.07-.06h-.48v-.9h.22c0-.39.06-1,.16-1.93A29.21,29.21,0,0,1,21.21,45c.82-3,5-3.41,5.18-3.43h3.41c.66,0,2.45-.08,3-.82a1,1,0,0,0,.12-.94c-.73-2.6,0-3.22.28-3.35l0,0a3,3,0,0,0,.38-.24l-.11-.08a1,1,0,0,1-.49-1.35,2,2,0,0,1,.59-.66l.1-.08c.33-.28.18-.52.11-.62a1.8,1.8,0,0,1-.44-1.59c.18-.56.72-.94,1.61-1.15a.79.79,0,0,0,.71-.85,1.93,1.93,0,0,0-.56-1.08c-.12-.15-.24-.3-.35-.47a10,10,0,0,1-.77-1.35A11.48,11.48,0,0,1,33,22.54c-.33-6.71-2.54-11.69-6.39-14.42A11.34,11.34,0,0,0,20.89,6l0-.9a12.11,12.11,0,0,1,6.22,2.29c2.85,2,6.34,6.28,6.77,15.12a10.58,10.58,0,0,0,1,4,9,9,0,0,0,.7,1.23c.1.14.21.28.31.41a2.76,2.76,0,0,1,.75,1.59,1.67,1.67,0,0,1-1.4,1.8c-.54.13-.88.32-1,.54s.19.65.26.73a1.31,1.31,0,0,1-.21,1.9l-.11.09a1.39,1.39,0,0,0-.34.34.16.16,0,0,0,0,0,1.52,1.52,0,0,0,.24.2,2.18,2.18,0,0,1,.32.28.75.75,0,0,1,.19.63c-.08.47-.59.76-.89.93l0,0c-.12.13-.3.78.13,2.33a1.87,1.87,0,0,1-.28,1.75c-1,1.23-3.48,1.17-3.76,1.16H26.46c-.28,0-3.74.47-4.37,2.77a33.36,33.36,0,0,0-.88,6.23h.06l-.14.79Zm13.07-15.2h0Z"/><path class="cls-2" d="M30.59,17s5.27-.53,7.16,0c1.53.43.82,1.61.16,2.42a17.71,17.71,0,0,1-3.86,3.26A40.09,40.09,0,0,1,29.85,25l-8.29,4.28-3.47,1.81L9.76,35.42l-1,.51c1.36-.48,3.05-.91,4.41-1.39,3-1.06,6.42-2.22,9.42-3.28s5.46-2,8.35-3.17C33.68,27,36.49,26,39.17,24.8a30,30,0,0,0,6.45-3.66c1.18-.94,3.91-3.1,2.46-4.73a3.47,3.47,0,0,0-1-.73C45.43,14.84,40.8,14.5,30.59,17Z"/><path class="cls-1" d="M36.68,15.73s5.79-.58,2.56,3c-4,4.44-30.55,17-30.55,17l2.67-1,6.28-2.33c4.35-1.62,8.81-3,13-4.85s8.2-3.34,11.84-5.8l.22-.15a26.55,26.55,0,0,0,2.49-1.92,3.27,3.27,0,0,0,1.4-2.2,1.7,1.7,0,0,0-.41-1.18A4.31,4.31,0,0,0,43,15a28,28,0,0,0-4.53.4C37.88,15.52,37.28,15.67,36.68,15.73Z"/><path class="cls-2" d="M17.69,5.61,17.4,5.3,15.46,6.65A7.67,7.67,0,0,0,14,5.84l.45-2.33L14,3.28,12.78,5.42a7.73,7.73,0,0,0-2-.22l-.6-2.41-.49,0L9.49,5.34a7.71,7.71,0,0,0-1.67.52L6.36,3.76,5.92,4,6.67,6.5A7.71,7.71,0,0,0,5.26,7.7L3.2,6.57,2.83,7,4.46,8.74a7.66,7.66,0,0,0-1,2.22l-2.89.28,0,.59,2.69.43a7.76,7.76,0,0,0,.07,1.91L.89,15.53l.22.58,2.53-.67a7.67,7.67,0,0,0,.91,1.8L2.77,19.47l.32.33,2.27-1.55c.14.15.29.3.44.43a7.74,7.74,0,0,0,1.35,1l-.72,2.66.47.18,1.44-2.3a7.7,7.7,0,0,0,1.89.42l.5,2.48.58,0,.22-2.42a7.74,7.74,0,0,0,1.79-.35l1.33,1.85.46-.23-.57-2.13a7.68,7.68,0,0,0,1.9-1.42l2.15,1.11.31-.38-1.61-1.74a7.67,7.67,0,0,0,1-2l1.93.43.17-.48-1.84-1a7.75,7.75,0,0,0,.11-1.71l2.14-.25,0-.56-2.34-.5A7.7,7.7,0,0,0,18,9.71L20,8.52l-.22-.58-2.51.63a7.7,7.7,0,0,0-.88-1.07Zm-1,9.26a6.09,6.09,0,1,1-4-7.64A6.09,6.09,0,0,1,16.67,14.87Z"/><path class="cls-2" d="M10.72,23.64a.57.57,0,0,1-.55-.45l-.42-2.07a8.29,8.29,0,0,1-1.17-.25l-1.2,1.93a.57.57,0,0,1-.68.23l-.47-.18a.56.56,0,0,1-.34-.68l.61-2.25a8.24,8.24,0,0,1-1.06-.8L5.29,19,3.41,20.27a.56.56,0,0,1-.72-.07l-.32-.33a.57.57,0,0,1,0-.74l1.52-1.91a8.26,8.26,0,0,1-.56-1.09l-2,.54a.57.57,0,0,1-.67-.34l-.22-.58A.56.56,0,0,1,.62,15l2.1-1.17a8.31,8.31,0,0,1,0-1.13L.47,12.39A.56.56,0,0,1,0,11.81l0-.59a.56.56,0,0,1,.51-.54L3,10.44a8.2,8.2,0,0,1,.71-1.62L2.42,7.42a.57.57,0,0,1,0-.74l.37-.46a.57.57,0,0,1,.71-.14L5.15,7A8.34,8.34,0,0,1,6,6.27L5.38,4.14a.57.57,0,0,1,.29-.67l.44-.22a.57.57,0,0,1,.72.18L8,5.17A8.34,8.34,0,0,1,9,4.88l.17-2.09a.56.56,0,0,1,.52-.52l.5,0a.57.57,0,0,1,.59.43l.49,2a8.35,8.35,0,0,1,1.27.14l1-1.78a.56.56,0,0,1,.75-.22l.43.22a.57.57,0,0,1,.29.61l-.37,1.89a8.3,8.3,0,0,1,.8.46l1.62-1.13a.57.57,0,0,1,.73.08l.29.31a.57.57,0,0,1,.06.7l-1,1.52q.21.24.4.49l2.14-.53a.56.56,0,0,1,.66.35l.22.58a.56.56,0,0,1-.25.69L18.68,10a8.39,8.39,0,0,1,.26.82l2,.43a.56.56,0,0,1,.45.57l0,.56a.56.56,0,0,1-.5.54l-1.63.19a8.44,8.44,0,0,1-.07.9l1.49.8a.56.56,0,0,1,.26.69l-.17.48a.57.57,0,0,1-.65.36L18.64,16A8.25,8.25,0,0,1,18,17.27l1.31,1.41a.57.57,0,0,1,0,.74L19,19.8a.56.56,0,0,1-.7.15L16.53,19a8.23,8.23,0,0,1-1.35,1l.46,1.71a.57.57,0,0,1-.29.65l-.46.23a.57.57,0,0,1-.71-.18l-1.09-1.52a8.36,8.36,0,0,1-1,.21l-.18,2a.57.57,0,0,1-.52.51l-.58,0Zm-2.39-4a.56.56,0,0,1,.19,0,7.15,7.15,0,0,0,1.75.39.57.57,0,0,1,.5.45l.13.66.05-.59a.56.56,0,0,1,.52-.51,7.2,7.2,0,0,0,1.66-.33.56.56,0,0,1,.63.21l.35.48L14,19.9a.56.56,0,0,1,.28-.65A7.12,7.12,0,0,0,16,17.94a.56.56,0,0,1,.66-.11l.55.28-.38-.41a.56.56,0,0,1,0-.71,7.1,7.1,0,0,0,.93-1.86.56.56,0,0,1,.5-.39.56.56,0,0,1-.26-.58,7.19,7.19,0,0,0,.11-1.59.56.56,0,0,1,.5-.59l.44-.05-.68-.14a.56.56,0,0,1-.43-.43,7.17,7.17,0,0,0-.47-1.43.56.56,0,0,1,.24-.73l.48-.28-.72.18a.57.57,0,0,1-.6-.23,7.14,7.14,0,0,0-.82-1A.57.57,0,0,1,16,7.19l.25-.37-.43.3a.56.56,0,0,1-.65,0,7.15,7.15,0,0,0-1.34-.76.57.57,0,0,1-.33-.63l.1-.5-.28.48a.57.57,0,0,1-.62.26,7.26,7.26,0,0,0-1.85-.2h0a.57.57,0,0,1-.55-.43l-.14-.56,0,.6a.56.56,0,0,1-.46.51A7.16,7.16,0,0,0,8,6.38a.57.57,0,0,1-.69-.2L7,5.7l.19.64A.56.56,0,0,1,7,7,7.18,7.18,0,0,0,5.67,8.08.57.57,0,0,1,5,8.19l-.57-.31.45.47a.57.57,0,0,1,.06.7A7.09,7.09,0,0,0,4,11.11a.56.56,0,0,1-.49.42l-.82.08.64.1a.56.56,0,0,1,.47.61,7.2,7.2,0,0,0,.06,1.77.56.56,0,0,1-.28.58L2.92,15l.58-.15a.56.56,0,0,1,.68.36A7.11,7.11,0,0,0,5,16.93a.57.57,0,0,1,0,.67l-.4.5L5,17.79a.56.56,0,0,1,.73.08c.14.15.27.28.41.4a7.21,7.21,0,0,0,1.25.89.56.56,0,0,1,.27.64l-.16.6.32-.51A.56.56,0,0,1,8.33,19.62Zm2.54.08a6.66,6.66,0,1,1,3.06-.75A6.67,6.67,0,0,1,10.87,19.69Zm0-12.18a5.52,5.52,0,1,0,1.66.26A5.53,5.53,0,0,0,10.87,7.51Z"/><path class="cls-3" d="M5.62,16.14A6.09,6.09,0,1,0,7.78,7.8,6.09,6.09,0,0,0,5.62,16.14ZM13,11.76a2.53,2.53,0,1,1-3.46-.89A2.53,2.53,0,0,1,13,11.76Z"/><path class="cls-4" d="M9.1,14.09"/><circle class="cls-2" cx="10.67" cy="12.79" r="6.75"/><path class="cls-5" d="M10.67,20.11A7.32,7.32,0,1,1,18,12.79,7.32,7.32,0,0,1,10.67,20.11Zm0-13.5a6.19,6.19,0,1,0,6.19,6.19A6.19,6.19,0,0,0,10.67,6.61Z"/><circle cx="10.44" cy="12.71" r="2.44"/><path class="cls-6" d="M20.47,17.64l.06-.73-1.39-.11a4.37,4.37,0,0,0-.19-.93l1.25-.45-.26-.69-1.28.46a4.41,4.41,0,0,0-.66-.93l1-1-.53-.52-1,1a4.4,4.4,0,0,0-.85-.52l.56-1.33-.69-.28L15.9,13a4.4,4.4,0,0,0-1-.15l-.06-1.32-.75,0,.06,1.33a4.37,4.37,0,0,0-1.32.42L11.73,12l-.58.47,1,1.18a4.42,4.42,0,0,0-.79.75L10,13.72l-.34.65,1.32.67a4.37,4.37,0,0,0-.43,1.07L8.9,16l-.06.73,1.54.12c0,.12,0,.23,0,.35a4.41,4.41,0,0,0,.1.94L9,18.66l.26.69,1.43-.51a4.39,4.39,0,0,0,.53,1l-1,1,.53.52,1-1a4.42,4.42,0,0,0,.83.64L12,22.18l.69.28.48-1.14a4.38,4.38,0,0,0,1.32.28L14.57,23l.75,0-.06-1.34a4.37,4.37,0,0,0,1.24-.33l.42,1,.57-.22L17,21a4.42,4.42,0,0,0,.78-.6l.78.93.58-.47-.87-1a4.39,4.39,0,0,0,.47-.8l1.2.61.34-.65L19,18.32a4.39,4.39,0,0,0,.13-.78Zm-5.82,3.06a3.47,3.47,0,1,1,3.49-3.45A3.47,3.47,0,0,1,14.66,20.71Z"/><path class="cls-6" d="M14.8,11.51l.06,1.32a4.4,4.4,0,0,1,1,.15l.57-1.36.69.28-.56,1.33a4.39,4.39,0,0,1,.85.52l1-1,.53.52-1,1a4.41,4.41,0,0,1,.66.93l1.28-.46.26.69-1.25.45a4.37,4.37,0,0,1,.19.93l1.39.11-.06.73-1.33-.11a4.39,4.39,0,0,1-.13.78l1.31.66-.34.65L18.78,19a4.39,4.39,0,0,1-.47.8l.87,1-.58.47-.78-.93A4.42,4.42,0,0,1,17,21l.45,1.09-.57.22-.42-1a4.37,4.37,0,0,1-1.24.33l.06,1.34-.75,0-.06-1.35a4.38,4.38,0,0,1-1.32-.28l-.48,1.14L12,22.18l.5-1.18a4.42,4.42,0,0,1-.83-.64l-1,1-.53-.52,1-1a4.39,4.39,0,0,1-.53-1l-1.43.51L9,18.66l1.47-.53a4.41,4.41,0,0,1-.1-.94c0-.12,0-.24,0-.35l-1.54-.12L8.9,16l1.61.13A4.37,4.37,0,0,1,10.93,15l-1.32-.67.34-.65,1.4.71a4.42,4.42,0,0,1,.79-.75l-1-1.18.58-.47,1.06,1.25a4.37,4.37,0,0,1,1.32-.42L14,11.54l.75,0m-.11,9.2a3.47,3.47,0,0,0,0-6.94h0a3.47,3.47,0,0,0,0,6.94h0m.11-9.43h0l-.75,0a.23.23,0,0,0-.22.24l.05,1.14a4.59,4.59,0,0,0-1,.33l-.95-1.12a.23.23,0,0,0-.31,0l-.58.47a.23.23,0,0,0,0,.32l.84,1a4.64,4.64,0,0,0-.52.5l-1.24-.63-.1,0a.23.23,0,0,0-.2.12l-.34.65a.23.23,0,0,0,.1.31l1.12.57a4.62,4.62,0,0,0-.29.73l-1.42-.11h0a.23.23,0,0,0-.22.21l-.06.73a.23.23,0,0,0,.21.24l1.32.1s0,.09,0,.14a4.61,4.61,0,0,0,.06.79l-1.29.46a.23.23,0,0,0-.14.29l.26.69a.23.23,0,0,0,.21.15h.08l1.23-.44a4.63,4.63,0,0,0,.36.65l-.89.86A.23.23,0,0,0,10,21l.53.52a.23.23,0,0,0,.32,0l.83-.8a4.66,4.66,0,0,0,.54.41l-.42,1a.23.23,0,0,0,.12.3l.69.28.08,0a.23.23,0,0,0,.21-.14l.4-.94a4.6,4.6,0,0,0,1,.21L14.34,23a.23.23,0,0,0,.23.22h0l.75,0a.23.23,0,0,0,.22-.24l-.05-1.13a4.6,4.6,0,0,0,.88-.23l.34.83a.23.23,0,0,0,.21.14l.08,0,.57-.22a.23.23,0,0,0,.13-.3l-.38-.92a4.68,4.68,0,0,0,.47-.36l.63.75a.23.23,0,0,0,.31,0l.58-.47a.23.23,0,0,0,0-.32l-.76-.89a4.66,4.66,0,0,0,.29-.48l1,.51.1,0a.23.23,0,0,0,.2-.12l.34-.65a.23.23,0,0,0-.1-.31l-1.15-.58c0-.14.05-.28.07-.41l1.11.09h0a.23.23,0,0,0,.22-.21l.06-.73a.23.23,0,0,0-.21-.24l-1.21-.1a4.62,4.62,0,0,0-.12-.58l1.05-.38a.23.23,0,0,0,.14-.29l-.26-.69a.23.23,0,0,0-.21-.15h-.08l-1.1.39a4.64,4.64,0,0,0-.45-.64l.85-.82a.23.23,0,0,0,0-.32l-.53-.52a.23.23,0,0,0-.32,0l-.88.85a4.64,4.64,0,0,0-.54-.33L17.38,12a.23.23,0,0,0-.12-.3l-.69-.28-.08,0a.23.23,0,0,0-.21.14l-.5,1.18a4.65,4.65,0,0,0-.69-.1L15,11.5a.23.23,0,0,0-.23-.22Zm-.11,9.2h0a3.24,3.24,0,0,1,0-6.49h0a3.24,3.24,0,0,1,0,6.49Z"/><path class="cls-7" d="M14.71,13.77a3.47,3.47,0,1,0,3.45,3.49A3.47,3.47,0,0,0,14.71,13.77Zm0,4.91a1.44,1.44,0,1,1,1.45-1.43A1.44,1.44,0,0,1,14.67,18.68Z"/><path class="cls-6" d="M14.68,20.74h0a3.5,3.5,0,0,1,0-7h0a3.5,3.5,0,0,1,0,7Zm0-6.94a3.44,3.44,0,0,0,0,6.89h0a3.44,3.44,0,0,0,0-6.89Zm0,4.91h0a1.47,1.47,0,0,1,0-2.94h0a1.47,1.47,0,0,1,0,2.94Zm0-2.88a1.41,1.41,0,0,0,0,2.82h0a1.41,1.41,0,0,0,0-2.82Z"/><path class="cls-6" d="M14.68,19.06h0a1.67,1.67,0,1,1,1.18-.48A1.66,1.66,0,0,1,14.67,19.06Zm0-2.66a1,1,0,0,0,0,2h0a1,1,0,0,0,0-2Z"/><path class="cls-1" d="M19.53,2l-.16-.18-1.11.76a4.37,4.37,0,0,0-.82-.47L17.7.75,17.46.62l-.72,1.21A4.41,4.41,0,0,0,15.6,1.7L15.27.33,15,.34l-.13,1.43a4.4,4.4,0,0,0-1,.29L13.08.85,12.83,1l.41,1.44a4.4,4.4,0,0,0-.81.68l-1.17-.65-.21.26.92,1a3,3,0,0,0-.47,1l-1.65.14,0,.34,1.53.26a6.44,6.44,0,0,0-.07,1.31L9.9,7.54l.12.33,1.45-.37a4.37,4.37,0,0,0,.51,1L11,9.8l.18.19,1.3-.87.25.25a4.41,4.41,0,0,0,.76.55L13,11.43l.26.1.83-1.31a4.39,4.39,0,0,0,1.07.25l.27,1.41h.22l.25-1.39a4.42,4.42,0,0,0,1-.19l.75,1.06.26-.13L17.66,10a4.38,4.38,0,0,0,1.09-.8L20,9.86l.18-.22-.91-1a4.37,4.37,0,0,0,.58-1.14l1.1.25.1-.27-1-.58a4.42,4.42,0,0,0,.07-1l1.22-.13,0-.32L20,5.19a4.39,4.39,0,0,0-.28-.88l1.19-.66-.12-.33-1.43.34a4.39,4.39,0,0,0-.5-.61ZM18.9,7.24a3.47,3.47,0,1,1-2.23-4.37A3.47,3.47,0,0,1,18.9,7.24Z"/><path class="cls-1" d="M15.29,12.13,15,10.68a4.62,4.62,0,0,1-.79-.18l-.83,1.31-.63-.25L13.19,10a4.61,4.61,0,0,1-.65-.49l-.13-.12-1.3.87-.45-.47,1-1.29a4.63,4.63,0,0,1-.37-.75l-1.45.37-.26-.7,1.43-.79a6.19,6.19,0,0,1,.06-1v0L9.6,5.4l0-.73,1.69-.15a2.93,2.93,0,0,1,.36-.8l-.93-1,.46-.56,1.18.66A4.63,4.63,0,0,1,13,2.32L12.56.86l.6-.3L14,1.78a4.65,4.65,0,0,1,.66-.2L14.78.13l.67,0,.33,1.39a4.65,4.65,0,0,1,.85.1L17.37.32,18,.63l-.27,1.31a4.61,4.61,0,0,1,.57.33L19.4,1.5l.42.45L19.09,3a4.65,4.65,0,0,1,.31.38L20.88,3l.26.7L20,4.4a4.67,4.67,0,0,1,.19.59l1.38.31,0,.7-1.21.13a4.69,4.69,0,0,1-.05.65l1.08.59L21.06,8,20,7.77a4.6,4.6,0,0,1-.44.85l.92,1-.42.51-1.24-.65a4.61,4.61,0,0,1-.87.64l.32,1.22-.6.3-.76-1.09a4.62,4.62,0,0,1-.74.14l-.25,1.39ZM14,10l.17.06a4.15,4.15,0,0,0,1,.23l.17,0,.19,1,.18-1h.18a4.19,4.19,0,0,0,1-.18l.16,0,.6.85-.26-1,.16-.08a4.15,4.15,0,0,0,1-.76l.12-.12.95.5-.71-.78.11-.15a4.14,4.14,0,0,0,.55-1.08l.07-.19.74.17L19.72,7l0-.16a4.2,4.2,0,0,0,.07-.93V5.73l1-.11-1.1-.25,0-.14a4.19,4.19,0,0,0-.27-.84l-.08-.19,1.07-.6-1.24.3-.09-.13a4.2,4.2,0,0,0-.47-.58l-.13-.13L19,2.29l-.8.54-.13-.09a4.15,4.15,0,0,0-.78-.45l-.17-.07.21-1-.54.9-.16,0a4.18,4.18,0,0,0-1.08-.13h-.18L15.17.87,15.07,2,14.9,2a4.17,4.17,0,0,0-.91.27l-.17.07-.63-.93.32,1.1-.14.09a4.18,4.18,0,0,0-.77.64l-.12.13-1-.57.79.85-.1.15a2.76,2.76,0,0,0-.44,1l0,.15-1.37.12,1.3.22,0,.21,0,.25a4.57,4.57,0,0,0,0,1l0,.16-1.2.66,1.27-.33.07.2a4.15,4.15,0,0,0,.48,1l.09.14-.73.91.95-.63.13.14.24.24a4.2,4.2,0,0,0,.72.53l.15.09-.32,1.14Zm1.58-.09a3.7,3.7,0,1,1,1.67-.4A3.71,3.71,0,0,1,15.61,9.87Zm0-6.95a3.25,3.25,0,1,0,3.09,4.25h0A3.25,3.25,0,0,0,15.6,2.92Z"/><path class="cls-7" d="M12.61,8A3.71,3.71,0,1,0,14,3,3.71,3.71,0,0,0,12.61,8ZM17,5.51A1.33,1.33,0,1,1,15.16,5,1.33,1.33,0,0,1,17,5.51Z"/><path class="cls-5" d="M15.84,10.11a3.94,3.94,0,0,1-3.42-2h0a3.94,3.94,0,1,1,3.42,2Zm-3-2.2a3.49,3.49,0,1,0-.35-2.65,3.49,3.49,0,0,0,.35,2.65Zm3-.18a1.57,1.57,0,0,1-.41-.05,1.56,1.56,0,1,1,1.75-2.29h0a1.56,1.56,0,0,1-1.35,2.34Zm0-2.67a1.11,1.11,0,1,0,.29,0A1.12,1.12,0,0,0,15.83,5.07Z"/><path class="cls-8" d="M14.59,6.76"/><path class="cls-9" d="M60.81,32.4a10.19,10.19,0,0,0,4.43,1.1c1.84,0,2.81-.76,2.81-1.91s-.84-1.73-3-2.49c-2.94-1-4.85-2.65-4.85-5.22,0-3,2.52-5.32,6.68-5.32a10.83,10.83,0,0,1,4.51.89l-.89,3.22a8.4,8.4,0,0,0-3.7-.84c-1.73,0-2.57.79-2.57,1.7,0,1.13,1,1.63,3.28,2.49,3.12,1.15,4.59,2.78,4.59,5.27,0,3-2.28,5.48-7.13,5.48a11.56,11.56,0,0,1-5-1.07Z"/><path class="cls-9" d="M91,27.5c0,5.79-3.51,9.31-8.68,9.31s-8.31-4-8.31-9c0-5.3,3.38-9.25,8.6-9.25C88.05,18.56,91,22.62,91,27.5Zm-12.77.24c0,3.46,1.63,5.9,4.3,5.9s4.25-2.57,4.25-6c0-3.17-1.52-5.9-4.27-5.9S78.25,24.3,78.25,27.74Z"/><path class="cls-9" d="M93.63,18.85h4V33.16h7v3.36h-11Z"/><path class="cls-9" d="M109.49,36.52l-5.66-17.67h4.38l2.15,7.47c.6,2.1,1.15,4.12,1.57,6.32H112c.45-2.12,1-4.22,1.6-6.24l2.25-7.55h4.25l-6,17.67Z"/><path class="cls-9" d="M132.51,29H126v4.19h7.26v3.28H122V18.85H132.9v3.28H126V25.8h6.5Z"/><path class="cls-9" d="M136,19.08a35.11,35.11,0,0,1,5.32-.37c2.62,0,4.46.39,5.71,1.39a4.49,4.49,0,0,1,1.63,3.7,4.69,4.69,0,0,1-3.12,4.35v.08c1.23.5,1.91,1.68,2.36,3.3.55,2,1.1,4.3,1.44,5h-4.09A22.11,22.11,0,0,1,144,32.4c-.47-2.2-1.23-2.8-2.86-2.83H140v6.95h-4Zm4,7.6h1.57c2,0,3.17-1,3.17-2.54s-1.1-2.44-2.94-2.46a10,10,0,0,0-1.81.13Z"/><path class="cls-9" d="M166.49,29.75c-.08-2.12-.16-4.69-.16-7.26h-.08c-.55,2.25-1.28,4.77-2,6.84l-2.15,6.89H159l-1.89-6.84c-.58-2.07-1.18-4.59-1.6-6.89h-.05c-.1,2.39-.18,5.11-.31,7.31l-.31,6.71h-3.7l1.13-17.67h5.32l1.73,5.9c.55,2,1.1,4.25,1.49,6.32h.08c.5-2,1.1-4.38,1.68-6.34l1.89-5.87h5.22l1,17.67h-3.91Z"/><path class="cls-9" d="M177.73,18.85V36.52h-4V18.85Z"/><path class="cls-9" d="M181.19,36.52V18.85h4.67l3.67,6.48a51.27,51.27,0,0,1,2.88,6.06h.08a65.56,65.56,0,0,1-.34-7.37V18.85h3.67V36.52h-4.19l-3.77-6.82a65.59,65.59,0,0,1-3.07-6.24l-.08,0c.1,2.33.16,4.82.16,7.71v5.32Z"/><path class="cls-9" d="M199.28,19.08a35.66,35.66,0,0,1,5.4-.37c3.36,0,5.53.6,7.24,1.89a7.82,7.82,0,0,1,3,6.66A9,9,0,0,1,212,34.42c-1.86,1.55-4.69,2.28-8.15,2.28a34.6,34.6,0,0,1-4.54-.26Zm4,14.42a7.36,7.36,0,0,0,1.39.08c3.62,0,6-2,6-6.19,0-3.67-2.12-5.61-5.56-5.61a8.3,8.3,0,0,0-1.81.16Z"/><path class="cls-9" d="M217.66,32.4a10.19,10.19,0,0,0,4.43,1.1c1.84,0,2.81-.76,2.81-1.91s-.84-1.73-3-2.49c-2.94-1-4.85-2.65-4.85-5.22,0-3,2.52-5.32,6.68-5.32a10.83,10.83,0,0,1,4.51.89l-.89,3.22a8.4,8.4,0,0,0-3.7-.84c-1.73,0-2.57.79-2.57,1.7,0,1.13,1,1.63,3.28,2.49,3.12,1.15,4.59,2.78,4.59,5.27,0,3-2.28,5.48-7.13,5.48a11.56,11.56,0,0,1-5-1.07Z"/><path class="cls-5" d="M60.22,45.51a3.25,3.25,0,0,0,1.41.35c.59,0,.89-.24.89-.61s-.27-.55-.95-.79c-.94-.33-1.55-.84-1.55-1.66s.8-1.7,2.13-1.7a3.45,3.45,0,0,1,1.44.28l-.28,1a2.68,2.68,0,0,0-1.18-.27c-.55,0-.82.25-.82.54s.32.52,1,.79c1,.37,1.46.89,1.46,1.68,0,.94-.73,1.75-2.27,1.75a3.69,3.69,0,0,1-1.6-.34Z"/><path class="cls-5" d="M71.69,43.94a2.69,2.69,0,0,1-2.77,3A2.63,2.63,0,0,1,66.27,44a2.73,2.73,0,0,1,2.74-3A2.63,2.63,0,0,1,71.69,43.94ZM67.62,44c0,1.1.52,1.88,1.37,1.88s1.35-.82,1.35-1.91S69.86,42.1,69,42.1,67.62,42.92,67.62,44Z"/><path class="cls-5" d="M74.35,41.18h1.28v4.57h2.24v1.07H74.35Z"/><path class="cls-5" d="M81.47,41.18v3.24c0,1,.37,1.46,1,1.46s1-.47,1-1.46V41.18H84.8v3.16c0,1.74-.88,2.57-2.35,2.57s-2.26-.79-2.26-2.58V41.18Z"/><path class="cls-5" d="M88.82,42.25H87.31V41.18h4.33v1.07H90.1v4.57H88.82Z"/><path class="cls-5" d="M95.43,41.18v5.64H94.15V41.18Z"/><path class="cls-5" d="M103.52,43.94a2.69,2.69,0,0,1-2.77,3A2.63,2.63,0,0,1,98.1,44a2.73,2.73,0,0,1,2.74-3A2.63,2.63,0,0,1,103.52,43.94ZM99.45,44c0,1.1.52,1.88,1.37,1.88s1.35-.82,1.35-1.91-.49-1.88-1.36-1.88S99.45,42.92,99.45,44Z"/><path class="cls-5" d="M106.19,46.82V41.18h1.49l1.17,2.07a16.34,16.34,0,0,1,.92,1.93h0a20.91,20.91,0,0,1-.11-2.35V41.18h1.17v5.64h-1.34l-1.2-2.17a20.88,20.88,0,0,1-1-2h0c0,.74.05,1.54.05,2.46v1.7Z"/><path class="cls-5" d="M113.83,45.51a3.25,3.25,0,0,0,1.41.35c.59,0,.89-.24.89-.61s-.27-.55-.95-.79c-.94-.33-1.55-.84-1.55-1.66s.8-1.7,2.13-1.7a3.45,3.45,0,0,1,1.44.28l-.28,1a2.68,2.68,0,0,0-1.18-.27c-.55,0-.82.25-.82.54s.32.52,1,.79c1,.37,1.46.89,1.46,1.68,0,.94-.73,1.75-2.27,1.75a3.69,3.69,0,0,1-1.6-.34Z"/><path class="cls-5" d="M125,45.37l-.4,1.45h-1.32L125,41.18h1.67l1.75,5.64H127l-.43-1.45Zm1.43-1-.35-1.2c-.1-.33-.2-.75-.28-1.09h0c-.08.33-.17.76-.26,1.09l-.33,1.2Z"/><path class="cls-5" d="M131,46.82V41.18h1.49l1.17,2.07a16.34,16.34,0,0,1,.92,1.93h0a20.91,20.91,0,0,1-.11-2.35V41.18h1.17v5.64H134.3l-1.2-2.17a20.88,20.88,0,0,1-1-2h0c0,.74.05,1.54.05,2.46v1.7Z"/><path class="cls-5" d="M138.57,41.26a11.38,11.38,0,0,1,1.72-.12,3.63,3.63,0,0,1,2.31.6,2.49,2.49,0,0,1,1,2.12,2.86,2.86,0,0,1-.94,2.28,4,4,0,0,1-2.6.73,11,11,0,0,1-1.45-.08Zm1.28,4.6a2.36,2.36,0,0,0,.44,0,1.75,1.75,0,0,0,1.91-2,1.62,1.62,0,0,0-1.77-1.79,2.64,2.64,0,0,0-.58.05Z"/><path class="cls-5" d="M150.5,42.25H149V41.18h4.33v1.07h-1.54v4.57H150.5Z"/><path class="cls-5" d="M159.18,44.44h-2.07v1.34h2.32v1h-3.6V41.18h3.48v1h-2.2V43.4h2.07Z"/><path class="cls-5" d="M166.27,46.66a3.63,3.63,0,0,1-1.45.24,2.68,2.68,0,0,1-3-2.82,2.87,2.87,0,0,1,3.08-3,3.32,3.32,0,0,1,1.39.25l-.26,1a2.75,2.75,0,0,0-1.07-.21,1.85,1.85,0,0,0,0,3.7,3.18,3.18,0,0,0,1.06-.18Z"/><path class="cls-5" d="M170.21,41.18v2.17h2.1V41.18h1.27v5.64h-1.27V44.46h-2.1v2.36h-1.28V41.18Z"/><path class="cls-5" d="M176.53,46.82V41.18H178l1.17,2.07a16.34,16.34,0,0,1,.92,1.93h0a20.91,20.91,0,0,1-.11-2.35V41.18h1.17v5.64h-1.34l-1.2-2.17a20.88,20.88,0,0,1-1-2h0c0,.74.05,1.54.05,2.46v1.7Z"/><path class="cls-5" d="M189.29,43.94a2.69,2.69,0,0,1-2.77,3A2.63,2.63,0,0,1,183.87,44a2.73,2.73,0,0,1,2.74-3A2.63,2.63,0,0,1,189.29,43.94Zm-4.07.08c0,1.1.52,1.88,1.37,1.88s1.35-.82,1.35-1.91-.49-1.88-1.36-1.88S185.21,42.92,185.21,44Z"/><path class="cls-5" d="M192,41.18h1.28v4.57h2.24v1.07H192Z"/><path class="cls-5" d="M202.9,43.94a2.69,2.69,0,0,1-2.77,3A2.63,2.63,0,0,1,197.48,44a2.73,2.73,0,0,1,2.74-3A2.63,2.63,0,0,1,202.9,43.94Zm-4.07.08c0,1.1.52,1.88,1.37,1.88s1.35-.82,1.35-1.91-.49-1.88-1.36-1.88S198.83,42.92,198.83,44Z"/><path class="cls-5" d="M210.27,46.56a6.3,6.3,0,0,1-1.88.32,3.14,3.14,0,0,1-2.29-.76,2.73,2.73,0,0,1-.79-2,2.91,2.91,0,0,1,3.22-2.94,3.88,3.88,0,0,1,1.56.28l-.27,1a3.12,3.12,0,0,0-1.31-.24,1.84,1.84,0,1,0,.54,3.59V44.59h-.87v-1h2.1Z"/><path class="cls-5" d="M214.38,41.18v5.64H213.1V41.18Z"/><path class="cls-5" d="M220.67,44.44h-2.07v1.34h2.32v1h-3.6V41.18h3.48v1h-2.2V43.4h2.07Z"/><path class="cls-5" d="M223.65,45.51a3.25,3.25,0,0,0,1.41.35c.59,0,.89-.24.89-.61s-.27-.55-.95-.79c-.94-.33-1.55-.84-1.55-1.66s.8-1.7,2.13-1.7a3.45,3.45,0,0,1,1.44.28l-.28,1a2.68,2.68,0,0,0-1.18-.27c-.55,0-.82.25-.82.54s.32.52,1,.79c1,.37,1.46.89,1.46,1.68,0,.94-.73,1.75-2.27,1.75a3.69,3.69,0,0,1-1.6-.34Z"/><text class="cls-10" transform="translate(61.39 9.53)">Powered by</text></g></g></svg>