<svg width="1100" height="295" viewBox="0 0 1100 295" fill="none" xmlns="http://www.w3.org/2000/svg">
<rect width="160" height="64" fill="#F3F4F6"/>
<path d="M16.3867 33.5918C16.4395 35.1797 17.7344 36.1465 19.7676 36.1465C21.8652 36.1465 23.1953 35.1094 23.1953 33.4688C23.1953 32.1797 22.457 31.4531 20.7637 31.0898L19.7383 30.873C18.7656 30.6504 18.3555 30.3574 18.3555 29.8359C18.3555 29.209 18.9414 28.793 19.8145 28.793C20.6992 28.793 21.3262 29.2266 21.3848 29.9414H23.043C23.0137 28.4121 21.7773 27.3984 19.8086 27.3984C17.9219 27.3984 16.5742 28.4297 16.5742 29.9883C16.5742 31.2246 17.3418 32.0156 18.9004 32.3496L20.002 32.5898C21.0215 32.8184 21.4258 33.123 21.4258 33.6738C21.4258 34.2949 20.7812 34.7461 19.8379 34.7461C18.9004 34.7461 18.1738 34.2891 18.0918 33.5918H16.3867ZM28.0762 36V29.0039H30.5254V27.5449H23.8633V29.0039H26.3066V36H28.0762ZM35.8926 36H37.7734L34.832 27.5449H32.752L29.8164 36H31.6328L32.2773 33.9492H35.248L35.8926 36ZM33.7422 29.1621H33.7832L34.8672 32.625H32.6582L33.7422 29.1621ZM45.7891 32.4492V31.4941H42.2266V32.7832H44.0664L44.0605 32.918C44.0254 33.9668 43.2227 34.6758 42.0684 34.6758C40.6621 34.6758 39.7715 33.5566 39.7715 31.7227C39.7715 29.9238 40.6094 28.8633 42.0039 28.8633C42.959 28.8633 43.6797 29.3906 43.9375 30.2754H45.7129C45.4609 28.5645 43.9727 27.3984 41.998 27.3984C39.5137 27.3984 37.9668 29.0391 37.9668 31.7461C37.9668 34.4941 39.5137 36.1465 42.0391 36.1465C44.3945 36.1465 45.7891 34.752 45.7891 32.4492ZM52.5625 34.5352H48.7305V32.4023H52.3457V31.043H48.7305V29.0039H52.5625V27.5449H46.9609V36H52.5625V34.5352Z" fill="#34303E"/>
<rect width="124" height="32" transform="translate(160)" fill="#F3F4F6"/>
<path d="M178.713 20H180.465V11.5449H178.707L176.521 13.0625V14.6562L178.678 13.168H178.713V20ZM187.912 20H189.793L186.852 11.5449H184.771L181.836 20H183.652L184.297 17.9492H187.268L187.912 20ZM185.762 13.1621H185.803L186.887 16.625H184.678L185.762 13.1621Z" fill="#34303E"/>
<rect width="124" height="32" transform="translate(284)" fill="#F3F4F6"/>
<path d="M302.713 20H304.465V11.5449H302.707L300.521 13.0625V14.6562L302.678 13.168H302.713V20ZM310.09 20.1465C312.164 20.1465 313.611 18.9512 313.811 17.0645H312.088C311.9 18.0664 311.145 18.6816 310.096 18.6816C308.742 18.6816 307.893 17.5684 307.893 15.7637C307.893 13.9824 308.754 12.8633 310.09 12.8633C311.121 12.8633 311.918 13.543 312.082 14.5801H313.805C313.67 12.6875 312.123 11.3984 310.09 11.3984C307.641 11.3984 306.088 13.0449 306.088 15.7695C306.088 18.5 307.629 20.1465 310.09 20.1465Z" fill="#34303E"/>
<rect width="124" height="32" transform="translate(408)" fill="#F3F4F6"/>
<path d="M424.498 14.0879V14.1172H426.139V14.0879C426.139 13.3086 426.742 12.7344 427.562 12.7344C428.348 12.7344 428.904 13.2383 428.904 13.8711C428.904 14.457 428.641 14.8848 427.785 15.7402L424.598 18.8105V20H430.744V18.5938H426.93V18.5586L428.992 16.5723C429.924 15.6465 430.627 14.8555 430.627 13.8008C430.627 12.3887 429.402 11.3574 427.621 11.3574C425.775 11.3574 424.498 12.4883 424.498 14.0879ZM437.482 20H439.363L436.422 11.5449H434.342L431.406 20H433.223L433.867 17.9492H436.838L437.482 20ZM435.332 13.1621H435.373L436.457 16.625H434.248L435.332 13.1621Z" fill="#34303E"/>
<rect width="124" height="32" transform="translate(532)" fill="#F3F4F6"/>
<path d="M548.498 14.0879V14.1172H550.139V14.0879C550.139 13.3086 550.742 12.7344 551.562 12.7344C552.348 12.7344 552.904 13.2383 552.904 13.8711C552.904 14.457 552.641 14.8848 551.785 15.7402L548.598 18.8105V20H554.744V18.5938H550.93V18.5586L552.992 16.5723C553.924 15.6465 554.627 14.8555 554.627 13.8008C554.627 12.3887 553.402 11.3574 551.621 11.3574C549.775 11.3574 548.498 12.4883 548.498 14.0879ZM559.59 20.1465C561.664 20.1465 563.111 18.9512 563.311 17.0645H561.588C561.4 18.0664 560.645 18.6816 559.596 18.6816C558.242 18.6816 557.393 17.5684 557.393 15.7637C557.393 13.9824 558.254 12.8633 559.59 12.8633C560.621 12.8633 561.418 13.543 561.582 14.5801H563.305C563.17 12.6875 561.623 11.3984 559.59 11.3984C557.141 11.3984 555.588 13.0449 555.588 15.7695C555.588 18.5 557.129 20.1465 559.59 20.1465Z" fill="#34303E"/>
<rect width="124" height="32" transform="translate(656)" fill="#F3F4F6"/>
<path d="M672.498 14.0879V14.1172H674.139V14.0879C674.139 13.3086 674.742 12.7344 675.562 12.7344C676.348 12.7344 676.904 13.2383 676.904 13.8711C676.904 14.457 676.641 14.8848 675.785 15.7402L672.598 18.8105V20H678.744V18.5938H674.93V18.5586L676.992 16.5723C677.924 15.6465 678.627 14.8555 678.627 13.8008C678.627 12.3887 677.402 11.3574 675.621 11.3574C673.775 11.3574 672.498 12.4883 672.498 14.0879ZM687.41 16.4492V15.4941H683.848V16.7832H685.688L685.682 16.918C685.646 17.9668 684.844 18.6758 683.689 18.6758C682.283 18.6758 681.393 17.5566 681.393 15.7227C681.393 13.9238 682.23 12.8633 683.625 12.8633C684.58 12.8633 685.301 13.3906 685.559 14.2754H687.334C687.082 12.5645 685.594 11.3984 683.619 11.3984C681.135 11.3984 679.588 13.0391 679.588 15.7461C679.588 18.4941 681.135 20.1465 683.66 20.1465C686.016 20.1465 687.41 18.752 687.41 16.4492Z" fill="#34303E"/>
<rect width="124" height="32" transform="translate(160 32)" fill="#F3F4F6"/>
<path d="M176.498 46.0879V46.1172H178.139V46.0879C178.139 45.3086 178.742 44.7344 179.562 44.7344C180.348 44.7344 180.904 45.2383 180.904 45.8711C180.904 46.457 180.641 46.8848 179.785 47.7402L176.598 50.8105V52H182.744V50.5938H178.93V50.5586L180.992 48.5723C181.924 47.6465 182.627 46.8555 182.627 45.8008C182.627 44.3887 181.402 43.3574 179.621 43.3574C177.775 43.3574 176.498 44.4883 176.498 46.0879Z" fill="#34303E"/>
<rect width="124" height="32" transform="translate(284 32)" fill="#F3F4F6"/>
<path d="M302.713 52H304.465V43.5449H302.707L300.521 45.0625V46.6562L302.678 45.168H302.713V52Z" fill="#34303E"/>
<rect width="124" height="32" transform="translate(408 32)" fill="#F3F4F6"/>
<path d="M428.629 52H430.311V50.4941H431.412V49.0762H430.311V43.5449H427.814C426.08 46.0996 425.16 47.582 424.422 48.9883V50.4941H428.629V52ZM425.975 49.082C426.66 47.7578 427.398 46.6035 428.629 44.7988H428.664V49.1289H425.975V49.082Z" fill="#34303E"/>
<rect width="124" height="32" transform="translate(532 32)" fill="#F3F4F6"/>
<path d="M551.85 52.1875C553.789 52.1875 555.113 50.9688 555.113 49.1758C555.113 47.5293 553.953 46.3398 552.336 46.3398C551.475 46.3398 550.801 46.6973 550.455 47.2656H550.42L550.613 44.9512H554.604V43.5449H549.225L548.809 48.4082H550.391C550.684 47.9219 551.234 47.6289 551.873 47.6289C552.787 47.6289 553.426 48.2852 553.426 49.2227C553.426 50.1426 552.787 50.7871 551.861 50.7871C551.041 50.7871 550.408 50.2949 550.309 49.5801H548.674C548.727 51.1094 550.033 52.1875 551.85 52.1875Z" fill="#34303E"/>
<rect width="124" height="32" transform="translate(656 32)" fill="#F3F4F6"/>
<path d="M676.008 52.1934C677.9 52.1934 679.254 50.9453 679.254 49.2051C679.254 47.5996 678.064 46.416 676.459 46.416C675.381 46.416 674.549 46.9668 674.209 47.793H674.174C674.133 45.8828 674.848 44.752 676.025 44.752C676.688 44.752 677.232 45.127 677.402 45.6895H679.143C678.908 44.3066 677.648 43.3516 676.037 43.3516C673.852 43.3516 672.492 45.0391 672.492 47.8398C672.492 48.9648 672.732 49.9199 673.201 50.6348C673.793 51.6426 674.795 52.1934 676.008 52.1934ZM675.99 50.7812C675.123 50.7812 674.449 50.1016 674.449 49.2402C674.449 48.3848 675.117 47.7461 675.996 47.7461C676.881 47.7461 677.531 48.3848 677.531 49.2578C677.531 50.1074 676.852 50.7812 675.99 50.7812Z" fill="#34303E"/>
<rect width="160" height="64" transform="translate(780)" fill="#F3F4F6"/>
<path d="M800.494 36V29.0039H802.943V27.5449H796.281V29.0039H798.725V36H800.494ZM807.268 27.3984C804.76 27.3984 803.189 29.0801 803.189 31.7754C803.189 34.4648 804.76 36.1465 807.268 36.1465C809.77 36.1465 811.346 34.4648 811.346 31.7754C811.346 29.0801 809.77 27.3984 807.268 27.3984ZM807.268 28.875C808.65 28.875 809.535 30 809.535 31.7754C809.535 33.5449 808.65 34.6641 807.268 34.6641C805.879 34.6641 804.994 33.5449 804.994 31.7754C804.994 30 805.885 28.875 807.268 28.875ZM815.811 36V29.0039H818.26V27.5449H811.598V29.0039H814.041V36H815.811ZM823.627 36H825.508L822.566 27.5449H820.486L817.551 36H819.367L820.012 33.9492H822.982L823.627 36ZM821.477 29.1621H821.518L822.602 32.625H820.393L821.477 29.1621ZM831.842 34.5352H828.145V27.5449H826.375V36H831.842V34.5352Z" fill="#34303E"/>
<rect width="160" height="64" transform="translate(940)" fill="#F3F4F6"/>
<path d="M956.387 33.5918C956.439 35.1797 957.734 36.1465 959.768 36.1465C961.865 36.1465 963.195 35.1094 963.195 33.4688C963.195 32.1797 962.457 31.4531 960.764 31.0898L959.738 30.873C958.766 30.6504 958.355 30.3574 958.355 29.8359C958.355 29.209 958.941 28.793 959.814 28.793C960.699 28.793 961.326 29.2266 961.385 29.9414H963.043C963.014 28.4121 961.777 27.3984 959.809 27.3984C957.922 27.3984 956.574 28.4297 956.574 29.9883C956.574 31.2246 957.342 32.0156 958.9 32.3496L960.002 32.5898C961.021 32.8184 961.426 33.123 961.426 33.6738C961.426 34.2949 960.781 34.7461 959.838 34.7461C958.9 34.7461 958.174 34.2891 958.092 33.5918H956.387ZM968.023 36.1465C970.098 36.1465 971.545 34.9512 971.744 33.0645H970.021C969.834 34.0664 969.078 34.6816 968.029 34.6816C966.676 34.6816 965.826 33.5684 965.826 31.7637C965.826 29.9824 966.688 28.8633 968.023 28.8633C969.055 28.8633 969.852 29.543 970.016 30.5801H971.738C971.604 28.6875 970.057 27.3984 968.023 27.3984C965.574 27.3984 964.021 29.0449 964.021 31.7695C964.021 34.5 965.562 36.1465 968.023 36.1465ZM976.654 27.3984C974.146 27.3984 972.576 29.0801 972.576 31.7754C972.576 34.4648 974.146 36.1465 976.654 36.1465C979.156 36.1465 980.732 34.4648 980.732 31.7754C980.732 29.0801 979.156 27.3984 976.654 27.3984ZM976.654 28.875C978.037 28.875 978.922 30 978.922 31.7754C978.922 33.5449 978.037 34.6641 976.654 34.6641C975.266 34.6641 974.381 33.5449 974.381 31.7754C974.381 30 975.271 28.875 976.654 28.875ZM983.645 28.9277H985.15C986.029 28.9277 986.58 29.4551 986.58 30.2754C986.58 31.1133 986.059 31.623 985.168 31.623H983.645V28.9277ZM983.645 32.9062H985.062L986.639 36H988.643L986.861 32.6426C987.834 32.2617 988.396 31.3242 988.396 30.2402C988.396 28.5703 987.283 27.5449 985.338 27.5449H981.875V36H983.645V32.9062ZM995.164 34.5352H991.332V32.4023H994.947V31.043H991.332V29.0039H995.164V27.5449H989.562V36H995.164V34.5352Z" fill="#34303E"/>
<rect width="1100" height="33" transform="translate(0 64)" fill="white"/>
<rect width="160" height="32" transform="translate(0 64)" fill="#FEEAEA"/>
<path d="M20.6465 85H16.8062V75.8403H20.6084C21.4421 75.8403 22.1064 76.0477 22.6016 76.4624C23.0967 76.8771 23.3442 77.4315 23.3442 78.1255C23.3442 78.6164 23.1834 79.0522 22.8618 79.4331C22.5402 79.814 22.1445 80.0425 21.6748 80.1187V80.1694C22.3011 80.2287 22.8089 80.4635 23.1982 80.874C23.5918 81.2845 23.7886 81.7923 23.7886 82.3975C23.7886 83.2057 23.5093 83.8426 22.9507 84.3081C22.3921 84.7694 21.624 85 20.6465 85ZM18.4438 77.1162V79.6997H19.9419C20.5132 79.6997 20.9533 79.5854 21.2622 79.3569C21.5711 79.1242 21.7256 78.7941 21.7256 78.3667C21.7256 77.9689 21.5923 77.6621 21.3257 77.4463C21.0633 77.2262 20.6867 77.1162 20.1958 77.1162H18.4438ZM18.4438 83.7241H20.272C20.8729 83.7241 21.3299 83.6014 21.6431 83.356C21.9604 83.1105 22.1191 82.7529 22.1191 82.2832C22.1191 81.8177 21.9562 81.4644 21.6304 81.2231C21.3088 80.9819 20.8327 80.8613 20.2021 80.8613H18.4438V83.7241ZM27.6544 83.9146C28.1072 83.9146 28.4881 83.7812 28.797 83.5146C29.1101 83.2438 29.2667 82.9074 29.2667 82.5054V81.9912L27.7115 82.0864C27.3307 82.1118 27.0344 82.207 26.8229 82.3721C26.6155 82.5329 26.5118 82.7466 26.5118 83.0132C26.5118 83.2882 26.6155 83.5083 26.8229 83.6733C27.0344 83.8341 27.3116 83.9146 27.6544 83.9146ZM27.1783 85.1079C26.5224 85.1079 25.9828 84.9196 25.5597 84.543C25.1407 84.1663 24.9312 83.6776 24.9312 83.0767C24.9312 82.48 25.1513 82.0081 25.5914 81.6611C26.0357 81.3141 26.6684 81.1152 27.4894 81.0645L29.2667 80.9629V80.4805C29.2667 80.1292 29.1546 79.8563 28.9303 79.6616C28.7102 79.467 28.4034 79.3696 28.0099 79.3696C27.6417 79.3696 27.3412 79.4521 27.1085 79.6172C26.8757 79.7822 26.734 80.0065 26.6832 80.29H25.2169C25.2507 79.651 25.5237 79.1326 26.0357 78.7349C26.552 78.3328 27.2312 78.1318 28.0733 78.1318C28.907 78.1318 29.5735 78.335 30.0729 78.7412C30.5764 79.1475 30.8282 79.6891 30.8282 80.3662V85H29.3048V83.9272H29.273C29.0826 84.2869 28.7949 84.5747 28.4098 84.7905C28.0247 85.0021 27.6142 85.1079 27.1783 85.1079ZM32.3835 80.2012C32.3835 79.5833 32.6332 79.084 33.1325 78.7031C33.6319 78.3223 34.2899 78.1318 35.1066 78.1318C35.8938 78.1318 36.5327 78.3265 37.0236 78.7158C37.5188 79.1009 37.7769 79.6045 37.798 80.2266H36.3254C36.3 79.9346 36.1773 79.7061 35.9572 79.541C35.7372 79.376 35.4431 79.2935 35.0749 79.2935C34.7279 79.2935 34.4486 79.3696 34.237 79.522C34.0254 79.6701 33.9196 79.8669 33.9196 80.1123C33.9196 80.4847 34.2412 80.7492 34.8845 80.9058L36.0842 81.1724C36.757 81.3289 37.2373 81.549 37.5251 81.8325C37.8129 82.116 37.9567 82.5075 37.9567 83.0068C37.9567 83.6416 37.6901 84.1558 37.1569 84.5493C36.6237 84.9386 35.9318 85.1333 35.0813 85.1333C34.2434 85.1333 33.5684 84.9429 33.0563 84.562C32.5485 84.1769 32.2671 83.6628 32.2121 83.0195H33.7673C33.8138 83.3285 33.9535 83.5654 34.1862 83.7305C34.4232 83.8955 34.7406 83.978 35.1384 83.978C35.5235 83.978 35.826 83.9061 36.0461 83.7622C36.2704 83.6141 36.3825 83.4152 36.3825 83.1655C36.3825 82.9709 36.3127 82.8164 36.173 82.7021C36.0376 82.5837 35.807 82.4821 35.4812 82.3975L34.2561 82.1118C33.0077 81.8198 32.3835 81.1829 32.3835 80.2012ZM39.4041 85V78.2715H40.9847V85H39.4041ZM40.8133 77.1416C40.644 77.3066 40.4367 77.3892 40.1912 77.3892C39.9458 77.3892 39.7384 77.3066 39.5691 77.1416C39.3999 76.9723 39.3152 76.7692 39.3152 76.5322C39.3152 76.291 39.3999 76.0879 39.5691 75.9229C39.7384 75.7536 39.9458 75.6689 40.1912 75.6689C40.4367 75.6689 40.644 75.7536 40.8133 75.9229C40.9868 76.0879 41.0735 76.291 41.0735 76.5322C41.0735 76.7692 40.9868 76.9723 40.8133 77.1416ZM48.64 80.6709H47.1483C47.0806 80.2943 46.9198 79.9917 46.6659 79.7632C46.412 79.5304 46.0819 79.4141 45.6757 79.4141C45.1763 79.4141 44.7785 79.613 44.4823 80.0107C44.1861 80.4043 44.038 80.946 44.038 81.6357C44.038 82.334 44.1861 82.8799 44.4823 83.2734C44.7785 83.6628 45.1806 83.8574 45.6884 83.8574C46.0862 83.8574 46.412 83.7516 46.6659 83.54C46.9198 83.3242 47.0827 83.0238 47.1547 82.6387H48.6464C48.5829 83.3919 48.2803 83.9971 47.7387 84.4541C47.2012 84.9069 46.5115 85.1333 45.6693 85.1333C44.6791 85.1333 43.892 84.8223 43.308 84.2002C42.724 83.5739 42.432 82.7191 42.432 81.6357C42.432 80.5651 42.724 79.7145 43.308 79.084C43.892 78.4492 44.6749 78.1318 45.6566 78.1318C46.5199 78.1318 47.2182 78.373 47.7514 78.8555C48.2888 79.3337 48.585 79.9388 48.64 80.6709Z" fill="#615E69"/>
<rect width="124" height="32" transform="translate(160 64)" fill="#E6F3FF"/>
<path d="M180.069 85.1841C179.125 85.1841 178.342 84.9281 177.72 84.416C177.098 83.8997 176.77 83.2354 176.736 82.4229H178.272C178.323 82.846 178.516 83.1909 178.85 83.4575C179.189 83.7241 179.599 83.8574 180.082 83.8574C180.627 83.8574 181.07 83.686 181.408 83.3433C181.751 83.0005 181.922 82.5583 181.922 82.0166C181.922 81.4665 181.751 81.0179 181.408 80.6709C181.07 80.3197 180.632 80.144 180.094 80.144C179.722 80.144 179.381 80.2244 179.072 80.3853C178.768 80.5461 178.531 80.7703 178.361 81.0581H176.876L177.352 75.8403H182.963V77.1797H178.647L178.412 79.8584H178.45C178.641 79.5622 178.916 79.3294 179.275 79.1602C179.635 78.9867 180.039 78.8999 180.488 78.8999C181.364 78.8999 182.085 79.1898 182.652 79.7695C183.219 80.3451 183.503 81.0793 183.503 81.9722C183.503 82.9243 183.183 83.6987 182.544 84.2954C181.91 84.8879 181.084 85.1841 180.069 85.1841ZM188.467 85.1841C187.35 85.1841 186.472 84.7588 185.833 83.9082C185.198 83.0534 184.88 81.8875 184.88 80.4106C184.88 78.9422 185.2 77.7827 185.839 76.9321C186.478 76.0815 187.354 75.6562 188.467 75.6562C189.58 75.6562 190.454 76.0815 191.088 76.9321C191.723 77.7785 192.041 78.9359 192.041 80.4043C192.041 81.877 191.723 83.0428 191.088 83.9019C190.454 84.7567 189.58 85.1841 188.467 85.1841ZM188.467 83.8447C189.072 83.8447 189.542 83.5422 189.876 82.937C190.215 82.3319 190.384 81.4897 190.384 80.4106C190.384 79.34 190.215 78.5042 189.876 77.9033C189.538 77.2982 189.068 76.9956 188.467 76.9956C187.866 76.9956 187.392 77.2982 187.045 77.9033C186.702 78.5085 186.531 79.3421 186.531 80.4043C186.531 81.4834 186.7 82.3276 187.039 82.937C187.381 83.5422 187.858 83.8447 188.467 83.8447ZM194.161 81.4009C194.161 80.2837 194.311 79.2702 194.612 78.3604C194.916 77.4505 195.384 76.6105 196.014 75.8403H197.436C196.971 76.382 196.579 77.1818 196.262 78.2397C195.945 79.2977 195.786 80.3493 195.786 81.3945C195.786 82.4355 195.945 83.4871 196.262 84.5493C196.579 85.6115 196.971 86.4155 197.436 86.9614H196.014C195.384 86.187 194.916 85.3449 194.612 84.4351C194.311 83.5252 194.161 82.5138 194.161 81.4009ZM202.203 85.1841C201.086 85.1841 200.208 84.7588 199.569 83.9082C198.934 83.0534 198.617 81.8875 198.617 80.4106C198.617 78.9422 198.936 77.7827 199.575 76.9321C200.214 76.0815 201.09 75.6562 202.203 75.6562C203.316 75.6562 204.19 76.0815 204.825 76.9321C205.46 77.7785 205.777 78.9359 205.777 80.4043C205.777 81.877 205.46 83.0428 204.825 83.9019C204.19 84.7567 203.316 85.1841 202.203 85.1841ZM202.203 83.8447C202.809 83.8447 203.278 83.5422 203.613 82.937C203.951 82.3319 204.12 81.4897 204.12 80.4106C204.12 79.34 203.951 78.5042 203.613 77.9033C203.274 77.2982 202.804 76.9956 202.203 76.9956C201.603 76.9956 201.129 77.2982 200.782 77.9033C200.439 78.5085 200.267 79.3421 200.267 80.4043C200.267 81.4834 200.437 82.3276 200.775 82.937C201.118 83.5422 201.594 83.8447 202.203 83.8447ZM208.183 85.0698C207.925 85.0698 207.707 84.9831 207.529 84.8096C207.356 84.6318 207.269 84.4139 207.269 84.1558C207.269 83.9019 207.356 83.686 207.529 83.5083C207.707 83.3306 207.925 83.2417 208.183 83.2417C208.437 83.2417 208.651 83.3306 208.824 83.5083C209.002 83.686 209.091 83.9019 209.091 84.1558C209.091 84.4139 209.002 84.6318 208.824 84.8096C208.651 84.9831 208.437 85.0698 208.183 85.0698ZM214.429 85.1841C213.486 85.1841 212.703 84.9281 212.081 84.416C211.458 83.8997 211.131 83.2354 211.097 82.4229H212.633C212.684 82.846 212.876 83.1909 213.21 83.4575C213.549 83.7241 213.959 83.8574 214.442 83.8574C214.988 83.8574 215.43 83.686 215.769 83.3433C216.111 83.0005 216.283 82.5583 216.283 82.0166C216.283 81.4665 216.111 81.0179 215.769 80.6709C215.43 80.3197 214.992 80.144 214.455 80.144C214.082 80.144 213.742 80.2244 213.433 80.3853C213.128 80.5461 212.891 80.7703 212.722 81.0581H211.236L211.712 75.8403H217.324V77.1797H213.007L212.772 79.8584H212.811C213.001 79.5622 213.276 79.3294 213.636 79.1602C213.995 78.9867 214.4 78.8999 214.848 78.8999C215.724 78.8999 216.446 79.1898 217.013 79.7695C217.58 80.3451 217.863 81.0793 217.863 81.9722C217.863 82.9243 217.544 83.6987 216.905 84.2954C216.27 84.8879 215.445 85.1841 214.429 85.1841ZM222.205 81.4009C222.205 82.6408 222.04 83.703 221.71 84.5874C221.38 85.4718 220.927 86.2632 220.352 86.9614H218.93C219.112 86.7456 219.294 86.4621 219.476 86.1108C219.662 85.7596 219.84 85.3491 220.009 84.8794C220.178 84.4097 220.316 83.868 220.421 83.2544C220.527 82.6408 220.58 82.0208 220.58 81.3945C220.58 80.764 220.527 80.144 220.421 79.5347C220.316 78.9211 220.178 78.3815 220.009 77.916C219.84 77.4463 219.662 77.0358 219.476 76.6846C219.294 76.3333 219.112 76.0519 218.93 75.8403H220.352C220.72 76.2889 221.031 76.7523 221.285 77.2305C221.543 77.7044 221.761 78.3053 221.939 79.0332C222.116 79.7568 222.205 80.5461 222.205 81.4009Z" fill="#615E69"/>
<rect width="124" height="32" transform="translate(284 64)" fill="#A5A3A9"/>
<rect width="124" height="32" transform="translate(408 64)" fill="#A5A3A9"/>
<rect width="124" height="32" transform="translate(532 64)" fill="#A5A3A9"/>
<rect width="124" height="32" transform="translate(656 64)" fill="#FFF8DD"/>
<path d="M676.132 85.1841C675.015 85.1841 674.137 84.7588 673.498 83.9082C672.863 83.0534 672.546 81.8875 672.546 80.4106C672.546 78.9422 672.865 77.7827 673.504 76.9321C674.143 76.0815 675.019 75.6562 676.132 75.6562C677.245 75.6562 678.119 76.0815 678.754 76.9321C679.389 77.7785 679.706 78.9359 679.706 80.4043C679.706 81.877 679.389 83.0428 678.754 83.9019C678.119 84.7567 677.245 85.1841 676.132 85.1841ZM676.132 83.8447C676.737 83.8447 677.207 83.5422 677.542 82.937C677.88 82.3319 678.049 81.4897 678.049 80.4106C678.049 79.34 677.88 78.5042 677.542 77.9033C677.203 77.2982 676.733 76.9956 676.132 76.9956C675.531 76.9956 675.057 77.2982 674.71 77.9033C674.368 78.5085 674.196 79.3421 674.196 80.4043C674.196 81.4834 674.366 82.3276 674.704 82.937C675.047 83.5422 675.523 83.8447 676.132 83.8447ZM681.826 81.4009C681.826 80.2837 681.976 79.2702 682.277 78.3604C682.582 77.4505 683.049 76.6105 683.68 75.8403H685.102C684.636 76.382 684.245 77.1818 683.927 78.2397C683.61 79.2977 683.451 80.3493 683.451 81.3945C683.451 82.4355 683.61 83.4871 683.927 84.5493C684.245 85.6115 684.636 86.4155 685.102 86.9614H683.68C683.049 86.187 682.582 85.3449 682.277 84.4351C681.976 83.5252 681.826 82.5138 681.826 81.4009ZM689.869 85.1841C688.752 85.1841 687.874 84.7588 687.235 83.9082C686.6 83.0534 686.282 81.8875 686.282 80.4106C686.282 78.9422 686.602 77.7827 687.241 76.9321C687.88 76.0815 688.756 75.6562 689.869 75.6562C690.982 75.6562 691.856 76.0815 692.49 76.9321C693.125 77.7785 693.443 78.9359 693.443 80.4043C693.443 81.877 693.125 83.0428 692.49 83.9019C691.856 84.7567 690.982 85.1841 689.869 85.1841ZM689.869 83.8447C690.474 83.8447 690.944 83.5422 691.278 82.937C691.617 82.3319 691.786 81.4897 691.786 80.4106C691.786 79.34 691.617 78.5042 691.278 77.9033C690.939 77.2982 690.47 76.9956 689.869 76.9956C689.268 76.9956 688.794 77.2982 688.447 77.9033C688.104 78.5085 687.933 79.3421 687.933 80.4043C687.933 81.4834 688.102 82.3276 688.441 82.937C688.783 83.5422 689.259 83.8447 689.869 83.8447ZM697.899 81.4009C697.899 82.6408 697.734 83.703 697.404 84.5874C697.074 85.4718 696.621 86.2632 696.045 86.9614H694.623C694.805 86.7456 694.987 86.4621 695.169 86.1108C695.355 85.7596 695.533 85.3491 695.702 84.8794C695.872 84.4097 696.009 83.868 696.115 83.2544C696.221 82.6408 696.274 82.0208 696.274 81.3945C696.274 80.764 696.221 80.144 696.115 79.5347C696.009 78.9211 695.872 78.3815 695.702 77.916C695.533 77.4463 695.355 77.0358 695.169 76.6846C694.987 76.3333 694.805 76.0519 694.623 75.8403H696.045C696.413 76.2889 696.724 76.7523 696.978 77.2305C697.236 77.7044 697.454 78.3053 697.632 79.0332C697.81 79.7568 697.899 80.5461 697.899 81.4009Z" fill="#615E69"/>
<path d="M800.132 85.1841C799.015 85.1841 798.137 84.7588 797.498 83.9082C796.863 83.0534 796.546 81.8875 796.546 80.4106C796.546 78.9422 796.865 77.7827 797.504 76.9321C798.143 76.0815 799.019 75.6562 800.132 75.6562C801.245 75.6562 802.119 76.0815 802.754 76.9321C803.389 77.7785 803.706 78.9359 803.706 80.4043C803.706 81.877 803.389 83.0428 802.754 83.9019C802.119 84.7567 801.245 85.1841 800.132 85.1841ZM800.132 83.8447C800.737 83.8447 801.207 83.5422 801.542 82.937C801.88 82.3319 802.049 81.4897 802.049 80.4106C802.049 79.34 801.88 78.5042 801.542 77.9033C801.203 77.2982 800.733 76.9956 800.132 76.9956C799.531 76.9956 799.057 77.2982 798.71 77.9033C798.368 78.5085 798.196 79.3421 798.196 80.4043C798.196 81.4834 798.366 82.3276 798.704 82.937C799.047 83.5422 799.523 83.8447 800.132 83.8447ZM806.112 85.0698C805.854 85.0698 805.636 84.9831 805.458 84.8096C805.285 84.6318 805.198 84.4139 805.198 84.1558C805.198 83.9019 805.285 83.686 805.458 83.5083C805.636 83.3306 805.854 83.2417 806.112 83.2417C806.366 83.2417 806.58 83.3306 806.753 83.5083C806.931 83.686 807.02 83.9019 807.02 84.1558C807.02 84.4139 806.931 84.6318 806.753 84.8096C806.58 84.9831 806.366 85.0698 806.112 85.0698ZM812.358 85.1841C811.414 85.1841 810.632 84.9281 810.009 84.416C809.387 83.8997 809.059 83.2354 809.026 82.4229H810.562C810.613 82.846 810.805 83.1909 811.139 83.4575C811.478 83.7241 811.888 83.8574 812.371 83.8574C812.917 83.8574 813.359 83.686 813.697 83.3433C814.04 83.0005 814.212 82.5583 814.212 82.0166C814.212 81.4665 814.04 81.0179 813.697 80.6709C813.359 80.3197 812.921 80.144 812.383 80.144C812.011 80.144 811.67 80.2244 811.362 80.3853C811.057 80.5461 810.82 80.7703 810.651 81.0581H809.165L809.641 75.8403H815.253V77.1797H810.936L810.701 79.8584H810.739C810.93 79.5622 811.205 79.3294 811.565 79.1602C811.924 78.9867 812.328 78.8999 812.777 78.8999C813.653 78.8999 814.375 79.1898 814.942 79.7695C815.509 80.3451 815.792 81.0793 815.792 81.9722C815.792 82.9243 815.473 83.6987 814.834 84.2954C814.199 84.8879 813.374 85.1841 812.358 85.1841ZM818.058 86.9614H816.624L819.874 75.8403H821.308L818.058 86.9614ZM822.299 78.5571C822.299 77.7108 822.603 77.0168 823.213 76.4751C823.822 75.9292 824.601 75.6562 825.549 75.6562C826.459 75.6562 827.208 75.9038 827.796 76.3989C828.388 76.894 828.684 77.514 828.684 78.2588C828.684 78.7708 828.541 79.2554 828.253 79.7124C827.969 80.1652 827.497 80.7238 826.837 81.3882L824.571 83.6289V83.6606H828.824V85H822.388V83.8955L825.758 80.5439C826.279 80.0107 826.63 79.5939 826.812 79.2935C826.994 78.993 827.085 78.6714 827.085 78.3286C827.085 77.9478 826.933 77.6261 826.628 77.3638C826.327 77.1014 825.951 76.9702 825.498 76.9702C825.02 76.9702 824.622 77.1204 824.305 77.4209C823.991 77.7214 823.835 78.098 823.835 78.5508V78.5762H822.299V78.5571Z" fill="#615E69"/>
<rect width="160" height="32" transform="translate(940 64)" fill="#E9FDF8"/>
<path d="M956.59 78.5571C956.59 77.7108 956.895 77.0168 957.504 76.4751C958.114 75.9292 958.892 75.6562 959.84 75.6562C960.75 75.6562 961.499 75.9038 962.087 76.3989C962.68 76.894 962.976 77.514 962.976 78.2588C962.976 78.7708 962.832 79.2554 962.544 79.7124C962.261 80.1652 961.789 80.7238 961.129 81.3882L958.863 83.6289V83.6606H963.116V85H956.679V83.8955L960.05 80.5439C960.57 80.0107 960.922 79.5939 961.104 79.2935C961.285 78.993 961.376 78.6714 961.376 78.3286C961.376 77.9478 961.224 77.6261 960.919 77.3638C960.619 77.1014 960.242 76.9702 959.79 76.9702C959.311 76.9702 958.914 77.1204 958.596 77.4209C958.283 77.7214 958.126 78.098 958.126 78.5508V78.5762H956.59V78.5571ZM968.137 85.1841C967.193 85.1841 966.41 84.9281 965.788 84.416C965.166 83.8997 964.838 83.2354 964.804 82.4229H966.34C966.391 82.846 966.584 83.1909 966.918 83.4575C967.257 83.7241 967.667 83.8574 968.15 83.8574C968.695 83.8574 969.138 83.686 969.476 83.3433C969.819 83.0005 969.99 82.5583 969.99 82.0166C969.99 81.4665 969.819 81.0179 969.476 80.6709C969.138 80.3197 968.7 80.144 968.162 80.144C967.79 80.144 967.449 80.2244 967.14 80.3853C966.836 80.5461 966.599 80.7703 966.429 81.0581H964.944L965.42 75.8403H971.031V77.1797H966.715L966.48 79.8584H966.518C966.709 79.5622 966.984 79.3294 967.343 79.1602C967.703 78.9867 968.107 78.8999 968.556 78.8999C969.432 78.8999 970.153 79.1898 970.72 79.7695C971.287 80.3451 971.571 81.0793 971.571 81.9722C971.571 82.9243 971.251 83.6987 970.612 84.2954C969.978 84.8879 969.152 85.1841 968.137 85.1841ZM976.205 76.3228C976.573 76.7417 976.757 77.3088 976.757 78.0239C976.757 78.7391 976.573 79.3083 976.205 79.7314C975.837 80.1546 975.344 80.3662 974.726 80.3662C974.108 80.3662 973.615 80.1546 973.247 79.7314C972.883 79.3083 972.701 78.7391 972.701 78.0239C972.701 77.3088 972.883 76.7417 973.247 76.3228C973.615 75.8996 974.108 75.688 974.726 75.688C975.344 75.688 975.837 75.8996 976.205 76.3228ZM974.726 79.3696C974.963 79.3696 975.147 79.2511 975.278 79.0142C975.413 78.7729 975.481 78.4429 975.481 78.0239C975.481 77.6007 975.413 77.2707 975.278 77.0337C975.147 76.7925 974.963 76.6719 974.726 76.6719C974.493 76.6719 974.309 76.7925 974.174 77.0337C974.042 77.2707 973.977 77.6007 973.977 78.0239C973.977 78.4429 974.042 78.7729 974.174 79.0142C974.309 79.2511 974.493 79.3696 974.726 79.3696ZM974.853 85H973.469L977.017 80.144L980.166 75.8403H981.537L978.084 80.5693L974.853 85ZM981.759 81.0708C982.127 81.494 982.311 82.0632 982.311 82.7783C982.311 83.4935 982.127 84.0627 981.759 84.4858C981.391 84.9048 980.898 85.1143 980.28 85.1143C979.662 85.1143 979.169 84.9048 978.801 84.4858C978.437 84.0627 978.255 83.4935 978.255 82.7783C978.255 82.0632 978.437 81.494 978.801 81.0708C979.169 80.6476 979.662 80.436 980.28 80.436C980.898 80.436 981.391 80.6476 981.759 81.0708ZM979.728 83.7622C979.863 84.0034 980.047 84.124 980.28 84.124C980.513 84.124 980.697 84.0034 980.832 83.7622C980.968 83.521 981.035 83.1909 981.035 82.772C981.035 82.353 980.968 82.0229 980.832 81.7817C980.697 81.5405 980.513 81.4199 980.28 81.4199C980.047 81.4199 979.863 81.5405 979.728 81.7817C979.597 82.0229 979.531 82.353 979.531 82.772C979.531 83.1909 979.597 83.521 979.728 83.7622Z" fill="#615E69"/>
<rect width="1100" height="1" transform="translate(0 96)" fill="#E8E8EA"/>
<rect width="1100" height="33" transform="translate(0 97)" fill="white"/>
<path d="M180.069 118.184C179.125 118.184 178.342 117.928 177.72 117.416C177.098 116.9 176.77 116.235 176.736 115.423H178.272C178.323 115.846 178.516 116.191 178.85 116.458C179.189 116.724 179.599 116.857 180.082 116.857C180.627 116.857 181.07 116.686 181.408 116.343C181.751 116 181.922 115.558 181.922 115.017C181.922 114.466 181.751 114.018 181.408 113.671C181.07 113.32 180.632 113.144 180.094 113.144C179.722 113.144 179.381 113.224 179.072 113.385C178.768 113.546 178.531 113.77 178.361 114.058H176.876L177.352 108.84H182.963V110.18H178.647L178.412 112.858H178.45C178.641 112.562 178.916 112.329 179.275 112.16C179.635 111.987 180.039 111.9 180.488 111.9C181.364 111.9 182.085 112.19 182.652 112.77C183.219 113.345 183.503 114.079 183.503 114.972C183.503 115.924 183.183 116.699 182.544 117.295C181.91 117.888 181.084 118.184 180.069 118.184ZM188.467 118.184C187.35 118.184 186.472 117.759 185.833 116.908C185.198 116.053 184.88 114.888 184.88 113.411C184.88 111.942 185.2 110.783 185.839 109.932C186.478 109.082 187.354 108.656 188.467 108.656C189.58 108.656 190.454 109.082 191.088 109.932C191.723 110.778 192.041 111.936 192.041 113.404C192.041 114.877 191.723 116.043 191.088 116.902C190.454 117.757 189.58 118.184 188.467 118.184ZM188.467 116.845C189.072 116.845 189.542 116.542 189.876 115.937C190.215 115.332 190.384 114.49 190.384 113.411C190.384 112.34 190.215 111.504 189.876 110.903C189.538 110.298 189.068 109.996 188.467 109.996C187.866 109.996 187.392 110.298 187.045 110.903C186.702 111.508 186.531 112.342 186.531 113.404C186.531 114.483 186.7 115.328 187.039 115.937C187.381 116.542 187.858 116.845 188.467 116.845Z" fill="#615E69"/>
<path d="M302.99 118V110.402H302.952L300.584 112.065V110.522L302.977 108.84H304.596V118H302.99ZM310.601 118.184C309.483 118.184 308.605 117.759 307.966 116.908C307.332 116.053 307.014 114.888 307.014 113.411C307.014 111.942 307.334 110.783 307.973 109.932C308.612 109.082 309.488 108.656 310.601 108.656C311.714 108.656 312.588 109.082 313.222 109.932C313.857 110.778 314.174 111.936 314.174 113.404C314.174 114.877 313.857 116.043 313.222 116.902C312.588 117.757 311.714 118.184 310.601 118.184ZM310.601 116.845C311.206 116.845 311.676 116.542 312.01 115.937C312.348 115.332 312.518 114.49 312.518 113.411C312.518 112.34 312.348 111.504 312.01 110.903C311.671 110.298 311.202 109.996 310.601 109.996C310 109.996 309.526 110.298 309.179 110.903C308.836 111.508 308.665 112.342 308.665 113.404C308.665 114.483 308.834 115.328 309.172 115.937C309.515 116.542 309.991 116.845 310.601 116.845ZM319.253 118.184C318.135 118.184 317.257 117.759 316.618 116.908C315.984 116.053 315.666 114.888 315.666 113.411C315.666 111.942 315.986 110.783 316.625 109.932C317.264 109.082 318.14 108.656 319.253 108.656C320.366 108.656 321.239 109.082 321.874 109.932C322.509 110.778 322.826 111.936 322.826 113.404C322.826 114.877 322.509 116.043 321.874 116.902C321.239 117.757 320.366 118.184 319.253 118.184ZM319.253 116.845C319.858 116.845 320.328 116.542 320.662 115.937C321 115.332 321.17 114.49 321.17 113.411C321.17 112.34 321 111.504 320.662 110.903C320.323 110.298 319.854 109.996 319.253 109.996C318.652 109.996 318.178 110.298 317.831 110.903C317.488 111.508 317.317 112.342 317.317 113.404C317.317 114.483 317.486 115.328 317.824 115.937C318.167 116.542 318.643 116.845 319.253 116.845Z" fill="#615E69"/>
<path d="M426.99 118V110.402H426.952L424.584 112.065V110.522L426.977 108.84H428.596V118H426.99ZM434.601 118.184C433.483 118.184 432.605 117.759 431.966 116.908C431.332 116.053 431.014 114.888 431.014 113.411C431.014 111.942 431.334 110.783 431.973 109.932C432.612 109.082 433.488 108.656 434.601 108.656C435.714 108.656 436.588 109.082 437.222 109.932C437.857 110.778 438.174 111.936 438.174 113.404C438.174 114.877 437.857 116.043 437.222 116.902C436.588 117.757 435.714 118.184 434.601 118.184ZM434.601 116.845C435.206 116.845 435.676 116.542 436.01 115.937C436.348 115.332 436.518 114.49 436.518 113.411C436.518 112.34 436.348 111.504 436.01 110.903C435.671 110.298 435.202 109.996 434.601 109.996C434 109.996 433.526 110.298 433.179 110.903C432.836 111.508 432.665 112.342 432.665 113.404C432.665 114.483 432.834 115.328 433.172 115.937C433.515 116.542 433.991 116.845 434.601 116.845ZM443.253 118.184C442.135 118.184 441.257 117.759 440.618 116.908C439.984 116.053 439.666 114.888 439.666 113.411C439.666 111.942 439.986 110.783 440.625 109.932C441.264 109.082 442.14 108.656 443.253 108.656C444.366 108.656 445.239 109.082 445.874 109.932C446.509 110.778 446.826 111.936 446.826 113.404C446.826 114.877 446.509 116.043 445.874 116.902C445.239 117.757 444.366 118.184 443.253 118.184ZM443.253 116.845C443.858 116.845 444.328 116.542 444.662 115.937C445 115.332 445.17 114.49 445.17 113.411C445.17 112.34 445 111.504 444.662 110.903C444.323 110.298 443.854 109.996 443.253 109.996C442.652 109.996 442.178 110.298 441.831 110.903C441.488 111.508 441.317 112.342 441.317 113.404C441.317 114.483 441.486 115.328 441.824 115.937C442.167 116.542 442.643 116.845 443.253 116.845Z" fill="#615E69"/>
<path d="M550.99 118V110.402H550.952L548.584 112.065V110.522L550.977 108.84H552.596V118H550.99ZM558.601 118.184C557.483 118.184 556.605 117.759 555.966 116.908C555.332 116.053 555.014 114.888 555.014 113.411C555.014 111.942 555.334 110.783 555.973 109.932C556.612 109.082 557.488 108.656 558.601 108.656C559.714 108.656 560.588 109.082 561.222 109.932C561.857 110.778 562.174 111.936 562.174 113.404C562.174 114.877 561.857 116.043 561.222 116.902C560.588 117.757 559.714 118.184 558.601 118.184ZM558.601 116.845C559.206 116.845 559.676 116.542 560.01 115.937C560.348 115.332 560.518 114.49 560.518 113.411C560.518 112.34 560.348 111.504 560.01 110.903C559.671 110.298 559.202 109.996 558.601 109.996C558 109.996 557.526 110.298 557.179 110.903C556.836 111.508 556.665 112.342 556.665 113.404C556.665 114.483 556.834 115.328 557.172 115.937C557.515 116.542 557.991 116.845 558.601 116.845ZM567.253 118.184C566.135 118.184 565.257 117.759 564.618 116.908C563.984 116.053 563.666 114.888 563.666 113.411C563.666 111.942 563.986 110.783 564.625 109.932C565.264 109.082 566.14 108.656 567.253 108.656C568.366 108.656 569.239 109.082 569.874 109.932C570.509 110.778 570.826 111.936 570.826 113.404C570.826 114.877 570.509 116.043 569.874 116.902C569.239 117.757 568.366 118.184 567.253 118.184ZM567.253 116.845C567.858 116.845 568.328 116.542 568.662 115.937C569 115.332 569.17 114.49 569.17 113.411C569.17 112.34 569 111.504 568.662 110.903C568.323 110.298 567.854 109.996 567.253 109.996C566.652 109.996 566.178 110.298 565.831 110.903C565.488 111.508 565.317 112.342 565.317 113.404C565.317 114.483 565.486 115.328 565.824 115.937C566.167 116.542 566.643 116.845 567.253 116.845Z" fill="#615E69"/>
<path d="M676.132 118.184C675.015 118.184 674.137 117.759 673.498 116.908C672.863 116.053 672.546 114.888 672.546 113.411C672.546 111.942 672.865 110.783 673.504 109.932C674.143 109.082 675.019 108.656 676.132 108.656C677.245 108.656 678.119 109.082 678.754 109.932C679.389 110.778 679.706 111.936 679.706 113.404C679.706 114.877 679.389 116.043 678.754 116.902C678.119 117.757 677.245 118.184 676.132 118.184ZM676.132 116.845C676.737 116.845 677.207 116.542 677.542 115.937C677.88 115.332 678.049 114.49 678.049 113.411C678.049 112.34 677.88 111.504 677.542 110.903C677.203 110.298 676.733 109.996 676.132 109.996C675.531 109.996 675.057 110.298 674.71 110.903C674.368 111.508 674.196 112.342 674.196 113.404C674.196 114.483 674.366 115.328 674.704 115.937C675.047 116.542 675.523 116.845 676.132 116.845Z" fill="#615E69"/>
<rect width="160" height="32" transform="translate(780 97)" fill="#FEEAEA"/>
<path d="M800.132 118.184C799.015 118.184 798.137 117.759 797.498 116.908C796.863 116.053 796.546 114.888 796.546 113.411C796.546 111.942 796.865 110.783 797.504 109.932C798.143 109.082 799.019 108.656 800.132 108.656C801.245 108.656 802.119 109.082 802.754 109.932C803.389 110.778 803.706 111.936 803.706 113.404C803.706 114.877 803.389 116.043 802.754 116.902C802.119 117.757 801.245 118.184 800.132 118.184ZM800.132 116.845C800.737 116.845 801.207 116.542 801.542 115.937C801.88 115.332 802.049 114.49 802.049 113.411C802.049 112.34 801.88 111.504 801.542 110.903C801.203 110.298 800.733 109.996 800.132 109.996C799.531 109.996 799.057 110.298 798.71 110.903C798.368 111.508 798.196 112.342 798.196 113.404C798.196 114.483 798.366 115.328 798.704 115.937C799.047 116.542 799.523 116.845 800.132 116.845ZM806.112 118.07C805.854 118.07 805.636 117.983 805.458 117.81C805.285 117.632 805.198 117.414 805.198 117.156C805.198 116.902 805.285 116.686 805.458 116.508C805.636 116.331 805.854 116.242 806.112 116.242C806.366 116.242 806.58 116.331 806.753 116.508C806.931 116.686 807.02 116.902 807.02 117.156C807.02 117.414 806.931 117.632 806.753 117.81C806.58 117.983 806.366 118.07 806.112 118.07ZM812.358 118.184C811.414 118.184 810.632 117.928 810.009 117.416C809.387 116.9 809.059 116.235 809.026 115.423H810.562C810.613 115.846 810.805 116.191 811.139 116.458C811.478 116.724 811.888 116.857 812.371 116.857C812.917 116.857 813.359 116.686 813.697 116.343C814.04 116 814.212 115.558 814.212 115.017C814.212 114.466 814.04 114.018 813.697 113.671C813.359 113.32 812.921 113.144 812.383 113.144C812.011 113.144 811.67 113.224 811.362 113.385C811.057 113.546 810.82 113.77 810.651 114.058H809.165L809.641 108.84H815.253V110.18H810.936L810.701 112.858H810.739C810.93 112.562 811.205 112.329 811.565 112.16C811.924 111.987 812.328 111.9 812.777 111.9C813.653 111.9 814.375 112.19 814.942 112.77C815.509 113.345 815.792 114.079 815.792 114.972C815.792 115.924 815.473 116.699 814.834 117.295C814.199 117.888 813.374 118.184 812.358 118.184ZM818.058 119.961H816.624L819.874 108.84H821.308L818.058 119.961ZM822.299 111.557C822.299 110.711 822.603 110.017 823.213 109.475C823.822 108.929 824.601 108.656 825.549 108.656C826.459 108.656 827.208 108.904 827.796 109.399C828.388 109.894 828.684 110.514 828.684 111.259C828.684 111.771 828.541 112.255 828.253 112.712C827.969 113.165 827.497 113.724 826.837 114.388L824.571 116.629V116.661H828.824V118H822.388V116.896L825.758 113.544C826.279 113.011 826.63 112.594 826.812 112.293C826.994 111.993 827.085 111.671 827.085 111.329C827.085 110.948 826.933 110.626 826.628 110.364C826.327 110.101 825.951 109.97 825.498 109.97C825.02 109.97 824.622 110.12 824.305 110.421C823.991 110.721 823.835 111.098 823.835 111.551V111.576H822.299V111.557Z" fill="#615E69"/>
<rect width="1100" height="1" transform="translate(0 129)" fill="#E8E8EA"/>
<rect width="1100" height="33" transform="translate(0 130)" fill="white"/>
<rect width="160" height="32" transform="translate(0 130)" fill="#FEEAEA"/>
<path d="M18.4438 151H16.8062V141.84H18.4438V151ZM20.2975 151V144.271H21.8146V145.427H21.8463C22.0325 145.021 22.3033 144.705 22.6588 144.481C23.0185 144.257 23.4522 144.145 23.9601 144.145C24.6964 144.145 25.2677 144.367 25.6739 144.811C26.0844 145.255 26.2896 145.869 26.2896 146.652V151H24.7091V146.969C24.7091 146.487 24.5948 146.119 24.3663 145.865C24.142 145.611 23.8077 145.484 23.3634 145.484C22.9106 145.484 22.5488 145.632 22.2779 145.928C22.0113 146.224 21.878 146.616 21.878 147.103V151H20.2975ZM28.3972 142.697H29.9777V144.271H31.2473V145.49H29.9777V148.988C29.9777 149.263 30.0433 149.466 30.1745 149.597C30.3057 149.728 30.5109 149.794 30.7902 149.794C30.9764 149.794 31.1267 149.783 31.2409 149.762V150.968C31.0505 151.011 30.7775 151.032 30.4221 151.032C29.6942 151.032 29.1737 150.892 28.8605 150.613C28.5516 150.333 28.3972 149.866 28.3972 149.21V145.49H27.4323V144.271H28.3972V142.697ZM35.5003 145.357C35.0602 145.357 34.692 145.509 34.3958 145.814C34.1038 146.114 33.9409 146.502 33.907 146.976H37.0491C37.0322 146.497 36.882 146.108 36.5984 145.808C36.3149 145.507 35.9489 145.357 35.5003 145.357ZM37.0555 148.988H38.5345C38.4329 149.627 38.1092 150.145 37.5633 150.543C37.0174 150.937 36.3488 151.133 35.5574 151.133C34.5503 151.133 33.7589 150.824 33.1834 150.207C32.6079 149.584 32.3201 148.736 32.3201 147.661C32.3201 146.595 32.6058 145.74 33.1771 145.097C33.7526 144.453 34.5249 144.132 35.4939 144.132C36.4461 144.132 37.2015 144.439 37.7601 145.052C38.3187 145.662 38.5979 146.478 38.5979 147.502V148.017H33.8943V148.112C33.8943 148.653 34.0467 149.089 34.3514 149.419C34.6603 149.75 35.0729 149.915 35.5892 149.915C35.9531 149.915 36.2662 149.832 36.5286 149.667C36.7952 149.498 36.9708 149.271 37.0555 148.988ZM40.0199 151V144.271H41.537V145.446H41.5688C41.683 145.035 41.8798 144.718 42.1591 144.494C42.4426 144.269 42.7833 144.157 43.1811 144.157C43.3207 144.157 43.4857 144.178 43.6762 144.221V145.649C43.5196 145.59 43.3059 145.56 43.0351 145.56C42.5865 145.56 42.2353 145.695 41.9813 145.966C41.7274 146.237 41.6005 146.61 41.6005 147.083V151H40.0199Z" fill="#615E69"/>
<rect width="124" height="32" transform="translate(160 130)" fill="#A5A3A9"/>
<rect width="124" height="32" transform="translate(284 130)" fill="#FFF8DD"/>
<path d="M304.132 151.184C303.015 151.184 302.137 150.759 301.498 149.908C300.863 149.053 300.546 147.888 300.546 146.411C300.546 144.942 300.865 143.783 301.504 142.932C302.143 142.082 303.019 141.656 304.132 141.656C305.245 141.656 306.119 142.082 306.754 142.932C307.389 143.778 307.706 144.936 307.706 146.404C307.706 147.877 307.389 149.043 306.754 149.902C306.119 150.757 305.245 151.184 304.132 151.184ZM304.132 149.845C304.737 149.845 305.207 149.542 305.542 148.937C305.88 148.332 306.049 147.49 306.049 146.411C306.049 145.34 305.88 144.504 305.542 143.903C305.203 143.298 304.733 142.996 304.132 142.996C303.531 142.996 303.057 143.298 302.71 143.903C302.368 144.508 302.196 145.342 302.196 146.404C302.196 147.483 302.366 148.328 302.704 148.937C303.047 149.542 303.523 149.845 304.132 149.845ZM309.826 147.401C309.826 146.284 309.976 145.27 310.277 144.36C310.582 143.451 311.049 142.611 311.68 141.84H313.102C312.636 142.382 312.245 143.182 311.927 144.24C311.61 145.298 311.451 146.349 311.451 147.395C311.451 148.436 311.61 149.487 311.927 150.549C312.245 151.611 312.636 152.416 313.102 152.961H311.68C311.049 152.187 310.582 151.345 310.277 150.435C309.976 149.525 309.826 148.514 309.826 147.401ZM317.869 151.184C316.752 151.184 315.874 150.759 315.235 149.908C314.6 149.053 314.282 147.888 314.282 146.411C314.282 144.942 314.602 143.783 315.241 142.932C315.88 142.082 316.756 141.656 317.869 141.656C318.982 141.656 319.856 142.082 320.49 142.932C321.125 143.778 321.443 144.936 321.443 146.404C321.443 147.877 321.125 149.043 320.49 149.902C319.856 150.757 318.982 151.184 317.869 151.184ZM317.869 149.845C318.474 149.845 318.944 149.542 319.278 148.937C319.617 148.332 319.786 147.49 319.786 146.411C319.786 145.34 319.617 144.504 319.278 143.903C318.939 143.298 318.47 142.996 317.869 142.996C317.268 142.996 316.794 143.298 316.447 143.903C316.104 144.508 315.933 145.342 315.933 146.404C315.933 147.483 316.102 148.328 316.441 148.937C316.783 149.542 317.259 149.845 317.869 149.845ZM325.899 147.401C325.899 148.641 325.734 149.703 325.404 150.587C325.074 151.472 324.621 152.263 324.045 152.961H322.623C322.805 152.746 322.987 152.462 323.169 152.111C323.355 151.76 323.533 151.349 323.702 150.879C323.872 150.41 324.009 149.868 324.115 149.254C324.221 148.641 324.274 148.021 324.274 147.395C324.274 146.764 324.221 146.144 324.115 145.535C324.009 144.921 323.872 144.382 323.702 143.916C323.533 143.446 323.355 143.036 323.169 142.685C322.987 142.333 322.805 142.052 322.623 141.84H324.045C324.413 142.289 324.724 142.752 324.978 143.23C325.236 143.704 325.454 144.305 325.632 145.033C325.81 145.757 325.899 146.546 325.899 147.401Z" fill="#615E69"/>
<rect width="124" height="32" transform="translate(408 130)" fill="#A5A3A9"/>
<rect width="124" height="32" transform="translate(532 130)" fill="#FFF8DD"/>
<path d="M552.132 151.184C551.015 151.184 550.137 150.759 549.498 149.908C548.863 149.053 548.546 147.888 548.546 146.411C548.546 144.942 548.865 143.783 549.504 142.932C550.143 142.082 551.019 141.656 552.132 141.656C553.245 141.656 554.119 142.082 554.754 142.932C555.389 143.778 555.706 144.936 555.706 146.404C555.706 147.877 555.389 149.043 554.754 149.902C554.119 150.757 553.245 151.184 552.132 151.184ZM552.132 149.845C552.737 149.845 553.207 149.542 553.542 148.937C553.88 148.332 554.049 147.49 554.049 146.411C554.049 145.34 553.88 144.504 553.542 143.903C553.203 143.298 552.733 142.996 552.132 142.996C551.531 142.996 551.057 143.298 550.71 143.903C550.368 144.508 550.196 145.342 550.196 146.404C550.196 147.483 550.366 148.328 550.704 148.937C551.047 149.542 551.523 149.845 552.132 149.845ZM557.826 147.401C557.826 146.284 557.976 145.27 558.277 144.36C558.582 143.451 559.049 142.611 559.68 141.84H561.102C560.636 142.382 560.245 143.182 559.927 144.24C559.61 145.298 559.451 146.349 559.451 147.395C559.451 148.436 559.61 149.487 559.927 150.549C560.245 151.611 560.636 152.416 561.102 152.961H559.68C559.049 152.187 558.582 151.345 558.277 150.435C557.976 149.525 557.826 148.514 557.826 147.401ZM565.869 151.184C564.752 151.184 563.874 150.759 563.235 149.908C562.6 149.053 562.282 147.888 562.282 146.411C562.282 144.942 562.602 143.783 563.241 142.932C563.88 142.082 564.756 141.656 565.869 141.656C566.982 141.656 567.856 142.082 568.49 142.932C569.125 143.778 569.443 144.936 569.443 146.404C569.443 147.877 569.125 149.043 568.49 149.902C567.856 150.757 566.982 151.184 565.869 151.184ZM565.869 149.845C566.474 149.845 566.944 149.542 567.278 148.937C567.617 148.332 567.786 147.49 567.786 146.411C567.786 145.34 567.617 144.504 567.278 143.903C566.939 143.298 566.47 142.996 565.869 142.996C565.268 142.996 564.794 143.298 564.447 143.903C564.104 144.508 563.933 145.342 563.933 146.404C563.933 147.483 564.102 148.328 564.441 148.937C564.783 149.542 565.259 149.845 565.869 149.845ZM573.899 147.401C573.899 148.641 573.734 149.703 573.404 150.587C573.074 151.472 572.621 152.263 572.045 152.961H570.623C570.805 152.746 570.987 152.462 571.169 152.111C571.355 151.76 571.533 151.349 571.702 150.879C571.872 150.41 572.009 149.868 572.115 149.254C572.221 148.641 572.274 148.021 572.274 147.395C572.274 146.764 572.221 146.144 572.115 145.535C572.009 144.921 571.872 144.382 571.702 143.916C571.533 143.446 571.355 143.036 571.169 142.685C570.987 142.333 570.805 142.052 570.623 141.84H572.045C572.413 142.289 572.724 142.752 572.978 143.23C573.236 143.704 573.454 144.305 573.632 145.033C573.81 145.757 573.899 146.546 573.899 147.401Z" fill="#615E69"/>
<rect width="124" height="32" transform="translate(656 130)" fill="#A5A3A9"/>
<path d="M800.132 151.184C799.015 151.184 798.137 150.759 797.498 149.908C796.863 149.053 796.546 147.888 796.546 146.411C796.546 144.942 796.865 143.783 797.504 142.932C798.143 142.082 799.019 141.656 800.132 141.656C801.245 141.656 802.119 142.082 802.754 142.932C803.389 143.778 803.706 144.936 803.706 146.404C803.706 147.877 803.389 149.043 802.754 149.902C802.119 150.757 801.245 151.184 800.132 151.184ZM800.132 149.845C800.737 149.845 801.207 149.542 801.542 148.937C801.88 148.332 802.049 147.49 802.049 146.411C802.049 145.34 801.88 144.504 801.542 143.903C801.203 143.298 800.733 142.996 800.132 142.996C799.531 142.996 799.057 143.298 798.71 143.903C798.368 144.508 798.196 145.342 798.196 146.404C798.196 147.483 798.366 148.328 798.704 148.937C799.047 149.542 799.523 149.845 800.132 149.845ZM806.112 151.07C805.854 151.07 805.636 150.983 805.458 150.81C805.285 150.632 805.198 150.414 805.198 150.156C805.198 149.902 805.285 149.686 805.458 149.508C805.636 149.331 805.854 149.242 806.112 149.242C806.366 149.242 806.58 149.331 806.753 149.508C806.931 149.686 807.02 149.902 807.02 150.156C807.02 150.414 806.931 150.632 806.753 150.81C806.58 150.983 806.366 151.07 806.112 151.07ZM812.269 151.184C811.152 151.184 810.274 150.759 809.635 149.908C809 149.053 808.683 147.888 808.683 146.411C808.683 144.942 809.002 143.783 809.641 142.932C810.28 142.082 811.156 141.656 812.269 141.656C813.382 141.656 814.256 142.082 814.891 142.932C815.526 143.778 815.843 144.936 815.843 146.404C815.843 147.877 815.526 149.043 814.891 149.902C814.256 150.757 813.382 151.184 812.269 151.184ZM812.269 149.845C812.874 149.845 813.344 149.542 813.678 148.937C814.017 148.332 814.186 147.49 814.186 146.411C814.186 145.34 814.017 144.504 813.678 143.903C813.34 143.298 812.87 142.996 812.269 142.996C811.668 142.996 811.194 143.298 810.847 143.903C810.505 144.508 810.333 145.342 810.333 146.404C810.333 147.483 810.502 148.328 810.841 148.937C811.184 149.542 811.66 149.845 812.269 149.845ZM818.223 152.961H816.789L820.039 141.84H821.473L818.223 152.961ZM822.464 144.557C822.464 143.711 822.768 143.017 823.378 142.475C823.987 141.929 824.766 141.656 825.714 141.656C826.624 141.656 827.373 141.904 827.961 142.399C828.553 142.894 828.85 143.514 828.85 144.259C828.85 144.771 828.706 145.255 828.418 145.712C828.134 146.165 827.663 146.724 827.002 147.388L824.736 149.629V149.661H828.989V151H822.553V149.896L825.923 146.544C826.444 146.011 826.795 145.594 826.977 145.293C827.159 144.993 827.25 144.671 827.25 144.329C827.25 143.948 827.098 143.626 826.793 143.364C826.492 143.101 826.116 142.97 825.663 142.97C825.185 142.97 824.787 143.12 824.47 143.421C824.156 143.721 824 144.098 824 144.551V144.576H822.464V144.557Z" fill="#615E69"/>
<rect width="160" height="32" transform="translate(940 130)" fill="#E9FDF8"/>
<path d="M960.132 151.184C959.015 151.184 958.137 150.759 957.498 149.908C956.863 149.053 956.546 147.888 956.546 146.411C956.546 144.942 956.865 143.783 957.504 142.932C958.143 142.082 959.019 141.656 960.132 141.656C961.245 141.656 962.119 142.082 962.754 142.932C963.389 143.778 963.706 144.936 963.706 146.404C963.706 147.877 963.389 149.043 962.754 149.902C962.119 150.757 961.245 151.184 960.132 151.184ZM960.132 149.845C960.737 149.845 961.207 149.542 961.542 148.937C961.88 148.332 962.049 147.49 962.049 146.411C962.049 145.34 961.88 144.504 961.542 143.903C961.203 143.298 960.733 142.996 960.132 142.996C959.531 142.996 959.057 143.298 958.71 143.903C958.368 144.508 958.196 145.342 958.196 146.404C958.196 147.483 958.366 148.328 958.704 148.937C959.047 149.542 959.523 149.845 960.132 149.845ZM968.454 142.323C968.822 142.742 969.006 143.309 969.006 144.024C969.006 144.739 968.822 145.308 968.454 145.731C968.086 146.155 967.593 146.366 966.975 146.366C966.357 146.366 965.864 146.155 965.496 145.731C965.132 145.308 964.95 144.739 964.95 144.024C964.95 143.309 965.132 142.742 965.496 142.323C965.864 141.9 966.357 141.688 966.975 141.688C967.593 141.688 968.086 141.9 968.454 142.323ZM966.975 145.37C967.212 145.37 967.396 145.251 967.527 145.014C967.663 144.773 967.731 144.443 967.731 144.024C967.731 143.601 967.663 143.271 967.527 143.034C967.396 142.792 967.212 142.672 966.975 142.672C966.742 142.672 966.558 142.792 966.423 143.034C966.292 143.271 966.226 143.601 966.226 144.024C966.226 144.443 966.292 144.773 966.423 145.014C966.558 145.251 966.742 145.37 966.975 145.37ZM967.102 151H965.718L969.267 146.144L972.415 141.84H973.786L970.333 146.569L967.102 151ZM974.008 147.071C974.377 147.494 974.561 148.063 974.561 148.778C974.561 149.493 974.377 150.063 974.008 150.486C973.64 150.905 973.147 151.114 972.529 151.114C971.912 151.114 971.419 150.905 971.05 150.486C970.686 150.063 970.504 149.493 970.504 148.778C970.504 148.063 970.686 147.494 971.05 147.071C971.419 146.648 971.912 146.436 972.529 146.436C973.147 146.436 973.64 146.648 974.008 147.071ZM971.977 149.762C972.113 150.003 972.297 150.124 972.529 150.124C972.762 150.124 972.946 150.003 973.082 149.762C973.217 149.521 973.285 149.191 973.285 148.772C973.285 148.353 973.217 148.023 973.082 147.782C972.946 147.541 972.762 147.42 972.529 147.42C972.297 147.42 972.113 147.541 971.977 147.782C971.846 148.023 971.78 148.353 971.78 148.772C971.78 149.191 971.846 149.521 971.977 149.762Z" fill="#615E69"/>
<rect width="1100" height="1" transform="translate(0 162)" fill="#E8E8EA"/>
<rect width="1100" height="33" transform="translate(0 163)" fill="white"/>
<path d="M178.99 184V176.402H178.952L176.584 178.065V176.522L178.977 174.84H180.596V184H178.99Z" fill="#615E69"/>
<path d="M302.99 184V176.402H302.952L300.584 178.065V176.522L302.977 174.84H304.596V184H302.99ZM310.537 184.184C309.594 184.184 308.811 183.928 308.189 183.416C307.567 182.9 307.239 182.235 307.205 181.423H308.741C308.792 181.846 308.984 182.191 309.318 182.458C309.657 182.724 310.067 182.857 310.55 182.857C311.096 182.857 311.538 182.686 311.877 182.343C312.219 182 312.391 181.558 312.391 181.017C312.391 180.466 312.219 180.018 311.877 179.671C311.538 179.32 311.1 179.144 310.563 179.144C310.19 179.144 309.85 179.224 309.541 179.385C309.236 179.546 308.999 179.77 308.83 180.058H307.344L307.82 174.84H313.432V176.18H309.115L308.88 178.858H308.919C309.109 178.562 309.384 178.329 309.744 178.16C310.103 177.987 310.508 177.9 310.956 177.9C311.832 177.9 312.554 178.19 313.121 178.77C313.688 179.345 313.971 180.079 313.971 180.972C313.971 181.924 313.652 182.699 313.013 183.295C312.378 183.888 311.553 184.184 310.537 184.184ZM315.393 177.557C315.393 176.711 315.698 176.017 316.307 175.475C316.917 174.929 317.695 174.656 318.643 174.656C319.553 174.656 320.302 174.904 320.89 175.399C321.483 175.894 321.779 176.514 321.779 177.259C321.779 177.771 321.635 178.255 321.347 178.712C321.064 179.165 320.592 179.724 319.932 180.388L317.666 182.629V182.661H321.919V184H315.482V182.896L318.853 179.544C319.373 179.011 319.724 178.594 319.906 178.293C320.088 177.993 320.179 177.671 320.179 177.329C320.179 176.948 320.027 176.626 319.722 176.364C319.422 176.101 319.045 175.97 318.592 175.97C318.114 175.97 317.717 176.12 317.399 176.421C317.086 176.721 316.929 177.098 316.929 177.551V177.576H315.393V177.557ZM327.695 184V182.267H323.125V180.858C323.878 179.436 325.145 177.43 326.927 174.84H329.257V180.928H330.488V182.267H329.257V184H327.695ZM324.61 180.921V180.966H327.721V176.053H327.695C326.921 177.174 326.301 178.101 325.835 178.833C325.37 179.565 324.961 180.261 324.61 180.921Z" fill="#615E69"/>
<path d="M426.99 184V176.402H426.952L424.584 178.065V176.522L426.977 174.84H428.596V184H426.99Z" fill="#615E69"/>
<path d="M550.99 184V176.402H550.952L548.584 178.065V176.522L550.977 174.84H552.596V184H550.99Z" fill="#615E69"/>
<path d="M674.99 184V176.402H674.952L672.584 178.065V176.522L674.977 174.84H676.596V184H674.99Z" fill="#615E69"/>
<rect width="160" height="32" transform="translate(780 163)" fill="#FEEAEA"/>
<path d="M800.132 184.184C799.015 184.184 798.137 183.759 797.498 182.908C796.863 182.053 796.546 180.888 796.546 179.411C796.546 177.942 796.865 176.783 797.504 175.932C798.143 175.082 799.019 174.656 800.132 174.656C801.245 174.656 802.119 175.082 802.754 175.932C803.389 176.778 803.706 177.936 803.706 179.404C803.706 180.877 803.389 182.043 802.754 182.902C802.119 183.757 801.245 184.184 800.132 184.184ZM800.132 182.845C800.737 182.845 801.207 182.542 801.542 181.937C801.88 181.332 802.049 180.49 802.049 179.411C802.049 178.34 801.88 177.504 801.542 176.903C801.203 176.298 800.733 175.996 800.132 175.996C799.531 175.996 799.057 176.298 798.71 176.903C798.368 177.508 798.196 178.342 798.196 179.404C798.196 180.483 798.366 181.328 798.704 181.937C799.047 182.542 799.523 182.845 800.132 182.845ZM806.112 184.07C805.854 184.07 805.636 183.983 805.458 183.81C805.285 183.632 805.198 183.414 805.198 183.156C805.198 182.902 805.285 182.686 805.458 182.508C805.636 182.331 805.854 182.242 806.112 182.242C806.366 182.242 806.58 182.331 806.753 182.508C806.931 182.686 807.02 182.902 807.02 183.156C807.02 183.414 806.931 183.632 806.753 183.81C806.58 183.983 806.366 184.07 806.112 184.07ZM812.269 184.184C811.152 184.184 810.274 183.759 809.635 182.908C809 182.053 808.683 180.888 808.683 179.411C808.683 177.942 809.002 176.783 809.641 175.932C810.28 175.082 811.156 174.656 812.269 174.656C813.382 174.656 814.256 175.082 814.891 175.932C815.526 176.778 815.843 177.936 815.843 179.404C815.843 180.877 815.526 182.043 814.891 182.902C814.256 183.757 813.382 184.184 812.269 184.184ZM812.269 182.845C812.874 182.845 813.344 182.542 813.678 181.937C814.017 181.332 814.186 180.49 814.186 179.411C814.186 178.34 814.017 177.504 813.678 176.903C813.34 176.298 812.87 175.996 812.269 175.996C811.668 175.996 811.194 176.298 810.847 176.903C810.505 177.508 810.333 178.342 810.333 179.404C810.333 180.483 810.502 181.328 810.841 181.937C811.184 182.542 811.66 182.845 812.269 182.845ZM818.223 185.961H816.789L820.039 174.84H821.473L818.223 185.961ZM822.464 177.557C822.464 176.711 822.768 176.017 823.378 175.475C823.987 174.929 824.766 174.656 825.714 174.656C826.624 174.656 827.373 174.904 827.961 175.399C828.553 175.894 828.85 176.514 828.85 177.259C828.85 177.771 828.706 178.255 828.418 178.712C828.134 179.165 827.663 179.724 827.002 180.388L824.736 182.629V182.661H828.989V184H822.553V182.896L825.923 179.544C826.444 179.011 826.795 178.594 826.977 178.293C827.159 177.993 827.25 177.671 827.25 177.329C827.25 176.948 827.098 176.626 826.793 176.364C826.492 176.101 826.116 175.97 825.663 175.97C825.185 175.97 824.787 176.12 824.47 176.421C824.156 176.721 824 177.098 824 177.551V177.576H822.464V177.557Z" fill="#615E69"/>
<rect width="1100" height="1" transform="translate(0 195)" fill="#E8E8EA"/>
<rect width="1100" height="33" transform="translate(0 196)" fill="white"/>
<rect width="160" height="32" transform="translate(0 196)" fill="#FEEAEA"/>
<path d="M22.792 217L22.0112 214.632H18.6406L17.8599 217H16.1714L19.4214 207.84H21.2686L24.5186 217H22.792ZM20.3037 209.459L19.0215 213.369H21.624L20.3481 209.459H20.3037ZM28.0416 217.108C27.191 217.108 26.5118 216.795 26.004 216.168C25.5004 215.542 25.2486 214.696 25.2486 213.629C25.2486 212.567 25.5004 211.723 26.004 211.097C26.5118 210.47 27.191 210.157 28.0416 210.157C28.5156 210.157 28.9345 210.269 29.2984 210.494C29.6666 210.718 29.9417 211.021 30.1236 211.401H30.1617V207.84H31.7423V217H30.1935V215.851H30.1681C29.9819 216.236 29.7005 216.543 29.3238 216.771C28.9514 216.996 28.524 217.108 28.0416 217.108ZM28.5177 211.458C28.0099 211.458 27.6078 211.655 27.3116 212.049C27.0154 212.438 26.8673 212.967 26.8673 213.636C26.8673 214.309 27.0133 214.84 27.3053 215.229C27.6015 215.618 28.0056 215.813 28.5177 215.813C29.017 215.813 29.4169 215.616 29.7174 215.223C30.0178 214.829 30.1681 214.3 30.1681 213.636C30.1681 212.976 30.0178 212.449 29.7174 212.055C29.4169 211.657 29.017 211.458 28.5177 211.458ZM39.3913 210.271L37.0236 217H35.2844L32.8977 210.271H34.5861L36.1477 215.534H36.1794L37.7409 210.271H39.3913Z" fill="#615E69"/>
<rect width="124" height="32" transform="translate(160 196)" fill="#A5A3A9"/>
<rect width="124" height="32" transform="translate(284 196)" fill="#A5A3A9"/>
<path d="M428.132 217.184C427.015 217.184 426.137 216.759 425.498 215.908C424.863 215.053 424.546 213.888 424.546 212.411C424.546 210.942 424.865 209.783 425.504 208.932C426.143 208.082 427.019 207.656 428.132 207.656C429.245 207.656 430.119 208.082 430.754 208.932C431.389 209.778 431.706 210.936 431.706 212.404C431.706 213.877 431.389 215.043 430.754 215.902C430.119 216.757 429.245 217.184 428.132 217.184ZM428.132 215.845C428.737 215.845 429.207 215.542 429.542 214.937C429.88 214.332 430.049 213.49 430.049 212.411C430.049 211.34 429.88 210.504 429.542 209.903C429.203 209.298 428.733 208.996 428.132 208.996C427.531 208.996 427.057 209.298 426.71 209.903C426.368 210.508 426.196 211.342 426.196 212.404C426.196 213.483 426.366 214.328 426.704 214.937C427.047 215.542 427.523 215.845 428.132 215.845ZM433.826 213.401C433.826 212.284 433.976 211.27 434.277 210.36C434.582 209.451 435.049 208.611 435.68 207.84H437.102C436.636 208.382 436.245 209.182 435.927 210.24C435.61 211.298 435.451 212.349 435.451 213.395C435.451 214.436 435.61 215.487 435.927 216.549C436.245 217.611 436.636 218.416 437.102 218.961H435.68C435.049 218.187 434.582 217.345 434.277 216.435C433.976 215.525 433.826 214.514 433.826 213.401ZM441.869 217.184C440.752 217.184 439.874 216.759 439.235 215.908C438.6 215.053 438.282 213.888 438.282 212.411C438.282 210.942 438.602 209.783 439.241 208.932C439.88 208.082 440.756 207.656 441.869 207.656C442.982 207.656 443.856 208.082 444.49 208.932C445.125 209.778 445.443 210.936 445.443 212.404C445.443 213.877 445.125 215.043 444.49 215.902C443.856 216.757 442.982 217.184 441.869 217.184ZM441.869 215.845C442.474 215.845 442.944 215.542 443.278 214.937C443.617 214.332 443.786 213.49 443.786 212.411C443.786 211.34 443.617 210.504 443.278 209.903C442.939 209.298 442.47 208.996 441.869 208.996C441.268 208.996 440.794 209.298 440.447 209.903C440.104 210.508 439.933 211.342 439.933 212.404C439.933 213.483 440.102 214.328 440.441 214.937C440.783 215.542 441.259 215.845 441.869 215.845ZM449.899 213.401C449.899 214.641 449.734 215.703 449.404 216.587C449.074 217.472 448.621 218.263 448.045 218.961H446.623C446.805 218.746 446.987 218.462 447.169 218.111C447.355 217.76 447.533 217.349 447.702 216.879C447.872 216.41 448.009 215.868 448.115 215.254C448.221 214.641 448.274 214.021 448.274 213.395C448.274 212.764 448.221 212.144 448.115 211.535C448.009 210.921 447.872 210.382 447.702 209.916C447.533 209.446 447.355 209.036 447.169 208.685C446.987 208.333 446.805 208.052 446.623 207.84H448.045C448.413 208.289 448.724 208.752 448.978 209.23C449.236 209.704 449.454 210.305 449.632 211.033C449.81 211.757 449.899 212.546 449.899 213.401Z" fill="#615E69"/>
<rect width="124" height="32" transform="translate(532 196)" fill="#A5A3A9"/>
<rect width="124" height="32" transform="translate(656 196)" fill="#A5A3A9"/>
<path d="M800.132 217.184C799.015 217.184 798.137 216.759 797.498 215.908C796.863 215.053 796.546 213.888 796.546 212.411C796.546 210.942 796.865 209.783 797.504 208.932C798.143 208.082 799.019 207.656 800.132 207.656C801.245 207.656 802.119 208.082 802.754 208.932C803.389 209.778 803.706 210.936 803.706 212.404C803.706 213.877 803.389 215.043 802.754 215.902C802.119 216.757 801.245 217.184 800.132 217.184ZM800.132 215.845C800.737 215.845 801.207 215.542 801.542 214.937C801.88 214.332 802.049 213.49 802.049 212.411C802.049 211.34 801.88 210.504 801.542 209.903C801.203 209.298 800.733 208.996 800.132 208.996C799.531 208.996 799.057 209.298 798.71 209.903C798.368 210.508 798.196 211.342 798.196 212.404C798.196 213.483 798.366 214.328 798.704 214.937C799.047 215.542 799.523 215.845 800.132 215.845ZM806.112 217.07C805.854 217.07 805.636 216.983 805.458 216.81C805.285 216.632 805.198 216.414 805.198 216.156C805.198 215.902 805.285 215.686 805.458 215.508C805.636 215.331 805.854 215.242 806.112 215.242C806.366 215.242 806.58 215.331 806.753 215.508C806.931 215.686 807.02 215.902 807.02 216.156C807.02 216.414 806.931 216.632 806.753 216.81C806.58 216.983 806.366 217.07 806.112 217.07ZM812.269 217.184C811.152 217.184 810.274 216.759 809.635 215.908C809 215.053 808.683 213.888 808.683 212.411C808.683 210.942 809.002 209.783 809.641 208.932C810.28 208.082 811.156 207.656 812.269 207.656C813.382 207.656 814.256 208.082 814.891 208.932C815.526 209.778 815.843 210.936 815.843 212.404C815.843 213.877 815.526 215.043 814.891 215.902C814.256 216.757 813.382 217.184 812.269 217.184ZM812.269 215.845C812.874 215.845 813.344 215.542 813.678 214.937C814.017 214.332 814.186 213.49 814.186 212.411C814.186 211.34 814.017 210.504 813.678 209.903C813.34 209.298 812.87 208.996 812.269 208.996C811.668 208.996 811.194 209.298 810.847 209.903C810.505 210.508 810.333 211.342 810.333 212.404C810.333 213.483 810.502 214.328 810.841 214.937C811.184 215.542 811.66 215.845 812.269 215.845ZM818.223 218.961H816.789L820.039 207.84H821.473L818.223 218.961ZM824.863 217V209.402H824.825L822.457 211.065V209.522L824.85 207.84H826.469V217H824.863Z" fill="#615E69"/>
<rect width="160" height="32" transform="translate(940 196)" fill="#E9FDF8"/>
<path d="M960.132 217.184C959.015 217.184 958.137 216.759 957.498 215.908C956.863 215.053 956.546 213.888 956.546 212.411C956.546 210.942 956.865 209.783 957.504 208.932C958.143 208.082 959.019 207.656 960.132 207.656C961.245 207.656 962.119 208.082 962.754 208.932C963.389 209.778 963.706 210.936 963.706 212.404C963.706 213.877 963.389 215.043 962.754 215.902C962.119 216.757 961.245 217.184 960.132 217.184ZM960.132 215.845C960.737 215.845 961.207 215.542 961.542 214.937C961.88 214.332 962.049 213.49 962.049 212.411C962.049 211.34 961.88 210.504 961.542 209.903C961.203 209.298 960.733 208.996 960.132 208.996C959.531 208.996 959.057 209.298 958.71 209.903C958.368 210.508 958.196 211.342 958.196 212.404C958.196 213.483 958.366 214.328 958.704 214.937C959.047 215.542 959.523 215.845 960.132 215.845ZM968.454 208.323C968.822 208.742 969.006 209.309 969.006 210.024C969.006 210.739 968.822 211.308 968.454 211.731C968.086 212.155 967.593 212.366 966.975 212.366C966.357 212.366 965.864 212.155 965.496 211.731C965.132 211.308 964.95 210.739 964.95 210.024C964.95 209.309 965.132 208.742 965.496 208.323C965.864 207.9 966.357 207.688 966.975 207.688C967.593 207.688 968.086 207.9 968.454 208.323ZM966.975 211.37C967.212 211.37 967.396 211.251 967.527 211.014C967.663 210.773 967.731 210.443 967.731 210.024C967.731 209.601 967.663 209.271 967.527 209.034C967.396 208.792 967.212 208.672 966.975 208.672C966.742 208.672 966.558 208.792 966.423 209.034C966.292 209.271 966.226 209.601 966.226 210.024C966.226 210.443 966.292 210.773 966.423 211.014C966.558 211.251 966.742 211.37 966.975 211.37ZM967.102 217H965.718L969.267 212.144L972.415 207.84H973.786L970.333 212.569L967.102 217ZM974.008 213.071C974.377 213.494 974.561 214.063 974.561 214.778C974.561 215.493 974.377 216.063 974.008 216.486C973.64 216.905 973.147 217.114 972.529 217.114C971.912 217.114 971.419 216.905 971.05 216.486C970.686 216.063 970.504 215.493 970.504 214.778C970.504 214.063 970.686 213.494 971.05 213.071C971.419 212.648 971.912 212.436 972.529 212.436C973.147 212.436 973.64 212.648 974.008 213.071ZM971.977 215.762C972.113 216.003 972.297 216.124 972.529 216.124C972.762 216.124 972.946 216.003 973.082 215.762C973.217 215.521 973.285 215.191 973.285 214.772C973.285 214.353 973.217 214.023 973.082 213.782C972.946 213.541 972.762 213.42 972.529 213.42C972.297 213.42 972.113 213.541 971.977 213.782C971.846 214.023 971.78 214.353 971.78 214.772C971.78 215.191 971.846 215.521 971.977 215.762Z" fill="#615E69"/>
<rect width="1100" height="1" transform="translate(0 228)" fill="#E8E8EA"/>
<rect width="1100" height="33" transform="translate(0 229)" fill="white"/>
<path d="M180.069 250.184C179.125 250.184 178.342 249.928 177.72 249.416C177.098 248.9 176.77 248.235 176.736 247.423H178.272C178.323 247.846 178.516 248.191 178.85 248.458C179.189 248.724 179.599 248.857 180.082 248.857C180.627 248.857 181.07 248.686 181.408 248.343C181.751 248 181.922 247.558 181.922 247.017C181.922 246.466 181.751 246.018 181.408 245.671C181.07 245.32 180.632 245.144 180.094 245.144C179.722 245.144 179.381 245.224 179.072 245.385C178.768 245.546 178.531 245.77 178.361 246.058H176.876L177.352 240.84H182.963V242.18H178.647L178.412 244.858H178.45C178.641 244.562 178.916 244.329 179.275 244.16C179.635 243.987 180.039 243.9 180.488 243.9C181.364 243.9 182.085 244.19 182.652 244.77C183.219 245.345 183.503 246.079 183.503 246.972C183.503 247.924 183.183 248.699 182.544 249.295C181.91 249.888 181.084 250.184 180.069 250.184Z" fill="#615E69"/>
<path d="M304.069 250.184C303.125 250.184 302.342 249.928 301.72 249.416C301.098 248.9 300.77 248.235 300.736 247.423H302.272C302.323 247.846 302.516 248.191 302.85 248.458C303.189 248.724 303.599 248.857 304.082 248.857C304.627 248.857 305.07 248.686 305.408 248.343C305.751 248 305.922 247.558 305.922 247.017C305.922 246.466 305.751 246.018 305.408 245.671C305.07 245.32 304.632 245.144 304.094 245.144C303.722 245.144 303.381 245.224 303.072 245.385C302.768 245.546 302.531 245.77 302.361 246.058H300.876L301.352 240.84H306.963V242.18H302.647L302.412 244.858H302.45C302.641 244.562 302.916 244.329 303.275 244.16C303.635 243.987 304.039 243.9 304.488 243.9C305.364 243.9 306.085 244.19 306.652 244.77C307.219 245.345 307.503 246.079 307.503 246.972C307.503 247.924 307.183 248.699 306.544 249.295C305.91 249.888 305.084 250.184 304.069 250.184Z" fill="#615E69"/>
<path d="M428.132 250.184C427.015 250.184 426.137 249.759 425.498 248.908C424.863 248.053 424.546 246.888 424.546 245.411C424.546 243.942 424.865 242.783 425.504 241.932C426.143 241.082 427.019 240.656 428.132 240.656C429.245 240.656 430.119 241.082 430.754 241.932C431.389 242.778 431.706 243.936 431.706 245.404C431.706 246.877 431.389 248.043 430.754 248.902C430.119 249.757 429.245 250.184 428.132 250.184ZM428.132 248.845C428.737 248.845 429.207 248.542 429.542 247.937C429.88 247.332 430.049 246.49 430.049 245.411C430.049 244.34 429.88 243.504 429.542 242.903C429.203 242.298 428.733 241.996 428.132 241.996C427.531 241.996 427.057 242.298 426.71 242.903C426.368 243.508 426.196 244.342 426.196 245.404C426.196 246.483 426.366 247.328 426.704 247.937C427.047 248.542 427.523 248.845 428.132 248.845Z" fill="#615E69"/>
<path d="M552.069 250.184C551.125 250.184 550.342 249.928 549.72 249.416C549.098 248.9 548.77 248.235 548.736 247.423H550.272C550.323 247.846 550.516 248.191 550.85 248.458C551.189 248.724 551.599 248.857 552.082 248.857C552.627 248.857 553.07 248.686 553.408 248.343C553.751 248 553.922 247.558 553.922 247.017C553.922 246.466 553.751 246.018 553.408 245.671C553.07 245.32 552.632 245.144 552.094 245.144C551.722 245.144 551.381 245.224 551.072 245.385C550.768 245.546 550.531 245.77 550.361 246.058H548.876L549.352 240.84H554.963V242.18H550.647L550.412 244.858H550.45C550.641 244.562 550.916 244.329 551.275 244.16C551.635 243.987 552.039 243.9 552.488 243.9C553.364 243.9 554.085 244.19 554.652 244.77C555.219 245.345 555.503 246.079 555.503 246.972C555.503 247.924 555.183 248.699 554.544 249.295C553.91 249.888 553.084 250.184 552.069 250.184Z" fill="#615E69"/>
<path d="M676.069 250.184C675.125 250.184 674.342 249.928 673.72 249.416C673.098 248.9 672.77 248.235 672.736 247.423H674.272C674.323 247.846 674.516 248.191 674.85 248.458C675.189 248.724 675.599 248.857 676.082 248.857C676.627 248.857 677.07 248.686 677.408 248.343C677.751 248 677.922 247.558 677.922 247.017C677.922 246.466 677.751 246.018 677.408 245.671C677.07 245.32 676.632 245.144 676.094 245.144C675.722 245.144 675.381 245.224 675.072 245.385C674.768 245.546 674.531 245.77 674.361 246.058H672.876L673.352 240.84H678.963V242.18H674.647L674.412 244.858H674.45C674.641 244.562 674.916 244.329 675.275 244.16C675.635 243.987 676.039 243.9 676.488 243.9C677.364 243.9 678.085 244.19 678.652 244.77C679.219 245.345 679.503 246.079 679.503 246.972C679.503 247.924 679.183 248.699 678.544 249.295C677.91 249.888 677.084 250.184 676.069 250.184Z" fill="#615E69"/>
<rect width="160" height="32" transform="translate(780 229)" fill="#FEEAEA"/>
<path d="M800.132 250.184C799.015 250.184 798.137 249.759 797.498 248.908C796.863 248.053 796.546 246.888 796.546 245.411C796.546 243.942 796.865 242.783 797.504 241.932C798.143 241.082 799.019 240.656 800.132 240.656C801.245 240.656 802.119 241.082 802.754 241.932C803.389 242.778 803.706 243.936 803.706 245.404C803.706 246.877 803.389 248.043 802.754 248.902C802.119 249.757 801.245 250.184 800.132 250.184ZM800.132 248.845C800.737 248.845 801.207 248.542 801.542 247.937C801.88 247.332 802.049 246.49 802.049 245.411C802.049 244.34 801.88 243.504 801.542 242.903C801.203 242.298 800.733 241.996 800.132 241.996C799.531 241.996 799.057 242.298 798.71 242.903C798.368 243.508 798.196 244.342 798.196 245.404C798.196 246.483 798.366 247.328 798.704 247.937C799.047 248.542 799.523 248.845 800.132 248.845ZM806.112 250.07C805.854 250.07 805.636 249.983 805.458 249.81C805.285 249.632 805.198 249.414 805.198 249.156C805.198 248.902 805.285 248.686 805.458 248.508C805.636 248.331 805.854 248.242 806.112 248.242C806.366 248.242 806.58 248.331 806.753 248.508C806.931 248.686 807.02 248.902 807.02 249.156C807.02 249.414 806.931 249.632 806.753 249.81C806.58 249.983 806.366 250.07 806.112 250.07ZM812.269 250.184C811.152 250.184 810.274 249.759 809.635 248.908C809 248.053 808.683 246.888 808.683 245.411C808.683 243.942 809.002 242.783 809.641 241.932C810.28 241.082 811.156 240.656 812.269 240.656C813.382 240.656 814.256 241.082 814.891 241.932C815.526 242.778 815.843 243.936 815.843 245.404C815.843 246.877 815.526 248.043 814.891 248.902C814.256 249.757 813.382 250.184 812.269 250.184ZM812.269 248.845C812.874 248.845 813.344 248.542 813.678 247.937C814.017 247.332 814.186 246.49 814.186 245.411C814.186 244.34 814.017 243.504 813.678 242.903C813.34 242.298 812.87 241.996 812.269 241.996C811.668 241.996 811.194 242.298 810.847 242.903C810.505 243.508 810.333 244.342 810.333 245.404C810.333 246.483 810.502 247.328 810.841 247.937C811.184 248.542 811.66 248.845 812.269 248.845ZM818.223 251.961H816.789L820.039 240.84H821.473L818.223 251.961ZM824.863 250V242.402H824.825L822.457 244.065V242.522L824.85 240.84H826.469V250H824.863Z" fill="#615E69"/>
<rect width="1100" height="1" transform="translate(0 261)" fill="#E8E8EA"/>
<rect width="1100" height="33" transform="translate(0 262)" fill="white"/>
<path d="M178.99 283V275.402H178.952L176.584 277.065V275.522L178.977 273.84H180.596V283H178.99Z" fill="#615E69"/>
<path d="M302.99 283V275.402H302.952L300.584 277.065V275.522L302.977 273.84H304.596V283H302.99Z" fill="#615E69"/>
<path d="M426.99 283V275.402H426.952L424.584 277.065V275.522L426.977 273.84H428.596V283H426.99Z" fill="#615E69"/>
<path d="M550.99 283V275.402H550.952L548.584 277.065V275.522L550.977 273.84H552.596V283H550.99Z" fill="#615E69"/>
<path d="M674.99 283V275.402H674.952L672.584 277.065V275.522L674.977 273.84H676.596V283H674.99Z" fill="#615E69"/>
<path d="M800.069 283.184C799.125 283.184 798.342 282.928 797.72 282.416C797.098 281.9 796.77 281.235 796.736 280.423H798.272C798.323 280.846 798.516 281.191 798.85 281.458C799.189 281.724 799.599 281.857 800.082 281.857C800.627 281.857 801.07 281.686 801.408 281.343C801.751 281 801.922 280.558 801.922 280.017C801.922 279.466 801.751 279.018 801.408 278.671C801.07 278.32 800.632 278.144 800.094 278.144C799.722 278.144 799.381 278.224 799.072 278.385C798.768 278.546 798.531 278.77 798.361 279.058H796.876L797.352 273.84H802.963V275.18H798.647L798.412 277.858H798.45C798.641 277.562 798.916 277.329 799.275 277.16C799.635 276.987 800.039 276.9 800.488 276.9C801.364 276.9 802.085 277.19 802.652 277.77C803.219 278.345 803.503 279.079 803.503 279.972C803.503 280.924 803.183 281.699 802.544 282.295C801.91 282.888 801.084 283.184 800.069 283.184Z" fill="#615E69"/>
<rect width="1100" height="1" transform="translate(0 294)" fill="#E8E8EA"/>
</svg>
