<svg width="1100" height="295" viewBox="0 0 1100 295" fill="none" xmlns="http://www.w3.org/2000/svg">
<rect width="160" height="64" fill="#F3F4F6"/>
<path d="M16.3867 33.5918C16.4395 35.1797 17.7344 36.1465 19.7676 36.1465C21.8652 36.1465 23.1953 35.1094 23.1953 33.4688C23.1953 32.1797 22.457 31.4531 20.7637 31.0898L19.7383 30.873C18.7656 30.6504 18.3555 30.3574 18.3555 29.8359C18.3555 29.209 18.9414 28.793 19.8145 28.793C20.6992 28.793 21.3262 29.2266 21.3848 29.9414H23.043C23.0137 28.4121 21.7773 27.3984 19.8086 27.3984C17.9219 27.3984 16.5742 28.4297 16.5742 29.9883C16.5742 31.2246 17.3418 32.0156 18.9004 32.3496L20.002 32.5898C21.0215 32.8184 21.4258 33.123 21.4258 33.6738C21.4258 34.2949 20.7812 34.7461 19.8379 34.7461C18.9004 34.7461 18.1738 34.2891 18.0918 33.5918H16.3867ZM28.0762 36V29.0039H30.5254V27.5449H23.8633V29.0039H26.3066V36H28.0762ZM35.8926 36H37.7734L34.832 27.5449H32.752L29.8164 36H31.6328L32.2773 33.9492H35.248L35.8926 36ZM33.7422 29.1621H33.7832L34.8672 32.625H32.6582L33.7422 29.1621ZM45.7891 32.4492V31.4941H42.2266V32.7832H44.0664L44.0605 32.918C44.0254 33.9668 43.2227 34.6758 42.0684 34.6758C40.6621 34.6758 39.7715 33.5566 39.7715 31.7227C39.7715 29.9238 40.6094 28.8633 42.0039 28.8633C42.959 28.8633 43.6797 29.3906 43.9375 30.2754H45.7129C45.4609 28.5645 43.9727 27.3984 41.998 27.3984C39.5137 27.3984 37.9668 29.0391 37.9668 31.7461C37.9668 34.4941 39.5137 36.1465 42.0391 36.1465C44.3945 36.1465 45.7891 34.752 45.7891 32.4492ZM52.5625 34.5352H48.7305V32.4023H52.3457V31.043H48.7305V29.0039H52.5625V27.5449H46.9609V36H52.5625V34.5352Z" fill="#34303E"/>
<rect width="111.429" height="32" transform="translate(160)" fill="#F3F4F6"/>
<path d="M180.441 20.1465C182.516 20.1465 183.963 18.9512 184.162 17.0645H182.439C182.252 18.0664 181.496 18.6816 180.447 18.6816C179.094 18.6816 178.244 17.5684 178.244 15.7637C178.244 13.9824 179.105 12.8633 180.441 12.8633C181.473 12.8633 182.27 13.543 182.434 14.5801H184.156C184.021 12.6875 182.475 11.3984 180.441 11.3984C177.992 11.3984 176.439 13.0449 176.439 15.7695C176.439 18.5 177.98 20.1465 180.441 20.1465ZM189.072 11.3984C186.564 11.3984 184.994 13.0801 184.994 15.7754C184.994 18.4648 186.564 20.1465 189.072 20.1465C191.574 20.1465 193.15 18.4648 193.15 15.7754C193.15 13.0801 191.574 11.3984 189.072 11.3984ZM189.072 12.875C190.455 12.875 191.34 14 191.34 15.7754C191.34 17.5449 190.455 18.6641 189.072 18.6641C187.684 18.6641 186.799 17.5449 186.799 15.7754C186.799 14 187.689 12.875 189.072 12.875ZM194.293 11.5449V20H197.521C200.059 20 201.553 18.4238 201.553 15.7402C201.553 13.0566 200.059 11.5449 197.521 11.5449H194.293ZM196.062 13.0039H197.311C198.869 13.0039 199.748 13.9766 199.748 15.7461C199.748 17.5742 198.893 18.5352 197.311 18.5352H196.062V13.0039ZM204.705 20H206.457V11.5449H204.699L202.514 13.0625V14.6562L204.67 13.168H204.705V20Z" fill="#34303E"/>
<rect width="111.429" height="32" transform="translate(271.429)" fill="#F3F4F6"/>
<path d="M291.87 20.1465C293.944 20.1465 295.392 18.9512 295.591 17.0645H293.868C293.681 18.0664 292.925 18.6816 291.876 18.6816C290.522 18.6816 289.673 17.5684 289.673 15.7637C289.673 13.9824 290.534 12.8633 291.87 12.8633C292.901 12.8633 293.698 13.543 293.862 14.5801H295.585C295.45 12.6875 293.903 11.3984 291.87 11.3984C289.421 11.3984 287.868 13.0449 287.868 15.7695C287.868 18.5 289.409 20.1465 291.87 20.1465ZM300.501 11.3984C297.993 11.3984 296.423 13.0801 296.423 15.7754C296.423 18.4648 297.993 20.1465 300.501 20.1465C303.003 20.1465 304.579 18.4648 304.579 15.7754C304.579 13.0801 303.003 11.3984 300.501 11.3984ZM300.501 12.875C301.884 12.875 302.769 14 302.769 15.7754C302.769 17.5449 301.884 18.6641 300.501 18.6641C299.112 18.6641 298.228 17.5449 298.228 15.7754C298.228 14 299.118 12.875 300.501 12.875ZM305.722 11.5449V20H308.95C311.487 20 312.981 18.4238 312.981 15.7402C312.981 13.0566 311.487 11.5449 308.95 11.5449H305.722ZM307.491 13.0039H308.739C310.298 13.0039 311.177 13.9766 311.177 15.7461C311.177 17.5742 310.321 18.5352 308.739 18.5352H307.491V13.0039ZM313.919 14.0879V14.1172H315.56V14.0879C315.56 13.3086 316.163 12.7344 316.983 12.7344C317.769 12.7344 318.325 13.2383 318.325 13.8711C318.325 14.457 318.062 14.8848 317.206 15.7402L314.019 18.8105V20H320.165V18.5938H316.351V18.5586L318.413 16.5723C319.345 15.6465 320.048 14.8555 320.048 13.8008C320.048 12.3887 318.823 11.3574 317.042 11.3574C315.196 11.3574 313.919 12.4883 313.919 14.0879Z" fill="#34303E"/>
<rect width="111.429" height="32" transform="translate(382.857)" fill="#F3F4F6"/>
<path d="M403.298 20.1465C405.373 20.1465 406.82 18.9512 407.019 17.0645H405.296C405.109 18.0664 404.353 18.6816 403.304 18.6816C401.951 18.6816 401.101 17.5684 401.101 15.7637C401.101 13.9824 401.962 12.8633 403.298 12.8633C404.33 12.8633 405.126 13.543 405.291 14.5801H407.013C406.878 12.6875 405.332 11.3984 403.298 11.3984C400.849 11.3984 399.296 13.0449 399.296 15.7695C399.296 18.5 400.837 20.1465 403.298 20.1465ZM411.929 11.3984C409.421 11.3984 407.851 13.0801 407.851 15.7754C407.851 18.4648 409.421 20.1465 411.929 20.1465C414.431 20.1465 416.007 18.4648 416.007 15.7754C416.007 13.0801 414.431 11.3984 411.929 11.3984ZM411.929 12.875C413.312 12.875 414.197 14 414.197 15.7754C414.197 17.5449 413.312 18.6641 411.929 18.6641C410.541 18.6641 409.656 17.5449 409.656 15.7754C409.656 14 410.546 12.875 411.929 12.875ZM417.15 11.5449V20H420.378C422.916 20 424.41 18.4238 424.41 15.7402C424.41 13.0566 422.916 11.5449 420.378 11.5449H417.15ZM418.919 13.0039H420.167C421.726 13.0039 422.605 13.9766 422.605 15.7461C422.605 17.5742 421.75 18.5352 420.167 18.5352H418.919V13.0039ZM427.503 16.3086H428.546C429.501 16.3086 430.082 16.7773 430.082 17.5508C430.082 18.2656 429.46 18.7637 428.576 18.7637C427.644 18.7637 427.058 18.2949 427.005 17.5801H425.312C425.394 19.1387 426.642 20.1875 428.552 20.1875C430.503 20.1875 431.88 19.1797 431.88 17.6621C431.88 16.4902 431.066 15.7285 429.806 15.623V15.5879C430.843 15.4004 431.552 14.6504 431.552 13.6133C431.552 12.2598 430.351 11.3574 428.593 11.3574C426.759 11.3574 425.541 12.377 425.476 13.9414H427.105C427.152 13.2031 427.697 12.7168 428.517 12.7168C429.396 12.7168 429.882 13.168 429.882 13.8535C429.882 14.5508 429.337 15.0312 428.529 15.0312H427.503V16.3086Z" fill="#34303E"/>
<rect width="111.429" height="32" transform="translate(494.286)" fill="#F3F4F6"/>
<path d="M514.727 20.1465C516.801 20.1465 518.249 18.9512 518.448 17.0645H516.725C516.538 18.0664 515.782 18.6816 514.733 18.6816C513.379 18.6816 512.53 17.5684 512.53 15.7637C512.53 13.9824 513.391 12.8633 514.727 12.8633C515.758 12.8633 516.555 13.543 516.719 14.5801H518.442C518.307 12.6875 516.76 11.3984 514.727 11.3984C512.278 11.3984 510.725 13.0449 510.725 15.7695C510.725 18.5 512.266 20.1465 514.727 20.1465ZM523.358 11.3984C520.85 11.3984 519.28 13.0801 519.28 15.7754C519.28 18.4648 520.85 20.1465 523.358 20.1465C525.86 20.1465 527.436 18.4648 527.436 15.7754C527.436 13.0801 525.86 11.3984 523.358 11.3984ZM523.358 12.875C524.741 12.875 525.625 14 525.625 15.7754C525.625 17.5449 524.741 18.6641 523.358 18.6641C521.969 18.6641 521.084 17.5449 521.084 15.7754C521.084 14 521.975 12.875 523.358 12.875ZM528.579 11.5449V20H531.807C534.344 20 535.838 18.4238 535.838 15.7402C535.838 13.0566 534.344 11.5449 531.807 11.5449H528.579ZM530.348 13.0039H531.596C533.155 13.0039 534.034 13.9766 534.034 15.7461C534.034 17.5742 533.178 18.5352 531.596 18.5352H530.348V13.0039ZM540.907 20H542.588V18.4941H543.69V17.0762H542.588V11.5449H540.092C538.358 14.0996 537.438 15.582 536.7 16.9883V18.4941H540.907V20ZM538.252 17.082C538.938 15.7578 539.676 14.6035 540.907 12.7988H540.942V17.1289H538.252V17.082Z" fill="#34303E"/>
<rect width="111.429" height="32" transform="translate(605.714)" fill="#F3F4F6"/>
<path d="M626.156 20.1465C628.23 20.1465 629.677 18.9512 629.876 17.0645H628.154C627.966 18.0664 627.21 18.6816 626.162 18.6816C624.808 18.6816 623.958 17.5684 623.958 15.7637C623.958 13.9824 624.82 12.8633 626.156 12.8633C627.187 12.8633 627.984 13.543 628.148 14.5801H629.871C629.736 12.6875 628.189 11.3984 626.156 11.3984C623.707 11.3984 622.154 13.0449 622.154 15.7695C622.154 18.5 623.695 20.1465 626.156 20.1465ZM634.787 11.3984C632.279 11.3984 630.708 13.0801 630.708 15.7754C630.708 18.4648 632.279 20.1465 634.787 20.1465C637.289 20.1465 638.865 18.4648 638.865 15.7754C638.865 13.0801 637.289 11.3984 634.787 11.3984ZM634.787 12.875C636.169 12.875 637.054 14 637.054 15.7754C637.054 17.5449 636.169 18.6641 634.787 18.6641C633.398 18.6641 632.513 17.5449 632.513 15.7754C632.513 14 633.404 12.875 634.787 12.875ZM640.007 11.5449V20H643.236C645.773 20 647.267 18.4238 647.267 15.7402C647.267 13.0566 645.773 11.5449 643.236 11.5449H640.007ZM641.777 13.0039H643.025C644.583 13.0039 645.462 13.9766 645.462 15.7461C645.462 17.5742 644.607 18.5352 643.025 18.5352H641.777V13.0039ZM651.521 20.1875C653.46 20.1875 654.785 18.9688 654.785 17.1758C654.785 15.5293 653.625 14.3398 652.007 14.3398C651.146 14.3398 650.472 14.6973 650.126 15.2656H650.091L650.285 12.9512H654.275V11.5449H648.896L648.48 16.4082H650.062C650.355 15.9219 650.906 15.6289 651.544 15.6289C652.458 15.6289 653.097 16.2852 653.097 17.2227C653.097 18.1426 652.458 18.7871 651.533 18.7871C650.712 18.7871 650.08 18.2949 649.98 17.5801H648.345C648.398 19.1094 649.705 20.1875 651.521 20.1875Z" fill="#34303E"/>
<rect width="111.429" height="32" transform="translate(717.143)" fill="#F3F4F6"/>
<path d="M737.584 20.1465C739.658 20.1465 741.106 18.9512 741.305 17.0645H739.582C739.395 18.0664 738.639 18.6816 737.59 18.6816C736.237 18.6816 735.387 17.5684 735.387 15.7637C735.387 13.9824 736.248 12.8633 737.584 12.8633C738.615 12.8633 739.412 13.543 739.576 14.5801H741.299C741.164 12.6875 739.617 11.3984 737.584 11.3984C735.135 11.3984 733.582 13.0449 733.582 15.7695C733.582 18.5 735.123 20.1465 737.584 20.1465ZM746.215 11.3984C743.707 11.3984 742.137 13.0801 742.137 15.7754C742.137 18.4648 743.707 20.1465 746.215 20.1465C748.717 20.1465 750.293 18.4648 750.293 15.7754C750.293 13.0801 748.717 11.3984 746.215 11.3984ZM746.215 12.875C747.598 12.875 748.483 14 748.483 15.7754C748.483 17.5449 747.598 18.6641 746.215 18.6641C744.826 18.6641 743.942 17.5449 743.942 15.7754C743.942 14 744.832 12.875 746.215 12.875ZM751.436 11.5449V20H754.664C757.201 20 758.696 18.4238 758.696 15.7402C758.696 13.0566 757.201 11.5449 754.664 11.5449H751.436ZM753.205 13.0039H754.453C756.012 13.0039 756.891 13.9766 756.891 15.7461C756.891 17.5742 756.035 18.5352 754.453 18.5352H753.205V13.0039ZM763.143 20.1934C765.035 20.1934 766.389 18.9453 766.389 17.2051C766.389 15.5996 765.199 14.416 763.594 14.416C762.516 14.416 761.684 14.9668 761.344 15.793H761.309C761.268 13.8828 761.983 12.752 763.16 12.752C763.823 12.752 764.367 13.127 764.537 13.6895H766.278C766.043 12.3066 764.783 11.3516 763.172 11.3516C760.987 11.3516 759.627 13.0391 759.627 15.8398C759.627 16.9648 759.867 17.9199 760.336 18.6348C760.928 19.6426 761.93 20.1934 763.143 20.1934ZM763.125 18.7812C762.258 18.7812 761.584 18.1016 761.584 17.2402C761.584 16.3848 762.252 15.7461 763.131 15.7461C764.016 15.7461 764.666 16.3848 764.666 17.2578C764.666 18.1074 763.987 18.7812 763.125 18.7812Z" fill="#34303E"/>
<rect width="111.429" height="32" transform="translate(828.572)" fill="#F3F4F6"/>
<path d="M849.013 20.1465C851.087 20.1465 852.534 18.9512 852.734 17.0645H851.011C850.823 18.0664 850.068 18.6816 849.019 18.6816C847.665 18.6816 846.816 17.5684 846.816 15.7637C846.816 13.9824 847.677 12.8633 849.013 12.8633C850.044 12.8633 850.841 13.543 851.005 14.5801H852.728C852.593 12.6875 851.046 11.3984 849.013 11.3984C846.564 11.3984 845.011 13.0449 845.011 15.7695C845.011 18.5 846.552 20.1465 849.013 20.1465ZM857.644 11.3984C855.136 11.3984 853.566 13.0801 853.566 15.7754C853.566 18.4648 855.136 20.1465 857.644 20.1465C860.146 20.1465 861.722 18.4648 861.722 15.7754C861.722 13.0801 860.146 11.3984 857.644 11.3984ZM857.644 12.875C859.027 12.875 859.911 14 859.911 15.7754C859.911 17.5449 859.027 18.6641 857.644 18.6641C856.255 18.6641 855.37 17.5449 855.37 15.7754C855.37 14 856.261 12.875 857.644 12.875ZM862.865 11.5449V20H866.093C868.63 20 870.124 18.4238 870.124 15.7402C870.124 13.0566 868.63 11.5449 866.093 11.5449H862.865ZM864.634 13.0039H865.882C867.441 13.0039 868.32 13.9766 868.32 15.7461C868.32 17.5742 867.464 18.5352 865.882 18.5352H864.634V13.0039ZM871.566 20H873.423L876.95 12.9688V11.5449H870.904V12.9512H875.204V12.9863L871.566 20Z" fill="#34303E"/>
<rect width="111.429" height="32" transform="translate(160 32)" fill="#F3F4F6"/>
<path d="M176.498 46.0879V46.1172H178.139V46.0879C178.139 45.3086 178.742 44.7344 179.562 44.7344C180.348 44.7344 180.904 45.2383 180.904 45.8711C180.904 46.457 180.641 46.8848 179.785 47.7402L176.598 50.8105V52H182.744V50.5938H178.93V50.5586L180.992 48.5723C181.924 47.6465 182.627 46.8555 182.627 45.8008C182.627 44.3887 181.402 43.3574 179.621 43.3574C177.775 43.3574 176.498 44.4883 176.498 46.0879Z" fill="#34303E"/>
<rect width="111.429" height="32" transform="translate(271.429 32)" fill="#F3F4F6"/>
<path d="M290.083 48.3086H291.126C292.081 48.3086 292.661 48.7773 292.661 49.5508C292.661 50.2656 292.04 50.7637 291.155 50.7637C290.224 50.7637 289.638 50.2949 289.585 49.5801H287.892C287.974 51.1387 289.222 52.1875 291.132 52.1875C293.083 52.1875 294.46 51.1797 294.46 49.6621C294.46 48.4902 293.646 47.7285 292.386 47.623V47.5879C293.423 47.4004 294.132 46.6504 294.132 45.6133C294.132 44.2598 292.931 43.3574 291.173 43.3574C289.339 43.3574 288.12 44.377 288.056 45.9414H289.685C289.731 45.2031 290.276 44.7168 291.097 44.7168C291.976 44.7168 292.462 45.168 292.462 45.8535C292.462 46.5508 291.917 47.0312 291.108 47.0312H290.083V48.3086Z" fill="#34303E"/>
<rect width="111.429" height="32" transform="translate(382.857 32)" fill="#F3F4F6"/>
<path d="M402.707 52.1875C404.646 52.1875 405.97 50.9688 405.97 49.1758C405.97 47.5293 404.81 46.3398 403.193 46.3398C402.332 46.3398 401.658 46.6973 401.312 47.2656H401.277L401.47 44.9512H405.46V43.5449H400.082L399.666 48.4082H401.248C401.541 47.9219 402.091 47.6289 402.73 47.6289C403.644 47.6289 404.283 48.2852 404.283 49.2227C404.283 50.1426 403.644 50.7871 402.718 50.7871C401.898 50.7871 401.265 50.2949 401.166 49.5801H399.531C399.583 51.1094 400.89 52.1875 402.707 52.1875Z" fill="#34303E"/>
<rect width="111.429" height="32" transform="translate(494.286 32)" fill="#F3F4F6"/>
<path d="M510.784 46.0879V46.1172H512.424V46.0879C512.424 45.3086 513.028 44.7344 513.848 44.7344C514.633 44.7344 515.19 45.2383 515.19 45.8711C515.19 46.457 514.926 46.8848 514.071 47.7402L510.883 50.8105V52H517.03V50.5938H513.215V50.5586L515.278 48.5723C516.209 47.6465 516.913 46.8555 516.913 45.8008C516.913 44.3887 515.688 43.3574 513.907 43.3574C512.061 43.3574 510.784 44.4883 510.784 46.0879Z" fill="#34303E"/>
<rect width="111.429" height="32" transform="translate(605.714 32)" fill="#F3F4F6"/>
<path d="M624.427 52H626.179V43.5449H624.421L622.236 45.0625V46.6562L624.392 45.168H624.427V52Z" fill="#34303E"/>
<rect width="111.429" height="32" transform="translate(717.143 32)" fill="#F3F4F6"/>
<path d="M737.151 52.1934C739.043 52.1934 740.397 50.9453 740.397 49.2051C740.397 47.5996 739.207 46.416 737.602 46.416C736.524 46.416 735.692 46.9668 735.352 47.793H735.317C735.276 45.8828 735.99 44.752 737.168 44.752C737.83 44.752 738.375 45.127 738.545 45.6895H740.285C740.051 44.3066 738.791 43.3516 737.18 43.3516C734.994 43.3516 733.635 45.0391 733.635 47.8398C733.635 48.9648 733.875 49.9199 734.344 50.6348C734.936 51.6426 735.938 52.1934 737.151 52.1934ZM737.133 50.7812C736.266 50.7812 735.592 50.1016 735.592 49.2402C735.592 48.3848 736.26 47.7461 737.139 47.7461C738.024 47.7461 738.674 48.3848 738.674 49.2578C738.674 50.1074 737.994 50.7812 737.133 50.7812Z" fill="#34303E"/>
<rect width="111.429" height="32" transform="translate(828.572 32)" fill="#F3F4F6"/>
<path d="M849.2 52H850.882V50.4941H851.984V49.0762H850.882V43.5449H848.386C846.652 46.0996 845.732 47.582 844.993 48.9883V50.4941H849.2V52ZM846.546 49.082C847.232 47.7578 847.97 46.6035 849.2 44.7988H849.236V49.1289H846.546V49.082Z" fill="#34303E"/>
<rect width="160" height="64" transform="translate(940)" fill="#F3F4F6"/>
<path d="M960.494 36V29.0039H962.943V27.5449H956.281V29.0039H958.725V36H960.494ZM967.268 27.3984C964.76 27.3984 963.189 29.0801 963.189 31.7754C963.189 34.4648 964.76 36.1465 967.268 36.1465C969.77 36.1465 971.346 34.4648 971.346 31.7754C971.346 29.0801 969.77 27.3984 967.268 27.3984ZM967.268 28.875C968.65 28.875 969.535 30 969.535 31.7754C969.535 33.5449 968.65 34.6641 967.268 34.6641C965.879 34.6641 964.994 33.5449 964.994 31.7754C964.994 30 965.885 28.875 967.268 28.875ZM975.811 36V29.0039H978.26V27.5449H971.598V29.0039H974.041V36H975.811ZM983.627 36H985.508L982.566 27.5449H980.486L977.551 36H979.367L980.012 33.9492H982.982L983.627 36ZM981.477 29.1621H981.518L982.602 32.625H980.393L981.477 29.1621ZM991.842 34.5352H988.145V27.5449H986.375V36H991.842V34.5352Z" fill="#34303E"/>
<rect width="1100" height="33" transform="translate(0 64)" fill="white"/>
<rect width="160" height="32" transform="translate(0 64)" fill="#FEEAEA"/>
<path d="M20.6465 85H16.8062V75.8403H20.6084C21.4421 75.8403 22.1064 76.0477 22.6016 76.4624C23.0967 76.8771 23.3442 77.4315 23.3442 78.1255C23.3442 78.6164 23.1834 79.0522 22.8618 79.4331C22.5402 79.814 22.1445 80.0425 21.6748 80.1187V80.1694C22.3011 80.2287 22.8089 80.4635 23.1982 80.874C23.5918 81.2845 23.7886 81.7923 23.7886 82.3975C23.7886 83.2057 23.5093 83.8426 22.9507 84.3081C22.3921 84.7694 21.624 85 20.6465 85ZM18.4438 77.1162V79.6997H19.9419C20.5132 79.6997 20.9533 79.5854 21.2622 79.3569C21.5711 79.1242 21.7256 78.7941 21.7256 78.3667C21.7256 77.9689 21.5923 77.6621 21.3257 77.4463C21.0633 77.2262 20.6867 77.1162 20.1958 77.1162H18.4438ZM18.4438 83.7241H20.272C20.8729 83.7241 21.3299 83.6014 21.6431 83.356C21.9604 83.1105 22.1191 82.7529 22.1191 82.2832C22.1191 81.8177 21.9562 81.4644 21.6304 81.2231C21.3088 80.9819 20.8327 80.8613 20.2021 80.8613H18.4438V83.7241ZM27.6544 83.9146C28.1072 83.9146 28.4881 83.7812 28.797 83.5146C29.1101 83.2438 29.2667 82.9074 29.2667 82.5054V81.9912L27.7115 82.0864C27.3307 82.1118 27.0344 82.207 26.8229 82.3721C26.6155 82.5329 26.5118 82.7466 26.5118 83.0132C26.5118 83.2882 26.6155 83.5083 26.8229 83.6733C27.0344 83.8341 27.3116 83.9146 27.6544 83.9146ZM27.1783 85.1079C26.5224 85.1079 25.9828 84.9196 25.5597 84.543C25.1407 84.1663 24.9312 83.6776 24.9312 83.0767C24.9312 82.48 25.1513 82.0081 25.5914 81.6611C26.0357 81.3141 26.6684 81.1152 27.4894 81.0645L29.2667 80.9629V80.4805C29.2667 80.1292 29.1546 79.8563 28.9303 79.6616C28.7102 79.467 28.4034 79.3696 28.0099 79.3696C27.6417 79.3696 27.3412 79.4521 27.1085 79.6172C26.8757 79.7822 26.734 80.0065 26.6832 80.29H25.2169C25.2507 79.651 25.5237 79.1326 26.0357 78.7349C26.552 78.3328 27.2312 78.1318 28.0733 78.1318C28.907 78.1318 29.5735 78.335 30.0729 78.7412C30.5764 79.1475 30.8282 79.6891 30.8282 80.3662V85H29.3048V83.9272H29.273C29.0826 84.2869 28.7949 84.5747 28.4098 84.7905C28.0247 85.0021 27.6142 85.1079 27.1783 85.1079ZM32.3835 80.2012C32.3835 79.5833 32.6332 79.084 33.1325 78.7031C33.6319 78.3223 34.2899 78.1318 35.1066 78.1318C35.8938 78.1318 36.5327 78.3265 37.0236 78.7158C37.5188 79.1009 37.7769 79.6045 37.798 80.2266H36.3254C36.3 79.9346 36.1773 79.7061 35.9572 79.541C35.7372 79.376 35.4431 79.2935 35.0749 79.2935C34.7279 79.2935 34.4486 79.3696 34.237 79.522C34.0254 79.6701 33.9196 79.8669 33.9196 80.1123C33.9196 80.4847 34.2412 80.7492 34.8845 80.9058L36.0842 81.1724C36.757 81.3289 37.2373 81.549 37.5251 81.8325C37.8129 82.116 37.9567 82.5075 37.9567 83.0068C37.9567 83.6416 37.6901 84.1558 37.1569 84.5493C36.6237 84.9386 35.9318 85.1333 35.0813 85.1333C34.2434 85.1333 33.5684 84.9429 33.0563 84.562C32.5485 84.1769 32.2671 83.6628 32.2121 83.0195H33.7673C33.8138 83.3285 33.9535 83.5654 34.1862 83.7305C34.4232 83.8955 34.7406 83.978 35.1384 83.978C35.5235 83.978 35.826 83.9061 36.0461 83.7622C36.2704 83.6141 36.3825 83.4152 36.3825 83.1655C36.3825 82.9709 36.3127 82.8164 36.173 82.7021C36.0376 82.5837 35.807 82.4821 35.4812 82.3975L34.2561 82.1118C33.0077 81.8198 32.3835 81.1829 32.3835 80.2012ZM39.4041 85V78.2715H40.9847V85H39.4041ZM40.8133 77.1416C40.644 77.3066 40.4367 77.3892 40.1912 77.3892C39.9458 77.3892 39.7384 77.3066 39.5691 77.1416C39.3999 76.9723 39.3152 76.7692 39.3152 76.5322C39.3152 76.291 39.3999 76.0879 39.5691 75.9229C39.7384 75.7536 39.9458 75.6689 40.1912 75.6689C40.4367 75.6689 40.644 75.7536 40.8133 75.9229C40.9868 76.0879 41.0735 76.291 41.0735 76.5322C41.0735 76.7692 40.9868 76.9723 40.8133 77.1416ZM48.64 80.6709H47.1483C47.0806 80.2943 46.9198 79.9917 46.6659 79.7632C46.412 79.5304 46.0819 79.4141 45.6757 79.4141C45.1763 79.4141 44.7785 79.613 44.4823 80.0107C44.1861 80.4043 44.038 80.946 44.038 81.6357C44.038 82.334 44.1861 82.8799 44.4823 83.2734C44.7785 83.6628 45.1806 83.8574 45.6884 83.8574C46.0862 83.8574 46.412 83.7516 46.6659 83.54C46.9198 83.3242 47.0827 83.0238 47.1547 82.6387H48.6464C48.5829 83.3919 48.2803 83.9971 47.7387 84.4541C47.2012 84.9069 46.5115 85.1333 45.6693 85.1333C44.6791 85.1333 43.892 84.8223 43.308 84.2002C42.724 83.5739 42.432 82.7191 42.432 81.6357C42.432 80.5651 42.724 79.7145 43.308 79.084C43.892 78.4492 44.6749 78.1318 45.6566 78.1318C46.5199 78.1318 47.2182 78.373 47.7514 78.8555C48.2888 79.3337 48.585 79.9388 48.64 80.6709Z" fill="#615E69"/>
<rect width="111.429" height="32" transform="translate(160 64)" fill="#FFF8DD"/>
<path d="M180.132 85.1841C179.015 85.1841 178.137 84.7588 177.498 83.9082C176.863 83.0534 176.546 81.8875 176.546 80.4106C176.546 78.9422 176.865 77.7827 177.504 76.9321C178.143 76.0815 179.019 75.6562 180.132 75.6562C181.245 75.6562 182.119 76.0815 182.754 76.9321C183.389 77.7785 183.706 78.9359 183.706 80.4043C183.706 81.877 183.389 83.0428 182.754 83.9019C182.119 84.7567 181.245 85.1841 180.132 85.1841ZM180.132 83.8447C180.737 83.8447 181.207 83.5422 181.542 82.937C181.88 82.3319 182.049 81.4897 182.049 80.4106C182.049 79.34 181.88 78.5042 181.542 77.9033C181.203 77.2982 180.733 76.9956 180.132 76.9956C179.531 76.9956 179.057 77.2982 178.71 77.9033C178.368 78.5085 178.196 79.3421 178.196 80.4043C178.196 81.4834 178.366 82.3276 178.704 82.937C179.047 83.5422 179.523 83.8447 180.132 83.8447Z" fill="#615E69"/>
<rect width="111.429" height="32" transform="translate(271.429 64)" fill="#FFF8DD"/>
<path d="M291.561 85.1841C290.444 85.1841 289.566 84.7588 288.927 83.9082C288.292 83.0534 287.975 81.8875 287.975 80.4106C287.975 78.9422 288.294 77.7827 288.933 76.9321C289.572 76.0815 290.448 75.6562 291.561 75.6562C292.674 75.6562 293.548 76.0815 294.183 76.9321C294.817 77.7785 295.135 78.9359 295.135 80.4043C295.135 81.877 294.817 83.0428 294.183 83.9019C293.548 84.7567 292.674 85.1841 291.561 85.1841ZM291.561 83.8447C292.166 83.8447 292.636 83.5422 292.97 82.937C293.309 82.3319 293.478 81.4897 293.478 80.4106C293.478 79.34 293.309 78.5042 292.97 77.9033C292.632 77.2982 292.162 76.9956 291.561 76.9956C290.96 76.9956 290.486 77.2982 290.139 77.9033C289.796 78.5085 289.625 79.3421 289.625 80.4043C289.625 81.4834 289.794 82.3276 290.133 82.937C290.476 83.5422 290.952 83.8447 291.561 83.8447Z" fill="#615E69"/>
<rect width="111.429" height="32" transform="translate(382.857 64)" fill="#8E8C94"/>
<rect width="111.429" height="32" transform="translate(494.286 64)" fill="#8E8C94"/>
<rect width="111.429" height="32" transform="translate(605.714 64)" fill="#8E8C94"/>
<rect width="111.429" height="32" transform="translate(717.143 64)" fill="#8E8C94"/>
<rect width="111.429" height="32" transform="translate(828.572 64)" fill="#8E8C94"/>
<rect width="160" height="32" transform="translate(940 64)" fill="white"/>
<path d="M960.132 85.1841C959.015 85.1841 958.137 84.7588 957.498 83.9082C956.863 83.0534 956.546 81.8875 956.546 80.4106C956.546 78.9422 956.865 77.7827 957.504 76.9321C958.143 76.0815 959.019 75.6562 960.132 75.6562C961.245 75.6562 962.119 76.0815 962.754 76.9321C963.389 77.7785 963.706 78.9359 963.706 80.4043C963.706 81.877 963.389 83.0428 962.754 83.9019C962.119 84.7567 961.245 85.1841 960.132 85.1841ZM960.132 83.8447C960.737 83.8447 961.207 83.5422 961.542 82.937C961.88 82.3319 962.049 81.4897 962.049 80.4106C962.049 79.34 961.88 78.5042 961.542 77.9033C961.203 77.2982 960.733 76.9956 960.132 76.9956C959.531 76.9956 959.057 77.2982 958.71 77.9033C958.368 78.5085 958.196 79.3421 958.196 80.4043C958.196 81.4834 958.366 82.3276 958.704 82.937C959.047 83.5422 959.523 83.8447 960.132 83.8447ZM966.112 85.0698C965.854 85.0698 965.636 84.9831 965.458 84.8096C965.285 84.6318 965.198 84.4139 965.198 84.1558C965.198 83.9019 965.285 83.686 965.458 83.5083C965.636 83.3306 965.854 83.2417 966.112 83.2417C966.366 83.2417 966.58 83.3306 966.753 83.5083C966.931 83.686 967.02 83.9019 967.02 84.1558C967.02 84.4139 966.931 84.6318 966.753 84.8096C966.58 84.9831 966.366 85.0698 966.112 85.0698ZM972.269 85.1841C971.152 85.1841 970.274 84.7588 969.635 83.9082C969 83.0534 968.683 81.8875 968.683 80.4106C968.683 78.9422 969.002 77.7827 969.641 76.9321C970.28 76.0815 971.156 75.6562 972.269 75.6562C973.382 75.6562 974.256 76.0815 974.891 76.9321C975.526 77.7785 975.843 78.9359 975.843 80.4043C975.843 81.877 975.526 83.0428 974.891 83.9019C974.256 84.7567 973.382 85.1841 972.269 85.1841ZM972.269 83.8447C972.874 83.8447 973.344 83.5422 973.678 82.937C974.017 82.3319 974.186 81.4897 974.186 80.4106C974.186 79.34 974.017 78.5042 973.678 77.9033C973.34 77.2982 972.87 76.9956 972.269 76.9956C971.668 76.9956 971.194 77.2982 970.847 77.9033C970.505 78.5085 970.333 79.3421 970.333 80.4043C970.333 81.4834 970.502 82.3276 970.841 82.937C971.184 83.5422 971.66 83.8447 972.269 83.8447ZM978.223 86.9614H976.789L980.039 75.8403H981.473L978.223 86.9614ZM982.464 78.5571C982.464 77.7108 982.768 77.0168 983.378 76.4751C983.987 75.9292 984.766 75.6562 985.714 75.6562C986.624 75.6562 987.373 75.9038 987.961 76.3989C988.553 76.894 988.85 77.514 988.85 78.2588C988.85 78.7708 988.706 79.2554 988.418 79.7124C988.134 80.1652 987.663 80.7238 987.002 81.3882L984.736 83.6289V83.6606H988.989V85H982.553V83.8955L985.923 80.5439C986.444 80.0107 986.795 79.5939 986.977 79.2935C987.159 78.993 987.25 78.6714 987.25 78.3286C987.25 77.9478 987.098 77.6261 986.793 77.3638C986.492 77.1014 986.116 76.9702 985.663 76.9702C985.185 76.9702 984.787 77.1204 984.47 77.4209C984.156 77.7214 984 78.098 984 78.5508V78.5762H982.464V78.5571Z" fill="#615E69"/>
<rect width="1100" height="1" transform="translate(0 96)" fill="#E8E8EA"/>
<rect width="1100" height="33" transform="translate(0 97)" fill="white"/>
<path d="M180.132 118.184C179.015 118.184 178.137 117.759 177.498 116.908C176.863 116.053 176.546 114.888 176.546 113.411C176.546 111.942 176.865 110.783 177.504 109.932C178.143 109.082 179.019 108.656 180.132 108.656C181.245 108.656 182.119 109.082 182.754 109.932C183.389 110.778 183.706 111.936 183.706 113.404C183.706 114.877 183.389 116.043 182.754 116.902C182.119 117.757 181.245 118.184 180.132 118.184ZM180.132 116.845C180.737 116.845 181.207 116.542 181.542 115.937C181.88 115.332 182.049 114.49 182.049 113.411C182.049 112.34 181.88 111.504 181.542 110.903C181.203 110.298 180.733 109.996 180.132 109.996C179.531 109.996 179.057 110.298 178.71 110.903C178.368 111.508 178.196 112.342 178.196 113.404C178.196 114.483 178.366 115.328 178.704 115.937C179.047 116.542 179.523 116.845 180.132 116.845Z" fill="#615E69"/>
<path d="M291.561 118.184C290.444 118.184 289.566 117.759 288.927 116.908C288.292 116.053 287.975 114.888 287.975 113.411C287.975 111.942 288.294 110.783 288.933 109.932C289.572 109.082 290.448 108.656 291.561 108.656C292.674 108.656 293.548 109.082 294.183 109.932C294.817 110.778 295.135 111.936 295.135 113.404C295.135 114.877 294.817 116.043 294.183 116.902C293.548 117.757 292.674 118.184 291.561 118.184ZM291.561 116.845C292.166 116.845 292.636 116.542 292.97 115.937C293.309 115.332 293.478 114.49 293.478 113.411C293.478 112.34 293.309 111.504 292.97 110.903C292.632 110.298 292.162 109.996 291.561 109.996C290.96 109.996 290.486 110.298 290.139 110.903C289.796 111.508 289.625 112.342 289.625 113.404C289.625 114.483 289.794 115.328 290.133 115.937C290.476 116.542 290.952 116.845 291.561 116.845Z" fill="#615E69"/>
<path d="M401.847 118V110.402H401.809L399.441 112.065V110.522L401.834 108.84H403.453V118H401.847ZM409.458 118.184C408.34 118.184 407.462 117.759 406.823 116.908C406.189 116.053 405.871 114.888 405.871 113.411C405.871 111.942 406.191 110.783 406.83 109.932C407.469 109.082 408.345 108.656 409.458 108.656C410.571 108.656 411.444 109.082 412.079 109.932C412.714 110.778 413.031 111.936 413.031 113.404C413.031 114.877 412.714 116.043 412.079 116.902C411.444 117.757 410.571 118.184 409.458 118.184ZM409.458 116.845C410.063 116.845 410.532 116.542 410.867 115.937C411.205 115.332 411.375 114.49 411.375 113.411C411.375 112.34 411.205 111.504 410.867 110.903C410.528 110.298 410.059 109.996 409.458 109.996C408.857 109.996 408.383 110.298 408.036 110.903C407.693 111.508 407.522 112.342 407.522 113.404C407.522 114.483 407.691 115.328 408.029 115.937C408.372 116.542 408.848 116.845 409.458 116.845ZM418.11 118.184C416.992 118.184 416.114 117.759 415.475 116.908C414.841 116.053 414.523 114.888 414.523 113.411C414.523 111.942 414.843 110.783 415.482 109.932C416.121 109.082 416.997 108.656 418.11 108.656C419.223 108.656 420.096 109.082 420.731 109.932C421.366 110.778 421.683 111.936 421.683 113.404C421.683 114.877 421.366 116.043 420.731 116.902C420.096 117.757 419.223 118.184 418.11 118.184ZM418.11 116.845C418.715 116.845 419.184 116.542 419.519 115.937C419.857 115.332 420.027 114.49 420.027 113.411C420.027 112.34 419.857 111.504 419.519 110.903C419.18 110.298 418.71 109.996 418.11 109.996C417.509 109.996 417.035 110.298 416.688 110.903C416.345 111.508 416.174 112.342 416.174 113.404C416.174 114.483 416.343 115.328 416.681 115.937C417.024 116.542 417.5 116.845 418.11 116.845Z" fill="#615E69"/>
<path d="M513.275 118V110.402H513.237L510.87 112.065V110.522L513.263 108.84H514.881V118H513.275ZM520.886 118.184C519.769 118.184 518.891 117.759 518.252 116.908C517.617 116.053 517.3 114.888 517.3 113.411C517.3 111.942 517.619 110.783 518.258 109.932C518.897 109.082 519.773 108.656 520.886 108.656C521.999 108.656 522.873 109.082 523.508 109.932C524.143 110.778 524.46 111.936 524.46 113.404C524.46 114.877 524.143 116.043 523.508 116.902C522.873 117.757 521.999 118.184 520.886 118.184ZM520.886 116.845C521.491 116.845 521.961 116.542 522.296 115.937C522.634 115.332 522.803 114.49 522.803 113.411C522.803 112.34 522.634 111.504 522.296 110.903C521.957 110.298 521.487 109.996 520.886 109.996C520.285 109.996 519.811 110.298 519.464 110.903C519.122 111.508 518.95 112.342 518.95 113.404C518.95 114.483 519.12 115.328 519.458 115.937C519.801 116.542 520.277 116.845 520.886 116.845ZM529.538 118.184C528.421 118.184 527.543 117.759 526.904 116.908C526.269 116.053 525.952 114.888 525.952 113.411C525.952 111.942 526.271 110.783 526.91 109.932C527.549 109.082 528.425 108.656 529.538 108.656C530.651 108.656 531.525 109.082 532.16 109.932C532.795 110.778 533.112 111.936 533.112 113.404C533.112 114.877 532.795 116.043 532.16 116.902C531.525 117.757 530.651 118.184 529.538 118.184ZM529.538 116.845C530.143 116.845 530.613 116.542 530.947 115.937C531.286 115.332 531.455 114.49 531.455 113.411C531.455 112.34 531.286 111.504 530.947 110.903C530.609 110.298 530.139 109.996 529.538 109.996C528.937 109.996 528.463 110.298 528.116 110.903C527.774 111.508 527.602 112.342 527.602 113.404C527.602 114.483 527.772 115.328 528.11 115.937C528.453 116.542 528.929 116.845 529.538 116.845Z" fill="#615E69"/>
<path d="M624.704 118V110.402H624.666L622.298 112.065V110.522L624.691 108.84H626.31V118H624.704ZM632.315 118.184C631.198 118.184 630.32 117.759 629.681 116.908C629.046 116.053 628.729 114.888 628.729 113.411C628.729 111.942 629.048 110.783 629.687 109.932C630.326 109.082 631.202 108.656 632.315 108.656C633.428 108.656 634.302 109.082 634.937 109.932C635.571 110.778 635.889 111.936 635.889 113.404C635.889 114.877 635.571 116.043 634.937 116.902C634.302 117.757 633.428 118.184 632.315 118.184ZM632.315 116.845C632.92 116.845 633.39 116.542 633.724 115.937C634.063 115.332 634.232 114.49 634.232 113.411C634.232 112.34 634.063 111.504 633.724 110.903C633.386 110.298 632.916 109.996 632.315 109.996C631.714 109.996 631.24 110.298 630.893 110.903C630.55 111.508 630.379 112.342 630.379 113.404C630.379 114.483 630.548 115.328 630.887 115.937C631.23 116.542 631.706 116.845 632.315 116.845ZM640.967 118.184C639.85 118.184 638.972 117.759 638.333 116.908C637.698 116.053 637.381 114.888 637.381 113.411C637.381 111.942 637.7 110.783 638.339 109.932C638.978 109.082 639.854 108.656 640.967 108.656C642.08 108.656 642.954 109.082 643.589 109.932C644.223 110.778 644.541 111.936 644.541 113.404C644.541 114.877 644.223 116.043 643.589 116.902C642.954 117.757 642.08 118.184 640.967 118.184ZM640.967 116.845C641.572 116.845 642.042 116.542 642.376 115.937C642.715 115.332 642.884 114.49 642.884 113.411C642.884 112.34 642.715 111.504 642.376 110.903C642.038 110.298 641.568 109.996 640.967 109.996C640.366 109.996 639.892 110.298 639.545 110.903C639.202 111.508 639.031 112.342 639.031 113.404C639.031 114.483 639.2 115.328 639.539 115.937C639.882 116.542 640.358 116.845 640.967 116.845Z" fill="#615E69"/>
<rect width="111.429" height="32" transform="translate(717.143 97)" fill="white"/>
<path d="M736.133 118V110.402H736.094L733.727 112.065V110.522L736.12 108.84H737.739V118H736.133ZM743.744 118.184C742.626 118.184 741.748 117.759 741.109 116.908C740.474 116.053 740.157 114.888 740.157 113.411C740.157 111.942 740.477 110.783 741.116 109.932C741.755 109.082 742.631 108.656 743.744 108.656C744.856 108.656 745.73 109.082 746.365 109.932C747 110.778 747.317 111.936 747.317 113.404C747.317 114.877 747 116.043 746.365 116.902C745.73 117.757 744.856 118.184 743.744 118.184ZM743.744 116.845C744.349 116.845 744.818 116.542 745.153 115.937C745.491 115.332 745.66 114.49 745.66 113.411C745.66 112.34 745.491 111.504 745.153 110.903C744.814 110.298 744.344 109.996 743.744 109.996C743.143 109.996 742.669 110.298 742.322 110.903C741.979 111.508 741.807 112.342 741.807 113.404C741.807 114.483 741.977 115.328 742.315 115.937C742.658 116.542 743.134 116.845 743.744 116.845ZM752.395 118.184C751.278 118.184 750.4 117.759 749.761 116.908C749.126 116.053 748.809 114.888 748.809 113.411C748.809 111.942 749.129 110.783 749.768 109.932C750.407 109.082 751.283 108.656 752.395 108.656C753.508 108.656 754.382 109.082 755.017 109.932C755.652 110.778 755.969 111.936 755.969 113.404C755.969 114.877 755.652 116.043 755.017 116.902C754.382 117.757 753.508 118.184 752.395 118.184ZM752.395 116.845C753.001 116.845 753.47 116.542 753.805 115.937C754.143 115.332 754.312 114.49 754.312 113.411C754.312 112.34 754.143 111.504 753.805 110.903C753.466 110.298 752.996 109.996 752.395 109.996C751.795 109.996 751.321 110.298 750.974 110.903C750.631 111.508 750.459 112.342 750.459 113.404C750.459 114.483 750.629 115.328 750.967 115.937C751.31 116.542 751.786 116.845 752.395 116.845Z" fill="#615E69"/>
<path d="M847.561 118V110.402H847.523L845.156 112.065V110.522L847.549 108.84H849.167V118H847.561ZM855.172 118.184C854.055 118.184 853.177 117.759 852.538 116.908C851.903 116.053 851.586 114.888 851.586 113.411C851.586 111.942 851.905 110.783 852.544 109.932C853.183 109.082 854.059 108.656 855.172 108.656C856.285 108.656 857.159 109.082 857.794 109.932C858.429 110.778 858.746 111.936 858.746 113.404C858.746 114.877 858.429 116.043 857.794 116.902C857.159 117.757 856.285 118.184 855.172 118.184ZM855.172 116.845C855.777 116.845 856.247 116.542 856.581 115.937C856.92 115.332 857.089 114.49 857.089 113.411C857.089 112.34 856.92 111.504 856.581 110.903C856.243 110.298 855.773 109.996 855.172 109.996C854.571 109.996 854.097 110.298 853.75 110.903C853.408 111.508 853.236 112.342 853.236 113.404C853.236 114.483 853.405 115.328 853.744 115.937C854.087 116.542 854.563 116.845 855.172 116.845ZM863.824 118.184C862.707 118.184 861.829 117.759 861.19 116.908C860.555 116.053 860.238 114.888 860.238 113.411C860.238 111.942 860.557 110.783 861.196 109.932C861.835 109.082 862.711 108.656 863.824 108.656C864.937 108.656 865.811 109.082 866.446 109.932C867.081 110.778 867.398 111.936 867.398 113.404C867.398 114.877 867.081 116.043 866.446 116.902C865.811 117.757 864.937 118.184 863.824 118.184ZM863.824 116.845C864.429 116.845 864.899 116.542 865.233 115.937C865.572 115.332 865.741 114.49 865.741 113.411C865.741 112.34 865.572 111.504 865.233 110.903C864.895 110.298 864.425 109.996 863.824 109.996C863.223 109.996 862.749 110.298 862.402 110.903C862.06 111.508 861.888 112.342 861.888 113.404C861.888 114.483 862.057 115.328 862.396 115.937C862.739 116.542 863.215 116.845 863.824 116.845Z" fill="#615E69"/>
<rect width="160" height="32" transform="translate(940 97)" fill="#FEEAEA"/>
<path d="M960.132 118.184C959.015 118.184 958.137 117.759 957.498 116.908C956.863 116.053 956.546 114.888 956.546 113.411C956.546 111.942 956.865 110.783 957.504 109.932C958.143 109.082 959.019 108.656 960.132 108.656C961.245 108.656 962.119 109.082 962.754 109.932C963.389 110.778 963.706 111.936 963.706 113.404C963.706 114.877 963.389 116.043 962.754 116.902C962.119 117.757 961.245 118.184 960.132 118.184ZM960.132 116.845C960.737 116.845 961.207 116.542 961.542 115.937C961.88 115.332 962.049 114.49 962.049 113.411C962.049 112.34 961.88 111.504 961.542 110.903C961.203 110.298 960.733 109.996 960.132 109.996C959.531 109.996 959.057 110.298 958.71 110.903C958.368 111.508 958.196 112.342 958.196 113.404C958.196 114.483 958.366 115.328 958.704 115.937C959.047 116.542 959.523 116.845 960.132 116.845ZM966.112 118.07C965.854 118.07 965.636 117.983 965.458 117.81C965.285 117.632 965.198 117.414 965.198 117.156C965.198 116.902 965.285 116.686 965.458 116.508C965.636 116.331 965.854 116.242 966.112 116.242C966.366 116.242 966.58 116.331 966.753 116.508C966.931 116.686 967.02 116.902 967.02 117.156C967.02 117.414 966.931 117.632 966.753 117.81C966.58 117.983 966.366 118.07 966.112 118.07ZM972.269 118.184C971.152 118.184 970.274 117.759 969.635 116.908C969 116.053 968.683 114.888 968.683 113.411C968.683 111.942 969.002 110.783 969.641 109.932C970.28 109.082 971.156 108.656 972.269 108.656C973.382 108.656 974.256 109.082 974.891 109.932C975.526 110.778 975.843 111.936 975.843 113.404C975.843 114.877 975.526 116.043 974.891 116.902C974.256 117.757 973.382 118.184 972.269 118.184ZM972.269 116.845C972.874 116.845 973.344 116.542 973.678 115.937C974.017 115.332 974.186 114.49 974.186 113.411C974.186 112.34 974.017 111.504 973.678 110.903C973.34 110.298 972.87 109.996 972.269 109.996C971.668 109.996 971.194 110.298 970.847 110.903C970.505 111.508 970.333 112.342 970.333 113.404C970.333 114.483 970.502 115.328 970.841 115.937C971.184 116.542 971.66 116.845 972.269 116.845ZM978.223 119.961H976.789L980.039 108.84H981.473L978.223 119.961ZM982.464 111.557C982.464 110.711 982.768 110.017 983.378 109.475C983.987 108.929 984.766 108.656 985.714 108.656C986.624 108.656 987.373 108.904 987.961 109.399C988.553 109.894 988.85 110.514 988.85 111.259C988.85 111.771 988.706 112.255 988.418 112.712C988.134 113.165 987.663 113.724 987.002 114.388L984.736 116.629V116.661H988.989V118H982.553V116.896L985.923 113.544C986.444 113.011 986.795 112.594 986.977 112.293C987.159 111.993 987.25 111.671 987.25 111.329C987.25 110.948 987.098 110.626 986.793 110.364C986.492 110.101 986.116 109.97 985.663 109.97C985.185 109.97 984.787 110.12 984.47 110.421C984.156 110.721 984 111.098 984 111.551V111.576H982.464V111.557Z" fill="#615E69"/>
<rect width="1100" height="1" transform="translate(0 129)" fill="#E8E8EA"/>
<rect width="1100" height="33" transform="translate(0 130)" fill="white"/>
<rect width="160" height="32" transform="translate(0 130)" fill="#FEEAEA"/>
<path d="M18.4438 151H16.8062V141.84H18.4438V151ZM20.2975 151V144.271H21.8146V145.427H21.8463C22.0325 145.021 22.3033 144.705 22.6588 144.481C23.0185 144.257 23.4522 144.145 23.9601 144.145C24.6964 144.145 25.2677 144.367 25.6739 144.811C26.0844 145.255 26.2896 145.869 26.2896 146.652V151H24.7091V146.969C24.7091 146.487 24.5948 146.119 24.3663 145.865C24.142 145.611 23.8077 145.484 23.3634 145.484C22.9106 145.484 22.5488 145.632 22.2779 145.928C22.0113 146.224 21.878 146.616 21.878 147.103V151H20.2975ZM28.3972 142.697H29.9777V144.271H31.2473V145.49H29.9777V148.988C29.9777 149.263 30.0433 149.466 30.1745 149.597C30.3057 149.728 30.5109 149.794 30.7902 149.794C30.9764 149.794 31.1267 149.783 31.2409 149.762V150.968C31.0505 151.011 30.7775 151.032 30.4221 151.032C29.6942 151.032 29.1737 150.892 28.8605 150.613C28.5516 150.333 28.3972 149.866 28.3972 149.21V145.49H27.4323V144.271H28.3972V142.697ZM35.5003 145.357C35.0602 145.357 34.692 145.509 34.3958 145.814C34.1038 146.114 33.9409 146.502 33.907 146.976H37.0491C37.0322 146.497 36.882 146.108 36.5984 145.808C36.3149 145.507 35.9489 145.357 35.5003 145.357ZM37.0555 148.988H38.5345C38.4329 149.627 38.1092 150.145 37.5633 150.543C37.0174 150.937 36.3488 151.133 35.5574 151.133C34.5503 151.133 33.7589 150.824 33.1834 150.207C32.6079 149.584 32.3201 148.736 32.3201 147.661C32.3201 146.595 32.6058 145.74 33.1771 145.097C33.7526 144.453 34.5249 144.132 35.4939 144.132C36.4461 144.132 37.2015 144.439 37.7601 145.052C38.3187 145.662 38.5979 146.478 38.5979 147.502V148.017H33.8943V148.112C33.8943 148.653 34.0467 149.089 34.3514 149.419C34.6603 149.75 35.0729 149.915 35.5892 149.915C35.9531 149.915 36.2662 149.832 36.5286 149.667C36.7952 149.498 36.9708 149.271 37.0555 148.988ZM40.0199 151V144.271H41.537V145.446H41.5688C41.683 145.035 41.8798 144.718 42.1591 144.494C42.4426 144.269 42.7833 144.157 43.1811 144.157C43.3207 144.157 43.4857 144.178 43.6762 144.221V145.649C43.5196 145.59 43.3059 145.56 43.0351 145.56C42.5865 145.56 42.2353 145.695 41.9813 145.966C41.7274 146.237 41.6005 146.61 41.6005 147.083V151H40.0199Z" fill="#615E69"/>
<rect width="111.429" height="32" transform="translate(160 130)" fill="#A5A3A9"/>
<rect width="111.429" height="32" transform="translate(271.429 130)" fill="#A5A3A9"/>
<rect width="111.429" height="32" transform="translate(382.857 130)" fill="#A5A3A9"/>
<rect width="111.429" height="32" transform="translate(494.286 130)" fill="#A5A3A9"/>
<rect width="111.429" height="32" transform="translate(605.714 130)" fill="#FFF8DD"/>
<path d="M625.847 151.184C624.729 151.184 623.851 150.759 623.212 149.908C622.578 149.053 622.26 147.888 622.26 146.411C622.26 144.942 622.58 143.783 623.219 142.932C623.858 142.082 624.734 141.656 625.847 141.656C626.96 141.656 627.833 142.082 628.468 142.932C629.103 143.778 629.42 144.936 629.42 146.404C629.42 147.877 629.103 149.043 628.468 149.902C627.833 150.757 626.96 151.184 625.847 151.184ZM625.847 149.845C626.452 149.845 626.922 149.542 627.256 148.937C627.594 148.332 627.764 147.49 627.764 146.411C627.764 145.34 627.594 144.504 627.256 143.903C626.917 143.298 626.448 142.996 625.847 142.996C625.246 142.996 624.772 143.298 624.425 143.903C624.082 144.508 623.911 145.342 623.911 146.404C623.911 147.483 624.08 148.328 624.418 148.937C624.761 149.542 625.237 149.845 625.847 149.845Z" fill="#615E69"/>
<rect width="111.429" height="32" transform="translate(717.143 130)" fill="#FFF8DD"/>
<path d="M737.275 151.184C736.158 151.184 735.28 150.759 734.641 149.908C734.006 149.053 733.689 147.888 733.689 146.411C733.689 144.942 734.008 143.783 734.647 142.932C735.286 142.082 736.162 141.656 737.275 141.656C738.388 141.656 739.262 142.082 739.897 142.932C740.531 143.778 740.849 144.936 740.849 146.404C740.849 147.877 740.531 149.043 739.897 149.902C739.262 150.757 738.388 151.184 737.275 151.184ZM737.275 149.845C737.88 149.845 738.35 149.542 738.684 148.937C739.023 148.332 739.192 147.49 739.192 146.411C739.192 145.34 739.023 144.504 738.684 143.903C738.346 143.298 737.876 142.996 737.275 142.996C736.674 142.996 736.2 143.298 735.853 143.903C735.51 144.508 735.339 145.342 735.339 146.404C735.339 147.483 735.508 148.328 735.847 148.937C736.19 149.542 736.666 149.845 737.275 149.845Z" fill="#615E69"/>
<rect width="111.429" height="32" transform="translate(828.572 130)" fill="#FFF8DD"/>
<path d="M848.704 151.184C847.587 151.184 846.709 150.759 846.07 149.908C845.435 149.053 845.117 147.888 845.117 146.411C845.117 144.942 845.437 143.783 846.076 142.932C846.715 142.082 847.591 141.656 848.704 141.656C849.817 141.656 850.691 142.082 851.325 142.932C851.96 143.778 852.278 144.936 852.278 146.404C852.278 147.877 851.96 149.043 851.325 149.902C850.691 150.757 849.817 151.184 848.704 151.184ZM848.704 149.845C849.309 149.845 849.779 149.542 850.113 148.937C850.452 148.332 850.621 147.49 850.621 146.411C850.621 145.34 850.452 144.504 850.113 143.903C849.774 143.298 849.305 142.996 848.704 142.996C848.103 142.996 847.629 143.298 847.282 143.903C846.939 144.508 846.768 145.342 846.768 146.404C846.768 147.483 846.937 148.328 847.276 148.937C847.618 149.542 848.094 149.845 848.704 149.845Z" fill="#615E69"/>
<path d="M960.132 151.184C959.015 151.184 958.137 150.759 957.498 149.908C956.863 149.053 956.546 147.888 956.546 146.411C956.546 144.942 956.865 143.783 957.504 142.932C958.143 142.082 959.019 141.656 960.132 141.656C961.245 141.656 962.119 142.082 962.754 142.932C963.389 143.778 963.706 144.936 963.706 146.404C963.706 147.877 963.389 149.043 962.754 149.902C962.119 150.757 961.245 151.184 960.132 151.184ZM960.132 149.845C960.737 149.845 961.207 149.542 961.542 148.937C961.88 148.332 962.049 147.49 962.049 146.411C962.049 145.34 961.88 144.504 961.542 143.903C961.203 143.298 960.733 142.996 960.132 142.996C959.531 142.996 959.057 143.298 958.71 143.903C958.368 144.508 958.196 145.342 958.196 146.404C958.196 147.483 958.366 148.328 958.704 148.937C959.047 149.542 959.523 149.845 960.132 149.845ZM966.112 151.07C965.854 151.07 965.636 150.983 965.458 150.81C965.285 150.632 965.198 150.414 965.198 150.156C965.198 149.902 965.285 149.686 965.458 149.508C965.636 149.331 965.854 149.242 966.112 149.242C966.366 149.242 966.58 149.331 966.753 149.508C966.931 149.686 967.02 149.902 967.02 150.156C967.02 150.414 966.931 150.632 966.753 150.81C966.58 150.983 966.366 151.07 966.112 151.07ZM972.269 151.184C971.152 151.184 970.274 150.759 969.635 149.908C969 149.053 968.683 147.888 968.683 146.411C968.683 144.942 969.002 143.783 969.641 142.932C970.28 142.082 971.156 141.656 972.269 141.656C973.382 141.656 974.256 142.082 974.891 142.932C975.526 143.778 975.843 144.936 975.843 146.404C975.843 147.877 975.526 149.043 974.891 149.902C974.256 150.757 973.382 151.184 972.269 151.184ZM972.269 149.845C972.874 149.845 973.344 149.542 973.678 148.937C974.017 148.332 974.186 147.49 974.186 146.411C974.186 145.34 974.017 144.504 973.678 143.903C973.34 143.298 972.87 142.996 972.269 142.996C971.668 142.996 971.194 143.298 970.847 143.903C970.505 144.508 970.333 145.342 970.333 146.404C970.333 147.483 970.502 148.328 970.841 148.937C971.184 149.542 971.66 149.845 972.269 149.845ZM978.223 152.961H976.789L980.039 141.84H981.473L978.223 152.961ZM984.654 146.918V145.687H985.758C986.228 145.687 986.609 145.558 986.901 145.3C987.193 145.037 987.339 144.701 987.339 144.291C987.339 143.884 987.199 143.561 986.92 143.319C986.645 143.078 986.255 142.958 985.752 142.958C985.282 142.958 984.899 143.087 984.603 143.345C984.307 143.599 984.142 143.939 984.108 144.367H982.584C982.631 143.542 982.946 142.883 983.53 142.393C984.118 141.902 984.884 141.656 985.828 141.656C986.734 141.656 987.474 141.881 988.05 142.329C988.625 142.778 988.913 143.357 988.913 144.068C988.913 144.631 988.739 145.107 988.392 145.497C988.05 145.882 987.593 146.123 987.021 146.22V146.258C987.711 146.309 988.259 146.533 988.665 146.931C989.076 147.325 989.281 147.839 989.281 148.474C989.281 149.278 988.953 149.931 988.297 150.435C987.646 150.934 986.816 151.184 985.809 151.184C984.81 151.184 984.004 150.934 983.391 150.435C982.777 149.931 982.449 149.269 982.407 148.448H983.968C984.006 148.871 984.19 149.21 984.52 149.464C984.85 149.718 985.284 149.845 985.822 149.845C986.351 149.845 986.782 149.711 987.117 149.445C987.451 149.178 987.618 148.833 987.618 148.41C987.618 147.949 987.453 147.585 987.123 147.318C986.797 147.052 986.351 146.918 985.784 146.918H984.654Z" fill="#615E69"/>
<rect width="1100" height="1" transform="translate(0 162)" fill="#E8E8EA"/>
<rect width="1100" height="33" transform="translate(0 163)" fill="white"/>
<path d="M180.069 184.184C179.125 184.184 178.342 183.928 177.72 183.416C177.098 182.9 176.77 182.235 176.736 181.423H178.272C178.323 181.846 178.516 182.191 178.85 182.458C179.189 182.724 179.599 182.857 180.082 182.857C180.627 182.857 181.07 182.686 181.408 182.343C181.751 182 181.922 181.558 181.922 181.017C181.922 180.466 181.751 180.018 181.408 179.671C181.07 179.32 180.632 179.144 180.094 179.144C179.722 179.144 179.381 179.224 179.072 179.385C178.768 179.546 178.531 179.77 178.361 180.058H176.876L177.352 174.84H182.963V176.18H178.647L178.412 178.858H178.45C178.641 178.562 178.916 178.329 179.275 178.16C179.635 177.987 180.039 177.9 180.488 177.9C181.364 177.9 182.085 178.19 182.652 178.77C183.219 179.345 183.503 180.079 183.503 180.972C183.503 181.924 183.183 182.699 182.544 183.295C181.91 183.888 181.084 184.184 180.069 184.184Z" fill="#615E69"/>
<path d="M291.498 184.184C290.554 184.184 289.771 183.928 289.149 183.416C288.527 182.9 288.199 182.235 288.165 181.423H289.701C289.752 181.846 289.944 182.191 290.279 182.458C290.617 182.724 291.028 182.857 291.51 182.857C292.056 182.857 292.498 182.686 292.837 182.343C293.18 182 293.351 181.558 293.351 181.017C293.351 180.466 293.18 180.018 292.837 179.671C292.498 179.32 292.06 179.144 291.523 179.144C291.151 179.144 290.81 179.224 290.501 179.385C290.196 179.546 289.959 179.77 289.79 180.058H288.305L288.781 174.84H294.392V176.18H290.076L289.841 178.858H289.879C290.069 178.562 290.344 178.329 290.704 178.16C291.064 177.987 291.468 177.9 291.917 177.9C292.792 177.9 293.514 178.19 294.081 178.77C294.648 179.345 294.932 180.079 294.932 180.972C294.932 181.924 294.612 182.699 293.973 183.295C293.338 183.888 292.513 184.184 291.498 184.184Z" fill="#615E69"/>
<path d="M401.847 184V176.402H401.809L399.441 178.065V176.522L401.834 174.84H403.453V184H401.847ZM409.458 184.184C408.34 184.184 407.462 183.759 406.823 182.908C406.189 182.053 405.871 180.888 405.871 179.411C405.871 177.942 406.191 176.783 406.83 175.932C407.469 175.082 408.345 174.656 409.458 174.656C410.571 174.656 411.444 175.082 412.079 175.932C412.714 176.778 413.031 177.936 413.031 179.404C413.031 180.877 412.714 182.043 412.079 182.902C411.444 183.757 410.571 184.184 409.458 184.184ZM409.458 182.845C410.063 182.845 410.532 182.542 410.867 181.937C411.205 181.332 411.375 180.49 411.375 179.411C411.375 178.34 411.205 177.504 410.867 176.903C410.528 176.298 410.059 175.996 409.458 175.996C408.857 175.996 408.383 176.298 408.036 176.903C407.693 177.508 407.522 178.342 407.522 179.404C407.522 180.483 407.691 181.328 408.029 181.937C408.372 182.542 408.848 182.845 409.458 182.845ZM418.11 184.184C416.992 184.184 416.114 183.759 415.475 182.908C414.841 182.053 414.523 180.888 414.523 179.411C414.523 177.942 414.843 176.783 415.482 175.932C416.121 175.082 416.997 174.656 418.11 174.656C419.223 174.656 420.096 175.082 420.731 175.932C421.366 176.778 421.683 177.936 421.683 179.404C421.683 180.877 421.366 182.043 420.731 182.902C420.096 183.757 419.223 184.184 418.11 184.184ZM418.11 182.845C418.715 182.845 419.184 182.542 419.519 181.937C419.857 181.332 420.027 180.49 420.027 179.411C420.027 178.34 419.857 177.504 419.519 176.903C419.18 176.298 418.71 175.996 418.11 175.996C417.509 175.996 417.035 176.298 416.688 176.903C416.345 177.508 416.174 178.342 416.174 179.404C416.174 180.483 416.343 181.328 416.681 181.937C417.024 182.542 417.5 182.845 418.11 182.845Z" fill="#615E69"/>
<path d="M513.275 184V176.402H513.237L510.87 178.065V176.522L513.263 174.84H514.881V184H513.275ZM520.886 184.184C519.769 184.184 518.891 183.759 518.252 182.908C517.617 182.053 517.3 180.888 517.3 179.411C517.3 177.942 517.619 176.783 518.258 175.932C518.897 175.082 519.773 174.656 520.886 174.656C521.999 174.656 522.873 175.082 523.508 175.932C524.143 176.778 524.46 177.936 524.46 179.404C524.46 180.877 524.143 182.043 523.508 182.902C522.873 183.757 521.999 184.184 520.886 184.184ZM520.886 182.845C521.491 182.845 521.961 182.542 522.296 181.937C522.634 181.332 522.803 180.49 522.803 179.411C522.803 178.34 522.634 177.504 522.296 176.903C521.957 176.298 521.487 175.996 520.886 175.996C520.285 175.996 519.811 176.298 519.464 176.903C519.122 177.508 518.95 178.342 518.95 179.404C518.95 180.483 519.12 181.328 519.458 181.937C519.801 182.542 520.277 182.845 520.886 182.845ZM529.538 184.184C528.421 184.184 527.543 183.759 526.904 182.908C526.269 182.053 525.952 180.888 525.952 179.411C525.952 177.942 526.271 176.783 526.91 175.932C527.549 175.082 528.425 174.656 529.538 174.656C530.651 174.656 531.525 175.082 532.16 175.932C532.795 176.778 533.112 177.936 533.112 179.404C533.112 180.877 532.795 182.043 532.16 182.902C531.525 183.757 530.651 184.184 529.538 184.184ZM529.538 182.845C530.143 182.845 530.613 182.542 530.947 181.937C531.286 181.332 531.455 180.49 531.455 179.411C531.455 178.34 531.286 177.504 530.947 176.903C530.609 176.298 530.139 175.996 529.538 175.996C528.937 175.996 528.463 176.298 528.116 176.903C527.774 177.508 527.602 178.342 527.602 179.404C527.602 180.483 527.772 181.328 528.11 181.937C528.453 182.542 528.929 182.845 529.538 182.845Z" fill="#615E69"/>
<path d="M625.847 184.184C624.729 184.184 623.851 183.759 623.212 182.908C622.578 182.053 622.26 180.888 622.26 179.411C622.26 177.942 622.58 176.783 623.219 175.932C623.858 175.082 624.734 174.656 625.847 174.656C626.96 174.656 627.833 175.082 628.468 175.932C629.103 176.778 629.42 177.936 629.42 179.404C629.42 180.877 629.103 182.043 628.468 182.902C627.833 183.757 626.96 184.184 625.847 184.184ZM625.847 182.845C626.452 182.845 626.922 182.542 627.256 181.937C627.594 181.332 627.764 180.49 627.764 179.411C627.764 178.34 627.594 177.504 627.256 176.903C626.917 176.298 626.448 175.996 625.847 175.996C625.246 175.996 624.772 176.298 624.425 176.903C624.082 177.508 623.911 178.342 623.911 179.404C623.911 180.483 624.08 181.328 624.418 181.937C624.761 182.542 625.237 182.845 625.847 182.845Z" fill="#615E69"/>
<path d="M737.275 184.184C736.158 184.184 735.28 183.759 734.641 182.908C734.006 182.053 733.689 180.888 733.689 179.411C733.689 177.942 734.008 176.783 734.647 175.932C735.286 175.082 736.162 174.656 737.275 174.656C738.388 174.656 739.262 175.082 739.897 175.932C740.531 176.778 740.849 177.936 740.849 179.404C740.849 180.877 740.531 182.043 739.897 182.902C739.262 183.757 738.388 184.184 737.275 184.184ZM737.275 182.845C737.88 182.845 738.35 182.542 738.684 181.937C739.023 181.332 739.192 180.49 739.192 179.411C739.192 178.34 739.023 177.504 738.684 176.903C738.346 176.298 737.876 175.996 737.275 175.996C736.674 175.996 736.2 176.298 735.853 176.903C735.51 177.508 735.339 178.342 735.339 179.404C735.339 180.483 735.508 181.328 735.847 181.937C736.19 182.542 736.666 182.845 737.275 182.845Z" fill="#615E69"/>
<path d="M848.704 184.184C847.587 184.184 846.709 183.759 846.07 182.908C845.435 182.053 845.117 180.888 845.117 179.411C845.117 177.942 845.437 176.783 846.076 175.932C846.715 175.082 847.591 174.656 848.704 174.656C849.817 174.656 850.691 175.082 851.325 175.932C851.96 176.778 852.278 177.936 852.278 179.404C852.278 180.877 851.96 182.043 851.325 182.902C850.691 183.757 849.817 184.184 848.704 184.184ZM848.704 182.845C849.309 182.845 849.779 182.542 850.113 181.937C850.452 181.332 850.621 180.49 850.621 179.411C850.621 178.34 850.452 177.504 850.113 176.903C849.774 176.298 849.305 175.996 848.704 175.996C848.103 175.996 847.629 176.298 847.282 176.903C846.939 177.508 846.768 178.342 846.768 179.404C846.768 180.483 846.937 181.328 847.276 181.937C847.618 182.542 848.094 182.845 848.704 182.845Z" fill="#615E69"/>
<rect width="160" height="32" transform="translate(940 163)" fill="#FEEAEA"/>
<path d="M960.132 184.184C959.015 184.184 958.137 183.759 957.498 182.908C956.863 182.053 956.546 180.888 956.546 179.411C956.546 177.942 956.865 176.783 957.504 175.932C958.143 175.082 959.019 174.656 960.132 174.656C961.245 174.656 962.119 175.082 962.754 175.932C963.389 176.778 963.706 177.936 963.706 179.404C963.706 180.877 963.389 182.043 962.754 182.902C962.119 183.757 961.245 184.184 960.132 184.184ZM960.132 182.845C960.737 182.845 961.207 182.542 961.542 181.937C961.88 181.332 962.049 180.49 962.049 179.411C962.049 178.34 961.88 177.504 961.542 176.903C961.203 176.298 960.733 175.996 960.132 175.996C959.531 175.996 959.057 176.298 958.71 176.903C958.368 177.508 958.196 178.342 958.196 179.404C958.196 180.483 958.366 181.328 958.704 181.937C959.047 182.542 959.523 182.845 960.132 182.845ZM966.112 184.07C965.854 184.07 965.636 183.983 965.458 183.81C965.285 183.632 965.198 183.414 965.198 183.156C965.198 182.902 965.285 182.686 965.458 182.508C965.636 182.331 965.854 182.242 966.112 182.242C966.366 182.242 966.58 182.331 966.753 182.508C966.931 182.686 967.02 182.902 967.02 183.156C967.02 183.414 966.931 183.632 966.753 183.81C966.58 183.983 966.366 184.07 966.112 184.07ZM972.269 184.184C971.152 184.184 970.274 183.759 969.635 182.908C969 182.053 968.683 180.888 968.683 179.411C968.683 177.942 969.002 176.783 969.641 175.932C970.28 175.082 971.156 174.656 972.269 174.656C973.382 174.656 974.256 175.082 974.891 175.932C975.526 176.778 975.843 177.936 975.843 179.404C975.843 180.877 975.526 182.043 974.891 182.902C974.256 183.757 973.382 184.184 972.269 184.184ZM972.269 182.845C972.874 182.845 973.344 182.542 973.678 181.937C974.017 181.332 974.186 180.49 974.186 179.411C974.186 178.34 974.017 177.504 973.678 176.903C973.34 176.298 972.87 175.996 972.269 175.996C971.668 175.996 971.194 176.298 970.847 176.903C970.505 177.508 970.333 178.342 970.333 179.404C970.333 180.483 970.502 181.328 970.841 181.937C971.184 182.542 971.66 182.845 972.269 182.845ZM978.223 185.961H976.789L980.039 174.84H981.473L978.223 185.961ZM984.654 179.918V178.687H985.758C986.228 178.687 986.609 178.558 986.901 178.3C987.193 178.037 987.339 177.701 987.339 177.291C987.339 176.884 987.199 176.561 986.92 176.319C986.645 176.078 986.255 175.958 985.752 175.958C985.282 175.958 984.899 176.087 984.603 176.345C984.307 176.599 984.142 176.939 984.108 177.367H982.584C982.631 176.542 982.946 175.883 983.53 175.393C984.118 174.902 984.884 174.656 985.828 174.656C986.734 174.656 987.474 174.881 988.05 175.329C988.625 175.778 988.913 176.357 988.913 177.068C988.913 177.631 988.739 178.107 988.392 178.497C988.05 178.882 987.593 179.123 987.021 179.22V179.258C987.711 179.309 988.259 179.533 988.665 179.931C989.076 180.325 989.281 180.839 989.281 181.474C989.281 182.278 988.953 182.931 988.297 183.435C987.646 183.934 986.816 184.184 985.809 184.184C984.81 184.184 984.004 183.934 983.391 183.435C982.777 182.931 982.449 182.269 982.407 181.448H983.968C984.006 181.871 984.19 182.21 984.52 182.464C984.85 182.718 985.284 182.845 985.822 182.845C986.351 182.845 986.782 182.711 987.117 182.445C987.451 182.178 987.618 181.833 987.618 181.41C987.618 180.949 987.453 180.585 987.123 180.318C986.797 180.052 986.351 179.918 985.784 179.918H984.654Z" fill="#615E69"/>
<rect width="1100" height="1" transform="translate(0 195)" fill="#E8E8EA"/>
<rect width="1100" height="33" transform="translate(0 196)" fill="white"/>
<rect width="160" height="32" transform="translate(0 196)" fill="#FEEAEA"/>
<path d="M22.792 217L22.0112 214.632H18.6406L17.8599 217H16.1714L19.4214 207.84H21.2686L24.5186 217H22.792ZM20.3037 209.459L19.0215 213.369H21.624L20.3481 209.459H20.3037ZM28.0416 217.108C27.191 217.108 26.5118 216.795 26.004 216.168C25.5004 215.542 25.2486 214.696 25.2486 213.629C25.2486 212.567 25.5004 211.723 26.004 211.097C26.5118 210.47 27.191 210.157 28.0416 210.157C28.5156 210.157 28.9345 210.269 29.2984 210.494C29.6666 210.718 29.9417 211.021 30.1236 211.401H30.1617V207.84H31.7423V217H30.1935V215.851H30.1681C29.9819 216.236 29.7005 216.543 29.3238 216.771C28.9514 216.996 28.524 217.108 28.0416 217.108ZM28.5177 211.458C28.0099 211.458 27.6078 211.655 27.3116 212.049C27.0154 212.438 26.8673 212.967 26.8673 213.636C26.8673 214.309 27.0133 214.84 27.3053 215.229C27.6015 215.618 28.0056 215.813 28.5177 215.813C29.017 215.813 29.4169 215.616 29.7174 215.223C30.0178 214.829 30.1681 214.3 30.1681 213.636C30.1681 212.976 30.0178 212.449 29.7174 212.055C29.4169 211.657 29.017 211.458 28.5177 211.458ZM39.3913 210.271L37.0236 217H35.2844L32.8977 210.271H34.5861L36.1477 215.534H36.1794L37.7409 210.271H39.3913ZM42.8255 215.915C43.2783 215.915 43.6591 215.781 43.9681 215.515C44.2812 215.244 44.4378 214.907 44.4378 214.505V213.991L42.8826 214.086C42.5018 214.112 42.2055 214.207 41.9939 214.372C41.7866 214.533 41.6829 214.747 41.6829 215.013C41.6829 215.288 41.7866 215.508 41.9939 215.673C42.2055 215.834 42.4827 215.915 42.8255 215.915ZM42.3494 217.108C41.6935 217.108 41.1539 216.92 40.7308 216.543C40.3118 216.166 40.1023 215.678 40.1023 215.077C40.1023 214.48 40.3224 214.008 40.7625 213.661C41.2068 213.314 41.8395 213.115 42.6604 213.064L44.4378 212.963V212.48C44.4378 212.129 44.3257 211.856 44.1014 211.662C43.8813 211.467 43.5745 211.37 43.181 211.37C42.8128 211.37 42.5123 211.452 42.2796 211.617C42.0468 211.782 41.9051 212.007 41.8543 212.29H40.388C40.4218 211.651 40.6948 211.133 41.2068 210.735C41.7231 210.333 42.4023 210.132 43.2444 210.132C44.0781 210.132 44.7446 210.335 45.2439 210.741C45.7475 211.147 45.9993 211.689 45.9993 212.366V217H44.4759V215.927H44.4441C44.2537 216.287 43.966 216.575 43.5809 216.791C43.1958 217.002 42.7853 217.108 42.3494 217.108ZM47.6752 217V210.271H49.1923V211.427H49.224C49.4102 211.021 49.6811 210.705 50.0365 210.481C50.3962 210.257 50.83 210.145 51.3378 210.145C52.0741 210.145 52.6454 210.367 53.0517 210.811C53.4621 211.255 53.6674 211.869 53.6674 212.652V217H52.0868V212.969C52.0868 212.487 51.9726 212.119 51.744 211.865C51.5198 211.611 51.1854 211.484 50.7411 211.484C50.2883 211.484 49.9265 211.632 49.6557 211.928C49.3891 212.224 49.2558 212.616 49.2558 213.103V217H47.6752ZM61.2656 212.671H59.7739C59.7062 212.294 59.5454 211.992 59.2915 211.763C59.0376 211.53 58.7075 211.414 58.3013 211.414C57.8019 211.414 57.4041 211.613 57.1079 212.011C56.8117 212.404 56.6636 212.946 56.6636 213.636C56.6636 214.334 56.8117 214.88 57.1079 215.273C57.4041 215.663 57.8062 215.857 58.314 215.857C58.7118 215.857 59.0376 215.752 59.2915 215.54C59.5454 215.324 59.7083 215.024 59.7803 214.639H61.272C61.2085 215.392 60.9059 215.997 60.3643 216.454C59.8268 216.907 59.137 217.133 58.2949 217.133C57.3047 217.133 56.5176 216.822 55.9336 216.2C55.3496 215.574 55.0576 214.719 55.0576 213.636C55.0576 212.565 55.3496 211.715 55.9336 211.084C56.5176 210.449 57.3005 210.132 58.2822 210.132C59.1455 210.132 59.8438 210.373 60.377 210.855C60.9144 211.334 61.2106 211.939 61.2656 212.671ZM65.5187 211.357C65.0785 211.357 64.7104 211.509 64.4142 211.814C64.1222 212.114 63.9592 212.502 63.9254 212.976H67.0675C67.0506 212.497 66.9003 212.108 66.6168 211.808C66.3333 211.507 65.9672 211.357 65.5187 211.357ZM67.0738 214.988H68.5528C68.4513 215.627 68.1275 216.145 67.5816 216.543C67.0357 216.937 66.3671 217.133 65.5758 217.133C64.5686 217.133 63.7773 216.824 63.2018 216.207C62.6262 215.584 62.3385 214.736 62.3385 213.661C62.3385 212.595 62.6241 211.74 63.1954 211.097C63.7709 210.453 64.5432 210.132 65.5123 210.132C66.4645 210.132 67.2198 210.439 67.7784 211.052C68.337 211.662 68.6163 212.478 68.6163 213.502V214.017H63.9127V214.112C63.9127 214.653 64.065 215.089 64.3697 215.419C64.6786 215.75 65.0912 215.915 65.6075 215.915C65.9715 215.915 66.2846 215.832 66.547 215.667C66.8136 215.498 66.9892 215.271 67.0738 214.988Z" fill="#615E69"/>
<rect width="111.429" height="32" transform="translate(160 196)" fill="#A5A3A9"/>
<rect width="111.429" height="32" transform="translate(271.429 196)" fill="#A5A3A9"/>
<rect width="111.429" height="32" transform="translate(382.857 196)" fill="#FFF8DD"/>
<path d="M402.989 217.184C401.872 217.184 400.994 216.759 400.355 215.908C399.72 215.053 399.403 213.888 399.403 212.411C399.403 210.942 399.722 209.783 400.361 208.932C401 208.082 401.876 207.656 402.989 207.656C404.102 207.656 404.976 208.082 405.611 208.932C406.246 209.778 406.563 210.936 406.563 212.404C406.563 213.877 406.246 215.043 405.611 215.902C404.976 216.757 404.102 217.184 402.989 217.184ZM402.989 215.845C403.594 215.845 404.064 215.542 404.398 214.937C404.737 214.332 404.906 213.49 404.906 212.411C404.906 211.34 404.737 210.504 404.398 209.903C404.06 209.298 403.59 208.996 402.989 208.996C402.388 208.996 401.914 209.298 401.567 209.903C401.225 210.508 401.053 211.342 401.053 212.404C401.053 213.483 401.222 214.328 401.561 214.937C401.904 215.542 402.38 215.845 402.989 215.845Z" fill="#615E69"/>
<rect width="111.429" height="32" transform="translate(494.286 196)" fill="#FFF8DD"/>
<path d="M514.418 217.184C513.301 217.184 512.423 216.759 511.784 215.908C511.149 215.053 510.832 213.888 510.832 212.411C510.832 210.942 511.151 209.783 511.79 208.932C512.429 208.082 513.305 207.656 514.418 207.656C515.531 207.656 516.405 208.082 517.04 208.932C517.674 209.778 517.992 210.936 517.992 212.404C517.992 213.877 517.674 215.043 517.04 215.902C516.405 216.757 515.531 217.184 514.418 217.184ZM514.418 215.845C515.023 215.845 515.493 215.542 515.827 214.937C516.166 214.332 516.335 213.49 516.335 212.411C516.335 211.34 516.166 210.504 515.827 209.903C515.489 209.298 515.019 208.996 514.418 208.996C513.817 208.996 513.343 209.298 512.996 209.903C512.653 210.508 512.482 211.342 512.482 212.404C512.482 213.483 512.651 214.328 512.99 214.937C513.333 215.542 513.809 215.845 514.418 215.845Z" fill="#615E69"/>
<rect width="111.429" height="32" transform="translate(605.714 196)" fill="#A5A3A9"/>
<rect width="111.429" height="32" transform="translate(717.143 196)" fill="#A5A3A9"/>
<rect width="111.429" height="32" transform="translate(828.572 196)" fill="#A5A3A9"/>
<path d="M960.132 217.184C959.015 217.184 958.137 216.759 957.498 215.908C956.863 215.053 956.546 213.888 956.546 212.411C956.546 210.942 956.865 209.783 957.504 208.932C958.143 208.082 959.019 207.656 960.132 207.656C961.245 207.656 962.119 208.082 962.754 208.932C963.389 209.778 963.706 210.936 963.706 212.404C963.706 213.877 963.389 215.043 962.754 215.902C962.119 216.757 961.245 217.184 960.132 217.184ZM960.132 215.845C960.737 215.845 961.207 215.542 961.542 214.937C961.88 214.332 962.049 213.49 962.049 212.411C962.049 211.34 961.88 210.504 961.542 209.903C961.203 209.298 960.733 208.996 960.132 208.996C959.531 208.996 959.057 209.298 958.71 209.903C958.368 210.508 958.196 211.342 958.196 212.404C958.196 213.483 958.366 214.328 958.704 214.937C959.047 215.542 959.523 215.845 960.132 215.845ZM966.112 217.07C965.854 217.07 965.636 216.983 965.458 216.81C965.285 216.632 965.198 216.414 965.198 216.156C965.198 215.902 965.285 215.686 965.458 215.508C965.636 215.331 965.854 215.242 966.112 215.242C966.366 215.242 966.58 215.331 966.753 215.508C966.931 215.686 967.02 215.902 967.02 216.156C967.02 216.414 966.931 216.632 966.753 216.81C966.58 216.983 966.366 217.07 966.112 217.07ZM972.269 217.184C971.152 217.184 970.274 216.759 969.635 215.908C969 215.053 968.683 213.888 968.683 212.411C968.683 210.942 969.002 209.783 969.641 208.932C970.28 208.082 971.156 207.656 972.269 207.656C973.382 207.656 974.256 208.082 974.891 208.932C975.526 209.778 975.843 210.936 975.843 212.404C975.843 213.877 975.526 215.043 974.891 215.902C974.256 216.757 973.382 217.184 972.269 217.184ZM972.269 215.845C972.874 215.845 973.344 215.542 973.678 214.937C974.017 214.332 974.186 213.49 974.186 212.411C974.186 211.34 974.017 210.504 973.678 209.903C973.34 209.298 972.87 208.996 972.269 208.996C971.668 208.996 971.194 209.298 970.847 209.903C970.505 210.508 970.333 211.342 970.333 212.404C970.333 213.483 970.502 214.328 970.841 214.937C971.184 215.542 971.66 215.845 972.269 215.845ZM978.223 218.961H976.789L980.039 207.84H981.473L978.223 218.961ZM982.464 210.557C982.464 209.711 982.768 209.017 983.378 208.475C983.987 207.929 984.766 207.656 985.714 207.656C986.624 207.656 987.373 207.904 987.961 208.399C988.553 208.894 988.85 209.514 988.85 210.259C988.85 210.771 988.706 211.255 988.418 211.712C988.134 212.165 987.663 212.724 987.002 213.388L984.736 215.629V215.661H988.989V217H982.553V215.896L985.923 212.544C986.444 212.011 986.795 211.594 986.977 211.293C987.159 210.993 987.25 210.671 987.25 210.329C987.25 209.948 987.098 209.626 986.793 209.364C986.492 209.101 986.116 208.97 985.663 208.97C985.185 208.97 984.787 209.12 984.47 209.421C984.156 209.721 984 210.098 984 210.551V210.576H982.464V210.557Z" fill="#615E69"/>
<rect width="1100" height="1" transform="translate(0 228)" fill="#E8E8EA"/>
<rect width="1100" height="33" transform="translate(0 229)" fill="white"/>
<path d="M180.069 250.184C179.125 250.184 178.342 249.928 177.72 249.416C177.098 248.9 176.77 248.235 176.736 247.423H178.272C178.323 247.846 178.516 248.191 178.85 248.458C179.189 248.724 179.599 248.857 180.082 248.857C180.627 248.857 181.07 248.686 181.408 248.343C181.751 248 181.922 247.558 181.922 247.017C181.922 246.466 181.751 246.018 181.408 245.671C181.07 245.32 180.632 245.144 180.094 245.144C179.722 245.144 179.381 245.224 179.072 245.385C178.768 245.546 178.531 245.77 178.361 246.058H176.876L177.352 240.84H182.963V242.18H178.647L178.412 244.858H178.45C178.641 244.562 178.916 244.329 179.275 244.16C179.635 243.987 180.039 243.9 180.488 243.9C181.364 243.9 182.085 244.19 182.652 244.77C183.219 245.345 183.503 246.079 183.503 246.972C183.503 247.924 183.183 248.699 182.544 249.295C181.91 249.888 181.084 250.184 180.069 250.184Z" fill="#615E69"/>
<path d="M291.498 250.184C290.554 250.184 289.771 249.928 289.149 249.416C288.527 248.9 288.199 248.235 288.165 247.423H289.701C289.752 247.846 289.944 248.191 290.279 248.458C290.617 248.724 291.028 248.857 291.51 248.857C292.056 248.857 292.498 248.686 292.837 248.343C293.18 248 293.351 247.558 293.351 247.017C293.351 246.466 293.18 246.018 292.837 245.671C292.498 245.32 292.06 245.144 291.523 245.144C291.151 245.144 290.81 245.224 290.501 245.385C290.196 245.546 289.959 245.77 289.79 246.058H288.305L288.781 240.84H294.392V242.18H290.076L289.841 244.858H289.879C290.069 244.562 290.344 244.329 290.704 244.16C291.064 243.987 291.468 243.9 291.917 243.9C292.792 243.9 293.514 244.19 294.081 244.77C294.648 245.345 294.932 246.079 294.932 246.972C294.932 247.924 294.612 248.699 293.973 249.295C293.338 249.888 292.513 250.184 291.498 250.184Z" fill="#615E69"/>
<path d="M402.989 250.184C401.872 250.184 400.994 249.759 400.355 248.908C399.72 248.053 399.403 246.888 399.403 245.411C399.403 243.942 399.722 242.783 400.361 241.932C401 241.082 401.876 240.656 402.989 240.656C404.102 240.656 404.976 241.082 405.611 241.932C406.246 242.778 406.563 243.936 406.563 245.404C406.563 246.877 406.246 248.043 405.611 248.902C404.976 249.757 404.102 250.184 402.989 250.184ZM402.989 248.845C403.594 248.845 404.064 248.542 404.398 247.937C404.737 247.332 404.906 246.49 404.906 245.411C404.906 244.34 404.737 243.504 404.398 242.903C404.06 242.298 403.59 241.996 402.989 241.996C402.388 241.996 401.914 242.298 401.567 242.903C401.225 243.508 401.053 244.342 401.053 245.404C401.053 246.483 401.222 247.328 401.561 247.937C401.904 248.542 402.38 248.845 402.989 248.845Z" fill="#615E69"/>
<path d="M514.418 250.184C513.301 250.184 512.423 249.759 511.784 248.908C511.149 248.053 510.832 246.888 510.832 245.411C510.832 243.942 511.151 242.783 511.79 241.932C512.429 241.082 513.305 240.656 514.418 240.656C515.531 240.656 516.405 241.082 517.04 241.932C517.674 242.778 517.992 243.936 517.992 245.404C517.992 246.877 517.674 248.043 517.04 248.902C516.405 249.757 515.531 250.184 514.418 250.184ZM514.418 248.845C515.023 248.845 515.493 248.542 515.827 247.937C516.166 247.332 516.335 246.49 516.335 245.411C516.335 244.34 516.166 243.504 515.827 242.903C515.489 242.298 515.019 241.996 514.418 241.996C513.817 241.996 513.343 242.298 512.996 242.903C512.653 243.508 512.482 244.342 512.482 245.404C512.482 246.483 512.651 247.328 512.99 247.937C513.333 248.542 513.809 248.845 514.418 248.845Z" fill="#615E69"/>
<path d="M625.783 250.184C624.84 250.184 624.057 249.928 623.435 249.416C622.812 248.9 622.485 248.235 622.451 247.423H623.987C624.038 247.846 624.23 248.191 624.564 248.458C624.903 248.724 625.313 248.857 625.796 248.857C626.342 248.857 626.784 248.686 627.123 248.343C627.465 248 627.637 247.558 627.637 247.017C627.637 246.466 627.465 246.018 627.123 245.671C626.784 245.32 626.346 245.144 625.809 245.144C625.436 245.144 625.096 245.224 624.787 245.385C624.482 245.546 624.245 245.77 624.076 246.058H622.59L623.066 240.84H628.678V242.18H624.361L624.126 244.858H624.165C624.355 244.562 624.63 244.329 624.99 244.16C625.349 243.987 625.754 243.9 626.202 243.9C627.078 243.9 627.8 244.19 628.367 244.77C628.934 245.345 629.217 246.079 629.217 246.972C629.217 247.924 628.898 248.699 628.259 249.295C627.624 249.888 626.799 250.184 625.783 250.184Z" fill="#615E69"/>
<path d="M737.212 250.184C736.268 250.184 735.485 249.928 734.863 249.416C734.241 248.9 733.913 248.235 733.879 247.423H735.415C735.466 247.846 735.659 248.191 735.993 248.458C736.331 248.724 736.742 248.857 737.224 248.857C737.77 248.857 738.212 248.686 738.551 248.343C738.894 248 739.065 247.558 739.065 247.017C739.065 246.466 738.894 246.018 738.551 245.671C738.212 245.32 737.774 245.144 737.237 245.144C736.865 245.144 736.524 245.224 736.215 245.385C735.91 245.546 735.673 245.77 735.504 246.058H734.019L734.495 240.84H740.106V242.18H735.79L735.555 244.858H735.593C735.783 244.562 736.059 244.329 736.418 244.16C736.778 243.987 737.182 243.9 737.631 243.9C738.507 243.9 739.228 244.19 739.795 244.77C740.362 245.345 740.646 246.079 740.646 246.972C740.646 247.924 740.326 248.699 739.687 249.295C739.052 249.888 738.227 250.184 737.212 250.184Z" fill="#615E69"/>
<path d="M848.64 250.184C847.697 250.184 846.914 249.928 846.292 249.416C845.67 248.9 845.342 248.235 845.308 247.423H846.844C846.895 247.846 847.087 248.191 847.422 248.458C847.76 248.724 848.171 248.857 848.653 248.857C849.199 248.857 849.641 248.686 849.98 248.343C850.323 248 850.494 247.558 850.494 247.017C850.494 246.466 850.323 246.018 849.98 245.671C849.641 245.32 849.203 245.144 848.666 245.144C848.293 245.144 847.953 245.224 847.644 245.385C847.339 245.546 847.102 245.77 846.933 246.058H845.448L845.924 240.84H851.535V242.18H847.219L846.984 244.858H847.022C847.212 244.562 847.487 244.329 847.847 244.16C848.207 243.987 848.611 243.9 849.059 243.9C849.935 243.9 850.657 244.19 851.224 244.77C851.791 245.345 852.074 246.079 852.074 246.972C852.074 247.924 851.755 248.699 851.116 249.295C850.481 249.888 849.656 250.184 848.64 250.184Z" fill="#615E69"/>
<rect width="160" height="32" transform="translate(940 229)" fill="#FEEAEA"/>
<path d="M960.132 250.184C959.015 250.184 958.137 249.759 957.498 248.908C956.863 248.053 956.546 246.888 956.546 245.411C956.546 243.942 956.865 242.783 957.504 241.932C958.143 241.082 959.019 240.656 960.132 240.656C961.245 240.656 962.119 241.082 962.754 241.932C963.389 242.778 963.706 243.936 963.706 245.404C963.706 246.877 963.389 248.043 962.754 248.902C962.119 249.757 961.245 250.184 960.132 250.184ZM960.132 248.845C960.737 248.845 961.207 248.542 961.542 247.937C961.88 247.332 962.049 246.49 962.049 245.411C962.049 244.34 961.88 243.504 961.542 242.903C961.203 242.298 960.733 241.996 960.132 241.996C959.531 241.996 959.057 242.298 958.71 242.903C958.368 243.508 958.196 244.342 958.196 245.404C958.196 246.483 958.366 247.328 958.704 247.937C959.047 248.542 959.523 248.845 960.132 248.845ZM966.112 250.07C965.854 250.07 965.636 249.983 965.458 249.81C965.285 249.632 965.198 249.414 965.198 249.156C965.198 248.902 965.285 248.686 965.458 248.508C965.636 248.331 965.854 248.242 966.112 248.242C966.366 248.242 966.58 248.331 966.753 248.508C966.931 248.686 967.02 248.902 967.02 249.156C967.02 249.414 966.931 249.632 966.753 249.81C966.58 249.983 966.366 250.07 966.112 250.07ZM972.269 250.184C971.152 250.184 970.274 249.759 969.635 248.908C969 248.053 968.683 246.888 968.683 245.411C968.683 243.942 969.002 242.783 969.641 241.932C970.28 241.082 971.156 240.656 972.269 240.656C973.382 240.656 974.256 241.082 974.891 241.932C975.526 242.778 975.843 243.936 975.843 245.404C975.843 246.877 975.526 248.043 974.891 248.902C974.256 249.757 973.382 250.184 972.269 250.184ZM972.269 248.845C972.874 248.845 973.344 248.542 973.678 247.937C974.017 247.332 974.186 246.49 974.186 245.411C974.186 244.34 974.017 243.504 973.678 242.903C973.34 242.298 972.87 241.996 972.269 241.996C971.668 241.996 971.194 242.298 970.847 242.903C970.505 243.508 970.333 244.342 970.333 245.404C970.333 246.483 970.502 247.328 970.841 247.937C971.184 248.542 971.66 248.845 972.269 248.845ZM978.223 251.961H976.789L980.039 240.84H981.473L978.223 251.961ZM982.464 243.557C982.464 242.711 982.768 242.017 983.378 241.475C983.987 240.929 984.766 240.656 985.714 240.656C986.624 240.656 987.373 240.904 987.961 241.399C988.553 241.894 988.85 242.514 988.85 243.259C988.85 243.771 988.706 244.255 988.418 244.712C988.134 245.165 987.663 245.724 987.002 246.388L984.736 248.629V248.661H988.989V250H982.553V248.896L985.923 245.544C986.444 245.011 986.795 244.594 986.977 244.293C987.159 243.993 987.25 243.671 987.25 243.329C987.25 242.948 987.098 242.626 986.793 242.364C986.492 242.101 986.116 241.97 985.663 241.97C985.185 241.97 984.787 242.12 984.47 242.421C984.156 242.721 984 243.098 984 243.551V243.576H982.464V243.557Z" fill="#615E69"/>
<rect width="1100" height="1" transform="translate(0 261)" fill="#E8E8EA"/>
<rect width="1100" height="33" transform="translate(0 262)" fill="white"/>
<path d="M178.99 283V275.402H178.952L176.584 277.065V275.522L178.977 273.84H180.596V283H178.99Z" fill="#615E69"/>
<path d="M290.418 283V275.402H290.38L288.013 277.065V275.522L290.406 273.84H292.024V283H290.418Z" fill="#615E69"/>
<path d="M401.847 283V275.402H401.809L399.441 277.065V275.522L401.834 273.84H403.453V283H401.847Z" fill="#615E69"/>
<path d="M513.275 283V275.402H513.237L510.87 277.065V275.522L513.263 273.84H514.881V283H513.275Z" fill="#615E69"/>
<path d="M624.704 283V275.402H624.666L622.298 277.065V275.522L624.691 273.84H626.31V283H624.704Z" fill="#615E69"/>
<rect width="111.429" height="32" transform="translate(717.143 262)" fill="white"/>
<path d="M736.133 283V275.402H736.094L733.727 277.065V275.522L736.12 273.84H737.739V283H736.133Z" fill="#615E69"/>
<path d="M847.561 283V275.402H847.523L845.156 277.065V275.522L847.549 273.84H849.167V283H847.561Z" fill="#615E69"/>
<path d="M957.174 283L961.192 275.211V275.18H956.432V273.84H962.805V275.205L958.888 283H957.174Z" fill="#615E69"/>
<rect width="1100" height="1" transform="translate(0 294)" fill="#E8E8EA"/>
</svg>
