<svg width="104" height="104" viewBox="0 0 104 104" fill="none" xmlns="http://www.w3.org/2000/svg">
<path d="M52.8888 0.00774341C24.175 -0.482823 0.498315 22.3972 0.00774854 51.111C-0.270893 67.3919 6.98556 82.0245 18.5394 91.7554C19.2948 91.096 20.1053 90.4917 21.0059 90.0011L36.5216 81.5378C38.5564 80.4272 39.8241 78.2942 39.8241 75.9748V69.6171C39.8241 69.6171 35.2696 64.1699 33.533 56.6014C32.0927 55.6693 31.1273 54.0583 31.1273 52.2236V45.2654C31.1273 43.7348 31.8082 42.3671 32.8659 41.4096V31.351C32.8659 31.351 30.7996 15.698 51.9979 15.698C73.1963 15.698 71.13 31.351 71.13 31.351V41.4096C72.1896 42.3671 72.8686 43.7348 72.8686 45.2654V52.2236C72.8686 54.5626 71.2988 56.5308 69.1678 57.1881C67.9806 60.8791 66.2675 64.3975 64.0031 67.596C63.4321 68.4025 62.8983 69.0853 62.4313 69.6171V76.1357C62.4313 78.5356 63.7872 80.7314 65.9339 81.8028L82.5484 90.109C83.5453 90.6074 84.4459 91.2373 85.276 91.9379C96.4805 82.5936 103.719 68.6222 103.988 52.8888C104.483 24.175 81.6046 0.498309 52.8888 0.00774341Z" fill="#3B9FF3"/>
<circle cx="52" cy="52" r="52" fill="#3B9FF3"/>
<path d="M49.4787 50.8013L46.8334 46.8333L41.6667 54.5833H46.8334H52.0001H64.9167L55.8751 41.6666L49.4787 50.8013Z" fill="white"/>
<path d="M45.5495 44.2499C47.6939 44.2499 49.4322 42.5115 49.4322 40.3671C49.4322 38.2227 47.6939 36.4844 45.5495 36.4844C43.4051 36.4844 41.6667 38.2227 41.6667 40.3671C41.6667 42.5115 43.4051 44.2499 45.5495 44.2499Z" fill="white"/>
<path d="M70.0833 26.1666H36.5C33.3845 26.1666 28.75 28.2307 28.75 33.9166V57.1666V64.9166V70.0833C28.75 75.7692 33.3845 77.8333 36.5 77.8333H75.25V72.6666H36.531C35.3375 72.6356 33.9167 72.1655 33.9167 70.0833C33.9167 68.0011 35.3375 67.531 36.531 67.5H70.0833H72.6667H75.25V64.9166V57.1666V31.3333C75.25 28.4839 72.9327 26.1666 70.0833 26.1666ZM70.0833 62.3333H33.9167V57.1666V33.9166C33.9167 31.8345 35.3375 31.3643 36.5 31.3333H70.0833V57.1666V62.3333Z" fill="white"/>
</svg>
