<svg width="338" height="140" viewBox="0 0 338 140" fill="none" xmlns="http://www.w3.org/2000/svg">
<line opacity="0.5" x1="0.5" x2="0.5" y2="140" stroke="#DDE4EB"/>
<rect x="8" y="131" width="16" height="9" fill="#964FFF"/>
<rect x="32" y="122" width="16" height="18" fill="#CDDAEE"/>
<line opacity="0.5" x1="58.5" x2="58.5" y2="140" stroke="#DDE4EB"/>
<rect x="66" y="117" width="16" height="23" fill="#964FFF"/>
<rect x="90" y="79" width="16" height="61" fill="#CDDAEE"/>
<line opacity="0.5" x1="116.5" x2="116.5" y2="140" stroke="#DDE4EB"/>
<rect x="124" y="39" width="16" height="101" fill="#964FFF"/>
<rect x="148" y="17" width="16" height="123" fill="#CDDAEE"/>
<line opacity="0.5" x1="174.5" x2="174.5" y2="140" stroke="#DDE4EB"/>
<rect x="182" y="79" width="16" height="61" fill="#964FFF"/>
<rect x="206" y="51" width="16" height="89" fill="#CDDAEE"/>
<line opacity="0.5" x1="232.5" x2="232.5" y2="140" stroke="#DDE4EB"/>
<rect x="240" y="97" width="16" height="43" fill="#964FFF"/>
<rect x="264" y="60" width="16" height="80" fill="#CDDAEE"/>
<line opacity="0.5" x1="290.5" x2="290.5" y2="140" stroke="#DDE4EB"/>
<rect x="298" y="98" width="16" height="42" fill="#964FFF"/>
<rect x="322" y="121" width="16" height="19" fill="#CDDAEE"/>
</svg>
