<svg width="135" height="32" viewBox="0 0 135 32" fill="none" xmlns="http://www.w3.org/2000/svg">
<path d="M18.6399 2.28119C18.3245 2.28064 18.0221 2.16036 17.7988 1.94664C17.5756 1.73291 17.4496 1.44312 17.4485 1.1406C17.4496 0.838069 17.5756 0.548279 17.7988 0.334554C18.0221 0.12083 18.3245 0.000550047 18.6399 0V0C18.9536 0.00274994 19.2535 0.124066 19.4745 0.337613C19.6955 0.55116 19.8198 0.8397 19.8204 1.1406C19.8154 1.44017 19.6897 1.72627 19.4696 1.93891C19.2495 2.15155 18.9522 2.27421 18.6399 2.28119Z" fill="#EC1E24"/>
<path d="M18.6401 11.0568C18.3247 11.0563 18.0223 10.936 17.7991 10.7223C17.5758 10.5085 17.4499 10.2187 17.4487 9.91621V4.25919C17.4499 3.95666 17.5758 3.66687 17.7991 3.45315C18.0223 3.23942 18.3247 3.11914 18.6401 3.11859C18.9538 3.12134 19.2537 3.24266 19.4748 3.4562C19.6958 3.66975 19.8201 3.95829 19.8206 4.25919V9.91621C19.8195 10.2169 19.695 10.5052 19.4741 10.7186C19.2532 10.932 18.9537 11.0535 18.6401 11.0568Z" fill="#EC1E24"/>
<path d="M18.64 4.88818C16.987 4.88763 15.4013 5.51664 14.2316 6.63697C13.0619 7.7573 12.4038 9.27725 12.4021 10.8627V14.7587C12.4021 15.0612 12.5274 15.3513 12.7504 15.5652C12.9734 15.7792 13.2759 15.8993 13.5913 15.8993C13.9067 15.8993 14.2092 15.7792 14.4322 15.5652C14.6552 15.3513 14.7805 15.0612 14.7805 14.7587V10.8481C14.78 10.3588 14.88 9.87423 15.075 9.42208C15.2699 8.96993 15.556 8.55911 15.9167 8.21313C16.2774 7.86715 16.7057 7.59281 17.1772 7.40582C17.6486 7.21883 18.1538 7.12287 18.664 7.12342C19.1741 7.12287 19.6794 7.21883 20.1508 7.40582C20.6222 7.59281 21.0505 7.86715 21.4113 8.21313C21.772 8.55911 22.058 8.96993 22.253 9.42208C22.4479 9.87423 22.548 10.3588 22.5474 10.8481V14.7587C22.5474 15.0612 22.6727 15.3513 22.8957 15.5652C23.1188 15.7792 23.4212 15.8993 23.7366 15.8993C24.052 15.8993 24.3545 15.7792 24.5775 15.5652C24.8006 15.3513 24.9259 15.0612 24.9259 14.7587V10.8627C24.903 9.2756 24.2317 7.76045 23.0562 6.64316C21.8807 5.52587 20.2949 4.8957 18.64 4.88818Z" fill="#EC1E24"/>
<path d="M35.1195 30.2701C35.2826 30.0116 35.546 29.8256 35.8519 29.7532C36.1577 29.6807 36.4811 29.7276 36.7509 29.8836C37.0208 30.0397 37.2151 30.2922 37.2911 30.5855C37.367 30.8789 37.3184 31.1892 37.156 31.4483C36.9933 31.7072 36.7301 31.8935 36.4242 31.9664C36.1183 32.0392 35.7947 31.9926 35.5246 31.8368C35.2581 31.6774 35.0667 31.4246 34.9911 31.1322C34.9155 30.8397 34.9616 30.5305 35.1195 30.2701Z" fill="#FDD301"/>
<path d="M27.2822 25.7405C27.4453 25.4821 27.7085 25.2961 28.0142 25.2233C28.32 25.1504 28.6433 25.1967 28.9135 25.352L33.9644 28.2766C34.2344 28.4326 34.4286 28.6851 34.5046 28.9785C34.5806 29.2719 34.532 29.5822 34.3695 29.8412C34.2068 30.1001 33.9436 30.2865 33.6377 30.3593C33.3318 30.4322 33.0083 30.3856 32.7382 30.2298L27.6851 27.3052C27.416 27.1484 27.2226 26.8958 27.1471 26.6026C27.0716 26.3094 27.1201 25.9995 27.2822 25.7405Z" fill="#FDD301"/>
<path d="M32.791 28.9243C33.6447 27.5652 33.9005 25.9365 33.5023 24.3965C33.104 22.8565 32.0843 21.5313 30.6674 20.7124L28.1931 19.2835L27.7575 19.0307L27.1956 18.7069C27.0618 18.6276 26.913 18.5745 26.7577 18.5508C26.6024 18.527 26.4437 18.533 26.2908 18.5684C26.138 18.6039 25.994 18.668 25.8671 18.7572C25.7403 18.8464 25.6331 18.9588 25.5519 19.088C25.4707 19.2171 25.417 19.3604 25.3939 19.5096C25.3708 19.6589 25.3788 19.811 25.4174 19.9572C25.456 20.1034 25.5245 20.2408 25.6189 20.3615C25.7132 20.4822 25.8316 20.5837 25.9672 20.6602L26.5291 20.984L26.9647 21.2367L29.4586 22.6781C30.34 23.1868 30.9747 24.0104 31.223 24.9679C31.4713 25.9253 31.313 26.9382 30.7828 27.7837C30.5198 28.203 30.1732 28.5685 29.7628 28.8592C29.3524 29.1499 28.8862 29.3602 28.391 29.478C27.8958 29.5958 27.3812 29.6187 26.8767 29.5456C26.3722 29.4724 25.8878 29.3046 25.451 29.0517L22.9571 27.6103L22.5215 27.3575L21.9596 27.0316C21.6892 26.8754 21.3652 26.8285 21.0589 26.9014C20.7525 26.9743 20.4889 27.1609 20.326 27.4202C20.1631 27.6795 20.1143 27.9902 20.1903 28.284C20.2662 28.5778 20.4608 28.8307 20.7311 28.9869L21.2931 29.3107L21.7287 29.5635L24.2008 30.9924C25.6293 31.797 27.3303 32.0311 28.9371 31.6443C30.5439 31.2574 31.928 30.2806 32.791 28.9243Z" fill="#FDD301"/>
<path d="M2.20658 30.2701C2.0435 30.0116 1.78012 29.8256 1.47426 29.7532C1.1684 29.6807 0.845059 29.7276 0.575227 29.8836C0.305305 30.0397 0.11102 30.2922 0.0350587 30.5855C-0.0409029 30.8789 0.00767186 31.1892 0.170111 31.4483C0.333252 31.7073 0.596863 31.8937 0.903106 31.9665C1.20935 32.0394 1.53321 31.9927 1.80364 31.8368C2.07027 31.6774 2.26153 31.4245 2.33678 31.1319C2.41203 30.8394 2.36532 30.5302 2.20658 30.2701Z" fill="#3CB44A"/>
<path d="M10.0453 25.7407C9.88175 25.4821 9.61815 25.296 9.31208 25.2232C9.006 25.1504 8.68233 25.1968 8.41176 25.3521L3.36087 28.2767C3.09095 28.4328 2.89666 28.6853 2.8207 28.9786C2.74474 29.272 2.79332 29.5823 2.95576 29.8414C3.1189 30.1004 3.38251 30.2868 3.68875 30.3596C3.99499 30.4325 4.31886 30.3858 4.58929 30.2299L9.64017 27.3053C9.9092 27.1485 10.1027 26.896 10.1786 26.603C10.2545 26.3099 10.2066 26 10.0453 25.7407Z" fill="#3CB44A"/>
<path d="M4.53565 28.9243C3.68196 27.5652 3.42609 25.9365 3.82434 24.3965C4.22258 22.8565 5.24232 21.5313 6.65924 20.7124L9.1335 19.2835L9.56911 19.0307L10.1289 18.7069C10.2626 18.6276 10.4115 18.5745 10.5668 18.5508C10.7221 18.527 10.8807 18.533 11.0336 18.5684C11.1865 18.6039 11.3305 18.668 11.4573 18.7572C11.5842 18.8464 11.6913 18.9588 11.7725 19.088C11.8537 19.2171 11.9075 19.3604 11.9306 19.5096C11.9536 19.6589 11.9456 19.811 11.907 19.9572C11.8684 20.1034 11.7999 20.2408 11.7056 20.3615C11.6112 20.4822 11.4928 20.5837 11.3573 20.6602L10.7953 20.984L10.3597 21.2367L7.8637 22.6781C6.98381 23.1882 6.35089 24.0123 6.10384 24.9695C5.85679 25.9267 6.0158 26.9388 6.54598 27.7837C6.80877 28.2029 7.15519 28.5684 7.56541 28.8591C7.97563 29.1498 8.44159 29.36 8.93663 29.4778C9.43167 29.5956 9.94607 29.6186 10.4504 29.5455C10.9547 29.4723 11.439 29.3046 11.8757 29.0517L14.376 27.6186L14.8117 27.3659L15.3714 27.04C15.6418 26.8837 15.9657 26.8369 16.2721 26.9098C16.5784 26.9826 16.8421 27.1692 17.0049 27.4285C17.1678 27.6878 17.2167 27.9986 17.1407 28.2924C17.0647 28.5862 16.8702 28.839 16.5998 28.9953L16.0379 29.3191L15.6023 29.5719L13.1237 31.0007C11.6943 31.804 9.99306 32.0364 8.38664 31.648C6.78022 31.2596 5.39721 30.2814 4.53565 28.9243Z" fill="#3CB44A"/>
<path d="M48.187 19.6855C48.1872 19.5803 48.2123 19.4765 48.2607 19.382C48.309 19.2875 48.3791 19.2048 48.4658 19.1403C48.6569 18.993 48.8947 18.9127 49.1399 18.9127C49.3851 18.9127 49.6229 18.993 49.814 19.1403C49.901 19.2047 49.9714 19.2873 50.0201 19.3818C50.0688 19.4763 50.0944 19.5802 50.095 19.6855V29.9718C50.0949 30.0773 50.0695 30.1813 50.0208 30.2758C49.9721 30.3704 49.9013 30.4529 49.814 30.517C49.6229 30.6644 49.3851 30.7447 49.1399 30.7447C48.8947 30.7447 48.6569 30.6644 48.4658 30.517C48.3788 30.4528 48.3083 30.3702 48.26 30.2756C48.2116 30.1811 48.1867 30.0771 48.187 29.9718V19.6855Z" fill="#37505B" stroke="#37505B" stroke-width="0.4"/>
<path d="M54.9521 24.5003C54.7149 24.5104 54.4821 24.436 54.2987 24.2914C54.2174 24.2288 54.1521 24.1492 54.108 24.0587C54.0638 23.9682 54.0419 23.8691 54.0438 23.7692C54.0446 23.6697 54.0678 23.5715 54.1118 23.4813C54.1558 23.3912 54.2195 23.3113 54.2987 23.2469C54.3862 23.1691 54.4892 23.1088 54.6014 23.0697C54.7136 23.0306 54.8328 23.0135 54.9521 23.0192H61.3817C61.6215 23.0138 61.8548 23.0951 62.0351 23.2469C62.1168 23.3098 62.183 23.3892 62.2289 23.4795C62.2749 23.5698 62.2994 23.6687 62.3008 23.7692C62.3022 23.8701 62.2788 23.9699 62.2327 24.0606C62.1865 24.1513 62.1188 24.2304 62.0351 24.2914C61.8487 24.4309 61.618 24.5046 61.3817 24.5003H54.9521Z" fill="#37505B" stroke="#37505B" stroke-width="0.4"/>
<path d="M68.0639 17.868V29.9487C68.0619 30.0571 68.0342 30.1637 67.9829 30.2604C67.9316 30.357 67.858 30.4412 67.7677 30.5065C67.5746 30.6602 67.3315 30.7443 67.0806 30.7443C66.8296 30.7443 66.5865 30.6602 66.3934 30.5065C66.3027 30.4415 66.2289 30.3574 66.1775 30.2607C66.1262 30.164 66.0987 30.0572 66.0972 29.9487V15.3027C66.0983 15.1762 66.1288 15.0515 66.1864 14.9376C66.2441 14.8238 66.3274 14.7237 66.4304 14.6447C66.6524 14.4603 66.9384 14.3627 67.2319 14.371C67.4298 14.3547 67.6286 14.3907 67.8068 14.475C67.9849 14.5594 68.1356 14.6888 68.2425 14.8494L76.5823 27.2706V15.1669C76.5836 15.0588 76.6106 14.9524 76.6611 14.8557C76.7117 14.7591 76.7845 14.6748 76.8741 14.6091C77.0665 14.452 77.3119 14.3674 77.5646 14.371C77.8159 14.3674 78.0599 14.4521 78.2507 14.6091C78.3408 14.6746 78.4143 14.7587 78.4656 14.8554C78.5169 14.952 78.5447 15.0585 78.5469 15.1669V29.8129C78.5465 29.94 78.5159 30.0653 78.4574 30.1794C78.3989 30.2934 78.314 30.3931 78.2093 30.471C77.9815 30.6542 77.6919 30.7515 77.3947 30.7446C77.1955 30.7461 76.9987 30.7032 76.8197 30.6193C76.65 30.5435 76.5081 30.4205 76.4124 30.2662L68.0639 17.868Z" fill="#37505B" stroke="#37505B" stroke-width="0.4"/>
<path d="M91.8703 29.1776C91.8708 29.4051 91.7804 29.6242 91.6177 29.7897C91.4425 29.9754 91.2159 30.1094 90.9643 30.1762C90.2861 30.3578 89.5964 30.4974 88.8995 30.594C88.1883 30.6932 87.4706 30.7428 86.7519 30.7423C85.0487 30.7423 83.7477 30.4164 82.8489 29.7646C82.0256 29.1755 81.6139 28.3358 81.6139 27.2453C81.5955 26.7611 81.6979 26.2796 81.9127 25.841C82.1276 25.4024 82.4485 25.0194 82.8489 24.7239C83.3336 24.3834 83.8894 24.1475 84.4781 24.0324C85.2255 23.8816 85.9882 23.8116 86.7519 23.8235H89.9536V22.3946C89.9712 22.0928 89.9051 21.7919 89.762 21.5226C89.6189 21.2532 89.404 21.0251 89.1391 20.8613C88.596 20.5201 87.8751 20.3495 86.9763 20.3495C86.4275 20.3479 85.8808 20.4132 85.3493 20.5438C84.7959 20.6821 84.2593 20.8761 83.7484 21.1224C83.6106 21.1945 83.4566 21.2332 83.2997 21.2352C83.0598 21.2415 82.824 21.1741 82.6267 21.043C82.5371 20.9835 82.4644 20.9033 82.4153 20.8099C82.3663 20.7165 82.3423 20.6128 82.3458 20.5083C82.3491 20.3629 82.3957 20.2215 82.4803 20.1008C82.5648 19.9801 82.6837 19.8851 82.8227 19.8272C83.4658 19.4982 84.1555 19.261 84.8701 19.1233C85.5633 18.9875 86.2688 18.9175 86.9763 18.9144C87.6058 18.909 88.2336 18.9791 88.845 19.1233C89.3984 19.2526 89.9249 19.4708 90.4023 19.7688C90.8396 20.0456 91.2048 20.4151 91.4696 20.8488C91.739 21.3094 91.8744 21.8311 91.8616 22.3591L91.8703 29.1776ZM89.9536 25.2482H86.7519C86.1753 25.2329 85.5992 25.2941 85.04 25.43C84.6852 25.5169 84.355 25.6781 84.0729 25.9021C83.865 26.0717 83.7135 26.2961 83.6373 26.5476C83.5733 26.7737 83.5403 27.0068 83.5393 27.2411C83.5409 27.4788 83.5738 27.7154 83.6373 27.9451C83.7125 28.2041 83.8637 28.4369 84.0729 28.6157C84.3575 28.8503 84.6931 29.0209 85.0552 29.115C85.6132 29.2581 86.1898 29.3229 86.7672 29.3071C87.8471 29.3085 88.923 29.1787 89.9689 28.9207L89.9536 25.2482Z" fill="#37505B" stroke="#37505B" stroke-width="0.4"/>
<path d="M103.858 19.6847C103.859 19.5793 103.884 19.4755 103.933 19.381C103.982 19.2865 104.052 19.2039 104.139 19.1395C104.33 18.992 104.567 18.9115 104.812 18.9115C105.057 18.9115 105.294 18.992 105.485 19.1395C105.572 19.2038 105.643 19.2863 105.692 19.3808C105.741 19.4753 105.767 19.5792 105.768 19.6847V29.1772C105.769 29.4023 105.683 29.62 105.529 29.7892C105.363 29.9754 105.143 30.1099 104.897 30.1757C104.215 30.3586 103.521 30.4982 102.819 30.5935C102.104 30.6923 101.381 30.7419 100.659 30.7418C99.0613 30.7418 97.8067 30.3672 96.8949 29.6179C95.983 28.8687 95.5249 27.8583 95.5205 26.5868V19.6931C95.5207 19.5878 95.5458 19.484 95.5942 19.3895C95.6425 19.2951 95.7126 19.2124 95.7993 19.1478C95.9904 19.0005 96.2282 18.9202 96.4734 18.9202C96.7186 18.9202 96.9564 19.0005 97.1475 19.1478C97.2344 19.2123 97.3049 19.2949 97.3536 19.3893C97.4023 19.4838 97.4279 19.5877 97.4285 19.6931V26.71C97.4095 27.0716 97.477 27.4325 97.6257 27.7653C97.7744 28.098 98.0005 28.3937 98.2866 28.6298C98.8551 29.0915 99.6479 29.3213 100.659 29.3213C101.738 29.3227 102.813 29.1928 103.858 28.9348V19.6847Z" fill="#37505B" stroke="#37505B" stroke-width="0.4"/>
<path d="M109.698 15.1434C109.698 15.0379 109.723 14.9339 109.772 14.8393C109.821 14.7448 109.892 14.6622 109.979 14.5981C110.17 14.4508 110.408 14.3705 110.653 14.3705C110.898 14.3705 111.136 14.4508 111.327 14.5981C111.414 14.6622 111.485 14.7448 111.534 14.8393C111.583 14.9339 111.608 15.0379 111.608 15.1434V19.1396H114.836C115.073 19.1326 115.304 19.2067 115.489 19.3485C115.574 19.412 115.642 19.4932 115.688 19.586C115.735 19.6787 115.758 19.7804 115.757 19.8833C115.759 19.9845 115.735 20.0846 115.689 20.1754C115.642 20.2662 115.574 20.3451 115.489 20.4056C115.303 20.5453 115.072 20.6191 114.836 20.6145H111.608V27.6753C111.597 27.8924 111.638 28.1091 111.728 28.3086C111.818 28.5082 111.954 28.6853 112.126 28.8263C112.476 29.1076 112.921 29.2562 113.377 29.2441C113.581 29.2441 113.845 29.2274 114.163 29.1982C114.481 29.1689 114.714 29.1522 114.864 29.1522C115.081 29.1555 115.292 29.2234 115.468 29.3465C115.561 29.403 115.637 29.4818 115.689 29.5752C115.741 29.6686 115.767 29.7734 115.764 29.8792C115.761 30.0627 115.683 30.2377 115.546 30.3659C115.392 30.5163 115.188 30.6089 114.969 30.6271C114.707 30.6584 114.442 30.6855 114.169 30.7064C113.897 30.7273 113.632 30.742 113.37 30.742C112.883 30.7442 112.399 30.6672 111.939 30.5142C111.513 30.3784 111.117 30.1657 110.774 29.8875C110.444 29.6131 110.177 29.2768 109.988 28.8995C109.79 28.5088 109.689 28.0801 109.691 27.646L109.698 15.1434Z" fill="#37505B" stroke="#37505B" stroke-width="0.4"/>
<path d="M118.878 19.6847C118.879 19.5793 118.905 19.4755 118.953 19.381C119.002 19.2865 119.072 19.2039 119.159 19.1395C119.35 18.992 119.587 18.9115 119.832 18.9115C120.077 18.9115 120.315 18.992 120.505 19.1395C120.592 19.2039 120.663 19.2865 120.712 19.381C120.76 19.4755 120.786 19.5793 120.786 19.6847V29.971C120.786 30.0764 120.761 30.1805 120.712 30.275C120.663 30.3696 120.593 30.4521 120.505 30.5162C120.315 30.6637 120.077 30.7442 119.832 30.7442C119.587 30.7442 119.35 30.6637 119.159 30.5162C119.072 30.4521 119.001 30.3696 118.953 30.275C118.904 30.1805 118.878 30.0764 118.878 29.971V19.6847Z" fill="#37505B" stroke="#37505B" stroke-width="0.4"/>
<path d="M128.899 26.1337L125.503 30.3806C125.413 30.499 125.294 30.5942 125.157 30.6576C125.019 30.721 124.867 30.7508 124.715 30.7441C124.472 30.7518 124.234 30.6779 124.042 30.5352C123.951 30.467 123.878 30.3789 123.829 30.2782C123.781 30.1776 123.758 30.0673 123.763 29.9566C123.759 29.8062 123.808 29.659 123.902 29.5388L127.805 24.7696L124.015 20.1132C123.908 19.9932 123.848 19.8409 123.846 19.6829C123.849 19.5797 123.876 19.4785 123.924 19.3864C123.973 19.2944 124.042 19.2137 124.127 19.1502C124.312 18.9912 124.553 18.9053 124.802 18.9099C124.957 18.9054 125.112 18.9359 125.253 18.999C125.394 19.0621 125.518 19.1561 125.614 19.2734L128.899 23.4076L132.183 19.2734C132.273 19.1552 132.391 19.0601 132.529 18.9967C132.666 18.9333 132.817 18.9035 132.969 18.9099C133.205 18.9085 133.435 18.982 133.623 19.1188C133.715 19.1817 133.79 19.2652 133.841 19.362C133.891 19.4588 133.917 19.5661 133.915 19.6745C133.913 19.832 133.854 19.984 133.749 20.1048L129.957 24.7612L133.86 29.5304C133.955 29.6506 134.004 29.7979 134 29.9482C134 30.0527 133.978 30.156 133.934 30.2519C133.891 30.3478 133.828 30.4343 133.749 30.506C133.654 30.5884 133.543 30.6519 133.422 30.6927C133.302 30.7336 133.174 30.7511 133.046 30.7441C132.894 30.7504 132.742 30.7205 132.605 30.6571C132.468 30.5937 132.349 30.4987 132.259 30.3806L128.899 26.1337Z" fill="#37505B" stroke="#37505B" stroke-width="0.4"/>
<path d="M49.1406 16.4366C48.9737 16.441 48.8076 16.4119 48.653 16.3511C48.4985 16.2903 48.3589 16.1992 48.2433 16.0836C48.1246 15.9684 48.0311 15.8316 47.9682 15.6813C47.9054 15.531 47.8745 15.3702 47.8774 15.2083C47.8774 14.8869 48.0105 14.5787 48.2474 14.3515C48.4843 14.1243 48.8056 13.9966 49.1406 13.9966C49.4757 13.9966 49.797 14.1243 50.0339 14.3515C50.2708 14.5787 50.4039 14.8869 50.4039 15.2083C50.4067 15.37 50.376 15.5306 50.3135 15.6809C50.2511 15.8311 50.1582 15.968 50.0402 16.0836C49.9239 16.1989 49.7839 16.2898 49.629 16.3506C49.4742 16.4114 49.3079 16.4407 49.1406 16.4366Z" fill="#37505B" stroke="#37505B" stroke-width="0.4"/>
<path d="M119.832 16.4366C119.665 16.4409 119.499 16.4117 119.344 16.3509C119.19 16.2901 119.05 16.199 118.934 16.0836C118.816 15.9684 118.722 15.8316 118.659 15.6813C118.597 15.531 118.566 15.3702 118.569 15.2083C118.569 14.8869 118.702 14.5787 118.939 14.3515C119.175 14.1243 119.497 13.9966 119.832 13.9966C120.167 13.9966 120.488 14.1243 120.725 14.3515C120.962 14.5787 121.095 14.8869 121.095 15.2083C121.098 15.37 121.067 15.5306 121.005 15.6809C120.942 15.8311 120.849 15.968 120.731 16.0836C120.615 16.1989 120.475 16.2898 120.32 16.3506C120.165 16.4114 119.999 16.4407 119.832 16.4366Z" fill="#37505B" stroke="#37505B" stroke-width="0.4"/>
</svg>
