<svg width="129" height="31" viewBox="0 0 129 31" fill="none" xmlns="http://www.w3.org/2000/svg">
<path d="M17.4785 2.20991C17.1827 2.20937 16.8992 2.09285 16.6898 1.88581C16.4805 1.67876 16.3624 1.39803 16.3613 1.10495C16.3624 0.81188 16.4805 0.531145 16.6898 0.3241C16.8992 0.117054 17.1827 0.000532858 17.4785 0V0C17.7726 0.00266401 18.0539 0.120189 18.2611 0.327063C18.4683 0.533936 18.5849 0.81346 18.5854 1.10495C18.5807 1.39517 18.4629 1.67232 18.2565 1.87832C18.0501 2.08431 17.7713 2.20314 17.4785 2.20991Z" fill="#EC1E24"/>
<path d="M17.4785 10.7111C17.1827 10.7106 16.8992 10.5941 16.6898 10.387C16.4805 10.18 16.3624 9.89926 16.3613 9.60619V4.12595C16.3624 3.83288 16.4805 3.55214 16.6898 3.3451C16.8992 3.13805 17.1827 3.02153 17.4785 3.021C17.7726 3.02366 18.0539 3.14119 18.2611 3.34806C18.4683 3.55493 18.5849 3.83446 18.5854 4.12595V9.60619C18.5843 9.89752 18.4676 10.1767 18.2605 10.3835C18.0534 10.5903 17.7725 10.708 17.4785 10.7111Z" fill="#EC1E24"/>
<path d="M17.4781 4.7356C15.928 4.73506 14.4412 5.34442 13.3444 6.42973C12.2476 7.51505 11.6305 8.9875 11.6289 10.5234V14.2977C11.6289 14.5907 11.7464 14.8718 11.9555 15.079C12.1646 15.2862 12.4483 15.4026 12.744 15.4026C13.0397 15.4026 13.3234 15.2862 13.5325 15.079C13.7416 14.8718 13.8591 14.5907 13.8591 14.2977V10.5093C13.8586 10.0353 13.9524 9.56583 14.1352 9.12781C14.318 8.68979 14.5862 8.29181 14.9245 7.95664C15.2627 7.62147 15.6643 7.35571 16.1064 7.17456C16.5484 6.99341 17.0222 6.90045 17.5005 6.90098C17.9789 6.90045 18.4526 6.99341 18.8947 7.17456C19.3367 7.35571 19.7384 7.62147 20.0766 7.95664C20.4149 8.29181 20.6831 8.68979 20.8659 9.12781C21.0487 9.56583 21.1425 10.0353 21.142 10.5093V14.2977C21.142 14.5907 21.2595 14.8718 21.4686 15.079C21.6777 15.2862 21.9613 15.4026 22.2571 15.4026C22.5528 15.4026 22.8364 15.2862 23.0456 15.079C23.2547 14.8718 23.3722 14.5907 23.3722 14.2977V10.5234C23.3508 8.98591 22.7213 7.5181 21.619 6.43573C20.5168 5.35335 19.0299 4.74287 17.4781 4.7356Z" fill="#EC1E24"/>
<path d="M32.9311 29.324C33.084 29.0735 33.331 28.8934 33.6178 28.8233C33.9046 28.7531 34.2078 28.7985 34.4608 28.9496C34.7139 29.1008 34.8961 29.3454 34.9673 29.6296C35.0385 29.9138 34.993 30.2144 34.8406 30.4654C34.6881 30.7162 34.4412 30.8967 34.1544 30.9673C33.8676 31.0379 33.5642 30.9927 33.311 30.8418C33.061 30.6873 32.8816 30.4425 32.8107 30.1592C32.7398 29.8759 32.783 29.5763 32.9311 29.324Z" fill="#FDD301"/>
<path d="M25.5821 24.9361C25.7351 24.6857 25.9819 24.5055 26.2686 24.435C26.5552 24.3644 26.8584 24.4093 27.1118 24.5597L31.8479 27.3929C32.101 27.5441 32.2832 27.7886 32.3544 28.0729C32.4257 28.3571 32.3801 28.6577 32.2278 28.9086C32.0752 29.1594 31.8284 29.34 31.5416 29.4105C31.2548 29.4811 30.9514 29.436 30.6981 29.285L25.96 26.4518C25.7076 26.2999 25.5262 26.0552 25.4554 25.7712C25.3846 25.4872 25.4302 25.1869 25.5821 24.9361Z" fill="#FDD301"/>
<path d="M30.7477 28.0204C31.5481 26.7038 31.7881 25.126 31.4146 23.6342C31.0412 22.1423 30.085 20.8585 28.7564 20.0652L26.4363 18.6809L26.0279 18.4361L25.501 18.1224C25.3755 18.0455 25.236 17.9941 25.0903 17.9711C24.9447 17.9481 24.7959 17.9539 24.6526 17.9882C24.5093 18.0225 24.3742 18.0847 24.2553 18.1711C24.1364 18.2575 24.0359 18.3664 23.9597 18.4915C23.8836 18.6166 23.8332 18.7555 23.8116 18.9C23.7899 19.0446 23.7974 19.1919 23.8336 19.3336C23.8698 19.4752 23.934 19.6083 24.0225 19.7252C24.111 19.8421 24.222 19.9405 24.3491 20.0146L24.876 20.3282L25.2845 20.5731L27.6229 21.9695C28.4494 22.4623 29.0445 23.2602 29.2774 24.1877C29.5103 25.1152 29.3618 26.0964 28.8646 26.9155C28.618 27.3217 28.293 27.6758 27.9082 27.9574C27.5234 28.2391 27.0863 28.4427 26.6219 28.5568C26.1575 28.6709 25.675 28.6932 25.202 28.6223C24.7289 28.5515 24.2746 28.3889 23.8651 28.1439L21.5266 26.7475L21.1182 26.5026L20.5913 26.1869C20.3378 26.0356 20.034 25.9902 19.7467 26.0608C19.4595 26.1314 19.2123 26.3121 19.0595 26.5633C18.9068 26.8145 18.861 27.1155 18.9322 27.4002C19.0035 27.6848 19.1859 27.9298 19.4394 28.0811L19.9663 28.3948L20.3748 28.6397L22.6928 30.0239C24.0323 30.8034 25.6273 31.0302 27.134 30.6554C28.6407 30.2807 29.9384 29.3344 30.7477 28.0204Z" fill="#FDD301"/>
<path d="M2.06907 29.324C1.91615 29.0735 1.66918 28.8934 1.38238 28.8233C1.09558 28.7531 0.792394 28.7985 0.539379 28.9496C0.286278 29.1008 0.104102 29.3454 0.0328739 29.6296C-0.0383538 29.9138 0.00719374 30.2144 0.15951 30.4654C0.312484 30.7163 0.559666 30.8969 0.846824 30.9674C1.13398 31.038 1.43766 30.9928 1.69124 30.8418C1.94125 30.6873 2.12059 30.4424 2.19115 30.1589C2.26171 29.8755 2.21791 29.5759 2.06907 29.324Z" fill="#3CB44A"/>
<path d="M9.41855 24.9362C9.2652 24.6857 9.01803 24.5055 8.73103 24.435C8.44403 24.3644 8.14053 24.4093 7.88682 24.5598L3.15071 27.393C2.89761 27.5442 2.71543 27.7888 2.6442 28.073C2.57297 28.3572 2.61852 28.6578 2.77084 28.9088C2.92381 29.1597 3.17099 29.3403 3.45815 29.4108C3.74531 29.4814 4.04899 29.4362 4.30257 29.2852L9.03868 26.452C9.29094 26.3 9.47241 26.0555 9.54355 25.7716C9.6147 25.4877 9.56977 25.1874 9.41855 24.9362Z" fill="#3CB44A"/>
<path d="M4.25308 28.0204C3.45259 26.7038 3.21267 25.126 3.5861 23.6342C3.95952 22.1423 4.91571 20.8585 6.24433 20.0652L8.56439 18.6809L8.97285 18.4361L9.49772 18.1224C9.62315 18.0455 9.76272 17.9941 9.90834 17.9711C10.054 17.9481 10.2027 17.9539 10.3461 17.9882C10.4894 18.0225 10.6245 18.0847 10.7434 18.1711C10.8623 18.2575 10.9628 18.3664 11.0389 18.4915C11.1151 18.6166 11.1655 18.7555 11.1871 18.9C11.2088 19.0446 11.2013 19.1919 11.1651 19.3336C11.1289 19.4752 11.0646 19.6083 10.9762 19.7252C10.8877 19.8421 10.7767 19.9405 10.6496 20.0146L10.1227 20.3282L9.71421 20.5731L7.37372 21.9695C6.54867 22.4636 5.95519 23.262 5.72354 24.1892C5.49189 25.1165 5.64099 26.097 6.13813 26.9155C6.38454 27.3216 6.70937 27.6757 7.09402 27.9573C7.47867 28.2389 7.9156 28.4426 8.37979 28.5567C8.84398 28.6708 9.32632 28.693 9.79921 28.6222C10.2721 28.5514 10.7262 28.3888 11.1357 28.1439L13.4802 26.7556L13.8887 26.5107L14.4136 26.195C14.6671 26.0437 14.9708 25.9983 15.2581 26.0689C15.5454 26.1395 15.7925 26.3202 15.9453 26.5714C16.098 26.8226 16.1438 27.1236 16.0726 27.4083C16.0013 27.6929 15.8189 27.9379 15.5654 28.0892L15.0385 28.4029L14.63 28.6478L12.3059 30.032C10.9656 30.8101 9.37038 31.0354 7.86407 30.6591C6.35777 30.2828 5.06095 29.3352 4.25308 28.0204Z" fill="#3CB44A"/>
<path d="M45.2979 13.7742C45.298 13.6674 45.3223 13.562 45.3688 13.4661C45.4154 13.3702 45.483 13.2863 45.5665 13.2208C45.7507 13.0713 45.9799 12.9897 46.2162 12.9897C46.4525 12.9897 46.6817 13.0713 46.8659 13.2208C46.9496 13.2862 47.0176 13.37 47.0645 13.4659C47.1114 13.5618 47.1361 13.6672 47.1366 13.7742V24.2145C47.1366 24.3216 47.1121 24.4271 47.0651 24.5231C47.0182 24.6191 46.95 24.7028 46.8659 24.7679C46.6817 24.9174 46.4525 24.999 46.2162 24.999C45.9799 24.999 45.7507 24.9174 45.5665 24.7679C45.4827 24.7027 45.4148 24.6189 45.3682 24.5229C45.3216 24.4269 45.2975 24.3214 45.2979 24.2145V13.7742Z" fill="#37505B" stroke="#37505B"/>
<path d="M51.8188 18.6609C51.5902 18.6711 51.3659 18.5956 51.1891 18.4489C51.1107 18.3853 51.0479 18.3045 51.0053 18.2126C50.9627 18.1207 50.9416 18.0202 50.9435 17.9188C50.9442 17.8178 50.9666 17.7181 51.009 17.6267C51.0513 17.5352 51.1128 17.454 51.1891 17.3887C51.2735 17.3097 51.3727 17.2486 51.4808 17.2089C51.589 17.1692 51.7039 17.1518 51.8188 17.1576H58.0152C58.2464 17.1521 58.4712 17.2346 58.645 17.3887C58.7237 17.4525 58.7875 17.5331 58.8318 17.6248C58.8761 17.7164 58.8997 17.8168 58.901 17.9188C58.9024 18.0212 58.8799 18.1225 58.8354 18.2146C58.7909 18.3066 58.7257 18.3869 58.645 18.4489C58.4653 18.5904 58.243 18.6653 58.0152 18.6609H51.8188Z" fill="#37505B" stroke="#37505B"/>
<path d="M64.455 11.9294V24.1911C64.4531 24.3011 64.4264 24.4093 64.3769 24.5074C64.3275 24.6055 64.2566 24.6909 64.1696 24.7572C63.9834 24.9132 63.7492 24.9987 63.5073 24.9987C63.2654 24.9987 63.0312 24.9132 62.845 24.7572C62.7577 24.6912 62.6865 24.6059 62.637 24.5077C62.5875 24.4096 62.561 24.3012 62.5596 24.1911V9.32573C62.5607 9.19731 62.5901 9.07074 62.6456 8.95521C62.7012 8.83969 62.7815 8.73811 62.8807 8.65784C63.0947 8.47077 63.3703 8.37164 63.6532 8.38008C63.8439 8.36359 64.0355 8.40011 64.2072 8.4857C64.3789 8.57128 64.5241 8.70266 64.6272 8.86563L72.6645 21.4729V9.18791C72.6658 9.07818 72.6918 8.97017 72.7405 8.87209C72.7892 8.774 72.8594 8.68841 72.9458 8.6218C73.1312 8.46233 73.3677 8.37642 73.6112 8.38008C73.8534 8.37648 74.0885 8.46245 74.2724 8.6218C74.3593 8.68819 74.4301 8.77364 74.4796 8.8717C74.529 8.96976 74.5558 9.07788 74.5578 9.18791V24.0533C74.5575 24.1823 74.528 24.3095 74.4716 24.4252C74.4152 24.5409 74.3334 24.6422 74.2325 24.7212C74.013 24.9071 73.7339 25.0059 73.4474 24.9989C73.2555 25.0004 73.0658 24.9569 72.8933 24.8717C72.7298 24.7948 72.593 24.6699 72.5008 24.5134L64.455 11.9294Z" fill="#37505B" stroke="#37505B"/>
<path d="M87.3973 23.4085C87.3977 23.6394 87.3106 23.8617 87.1538 24.0297C86.985 24.2182 86.7666 24.3542 86.5241 24.422C85.8705 24.6063 85.2058 24.748 84.5342 24.846C83.8488 24.9468 83.1571 24.9971 82.4645 24.9966C80.823 24.9966 79.5692 24.6658 78.703 24.0043C77.9095 23.4064 77.5128 22.554 77.5128 21.4472C77.495 20.9557 77.5937 20.4671 77.8008 20.0219C78.0078 19.5767 78.3171 19.188 78.703 18.888C79.1701 18.5425 79.7057 18.3031 80.2731 18.1862C80.9934 18.0332 81.7285 17.9621 82.4645 17.9742H85.5501V16.5239C85.567 16.2176 85.5033 15.9122 85.3654 15.6388C85.2275 15.3654 85.0204 15.1338 84.7651 14.9676C84.2417 14.6213 83.5469 14.4481 82.6807 14.4481C82.1519 14.4465 81.625 14.5128 81.1127 14.6453C80.5794 14.7858 80.0623 14.9826 79.5699 15.2327C79.4371 15.3058 79.2887 15.3451 79.1375 15.3471C78.9062 15.3535 78.679 15.2851 78.4888 15.1521C78.4025 15.0916 78.3324 15.0103 78.2851 14.9155C78.2378 14.8207 78.2148 14.7154 78.2181 14.6093C78.2212 14.4617 78.2662 14.3182 78.3477 14.1957C78.4292 14.0732 78.5437 13.9768 78.6778 13.9181C79.2975 13.5841 79.9622 13.3434 80.6509 13.2035C81.319 13.0658 81.9988 12.9947 82.6807 12.9915C83.2874 12.986 83.8925 13.0573 84.4817 13.2035C85.015 13.3348 85.5224 13.5563 85.9825 13.8587C86.404 14.1397 86.7559 14.5147 87.0111 14.9549C87.2707 15.4225 87.4012 15.9519 87.3889 16.4879L87.3973 23.4085ZM85.5501 19.4202H82.4645C81.9087 19.4047 81.3535 19.4668 80.8146 19.6047C80.4727 19.6929 80.1544 19.8566 79.8826 20.0839C79.6822 20.256 79.5362 20.4838 79.4628 20.739C79.4011 20.9685 79.3693 21.2052 79.3684 21.443C79.3699 21.6842 79.4016 21.9243 79.4628 22.1575C79.5353 22.4204 79.681 22.6566 79.8826 22.8381C80.1568 23.0762 80.4803 23.2494 80.8293 23.3449C81.367 23.4902 81.9228 23.5559 82.4792 23.5399C83.52 23.5414 84.5568 23.4096 85.5648 23.1477L85.5501 19.4202Z" fill="#37505B" stroke="#37505B"/>
<path d="M98.9503 13.7733C98.9508 13.6664 98.9755 13.5609 99.0224 13.465C99.0693 13.3692 99.1373 13.2853 99.221 13.2199C99.4047 13.0702 99.6336 12.9885 99.8697 12.9885C100.106 12.9885 100.335 13.0702 100.518 13.2199C100.602 13.2852 100.671 13.369 100.718 13.4649C100.765 13.5607 100.79 13.6662 100.791 13.7733V23.4079C100.792 23.6365 100.709 23.8574 100.56 24.0292C100.4 24.2181 100.188 24.3547 99.9515 24.4214C99.294 24.6071 98.625 24.7487 97.949 24.8455C97.2594 24.9458 96.5635 24.9961 95.8667 24.996C94.3274 24.996 93.1184 24.6158 92.2395 23.8553C91.3607 23.0948 90.9192 22.0693 90.915 20.7788V13.7818C90.9152 13.675 90.9395 13.5696 90.986 13.4737C91.0326 13.3778 91.1002 13.2939 91.1837 13.2284C91.3679 13.0789 91.5971 12.9974 91.8334 12.9974C92.0697 12.9974 92.2989 13.0789 92.483 13.2284C92.5668 13.2938 92.6348 13.3776 92.6817 13.4735C92.7286 13.5694 92.7533 13.6748 92.7538 13.7818V20.9039C92.7356 21.2708 92.8006 21.6372 92.9439 21.9749C93.0872 22.3126 93.3051 22.6128 93.5809 22.8524C94.1287 23.321 94.8928 23.5542 95.8667 23.5542C96.9069 23.5556 97.943 23.4238 98.9503 23.162V13.7733Z" fill="#37505B" stroke="#37505B"/>
<path d="M104.58 9.16409C104.58 9.05704 104.604 8.95145 104.651 8.85549C104.698 8.75953 104.766 8.67577 104.85 8.61069C105.035 8.46116 105.264 8.37964 105.5 8.37964C105.736 8.37964 105.966 8.46116 106.15 8.61069C106.234 8.67577 106.302 8.75953 106.349 8.85549C106.396 8.95145 106.42 9.05704 106.42 9.16409V13.2202H109.531C109.759 13.2131 109.983 13.2883 110.161 13.4322C110.242 13.4966 110.308 13.5791 110.353 13.6732C110.398 13.7673 110.42 13.8706 110.419 13.975C110.421 14.0777 110.398 14.1793 110.353 14.2715C110.308 14.3636 110.242 14.4437 110.161 14.5051C109.982 14.647 109.759 14.7219 109.531 14.7171H106.42V21.8837C106.41 22.1041 106.449 22.324 106.536 22.5265C106.622 22.7291 106.754 22.9088 106.92 23.052C107.257 23.3375 107.685 23.4883 108.125 23.476C108.322 23.476 108.576 23.4591 108.883 23.4294C109.189 23.3997 109.414 23.3828 109.559 23.3828C109.768 23.3861 109.971 23.455 110.14 23.5799C110.23 23.6373 110.304 23.7173 110.354 23.8121C110.404 23.9069 110.428 24.0132 110.425 24.1206C110.423 24.3069 110.347 24.4845 110.216 24.6146C110.067 24.7673 109.87 24.8613 109.659 24.8797C109.407 24.9115 109.151 24.939 108.889 24.9602C108.627 24.9815 108.37 24.9963 108.119 24.9963C107.649 24.9986 107.183 24.9204 106.74 24.7652C106.328 24.6273 105.947 24.4114 105.617 24.1291C105.299 23.8506 105.041 23.5092 104.859 23.1262C104.669 22.7297 104.571 22.2945 104.573 21.854L104.58 9.16409Z" fill="#37505B" stroke="#37505B"/>
<path d="M113.427 13.7733C113.427 13.6664 113.452 13.5609 113.499 13.465C113.546 13.3692 113.614 13.2853 113.698 13.2199C113.881 13.0702 114.11 12.9885 114.346 12.9885C114.582 12.9885 114.811 13.0702 114.995 13.2199C115.079 13.2853 115.147 13.3692 115.193 13.465C115.24 13.5609 115.265 13.6664 115.266 13.7733V24.2136C115.265 24.3207 115.241 24.4263 115.194 24.5222C115.147 24.6182 115.079 24.702 114.995 24.767C114.811 24.9168 114.582 24.9984 114.346 24.9984C114.11 24.9984 113.881 24.9168 113.698 24.767C113.613 24.702 113.545 24.6182 113.498 24.5222C113.451 24.4263 113.427 24.3207 113.427 24.2136V13.7733Z" fill="#37505B" stroke="#37505B"/>
<path d="M123.084 20.3189L119.812 24.6295C119.725 24.7496 119.61 24.8462 119.478 24.9106C119.345 24.975 119.199 25.0051 119.052 24.9984C118.818 25.0062 118.588 24.9312 118.403 24.7864C118.315 24.7171 118.245 24.6277 118.198 24.5255C118.152 24.4234 118.13 24.3115 118.134 24.1991C118.131 24.0464 118.178 23.897 118.269 23.775L122.03 18.9344L118.378 14.2083C118.274 14.0864 118.217 13.9319 118.214 13.7715C118.217 13.6668 118.243 13.5641 118.29 13.4706C118.337 13.3772 118.403 13.2953 118.485 13.2308C118.664 13.0694 118.896 12.9823 119.136 12.987C119.286 12.9823 119.435 13.0133 119.571 13.0774C119.707 13.1414 119.826 13.2368 119.919 13.3559L123.084 17.552L126.249 13.3559C126.336 13.2359 126.45 13.1394 126.582 13.075C126.715 13.0107 126.86 12.9804 127.007 12.987C127.234 12.9856 127.456 13.0601 127.637 13.199C127.726 13.2628 127.798 13.3475 127.847 13.4458C127.896 13.5441 127.92 13.653 127.918 13.763C127.916 13.9228 127.86 14.0771 127.759 14.1998L124.104 18.9259L127.866 23.7665C127.957 23.8885 128.004 24.038 128 24.1906C128 24.2966 127.979 24.4015 127.937 24.4988C127.896 24.5962 127.835 24.6839 127.759 24.7567C127.667 24.8403 127.56 24.9048 127.444 24.9463C127.327 24.9878 127.204 25.0055 127.081 24.9984C126.934 25.0048 126.788 24.9745 126.656 24.9101C126.524 24.8457 126.409 24.7493 126.323 24.6295L123.084 20.3189Z" fill="#37505B" stroke="#37505B"/>
<path d="M46.2176 10.4765C46.0567 10.481 45.8966 10.4514 45.7477 10.3897C45.5988 10.328 45.4643 10.2355 45.3528 10.1182C45.2384 10.0013 45.1483 9.86247 45.0877 9.70991C45.0272 9.55735 44.9974 9.39411 45.0002 9.22977C45.0002 8.90361 45.1284 8.59082 45.3568 8.36019C45.5851 8.12956 45.8947 8 46.2176 8C46.5405 8 46.8502 8.12956 47.0785 8.36019C47.3068 8.59082 47.4351 8.90361 47.4351 9.22977C47.4378 9.39391 47.4082 9.55697 47.348 9.70947C47.2878 9.86197 47.1983 10.0009 47.0845 10.1182C46.9725 10.2352 46.8375 10.3275 46.6883 10.3892C46.5391 10.4509 46.3788 10.4806 46.2176 10.4765Z" fill="#37505B" stroke="#37505B"/>
<path d="M114.346 10.4765C114.185 10.4808 114.025 10.4512 113.876 10.3895C113.727 10.3278 113.592 10.2354 113.481 10.1182C113.366 10.0013 113.276 9.86247 113.216 9.70991C113.155 9.55735 113.125 9.39411 113.128 9.22977C113.128 8.90361 113.256 8.59082 113.485 8.36019C113.713 8.12956 114.023 8 114.346 8C114.668 8 114.978 8.12956 115.206 8.36019C115.435 8.59082 115.563 8.90361 115.563 9.22977C115.566 9.39391 115.536 9.55697 115.476 9.70947C115.416 9.86197 115.326 10.0009 115.212 10.1182C115.1 10.2352 114.965 10.3275 114.816 10.3892C114.667 10.4509 114.507 10.4806 114.346 10.4765Z" fill="#37505B" stroke="#37505B"/>
</svg>
