<svg width="171" height="40" viewBox="0 0 171 40" fill="none" xmlns="http://www.w3.org/2000/svg">
<path d="M23.6476 2.85149C23.2474 2.8508 22.8638 2.70045 22.5806 2.4333C22.2974 2.16614 22.1376 1.8039 22.1361 1.42575C22.1376 1.04759 22.2974 0.685349 22.5806 0.418193C22.8638 0.151037 23.2474 0.000687559 23.6476 0V0C24.0456 0.00343743 24.4261 0.155083 24.7065 0.422016C24.9869 0.68895 25.1445 1.04963 25.1452 1.42575C25.1389 1.80022 24.9794 2.15784 24.7002 2.42364C24.421 2.68943 24.0438 2.84277 23.6476 2.85149Z" fill="#EC1E24"/>
<path d="M23.6482 13.821C23.248 13.8203 22.8644 13.6699 22.5812 13.4028C22.298 13.1356 22.1382 12.7734 22.1367 12.3952V5.32394C22.1382 4.94578 22.298 4.58354 22.5812 4.31639C22.8644 4.04923 23.248 3.89888 23.6482 3.89819C24.0462 3.90163 24.4267 4.05328 24.7071 4.32021C24.9875 4.58714 25.1451 4.94782 25.1458 5.32394V12.3952C25.1444 12.7711 24.9865 13.1314 24.7063 13.3982C24.426 13.665 24.046 13.8168 23.6482 13.821Z" fill="#EC1E24"/>
<path d="M23.6478 6.11023C21.5507 6.10954 19.539 6.89581 18.0551 8.29621C16.5711 9.69662 15.7363 11.5966 15.7341 13.5784V18.4484C15.7341 18.8265 15.893 19.1892 16.176 19.4566C16.4589 19.7239 16.8426 19.8742 17.2428 19.8742C17.6429 19.8742 18.0266 19.7239 18.3096 19.4566C18.5925 19.1892 18.7515 18.8265 18.7515 18.4484V13.5601C18.7507 12.9485 18.8777 12.3428 19.125 11.7776C19.3724 11.2124 19.7352 10.6989 20.1929 10.2664C20.6505 9.83394 21.1939 9.49101 21.792 9.25728C22.3901 9.02354 23.031 8.90358 23.6782 8.90427C24.3254 8.90358 24.9664 9.02354 25.5645 9.25728C26.1626 9.49101 26.706 9.83394 27.1636 10.2664C27.6212 10.6989 27.9841 11.2124 28.2315 11.7776C28.4788 12.3428 28.6057 12.9485 28.605 13.5601V18.4484C28.605 18.8265 28.764 19.1892 29.0469 19.4566C29.3298 19.7239 29.7136 19.8742 30.1137 19.8742C30.5138 19.8742 30.8976 19.7239 31.1805 19.4566C31.4635 19.1892 31.6224 18.8265 31.6224 18.4484V13.5784C31.5935 11.5945 30.7418 9.70056 29.2504 8.30395C27.7591 6.90733 25.7474 6.11962 23.6478 6.11023Z" fill="#EC1E24"/>
<path d="M44.5549 37.8375C44.7618 37.5143 45.0959 37.282 45.4839 37.1914C45.872 37.1008 46.2822 37.1594 46.6245 37.3544C46.9669 37.5495 47.2134 37.8651 47.3098 38.2318C47.4062 38.5985 47.3445 38.9864 47.1385 39.3102C46.932 39.6339 46.5981 39.8668 46.21 39.9579C45.8219 40.0489 45.4115 39.9907 45.0688 39.7959C44.7307 39.5966 44.4879 39.2807 44.392 38.9151C44.296 38.5496 44.3545 38.1631 44.5549 37.8375Z" fill="#FDD301"/>
<path d="M34.6117 32.1756C34.8187 31.8525 35.1526 31.6201 35.5404 31.529C35.9283 31.438 36.3385 31.4959 36.6813 31.6899L43.0892 35.3457C43.4316 35.5408 43.6781 35.8563 43.7745 36.2231C43.8708 36.5898 43.8092 36.9777 43.6031 37.3015C43.3967 37.6251 43.0627 37.858 42.6747 37.9491C42.2866 38.0402 41.8762 37.9819 41.5335 37.7872L35.1229 34.1314C34.7815 33.9354 34.5361 33.6197 34.4403 33.2532C34.3445 32.8867 34.4061 32.4993 34.6117 32.1756Z" fill="#FDD301"/>
<path d="M41.6004 36.1554C42.6834 34.4565 43.008 32.4207 42.5028 30.4957C41.9975 28.5707 40.7038 26.9142 38.9063 25.8905L35.7673 24.1044L35.2146 23.7884L34.5017 23.3837C34.332 23.2846 34.1432 23.2182 33.9462 23.1885C33.7492 23.1588 33.5479 23.1663 33.3539 23.2106C33.16 23.2549 32.9773 23.3351 32.8164 23.4465C32.6555 23.558 32.5196 23.6985 32.4165 23.86C32.3134 24.0214 32.2453 24.2006 32.216 24.3871C32.1867 24.5736 32.1969 24.7637 32.2459 24.9465C32.2949 25.1293 32.3817 25.3011 32.5014 25.4519C32.6212 25.6027 32.7713 25.7296 32.9433 25.8252L33.6562 26.23L34.2088 26.5459L37.3727 28.3477C38.4909 28.9835 39.2961 30.0131 39.6112 31.2099C39.9262 32.4067 39.7253 33.6728 39.0527 34.7296C38.7191 35.2538 38.2793 35.7106 37.7586 36.0741C37.238 36.4375 36.6466 36.7003 36.0183 36.8475C35.3901 36.9947 34.7373 37.0234 34.0972 36.932C33.4572 36.8406 32.8426 36.6308 32.2884 36.3146L29.1246 34.5129L28.5719 34.1969L27.859 33.7896C27.5161 33.5943 27.105 33.5357 26.7164 33.6268C26.3277 33.7179 25.9933 33.9511 25.7866 34.2752C25.58 34.5994 25.518 34.9878 25.6144 35.3551C25.7108 35.7223 25.9576 36.0384 26.3006 36.2337L27.0135 36.6384L27.5661 36.9544L30.7023 38.7405C32.5147 39.7463 34.6726 40.0389 36.7111 39.5554C38.7496 39.0718 40.5055 37.8508 41.6004 36.1554Z" fill="#FDD301"/>
<path d="M2.7994 37.8375C2.5925 37.5143 2.25836 37.282 1.87033 37.1914C1.48229 37.1008 1.07209 37.1594 0.729766 37.3544C0.387327 37.5495 0.140847 37.8651 0.0444775 38.2318C-0.0518918 38.5986 0.00973295 38.9864 0.215812 39.3103C0.422783 39.634 0.757214 39.867 1.14573 39.9581C1.53425 40.0491 1.94512 39.9908 2.28821 39.7959C2.62646 39.5967 2.86911 39.2805 2.96457 38.9148C3.06003 38.5491 3.00078 38.1626 2.7994 37.8375Z" fill="#3CB44A"/>
<path d="M12.7442 32.1758C12.5368 31.8525 12.2023 31.62 11.814 31.529C11.4257 31.438 11.0151 31.4959 10.6718 31.6901L4.26401 35.3459C3.92157 35.541 3.67509 35.8565 3.57872 36.2233C3.48235 36.59 3.54397 36.9779 3.75005 37.3017C3.95702 37.6255 4.29145 37.8585 4.67997 37.9495C5.06849 38.0406 5.47936 37.9823 5.82245 37.7874L12.2303 34.1316C12.5716 33.9356 12.8171 33.62 12.9134 33.2537C13.0096 32.8874 12.9488 32.5 12.7442 32.1758Z" fill="#3CB44A"/>
<path d="M5.75412 36.1554C4.67108 34.4565 4.34648 32.4207 4.85172 30.4957C5.35695 28.5707 6.65065 26.9142 8.44823 25.8905L11.5872 24.1044L12.1399 23.7884L12.85 23.3837C13.0197 23.2846 13.2085 23.2182 13.4055 23.1885C13.6026 23.1588 13.8039 23.1663 13.9978 23.2106C14.1917 23.2549 14.3744 23.3351 14.5354 23.4465C14.6963 23.558 14.8322 23.6985 14.9352 23.86C15.0383 24.0214 15.1064 24.2006 15.1357 24.3871C15.165 24.5736 15.1549 24.7637 15.1059 24.9465C15.0569 25.1293 14.97 25.3011 14.8503 25.4519C14.7306 25.6027 14.5804 25.7296 14.4084 25.8252L13.6955 26.23L13.1429 26.5459L9.97628 28.3477C8.86001 28.9853 8.05704 30.0154 7.74362 31.2119C7.4302 32.4084 7.63194 33.6735 8.30455 34.7296C8.63794 35.2537 9.07742 35.7105 9.59785 36.0739C10.1183 36.4373 10.7094 36.7001 11.3375 36.8473C11.9655 36.9945 12.6181 37.0233 13.2579 36.9319C13.8977 36.8405 14.5121 36.6307 15.0661 36.3146L18.2382 34.5233L18.7909 34.2074L19.501 33.8C19.844 33.6047 20.255 33.5462 20.6436 33.6372C21.0323 33.7283 21.3667 33.9616 21.5734 34.2857C21.7801 34.6098 21.842 34.9982 21.7456 35.3655C21.6492 35.7328 21.4024 36.0488 21.0594 36.2441L20.3465 36.6489L19.7939 36.9648L16.6494 38.7509C14.836 39.755 12.6777 40.0456 10.6397 39.5601C8.60171 39.0746 6.84715 37.8518 5.75412 36.1554Z" fill="#3CB44A"/>
<path d="M61.1326 24.607C61.1328 24.4754 61.1647 24.3456 61.226 24.2275C61.2873 24.1094 61.3763 24.0061 61.4863 23.9254C61.7287 23.7413 62.0304 23.6409 62.3415 23.6409C62.6525 23.6409 62.9542 23.7413 63.1967 23.9254C63.307 24.006 63.3964 24.1092 63.4582 24.2273C63.5199 24.3454 63.5524 24.4752 63.5531 24.607V37.4648C63.553 37.5966 63.5208 37.7267 63.459 37.8448C63.3972 37.963 63.3074 38.0662 63.1967 38.1463C62.9542 38.3305 62.6525 38.4309 62.3415 38.4309C62.0304 38.4309 61.7287 38.3305 61.4863 38.1463C61.3758 38.0661 61.2865 37.9628 61.2252 37.8446C61.1638 37.7264 61.1321 37.5964 61.1326 37.4648V24.607Z" fill="#37505B" stroke="#37505B" stroke-width="0.4"/>
<path d="M69.7155 30.6254C69.4146 30.638 69.1193 30.545 68.8866 30.3643C68.7835 30.2861 68.7007 30.1866 68.6446 30.0734C68.5886 29.9602 68.5608 29.8364 68.5633 29.7115C68.5643 29.5871 68.5937 29.4644 68.6495 29.3517C68.7053 29.2391 68.7861 29.1391 68.8866 29.0587C68.9977 28.9614 69.1282 28.8861 69.2706 28.8372C69.413 28.7883 69.5642 28.7669 69.7155 28.7741H77.8725C78.1768 28.7673 78.4727 28.8689 78.7014 29.0587C78.8051 29.1373 78.8891 29.2365 78.9474 29.3494C79.0056 29.4623 79.0368 29.5859 79.0385 29.7115C79.0403 29.8376 79.0107 29.9624 78.9521 30.0758C78.8936 30.1892 78.8077 30.288 78.7014 30.3643C78.465 30.5387 78.1723 30.6309 77.8725 30.6254H69.7155Z" fill="#37505B" stroke="#37505B" stroke-width="0.4"/>
<path d="M86.3499 22.335V37.4359C86.3474 37.5714 86.3122 37.7046 86.2471 37.8254C86.182 37.9462 86.0886 38.0514 85.9741 38.1331C85.7291 38.3252 85.4207 38.4304 85.1023 38.4304C84.7839 38.4304 84.4755 38.3252 84.2305 38.1331C84.1155 38.0518 84.0219 37.9467 83.9567 37.8258C83.8915 37.705 83.8567 37.5715 83.8547 37.4359V19.1284C83.8562 18.9702 83.8949 18.8143 83.968 18.672C84.0411 18.5298 84.1468 18.4047 84.2775 18.3058C84.5591 18.0754 84.922 17.9533 85.2944 17.9637C85.5455 17.9434 85.7976 17.9884 86.0236 18.0938C86.2496 18.1992 86.4408 18.361 86.5765 18.5617L97.1567 34.0882V18.9586C97.1584 18.8235 97.1926 18.6905 97.2568 18.5697C97.3209 18.4489 97.4133 18.3435 97.527 18.2614C97.7711 18.065 98.0824 17.9592 98.4029 17.9637C98.7218 17.9593 99.0313 18.0652 99.2733 18.2614C99.3877 18.3432 99.481 18.4484 99.5461 18.5692C99.6112 18.69 99.6464 18.8231 99.6491 18.9586V37.2661C99.6486 37.425 99.6098 37.5817 99.5356 37.7242C99.4614 37.8667 99.3537 37.9914 99.2208 38.0887C98.9319 38.3177 98.5644 38.4393 98.1874 38.4308C97.9347 38.4326 97.685 38.379 97.4579 38.2741C97.2427 38.1793 97.0627 38.0256 96.9412 37.8328L86.3499 22.335Z" fill="#37505B" stroke="#37505B" stroke-width="0.4"/>
<path d="M116.552 36.472C116.552 36.7564 116.437 37.0302 116.231 37.2371C116.009 37.4692 115.721 37.6367 115.402 37.7202C114.542 37.9473 113.667 38.1217 112.783 38.2425C111.88 38.3666 110.97 38.4285 110.058 38.4279C107.897 38.4279 106.247 38.0205 105.106 37.2058C104.062 36.4694 103.54 35.4197 103.54 34.0566C103.516 33.4513 103.646 32.8495 103.919 32.3013C104.191 31.753 104.599 31.2743 105.106 30.9048C105.721 30.4793 106.426 30.1844 107.173 30.0405C108.122 29.852 109.089 29.7645 110.058 29.7794H114.12V27.9933C114.142 27.616 114.058 27.2399 113.877 26.9032C113.695 26.5666 113.423 26.2814 113.087 26.0766C112.398 25.6501 111.483 25.4369 110.343 25.4369C109.647 25.4349 108.953 25.5165 108.279 25.6797C107.577 25.8527 106.896 26.0951 106.248 26.403C106.073 26.4931 105.877 26.5415 105.678 26.544C105.374 26.5518 105.075 26.4677 104.825 26.3038C104.711 26.2293 104.619 26.1292 104.556 26.0124C104.494 25.8956 104.464 25.766 104.468 25.6353C104.472 25.4536 104.532 25.2768 104.639 25.126C104.746 24.9751 104.897 24.8564 105.073 24.7841C105.889 24.3728 106.764 24.0763 107.671 23.9041C108.55 23.7344 109.445 23.6469 110.343 23.6429C111.141 23.6362 111.938 23.7239 112.714 23.9041C113.416 24.0657 114.084 24.3386 114.689 24.7109C115.244 25.057 115.707 25.5189 116.043 26.061C116.385 26.6368 116.557 27.2888 116.541 27.9489L116.552 36.472ZM114.12 31.5603H110.058C109.327 31.5412 108.596 31.6176 107.886 31.7874C107.436 31.8961 107.017 32.0977 106.659 32.3776C106.396 32.5896 106.203 32.8702 106.107 33.1845C106.025 33.4671 105.984 33.7585 105.982 34.0514C105.984 34.3485 106.026 34.6442 106.107 34.9314C106.202 35.2551 106.394 35.5461 106.659 35.7696C107.02 36.0629 107.446 36.2761 107.906 36.3937C108.613 36.5727 109.345 36.6536 110.077 36.6339C111.448 36.6357 112.812 36.4734 114.139 36.1509L114.12 31.5603Z" fill="#37505B" stroke="#37505B" stroke-width="0.4"/>
<path d="M131.76 24.6059C131.761 24.4742 131.793 24.3444 131.855 24.2263C131.917 24.1082 132.006 24.0049 132.116 23.9244C132.358 23.74 132.66 23.6394 132.97 23.6394C133.281 23.6394 133.582 23.74 133.824 23.9244C133.935 24.0048 134.025 24.108 134.087 24.226C134.149 24.3441 134.182 24.474 134.183 24.6059V36.4715C134.184 36.753 134.076 37.025 133.879 37.2366C133.669 37.4692 133.39 37.6374 133.078 37.7197C132.212 37.9483 131.332 38.1228 130.442 38.2419C129.534 38.3654 128.618 38.4274 127.701 38.4273C125.675 38.4273 124.083 37.959 122.926 37.0224C121.769 36.0859 121.188 34.8229 121.183 33.2335V24.6164C121.183 24.4848 121.215 24.3551 121.276 24.237C121.337 24.1188 121.426 24.0155 121.536 23.9348C121.779 23.7507 122.08 23.6503 122.391 23.6503C122.703 23.6503 123.004 23.7507 123.247 23.9348C123.357 24.0154 123.446 24.1186 123.508 24.2367C123.57 24.3548 123.602 24.4846 123.603 24.6164V33.3876C123.579 33.8395 123.665 34.2907 123.853 34.7066C124.042 35.1225 124.329 35.4922 124.692 35.7873C125.413 36.3644 126.419 36.6517 127.701 36.6517C129.07 36.6534 130.434 36.4911 131.76 36.1686V24.6059Z" fill="#37505B" stroke="#37505B" stroke-width="0.4"/>
<path d="M139.169 18.9292C139.169 18.7974 139.201 18.6674 139.263 18.5492C139.325 18.431 139.415 18.3278 139.525 18.2477C139.768 18.0635 140.07 17.9631 140.381 17.9631C140.692 17.9631 140.993 18.0635 141.236 18.2477C141.347 18.3278 141.436 18.431 141.498 18.5492C141.56 18.6674 141.592 18.7974 141.592 18.9292V23.9246H145.687C145.988 23.9158 146.282 24.0084 146.516 24.1857C146.623 24.265 146.71 24.3666 146.769 24.4825C146.828 24.5984 146.858 24.7256 146.856 24.8542C146.858 24.9806 146.829 25.1058 146.769 25.2192C146.71 25.3327 146.624 25.4314 146.516 25.507C146.28 25.6817 145.987 25.7739 145.687 25.7681H141.592V34.5941C141.578 34.8655 141.63 35.1364 141.744 35.3858C141.858 35.6353 142.031 35.8567 142.25 36.0329C142.693 36.3845 143.258 36.5703 143.836 36.5552C144.096 36.5552 144.43 36.5343 144.834 36.4978C145.237 36.4612 145.533 36.4403 145.723 36.4403C145.999 36.4445 146.266 36.5293 146.489 36.6832C146.607 36.7538 146.704 36.8523 146.77 36.9691C146.836 37.0858 146.868 37.2168 146.864 37.349C146.861 37.5784 146.762 37.7972 146.588 37.9574C146.393 38.1454 146.133 38.2612 145.856 38.2838C145.524 38.323 145.187 38.357 144.842 38.3831C144.496 38.4092 144.159 38.4275 143.828 38.4275C143.21 38.4303 142.596 38.334 142.012 38.1428C141.471 37.9731 140.97 37.7072 140.534 37.3595C140.116 37.0164 139.776 36.5961 139.537 36.1243C139.286 35.636 139.158 35.1001 139.161 34.5576L139.169 18.9292Z" fill="#37505B" stroke="#37505B" stroke-width="0.4"/>
<path d="M150.816 24.6059C150.816 24.4742 150.849 24.3444 150.911 24.2263C150.972 24.1082 151.062 24.0049 151.172 23.9244C151.414 23.74 151.715 23.6394 152.026 23.6394C152.337 23.6394 152.638 23.74 152.88 23.9244C152.99 24.0049 153.079 24.1082 153.141 24.2263C153.203 24.3444 153.235 24.4742 153.236 24.6059V37.4637C153.236 37.5956 153.204 37.7256 153.142 37.8438C153.08 37.962 152.99 38.0651 152.88 38.1453C152.638 38.3297 152.337 38.4303 152.026 38.4303C151.715 38.4303 151.414 38.3297 151.172 38.1453C151.061 38.0651 150.971 37.962 150.91 37.8438C150.848 37.7256 150.816 37.5956 150.816 37.4637V24.6059Z" fill="#37505B" stroke="#37505B" stroke-width="0.4"/>
<path d="M163.528 32.6672L159.221 37.9758C159.107 38.1238 158.956 38.2428 158.781 38.322C158.606 38.4013 158.414 38.4385 158.22 38.4302C157.912 38.4398 157.61 38.3474 157.366 38.1691C157.251 38.0837 157.159 37.9736 157.097 37.8478C157.036 37.722 157.007 37.5842 157.013 37.4458C157.008 37.2578 157.07 37.0737 157.19 36.9235L162.141 30.962L157.333 25.1415C157.197 24.9915 157.121 24.8012 157.118 24.6036C157.122 24.4747 157.156 24.3482 157.217 24.2331C157.279 24.118 157.367 24.0171 157.474 23.9377C157.709 23.739 158.015 23.6317 158.331 23.6374C158.528 23.6317 158.724 23.6698 158.903 23.7488C159.082 23.8277 159.239 23.9452 159.361 24.0918L163.528 29.2595L167.695 24.0918C167.809 23.944 167.959 23.8252 168.133 23.7459C168.308 23.6666 168.5 23.6293 168.693 23.6374C168.992 23.6357 169.283 23.7275 169.522 23.8986C169.639 23.9771 169.733 24.0815 169.798 24.2025C169.862 24.3236 169.895 24.4577 169.892 24.5932C169.89 24.79 169.816 24.98 169.682 25.1311L164.871 30.9516L169.823 36.9131C169.943 37.0633 170.005 37.2474 170 37.4353C170 37.5658 169.972 37.695 169.917 37.8149C169.862 37.9348 169.782 38.0429 169.682 38.1325C169.561 38.2355 169.421 38.3149 169.267 38.366C169.114 38.4171 168.952 38.4389 168.789 38.4302C168.596 38.4381 168.404 38.4007 168.23 38.3214C168.056 38.2421 167.906 38.1234 167.792 37.9758L163.528 32.6672Z" fill="#37505B" stroke="#37505B" stroke-width="0.4"/>
<path d="M62.3425 20.5458C62.1307 20.5513 61.92 20.5149 61.7239 20.4389C61.5279 20.3629 61.3508 20.249 61.2041 20.1045C61.0535 19.9605 60.9349 19.7896 60.8551 19.6017C60.7754 19.4138 60.7362 19.2128 60.7399 19.0104C60.7399 18.6087 60.9087 18.2235 61.2093 17.9394C61.5098 17.6554 61.9174 17.4958 62.3425 17.4958C62.7675 17.4958 63.1752 17.6554 63.4757 17.9394C63.7763 18.2235 63.9451 18.6087 63.9451 19.0104C63.9487 19.2125 63.9097 19.4133 63.8305 19.6012C63.7513 19.789 63.6334 19.9601 63.4837 20.1045C63.3361 20.2487 63.1585 20.3623 62.9621 20.4383C62.7657 20.5143 62.5547 20.5509 62.3425 20.5458Z" fill="#37505B" stroke="#37505B" stroke-width="0.4"/>
<path d="M152.025 20.5458C151.814 20.5511 151.603 20.5147 151.407 20.4387C151.211 20.3627 151.034 20.2489 150.887 20.1045C150.736 19.9605 150.618 19.7896 150.538 19.6017C150.458 19.4138 150.419 19.2128 150.423 19.0104C150.423 18.6087 150.592 18.2235 150.892 17.9394C151.193 17.6554 151.6 17.4958 152.025 17.4958C152.451 17.4958 152.858 17.6554 153.159 17.9394C153.459 18.2235 153.628 18.6087 153.628 19.0104C153.632 19.2125 153.593 19.4133 153.513 19.6012C153.434 19.789 153.316 19.9601 153.167 20.1045C153.019 20.2487 152.842 20.3623 152.645 20.4383C152.449 20.5143 152.238 20.5509 152.025 20.5458Z" fill="#37505B" stroke="#37505B" stroke-width="0.4"/>
</svg>
