<svg width="16" height="16" viewBox="0 0 16 16" fill="none" xmlns="http://www.w3.org/2000/svg">
<path d="M2.27608 6.66666H9.99992C10.3681 6.66666 10.6666 6.36819 10.6666 6.00001C10.6666 5.63182 10.3681 5.33335 9.99992 5.33335H2.27608L3.80467 3.80476C4.06501 3.54441 4.06501 3.12229 3.80467 2.86194C3.54433 2.6016 3.1222 2.6016 2.86186 2.86194L0.195172 5.5286C0.179641 5.54413 0.164953 5.56048 0.151016 5.57748C0.144703 5.58516 0.139203 5.59329 0.133297 5.60119C0.126172 5.61069 0.118828 5.61998 0.112203 5.62988C0.105859 5.63935 0.100359 5.64919 0.0945469 5.65891C0.0892031 5.66785 0.0835781 5.6766 0.0786406 5.68582C0.0733281 5.69572 0.0688281 5.70594 0.0640781 5.71607C0.0595469 5.72566 0.0547656 5.7351 0.0506719 5.74494C0.0466094 5.75479 0.0432969 5.76485 0.0397344 5.77485C0.0359531 5.78538 0.0319219 5.79576 0.0286719 5.80651C0.0256406 5.81651 0.0234219 5.82666 0.0208906 5.83679C0.0181094 5.84776 0.0150469 5.8586 0.0128281 5.86979C0.0105156 5.88151 0.00914062 5.89332 0.00745312 5.9051C0.00607812 5.91482 0.00420312 5.92441 0.00323437 5.93426C-0.00107812 5.97801 -0.00107812 6.0221 0.00323437 6.06585C0.00420312 6.07569 0.00604687 6.08526 0.00745312 6.09501C0.00914062 6.10679 0.0105156 6.11863 0.0128594 6.13032C0.0150781 6.14151 0.0181406 6.15232 0.0209219 6.16329C0.0234531 6.17341 0.0256719 6.18357 0.0287031 6.19357C0.0319531 6.20432 0.0359844 6.21472 0.0397656 6.22522C0.0433594 6.23522 0.0466406 6.24529 0.0507031 6.25513C0.0547656 6.26497 0.0595781 6.27438 0.0641094 6.28398C0.0688906 6.2941 0.0733906 6.30432 0.0787031 6.31426C0.0836406 6.32344 0.0892344 6.33216 0.0945781 6.3411C0.100391 6.35085 0.105891 6.36069 0.112234 6.37019C0.118828 6.38007 0.126172 6.38932 0.133266 6.39882C0.139203 6.40676 0.144703 6.41488 0.151047 6.4226C0.164891 6.43947 0.179484 6.45569 0.194891 6.4711C0.195016 6.47122 0.195078 6.47135 0.195203 6.47144L2.86186 9.1381C3.1222 9.39844 3.54433 9.39844 3.80467 9.1381C4.06501 8.87776 4.06501 8.45563 3.80467 8.19529L2.27608 6.66666Z" fill="#3B9FF3"/>
<path d="M15.8488 10.4226C15.8552 10.4148 15.8607 10.4067 15.8666 10.3987C15.8737 10.3893 15.881 10.38 15.8876 10.3702C15.894 10.3607 15.8995 10.3508 15.9053 10.3411C15.9106 10.3322 15.9162 10.3234 15.9211 10.3143C15.9264 10.3043 15.9309 10.2941 15.9357 10.2839C15.9403 10.2744 15.945 10.265 15.9491 10.2552C15.9532 10.2453 15.9565 10.2353 15.96 10.2253C15.9638 10.2147 15.9679 10.2043 15.9711 10.1936C15.9741 10.1836 15.9763 10.1734 15.9789 10.1633C15.9817 10.1523 15.9847 10.1415 15.9869 10.1303C15.9893 10.1186 15.9906 10.1068 15.9924 10.095C15.9937 10.0853 15.9956 10.0758 15.9966 10.0659C16.0009 10.0221 16.0009 9.97804 15.9966 9.93429C15.9956 9.92444 15.9938 9.91488 15.9924 9.90513C15.9907 9.89335 15.9893 9.8815 15.9869 9.86982C15.9847 9.85863 15.9817 9.84782 15.9789 9.83685C15.9763 9.82672 15.9741 9.81657 15.9711 9.80657C15.9679 9.79582 15.9638 9.78541 15.96 9.77491C15.9564 9.76491 15.9532 9.75485 15.9491 9.745C15.945 9.73519 15.9403 9.72579 15.9357 9.71622C15.9309 9.70607 15.9264 9.69582 15.9211 9.68588C15.9162 9.67672 15.9106 9.668 15.9053 9.6591C15.8995 9.64935 15.8939 9.63947 15.8876 9.62997C15.881 9.62013 15.8737 9.61088 15.8666 9.60144C15.8607 9.59347 15.8551 9.58532 15.8488 9.57757C15.8351 9.56085 15.8206 9.54475 15.8053 9.52944C15.8051 9.52919 15.8049 9.52894 15.8046 9.52872L13.138 6.86207C12.8776 6.60172 12.4555 6.60172 12.1952 6.86207C11.9348 7.12241 11.9348 7.54454 12.1952 7.80488L13.7238 9.33347H5.99991C5.63172 9.33347 5.33325 9.63194 5.33325 10.0001C5.33325 10.3683 5.63172 10.6668 5.99991 10.6668H13.7238L12.1952 12.1954C11.9348 12.4557 11.9348 12.8778 12.1952 13.1382C12.4555 13.3985 12.8776 13.3985 13.138 13.1382L15.8046 10.4715C15.8049 10.4713 15.8051 10.471 15.8053 10.4708C15.8206 10.4554 15.8351 10.4393 15.8488 10.4226Z" fill="#3B9FF3"/>
</svg>
