<svg width="164" height="164" viewBox="0 0 164 164" fill="none" xmlns="http://www.w3.org/2000/svg">
<g clip-path="url(#clip0_1840_2249)">
<path d="M0.5 8C0.5 3.58173 4.08172 0 8.5 0H156C160.418 0 164 3.58172 164 8V155.5C164 159.918 160.418 163.5 156 163.5H8.5C4.08173 163.5 0.5 159.918 0.5 155.5V8Z" fill="#999575"/>
<rect x="0.5" width="163.5" height="81.75" fill="#999575"/>
<rect x="0.5" y="81.75" width="163.5" height="81.75" fill="#F6F4E3"/>
<path d="M139.475 0H25.025C11.5011 0 0.5 11.0011 0.5 24.525V138.975C0.5 152.499 11.5011 163.5 25.025 163.5H139.475C152.999 163.5 164 152.499 164 138.975V24.525C164 11.0011 152.999 0 139.475 0Z" fill="#999575"/>
<path d="M125.009 96.1919C122.287 97.565 119.002 98.2915 115.501 98.2915C108.232 98.2915 101.159 95.2978 97.0273 90.4758L79.8789 70.5492C74.1508 63.8591 66.0756 60.0271 57.725 60.0271C49.3744 60.0271 41.2992 63.8591 35.5791 70.5412L0.5 111.424V138.975C0.5 152.499 11.5011 163.5 25.025 163.5H139.475C152.999 163.5 164 152.499 164 138.975V76.6964L125.009 96.1919Z" fill="#F6F4E3"/>
<path d="M114.952 73.5747C128.497 73.5747 139.477 62.5944 139.477 49.0497C139.477 35.5049 128.497 24.5247 114.952 24.5247C101.407 24.5247 90.427 35.5049 90.427 49.0497C90.427 62.5944 101.407 73.5747 114.952 73.5747Z" fill="#E2DCAB"/>
</g>
<path d="M8.5 1H156V-1H8.5V1ZM163 8V155.5H165V8H163ZM156 162.5H8.5V164.5H156V162.5ZM1.5 155.5V8H-0.5V155.5H1.5ZM8.5 162.5C4.63401 162.5 1.5 159.366 1.5 155.5H-0.5C-0.5 160.471 3.52944 164.5 8.5 164.5V162.5ZM163 155.5C163 159.366 159.866 162.5 156 162.5V164.5C160.971 164.5 165 160.471 165 155.5H163ZM156 1C159.866 1 163 4.13401 163 8H165C165 3.02944 160.971 -1 156 -1V1ZM8.5 -1C3.52944 -1 -0.5 3.02944 -0.5 8H1.5C1.5 4.13401 4.63401 1 8.5 1V-1Z" fill="#F6F4E3"/>
<defs>
<clipPath id="clip0_1840_2249">
<path d="M0.5 8C0.5 3.58173 4.08172 0 8.5 0H156C160.418 0 164 3.58172 164 8V155.5C164 159.918 160.418 163.5 156 163.5H8.5C4.08173 163.5 0.5 159.918 0.5 155.5V8Z" fill="white"/>
</clipPath>
</defs>
</svg>
