<svg width="24" height="25" viewBox="0 0 24 25" fill="none" xmlns="http://www.w3.org/2000/svg">
<path d="M11.3634 8.89417C9.75376 8.89417 8.38439 9.97526 8.02403 11.4407C8 11.5368 7.85586 11.5368 7.80781 11.4407C7.42343 9.97526 6.07808 8.89417 4.46847 8.89417H0V16.6299H15.8559V8.89417H11.3634Z" fill="#242424"/>
<path d="M15.8559 20.8821C15.8559 23.0203 14.1261 24.75 11.988 24.75C9.84985 24.75 8.12012 23.0203 8.12012 20.8821C8.12012 18.744 9.84985 17.0143 11.988 17.0143C14.1261 17.0143 15.8559 18.744 15.8559 20.8821Z" fill="#242424"/>
<path d="M16.2402 8.48577H24V0.774048L16.2402 8.48577Z" fill="#242424"/>
<path d="M15.8318 8.48574H8.12012V4.61786C8.12012 2.47972 9.84985 0.75 11.988 0.75C14.1261 0.75 15.8559 2.47972 15.8559 4.61786V8.48574H15.8318Z" fill="#242424"/>
</svg>
