<svg width="12" height="10" viewBox="0 0 12 10" fill="none" xmlns="http://www.w3.org/2000/svg">
<path d="M4.51547 5.5C4.51547 4.67157 5.18705 4 6.01547 4C6.8439 4 7.51547 4.67157 7.51547 5.5C7.51547 6.32843 6.8439 7 6.01547 7C5.18705 7 4.51547 6.32843 4.51547 5.5Z" fill="#616161"/>
<path fill-rule="evenodd" clip-rule="evenodd" d="M3.85355 0.439339C4.13486 0.158035 4.51639 0 4.91421 0H7.08579C7.48361 0 7.86514 0.158035 8.14645 0.43934L8.56066 0.853554C8.65443 0.947322 8.7816 1 8.91421 1H10.5C11.3287 1 12 1.67238 12 2.50049V8.49951C12 9.32762 11.3287 10 10.5 10H1.5C0.671573 10 0 9.32843 0 8.5V2.5C0 1.67157 0.671573 1 1.5 1H3.08579C3.21839 1 3.34557 0.947322 3.43934 0.853553L3.85355 0.439339ZM2.5 3C2.22386 3 2 3.22386 2 3.5C2 3.77614 2.22386 4 2.5 4H2.505C2.78114 4 3.005 3.77614 3.005 3.5C3.005 3.22386 2.78114 3 2.505 3H2.5ZM6.01547 3C4.63476 3 3.51547 4.11929 3.51547 5.5C3.51547 6.88071 4.63476 8 6.01547 8C7.39619 8 8.51547 6.88071 8.51547 5.5C8.51547 4.11929 7.39619 3 6.01547 3Z" fill="#616161"/>
</svg>
