<svg width="18" height="18" viewBox="0 0 18 18" fill="none" xmlns="http://www.w3.org/2000/svg">
<path d="M15.6667 0.666992H7.33335C6.41419 0.666992 5.66669 1.41449 5.66669 2.33366V5.66699H2.33335C1.41419 5.66699 0.666687 6.41449 0.666687 7.33366V15.667C0.666687 16.5862 1.41419 17.3337 2.33335 17.3337H10.6667C11.5859 17.3337 12.3334 16.5862 12.3334 15.667V12.3337H15.6667C16.5859 12.3337 17.3334 11.5862 17.3334 10.667V2.33366C17.3334 1.41449 16.5859 0.666992 15.6667 0.666992ZM2.33335 15.667V7.33366H10.6667L10.6684 15.667H2.33335ZM15.6667 10.667H12.3334V7.33366C12.3334 6.41449 11.5859 5.66699 10.6667 5.66699H7.33335V2.33366H15.6667V10.667Z" fill="#5E99F1"/>
</svg>
