<svg
  width="20"
  height="12"
  viewBox="0 0 20 12"
  fill="none"
  xmlns="http://www.w3.org/2000/svg"
>
  <path
    d="M18.4375 2.5625H1.5625C1.31386 2.5625 1.0754 2.46373 0.899587 2.28791C0.723772 2.1121 0.625 1.87364 0.625 1.625C0.625 1.37636 0.723772 1.1379 0.899587 0.962087C1.0754 0.786272 1.31386 0.6875 1.5625 0.6875H18.4375C18.6861 0.6875 18.9246 0.786272 19.1004 0.962087C19.2762 1.1379 19.375 1.37636 19.375 1.625C19.375 1.87364 19.2762 2.1121 19.1004 2.28791C18.9246 2.46373 18.6861 2.5625 18.4375 2.5625Z"
    fill="white"
  />
  <path
    d="M15.3125 6.9375H4.6875C4.43886 6.9375 4.2004 6.83873 4.02459 6.66291C3.84877 6.4871 3.75 6.24864 3.75 6C3.75 5.75136 3.84877 5.5129 4.02459 5.33709C4.2004 5.16127 4.43886 5.0625 4.6875 5.0625H15.3125C15.5611 5.0625 15.7996 5.16127 15.9754 5.33709C16.1512 5.5129 16.25 5.75136 16.25 6C16.25 6.24864 16.1512 6.4871 15.9754 6.66291C15.7996 6.83873 15.5611 6.9375 15.3125 6.9375Z"
    fill="white"
  />
  <path
    d="M11.5625 11.3125H8.4375C8.18886 11.3125 7.9504 11.2137 7.77459 11.0379C7.59877 10.8621 7.5 10.6236 7.5 10.375C7.5 10.1264 7.59877 9.8879 7.77459 9.71209C7.9504 9.53627 8.18886 9.4375 8.4375 9.4375H11.5625C11.8111 9.4375 12.0496 9.53627 12.2254 9.71209C12.4012 9.8879 12.5 10.1264 12.5 10.375C12.5 10.6236 12.4012 10.8621 12.2254 11.0379C12.0496 11.2137 11.8111 11.3125 11.5625 11.3125Z"
    fill="white"
  />
</svg>
