<svg width="80" height="84" viewBox="0 0 80 84" fill="none" xmlns="http://www.w3.org/2000/svg">
<g clip-path="url(#clip0_275_3957)">
<g opacity="0.5">
<path fill-rule="evenodd" clip-rule="evenodd" d="M74.9957 81.9343C75.1932 81.8026 75.3249 81.6051 75.1274 81.4075C74.3372 81.0125 72.5595 80.8808 72.5595 80.8808C72.4278 80.8808 72.3619 80.8808 72.2303 80.8808C72.2303 80.4857 72.0986 80.0907 71.9669 79.6956V79.6298C71.6377 78.708 70.9792 77.9178 70.3866 77.2594L70.3208 77.1935H70.3866L69.9916 76.8643C69.794 76.6668 69.5965 76.5351 69.4648 76.4034C70.1891 75.4816 70.5842 74.494 70.2549 73.5063C70.2549 73.4405 70.1233 73.3746 69.9257 73.3088C69.9257 73.3088 68.8064 72.782 64.2632 72.6503C58.008 72.4528 49.3167 72.387 40.9545 72.387C38.0574 72.387 34.5677 72.4528 32.0656 72.4528C32.0656 72.4528 32.0656 72.4528 31.9998 72.4528C31.6047 72.4528 31.2755 72.4528 30.9463 72.4528C30.5512 72.4528 30.1562 72.4528 29.827 72.4528C29.5636 72.4528 29.3002 72.4528 29.1027 72.4528C28.971 72.4528 28.8393 72.4528 28.7076 72.4528C28.5759 72.4528 28.4442 72.4528 28.4442 72.4528C22.8475 72.5186 18.3043 72.6503 16.1315 72.782C14.2879 72.8479 13.0368 72.9796 12.2467 73.1112C11.6541 73.1771 11.1274 73.2429 10.864 73.3088C10.4031 73.3746 10.1397 73.5063 10.0739 73.638C10.008 74.1647 10.2714 75.1524 11.1274 76.2717C10.864 76.4693 10.4689 76.7985 10.0739 77.1935C9.48128 77.7861 8.88869 78.6421 8.49363 79.5639V79.6298C8.36194 80.0248 8.2961 80.4199 8.23025 80.8149C8.09857 80.8149 8.03272 80.8149 7.90104 80.8149C7.90104 80.8149 6.1891 80.9466 5.33313 81.3417C5.1356 81.5392 5.20145 81.7368 5.46482 81.8684C5.46482 81.8684 5.46482 81.8684 5.39898 81.8684C4.41132 82.3952 4.14795 82.8561 4.14795 82.8561C5.06976 83.1195 6.65001 83.0536 6.65001 83.0536C6.97923 82.9878 7.2426 82.8561 7.57182 82.7903C7.57182 83.1195 7.7035 83.317 7.7035 83.317C8.95453 83.5804 10.2714 83.3828 10.2714 83.3828C10.4031 83.317 10.5348 83.2512 10.6006 83.1853C11.0615 83.1853 11.5224 83.1853 12.0492 83.1195C12.0492 83.1195 12.5759 82.8561 12.5101 82.5269C13.7611 82.461 14.8805 82.3294 15.6706 82.1318C15.7364 82.1318 15.7364 82.1318 15.8023 82.1318C17.185 82.3952 19.2261 82.3952 19.2261 82.3952C20.4772 82.3952 20.3455 82.1318 20.3455 82.1318C19.0945 81.8026 17.185 81.6051 16.7899 81.5392H16.7241C16.7241 81.4734 16.7241 81.4734 16.7241 81.4075C16.7241 81.4075 16.5924 81.3417 16.2632 81.21C16.2632 81.21 16.1315 81.1442 15.8681 81.0783C15.5389 81.0125 15.078 80.9466 14.4196 80.8808C14.4196 80.8808 14.2879 80.8808 13.9586 80.8808C14.0245 80.8808 14.0245 80.8808 14.0903 80.8808C14.0903 80.8808 14.0245 79.8931 14.1562 78.9055C14.4196 79.0372 14.6829 79.2347 14.9463 79.3664L15.1438 79.4322C15.6047 79.5639 16.4607 79.6956 17.5142 79.6956C20.1479 79.7614 25.2179 79.8273 31.5389 79.8273L33.0533 80.4199L25.0862 81.21L26.2714 81.6709C26.2714 81.6709 44.4442 81.7368 54.1233 81.6709L55.4401 81.21L51.292 80.8149L48.2632 80.4857L49.0533 80.0907L49.5142 79.8931C53.9916 79.8931 58.5348 79.8273 62.9463 79.7615C64.1315 79.7615 64.9875 79.6298 65.4484 79.4322C65.7776 79.3005 66.1726 79.103 66.5019 78.9055C66.5677 79.2347 66.5677 79.5639 66.5677 79.8931C66.5677 80.4857 66.5677 80.9466 66.5677 80.9466C66.6335 80.9466 66.6335 80.9466 66.6994 80.9466C66.436 80.9466 66.2385 80.9466 66.2385 80.9466C65.58 81.0125 65.1191 81.0783 64.7899 81.1442C64.4607 81.21 64.3949 81.2759 64.3949 81.2759C64.0656 81.4075 63.934 81.4734 63.934 81.4734C63.934 81.5392 63.934 81.5392 63.934 81.6051H63.8681C63.4731 81.6709 61.5636 81.8684 60.3126 82.1977C60.3126 82.1977 60.1809 82.461 61.4319 82.461C61.4319 82.461 63.5389 82.461 64.8558 82.1977C64.9216 82.1977 64.9216 82.1977 64.9875 82.1977C65.7776 82.3952 66.8969 82.5269 68.1479 82.5927C68.0821 82.9219 68.6089 83.1853 68.6089 83.1853C69.1356 83.2512 69.5965 83.2512 70.0574 83.2512C70.1891 83.317 70.2549 83.3828 70.3866 83.4487C70.3866 83.4487 71.7035 83.5804 72.9545 83.3828C72.9545 83.3828 73.0862 83.1853 73.0862 82.8561C73.3496 82.9878 73.6788 83.0536 74.008 83.1195C74.008 83.1195 75.5883 83.2512 76.5101 82.9219C76.2467 82.9219 75.9833 82.461 74.9957 81.9343Z" fill="#F6BA5F"/>
</g>
<path d="M59.786 67.1854C56.9547 67.1854 55.6379 65.8027 55.1111 64.9467C54.7819 64.42 54.5844 63.8274 54.4527 63.1689C53.3333 63.3665 52.0165 63.4982 50.6338 63.4982C41.679 63.564 30.4856 61.6545 27.3251 58.099C26.6008 57.3089 26.3375 56.4529 26.4691 55.5311C26.6667 54.0825 27.5226 52.9632 28.9054 52.3047C31.8025 51.0537 36.214 52.0414 37.6626 53.029L37.3333 53.5558C36.0165 52.634 31.8025 51.7122 29.1687 52.8973C27.9835 53.4241 27.2593 54.3459 27.1276 55.5969C27.0617 56.3212 27.2593 56.9796 27.8519 57.6381C30.8148 60.9961 41.679 62.8397 50.4362 62.8397C50.5021 62.8397 50.5679 62.8397 50.6338 62.8397C52.0823 62.8397 53.3333 62.708 54.4527 62.5105C54.4527 62.0496 54.5185 61.5887 54.5844 61.1278C54.1893 61.457 53.7284 61.6545 53.2017 61.5229C52.7408 61.3912 52.4774 60.9961 52.6091 60.4694C52.6749 60.0085 53.0041 59.4817 53.5967 58.8891C51.9506 59.4159 50.0412 59.4159 48.856 58.8233C47.6708 58.2307 47.8683 57.4406 48 57.1113C48.5268 55.7945 51.4239 54.8068 53.7942 55.5969C54.7819 55.9261 55.3087 56.4529 55.572 57.1113C56.0988 56.5846 56.2963 55.992 56.0329 55.3336C55.9012 55.0702 55.7037 54.8068 55.4403 54.5434C55.0453 54.6751 54.7161 54.741 54.3868 54.8068C51.9506 55.2677 47.9342 55.3994 47.3416 53.885C47.144 53.3582 47.4074 52.8973 48 52.634C49.5144 52.0414 53.5309 52.4364 55.572 53.885C56.7572 53.5558 57.3498 53.1607 57.3498 52.8315C57.3498 51.8438 54.1235 51.0537 51.8189 50.7903L51.8848 50.1978C52.8724 50.3294 58.0082 50.922 58.0082 52.8315C58.0082 53.4899 57.1523 54.0167 56.1646 54.3459C56.3622 54.5434 56.5597 54.8068 56.6255 55.0702C56.9547 55.7945 56.8231 56.4529 56.3622 57.1113C56.8231 56.9138 57.3498 56.7821 57.9424 56.6504C58.7984 55.7286 59.786 55.3994 60.5103 55.6628C60.8395 55.7945 61.1029 56.0578 61.3004 56.4529C64.1975 56.7821 65.6461 59.2183 65.7778 61.457C65.9095 63.8274 64.4609 66.5928 61.1687 67.0537C60.642 67.1196 60.2469 67.1854 59.786 67.1854ZM55.1111 63.0373C55.177 63.6299 55.3745 64.1566 55.6379 64.6175C56.6255 66.1319 58.535 66.7903 61.037 66.4611C64 66.0661 65.1852 63.6957 65.1194 61.5229C65.0535 59.5475 63.8683 57.5722 61.4321 57.1772C61.4321 57.3089 61.4321 57.4406 61.4321 57.5722C63.0782 58.2307 63.8683 59.5475 63.6049 61.1278C63.3416 62.7739 62.2222 63.8932 60.642 64.0249C59.1934 64.1566 57.679 63.564 56.8889 62.5105C56.2963 62.708 55.7037 62.9056 55.1111 63.0373ZM57.4156 62.2471C58.0741 63.0373 59.3251 63.564 60.5103 63.4323C61.8272 63.3006 62.749 62.3788 62.9465 60.9961C63.2099 59.2842 62.0247 58.494 61.3004 58.1648C61.037 59.6792 59.786 61.1936 57.4156 62.2471ZM56.6255 58.7574C56.3622 58.955 56.1646 59.1525 56.0329 59.4159C55.4403 60.3377 55.1111 61.3912 55.1111 62.3788C55.6379 62.2471 56.0988 62.1154 56.5597 61.9179C56.5597 61.8521 56.4938 61.8521 56.4938 61.7862C56.0329 60.8644 56.1646 59.7451 56.6255 58.7574ZM57.5473 58.1648C56.8889 59.2183 56.5597 60.601 57.0206 61.6545C57.0206 61.7204 57.0864 61.7204 57.0864 61.7862C59.5226 60.7327 60.5761 59.1525 60.7737 58.0331C59.786 57.7039 58.6008 57.7698 57.5473 58.1648ZM55.177 58.4282C53.9918 59.1525 53.2675 60.0085 53.2017 60.601C53.1358 60.8644 53.2675 60.9303 53.3992 60.9303C53.9259 61.1278 54.7161 60.2718 55.0453 59.2183C55.1111 59.0866 55.177 58.8233 55.177 58.4282ZM52.0165 55.992C50.3704 55.992 48.856 56.7163 48.5268 57.4406C48.3951 57.7698 48.5926 58.099 49.1194 58.3624C50.5679 59.1525 53.465 58.6916 55.0453 57.5722C54.8477 57.0455 54.4527 56.5187 53.5309 56.2554C53.07 56.0578 52.5432 55.992 52.0165 55.992ZM55.7696 58.099C55.7696 58.2965 55.7696 58.494 55.7696 58.6257C56.1646 58.1648 56.6255 57.8356 57.1523 57.6381C57.1523 57.5722 57.2181 57.5722 57.2181 57.5064C56.6914 57.7039 56.2305 57.9015 55.7696 58.099ZM59.391 57.1772C59.8519 57.1772 60.3786 57.243 60.8395 57.3747C60.8395 57.3089 60.8395 57.1772 60.8395 57.1113C59.9177 57.0455 58.9959 57.1772 58.2058 57.3089C58.6008 57.243 58.9959 57.1772 59.391 57.1772ZM59.9835 56.2554C59.7202 56.2554 59.391 56.3212 59.1276 56.5187C59.5885 56.4529 60.0494 56.4529 60.5761 56.4529C60.5103 56.3871 60.4445 56.3212 60.3128 56.3212C60.1811 56.2554 60.0494 56.2554 59.9835 56.2554ZM49.8436 53.0949C49.1852 53.0949 48.5926 53.1607 48.1975 53.3582C47.7366 53.5558 47.8025 53.7533 47.8683 53.8192C48.1975 54.6751 51.2263 54.8726 54.2552 54.3459C54.4527 54.3459 54.5844 54.2801 54.7819 54.2142C53.3992 53.4241 51.358 53.0949 49.8436 53.0949Z" fill="#A96F7C"/>
<path fill-rule="evenodd" clip-rule="evenodd" d="M24.1646 60.9302L25.3497 63.959C25.3497 63.959 44.2469 64.4857 54.3868 63.959L55.7036 60.9302H24.1646Z" fill="url(#paint0_linear_275_3957)"/>
<path fill-rule="evenodd" clip-rule="evenodd" d="M33.2509 54.9385L24.0986 60.9302C24.0986 60.9302 42.0081 62.7739 55.7036 60.9302L47.4731 55.5969L33.2509 54.9385Z" fill="url(#paint1_linear_275_3957)"/>
<path fill-rule="evenodd" clip-rule="evenodd" d="M32.7245 57.3087L31.7368 58.2964C31.7368 58.2964 40.099 60.4034 48.9878 58.2964L48.3294 56.9795L32.7245 57.3087Z" fill="#EE8B88"/>
<path fill-rule="evenodd" clip-rule="evenodd" d="M30.0249 50.8562L32.9879 57.9015C32.9879 57.9015 39.9673 60.4035 48.0661 57.9015L50.3047 51.2513L30.0249 50.8562Z" fill="url(#paint2_linear_275_3957)"/>
<path opacity="0.5" fill-rule="evenodd" clip-rule="evenodd" d="M31.2759 53.885C31.2759 53.885 35.4899 52.8974 49.5804 53.4241L50.3047 51.1854L29.959 50.8562L31.2759 53.885Z" fill="#DD7288"/>
<path fill-rule="evenodd" clip-rule="evenodd" d="M28.5102 58.0989C28.5102 58.0989 26.074 60.2717 26.2057 60.7326C26.3374 61.1277 41.2839 62.0495 53.1357 60.7326C53.7283 60.6668 51.4238 58.0989 51.4238 58.0989L55.7695 60.9301C55.7695 60.9301 49.9752 61.7861 40.2304 61.7861C30.4855 61.7861 24.1646 60.9301 24.1646 60.9301L28.5102 58.0989Z" fill="#FFEFD3"/>
<path fill-rule="evenodd" clip-rule="evenodd" d="M47.144 61.5886C47.144 61.5886 50.107 59.0207 53.8601 61.1935C53.8601 61.1935 48.3951 61.4569 47.144 61.5886Z" fill="white"/>
<path fill-rule="evenodd" clip-rule="evenodd" d="M5.53093 73.8354C5.53093 73.8354 7.04533 74.7572 8.75726 73.6379C8.75726 73.6379 10.0083 69.7531 8.69142 67.1852L5.3334 67.1194C5.3334 67.1194 4.47743 71.5309 5.53093 73.8354Z" fill="#EE8B88"/>
<path fill-rule="evenodd" clip-rule="evenodd" d="M1.44856 65.671C2.107 64.9468 5.00412 65.0784 5.33333 67.1196C5.33333 67.1196 4.27984 71.0702 2.76543 73.5064C2.76543 73.5064 1.0535 74.2307 0 72.3212C0 72.3212 0.329218 69.0949 1.44856 65.671Z" fill="url(#paint3_linear_275_3957)"/>
<path fill-rule="evenodd" clip-rule="evenodd" d="M8.16471 25.0454C8.16471 25.0454 4.60915 39.9919 4.41162 59.3499C4.41162 59.3499 8.55977 60.996 10.9301 58.6257C10.9301 58.6257 10.7326 39.2676 11.852 31.8273L8.16471 25.0454Z" fill="url(#paint4_linear_275_3957)"/>
<path fill-rule="evenodd" clip-rule="evenodd" d="M1.2509 62.1153C-0.329344 72.2552 14.6172 72.9795 13.8929 61.9836L1.2509 62.1153Z" fill="url(#paint5_linear_275_3957)"/>
<path fill-rule="evenodd" clip-rule="evenodd" d="M4.08225 58.6257C4.08225 58.6257 2.17279 59.6134 1.25098 62.1154C1.25098 62.1154 6.78184 65.0126 13.893 61.9838C13.893 61.9838 13.432 59.8768 11.3251 58.6257C11.3251 58.6257 7.50612 60.4035 4.08225 58.6257Z" fill="url(#paint6_linear_275_3957)"/>
<path fill-rule="evenodd" clip-rule="evenodd" d="M1.25098 62.1153C1.25098 62.1153 3.16044 63.7614 7.57196 63.7614C11.9835 63.7614 13.893 61.9836 13.893 61.9836C13.893 61.9836 11.8518 63.3664 7.57196 63.3664C3.22629 63.3664 1.25098 62.1153 1.25098 62.1153Z" fill="#EE8B88"/>
<path fill-rule="evenodd" clip-rule="evenodd" d="M8.09895 68.963C7.96726 69.5556 6.91376 69.8848 5.72858 69.6873C4.54339 69.4898 3.62158 68.8313 3.75327 68.2387C3.88496 67.6461 4.93845 67.3169 6.12364 67.5145C7.30882 67.712 8.23064 68.3704 8.09895 68.963Z" fill="#EE8B88"/>
<path fill-rule="evenodd" clip-rule="evenodd" d="M12.3128 67.3828C11.9836 67.2511 12.0495 66.1318 12.4445 64.8807C12.8396 63.5639 13.4322 62.6421 13.7614 62.7079C14.0906 62.8396 14.0248 63.9589 13.6297 65.21C13.2347 66.5268 12.6421 67.5145 12.3128 67.3828Z" fill="#EE8B88"/>
<path fill-rule="evenodd" clip-rule="evenodd" d="M13.893 62.9055C13.893 62.9055 16.3292 64.4199 17.9095 66.7903C17.9095 66.7903 18.107 68.7656 16.6584 68.7656C16.6584 68.7656 14.1564 68.8314 12.7078 66.7244C12.4444 65.21 12.7737 64.1565 13.893 62.9055Z" fill="url(#paint7_linear_275_3957)"/>
<path fill-rule="evenodd" clip-rule="evenodd" d="M3.88491 68.3705C4.34582 67.5145 7.11125 67.0536 7.90137 68.8972C7.90137 68.8972 7.70384 72.9795 6.84787 75.6791C6.84787 75.6791 5.39931 76.7326 3.95075 75.1524C3.95075 75.0865 3.55569 71.926 3.88491 68.3705Z" fill="url(#paint8_linear_275_3957)"/>
<path fill-rule="evenodd" clip-rule="evenodd" d="M4.74072 50.7902C4.74072 50.7902 8.6255 50 10.93 51.5144V50.7902C10.93 50.7902 8.82303 49.5391 4.74072 50.1976V50.7902Z" fill="url(#paint9_linear_275_3957)"/>
<path fill-rule="evenodd" clip-rule="evenodd" d="M5.3335 43.2842C5.3335 43.2842 7.57218 42.1649 11.0619 43.1525V42.4941C11.0619 42.4941 7.70387 41.5723 5.3335 42.8892V43.2842Z" fill="url(#paint10_linear_275_3957)"/>
<path fill-rule="evenodd" clip-rule="evenodd" d="M6.51855 34.0659C6.51855 34.0659 8.95477 32.6832 11.6544 33.8684V33.4075C11.6544 33.4075 9.02061 32.2881 6.5844 33.7367L6.51855 34.0659Z" fill="url(#paint11_linear_275_3957)"/>
<path fill-rule="evenodd" clip-rule="evenodd" d="M6.51861 73.1113C6.51861 73.1113 5.66265 74.4282 6.51861 75.2842C6.51861 75.2842 6.97952 74.3624 6.51861 73.1113Z" fill="white"/>
<path fill-rule="evenodd" clip-rule="evenodd" d="M16.3291 66.0002C16.3291 66.0002 16.5266 67.1196 17.5143 66.8562C17.5143 66.8562 17.4484 66.0661 16.3291 66.0002Z" fill="white"/>
<path opacity="0.5" fill-rule="evenodd" clip-rule="evenodd" d="M4.93848 59.0208C4.93848 59.0208 7.90144 60.6669 13.3665 60.7986C13.3665 60.7986 13.0372 59.8768 11.2595 58.6257C11.3253 58.6257 8.55988 59.8768 4.93848 59.0208Z" fill="#DD7288"/>
<path fill-rule="evenodd" clip-rule="evenodd" d="M2.04102 61.5886C2.04102 61.5886 2.56776 60.14 3.75295 59.8108C3.75295 59.8108 3.2262 61.2593 2.04102 61.5886Z" fill="white"/>
<path opacity="0.5" fill-rule="evenodd" clip-rule="evenodd" d="M6.58447 33.7368L10.996 47.4322L11.1277 39.8602L8.16472 25.0454L6.58447 33.7368Z" fill="#CE7288"/>
<path fill-rule="evenodd" clip-rule="evenodd" d="M74.4689 74.1648C74.4689 74.1648 72.9545 75.0866 71.2426 73.9672C71.2426 73.9672 69.9915 70.0825 71.3084 67.5146L74.6664 67.4487C74.6664 67.4487 75.5224 71.8603 74.4689 74.1648Z" fill="#EE8B88"/>
<path fill-rule="evenodd" clip-rule="evenodd" d="M78.5513 66.0001C77.8928 65.2759 74.9957 65.4075 74.6665 67.4487C74.6665 67.4487 75.72 71.3993 77.2344 73.8355C77.2344 73.8355 78.9463 74.5598 79.9998 72.6503C79.9998 72.6503 79.6048 69.424 78.5513 66.0001Z" fill="url(#paint12_linear_275_3957)"/>
<path fill-rule="evenodd" clip-rule="evenodd" d="M71.7698 25.3748C71.7698 25.3748 75.3253 40.3213 75.5228 59.6793C75.5228 59.6793 71.3747 61.3254 69.0043 58.955C69.0043 58.955 69.2019 39.597 68.0825 32.1566L71.7698 25.3748Z" fill="url(#paint13_linear_275_3957)"/>
<path fill-rule="evenodd" clip-rule="evenodd" d="M78.6831 62.4447C80.2634 72.5846 65.3169 73.3089 66.0411 62.313L78.6831 62.4447Z" fill="url(#paint14_linear_275_3957)"/>
<path fill-rule="evenodd" clip-rule="evenodd" d="M75.9176 58.9548C75.9176 58.9548 77.8271 59.9425 78.7489 62.4445C78.7489 62.4445 73.218 65.3417 66.1069 62.3129C66.1069 62.3129 66.5678 60.2059 68.6748 58.9548C68.6748 58.9548 72.4279 60.7326 75.9176 58.9548Z" fill="url(#paint15_linear_275_3957)"/>
<path fill-rule="evenodd" clip-rule="evenodd" d="M78.683 62.4447C78.683 62.4447 76.7735 64.0908 72.362 64.0908C67.9505 64.0908 66.041 62.313 66.041 62.313C66.041 62.313 68.0822 63.6957 72.362 63.6957C76.7735 63.6957 78.683 62.4447 78.683 62.4447Z" fill="#EE8B88"/>
<path fill-rule="evenodd" clip-rule="evenodd" d="M71.901 69.2924C72.0327 69.885 73.0862 70.2142 74.2714 70.0166C75.4566 69.8191 76.3784 69.1607 76.2467 68.5681C76.115 67.9755 75.0615 67.6463 73.8764 67.8438C72.6253 68.0413 71.7694 68.6998 71.901 69.2924Z" fill="#EE8B88"/>
<path fill-rule="evenodd" clip-rule="evenodd" d="M67.6213 67.7121C67.9505 67.5805 67.8846 66.4611 67.4896 65.2101C67.0945 63.8932 66.5019 62.9714 66.1727 63.0373C65.8435 63.1689 65.9093 64.2883 66.3044 65.5393C66.6995 66.8562 67.292 67.778 67.6213 67.7121Z" fill="#EE8B88"/>
<path fill-rule="evenodd" clip-rule="evenodd" d="M66.1071 63.1689C66.1071 63.1689 63.6709 64.6833 62.0906 67.0537C62.0906 67.0537 61.8931 69.029 63.3416 69.029C63.3416 69.029 65.8437 69.0949 67.2923 66.9879C67.4898 65.4735 67.2264 64.42 66.1071 63.1689Z" fill="url(#paint16_linear_275_3957)"/>
<path fill-rule="evenodd" clip-rule="evenodd" d="M76.1151 68.6998C75.6542 67.8438 72.8888 67.3829 72.0986 69.2266C72.0986 69.2266 72.2962 73.3089 73.1521 76.0084C73.1521 76.0084 74.6007 77.0619 76.0493 75.4817C76.0493 75.4159 76.3785 72.2554 76.1151 68.6998Z" fill="url(#paint17_linear_275_3957)"/>
<path fill-rule="evenodd" clip-rule="evenodd" d="M75.2591 51.0536C75.2591 51.0536 71.3744 50.2635 69.0698 51.7779V51.0536C69.0698 51.0536 71.1768 49.8026 75.2591 50.461V51.0536Z" fill="url(#paint18_linear_275_3957)"/>
<path fill-rule="evenodd" clip-rule="evenodd" d="M74.601 43.6133C74.601 43.6133 72.3623 42.494 68.8726 43.4816V42.8232C68.8726 42.8232 72.2306 41.9014 74.601 43.2183V43.6133Z" fill="url(#paint19_linear_275_3957)"/>
<path fill-rule="evenodd" clip-rule="evenodd" d="M73.4815 34.3294C73.4815 34.3294 71.0453 32.9466 68.3457 34.1318V33.6709C68.3457 33.6709 70.9794 32.5516 73.4157 34.0001L73.4815 34.3294Z" fill="url(#paint20_linear_275_3957)"/>
<path fill-rule="evenodd" clip-rule="evenodd" d="M73.4817 73.4404C73.4817 73.4404 74.3376 74.7573 73.4817 75.6133C73.4817 75.6133 72.9549 74.6915 73.4817 73.4404Z" fill="white"/>
<path fill-rule="evenodd" clip-rule="evenodd" d="M63.6051 66.3293C63.6051 66.3293 63.4076 67.4487 62.4199 67.1853C62.4199 67.1853 62.5516 66.3952 63.6051 66.3293Z" fill="white"/>
<path opacity="0.5" fill-rule="evenodd" clip-rule="evenodd" d="M69.5967 59.2842C69.5967 59.2842 72.5596 60.9303 78.0247 61.062C78.0247 61.062 77.6954 60.1402 75.9177 58.8892C75.9835 58.955 73.2839 60.206 69.5967 59.2842Z" fill="#DD7288"/>
<path opacity="0.5" fill-rule="evenodd" clip-rule="evenodd" d="M73.3499 33.4077L69.0042 46.9056L68.8726 40.1237L71.7697 25.3748L73.3499 33.4077Z" fill="#CE7288"/>
<path fill-rule="evenodd" clip-rule="evenodd" d="M7.50635 7.00436C7.50635 7.00436 9.02075 4.83152 13.2347 3.4488C20.4775 1.07843 50.5681 -1.09441 66.5681 2.32946C71.5722 3.4488 72.8891 6.93851 72.8891 6.93851H7.50635V7.00436Z" fill="url(#paint21_linear_275_3957)"/>
<path fill-rule="evenodd" clip-rule="evenodd" d="M7.04519 8.5188C6.97935 14.9715 7.90116 31.7616 12.3785 47.4324C12.7736 48.7492 13.8271 49.6711 15.144 49.7369C22.1892 50.2637 44.9053 52.239 64.5925 50.3953C65.8435 50.2637 66.8312 49.3418 67.2921 48.1567C69.6625 41.7698 73.7448 23.597 72.6913 7.53115C72.6254 6.01674 71.5061 4.83156 70.0575 4.56818C63.0123 3.383 41.0863 -0.0408697 9.67894 5.35831C8.16454 5.62168 7.04519 6.93855 7.04519 8.5188Z" fill="url(#paint22_linear_275_3957)"/>
<path fill-rule="evenodd" clip-rule="evenodd" d="M7.04519 8.78208C6.97935 15.2348 7.90116 32.0249 12.3785 47.6957C12.7736 49.0125 13.8271 49.9343 15.144 50.0002C22.1892 50.5269 44.9053 52.5022 64.5925 50.6586C65.8435 50.5269 66.8312 49.6051 67.2921 48.4199C69.6625 42.0331 73.7448 23.8603 72.6913 7.79442C72.6254 6.28002 71.5061 5.09484 70.0575 4.83146C63.0123 3.64628 41.0205 0.880843 9.67894 5.62158C8.16454 5.9508 7.04519 7.26767 7.04519 8.78208Z" fill="#EE8B88"/>
<path fill-rule="evenodd" clip-rule="evenodd" d="M72.0987 29.852C70.8476 38.2142 69.004 45.3253 67.6871 48.8808C67.2262 50.1319 66.2386 51.0537 64.9217 51.1195C59.1275 51.6463 53.0699 51.8438 47.2098 51.9096C41.6131 51.9096 36.2139 51.7779 31.4073 51.5804C23.9011 51.2512 17.7777 50.7244 14.683 50.5269C13.4978 50.4611 12.5102 49.7368 12.0493 48.7491L11.8517 48.2224C7.30854 32.5516 6.32088 15.7615 6.45257 9.30881C6.45257 7.72856 7.63776 6.41169 9.15216 6.21416C16.7242 5.09481 23.7036 4.37053 30.1563 3.97547C50.6995 2.6586 65.0534 4.50222 70.5184 5.42403C71.967 5.68741 73.0863 6.87259 73.218 8.387C73.6789 15.4323 73.0863 23.0701 72.0987 29.852Z" fill="url(#paint23_linear_275_3957)"/>
<path fill-rule="evenodd" clip-rule="evenodd" d="M17.7779 46.5104C24.2306 47.0372 43.6545 48.4199 61.7615 46.4446C62.9466 46.3129 63.9343 45.4569 64.2635 44.2718C65.5145 39.2676 68.6092 25.638 68.0824 12.9302C68.0166 11.4816 66.9631 10.2965 65.5145 10.1648C58.996 9.3088 39.5722 7.53102 14.8808 10.9549C13.4322 11.1524 12.3129 12.4693 12.3787 13.9837C12.5104 19.2512 13.0372 31.5639 15.21 44.1401C15.4075 45.3911 16.461 46.3788 17.7779 46.5104Z" fill="url(#paint24_linear_275_3957)"/>
<path opacity="0.3" fill-rule="evenodd" clip-rule="evenodd" d="M72.0987 29.8519L71.7037 30.5762L30.2222 3.90956C50.7654 2.59268 65.1193 4.4363 70.5843 5.35811C72.0329 5.62149 73.1522 6.80667 73.2839 8.32108C73.679 15.4322 73.0864 23.0701 72.0987 29.8519Z" fill="white"/>
<path fill-rule="evenodd" clip-rule="evenodd" d="M66.5022 30.2472C65.6462 35.9756 64.5268 40.7163 63.8684 43.2184C63.5392 44.3377 62.6174 45.2595 61.4322 45.3254C58.9301 45.5887 56.3622 45.7863 53.8602 45.9838C38.4528 46.9056 23.5721 45.9179 18.1071 45.3912C16.7902 45.2595 15.7367 44.2719 15.5392 43.0208C15.2758 41.5064 15.0124 39.992 14.8149 38.4776C13.3005 27.8768 12.9054 18.1319 12.7738 13.6546C12.7079 12.206 13.8273 10.955 15.2758 10.7575C19.8849 10.099 24.2964 9.63811 28.5104 9.37474C46.4198 8.05787 59.9836 9.37474 65.1853 10.0332C66.568 10.2307 67.6215 11.35 67.6873 12.7328C67.8849 18.7245 67.3581 24.9138 66.5022 30.2472Z" fill="#F6BA5F"/>
<path fill-rule="evenodd" clip-rule="evenodd" d="M20.7407 3.97546L26.8642 1.34171C26.8642 1.34171 34.7654 0.617432 40.7572 0.617432L38.9136 2.72443C38.9794 2.65858 24.6913 3.51455 20.7407 3.97546Z" fill="#D1D8B3"/>
<path fill-rule="evenodd" clip-rule="evenodd" d="M22.3867 19.2511C22.3867 19.2511 23.7036 17.2099 28.6419 15.8931L28.9052 18.1318C28.9052 18.1318 25.6789 18.1976 22.7818 20.3704L22.3867 19.2511Z" fill="#4BA97E"/>
<path fill-rule="evenodd" clip-rule="evenodd" d="M50.5678 15.8931L50.1069 17.6708C50.1069 17.6708 53.465 18.3951 55.5061 20.3046L56.0987 19.2511C56.0987 19.2511 53.9259 16.4198 50.5678 15.8931Z" fill="#4BA97E"/>
<path fill-rule="evenodd" clip-rule="evenodd" d="M35.4238 39.3334C35.4238 39.3334 38.9135 35.9754 40.6913 36.107C42.4691 36.2387 42.7325 38.4116 42.7325 38.4116C42.7325 38.4116 38.5843 38.0165 35.4238 39.3334Z" fill="url(#paint25_linear_275_3957)"/>
<path fill-rule="evenodd" clip-rule="evenodd" d="M35.4238 39.3336C35.4238 39.3336 37.3333 37.885 39.572 37.7533C41.8107 37.6216 42.7325 38.4118 42.7325 38.4118C42.7325 38.4118 38.9794 38.0167 35.4238 39.3336Z" fill="url(#paint26_linear_275_3957)"/>
<path opacity="0.5" fill-rule="evenodd" clip-rule="evenodd" d="M57.2839 26.8233L55.4402 24.4529C54.1234 24.9796 52.8065 25.8356 51.6872 26.7574C50.897 25.9014 49.9752 25.1113 48.9876 24.4529C48.9876 24.4529 47.0123 25.3088 45.7612 27.7451C45.7612 27.7451 47.0781 28.4693 48.5267 29.7204C47.539 30.2471 46.0246 32.2224 45.8929 32.6175L47.6049 34.5928C48.6584 33.7368 49.7777 32.8809 50.8312 32.0249C51.8188 32.9467 52.8065 34.0661 53.86 35.2512L56.6254 33.4076C56.6254 33.4076 55.6378 31.6957 54.1234 29.5887C55.7695 28.206 57.2839 26.8233 57.2839 26.8233Z" fill="url(#paint27_linear_275_3957)"/>
<path opacity="0.5" fill-rule="evenodd" clip-rule="evenodd" d="M21.8599 26.8233L23.4401 24.4529C24.757 24.9796 26.4689 26.1648 27.5883 27.0866C28.3784 26.2307 29.8928 25.3088 30.7488 24.4529C30.7488 24.4529 33.185 25.9673 33.58 27.7451C33.58 27.7451 32.1315 28.4693 30.6171 29.7204C31.4072 30.313 33.1191 32.2224 33.2508 32.6175L31.5389 34.5928C30.4854 33.7368 29.2343 32.7492 28.1809 31.9591C27.1932 32.8809 26.1397 34.1977 25.152 35.4488L22.3208 33.4735C22.3208 33.4735 23.5718 31.7615 25.152 29.6545C23.3743 28.206 21.8599 26.8233 21.8599 26.8233Z" fill="url(#paint28_linear_275_3957)"/>
<path fill-rule="evenodd" clip-rule="evenodd" d="M56.8229 26.8891L55.4402 24.4529C54.1233 24.9796 52.8065 25.8356 51.6871 26.7574C50.897 25.9014 49.9752 25.1113 48.9875 24.4529C48.9875 24.4529 46.5513 25.8356 46.1562 27.6792C46.1562 27.6792 47.2097 28.3377 48.6583 29.5887C47.1439 31.2348 46.1562 32.5516 46.1562 32.5516L47.539 34.0002C48.5925 33.1442 49.7118 32.2883 50.7653 31.4323C51.753 32.3541 52.7406 33.4735 53.7941 34.6586L56.1645 33.1442C56.1645 33.1442 55.3085 31.3006 53.7283 29.1936C55.506 27.8109 56.8229 26.8891 56.8229 26.8891Z" fill="url(#paint29_radial_275_3957)"/>
<path fill-rule="evenodd" clip-rule="evenodd" d="M33.3827 27.4158C32.4609 25.3746 30.749 24.387 30.749 24.387C29.6296 25.1112 28.5761 26.0331 27.5885 27.0207C26.3375 25.9672 24.8889 25.0454 23.4403 24.387L22.0576 26.889C22.0576 26.889 23.5062 27.9425 25.4815 29.3911C23.8354 31.4322 22.7819 33.0783 22.7819 33.0783L25.1523 34.5927C26.1399 33.4075 27.1934 32.2882 28.1811 31.3664C29.2346 32.1565 30.3539 33.0125 31.4074 33.8684L32.7901 32.4199C32.7901 32.4199 31.8683 31.103 30.3539 29.5228C32.0658 28.2059 33.3827 27.4158 33.3827 27.4158Z" fill="url(#paint30_radial_275_3957)"/>
<path opacity="0.3" fill-rule="evenodd" clip-rule="evenodd" d="M67.6874 48.8808C67.2265 50.1319 66.2389 51.0537 64.922 51.1195C59.1278 51.6463 53.0702 51.8438 47.2101 51.9097C41.6134 51.9097 36.2142 51.778 31.4076 51.5804C23.9014 51.2512 17.778 50.7245 14.6833 50.5269C13.4981 50.4611 12.5105 49.7368 12.0496 48.7492L11.8521 48.2224C11.8521 48.2224 21.0043 51.3171 40.8891 51.3171C60.7739 51.3171 67.6874 48.8808 67.6874 48.8808Z" fill="#DD7288"/>
<path fill-rule="evenodd" clip-rule="evenodd" d="M63.1442 47.4982C63.4734 47.6957 63.2758 50.4612 62.8808 50.7904C62.4857 51.1196 55.5721 51.5147 54.9796 51.0537C54.5845 50.7904 54.6503 48.42 55.1771 47.8274C55.638 47.3665 62.4857 47.169 63.1442 47.4982Z" fill="url(#paint31_linear_275_3957)"/>
<path fill-rule="evenodd" clip-rule="evenodd" d="M63.1442 47.3006C63.4735 47.4981 63.2759 50.2635 62.8809 50.5928C62.4858 50.922 55.6381 51.1854 55.1113 50.7903C54.7162 50.5269 54.8479 48.0907 55.1772 47.6298C55.5722 47.1031 62.4858 46.9714 63.1442 47.3006Z" fill="#E3847E"/>
<path fill-rule="evenodd" clip-rule="evenodd" d="M62.8806 47.498C63.2757 47.7614 63.144 49.8025 62.9465 50.3951C62.9465 50.461 62.6173 50.5927 62.6173 50.5927C62.0905 50.7902 55.7695 51.0536 55.3086 50.6585C54.7819 50.2635 55.2428 48.2223 55.3745 47.8931C55.5061 47.5639 62.2222 47.0371 62.8806 47.498Z" fill="url(#paint32_linear_275_3957)"/>
<path fill-rule="evenodd" clip-rule="evenodd" d="M55.7036 50.4611C56.2304 50.8561 62.5514 50.7245 63.0123 50.3952C63.2098 50.1977 63.3415 49.6051 63.3415 49.0125C63.3415 48.3541 63.539 47.6298 63.3415 47.4981C62.6172 46.9714 55.9012 47.4981 55.7695 47.8273C55.6378 48.1566 55.1769 50.1319 55.7036 50.4611Z" fill="url(#paint33_linear_275_3957)"/>
<path fill-rule="evenodd" clip-rule="evenodd" d="M55.7036 47.8274C57.8106 47.4324 62.288 47.4323 62.9464 47.6299C63.539 47.8274 63.2756 48.8809 63.2756 48.9468C63.2756 48.2883 63.4732 47.564 63.2756 47.4323C62.6172 46.9714 55.8353 47.4982 55.7036 47.8274Z" fill="url(#paint34_linear_275_3957)"/>
<path fill-rule="evenodd" clip-rule="evenodd" d="M63.2759 47.4981C63.2759 47.4981 63.0125 48.0248 62.0907 47.8931C61.103 47.7614 61.103 47.3005 61.103 47.3005C61.103 47.3005 62.7491 47.2347 63.2759 47.4981Z" fill="white"/>
<path fill-rule="evenodd" clip-rule="evenodd" d="M51.8188 3.58032C51.8188 3.58032 52.6748 6.47744 56.823 7.00419C60.9711 7.53094 63.9999 4.43629 63.9999 4.43629C63.9999 4.43629 56.0328 3.71201 51.8188 3.58032Z" fill="white"/>
<path opacity="0.5" fill-rule="evenodd" clip-rule="evenodd" d="M66.5019 30.2472L28.4443 9.37474C46.3538 8.05787 59.9176 9.37474 65.1192 10.0332C66.5019 10.2307 67.5554 11.35 67.6213 12.7328C67.8847 18.7245 67.3579 24.9138 66.5019 30.2472Z" fill="url(#paint35_linear_275_3957)"/>
<path fill-rule="evenodd" clip-rule="evenodd" d="M9.08662 26.8232C9.08662 26.8232 8.23065 30.5763 10.0743 33.3418C10.0743 33.3418 10.0743 28.5352 9.08662 26.8232Z" fill="white"/>
<path opacity="0.3" fill-rule="evenodd" clip-rule="evenodd" d="M53.8602 46.0495C38.4528 46.9713 23.5721 45.9836 18.1071 45.5227C16.7902 45.391 15.7368 44.4034 15.5392 43.1523C15.2758 41.6379 15.0125 40.1235 14.8149 38.6091L53.8602 46.0495Z" fill="url(#paint36_linear_275_3957)"/>
<path d="M6.5185 41.3748C6.5185 41.3748 4.14813 48.6834 5.33332 54.2143C5.33332 54.2801 7.37447 47.2348 6.5185 41.3748Z" fill="#FFFFB3"/>
<path d="M69.5969 48.2224C69.5969 48.2224 69.0043 54.1483 70.1895 57.5722C70.1895 57.5722 70.9138 53.2924 69.5969 48.2224Z" fill="#FFFFB3"/>
</g>
<defs>
<linearGradient id="paint0_linear_275_3957" x1="40.4554" y1="65.5014" x2="39.7526" y2="59.171" gradientUnits="userSpaceOnUse">
<stop offset="0.0171145" stop-color="#FFA993"/>
<stop offset="1" stop-color="#FFA396"/>
</linearGradient>
<linearGradient id="paint1_linear_275_3957" x1="40.1394" y1="62.6557" x2="39.2101" y2="54.2846" gradientUnits="userSpaceOnUse">
<stop offset="0.0171145" stop-color="#FFDBAB"/>
<stop offset="1" stop-color="#FFE6D6"/>
</linearGradient>
<linearGradient id="paint2_linear_275_3957" x1="41.07" y1="59.1458" x2="40.0287" y2="49.7655" gradientUnits="userSpaceOnUse">
<stop offset="0.0171145" stop-color="#FFBD97"/>
<stop offset="1" stop-color="#FFC2A7"/>
</linearGradient>
<linearGradient id="paint3_linear_275_3957" x1="1.60202" y1="73.6239" x2="3.60524" y2="65.4092" gradientUnits="userSpaceOnUse">
<stop offset="0.0171145" stop-color="#FFA993"/>
<stop offset="1" stop-color="#FFCFA9"/>
</linearGradient>
<linearGradient id="paint4_linear_275_3957" x1="9.73297" y1="59.7508" x2="5.91128" y2="25.3254" gradientUnits="userSpaceOnUse">
<stop offset="0.0171145" stop-color="#EA8489"/>
<stop offset="1" stop-color="#FFA679"/>
</linearGradient>
<linearGradient id="paint5_linear_275_3957" x1="8.29564" y1="69.9282" x2="7.35467" y2="61.4524" gradientUnits="userSpaceOnUse">
<stop offset="0.0171145" stop-color="#FFA993"/>
<stop offset="1" stop-color="#FFCFA9"/>
</linearGradient>
<linearGradient id="paint6_linear_275_3957" x1="7.73743" y1="63.4473" x2="7.16466" y2="58.2879" gradientUnits="userSpaceOnUse">
<stop offset="0.0171145" stop-color="#FFDBAB"/>
<stop offset="1" stop-color="#FFE6D6"/>
</linearGradient>
<linearGradient id="paint7_linear_275_3957" x1="15.5629" y1="68.8804" x2="14.8856" y2="62.7801" gradientUnits="userSpaceOnUse">
<stop stop-color="#FFD6C7"/>
<stop offset="0.9829" stop-color="#FFDBAB"/>
</linearGradient>
<linearGradient id="paint8_linear_275_3957" x1="5.72148" y1="76.0022" x2="5.83777" y2="67.6105" gradientUnits="userSpaceOnUse">
<stop stop-color="#FFD6C7"/>
<stop offset="0.9829" stop-color="#FFDBAB"/>
</linearGradient>
<linearGradient id="paint9_linear_275_3957" x1="7.8544" y1="51.4784" x2="7.8544" y2="49.9719" gradientUnits="userSpaceOnUse">
<stop offset="0.0171145" stop-color="#FFDBAB"/>
<stop offset="1" stop-color="#FFE6D6"/>
</linearGradient>
<linearGradient id="paint10_linear_275_3957" x1="8.24398" y1="43.2976" x2="8.24398" y2="42.1996" gradientUnits="userSpaceOnUse">
<stop offset="0.0171145" stop-color="#FFDBAB"/>
<stop offset="1" stop-color="#FFE6D6"/>
</linearGradient>
<linearGradient id="paint11_linear_275_3957" x1="9.07809" y1="34.0535" x2="9.07809" y2="32.9415" gradientUnits="userSpaceOnUse">
<stop offset="0.0171145" stop-color="#FFDBAB"/>
<stop offset="1" stop-color="#FFE6D6"/>
</linearGradient>
<linearGradient id="paint12_linear_275_3957" x1="78.3739" y1="73.9274" x2="76.3707" y2="65.7128" gradientUnits="userSpaceOnUse">
<stop offset="0.0171145" stop-color="#FFA993"/>
<stop offset="1" stop-color="#FFCFA9"/>
</linearGradient>
<linearGradient id="paint13_linear_275_3957" x1="70.2435" y1="60.0546" x2="74.0652" y2="25.6293" gradientUnits="userSpaceOnUse">
<stop offset="0.0171145" stop-color="#EA8489"/>
<stop offset="1" stop-color="#FFA679"/>
</linearGradient>
<linearGradient id="paint14_linear_275_3957" x1="71.6804" y1="70.2321" x2="72.6214" y2="61.7562" gradientUnits="userSpaceOnUse">
<stop offset="0.0171145" stop-color="#FFA993"/>
<stop offset="1" stop-color="#FFCFA9"/>
</linearGradient>
<linearGradient id="paint15_linear_275_3957" x1="72.2386" y1="63.7508" x2="72.8114" y2="58.5914" gradientUnits="userSpaceOnUse">
<stop offset="0.0171145" stop-color="#FFDBAB"/>
<stop offset="1" stop-color="#FFE6D6"/>
</linearGradient>
<linearGradient id="paint16_linear_275_3957" x1="64.4133" y1="69.1842" x2="65.0906" y2="63.0839" gradientUnits="userSpaceOnUse">
<stop stop-color="#FFD6C7"/>
<stop offset="0.9829" stop-color="#FFDBAB"/>
</linearGradient>
<linearGradient id="paint17_linear_275_3957" x1="74.2547" y1="76.306" x2="74.1384" y2="67.9143" gradientUnits="userSpaceOnUse">
<stop stop-color="#FFD6C7"/>
<stop offset="0.9829" stop-color="#FFDBAB"/>
</linearGradient>
<linearGradient id="paint18_linear_275_3957" x1="72.1216" y1="51.7822" x2="72.1216" y2="50.2757" gradientUnits="userSpaceOnUse">
<stop offset="0.0171145" stop-color="#FFDBAB"/>
<stop offset="1" stop-color="#FFE6D6"/>
</linearGradient>
<linearGradient id="paint19_linear_275_3957" x1="71.7324" y1="43.6011" x2="71.7324" y2="42.5033" gradientUnits="userSpaceOnUse">
<stop offset="0.0171145" stop-color="#FFDBAB"/>
<stop offset="1" stop-color="#FFE6D6"/>
</linearGradient>
<linearGradient id="paint20_linear_275_3957" x1="70.8981" y1="34.3573" x2="70.8981" y2="33.2452" gradientUnits="userSpaceOnUse">
<stop offset="0.0171145" stop-color="#FFDBAB"/>
<stop offset="1" stop-color="#FFE6D6"/>
</linearGradient>
<linearGradient id="paint21_linear_275_3957" x1="40.5794" y1="10.5848" x2="39.3927" y2="-0.104712" gradientUnits="userSpaceOnUse">
<stop offset="0.0171145" stop-color="#FF9D86"/>
<stop offset="1" stop-color="#FFCFA9"/>
</linearGradient>
<linearGradient id="paint22_linear_275_3957" x1="7.02577" y1="26.8023" x2="72.8639" y2="26.8023" gradientUnits="userSpaceOnUse">
<stop offset="0.0171145" stop-color="#FFDBAB"/>
<stop offset="1" stop-color="#FFE6D6"/>
</linearGradient>
<linearGradient id="paint23_linear_275_3957" x1="44.4243" y1="53.4532" x2="38.7874" y2="2.67697" gradientUnits="userSpaceOnUse">
<stop offset="0.0171145" stop-color="#FFDBAB"/>
<stop offset="1" stop-color="#FFE6D6"/>
</linearGradient>
<linearGradient id="paint24_linear_275_3957" x1="40.2213" y1="47.451" x2="40.2213" y2="8.83736" gradientUnits="userSpaceOnUse">
<stop offset="0.0171145" stop-color="#EFA9A0"/>
<stop offset="1" stop-color="#F8B89A"/>
</linearGradient>
<linearGradient id="paint25_linear_275_3957" x1="39.0739" y1="39.3202" x2="39.0739" y2="36.1101" gradientUnits="userSpaceOnUse">
<stop offset="0.00558659" stop-color="#241142"/>
<stop offset="1" stop-color="#161030"/>
</linearGradient>
<linearGradient id="paint26_linear_275_3957" x1="39.0739" y1="39.3204" x2="39.0739" y2="37.7023" gradientUnits="userSpaceOnUse">
<stop stop-color="#817289"/>
<stop offset="0.9944" stop-color="#5E4173"/>
</linearGradient>
<linearGradient id="paint27_linear_275_3957" x1="45.6877" y1="29.8027" x2="57.3001" y2="29.8027" gradientUnits="userSpaceOnUse">
<stop stop-color="#540068"/>
<stop offset="1" stop-color="#81899A"/>
</linearGradient>
<linearGradient id="paint28_linear_275_3957" x1="33.6237" y1="29.8544" x2="21.8333" y2="29.8544" gradientUnits="userSpaceOnUse">
<stop stop-color="#540068"/>
<stop offset="1" stop-color="#81899A"/>
</linearGradient>
<radialGradient id="paint29_radial_275_3957" cx="0" cy="0" r="1" gradientUnits="userSpaceOnUse" gradientTransform="translate(51.4621 29.5348) scale(5.23259 5.23259)">
<stop stop-color="#F43477"/>
<stop offset="0.9944" stop-color="#FF0058"/>
</radialGradient>
<radialGradient id="paint30_radial_275_3957" cx="0" cy="0" r="1" gradientUnits="userSpaceOnUse" gradientTransform="translate(27.7287 29.5347) scale(5.40385)">
<stop stop-color="#F43477"/>
<stop offset="0.9944" stop-color="#FF0058"/>
</radialGradient>
<linearGradient id="paint31_linear_275_3957" x1="63.3404" y1="49.2944" x2="54.7918" y2="49.2944" gradientUnits="userSpaceOnUse">
<stop offset="0.0171145" stop-color="#FFF9D8"/>
<stop offset="1" stop-color="#FFFFD6"/>
</linearGradient>
<linearGradient id="paint32_linear_275_3957" x1="58.9409" y1="51.1255" x2="59.3951" y2="47.0345" gradientUnits="userSpaceOnUse">
<stop offset="0.0171145" stop-color="#FFA993"/>
<stop offset="1" stop-color="#FFA993"/>
</linearGradient>
<linearGradient id="paint33_linear_275_3957" x1="59.191" y1="50.96" x2="59.6307" y2="46.9995" gradientUnits="userSpaceOnUse">
<stop offset="0.0171145" stop-color="#FFC7AB"/>
<stop offset="1" stop-color="#FFD4B3"/>
</linearGradient>
<linearGradient id="paint34_linear_275_3957" x1="63.3924" y1="48.1443" x2="55.7338" y2="48.1443" gradientUnits="userSpaceOnUse">
<stop offset="0.0171145" stop-color="#FFF9D8"/>
<stop offset="1" stop-color="#FFFFD6"/>
</linearGradient>
<linearGradient id="paint35_linear_275_3957" x1="28.4399" y1="19.5389" x2="67.7075" y2="19.5389" gradientUnits="userSpaceOnUse">
<stop stop-color="#3D2632"/>
<stop offset="1" stop-color="#2C1F29"/>
</linearGradient>
<linearGradient id="paint36_linear_275_3957" x1="34.304" y1="46.419" x2="34.304" y2="38.5286" gradientUnits="userSpaceOnUse">
<stop stop-color="#540068"/>
<stop offset="1" stop-color="#81899A"/>
</linearGradient>
<clipPath id="clip0_275_3957">
<rect width="80" height="82.8971" fill="white" transform="translate(0 0.551514)"/>
</clipPath>
</defs>
</svg>
