<svg width="80" height="54" viewBox="0 0 80 54" fill="none" xmlns="http://www.w3.org/2000/svg">
<g clip-path="url(#clip0_275_4307)">
<path d="M68.4767 12.667L68.5525 46.1256L40 53.0395V18.3939L68.4767 12.667Z" fill="#FFBA59"/>
<path d="M40 6.271L68.4767 12.6672L40 18.3941V6.271Z" fill="#DB8829"/>
<path d="M11.5234 12.743L40.0002 6.271V18.3941L11.5234 12.743Z" fill="#CC7F26"/>
<path d="M11.5235 12.7429L40.0002 18.3941V53.0397L11.4478 46.1257L11.5235 12.7429Z" fill="#FFAF40"/>
<path d="M68.5083 12.6987L77.5185 6.80126L50.2478 0.960693L40 6.30245L68.5083 12.6987Z" fill="#FFBF66"/>
<path d="M11.4917 12.6987L2.48145 6.80126L29.7522 0.960693L40 6.30245L11.4917 12.6987Z" fill="#FFBF66"/>
<path d="M68.5083 12.6987L80 23.136L49.8753 29.5322L40 18.413L68.5083 12.6987Z" fill="#FFBF66"/>
<path opacity="0.2" d="M49.8753 29.532L68.5083 25.5731L48.3852 31.5841L40 18.4128L49.8753 29.532Z" fill="#AB4900"/>
<path d="M40.0002 52.7997V53.0396L11.4478 46.1257L11.5172 14.113C13.0642 35.7452 30.428 47.7737 40.0002 52.7997Z" fill="#FFA629"/>
<path d="M11.4917 12.6987L0 23.136L30.1247 29.5322L40 18.413L11.4917 12.6987Z" fill="#FFBF66"/>
<path opacity="0.2" d="M30.1247 29.532L11.4917 25.5731L31.6148 31.5841L40 18.4128L30.1247 29.532Z" fill="#AB4900"/>
</g>
<defs>
<clipPath id="clip0_275_4307">
<rect width="80" height="52.0789" fill="white" transform="translate(0 0.960693)"/>
</clipPath>
</defs>
</svg>
