<svg width="21" height="21" viewBox="0 0 21 21" fill="none" xmlns="http://www.w3.org/2000/svg">
<rect x="1" y="1" width="19" height="19" rx="9.5" fill="#007AFF"/>
<path d="M8.95937 14.1598C7.9375 13.1379 6.92188 12.1066 5.89687 11.0848C5.78437 10.9723 5.78437 10.7848 5.89687 10.6723L7.075 9.49414C7.1875 9.38164 7.375 9.38164 7.4875 9.49414L9.17188 11.1785L13.5031 6.84414C13.6188 6.73164 13.8031 6.73164 13.9187 6.84414L15.1 8.02539C15.2156 8.14102 15.2156 8.32539 15.1 8.43789L9.37187 14.1598C9.25937 14.2754 9.075 14.2754 8.95937 14.1598Z" fill="white"/>
<rect x="1" y="1" width="19" height="19" rx="9.5" stroke="white"/>
</svg>
