<svg width="20" height="20" viewBox="0 0 20 20" fill="none" xmlns="http://www.w3.org/2000/svg">
<path d="M10.7367 2.11C10.4483 1.565 9.55167 1.565 9.26333 2.11L1.76333 16.2767C1.69582 16.4036 1.66235 16.5459 1.66618 16.6897C1.67002 16.8335 1.71103 16.9738 1.78521 17.097C1.8594 17.2202 1.96423 17.322 2.0895 17.3927C2.21476 17.4633 2.35619 17.5003 2.5 17.5H17.5C17.6437 17.5003 17.785 17.4634 17.9102 17.3928C18.0354 17.3222 18.1402 17.2203 18.2143 17.0972C18.2884 16.9741 18.3293 16.8339 18.3331 16.6902C18.3369 16.5465 18.3034 16.4044 18.2358 16.2775L10.7367 2.11ZM10.8333 15H9.16667V13.3333H10.8333V15ZM9.16667 11.6667V7.5H10.8333L10.8342 11.6667H9.16667Z" fill="#999999"/>
</svg>
