<svg width="24" height="24" viewBox="0 0 24 24" fill="none" xmlns="http://www.w3.org/2000/svg">
<path d="M12 1.5C6.20156 1.5 1.5 6.20156 1.5 12C1.5 17.7984 6.20156 22.5 12 22.5C17.7984 22.5 22.5 17.7984 22.5 12C22.5 6.20156 17.7984 1.5 12 1.5ZM12 20.7188C7.18594 20.7188 3.28125 16.8141 3.28125 12C3.28125 7.18594 7.18594 3.28125 12 3.28125C16.8141 3.28125 20.7188 7.18594 20.7188 12C20.7188 16.8141 16.8141 20.7188 12 20.7188Z" fill="#616161"/>
<path d="M16.0947 14.965L12.7525 12.5486V6.7478C12.7525 6.64468 12.6682 6.5603 12.565 6.5603H11.4377C11.3346 6.5603 11.2502 6.64468 11.2502 6.7478V13.2025C11.2502 13.2634 11.2783 13.3197 11.3275 13.3548L15.2041 16.1814C15.2885 16.2423 15.4057 16.2236 15.4666 16.1416L16.1369 15.2275C16.1978 15.1408 16.1791 15.0236 16.0947 14.965Z" fill="#616161"/>
</svg>
