<svg width="160" height="166" viewBox="0 0 160 166" fill="none" xmlns="http://www.w3.org/2000/svg">
<g clip-path="url(#clip0_535_15926)">
<g opacity="0.5">
<path fill-rule="evenodd" clip-rule="evenodd" d="M149.991 162.766C150.386 162.502 150.65 162.107 150.255 161.712C148.674 160.922 145.119 160.659 145.119 160.659C144.856 160.659 144.724 160.659 144.461 160.659C144.461 159.868 144.197 159.078 143.934 158.288V158.156C143.275 156.313 141.958 154.733 140.773 153.416L140.642 153.284H140.773L139.983 152.626C139.588 152.231 139.193 151.967 138.93 151.704C140.378 149.86 141.168 147.885 140.51 145.91C140.51 145.778 140.247 145.646 139.851 145.515C139.851 145.515 137.613 144.461 128.526 144.198C116.016 143.803 98.6334 143.671 81.9091 143.671C76.1148 143.671 69.1354 143.803 64.1313 143.803C64.1313 143.803 64.1313 143.803 63.9996 143.803C63.2095 143.803 62.551 143.803 61.8926 143.803C61.1025 143.803 60.3124 143.803 59.6539 143.803C59.1272 143.803 58.6004 143.803 58.2054 143.803C57.942 143.803 57.6786 143.803 57.4152 143.803C57.1519 143.803 56.8885 143.803 56.8885 143.803C45.6951 143.934 36.6087 144.198 32.263 144.461C28.5757 144.593 26.0737 144.856 24.4934 145.119C23.3082 145.251 22.2547 145.383 21.728 145.515C20.8062 145.646 20.2794 145.91 20.1478 146.173C20.0161 147.226 20.5428 149.202 22.2547 151.44C21.728 151.836 20.9379 152.494 20.1478 153.284C18.9626 154.469 17.7774 156.181 16.9873 158.025V158.156C16.7239 158.947 16.5922 159.737 16.4605 160.527C16.1971 160.527 16.0654 160.527 15.8021 160.527C15.8021 160.527 12.3782 160.79 10.6663 161.58C10.2712 161.975 10.4029 162.37 10.9296 162.634C10.9296 162.634 10.9296 162.634 10.798 162.634C8.82265 163.687 8.2959 164.609 8.2959 164.609C10.1395 165.136 13.3 165.004 13.3 165.004C13.9585 164.873 14.4852 164.609 15.1436 164.477C15.1436 165.136 15.407 165.531 15.407 165.531C17.9091 166.058 20.5428 165.663 20.5428 165.663C20.8062 165.531 21.0696 165.399 21.2012 165.268C22.1231 165.268 23.0449 165.268 24.0984 165.136C24.0984 165.136 25.1519 164.609 25.0202 163.951C27.5222 163.819 29.7609 163.556 31.3412 163.161C31.4729 163.161 31.4729 163.161 31.6045 163.161C34.37 163.687 38.4523 163.687 38.4523 163.687C40.9543 163.687 40.691 163.161 40.691 163.161C38.1889 162.502 34.37 162.107 33.5799 161.975H33.4482C33.4482 161.844 33.4482 161.844 33.4482 161.712C33.4482 161.712 33.1848 161.58 32.5264 161.317C32.5264 161.317 32.263 161.185 31.7362 161.054C31.0778 160.922 30.156 160.79 28.8391 160.659C28.8391 160.659 28.5757 160.659 27.9173 160.659C28.049 160.659 28.049 160.659 28.1807 160.659C28.1807 160.659 28.049 158.683 28.3124 156.708C28.8391 156.971 29.3659 157.366 29.8926 157.63L30.2877 157.761C31.2095 158.025 32.9214 158.288 35.0284 158.288C40.2959 158.42 50.4358 158.552 63.0778 158.552L66.1066 159.737L50.1724 161.317L52.5428 162.239C52.5428 162.239 88.8885 162.37 108.247 162.239L110.88 161.317L102.584 160.527L96.5264 159.868L98.1066 159.078L99.0284 158.683C107.983 158.683 117.07 158.552 125.893 158.42C128.263 158.42 129.975 158.156 130.897 157.761C131.555 157.498 132.345 157.103 133.004 156.708C133.135 157.366 133.135 158.025 133.135 158.683C133.135 159.868 133.135 160.79 133.135 160.79C133.267 160.79 133.267 160.79 133.399 160.79C132.872 160.79 132.477 160.79 132.477 160.79C131.16 160.922 130.238 161.054 129.58 161.185C128.921 161.317 128.79 161.449 128.79 161.449C128.131 161.712 127.868 161.844 127.868 161.844C127.868 161.975 127.868 161.975 127.868 162.107H127.736C126.946 162.239 123.127 162.634 120.625 163.292C120.625 163.292 120.362 163.819 122.864 163.819C122.864 163.819 127.078 163.819 129.712 163.292C129.843 163.292 129.843 163.292 129.975 163.292C131.555 163.687 133.794 163.951 136.296 164.082C136.164 164.741 137.218 165.268 137.218 165.268C138.271 165.399 139.193 165.399 140.115 165.399C140.378 165.531 140.51 165.663 140.773 165.794C140.773 165.794 143.407 166.058 145.909 165.663C145.909 165.663 146.172 165.268 146.172 164.609C146.699 164.873 147.358 165.004 148.016 165.136C148.016 165.136 151.177 165.399 153.02 164.741C152.493 164.741 151.967 163.819 149.991 162.766Z" fill="#F6BA5F"/>
</g>
<path d="M119.572 133.268C113.909 133.268 111.276 130.502 110.222 128.79C109.564 127.737 109.169 126.551 108.905 125.235C106.667 125.63 104.033 125.893 101.268 125.893C83.358 126.025 60.9712 122.206 54.6502 115.095C53.2017 113.514 52.6749 111.803 52.9383 109.959C53.3334 107.062 55.0453 104.823 57.8107 103.506C63.605 101.004 72.428 102.979 75.3251 104.955L74.6667 106.008C72.0329 104.165 63.605 102.321 58.3375 104.691C55.9671 105.745 54.5185 107.589 54.2552 110.091C54.1235 111.539 54.5185 112.856 55.7037 114.173C61.6296 120.889 83.358 124.576 100.872 124.576C101.004 124.576 101.136 124.576 101.268 124.576C104.165 124.576 106.667 124.313 108.905 123.918C108.905 122.996 109.037 122.074 109.169 121.152C108.379 121.811 107.457 122.206 106.403 121.942C105.482 121.679 104.955 120.889 105.218 119.835C105.35 118.914 106.008 117.86 107.193 116.675C103.901 117.728 100.082 117.728 97.712 116.543C95.3416 115.358 95.7366 113.778 96 113.119C97.0535 110.486 102.848 108.51 107.588 110.091C109.564 110.749 110.617 111.803 111.144 113.119C112.198 112.066 112.593 110.881 112.066 109.564C111.802 109.037 111.407 108.51 110.881 107.984C110.091 108.247 109.432 108.379 108.774 108.51C103.901 109.432 95.8683 109.696 94.6832 106.667C94.2881 105.613 94.8148 104.691 96 104.165C99.0288 102.979 107.062 103.77 111.144 106.667C113.514 106.008 114.7 105.218 114.7 104.56C114.7 102.584 108.247 101.004 103.638 100.477L103.77 99.2922C105.745 99.5556 116.016 100.741 116.016 104.56C116.016 105.877 114.305 106.93 112.329 107.589C112.724 107.984 113.119 108.51 113.251 109.037C113.909 110.486 113.646 111.803 112.724 113.119C113.646 112.724 114.7 112.461 115.885 112.198C117.597 110.354 119.572 109.696 121.021 110.222C121.679 110.486 122.206 111.012 122.601 111.803C128.395 112.461 131.292 117.333 131.556 121.811C131.819 126.551 128.922 132.082 122.337 133.004C121.284 133.136 120.494 133.268 119.572 133.268ZM110.222 124.971C110.354 126.156 110.749 127.21 111.276 128.132C113.251 131.161 117.07 132.477 122.074 131.819C128 131.029 130.37 126.288 130.239 121.942C130.107 117.992 127.737 114.041 122.864 113.251C122.864 113.514 122.864 113.778 122.864 114.041C126.156 115.358 127.737 117.992 127.21 121.152C126.683 124.444 124.444 126.683 121.284 126.947C118.387 127.21 115.358 126.025 113.778 123.918C112.593 124.313 111.407 124.708 110.222 124.971ZM114.831 123.391C116.148 124.971 118.65 126.025 121.021 125.761C123.654 125.498 125.498 123.654 125.893 120.889C126.42 117.465 124.049 115.885 122.601 115.226C122.074 118.255 119.572 121.284 114.831 123.391ZM113.251 116.412C112.724 116.807 112.329 117.202 112.066 117.728C110.881 119.572 110.222 121.679 110.222 123.654C111.276 123.391 112.198 123.128 113.119 122.733C113.119 122.601 112.988 122.601 112.988 122.469C112.066 120.626 112.329 118.387 113.251 116.412ZM115.095 115.226C113.778 117.333 113.119 120.099 114.041 122.206C114.041 122.338 114.173 122.338 114.173 122.469C119.045 120.362 121.152 117.202 121.547 114.963C119.572 114.305 117.202 114.436 115.095 115.226ZM110.354 115.753C107.984 117.202 106.535 118.914 106.403 120.099C106.272 120.626 106.535 120.757 106.798 120.757C107.852 121.152 109.432 119.44 110.091 117.333C110.222 117.07 110.354 116.543 110.354 115.753ZM104.033 110.881C100.741 110.881 97.712 112.329 97.0535 113.778C96.7901 114.436 97.1852 115.095 98.2387 115.621C101.136 117.202 106.93 116.28 110.091 114.041C109.695 112.988 108.905 111.934 107.062 111.407C106.14 111.012 105.086 110.881 104.033 110.881ZM111.539 115.095C111.539 115.49 111.539 115.885 111.539 116.148C112.329 115.226 113.251 114.568 114.305 114.173C114.305 114.041 114.436 114.041 114.436 113.91C113.383 114.305 112.461 114.7 111.539 115.095ZM118.782 113.251C119.704 113.251 120.757 113.383 121.679 113.646C121.679 113.514 121.679 113.251 121.679 113.119C119.835 112.988 117.992 113.251 116.412 113.514C117.202 113.383 117.992 113.251 118.782 113.251ZM119.967 111.407C119.44 111.407 118.782 111.539 118.255 111.934C119.177 111.803 120.099 111.803 121.152 111.803C121.021 111.671 120.889 111.539 120.626 111.539C120.362 111.407 120.099 111.407 119.967 111.407ZM99.6873 105.086C98.3704 105.086 97.1852 105.218 96.3951 105.613C95.4733 106.008 95.605 106.403 95.7366 106.535C96.3951 108.247 102.453 108.642 108.51 107.589C108.905 107.589 109.169 107.457 109.564 107.325C106.798 105.745 102.716 105.086 99.6873 105.086Z" fill="#A96F7C"/>
<path fill-rule="evenodd" clip-rule="evenodd" d="M48.3291 120.757L50.6995 126.815C50.6995 126.815 88.4937 127.868 108.774 126.815L111.407 120.757H48.3291Z" fill="url(#paint0_linear_535_15926)"/>
<path fill-rule="evenodd" clip-rule="evenodd" d="M66.5018 108.774L48.1973 120.757C48.1973 120.757 84.0162 124.444 111.407 120.757L94.9462 110.091L66.5018 108.774Z" fill="url(#paint1_linear_535_15926)"/>
<path fill-rule="evenodd" clip-rule="evenodd" d="M65.4489 113.514L63.4736 115.49C63.4736 115.49 80.1979 119.704 97.9757 115.49L96.6588 112.856L65.4489 113.514Z" fill="#EE8B88"/>
<path fill-rule="evenodd" clip-rule="evenodd" d="M60.0498 100.609L65.9757 114.7C65.9757 114.7 79.9346 119.704 96.1321 114.7L100.609 101.399L60.0498 100.609Z" fill="url(#paint2_linear_535_15926)"/>
<path opacity="0.5" fill-rule="evenodd" clip-rule="evenodd" d="M62.5517 106.667C62.5517 106.667 70.9797 104.691 99.1608 105.745L100.609 101.268L59.918 100.609L62.5517 106.667Z" fill="#DD7288"/>
<path fill-rule="evenodd" clip-rule="evenodd" d="M57.0205 115.095C57.0205 115.095 52.148 119.44 52.4114 120.362C52.6748 121.152 82.5678 122.996 106.271 120.362C107.457 120.231 102.848 115.095 102.848 115.095L111.539 120.757C111.539 120.757 99.9505 122.469 80.4608 122.469C60.9711 122.469 48.3291 120.757 48.3291 120.757L57.0205 115.095Z" fill="#FFEFD3"/>
<path fill-rule="evenodd" clip-rule="evenodd" d="M94.2881 122.074C94.2881 122.074 100.214 116.938 107.72 121.284C107.72 121.284 96.7901 121.811 94.2881 122.074Z" fill="white"/>
<path fill-rule="evenodd" clip-rule="evenodd" d="M11.0619 146.568C11.0619 146.568 14.0907 148.412 17.5145 146.173C17.5145 146.173 20.0166 138.403 17.3828 133.268L10.6668 133.136C10.6668 133.136 8.95486 141.959 11.0619 146.568Z" fill="#EE8B88"/>
<path fill-rule="evenodd" clip-rule="evenodd" d="M2.89712 130.239C4.21399 128.79 10.0082 129.054 10.6667 133.136C10.6667 133.136 8.55967 141.037 5.53086 145.91C5.53086 145.91 2.107 147.358 0 143.539C0 143.539 0.658436 137.087 2.89712 130.239Z" fill="url(#paint3_linear_535_15926)"/>
<path fill-rule="evenodd" clip-rule="evenodd" d="M16.3294 48.9877C16.3294 48.9877 9.2183 78.8807 8.82324 117.597C8.82324 117.597 17.1195 120.889 21.8603 116.148C21.8603 116.148 21.4652 77.4321 23.7039 62.5515L16.3294 48.9877Z" fill="url(#paint4_linear_535_15926)"/>
<path fill-rule="evenodd" clip-rule="evenodd" d="M2.50181 123.128C-0.658687 143.407 29.2343 144.856 27.7858 122.864L2.50181 123.128Z" fill="url(#paint5_linear_535_15926)"/>
<path fill-rule="evenodd" clip-rule="evenodd" d="M8.1645 116.148C8.1645 116.148 4.34557 118.124 2.50195 123.128C2.50195 123.128 13.5637 128.922 27.7859 122.864C27.7859 122.864 26.8641 118.65 22.6501 116.148C22.6501 116.148 15.0122 119.704 8.1645 116.148Z" fill="url(#paint6_linear_535_15926)"/>
<path fill-rule="evenodd" clip-rule="evenodd" d="M2.50195 123.128C2.50195 123.128 6.32088 126.42 15.1439 126.42C23.967 126.42 27.7859 122.864 27.7859 122.864C27.7859 122.864 23.7036 125.63 15.1439 125.63C6.45257 125.63 2.50195 123.128 2.50195 123.128Z" fill="#EE8B88"/>
<path fill-rule="evenodd" clip-rule="evenodd" d="M16.1979 136.823C15.9345 138.008 13.8275 138.667 11.4572 138.272C9.08678 137.877 7.24316 136.56 7.50654 135.375C7.76991 134.189 9.87691 133.531 12.2473 133.926C14.6176 134.321 16.4613 135.638 16.1979 136.823Z" fill="#EE8B88"/>
<path fill-rule="evenodd" clip-rule="evenodd" d="M24.6257 133.663C23.9672 133.399 24.0989 131.161 24.8891 128.658C25.6792 126.025 26.8644 124.181 27.5228 124.313C28.1812 124.576 28.0496 126.815 27.2594 129.317C26.4693 131.951 25.2841 133.926 24.6257 133.663Z" fill="#EE8B88"/>
<path fill-rule="evenodd" clip-rule="evenodd" d="M27.786 124.708C27.786 124.708 32.6584 127.737 35.8189 132.477C35.8189 132.477 36.214 136.428 33.3168 136.428C33.3168 136.428 28.3127 136.56 25.4156 132.346C24.8889 129.317 25.5473 127.21 27.786 124.708Z" fill="url(#paint7_linear_535_15926)"/>
<path fill-rule="evenodd" clip-rule="evenodd" d="M7.76982 135.638C8.69163 133.926 14.2225 133.004 15.8027 136.691C15.8027 136.691 15.4077 144.856 13.6957 150.255C13.6957 150.255 10.7986 152.362 7.90151 149.202C7.90151 149.07 7.11138 142.749 7.76982 135.638Z" fill="url(#paint8_linear_535_15926)"/>
<path fill-rule="evenodd" clip-rule="evenodd" d="M9.48145 100.477C9.48145 100.477 17.251 98.8972 21.86 101.926V100.477C21.86 100.477 17.6461 97.9754 9.48145 99.2922V100.477Z" fill="url(#paint9_linear_535_15926)"/>
<path fill-rule="evenodd" clip-rule="evenodd" d="M10.667 85.465C10.667 85.465 15.1444 83.2263 22.1238 85.2017V83.8848C22.1238 83.8848 15.4077 82.0412 10.667 84.6749V85.465Z" fill="url(#paint10_linear_535_15926)"/>
<path fill-rule="evenodd" clip-rule="evenodd" d="M13.0371 67.0288C13.0371 67.0288 17.9095 64.2634 23.3087 66.6338V65.7119C23.3087 65.7119 18.0412 63.4733 13.1688 66.3704L13.0371 67.0288Z" fill="url(#paint11_linear_535_15926)"/>
<path fill-rule="evenodd" clip-rule="evenodd" d="M13.0372 145.119C13.0372 145.119 11.3253 147.753 13.0372 149.465C13.0372 149.465 13.959 147.621 13.0372 145.119Z" fill="white"/>
<path fill-rule="evenodd" clip-rule="evenodd" d="M32.6582 130.897C32.6582 130.897 33.0533 133.136 35.0286 132.609C35.0286 132.609 34.8969 131.029 32.6582 130.897Z" fill="white"/>
<path opacity="0.5" fill-rule="evenodd" clip-rule="evenodd" d="M9.87695 116.938C9.87695 116.938 15.8029 120.23 26.7329 120.494C26.7329 120.494 26.0745 118.65 22.5189 116.148C22.6506 116.148 17.1198 118.65 9.87695 116.938Z" fill="#DD7288"/>
<path fill-rule="evenodd" clip-rule="evenodd" d="M4.08203 122.074C4.08203 122.074 5.13553 119.177 7.5059 118.519C7.5059 118.519 6.4524 121.416 4.08203 122.074Z" fill="white"/>
<path opacity="0.5" fill-rule="evenodd" clip-rule="evenodd" d="M13.1689 66.3704L21.992 93.7613L22.2554 78.6173L16.3294 48.9877L13.1689 66.3704Z" fill="#CE7288"/>
<path fill-rule="evenodd" clip-rule="evenodd" d="M148.938 147.226C148.938 147.226 145.909 149.07 142.485 146.831C142.485 146.831 139.983 139.062 142.617 133.926L149.333 133.794C149.333 133.794 151.045 142.617 148.938 147.226Z" fill="#EE8B88"/>
<path fill-rule="evenodd" clip-rule="evenodd" d="M157.103 130.897C155.786 129.449 149.991 129.712 149.333 133.794C149.333 133.794 151.44 141.695 154.469 146.568C154.469 146.568 157.893 148.016 160 144.198C160 144.198 159.21 137.745 157.103 130.897Z" fill="url(#paint12_linear_535_15926)"/>
<path fill-rule="evenodd" clip-rule="evenodd" d="M143.54 49.6461C143.54 49.6461 150.651 79.5391 151.046 118.255C151.046 118.255 142.749 121.547 138.009 116.807C138.009 116.807 138.404 78.0906 136.165 63.2099L143.54 49.6461Z" fill="url(#paint13_linear_535_15926)"/>
<path fill-rule="evenodd" clip-rule="evenodd" d="M157.366 123.786C160.527 144.066 130.634 145.514 132.082 123.523L157.366 123.786Z" fill="url(#paint14_linear_535_15926)"/>
<path fill-rule="evenodd" clip-rule="evenodd" d="M151.835 116.807C151.835 116.807 155.654 118.782 157.498 123.786C157.498 123.786 146.436 129.58 132.214 123.523C132.214 123.523 133.136 119.309 137.35 116.807C137.35 116.807 144.856 120.362 151.835 116.807Z" fill="url(#paint15_linear_535_15926)"/>
<path fill-rule="evenodd" clip-rule="evenodd" d="M157.366 123.786C157.366 123.786 153.547 127.078 144.724 127.078C135.901 127.078 132.082 123.523 132.082 123.523C132.082 123.523 136.164 126.288 144.724 126.288C153.547 126.288 157.366 123.786 157.366 123.786Z" fill="#EE8B88"/>
<path fill-rule="evenodd" clip-rule="evenodd" d="M143.802 137.481C144.065 138.667 146.172 139.325 148.543 138.93C150.913 138.535 152.757 137.218 152.493 136.033C152.23 134.848 150.123 134.189 147.753 134.584C145.251 134.979 143.539 136.296 143.802 137.481Z" fill="#EE8B88"/>
<path fill-rule="evenodd" clip-rule="evenodd" d="M135.243 134.321C135.901 134.058 135.769 131.819 134.979 129.317C134.189 126.683 133.004 124.84 132.345 124.971C131.687 125.235 131.819 127.473 132.609 129.975C133.399 132.609 134.584 134.453 135.243 134.321Z" fill="#EE8B88"/>
<path fill-rule="evenodd" clip-rule="evenodd" d="M132.214 125.235C132.214 125.235 127.342 128.263 124.181 133.004C124.181 133.004 123.786 136.955 126.683 136.955C126.683 136.955 131.687 137.086 134.585 132.872C134.98 129.844 134.453 127.737 132.214 125.235Z" fill="url(#paint16_linear_535_15926)"/>
<path fill-rule="evenodd" clip-rule="evenodd" d="M152.23 136.296C151.308 134.584 145.778 133.663 144.197 137.35C144.197 137.35 144.592 145.514 146.304 150.914C146.304 150.914 149.201 153.021 152.098 149.86C152.098 149.728 152.757 143.407 152.23 136.296Z" fill="url(#paint17_linear_535_15926)"/>
<path fill-rule="evenodd" clip-rule="evenodd" d="M150.518 101.004C150.518 101.004 142.749 99.4239 138.14 102.453V101.004C138.14 101.004 142.354 98.5021 150.518 99.819V101.004Z" fill="url(#paint18_linear_535_15926)"/>
<path fill-rule="evenodd" clip-rule="evenodd" d="M149.202 86.1235C149.202 86.1235 144.725 83.8848 137.745 85.8601V84.5432C137.745 84.5432 144.461 82.6996 149.202 85.3334V86.1235Z" fill="url(#paint19_linear_535_15926)"/>
<path fill-rule="evenodd" clip-rule="evenodd" d="M146.963 67.5556C146.963 67.5556 142.091 64.7901 136.691 67.1605V66.2387C136.691 66.2387 141.959 64 146.831 66.8971L146.963 67.5556Z" fill="url(#paint20_linear_535_15926)"/>
<path fill-rule="evenodd" clip-rule="evenodd" d="M146.963 145.778C146.963 145.778 148.675 148.412 146.963 150.124C146.963 150.124 145.91 148.28 146.963 145.778Z" fill="white"/>
<path fill-rule="evenodd" clip-rule="evenodd" d="M127.21 131.556C127.21 131.556 126.815 133.794 124.84 133.268C124.84 133.268 125.103 131.687 127.21 131.556Z" fill="white"/>
<path opacity="0.5" fill-rule="evenodd" clip-rule="evenodd" d="M139.193 117.465C139.193 117.465 145.119 120.757 156.049 121.021C156.049 121.021 155.391 119.177 151.835 116.675C151.967 116.807 146.568 119.309 139.193 117.465Z" fill="#DD7288"/>
<path opacity="0.5" fill-rule="evenodd" clip-rule="evenodd" d="M146.7 65.712L138.008 92.7078L137.745 79.1441L143.539 49.6461L146.7 65.712Z" fill="#CE7288"/>
<path fill-rule="evenodd" clip-rule="evenodd" d="M15.0127 12.9054C15.0127 12.9054 18.0415 8.55977 26.4695 5.79433C40.9551 1.05359 101.136 -3.29208 133.136 3.55565C143.144 5.79433 145.778 12.7738 145.778 12.7738H15.0127V12.9054Z" fill="url(#paint21_linear_535_15926)"/>
<path fill-rule="evenodd" clip-rule="evenodd" d="M14.0904 15.9342C13.9587 28.8396 15.8023 62.4198 24.7571 93.7614C25.5472 96.3951 27.6542 98.2387 30.2879 98.3704C44.3785 99.4239 89.8106 103.375 129.185 99.6873C131.687 99.4239 133.662 97.5803 134.584 95.2099C139.325 82.4363 147.49 46.0906 145.383 13.9589C145.251 10.9301 143.012 8.55972 140.115 8.03297C126.025 5.6626 82.1727 -1.18513 19.3579 9.61322C16.3291 10.14 14.0904 12.7737 14.0904 15.9342Z" fill="url(#paint22_linear_535_15926)"/>
<path fill-rule="evenodd" clip-rule="evenodd" d="M14.0904 16.461C13.9587 29.3664 15.8023 62.9466 24.7571 94.2882C25.5472 96.9219 27.6542 98.7655 30.2879 98.8972C44.3785 99.9507 89.8106 103.901 129.185 100.214C131.687 99.9507 133.662 98.1071 134.584 95.7367C139.325 82.9631 147.49 46.6174 145.383 14.4857C145.251 11.4569 143.012 9.08652 140.115 8.55977C126.025 6.1894 82.041 0.658536 19.3579 10.14C16.3291 10.7985 14.0904 13.4322 14.0904 16.461Z" fill="#EE8B88"/>
<path fill-rule="evenodd" clip-rule="evenodd" d="M144.197 58.6009C141.695 75.3252 138.008 89.5474 135.374 96.6585C134.452 99.1606 132.477 101.004 129.843 101.136C118.255 102.189 106.14 102.584 94.4195 102.716C83.2261 102.716 72.4278 102.453 62.8146 102.058C47.8023 101.399 35.5553 100.346 29.366 99.9507C26.9957 99.819 25.0204 98.3704 24.0986 96.3951L23.7035 95.3416C14.6171 64.0001 12.6418 30.4198 12.9051 17.5145C12.9051 14.354 15.2755 11.7202 18.3043 11.3252C33.4484 9.08648 47.4072 7.63792 60.3125 6.8478C101.399 4.21405 130.107 7.90129 141.037 9.74492C143.934 10.2717 146.173 12.642 146.436 15.6708C147.358 29.7614 146.173 45.0371 144.197 58.6009Z" fill="url(#paint23_linear_535_15926)"/>
<path fill-rule="evenodd" clip-rule="evenodd" d="M35.5558 91.9177C48.4612 92.9712 87.3089 95.7367 123.523 91.786C125.893 91.5227 127.869 89.8107 128.527 87.4404C131.029 77.4321 137.218 50.1729 136.165 24.7572C136.033 21.8601 133.926 19.4898 131.029 19.2264C117.992 17.5144 79.1443 13.9589 29.7616 20.8066C26.8645 21.2017 24.6258 23.8354 24.7575 26.8642C25.0209 37.3992 26.0744 62.0247 30.42 87.177C30.8151 89.679 32.9221 91.6544 35.5558 91.9177Z" fill="url(#paint24_linear_535_15926)"/>
<path opacity="0.3" fill-rule="evenodd" clip-rule="evenodd" d="M144.197 58.6009L143.407 60.0494L60.4443 6.71608C101.531 4.08234 130.239 7.76958 141.169 9.6132C144.066 10.14 146.304 12.5103 146.568 15.5391C147.358 29.7614 146.173 45.0371 144.197 58.6009Z" fill="white"/>
<path fill-rule="evenodd" clip-rule="evenodd" d="M133.004 59.3909C131.292 70.8477 129.054 80.3292 127.737 85.3333C127.078 87.572 125.235 89.4156 122.864 89.5473C117.86 90.0741 112.724 90.4691 107.72 90.8642C76.9055 92.7078 47.1442 90.7325 36.2142 89.679C33.5804 89.4156 31.4734 87.4403 31.0784 84.9383C30.5516 81.9095 30.0249 78.8807 29.6298 75.8518C26.601 54.6502 25.8109 35.1605 25.5475 26.2058C25.4158 23.3086 27.6545 20.8066 30.5516 20.4115C39.7697 19.0946 48.5928 18.1728 57.0208 17.6461C92.8397 15.0123 119.967 17.6461 130.371 18.963C133.136 19.358 135.243 21.5967 135.375 24.3621C135.77 36.3457 134.716 48.7243 133.004 59.3909Z" fill="#F6BA5F"/>
<path fill-rule="evenodd" clip-rule="evenodd" d="M41.4814 6.84776L53.7284 1.58027C53.7284 1.58027 69.5308 0.131714 81.5144 0.131714L77.8271 4.34571C77.9588 4.21402 49.3827 5.92595 41.4814 6.84776Z" fill="#D1D8B3"/>
<path fill-rule="evenodd" clip-rule="evenodd" d="M44.7734 37.3993C44.7734 37.3993 47.4072 33.317 57.2837 30.6832L57.8105 35.1606C57.8105 35.1606 51.3578 35.2923 45.5636 39.638L44.7734 37.3993Z" fill="#4BA97E"/>
<path fill-rule="evenodd" clip-rule="evenodd" d="M101.136 30.6832L100.214 34.2388C100.214 34.2388 106.93 35.6873 111.012 39.5063L112.197 37.3993C112.197 37.3993 107.852 31.7367 101.136 30.6832Z" fill="#4BA97E"/>
<path fill-rule="evenodd" clip-rule="evenodd" d="M70.8477 77.5639C70.8477 77.5639 77.8271 70.8478 81.3826 71.1112C84.9382 71.3746 85.4649 75.7202 85.4649 75.7202C85.4649 75.7202 77.1686 74.9301 70.8477 77.5639Z" fill="url(#paint25_linear_535_15926)"/>
<path fill-rule="evenodd" clip-rule="evenodd" d="M70.8477 77.5639C70.8477 77.5639 74.6666 74.6668 79.144 74.4034C83.6213 74.14 85.4649 75.7203 85.4649 75.7203C85.4649 75.7203 77.9588 74.9301 70.8477 77.5639Z" fill="url(#paint26_linear_535_15926)"/>
<path opacity="0.5" fill-rule="evenodd" clip-rule="evenodd" d="M114.568 52.5432L110.88 47.8025C108.247 48.856 105.613 50.5679 103.374 52.4115C101.794 50.6996 99.9504 49.1194 97.9751 47.8025C97.9751 47.8025 94.0245 49.5144 91.5225 54.3869C91.5225 54.3869 94.1562 55.8354 97.0533 58.3375C95.078 59.391 92.0492 63.3416 91.7858 64.1317L95.2097 68.0823C97.3167 66.3704 99.5554 64.6585 101.662 62.9465C103.638 64.7901 105.613 67.0288 107.72 69.3992L113.251 65.712C113.251 65.712 111.276 62.2881 108.247 58.0741C111.539 55.3087 114.568 52.5432 114.568 52.5432Z" fill="url(#paint27_linear_535_15926)"/>
<path opacity="0.5" fill-rule="evenodd" clip-rule="evenodd" d="M43.7197 52.5432L46.8802 47.8025C49.514 48.856 52.9378 51.2264 55.1765 53.07C56.7568 51.358 59.7856 49.5144 61.4975 47.8025C61.4975 47.8025 66.3699 50.8313 67.1601 54.3869C67.1601 54.3869 64.2629 55.8354 61.2341 58.3375C62.8144 59.5227 66.2382 63.3416 66.5016 64.1317L63.0778 68.0823C60.9708 66.3704 58.4687 64.3951 56.3617 62.8148C54.3864 64.6585 52.2794 67.2922 50.3041 69.7943L44.6415 65.8436C44.6415 65.8436 47.1436 62.4198 50.3041 58.2058C46.7485 55.3087 43.7197 52.5432 43.7197 52.5432Z" fill="url(#paint28_linear_535_15926)"/>
<path fill-rule="evenodd" clip-rule="evenodd" d="M113.646 52.6749L110.88 47.8025C108.247 48.856 105.613 50.5679 103.374 52.4115C101.794 50.6996 99.9504 49.1194 97.9751 47.8025C97.9751 47.8025 93.1026 50.5679 92.3125 54.2552C92.3125 54.2552 94.4195 55.572 97.3166 58.0741C94.2878 61.3663 92.3125 64 92.3125 64L95.0779 66.8971C97.1849 65.1852 99.4236 63.4733 101.531 61.7613C103.506 63.605 105.481 65.8436 107.588 68.214L112.329 65.1852C112.329 65.1852 110.617 61.498 107.457 57.284C111.012 54.5185 113.646 52.6749 113.646 52.6749Z" fill="url(#paint29_radial_535_15926)"/>
<path fill-rule="evenodd" clip-rule="evenodd" d="M66.7654 53.7285C64.9218 49.6462 61.498 47.6709 61.498 47.6709C59.2593 49.1195 57.1523 50.9631 55.177 52.9384C52.6749 50.8314 49.7778 48.9878 46.8807 47.6709L44.1152 52.675C44.1152 52.675 47.0124 54.782 50.963 57.6791C47.6708 61.7614 45.5638 65.0536 45.5638 65.0536L50.3045 68.0824C52.2798 65.712 54.3868 63.4734 56.3621 61.6297C58.4691 63.21 60.7078 64.9219 62.8148 66.6339L65.5803 63.7367C65.5803 63.7367 63.7366 61.103 60.7078 57.9425C64.1317 55.3088 66.7654 53.7285 66.7654 53.7285Z" fill="url(#paint30_radial_535_15926)"/>
<path opacity="0.3" fill-rule="evenodd" clip-rule="evenodd" d="M135.375 96.6585C134.453 99.1606 132.478 101.004 129.844 101.136C118.256 102.189 106.14 102.584 94.4201 102.716C83.2267 102.716 72.4284 102.453 62.8152 102.058C47.8029 101.399 35.556 100.346 29.3667 99.9507C26.9963 99.819 25.021 98.3705 24.0992 96.3952L23.7041 95.3417C23.7041 95.3417 42.0086 101.531 81.7782 101.531C121.548 101.531 135.375 96.6585 135.375 96.6585Z" fill="#DD7288"/>
<path fill-rule="evenodd" clip-rule="evenodd" d="M126.288 93.8931C126.947 94.2882 126.552 99.819 125.762 100.477C124.971 101.136 111.144 101.926 109.959 101.004C109.169 100.477 109.301 95.7367 110.354 94.5516C111.276 93.6298 124.971 93.2347 126.288 93.8931Z" fill="url(#paint31_linear_535_15926)"/>
<path fill-rule="evenodd" clip-rule="evenodd" d="M126.288 93.498C126.947 93.8931 126.552 99.4239 125.762 100.082C124.972 100.741 111.276 101.268 110.223 100.477C109.432 99.9507 109.696 95.0783 110.354 94.1564C111.144 93.103 124.972 92.8396 126.288 93.498Z" fill="#E3847E"/>
<path fill-rule="evenodd" clip-rule="evenodd" d="M125.761 93.8931C126.551 94.4199 126.288 98.5022 125.893 99.6874C125.893 99.8191 125.235 100.082 125.235 100.082C124.181 100.477 111.539 101.004 110.617 100.214C109.564 99.424 110.486 95.3417 110.749 94.6833C111.012 94.0248 124.444 92.9713 125.761 93.8931Z" fill="url(#paint32_linear_535_15926)"/>
<path fill-rule="evenodd" clip-rule="evenodd" d="M111.407 99.819C112.461 100.609 125.103 100.346 126.025 99.6873C126.42 99.2923 126.683 98.1071 126.683 96.9219C126.683 95.605 127.078 94.1565 126.683 93.8931C125.234 92.8396 111.802 93.8931 111.539 94.5515C111.276 95.21 110.354 99.1606 111.407 99.819Z" fill="url(#paint33_linear_535_15926)"/>
<path fill-rule="evenodd" clip-rule="evenodd" d="M111.407 94.5516C115.621 93.7614 124.576 93.7614 125.893 94.1565C127.078 94.5515 126.551 96.6585 126.551 96.7902C126.551 95.4734 126.946 94.0248 126.551 93.7614C125.234 92.8396 111.671 93.8931 111.407 94.5516Z" fill="url(#paint34_linear_535_15926)"/>
<path fill-rule="evenodd" clip-rule="evenodd" d="M126.552 93.8931C126.552 93.8931 126.025 94.9466 124.181 94.6832C122.206 94.4198 122.206 93.498 122.206 93.498C122.206 93.498 125.498 93.3663 126.552 93.8931Z" fill="white"/>
<path fill-rule="evenodd" clip-rule="evenodd" d="M103.638 6.05762C103.638 6.05762 105.35 11.8519 113.646 12.9054C121.942 13.9589 128 7.76955 128 7.76955C128 7.76955 112.066 6.32099 103.638 6.05762Z" fill="white"/>
<path opacity="0.5" fill-rule="evenodd" clip-rule="evenodd" d="M133.004 59.3909L56.8887 17.6461C92.7076 15.0123 119.835 17.6461 130.238 18.963C133.004 19.358 135.111 21.5967 135.243 24.3621C135.769 36.3457 134.716 48.7243 133.004 59.3909Z" fill="url(#paint35_linear_535_15926)"/>
<path fill-rule="evenodd" clip-rule="evenodd" d="M18.1732 52.5432C18.1732 52.5432 16.4613 60.0494 20.1485 65.5802C20.1485 65.5802 20.1485 55.9671 18.1732 52.5432Z" fill="white"/>
<path opacity="0.3" fill-rule="evenodd" clip-rule="evenodd" d="M107.72 90.9959C76.9056 92.8395 47.1443 90.8642 36.2142 89.9424C33.5805 89.679 31.4735 87.7037 31.0784 85.2017C30.5517 82.1728 30.0249 79.144 29.6299 76.1152L107.72 90.9959Z" fill="url(#paint36_linear_535_15926)"/>
<path d="M13.037 81.6461C13.037 81.6461 8.29626 96.2634 10.6666 107.325C10.6666 107.457 14.7489 93.3663 13.037 81.6461Z" fill="#FFFFB3"/>
<path d="M139.194 95.3417C139.194 95.3417 138.009 107.194 140.379 114.041C140.379 114.041 141.828 105.482 139.194 95.3417Z" fill="#FFFFB3"/>
</g>
<defs>
<linearGradient id="paint0_linear_535_15926" x1="80.9108" y1="129.9" x2="79.5053" y2="117.239" gradientUnits="userSpaceOnUse">
<stop offset="0.0171145" stop-color="#FFA993"/>
<stop offset="1" stop-color="#FFA396"/>
</linearGradient>
<linearGradient id="paint1_linear_535_15926" x1="80.2788" y1="124.208" x2="78.4201" y2="107.466" gradientUnits="userSpaceOnUse">
<stop offset="0.0171145" stop-color="#FFDBAB"/>
<stop offset="1" stop-color="#FFE6D6"/>
</linearGradient>
<linearGradient id="paint2_linear_535_15926" x1="82.1401" y1="117.188" x2="80.0573" y2="98.4277" gradientUnits="userSpaceOnUse">
<stop offset="0.0171145" stop-color="#FFBD97"/>
<stop offset="1" stop-color="#FFC2A7"/>
</linearGradient>
<linearGradient id="paint3_linear_535_15926" x1="3.20404" y1="146.145" x2="7.21048" y2="129.715" gradientUnits="userSpaceOnUse">
<stop offset="0.0171145" stop-color="#FFA993"/>
<stop offset="1" stop-color="#FFCFA9"/>
</linearGradient>
<linearGradient id="paint4_linear_535_15926" x1="19.4659" y1="118.398" x2="11.8226" y2="49.5476" gradientUnits="userSpaceOnUse">
<stop offset="0.0171145" stop-color="#EA8489"/>
<stop offset="1" stop-color="#FFA679"/>
</linearGradient>
<linearGradient id="paint5_linear_535_15926" x1="16.5913" y1="138.753" x2="14.7093" y2="121.802" gradientUnits="userSpaceOnUse">
<stop offset="0.0171145" stop-color="#FFA993"/>
<stop offset="1" stop-color="#FFCFA9"/>
</linearGradient>
<linearGradient id="paint6_linear_535_15926" x1="15.4749" y1="125.791" x2="14.3293" y2="115.473" gradientUnits="userSpaceOnUse">
<stop offset="0.0171145" stop-color="#FFDBAB"/>
<stop offset="1" stop-color="#FFE6D6"/>
</linearGradient>
<linearGradient id="paint7_linear_535_15926" x1="31.1257" y1="136.658" x2="29.7712" y2="124.457" gradientUnits="userSpaceOnUse">
<stop stop-color="#FFD6C7"/>
<stop offset="0.9829" stop-color="#FFDBAB"/>
</linearGradient>
<linearGradient id="paint8_linear_535_15926" x1="11.443" y1="150.901" x2="11.6755" y2="134.118" gradientUnits="userSpaceOnUse">
<stop stop-color="#FFD6C7"/>
<stop offset="0.9829" stop-color="#FFDBAB"/>
</linearGradient>
<linearGradient id="paint9_linear_535_15926" x1="15.7088" y1="101.854" x2="15.7088" y2="98.841" gradientUnits="userSpaceOnUse">
<stop offset="0.0171145" stop-color="#FFDBAB"/>
<stop offset="1" stop-color="#FFE6D6"/>
</linearGradient>
<linearGradient id="paint10_linear_535_15926" x1="16.488" y1="85.4918" x2="16.488" y2="83.2959" gradientUnits="userSpaceOnUse">
<stop offset="0.0171145" stop-color="#FFDBAB"/>
<stop offset="1" stop-color="#FFE6D6"/>
</linearGradient>
<linearGradient id="paint11_linear_535_15926" x1="18.1562" y1="67.0041" x2="18.1562" y2="64.78" gradientUnits="userSpaceOnUse">
<stop offset="0.0171145" stop-color="#FFDBAB"/>
<stop offset="1" stop-color="#FFE6D6"/>
</linearGradient>
<linearGradient id="paint12_linear_535_15926" x1="156.748" y1="146.752" x2="152.741" y2="130.322" gradientUnits="userSpaceOnUse">
<stop offset="0.0171145" stop-color="#FFA993"/>
<stop offset="1" stop-color="#FFCFA9"/>
</linearGradient>
<linearGradient id="paint13_linear_535_15926" x1="140.487" y1="119.006" x2="148.13" y2="50.1552" gradientUnits="userSpaceOnUse">
<stop offset="0.0171145" stop-color="#EA8489"/>
<stop offset="1" stop-color="#FFA679"/>
</linearGradient>
<linearGradient id="paint14_linear_535_15926" x1="143.361" y1="139.361" x2="145.243" y2="122.409" gradientUnits="userSpaceOnUse">
<stop offset="0.0171145" stop-color="#FFA993"/>
<stop offset="1" stop-color="#FFCFA9"/>
</linearGradient>
<linearGradient id="paint15_linear_535_15926" x1="144.477" y1="126.399" x2="145.623" y2="116.08" gradientUnits="userSpaceOnUse">
<stop offset="0.0171145" stop-color="#FFDBAB"/>
<stop offset="1" stop-color="#FFE6D6"/>
</linearGradient>
<linearGradient id="paint16_linear_535_15926" x1="128.827" y1="137.265" x2="130.181" y2="125.064" gradientUnits="userSpaceOnUse">
<stop stop-color="#FFD6C7"/>
<stop offset="0.9829" stop-color="#FFDBAB"/>
</linearGradient>
<linearGradient id="paint17_linear_535_15926" x1="148.509" y1="151.509" x2="148.277" y2="134.725" gradientUnits="userSpaceOnUse">
<stop stop-color="#FFD6C7"/>
<stop offset="0.9829" stop-color="#FFDBAB"/>
</linearGradient>
<linearGradient id="paint18_linear_535_15926" x1="144.243" y1="102.461" x2="144.243" y2="99.4483" gradientUnits="userSpaceOnUse">
<stop offset="0.0171145" stop-color="#FFDBAB"/>
<stop offset="1" stop-color="#FFE6D6"/>
</linearGradient>
<linearGradient id="paint19_linear_535_15926" x1="143.465" y1="86.0991" x2="143.465" y2="83.9034" gradientUnits="userSpaceOnUse">
<stop offset="0.0171145" stop-color="#FFDBAB"/>
<stop offset="1" stop-color="#FFE6D6"/>
</linearGradient>
<linearGradient id="paint20_linear_535_15926" x1="141.796" y1="67.6114" x2="141.796" y2="65.3873" gradientUnits="userSpaceOnUse">
<stop offset="0.0171145" stop-color="#FFDBAB"/>
<stop offset="1" stop-color="#FFE6D6"/>
</linearGradient>
<linearGradient id="paint21_linear_535_15926" x1="81.1588" y1="20.0663" x2="78.7854" y2="-1.3127" gradientUnits="userSpaceOnUse">
<stop offset="0.0171145" stop-color="#FF9D86"/>
<stop offset="1" stop-color="#FFCFA9"/>
</linearGradient>
<linearGradient id="paint22_linear_535_15926" x1="14.0515" y1="52.5011" x2="145.728" y2="52.5011" gradientUnits="userSpaceOnUse">
<stop offset="0.0171145" stop-color="#FFDBAB"/>
<stop offset="1" stop-color="#FFE6D6"/>
</linearGradient>
<linearGradient id="paint23_linear_535_15926" x1="88.8486" y1="105.803" x2="77.5749" y2="4.2508" gradientUnits="userSpaceOnUse">
<stop offset="0.0171145" stop-color="#FFDBAB"/>
<stop offset="1" stop-color="#FFE6D6"/>
</linearGradient>
<linearGradient id="paint24_linear_535_15926" x1="80.4426" y1="93.7988" x2="80.4426" y2="16.5716" gradientUnits="userSpaceOnUse">
<stop offset="0.0171145" stop-color="#EFA9A0"/>
<stop offset="1" stop-color="#F8B89A"/>
</linearGradient>
<linearGradient id="paint25_linear_535_15926" x1="78.1479" y1="77.5375" x2="78.1479" y2="71.1172" gradientUnits="userSpaceOnUse">
<stop offset="0.00558659" stop-color="#241142"/>
<stop offset="1" stop-color="#161030"/>
</linearGradient>
<linearGradient id="paint26_linear_535_15926" x1="78.1479" y1="77.5376" x2="78.1479" y2="74.3013" gradientUnits="userSpaceOnUse">
<stop stop-color="#817289"/>
<stop offset="0.9944" stop-color="#5E4173"/>
</linearGradient>
<linearGradient id="paint27_linear_535_15926" x1="91.3755" y1="58.5022" x2="114.6" y2="58.5022" gradientUnits="userSpaceOnUse">
<stop stop-color="#540068"/>
<stop offset="1" stop-color="#81899A"/>
</linearGradient>
<linearGradient id="paint28_linear_535_15926" x1="67.2475" y1="58.6055" x2="43.6665" y2="58.6055" gradientUnits="userSpaceOnUse">
<stop stop-color="#540068"/>
<stop offset="1" stop-color="#81899A"/>
</linearGradient>
<radialGradient id="paint29_radial_535_15926" cx="0" cy="0" r="1" gradientUnits="userSpaceOnUse" gradientTransform="translate(102.924 57.9662) scale(10.4652 10.4652)">
<stop stop-color="#F43477"/>
<stop offset="0.9944" stop-color="#FF0058"/>
</radialGradient>
<radialGradient id="paint30_radial_535_15926" cx="0" cy="0" r="1" gradientUnits="userSpaceOnUse" gradientTransform="translate(55.4575 57.9663) scale(10.8077 10.8077)">
<stop stop-color="#F43477"/>
<stop offset="0.9944" stop-color="#FF0058"/>
</radialGradient>
<linearGradient id="paint31_linear_535_15926" x1="126.681" y1="97.4855" x2="109.584" y2="97.4855" gradientUnits="userSpaceOnUse">
<stop offset="0.0171145" stop-color="#FFF9D8"/>
<stop offset="1" stop-color="#FFFFD6"/>
</linearGradient>
<linearGradient id="paint32_linear_535_15926" x1="117.882" y1="101.148" x2="118.79" y2="92.9662" gradientUnits="userSpaceOnUse">
<stop offset="0.0171145" stop-color="#FFA993"/>
<stop offset="1" stop-color="#FFA993"/>
</linearGradient>
<linearGradient id="paint33_linear_535_15926" x1="118.382" y1="100.817" x2="119.261" y2="92.8958" gradientUnits="userSpaceOnUse">
<stop offset="0.0171145" stop-color="#FFC7AB"/>
<stop offset="1" stop-color="#FFD4B3"/>
</linearGradient>
<linearGradient id="paint34_linear_535_15926" x1="126.785" y1="95.1854" x2="111.468" y2="95.1854" gradientUnits="userSpaceOnUse">
<stop offset="0.0171145" stop-color="#FFF9D8"/>
<stop offset="1" stop-color="#FFFFD6"/>
</linearGradient>
<linearGradient id="paint35_linear_535_15926" x1="56.8797" y1="37.9744" x2="135.415" y2="37.9744" gradientUnits="userSpaceOnUse">
<stop stop-color="#3D2632"/>
<stop offset="1" stop-color="#2C1F29"/>
</linearGradient>
<linearGradient id="paint36_linear_535_15926" x1="68.608" y1="91.7351" x2="68.608" y2="75.9542" gradientUnits="userSpaceOnUse">
<stop stop-color="#540068"/>
<stop offset="1" stop-color="#81899A"/>
</linearGradient>
<clipPath id="clip0_535_15926">
<rect width="160" height="165.794" fill="white"/>
</clipPath>
</defs>
</svg>
