<?xml version="1.0" encoding="utf-8"?>
<!-- Generator: Adobe Illustrator 22.0.1, SVG Export Plug-In . SVG Version: 6.00 Build 0)  -->
<svg version="1.1" id="Layer_1" xmlns="http://www.w3.org/2000/svg" xmlns:xlink="http://www.w3.org/1999/xlink" x="0px" y="0px"
	 viewBox="0 0 512 512" style="enable-background:new 0 0 512 512;" xml:space="preserve">
<style type="text/css">
	.st0{fill:#00B050;}
	.st1{fill:#FFFFFF;}
	.st2{fill:#CCCCCC;}
	.st3{fill:#6D6D6F;}
	.st4{fill:#8F8F8F;}
	.st5{fill:#E2E0DF;}
	.st6{fill:#2EB24C;}
	.st7{fill:#1D3557;}
	.st8{fill:#E63946;}
	.st9{fill:#457B9D;}
	.st10{fill:#FF9F1C;}
	.st11{fill:#011627;}
</style>
<path class="st5" d="M447.3,258.6h-62.6l-13.6,17.9h-2.5v-26.3h-50v26.3h-2.5v-26.3h-50v26.3h-2.5v-26.3h-50v26.3H211v-26.3h-50
	v26.3h-2.5v-26.3h-50v26.3H96.5v-16H85.3v-14.6h1V243h-1H65.4v-18.1h2v-2.9h-2H35.2h-1.5v2.9h1.5V243h-7.6h-1.5v2.9h1.5v14.6v7v9
	h-6.8v12.4v6.4L25,297c0.2,0.1,0.4,0.2,0.6,0.2c0.8,0.3,1.6,0.7,2.3,1c0.2,0.1,0.3,0.2,0.5,0.3c0.7,0.4,1.4,0.7,2.1,1.2
	c0,0,0.1,0,0.1,0.1c1.6,1,3,2.1,4.4,3.2c1.9,1.6,3.6,3.5,5.1,5.5c0,0,0,0,0,0c1,1.3,1.8,2.7,2.6,4.2c0,0.1,0.1,0.1,0.1,0.2
	c0,0,0,0.1,0.1,0.1c0.3,0.6,0.6,1.2,0.9,1.8c0.1,0.2,0.2,0.4,0.3,0.6c0.2,0.5,0.4,1.1,0.6,1.6c0.1,0.2,0.2,0.4,0.2,0.6
	c0.2,0.7,0.5,1.5,0.7,2.3l1.5,5.9h61h313.6h17.7l2.3-6.1c2.2-5.8,4.9-11.4,8.1-16.7c0.1-0.2,0.3-0.5,0.4-0.7
	c0.5-0.9,1.1-1.8,1.7-2.7c0.2-0.4,0.5-0.8,0.8-1.2c0,0,0,0,0,0c1-1.5,2-3,3.1-4.5c0.3-0.4,0.6-0.8,0.8-1.2c0.5-0.6,0.9-1.3,1.4-1.9
	c0.4-0.5,0.7-0.9,1.1-1.3c0.7-0.9,1.5-1.8,2.3-2.7c0.4-0.5,0.8-0.9,1.2-1.4c0.4-0.5,0.9-1,1.4-1.5c0.7-0.7,1.4-1.5,2.1-2.2
	c0.5-0.5,0.9-1,1.4-1.4c0.6-0.6,1.1-1.1,1.7-1.7c0.4-0.4,0.8-0.8,1.2-1.1c0.9-0.8,1.8-1.7,2.7-2.5c0.3-0.2,0.5-0.4,0.8-0.7
	c0.8-0.7,1.6-1.3,2.4-2c0.3-0.3,0.7-0.5,1-0.8c1-0.8,2.1-1.6,3.1-2.4c0.1-0.1,0.3-0.2,0.4-0.3c1-0.7,2-1.4,3-2.1
	c0.3-0.2,0.6-0.4,0.9-0.6c1.1-0.8,2.3-1.5,3.5-2.2c0,0,0,0,0,0l9-5.5H447.3z M51.7,228.7c0-0.2,0.1-0.3,0.3-0.3h2.3
	c0.2,0,0.3,0.1,0.3,0.3v3.2c0,0.2-0.1,0.3-0.3,0.3H52c-0.2,0-0.3-0.1-0.3-0.3V228.7z M51.7,233.9c0-0.2,0.1-0.3,0.3-0.3h2.3
	c0.2,0,0.3,0.1,0.3,0.3v3.2c0,0.2-0.1,0.3-0.3,0.3H52c-0.2,0-0.3-0.1-0.3-0.3V233.9z M42.9,228.7c0-0.2,0.1-0.3,0.3-0.3h2.3
	c0.2,0,0.3,0.1,0.3,0.3v3.2c0,0.2-0.1,0.3-0.3,0.3h-2.3c-0.2,0-0.3-0.1-0.3-0.3V228.7z M42.9,233.9c0-0.2,0.1-0.3,0.3-0.3h2.3
	c0.2,0,0.3,0.1,0.3,0.3v3.2c0,0.2-0.1,0.3-0.3,0.3h-2.3c-0.2,0-0.3-0.1-0.3-0.3V233.9z M38.5,228.7c0-0.2,0.1-0.3,0.3-0.3h2.3
	c0.2,0,0.3,0.1,0.3,0.3v3.2c0,0.2-0.1,0.3-0.3,0.3h-2.3c-0.2,0-0.3-0.1-0.3-0.3V228.7z M37.8,269.2c0,0.3-0.3,0.6-0.6,0.6h-4.8
	c-0.3,0-0.6-0.3-0.6-0.6v-6.6c0-0.3,0.3-0.6,0.6-0.6h4.8c0.3,0,0.6,0.3,0.6,0.6V269.2z M37.8,258.4c0,0.3-0.3,0.6-0.6,0.6h-4.8
	c-0.3,0-0.6-0.3-0.6-0.6v-6.6c0-0.3,0.3-0.6,0.6-0.6h4.8c0.3,0,0.6,0.3,0.6,0.6V258.4z M38.8,237.3c-0.2,0-0.3-0.1-0.3-0.3v-3.2
	c0-0.2,0.1-0.3,0.3-0.3h2.3c0.2,0,0.3,0.1,0.3,0.3v3.2c0,0.2-0.1,0.3-0.3,0.3H38.8z M47,269.2c0,0.3-0.3,0.6-0.6,0.6h-4.8
	c-0.3,0-0.6-0.3-0.6-0.6v-6.6c0-0.3,0.3-0.6,0.6-0.6h4.8c0.3,0,0.6,0.3,0.6,0.6V269.2z M47,258.4c0,0.3-0.3,0.6-0.6,0.6h-4.8
	c-0.3,0-0.6-0.3-0.6-0.6v-6.6c0-0.3,0.3-0.6,0.6-0.6h4.8c0.3,0,0.6,0.3,0.6,0.6V258.4z M50.2,237.1c0,0.2-0.1,0.3-0.3,0.3h-2.3
	c-0.2,0-0.3-0.1-0.3-0.3v-3.2c0-0.2,0.1-0.3,0.3-0.3h2.3c0.2,0,0.3,0.1,0.3,0.3V237.1z M50.2,231.9c0,0.2-0.1,0.3-0.3,0.3h-2.3
	c-0.2,0-0.3-0.1-0.3-0.3v-3.2c0-0.2,0.1-0.3,0.3-0.3h2.3c0.2,0,0.3,0.1,0.3,0.3V231.9z M56.2,269.2c0,0.3-0.3,0.6-0.6,0.6h-4.8
	c-0.3,0-0.6-0.3-0.6-0.6v-6.6c0-0.3,0.3-0.6,0.6-0.6h4.8c0.3,0,0.6,0.3,0.6,0.6V269.2z M56.2,258.4c0,0.3-0.3,0.6-0.6,0.6h-4.8
	c-0.3,0-0.6-0.3-0.6-0.6v-6.6c0-0.3,0.3-0.6,0.6-0.6h4.8c0.3,0,0.6,0.3,0.6,0.6V258.4z M58.9,237.1c0,0.2-0.1,0.3-0.3,0.3h-2.3
	c-0.2,0-0.3-0.1-0.3-0.3v-3.2c0-0.2,0.1-0.3,0.3-0.3h2.3c0.2,0,0.3,0.1,0.3,0.3V237.1z M58.9,231.9c0,0.2-0.1,0.3-0.3,0.3h-2.3
	c-0.2,0-0.3-0.1-0.3-0.3v-3.2c0-0.2,0.1-0.3,0.3-0.3h2.3c0.2,0,0.3,0.1,0.3,0.3V231.9z M65.4,269.2c0,0.3-0.3,0.6-0.6,0.6H60
	c-0.3,0-0.6-0.3-0.6-0.6v-6.6c0-0.3,0.3-0.6,0.6-0.6h4.8c0.3,0,0.6,0.3,0.6,0.6V269.2z M65.4,258.4c0,0.3-0.3,0.6-0.6,0.6H60
	c-0.3,0-0.6-0.3-0.6-0.6v-6.6c0-0.3,0.3-0.6,0.6-0.6h4.8c0.3,0,0.6,0.3,0.6,0.6V258.4z M74.6,269.2c0,0.3-0.3,0.6-0.6,0.6h-4.8
	c-0.3,0-0.6-0.3-0.6-0.6v-6.6c0-0.3,0.3-0.6,0.6-0.6H74c0.3,0,0.6,0.3,0.6,0.6V269.2z M74.6,258.4c0,0.3-0.3,0.6-0.6,0.6h-4.8
	c-0.3,0-0.6-0.3-0.6-0.6v-6.6c0-0.3,0.3-0.6,0.6-0.6H74c0.3,0,0.6,0.3,0.6,0.6V258.4z M367.4,251.3v25.2h-1.7v-25.2H367.4z
	 M364.5,251.3v25.2h-1.7v-25.2H364.5z M361.7,251.3v25.2H360v-25.2H361.7z M358.8,251.3v25.2h-1.7v-25.2H358.8z M355.9,251.3v25.2
	h-1.7v-25.2H355.9z M353.1,251.3v25.2h-1.7v-25.2H353.1z M350.2,251.3v25.2h-1.7v-25.2H350.2z M347.3,251.3v25.2h-1.7v-25.2H347.3z
	 M344.4,251.3v25.2h-1.7v-25.2H344.4z M341.6,251.3v25.2h-1.7v-25.2H341.6z M338.7,251.3v25.2H337v-25.2H338.7z M335.8,251.3v25.2
	h-1.7v-25.2H335.8z M333,251.3v25.2h-1.7v-25.2H333z M330.1,251.3v25.2h-1.7v-25.2H330.1z M327.2,251.3v25.2h-1.7v-25.2H327.2z
	 M324.3,251.3v25.2h-1.7v-25.2H324.3z M319.8,251.3h1.7v25.2h-1.7V251.3z M314.9,251.3v25.2h-1.7v-25.2H314.9z M312,251.3v25.2h-1.7
	v-25.2H312z M309.1,251.3v25.2h-1.7v-25.2H309.1z M306.3,251.3v25.2h-1.7v-25.2H306.3z M303.4,251.3v25.2h-1.7v-25.2H303.4z
	 M300.5,251.3v25.2h-1.7v-25.2H300.5z M297.7,251.3v25.2H296v-25.2H297.7z M294.8,251.3v25.2h-1.7v-25.2H294.8z M291.9,251.3v25.2
	h-1.7v-25.2H291.9z M289,251.3v25.2h-1.7v-25.2H289z M286.2,251.3v25.2h-1.7v-25.2H286.2z M283.3,251.3v25.2h-1.7v-25.2H283.3z
	 M280.4,251.3v25.2h-1.7v-25.2H280.4z M277.6,251.3v25.2h-1.7v-25.2H277.6z M274.7,251.3v25.2H273v-25.2H274.7z M271.8,251.3v25.2
	h-1.7v-25.2H271.8z M267.3,251.3h1.7v25.2h-1.7V251.3z M262.4,251.3v25.2h-1.7v-25.2H262.4z M259.5,251.3v25.2h-1.7v-25.2H259.5z
	 M256.6,251.3v25.2h-1.7v-25.2H256.6z M253.7,251.3v25.2H252v-25.2H253.7z M250.9,251.3v25.2h-1.7v-25.2H250.9z M248,251.3v25.2
	h-1.7v-25.2H248z M245.1,251.3v25.2h-1.7v-25.2H245.1z M242.3,251.3v25.2h-1.7v-25.2H242.3z M239.4,251.3v25.2h-1.7v-25.2H239.4z
	 M236.5,251.3v25.2h-1.7v-25.2H236.5z M233.6,251.3v25.2H232v-25.2H233.6z M230.8,251.3v25.2h-1.7v-25.2H230.8z M227.9,251.3v25.2
	h-1.7v-25.2H227.9z M225,251.3v25.2h-1.7v-25.2H225z M222.2,251.3v25.2h-1.7v-25.2H222.2z M219.3,251.3v25.2h-1.7v-25.2H219.3z
	 M214.7,251.3h1.7v25.2h-1.7V251.3z M209.8,251.3v25.2h-1.7v-25.2H209.8z M207,251.3v25.2h-1.7v-25.2H207z M204.1,251.3v25.2h-1.7
	v-25.2H204.1z M201.2,251.3v25.2h-1.7v-25.2H201.2z M198.3,251.3v25.2h-1.7v-25.2H198.3z M195.5,251.3v25.2h-1.7v-25.2H195.5z
	 M192.6,251.3v25.2h-1.7v-25.2H192.6z M189.7,251.3v25.2H188v-25.2H189.7z M186.9,251.3v25.2h-1.7v-25.2H186.9z M184,251.3v25.2
	h-1.7v-25.2H184z M181.1,251.3v25.2h-1.7v-25.2H181.1z M178.3,251.3v25.2h-1.7v-25.2H178.3z M175.4,251.3v25.2h-1.7v-25.2H175.4z
	 M172.5,251.3v25.2h-1.7v-25.2H172.5z M169.6,251.3v25.2h-1.7v-25.2H169.6z M166.8,251.3v25.2h-1.7v-25.2H166.8z M162.2,251.3h1.7
	v25.2h-1.7V251.3z M157.3,251.3v25.2h-1.7v-25.2H157.3z M154.4,251.3v25.2h-1.7v-25.2H154.4z M151.6,251.3v25.2h-1.7v-25.2H151.6z
	 M148.7,251.3v25.2H147v-25.2H148.7z M145.8,251.3v25.2h-1.7v-25.2H145.8z M143,251.3v25.2h-1.7v-25.2H143z M140.1,251.3v25.2h-1.7
	v-25.2H140.1z M137.2,251.3v25.2h-1.7v-25.2H137.2z M134.3,251.3v25.2h-1.7v-25.2H134.3z M131.5,251.3v25.2h-1.7v-25.2H131.5z
	 M128.6,251.3v25.2h-1.7v-25.2H128.6z M125.7,251.3v25.2H124v-25.2H125.7z M122.9,251.3v25.2h-1.7v-25.2H122.9z M120,251.3v25.2
	h-1.7v-25.2H120z M117.1,251.3v25.2h-1.7v-25.2H117.1z M114.2,251.3v25.2h-1.7v-25.2H114.2z M109.7,251.3h1.7v25.2h-1.7V251.3z"/>
<path class="st6" d="M384.7,258.6l-13.6,17.9h-2.5v-26.3h-50v26.3h-2.5v-26.3h-50v26.3h-2.5v-26.3h-50v26.3H211v-26.3h-50v26.3h-2.5
	v-26.3h-50v26.3H96.5v-16H85.3v-14.6h1V243h-1H65.4v-18.1h2v-2.9h-2H35.2h-1.5v2.9h1.5V243h-7.6h-1.5v2.9h1.5v14.6v7v9h-6.8v12.4
	v6.4L25,297c0.2,0.1,0.4,0.2,0.6,0.2c0.8,0.3,1.6,0.7,2.3,1c0.2,0.1,0.3,0.2,0.5,0.3c0.7,0.4,1.4,0.7,2.1,1.2c0,0,0.1,0,0.1,0.1
	c1.6,1,3,2.1,4.4,3.2c1.9,1.6,3.6,3.5,5.1,5.5c0,0,0,0,0,0c1,1.3,1.8,2.7,2.6,4.2c0,0.1,0.1,0.1,0.1,0.2c0,0,0,0.1,0.1,0.1
	c0.3,0.6,0.6,1.2,0.9,1.8c0.1,0.2,0.2,0.4,0.3,0.6c0.2,0.5,0.4,1.1,0.6,1.6c0.1,0.2,0.2,0.4,0.2,0.6c0.2,0.7,0.5,1.5,0.7,2.3
	l1.5,5.9h61h276.7V258.6z M51.7,228.7c0-0.2,0.1-0.3,0.3-0.3h2.3c0.2,0,0.3,0.1,0.3,0.3v3.2c0,0.2-0.1,0.3-0.3,0.3H52
	c-0.2,0-0.3-0.1-0.3-0.3V228.7z M51.7,233.9c0-0.2,0.1-0.3,0.3-0.3h2.3c0.2,0,0.3,0.1,0.3,0.3v3.2c0,0.2-0.1,0.3-0.3,0.3H52
	c-0.2,0-0.3-0.1-0.3-0.3V233.9z M42.9,228.7c0-0.2,0.1-0.3,0.3-0.3h2.3c0.2,0,0.3,0.1,0.3,0.3v3.2c0,0.2-0.1,0.3-0.3,0.3h-2.3
	c-0.2,0-0.3-0.1-0.3-0.3V228.7z M42.9,233.9c0-0.2,0.1-0.3,0.3-0.3h2.3c0.2,0,0.3,0.1,0.3,0.3v3.2c0,0.2-0.1,0.3-0.3,0.3h-2.3
	c-0.2,0-0.3-0.1-0.3-0.3V233.9z M38.5,228.7c0-0.2,0.1-0.3,0.3-0.3h2.3c0.2,0,0.3,0.1,0.3,0.3v3.2c0,0.2-0.1,0.3-0.3,0.3h-2.3
	c-0.2,0-0.3-0.1-0.3-0.3V228.7z M37.8,269.2c0,0.3-0.3,0.6-0.6,0.6h-4.8c-0.3,0-0.6-0.3-0.6-0.6v-6.6c0-0.3,0.3-0.6,0.6-0.6h4.8
	c0.3,0,0.6,0.3,0.6,0.6V269.2z M37.8,258.4c0,0.3-0.3,0.6-0.6,0.6h-4.8c-0.3,0-0.6-0.3-0.6-0.6v-6.6c0-0.3,0.3-0.6,0.6-0.6h4.8
	c0.3,0,0.6,0.3,0.6,0.6V258.4z M38.8,237.3c-0.2,0-0.3-0.1-0.3-0.3v-3.2c0-0.2,0.1-0.3,0.3-0.3h2.3c0.2,0,0.3,0.1,0.3,0.3v3.2
	c0,0.2-0.1,0.3-0.3,0.3H38.8z M47,269.2c0,0.3-0.3,0.6-0.6,0.6h-4.8c-0.3,0-0.6-0.3-0.6-0.6v-6.6c0-0.3,0.3-0.6,0.6-0.6h4.8
	c0.3,0,0.6,0.3,0.6,0.6V269.2z M47,258.4c0,0.3-0.3,0.6-0.6,0.6h-4.8c-0.3,0-0.6-0.3-0.6-0.6v-6.6c0-0.3,0.3-0.6,0.6-0.6h4.8
	c0.3,0,0.6,0.3,0.6,0.6V258.4z M50.2,237.1c0,0.2-0.1,0.3-0.3,0.3h-2.3c-0.2,0-0.3-0.1-0.3-0.3v-3.2c0-0.2,0.1-0.3,0.3-0.3h2.3
	c0.2,0,0.3,0.1,0.3,0.3V237.1z M50.2,231.9c0,0.2-0.1,0.3-0.3,0.3h-2.3c-0.2,0-0.3-0.1-0.3-0.3v-3.2c0-0.2,0.1-0.3,0.3-0.3h2.3
	c0.2,0,0.3,0.1,0.3,0.3V231.9z M56.2,269.2c0,0.3-0.3,0.6-0.6,0.6h-4.8c-0.3,0-0.6-0.3-0.6-0.6v-6.6c0-0.3,0.3-0.6,0.6-0.6h4.8
	c0.3,0,0.6,0.3,0.6,0.6V269.2z M56.2,258.4c0,0.3-0.3,0.6-0.6,0.6h-4.8c-0.3,0-0.6-0.3-0.6-0.6v-6.6c0-0.3,0.3-0.6,0.6-0.6h4.8
	c0.3,0,0.6,0.3,0.6,0.6V258.4z M58.9,237.1c0,0.2-0.1,0.3-0.3,0.3h-2.3c-0.2,0-0.3-0.1-0.3-0.3v-3.2c0-0.2,0.1-0.3,0.3-0.3h2.3
	c0.2,0,0.3,0.1,0.3,0.3V237.1z M58.9,231.9c0,0.2-0.1,0.3-0.3,0.3h-2.3c-0.2,0-0.3-0.1-0.3-0.3v-3.2c0-0.2,0.1-0.3,0.3-0.3h2.3
	c0.2,0,0.3,0.1,0.3,0.3V231.9z M65.4,269.2c0,0.3-0.3,0.6-0.6,0.6H60c-0.3,0-0.6-0.3-0.6-0.6v-6.6c0-0.3,0.3-0.6,0.6-0.6h4.8
	c0.3,0,0.6,0.3,0.6,0.6V269.2z M65.4,258.4c0,0.3-0.3,0.6-0.6,0.6H60c-0.3,0-0.6-0.3-0.6-0.6v-6.6c0-0.3,0.3-0.6,0.6-0.6h4.8
	c0.3,0,0.6,0.3,0.6,0.6V258.4z M74.6,269.2c0,0.3-0.3,0.6-0.6,0.6h-4.8c-0.3,0-0.6-0.3-0.6-0.6v-6.6c0-0.3,0.3-0.6,0.6-0.6H74
	c0.3,0,0.6,0.3,0.6,0.6V269.2z M74.6,258.4c0,0.3-0.3,0.6-0.6,0.6h-4.8c-0.3,0-0.6-0.3-0.6-0.6v-6.6c0-0.3,0.3-0.6,0.6-0.6H74
	c0.3,0,0.6,0.3,0.6,0.6V258.4z M367.4,251.3v25.2h-1.7v-25.2H367.4z M364.5,251.3v25.2h-1.7v-25.2H364.5z M361.7,251.3v25.2H360
	v-25.2H361.7z M358.8,251.3v25.2h-1.7v-25.2H358.8z M355.9,251.3v25.2h-1.7v-25.2H355.9z M353.1,251.3v25.2h-1.7v-25.2H353.1z
	 M350.2,251.3v25.2h-1.7v-25.2H350.2z M347.3,251.3v25.2h-1.7v-25.2H347.3z M344.4,251.3v25.2h-1.7v-25.2H344.4z M341.6,251.3v25.2
	h-1.7v-25.2H341.6z M338.7,251.3v25.2H337v-25.2H338.7z M335.8,251.3v25.2h-1.7v-25.2H335.8z M333,251.3v25.2h-1.7v-25.2H333z
	 M330.1,251.3v25.2h-1.7v-25.2H330.1z M327.2,251.3v25.2h-1.7v-25.2H327.2z M324.3,251.3v25.2h-1.7v-25.2H324.3z M319.8,251.3h1.7
	v25.2h-1.7V251.3z M314.9,251.3v25.2h-1.7v-25.2H314.9z M312,251.3v25.2h-1.7v-25.2H312z M309.1,251.3v25.2h-1.7v-25.2H309.1z
	 M306.3,251.3v25.2h-1.7v-25.2H306.3z M303.4,251.3v25.2h-1.7v-25.2H303.4z M300.5,251.3v25.2h-1.7v-25.2H300.5z M297.7,251.3v25.2
	H296v-25.2H297.7z M294.8,251.3v25.2h-1.7v-25.2H294.8z M291.9,251.3v25.2h-1.7v-25.2H291.9z M289,251.3v25.2h-1.7v-25.2H289z
	 M286.2,251.3v25.2h-1.7v-25.2H286.2z M283.3,251.3v25.2h-1.7v-25.2H283.3z M280.4,251.3v25.2h-1.7v-25.2H280.4z M277.6,251.3v25.2
	h-1.7v-25.2H277.6z M274.7,251.3v25.2H273v-25.2H274.7z M271.8,251.3v25.2h-1.7v-25.2H271.8z M267.3,251.3h1.7v25.2h-1.7V251.3z
	 M262.4,251.3v25.2h-1.7v-25.2H262.4z M259.5,251.3v25.2h-1.7v-25.2H259.5z M256.6,251.3v25.2h-1.7v-25.2H256.6z M253.7,251.3v25.2
	H252v-25.2H253.7z M250.9,251.3v25.2h-1.7v-25.2H250.9z M248,251.3v25.2h-1.7v-25.2H248z M245.1,251.3v25.2h-1.7v-25.2H245.1z
	 M242.3,251.3v25.2h-1.7v-25.2H242.3z M239.4,251.3v25.2h-1.7v-25.2H239.4z M236.5,251.3v25.2h-1.7v-25.2H236.5z M233.6,251.3v25.2
	H232v-25.2H233.6z M230.8,251.3v25.2h-1.7v-25.2H230.8z M227.9,251.3v25.2h-1.7v-25.2H227.9z M225,251.3v25.2h-1.7v-25.2H225z
	 M222.2,251.3v25.2h-1.7v-25.2H222.2z M219.3,251.3v25.2h-1.7v-25.2H219.3z M214.7,251.3h1.7v25.2h-1.7V251.3z M209.8,251.3v25.2
	h-1.7v-25.2H209.8z M207,251.3v25.2h-1.7v-25.2H207z M204.1,251.3v25.2h-1.7v-25.2H204.1z M201.2,251.3v25.2h-1.7v-25.2H201.2z
	 M198.3,251.3v25.2h-1.7v-25.2H198.3z M195.5,251.3v25.2h-1.7v-25.2H195.5z M192.6,251.3v25.2h-1.7v-25.2H192.6z M189.7,251.3v25.2
	H188v-25.2H189.7z M186.9,251.3v25.2h-1.7v-25.2H186.9z M184,251.3v25.2h-1.7v-25.2H184z M181.1,251.3v25.2h-1.7v-25.2H181.1z
	 M178.3,251.3v25.2h-1.7v-25.2H178.3z M175.4,251.3v25.2h-1.7v-25.2H175.4z M172.5,251.3v25.2h-1.7v-25.2H172.5z M169.6,251.3v25.2
	h-1.7v-25.2H169.6z M166.8,251.3v25.2h-1.7v-25.2H166.8z M162.2,251.3h1.7v25.2h-1.7V251.3z M157.3,251.3v25.2h-1.7v-25.2H157.3z
	 M154.4,251.3v25.2h-1.7v-25.2H154.4z M151.6,251.3v25.2h-1.7v-25.2H151.6z M148.7,251.3v25.2H147v-25.2H148.7z M145.8,251.3v25.2
	h-1.7v-25.2H145.8z M143,251.3v25.2h-1.7v-25.2H143z M140.1,251.3v25.2h-1.7v-25.2H140.1z M137.2,251.3v25.2h-1.7v-25.2H137.2z
	 M134.3,251.3v25.2h-1.7v-25.2H134.3z M131.5,251.3v25.2h-1.7v-25.2H131.5z M128.6,251.3v25.2h-1.7v-25.2H128.6z M125.7,251.3v25.2
	H124v-25.2H125.7z M122.9,251.3v25.2h-1.7v-25.2H122.9z M120,251.3v25.2h-1.7v-25.2H120z M117.1,251.3v25.2h-1.7v-25.2H117.1z
	 M114.2,251.3v25.2h-1.7v-25.2H114.2z M109.7,251.3h1.7v25.2h-1.7V251.3z"/>
</svg>
