<svg width="24" height="24" viewBox="0 0 24 24" fill="none" xmlns="http://www.w3.org/2000/svg">
<rect x="0.5" y="0.5" width="23" height="23" rx="11.5" fill="white"/>
<g clip-path="url(#clip0_1757_30594)">
<path d="M12 7.08138C13.603 7.08138 13.7912 7.08853 14.4248 7.11711C15.0107 7.14331 15.3275 7.24097 15.5395 7.32433C15.8206 7.4339 16.0206 7.56252 16.2303 7.77213C16.4399 7.98174 16.5709 8.18182 16.6781 8.46288C16.759 8.67487 16.8591 8.99166 16.8853 9.57761C16.9139 10.2112 16.921 10.3994 16.921 12.0024C16.921 13.6054 16.9139 13.7936 16.8853 14.4272C16.8591 15.0131 16.7614 15.3299 16.6781 15.5419C16.5685 15.8229 16.4399 16.023 16.2303 16.2326C16.0206 16.4422 15.8206 16.5732 15.5395 16.6804C15.3275 16.7614 15.0107 16.8615 14.4248 16.8877C13.7912 16.9162 13.603 16.9234 12 16.9234C10.397 16.9234 10.2088 16.9162 9.57523 16.8877C8.98928 16.8615 8.67249 16.7638 8.4605 16.6804C8.17944 16.5709 7.97936 16.4422 7.76975 16.2326C7.56014 16.023 7.42914 15.8229 7.32195 15.5419C7.24097 15.3299 7.14093 15.0131 7.11473 14.4272C7.08615 13.7936 7.079 13.6054 7.079 12.0024C7.079 10.3994 7.08615 10.2112 7.11473 9.57761C7.14093 8.99166 7.23859 8.67487 7.32195 8.46288C7.43152 8.18182 7.56014 7.98174 7.76975 7.77213C7.97936 7.56252 8.17944 7.43152 8.4605 7.32433C8.67249 7.24335 8.98928 7.14331 9.57523 7.11711C10.2088 7.08615 10.3994 7.08138 12 7.08138ZM12 6C10.3708 6 10.1659 6.00715 9.52521 6.03573C8.88686 6.06431 8.45097 6.16673 8.06987 6.31441C7.67448 6.46685 7.34101 6.67408 7.00754 7.00754C6.67408 7.34101 6.46923 7.67686 6.31441 8.06987C6.16673 8.45097 6.06431 8.88686 6.03573 9.52759C6.00715 10.1659 6 10.3708 6 12C6 13.6292 6.00715 13.8341 6.03573 14.4748C6.06431 15.1131 6.16673 15.549 6.31441 15.9325C6.46685 16.3279 6.67408 16.6614 7.00754 16.9948C7.34101 17.3283 7.67686 17.5331 8.06987 17.688C8.45097 17.8356 8.88686 17.9381 9.52759 17.9667C10.1683 17.9952 10.3708 18.0024 12.0024 18.0024C13.634 18.0024 13.8364 17.9952 14.4772 17.9667C15.1155 17.9381 15.5514 17.8356 15.9349 17.688C16.3303 17.5355 16.6638 17.3283 16.9972 16.9948C17.3307 16.6614 17.5355 16.3255 17.6904 15.9325C17.838 15.5514 17.9405 15.1155 17.969 14.4748C17.9976 13.8341 18.0048 13.6316 18.0048 12C18.0048 10.3684 17.9976 10.1659 17.969 9.52521C17.9405 8.88686 17.838 8.45097 17.6904 8.06749C17.5379 7.67209 17.3307 7.33863 16.9972 7.00516C16.6638 6.6717 16.3279 6.46685 15.9349 6.31203C15.5538 6.16435 15.1179 6.06193 14.4772 6.03335C13.8341 6.00715 13.6292 6 12 6Z" fill="#F6BA5F"/>
<path d="M12 7.08138C13.603 7.08138 13.7912 7.08853 14.4248 7.11711C15.0107 7.14331 15.3275 7.24097 15.5395 7.32433C15.8206 7.4339 16.0206 7.56252 16.2303 7.77213C16.4399 7.98174 16.5709 8.18182 16.6781 8.46288C16.759 8.67487 16.8591 8.99166 16.8853 9.57761C16.9139 10.2112 16.921 10.3994 16.921 12.0024C16.921 13.6054 16.9139 13.7936 16.8853 14.4272C16.8591 15.0131 16.7614 15.3299 16.6781 15.5419C16.5685 15.8229 16.4399 16.023 16.2303 16.2326C16.0206 16.4422 15.8206 16.5732 15.5395 16.6804C15.3275 16.7614 15.0107 16.8615 14.4248 16.8877C13.7912 16.9162 13.603 16.9234 12 16.9234C10.397 16.9234 10.2088 16.9162 9.57523 16.8877C8.98928 16.8615 8.67249 16.7638 8.4605 16.6804C8.17944 16.5709 7.97936 16.4422 7.76975 16.2326C7.56014 16.023 7.42914 15.8229 7.32195 15.5419C7.24097 15.3299 7.14093 15.0131 7.11473 14.4272C7.08615 13.7936 7.079 13.6054 7.079 12.0024C7.079 10.3994 7.08615 10.2112 7.11473 9.57761C7.14093 8.99166 7.23859 8.67487 7.32195 8.46288C7.43152 8.18182 7.56014 7.98174 7.76975 7.77213C7.97936 7.56252 8.17944 7.43152 8.4605 7.32433C8.67249 7.24335 8.98928 7.14331 9.57523 7.11711C10.2088 7.08615 10.3994 7.08138 12 7.08138Z" fill="#F6BA5F"/>
<path d="M11.9999 8.92017C10.2992 8.92017 8.91772 10.2993 8.91772 12.0023C8.91772 13.7054 10.2968 15.0845 11.9999 15.0845C13.703 15.0845 15.0821 13.7054 15.0821 12.0023C15.0821 10.2993 13.703 8.92017 11.9999 8.92017ZM11.9999 14.0008C10.8947 14.0008 9.99911 13.1052 9.99911 12C9.99911 10.8948 10.8947 9.99917 11.9999 9.99917C13.1051 9.99917 14.0007 10.8948 14.0007 12C14.0007 13.1052 13.1051 14.0008 11.9999 14.0008Z" fill="white"/>
<path d="M15.2037 9.51557C15.601 9.51557 15.923 9.19351 15.923 8.79624C15.923 8.39896 15.601 8.0769 15.2037 8.0769C14.8064 8.0769 14.4844 8.39896 14.4844 8.79624C14.4844 9.19351 14.8064 9.51557 15.2037 9.51557Z" fill="white"/>
</g>
<rect x="0.5" y="0.5" width="23" height="23" rx="11.5" stroke="#F6BA5F"/>
<defs>
<clipPath id="clip0_1757_30594">
<rect width="12" height="12" fill="white" transform="translate(6 6)"/>
</clipPath>
</defs>
</svg>
