<svg width="24" height="24" viewBox="0 0 24 24" fill="none" xmlns="http://www.w3.org/2000/svg">
<rect x="0.5" y="0.5" width="23" height="23" rx="11.5" fill="white"/>
<path d="M14.62 6H12.5483V14.1739C12.5483 15.1478 11.7515 15.9478 10.7599 15.9478C9.76837 15.9478 8.97157 15.1478 8.97157 14.1739C8.97157 13.2174 9.75066 12.4348 10.7068 12.4V10.3478C8.59973 10.3826 6.8999 12.0696 6.8999 14.1739C6.8999 16.2957 8.63515 18 10.7777 18C12.9201 18 14.6554 16.2783 14.6554 14.1739V9.9826C15.4345 10.5391 16.3906 10.8696 17.3999 10.887V8.83478C15.8417 8.78261 14.62 7.53043 14.62 6Z" fill="#F6BA5F"/>
<rect x="0.5" y="0.5" width="23" height="23" rx="11.5" stroke="#F6BA5F"/>
</svg>
