<svg width="24" height="24" viewBox="0 0 24 24" fill="none" xmlns="http://www.w3.org/2000/svg">
<rect x="0.5" y="0.5" width="23" height="23" rx="11.5" fill="white"/>
<path d="M16.5286 9.59033C16.5332 9.69593 16.5332 9.79673 16.5332 9.90233C16.5378 13.1039 14.1856 16.8 9.88396 16.8C8.61524 16.8 7.36967 16.4208 6.30005 15.7103C6.48526 15.7343 6.67048 15.7439 6.85569 15.7439C7.90679 15.7439 8.93011 15.3791 9.75894 14.7023C8.75878 14.6831 7.87901 14.0063 7.5734 13.0175C7.92531 13.0895 8.28648 13.0751 8.62913 12.9743C7.54099 12.7535 6.75846 11.7599 6.75383 10.6031C6.75383 10.5935 6.75383 10.5839 6.75383 10.5743C7.07795 10.7615 7.44375 10.8671 7.81418 10.8767C6.79087 10.1663 6.47137 8.75033 7.09184 7.64152C8.28185 9.15833 10.0321 10.0751 11.9121 10.1759C11.7222 9.33593 11.9815 8.45272 12.5881 7.85752C13.5281 6.94072 15.0098 6.98872 15.8988 7.96312C16.4221 7.85752 16.9268 7.65592 17.3852 7.37272C17.2092 7.93432 16.8434 8.40952 16.3572 8.71193C16.8203 8.65433 17.2741 8.52472 17.7 8.33272C17.3852 8.82233 16.987 9.24473 16.5286 9.59033Z" fill="#F6BA5F"/>
<rect x="0.5" y="0.5" width="23" height="23" rx="11.5" stroke="#F6BA5F"/>
</svg>
