<svg width="80" height="100%" viewBox="0 0 46 18" fill="none" xmlns="http://www.w3.org/2000/svg">
<path d="M2.75516 14.3364L44.204 9.66591C44.5225 9.63002 44.7371 9.97529 44.5721 10.2503C41.9229 14.6694 35.6514 17.7845 28.3509 17.7845H3.62448C3.45645 17.7845 3.30901 17.6753 3.25933 17.5149L2.4328 14.8283C2.36253 14.5999 2.51758 14.3631 2.75516 14.3364Z" fill="#E2E0DF"/>
<path d="M0.207573 6.67838C0.32905 6.48896 0.526887 6.36292 0.749162 6.33311L12.2075 4.8053C12.6208 4.75105 13.0096 5.04359 13.0661 5.46147C13.1226 5.87934 12.8278 6.26436 12.4099 6.32004L11.1128 6.49272C10.9234 6.51797 10.7813 6.6799 10.7813 6.87085V8.05187C10.7813 8.27871 10.9784 8.45595 11.2038 8.43151L14.2593 8.10379C14.4533 8.08391 14.6007 7.91965 14.6007 7.72485V4.38133C14.6007 4.30569 14.5786 4.23238 14.5365 4.16971L13.2013 2.16682C13.0485 1.93766 13.0309 1.6443 13.1546 1.39911C13.2792 1.15312 13.5259 0.992699 13.8009 0.979719L29.8426 0.215856C30.1001 0.213529 30.3498 0.324353 30.5003 0.535169C30.5003 0.535169 33.5528 4.82517 34.2219 5.76932C34.3022 5.88238 34.4366 5.94272 34.5741 5.92741L45.0755 4.80306C45.2924 4.78014 45.5064 4.8497 45.6675 4.994C45.8279 5.1392 45.9204 5.34545 45.9204 5.56235C45.9204 6.29802 45.8249 7.01909 45.6446 7.71886C45.6049 7.87319 45.4704 7.98544 45.3123 8.00379L2.15478 12.8667C1.97225 12.8873 1.80109 12.775 1.74685 12.5993L0.120472 7.31468C0.054855 7.1001 0.0869019 6.86709 0.207573 6.67838ZM23.876 2.4472L24.4719 6.61957C24.5009 6.82197 24.6804 6.96636 24.8844 6.94577C26.3747 6.79529 31.974 6.20635 31.974 6.20635C32.2644 6.17502 32.414 5.84273 32.2445 5.60443L29.6205 1.93085C29.5449 1.8254 29.4212 1.76506 29.2913 1.77124L24.2358 2.01187C24.0112 2.02252 23.844 2.22412 23.876 2.4472ZM15.5947 3.00409L16.0644 3.7069C16.1064 3.76956 16.1286 3.8436 16.1286 3.91924V7.47975C16.1286 7.70659 16.3258 7.88384 16.5511 7.8594L22.6134 7.21012C22.828 7.18721 22.9815 6.99009 22.951 6.77623L22.3331 2.45033C22.3056 2.25554 22.1337 2.11347 21.9366 2.1226L15.8942 2.41058C15.5977 2.42428 15.4297 2.75657 15.5947 3.00409ZM6.19807 8.54305C6.19807 8.76989 6.39519 8.94714 6.6205 8.9227C6.6205 8.9227 8.20633 8.74393 8.91675 8.65997C9.10921 8.63785 9.2536 8.4743 9.2536 8.28103V7.17646C9.2536 6.94577 9.0504 6.76701 8.82123 6.79753L6.52955 7.10306C6.34013 7.12902 6.19807 7.29096 6.19807 7.48199V8.54305ZM1.97906 8.15956L2.26247 9.07927C2.31592 9.25347 2.48627 9.36573 2.66808 9.34666L4.32955 9.1687C4.52282 9.14811 4.67025 8.98384 4.67025 8.78905V7.78832C4.67025 7.55763 4.46705 7.37886 4.23788 7.40939L2.29381 7.66837C2.06007 7.6997 1.90959 7.93352 1.97906 8.15956Z" fill="#E2E0DF"/>
</svg>
