<svg
    width="80"
    height="100%"
    viewBox="0 0 46 34"
    fill="none"
    xmlns="http://www.w3.org/2000/svg"
  >
    <path
      d="M14.0053 14.7576H3.14776C2.78259 14.7576 2.48645 15.0536 2.48645 15.4189V20.3562C2.48645 20.7215 2.78259 21.0177 3.14776 21.0177H14.0053C14.3706 21.0177 14.6667 20.7215 14.6667 20.3562V15.4189C14.6667 15.0536 14.3706 14.7576 14.0053 14.7576Z"
      fill='#E2E0DF'
    />
    <path
      d="M35.3396 16.6021H31.4238C31.2674 16.6021 31.1405 16.729 31.1405 16.8856V20.8012C31.1405 20.9577 31.2674 21.0846 31.4238 21.0846H35.3396C35.496 21.0846 35.6228 20.9577 35.6228 20.8012V16.8856C35.6228 16.729 35.496 16.6021 35.3396 16.6021Z"
      fill='#E2E0DF'
    />
    <path
      d="M29.0581 16.6021H25.1426C24.9858 16.6021 24.8591 16.729 24.8591 16.8856V20.8012C24.8591 20.9577 24.9858 21.0846 25.1426 21.0846H29.0581C29.215 21.0846 29.3418 20.9577 29.3418 20.8012V16.8856C29.3418 16.729 29.2149 16.6021 29.0581 16.6021Z"
      fill='#E2E0DF'
    />
    <path
      d="M22.7767 16.6021H18.8613C18.7046 16.6021 18.5778 16.729 18.5778 16.8856V20.8012C18.5778 20.9577 18.7046 21.0846 18.8613 21.0846H22.7767C22.9332 21.0846 23.0601 20.9577 23.0601 20.8012V16.8856C23.0602 16.729 22.9332 16.6021 22.7767 16.6021Z"
      fill='#E2E0DF'
    />
    <path
      d="M29.0581 10.7288H25.1426C24.9858 10.7288 24.8591 10.8557 24.8591 11.0122V14.9278C24.8591 15.0843 24.9858 15.2113 25.1426 15.2113H29.0581C29.215 15.2113 29.3418 15.0843 29.3418 14.9278V11.0122C29.3418 10.8557 29.2149 10.7288 29.0581 10.7288Z"
      fill='#E2E0DF'
    />
    <path
      d="M22.7767 10.7288H18.8613C18.7046 10.7288 18.5778 10.8557 18.5778 11.0122V14.9278C18.5778 15.0843 18.7046 15.2113 18.8613 15.2113H22.7767C22.9332 15.2113 23.0601 15.0843 23.0601 14.9278V11.0122C23.0602 10.8557 22.9332 10.7288 22.7767 10.7288Z"
      fill='#E2E0DF'
    />
    <path
      d="M10.3411 8.19067H6.81197C6.60329 8.19067 6.43408 8.35998 6.43408 8.56866V13.0448C6.43408 13.2535 6.60329 13.4228 6.81197 13.4228H10.3411C10.5499 13.4228 10.719 13.2536 10.719 13.0448V8.56866C10.719 8.35998 10.5498 8.19067 10.3411 8.19067Z"
      fill='#E2E0DF'
    />
    <path
      d="M10.3411 5.10866H9.14339V1.00312C9.14339 0.690046 8.88953 0.436279 8.57646 0.436279C8.2633 0.436279 8.00953 0.690046 8.00953 1.00312V5.10866H6.81197C6.60329 5.10866 6.43408 5.27787 6.43408 5.48664V6.47814C6.43408 6.68673 6.60329 6.85603 6.81197 6.85603H10.3411C10.5499 6.85603 10.719 6.68673 10.719 6.47814V5.48664C10.719 5.27787 10.5498 5.10866 10.3411 5.10866Z"
      fill='#E2E0DF'
    />
    <path
      d="M45.8905 21.3058C45.8489 21.231 45.77 21.1846 45.6842 21.1846H38.1516C38.0791 21.1846 38.0103 21.2181 37.9656 21.2753L36.9668 22.5532H0.323062C0.244491 22.5532 0.171251 22.5923 0.127195 22.6575C0.0833257 22.7226 0.0745332 22.8054 0.103998 22.8782C0.103998 22.8782 3.30363 30.7827 4.37211 33.4168C4.40831 33.506 4.49492 33.5642 4.59108 33.5642H38.296C38.3779 33.5642 38.4612 33.5359 38.5125 33.4525C40.3495 30.4718 45.8849 21.5452 45.8849 21.5452C45.9299 21.4723 45.9321 21.3807 45.8905 21.3058ZM30.8439 27.2188C30.3319 27.2188 29.9165 26.8036 29.9165 26.2913C29.9165 25.779 30.3319 25.3639 30.8439 25.3639C31.3563 25.3639 31.7715 25.7791 31.7715 26.2913C31.7715 26.8035 31.3563 27.2188 30.8439 27.2188ZM35.3395 27.2188C34.8271 27.2188 34.412 26.8036 34.412 26.2913C34.412 25.779 34.8271 25.3639 35.3395 25.3639C35.8516 25.3639 36.2667 25.7791 36.2667 26.2913C36.2667 26.8035 35.8515 27.2188 35.3395 27.2188Z"
      fill='#E2E0DF'
    />
  </svg>
