<svg width="80" height="100%" viewBox="0 0 46 34" fill="none" xmlns="http://www.w3.org/2000/svg">
<path d="M14.0054 14.7576H3.14788C2.78271 14.7576 2.48657 15.0536 2.48657 15.4189V20.3562C2.48657 20.7215 2.78271 21.0177 3.14788 21.0177H14.0054C14.3707 21.0177 14.6668 20.7215 14.6668 20.3562V15.4189C14.6668 15.0536 14.3707 14.7576 14.0054 14.7576Z" fill="#E2E0DF"/>
<path d="M35.3397 16.6021H31.4239C31.2676 16.6021 31.1406 16.729 31.1406 16.8856V20.8012C31.1406 20.9577 31.2676 21.0846 31.4239 21.0846H35.3397C35.4961 21.0846 35.6229 20.9577 35.6229 20.8012V16.8856C35.6229 16.729 35.4961 16.6021 35.3397 16.6021Z" fill="#E2E0DF"/>
<path d="M29.0581 16.6021H25.1426C24.9858 16.6021 24.8591 16.729 24.8591 16.8856V20.8012C24.8591 20.9577 24.9858 21.0846 25.1426 21.0846H29.0581C29.215 21.0846 29.3418 20.9577 29.3418 20.8012V16.8856C29.3418 16.729 29.2149 16.6021 29.0581 16.6021Z" fill="#E2E0DF"/>
<path d="M22.7769 16.6021H18.8614C18.7047 16.6021 18.5779 16.729 18.5779 16.8856V20.8012C18.5779 20.9577 18.7047 21.0846 18.8614 21.0846H22.7769C22.9334 21.0846 23.0602 20.9577 23.0602 20.8012V16.8856C23.0603 16.729 22.9334 16.6021 22.7769 16.6021Z" fill="#E2E0DF"/>
<path d="M29.0581 10.7288H25.1426C24.9858 10.7288 24.8591 10.8557 24.8591 11.0122V14.9278C24.8591 15.0843 24.9858 15.2113 25.1426 15.2113H29.0581C29.215 15.2113 29.3418 15.0843 29.3418 14.9278V11.0122C29.3418 10.8557 29.2149 10.7288 29.0581 10.7288Z" fill="#E2E0DF"/>
<path d="M22.7769 10.7288H18.8614C18.7047 10.7288 18.5779 10.8557 18.5779 11.0122V14.9278C18.5779 15.0843 18.7047 15.2113 18.8614 15.2113H22.7769C22.9334 15.2113 23.0602 15.0843 23.0602 14.9278V11.0122C23.0603 10.8557 22.9334 10.7288 22.7769 10.7288Z" fill="#E2E0DF"/>
<path d="M10.3411 8.19067H6.81197C6.60329 8.19067 6.43408 8.35998 6.43408 8.56866V13.0448C6.43408 13.2535 6.60329 13.4228 6.81197 13.4228H10.3411C10.5499 13.4228 10.719 13.2536 10.719 13.0448V8.56866C10.719 8.35998 10.5498 8.19067 10.3411 8.19067Z" fill="#E2E0DF"/>
<path d="M10.3411 5.10866H9.14339V1.00312C9.14339 0.690046 8.88953 0.436279 8.57646 0.436279C8.2633 0.436279 8.00953 0.690046 8.00953 1.00312V5.10866H6.81197C6.60329 5.10866 6.43408 5.27787 6.43408 5.48664V6.47814C6.43408 6.68673 6.60329 6.85603 6.81197 6.85603H10.3411C10.5499 6.85603 10.719 6.68673 10.719 6.47814V5.48664C10.719 5.27787 10.5498 5.10866 10.3411 5.10866Z" fill="#E2E0DF"/>
<path d="M45.8906 21.3058C45.8491 21.231 45.7701 21.1846 45.6843 21.1846H38.1518C38.0792 21.1846 38.0104 21.2181 37.9657 21.2753L36.9669 22.5532H0.323184C0.244613 22.5532 0.171373 22.5923 0.127317 22.6575C0.0834478 22.7226 0.0746553 22.8054 0.10412 22.8782C0.10412 22.8782 3.30375 30.7827 4.37223 33.4168C4.40843 33.506 4.49505 33.5642 4.5912 33.5642H38.2961C38.378 33.5642 38.4613 33.5359 38.5126 33.4525C40.3496 30.4718 45.885 21.5452 45.885 21.5452C45.9301 21.4723 45.9322 21.3807 45.8906 21.3058ZM30.8441 27.2188C30.332 27.2188 29.9166 26.8036 29.9166 26.2913C29.9166 25.779 30.332 25.3639 30.8441 25.3639C31.3564 25.3639 31.7716 25.7791 31.7716 26.2913C31.7716 26.8035 31.3565 27.2188 30.8441 27.2188ZM35.3397 27.2188C34.8273 27.2188 34.4121 26.8036 34.4121 26.2913C34.4121 25.779 34.8273 25.3639 35.3397 25.3639C35.8517 25.3639 36.2668 25.7791 36.2668 26.2913C36.2668 26.8035 35.8516 27.2188 35.3397 27.2188Z" fill="#E2E0DF"/>
</svg>
