<svg width="80" height="100%" viewBox="0 0 47 29" fill="none" xmlns="http://www.w3.org/2000/svg">
<path d="M33.9972 25.8074L37.6446 28.5828C38.0089 28.8592 38.5281 28.7882 38.8052 28.4244L41.8151 24.4654C42.0916 24.1013 42.0212 23.5821 41.6577 23.3048L40.0321 22.0689C40.0188 22.0581 40.0047 22.0499 39.9923 22.0382L38.0103 20.5311C37.9078 20.4531 37.7886 20.4001 37.6621 20.3761L33.0863 19.5132L32.3925 20.4251L31.6987 21.3369L33.7562 25.519C33.8135 25.6321 33.896 25.7308 33.9972 25.8074Z" fill="#E2E0DF"/>
<path d="M16.982 11.8267C14.7736 12.0847 12.5479 12.1601 10.3271 12.0521C14.0409 14.4956 18.3254 15.9332 22.7614 16.2242L16.982 11.8267Z" fill="#E2E0DF"/>
<path d="M30.573 20.0793L31.0745 19.4161L31.5719 18.7529L29.1174 16.8862C29.0967 16.8721 29.0784 16.858 29.0594 16.8423L15.0808 6.21517C14.8485 6.00505 14.5177 5.94385 14.2257 6.05683C13.9336 6.16981 13.7301 6.43782 13.6997 6.74946C13.6693 7.06119 13.8172 7.3634 14.0819 7.53067L30.573 20.0793Z" fill="#E2E0DF"/>
<path d="M31.3558 24.3919L30.0726 21.7824L28.6633 20.7048C27.0154 21.0469 25.337 21.2202 23.654 21.2221C21.6384 21.2184 19.6299 20.9828 17.6682 20.52C17.234 20.4059 16.9695 19.9671 17.0714 19.53C17.1733 19.0928 17.6047 18.8163 18.0445 18.906C20.9312 19.5921 23.9201 19.7369 26.8595 19.333L24.9189 17.8575C24.4845 17.884 24.051 17.9063 23.6241 17.9063C16.6443 17.9063 10.719 14.5806 6.87021 11.6702C5.90121 10.9415 5.11116 10.2609 4.60135 9.80836C4.42669 9.64758 4.19044 9.57133 3.95477 9.5995C3.71541 9.62991 3.50112 9.76299 3.36784 9.96427C1.42975 12.8274 -1.30578 18.4643 2.07555 24.0987C5.22656 29.3432 15.3522 29.4328 31.3558 24.3919ZM3.7328 12.5703C3.87055 12.308 4.13769 12.1392 4.43368 12.1273C4.72968 12.1155 5.00945 12.2625 5.16769 12.5128C5.32594 12.7631 5.33857 13.0789 5.20092 13.3412C3.98566 15.6623 2.95032 19.1091 4.91911 22.39C5.15468 22.7826 5.02732 23.2918 4.63477 23.5274C4.24222 23.763 3.733 23.6356 3.49743 23.243C1.1324 19.3022 2.31948 15.2644 3.7328 12.5703Z" fill="#E2E0DF"/>
<path d="M42.2879 2.5998C42.4458 1.96818 42.3796 1.3013 42.1006 0.713105C41.8548 0.6861 41.6065 0.693677 41.3628 0.735448C40.1398 0.972378 38.9583 1.38795 37.8563 1.96896C36.3431 2.73289 34.8879 3.60707 33.5027 4.58433C32.983 4.93831 32.4715 5.30133 31.9609 5.66193C30.6887 6.59595 29.3686 7.46285 28.0059 8.25903C26.5055 9.10446 24.9339 9.81671 23.3091 10.3878L29.7451 15.2786C38.0171 12.6483 41.783 6.29277 42.2879 2.5998Z" fill="#E2E0DF"/>
<path d="M31.333 16.4916L32.8831 17.6712C35.8067 16.515 38.4247 14.7011 40.5343 12.3701C40.7306 12.148 41.0303 12.0474 41.3208 12.1062C41.6113 12.1651 41.8483 12.3745 41.9425 12.6554C42.0367 12.9363 41.974 13.2463 41.7778 13.4684C40.0079 15.4481 37.8847 17.0808 35.5167 18.2829L37.9721 18.7463C38.3518 18.8184 38.7096 18.9776 39.0175 19.2113L40.5626 20.386C41.4265 19.7806 42.2416 19.1085 43.0006 18.3758C44.6328 16.7743 46.633 14.1714 46.8967 10.8705C47.0098 9.22306 46.7338 7.57203 46.091 6.05097C45.5527 4.7074 44.8442 3.43843 43.983 2.27515C43.9714 2.4534 43.9556 2.63409 43.9299 2.8239C43.3908 6.76808 39.5876 13.4229 31.333 16.4916Z" fill="#E2E0DF"/>
</svg>
