<svg width="80" height="100%" viewBox="0 0 42 25" fill="none" xmlns="http://www.w3.org/2000/svg">
<path d="M38.7052 1.54887C38.7052 1.39971 38.5843 1.27881 38.4347 1.27881H36.9394C36.7903 1.27881 36.6689 1.39971 36.6689 1.54887V7.00491L38.7052 6.39666V1.54887Z" fill="#E2E0DF"/>
<path d="M8.1607 13.344C8.20475 13.4337 8.27413 13.5209 8.36761 13.6036C8.57327 13.786 8.86037 13.8866 9.17613 13.8866C9.19649 13.8866 9.21685 13.8861 9.23679 13.8853C11.9108 13.7731 14.4215 13.6202 16.7096 13.4507V9.66573C16.7096 9.49788 16.5733 9.3616 16.4054 9.3616H13.4314V6.90406C13.4314 6.7362 13.2956 6.60034 13.1277 6.60034H7.18018C7.01233 6.60034 6.87646 6.7362 6.87646 6.90406V12.2974C7.42946 12.4453 7.90685 12.8225 8.1607 13.344ZM10.6062 8.28593C10.6062 8.20741 10.6698 8.14342 10.7487 8.14342H11.8975C11.976 8.14342 12.04 8.20741 12.04 8.28593V9.43514C12.04 9.51325 11.976 9.57724 11.8975 9.57724H10.7487C10.6698 9.57724 10.6062 9.51325 10.6062 9.43514V8.28593ZM8.29324 8.28593C8.29324 8.20741 8.35681 8.14342 8.43534 8.14342H9.58454C9.66307 8.14342 9.72664 8.20741 9.72664 8.28593V9.43514C9.72664 9.51325 9.66307 9.57724 9.58454 9.57724H8.43534C8.35681 9.57724 8.29324 9.51325 8.29324 9.43514V8.28593Z" fill="#E2E0DF"/>
<path d="M4.62094 0.351826C4.61596 0.186467 4.48051 0.0551758 4.31515 0.0551758H2.64369C2.47833 0.0551758 2.34288 0.186467 2.3379 0.351826L2.2627 3.00839H4.69573L4.62094 0.351826Z" fill="#E2E0DF"/>
<path d="M4.75138 4.94897H2.20866L2.00342 12.2269H4.95705L4.75138 4.94897Z" fill="#E2E0DF"/>
<path d="M0.506128 19.0459C1.34539 22.243 4.8167 24.8368 8.12182 24.8368H28.1237C28.4989 24.8563 28.8629 24.8659 29.2135 24.8659C36.0564 24.8659 38.344 21.2192 40.0201 16.4126C40.6192 14.6942 41.1444 12.7589 41.488 10.6561C41.4892 10.6557 41.49 10.6553 41.4909 10.6549C41.5279 10.4285 41.5623 10.1995 41.5947 9.96894C41.6026 9.91451 41.6097 9.85883 41.6172 9.80399C41.6404 9.63198 41.6629 9.45873 41.6837 9.28464C41.6924 9.21152 41.7007 9.1384 41.709 9.06486C41.7277 8.8995 41.7447 8.73248 41.7609 8.56545C41.7676 8.49565 41.7751 8.42627 41.7809 8.35605C41.8021 8.12256 41.8212 7.88823 41.837 7.6514C41.839 7.61526 41.8365 7.58036 41.8307 7.5467C41.8291 7.53549 41.8253 7.52551 41.8228 7.51471C41.8174 7.49228 41.8112 7.47067 41.8025 7.45031C41.7979 7.43868 41.7917 7.42788 41.7863 7.41666C41.7767 7.39879 41.7663 7.38093 41.7547 7.36431C41.7472 7.35434 41.7393 7.34437 41.7314 7.33481C41.7181 7.31902 41.704 7.3049 41.6886 7.2916C41.6799 7.28329 41.6712 7.27498 41.6612 7.2675C41.6438 7.25421 41.6251 7.24299 41.6055 7.2326C41.5968 7.22762 41.5885 7.22139 41.579 7.21723C41.5499 7.20352 41.5191 7.19272 41.4871 7.18607C41.4846 7.18565 41.4821 7.18565 41.4801 7.18524C41.4531 7.17984 41.4252 7.17651 41.397 7.17651C41.3949 7.17651 41.392 7.17734 41.3895 7.17776C41.3504 7.17818 41.3101 7.18316 41.2698 7.19521L38.7047 7.96135L36.6688 8.56961L31.9839 9.96894C31.9237 9.98722 31.8655 10.0113 31.8111 10.0404C31.7562 10.0699 31.7047 10.1048 31.6574 10.1443C31.6565 10.1451 31.6557 10.1459 31.6549 10.1468C31.5614 10.2253 31.4829 10.3221 31.4264 10.4334L29.8002 13.6164C29.8002 13.6164 24.5992 14.39 16.7089 14.9696C14.4371 15.1366 11.9426 15.2875 9.28391 15.3992C9.24777 15.4009 9.21162 15.4013 9.17547 15.4013C8.60461 15.4013 8.04122 15.2118 7.61328 14.8321C7.37521 14.6214 7.22896 14.4046 7.13922 14.2201C7.07773 14.0938 6.98549 13.9899 6.87581 13.9102C6.72831 13.803 6.548 13.7415 6.35937 13.7415H0.852636C0.482446 13.7415 0.182887 14.0414 0.182887 14.4112V16.0066C0.151726 16.585 0.157127 17.7155 0.506128 19.0459ZM31.3333 18.0275C30.8015 18.0275 30.3706 17.5967 30.3706 17.0649C30.3706 16.5331 30.8015 16.1022 31.3333 16.1022C31.8651 16.1022 32.2959 16.5331 32.2959 17.0649C32.2959 17.5967 31.8651 18.0275 31.3333 18.0275ZM35.1332 18.0275C34.6018 18.0275 34.1706 17.5967 34.1706 17.0649C34.1706 16.5331 34.6018 16.1022 35.1332 16.1022C35.6651 16.1022 36.0963 16.5331 36.0963 17.0649C36.0963 17.5967 35.6651 18.0275 35.1332 18.0275Z" fill="#E2E0DF"/>
</svg>

