<svg width="80" height="100%"  viewBox="0 0 44 26" fill="none" xmlns="http://www.w3.org/2000/svg">
<path d="M25.632 15.8647H0.041748V17.7745H23.2449L25.632 15.8647Z" fill="#E2E0DF"/>
<path d="M27.7328 4.40625H14.3648L13.4099 6.31597H29.8049L27.7328 4.40625Z" fill="#E2E0DF"/>
<path d="M31.8673 8.22583H0.041748V10.1356H33.9393L31.8673 8.22583Z" fill="#E2E0DF"/>
<path d="M36.0018 12.0452H0.041748V13.9549H38.0739L36.0018 12.0452Z" fill="#E2E0DF"/>
<path d="M1.95144 3.45147V6.31605H7.68061V3.45147C7.93385 3.45147 8.17673 3.35087 8.3558 3.1718C8.53487 2.99273 8.63547 2.74985 8.63547 2.49661C8.63547 2.24336 8.53487 2.00049 8.3558 1.82142C8.17673 1.64235 7.93385 1.54175 7.68061 1.54175H1.95144C1.6982 1.54175 1.45533 1.64235 1.27625 1.82142C1.09718 2.00049 0.996582 2.24336 0.996582 2.49661C0.996582 2.74985 1.09718 2.99273 1.27625 3.1718C1.45533 3.35087 1.6982 3.45147 1.95144 3.45147V3.45147Z" fill="#E2E0DF"/>
<path d="M21.0487 0.586914H17.2292V2.49664H22.9584L21.0487 0.586914Z" fill="#E2E0DF"/>
<path d="M43.0105 23.5036H40.1459L43.9654 15.8647H28.6876L23.9133 19.6842H0.041748V25.4134H43.0105C43.2637 25.4134 43.5066 25.3128 43.6857 25.1337C43.8648 24.9546 43.9654 24.7117 43.9654 24.4585C43.9654 24.2053 43.8648 23.9624 43.6857 23.7833C43.5066 23.6042 43.2637 23.5036 43.0105 23.5036Z" fill="#E2E0DF"/>
</svg>

