<svg width="80" height="100%" viewBox="0 0 43 35" fill="none" xmlns="http://www.w3.org/2000/svg">
<path d="M14.842 16.2009H19.8551V19.0655H14.842V16.2009Z" fill="#E2E0DF"/>
<path d="M22.7197 7.60718H29.8812V9.03947H22.7197V7.60718Z" fill="#E2E0DF"/>
<path d="M34.894 10.4719H14.842C14.4621 10.4719 14.0978 10.6228 13.8292 10.8914C13.5606 11.16 13.4097 11.5243 13.4097 11.9042H34.894V10.4719Z" fill="#E2E0DF"/>
<path d="M29.8811 23.3625H35.6103V24.7948H29.8811V23.3625Z" fill="#E2E0DF"/>
<path d="M24.1519 16.2009H33.4618V19.0655H24.1519V16.2009Z" fill="#E2E0DF"/>
<path d="M28.4489 24.7948V23.3625H27.0166V24.0787C27.0166 24.2686 27.0921 24.4508 27.2264 24.5851C27.3607 24.7194 27.5428 24.7948 27.7327 24.7948H28.4489Z" fill="#E2E0DF"/>
<path d="M22.7196 19.7817V15.4849C22.7196 15.2949 22.7951 15.1128 22.9294 14.9785C23.0637 14.8442 23.2459 14.7687 23.4358 14.7687H33.4618V13.3364H14.842V14.7687H20.5712C20.7611 14.7687 20.9433 14.8442 21.0776 14.9785C21.2119 15.1128 21.2874 15.2949 21.2874 15.4849V19.7817C21.2874 19.9717 21.2119 20.1538 21.0776 20.2881C20.9433 20.4224 20.7611 20.4979 20.5712 20.4979H14.842V24.7948H20.9909L23.6456 22.14C23.7799 22.0057 23.962 21.9302 24.1519 21.9302H33.4618V20.4979H23.4358C23.2459 20.4979 23.0637 20.4224 22.9294 20.2881C22.7951 20.1538 22.7196 19.9717 22.7196 19.7817Z" fill="#E2E0DF"/>
<path d="M38.6961 31.9563H4.54243L4.0712 32.8987C4.00778 33.0258 3.97785 33.1669 3.98424 33.3087C3.99064 33.4505 4.03315 33.5884 4.10775 33.7092C4.18235 33.8299 4.28656 33.9297 4.41051 33.9989C4.53445 34.0681 4.67403 34.1046 4.816 34.1047H34.8941C35.6572 34.0943 36.4054 33.892 37.0698 33.5166C37.7342 33.1412 38.2935 32.6046 38.6961 31.9563Z" fill="#E2E0DF"/>
<path d="M42.0556 24.643V23.3625H39.9071V24.0787C39.9071 24.6485 39.6808 25.195 39.2779 25.5979C38.875 26.0008 38.3285 26.2271 37.7587 26.2271H27.7327C27.1629 26.2271 26.6164 26.0008 26.2135 25.5979C25.8106 25.195 25.5842 24.6485 25.5842 24.0787V23.3625H24.4484L21.7937 26.0173C21.6594 26.1516 21.4773 26.2271 21.2873 26.2271H1.95142V27.6594H40.715L42.0556 24.643Z" fill="#E2E0DF"/>
<path d="M40.0783 29.0916H1.95142V29.9645L4.18651 30.5238H39.4424L40.0783 29.0916Z" fill="#E2E0DF"/>
<path d="M38.4748 24.0787V23.3625H37.0425V24.7948H37.7586C37.9486 24.7948 38.1307 24.7194 38.265 24.5851C38.3993 24.4508 38.4748 24.2686 38.4748 24.0787Z" fill="#E2E0DF"/>
<path d="M18.3367 9.03953L5.7175 0.026123L5.08228 0.978598L16.5012 9.03953H18.3367Z" fill="#E2E0DF"/>
<path d="M27.0165 6.89103V4.74259H29.165V3.3103H23.4358V4.74259H25.5842V6.89103H27.0165Z" fill="#E2E0DF"/>
<path d="M11.6587 21.8099C11.7398 21.7558 11.8089 21.6858 11.8619 21.6042C11.915 21.5225 11.9508 21.4309 11.9672 21.3349C11.9836 21.2389 11.9803 21.1406 11.9574 21.0459C11.9346 20.9512 11.8926 20.8622 11.8342 20.7843C9.90777 18.2162 7.30458 10.6416 6.96441 9.63896V2.59424H5.53212V9.63896C5.19195 10.6416 2.58947 18.2155 0.662326 20.7843C0.603887 20.8622 0.561949 20.9512 0.539076 21.0459C0.516204 21.1406 0.512877 21.2389 0.5293 21.3349C0.545722 21.4309 0.581549 21.5225 0.634589 21.6042C0.687629 21.6858 0.756769 21.7558 0.837781 21.8099C2.468 22.8064 4.33766 23.343 6.24826 23.3625C8.15886 23.343 10.0285 22.8064 11.6587 21.8099ZM6.96441 13.8549C7.23869 14.5711 7.54162 15.3388 7.86245 16.1101C7.57582 16.239 7.2741 16.3314 6.96441 16.3851V13.8549ZM6.96441 17.8245C7.46866 17.7649 7.96125 17.6307 8.42606 17.4263C8.61727 17.856 8.81135 18.2857 9.00757 18.6918C8.36755 19.0087 7.67524 19.2067 6.96441 19.2761V17.8245ZM6.96441 20.717C7.90108 20.6458 8.81504 20.3936 9.65568 19.9744C9.84833 20.3325 10.0403 20.6669 10.2286 20.9691C9.20557 21.473 8.09958 21.787 6.96441 21.8958V20.717ZM5.53212 21.8951C4.39702 21.7831 3.29134 21.4677 2.26792 20.9641C2.45985 20.6583 2.65464 20.3196 2.85015 19.9543C3.69886 20.3431 4.60429 20.5935 5.53212 20.6963V21.8951ZM5.53212 19.2554C4.82867 19.1648 4.14226 18.9717 3.49468 18.6825C3.69305 18.2678 3.88999 17.8381 4.08335 17.4006C4.54795 17.5928 5.03457 17.7268 5.53212 17.7994V19.2554ZM5.53212 16.3535C5.22881 16.2916 4.93233 16.2 4.64696 16.08C4.96278 15.3187 5.26141 14.5639 5.53212 13.8549V16.3535Z" fill="#E2E0DF"/>
<path d="M42.0557 19.0657H33.4619V20.498H36.3265V22.6464H37.7588V20.498H39.1911V22.6464H40.6234V20.498H42.0557V19.0657Z" fill="#E2E0DF"/>
</svg>
