<svg width="70" height="100%" viewBox="0 0 34 34" fill="none" xmlns="http://www.w3.org/2000/svg">
<path d="M28.2641 8.15181C28.9346 7.48129 28.9346 6.40714 28.2641 5.74313C27.5936 5.07912 26.5194 5.07261 25.8554 5.74313C25.1849 6.41365 25.1849 7.4878 25.8554 8.15181C26.5129 8.82233 27.6001 8.82233 28.2641 8.15181Z" fill="#E2E0DF"/>
<path d="M5.75289 25.8459C5.08888 26.5164 5.08888 27.5906 5.75289 28.2546C6.42342 28.9186 7.49756 28.9186 8.16157 28.2546C8.8321 27.5841 8.8321 26.5099 8.16157 25.8459C7.49756 25.1819 6.41691 25.1819 5.75289 25.8459Z" fill="#E2E0DF"/>
<path d="M22.4119 11.5957C23.8441 13.0344 23.3884 15.8467 21.4615 18.4898L23.9548 20.9961C29.7486 14.4926 32.4698 6.77837 33.609 2.65757C33.9866 1.29049 32.7237 0.0275567 31.3566 0.405133C27.2293 1.53786 19.515 4.26553 13.0181 10.0464L15.5244 12.5397C18.1674 10.6127 20.9797 10.157 22.4119 11.5957ZM25.3479 5.24202C26.2918 4.29808 27.8217 4.29808 28.7591 5.24202C29.6965 6.17945 29.6965 7.70929 28.7591 8.65323C27.8087 9.60368 26.2788 9.58415 25.3479 8.65323C24.4105 7.7158 24.4105 6.17945 25.3479 5.24202Z" fill="#E2E0DF"/>
<path d="M11.6052 22.4089C9.88654 20.6838 11.1104 17.5134 12.5556 15.5214L10.0428 13.0085C4.26195 19.5055 1.5473 27.2263 0.408063 31.3405C0.0304864 32.7076 1.29342 33.9706 2.6605 33.593C6.77479 32.4603 14.4956 29.7326 20.9925 23.9583L18.4862 21.4519C16.4616 22.9362 13.3238 24.121 11.6052 22.4089V22.4089ZM8.66267 28.7561C7.73175 29.6935 6.18889 29.6935 5.25146 28.7561C4.30752 27.8122 4.30752 26.2888 5.25146 25.3449C6.18889 24.4075 7.71873 24.4075 8.66267 25.3449C9.60661 26.2823 9.60661 27.8122 8.66267 28.7561V28.7561Z" fill="#E2E0DF"/>
<path d="M33.2455 30.3771L30.3941 33.2285C29.8213 33.8014 28.8903 33.8014 28.3175 33.2285L26.4035 31.3211C25.8567 30.7742 25.4987 30.0777 25.375 29.316L24.9844 26.9399L7.06901 9.02451V9.018L4.69288 8.63392C3.93122 8.51023 3.22814 8.14567 2.68782 7.60535L0.773895 5.69793C0.20102 5.12506 0.20102 4.19414 0.773895 3.62126L3.62525 0.763397C4.19812 0.190521 5.12905 0.190521 5.70192 0.763397L7.60933 2.67732C8.15617 3.21765 8.51422 3.92072 8.63791 4.68238L9.0285 7.05851H9.02199L26.9439 24.9804L29.32 25.3645C30.0817 25.4882 30.7847 25.8462 31.3251 26.393L33.239 28.3005C33.8184 28.8798 33.8184 29.8108 33.2455 30.3771V30.3771Z" fill="#E2E0DF"/>
</svg>
