<svg width="80"
    height="100%" viewBox="0 0 48 29" fill="none" xmlns="http://www.w3.org/2000/svg">
<path d="M37.4383 10.0521C37.4371 9.65531 37.279 9.27512 36.9985 8.99455C36.7179 8.71399 36.3377 8.55585 35.9409 8.55469H9.70654C9.33971 8.55516 8.98078 8.66134 8.67273 8.86051C8.36467 9.05968 8.12055 9.34341 7.96956 9.67773L7.13851 11.5495H10.4852C10.6838 11.5495 10.8742 11.6284 11.0146 11.7688C11.155 11.9092 11.2339 12.0996 11.2339 12.2982C11.2339 12.4967 11.155 12.6872 11.0146 12.8276C10.8742 12.968 10.6838 13.0469 10.4852 13.0469H6.47217L5.14697 16.0417H37.4383V10.0521ZM14.9774 13.0469H13.48C13.2814 13.0469 13.091 12.968 12.9506 12.8276C12.8102 12.6872 12.7313 12.4967 12.7313 12.2982C12.7313 12.0996 12.8102 11.9092 12.9506 11.7688C13.091 11.6284 13.2814 11.5495 13.48 11.5495H14.9774C15.1759 11.5495 15.3664 11.6284 15.5068 11.7688C15.6472 11.9092 15.7261 12.0996 15.7261 12.2982C15.7261 12.4967 15.6472 12.6872 15.5068 12.8276C15.3664 12.968 15.1759 13.0469 14.9774 13.0469ZM19.4696 13.0469H17.9722C17.7736 13.0469 17.5832 12.968 17.4428 12.8276C17.3024 12.6872 17.2235 12.4967 17.2235 12.2982C17.2235 12.0996 17.3024 11.9092 17.4428 11.7688C17.5832 11.6284 17.7736 11.5495 17.9722 11.5495H19.4696C19.6681 11.5495 19.8586 11.6284 19.999 11.7688C20.1394 11.9092 20.2183 12.0996 20.2183 12.2982C20.2183 12.4967 20.1394 12.6872 19.999 12.8276C19.8586 12.968 19.6681 13.0469 19.4696 13.0469ZM23.9618 13.0469H22.4644C22.2658 13.0469 22.0754 12.968 21.9349 12.8276C21.7945 12.6872 21.7157 12.4967 21.7157 12.2982C21.7157 12.0996 21.7945 11.9092 21.9349 11.7688C22.0754 11.6284 22.2658 11.5495 22.4644 11.5495H23.9618C24.1603 11.5495 24.3508 11.6284 24.4912 11.7688C24.6316 11.9092 24.7105 12.0996 24.7105 12.2982C24.7105 12.4967 24.6316 12.6872 24.4912 12.8276C24.3508 12.968 24.1603 13.0469 23.9618 13.0469ZM28.4539 13.0469H26.9565C26.758 13.0469 26.5675 12.968 26.4271 12.8276C26.2867 12.6872 26.2078 12.4967 26.2078 12.2982C26.2078 12.0996 26.2867 11.9092 26.4271 11.7688C26.5675 11.6284 26.758 11.5495 26.9565 11.5495H28.4539C28.6525 11.5495 28.8429 11.6284 28.9834 11.7688C29.1238 11.9092 29.2026 12.0996 29.2026 12.2982C29.2026 12.4967 29.1238 12.6872 28.9834 12.8276C28.8429 12.968 28.6525 13.0469 28.4539 13.0469ZM33.6948 13.0469H31.4487C31.2502 13.0469 31.0597 12.968 30.9193 12.8276C30.7789 12.6872 30.7 12.4967 30.7 12.2982C30.7 12.0996 30.7789 11.9092 30.9193 11.7688C31.0597 11.6284 31.2502 11.5495 31.4487 11.5495H33.6948C33.8934 11.5495 34.0838 11.6284 34.2242 11.7688C34.3646 11.9092 34.4435 12.0996 34.4435 12.2982C34.4435 12.4967 34.3646 12.6872 34.2242 12.8276C34.0838 12.968 33.8934 13.0469 33.6948 13.0469Z" fill="#E2E0DF"/>
<path d="M42.1326 17.1274L42.9637 18.782C43.0024 18.8581 43.0612 18.9221 43.1339 18.967C43.2065 19.0119 43.2901 19.036 43.3754 19.0365H46.4226V13.7957C46.4209 13.2005 46.1837 12.6302 45.7629 12.2093C45.342 11.7885 44.7717 11.5513 44.1766 11.5496H38.9357V16.0417H40.3807C40.7449 16.0409 41.1022 16.1422 41.4118 16.3341C41.7215 16.526 41.9712 16.8008 42.1326 17.1274Z" fill="#E2E0DF"/>
<path d="M47.1714 27.2722H45.2023L47.4784 25.0261H3.09554C3.49984 25.7748 3.89665 26.5235 4.29346 27.2722H2.99821C2.79964 27.2722 2.60921 27.3511 2.4688 27.4915C2.32839 27.6319 2.24951 27.8223 2.24951 28.0209C2.24951 28.2195 2.32839 28.4099 2.4688 28.5503C2.60921 28.6907 2.79964 28.7696 2.99821 28.7696H47.1714C47.37 28.7696 47.5604 28.6907 47.7008 28.5503C47.8412 28.4099 47.9201 28.2195 47.9201 28.0209C47.9201 27.8223 47.8412 27.6319 47.7008 27.4915C47.5604 27.3511 47.37 27.2722 47.1714 27.2722Z" fill="#E2E0DF"/>
<path d="M33.7472 1.74911C33.7133 1.35794 33.5336 0.993817 33.2437 0.72894C32.9539 0.464063 32.5751 0.31778 32.1825 0.319101H30.6851C30.2924 0.31778 29.9136 0.464063 29.6238 0.72894C29.3339 0.993817 29.1542 1.35794 29.1203 1.74911L29.0454 2.56519H33.8221L33.7472 1.74911Z" fill="#E2E0DF"/>
<path d="M33.9569 4.0625H28.9106L28.6411 7.05729H34.2264L33.9569 4.0625Z" fill="#E2E0DF"/>
<path d="M25.5041 1.74911C25.4701 1.35794 25.2904 0.993817 25.0006 0.72894C24.7107 0.464063 24.3319 0.31778 23.9393 0.319101H22.4419C22.0493 0.31778 21.6705 0.464063 21.3806 0.72894C21.0908 0.993817 20.9111 1.35794 20.8771 1.74911L20.8022 2.56519H25.5789L25.5041 1.74911Z" fill="#E2E0DF"/>
<path d="M25.7137 4.0625H20.6675L20.3979 7.05729H25.9832L25.7137 4.0625Z" fill="#E2E0DF"/>
<path d="M17.2535 1.74911C17.2212 1.35862 17.043 0.994607 16.7544 0.729592C16.4658 0.464578 16.088 0.318013 15.6962 0.319098H14.1913C13.7993 0.320205 13.4219 0.467317 13.1326 0.731723C12.8432 0.996129 12.6628 1.35885 12.6265 1.74911L12.5516 2.56519H17.3283L17.2535 1.74911Z" fill="#E2E0DF"/>
<path d="M17.4631 4.0625H12.4169L12.1473 7.05729H17.7326L17.4631 4.0625Z" fill="#E2E0DF"/>
<path d="M46.4227 20.5339H43.3755C43.0111 20.535 42.6538 20.4339 42.3441 20.2419C42.0343 20.05 41.7847 19.775 41.6235 19.4482L40.8 17.8011C40.7601 17.7238 40.7001 17.6586 40.6263 17.6125C40.5525 17.5664 40.4677 17.541 40.3807 17.5391H1.35108C1.11812 17.5391 0.889155 17.5995 0.686454 17.7143C0.483753 17.8291 0.314225 17.9944 0.194371 18.1942C0.0745171 18.3939 0.00841887 18.6213 0.00250951 18.8542C-0.00339986 19.0871 0.051081 19.3175 0.16065 19.5231C0.8794 20.8558 1.59316 22.191 2.30193 23.5286H47.9201V22.0312C47.9189 21.6345 47.7608 21.2543 47.4802 20.9737C47.1997 20.6932 46.8195 20.535 46.4227 20.5339ZM7.4904 21.2826H5.99301C5.79444 21.2826 5.60401 21.2037 5.4636 21.0633C5.32319 20.9229 5.24431 20.7324 5.24431 20.5339C5.24431 20.3353 5.32319 20.1449 5.4636 20.0044C5.60401 19.864 5.79444 19.7852 5.99301 19.7852H7.4904C7.68897 19.7852 7.87941 19.864 8.01981 20.0044C8.16022 20.1449 8.2391 20.3353 8.2391 20.5339C8.2391 20.7324 8.16022 20.9229 8.01981 21.0633C7.87941 21.2037 7.68897 21.2826 7.4904 21.2826ZM11.9826 21.2826H10.4852C10.2866 21.2826 10.0962 21.2037 9.95579 21.0633C9.81538 20.9229 9.7365 20.7324 9.7365 20.5339C9.7365 20.3353 9.81538 20.1449 9.95579 20.0044C10.0962 19.864 10.2866 19.7852 10.4852 19.7852H11.9826C12.1812 19.7852 12.3716 19.864 12.512 20.0044C12.6524 20.1449 12.7313 20.3353 12.7313 20.5339C12.7313 20.7324 12.6524 20.9229 12.512 21.0633C12.3716 21.2037 12.1812 21.2826 11.9826 21.2826ZM16.4748 21.2826H14.9774C14.7788 21.2826 14.5884 21.2037 14.448 21.0633C14.3076 20.9229 14.2287 20.7324 14.2287 20.5339C14.2287 20.3353 14.3076 20.1449 14.448 20.0044C14.5884 19.864 14.7788 19.7852 14.9774 19.7852H16.4748C16.6733 19.7852 16.8638 19.864 17.0042 20.0044C17.1446 20.1449 17.2235 20.3353 17.2235 20.5339C17.2235 20.7324 17.1446 20.9229 17.0042 21.0633C16.8638 21.2037 16.6733 21.2826 16.4748 21.2826ZM26.9566 21.2826H25.4592C25.2606 21.2826 25.0702 21.2037 24.9297 21.0633C24.7893 20.9229 24.7105 20.7324 24.7105 20.5339C24.7105 20.3353 24.7893 20.1449 24.9297 20.0044C25.0702 19.864 25.2606 19.7852 25.4592 19.7852H26.9566C27.1551 19.7852 27.3456 19.864 27.486 20.0044C27.6264 20.1449 27.7053 20.3353 27.7053 20.5339C27.7053 20.7324 27.6264 20.9229 27.486 21.0633C27.3456 21.2037 27.1551 21.2826 26.9566 21.2826ZM31.4487 21.2826H29.9513C29.7528 21.2826 29.5623 21.2037 29.4219 21.0633C29.2815 20.9229 29.2026 20.7324 29.2026 20.5339C29.2026 20.3353 29.2815 20.1449 29.4219 20.0044C29.5623 19.864 29.7528 19.7852 29.9513 19.7852H31.4487C31.6473 19.7852 31.8377 19.864 31.9782 20.0044C32.1186 20.1449 32.1974 20.3353 32.1974 20.5339C32.1974 20.7324 32.1186 20.9229 31.9782 21.0633C31.8377 21.2037 31.6473 21.2826 31.4487 21.2826ZM35.9409 21.2826H34.4435C34.245 21.2826 34.0545 21.2037 33.9141 21.0633C33.7737 20.9229 33.6948 20.7324 33.6948 20.5339C33.6948 20.3353 33.7737 20.1449 33.9141 20.0044C34.0545 19.864 34.245 19.7852 34.4435 19.7852H35.9409C36.1395 19.7852 36.3299 19.864 36.4703 20.0044C36.6107 20.1449 36.6896 20.3353 36.6896 20.5339C36.6896 20.7324 36.6107 20.9229 36.4703 21.0633C36.3299 21.2037 36.1395 21.2826 35.9409 21.2826Z" fill="#E2E0DF"/>
</svg>
