<svg  width="80"
    height="100%" viewBox="0 0 50 24" fill="none" xmlns="http://www.w3.org/2000/svg">
<path d="M5.21171 14.5161V11.2869C5.21171 11.1488 5.15684 11.0163 5.05916 10.9187C4.96149 10.821 4.82901 10.7661 4.69088 10.7661C4.55274 10.7661 4.42027 10.821 4.32259 10.9187C4.22492 11.0163 4.17004 11.1488 4.17004 11.2869V14.8078C4.50124 14.6604 4.85216 14.5622 5.21171 14.5161Z" fill="#E2E0DF"/>
<path d="M3.12838 19.9067L0.977336 20.4276C0.776927 20.4692 0.596824 20.5782 0.467 20.7365C0.337177 20.8947 0.265463 21.0927 0.263794 21.2974V22.8078C0.263794 23.0454 0.358176 23.2732 0.526177 23.4412C0.694179 23.6092 0.922037 23.7036 1.15963 23.7036H4.84713C4.28722 23.2462 3.84073 22.6654 3.54256 22.0067C3.24439 21.348 3.10264 20.6293 3.12838 19.9067Z" fill="#E2E0DF"/>
<path d="M7.81592 23.7036H36.5972C37.7024 23.7037 38.7844 23.3861 39.7143 22.7887C40.6441 22.1913 41.3827 21.3391 41.842 20.3338L45.8368 11.6099L4.17009 19.8755C4.14536 20.3694 4.22137 20.8631 4.39349 21.3267C4.5656 21.7903 4.83023 22.2141 5.17127 22.5722C5.51232 22.9302 5.92264 23.2152 6.37729 23.4097C6.83194 23.6042 7.32141 23.7042 7.81592 23.7036ZM36.618 16.0474C37.1001 16.0474 37.5714 16.1903 37.9722 16.4582C38.3731 16.726 38.6855 17.1067 38.87 17.5521C39.0545 17.9975 39.1027 18.4876 39.0087 18.9604C38.9146 19.4332 38.6825 19.8675 38.3416 20.2084C38.0007 20.5493 37.5664 20.7815 37.0935 20.8755C36.6207 20.9696 36.1306 20.9213 35.6852 20.7368C35.2398 20.5523 34.8591 20.2399 34.5913 19.8391C34.3235 19.4382 34.1805 18.967 34.1805 18.4849C34.1818 17.8433 34.4355 17.228 34.8867 16.7719C35.3379 16.3158 35.9504 16.0556 36.592 16.0474H36.618ZM30.7326 16.0474C31.2149 16.0463 31.6867 16.1884 32.0882 16.4556C32.4897 16.7228 32.803 17.1032 32.9883 17.5485C33.1735 17.9938 33.2226 18.484 33.1291 18.9572C33.0356 19.4304 32.8039 19.8652 32.4632 20.2066C32.1225 20.548 31.6882 20.7807 31.2152 20.8751C30.7423 20.9696 30.2519 20.9216 29.8062 20.7373C29.3605 20.553 28.9795 20.2406 28.7115 19.8396C28.4434 19.4386 28.3003 18.9672 28.3003 18.4849C28.3017 17.8397 28.5582 17.2213 29.0139 16.7646C29.4696 16.308 30.0874 16.0501 30.7326 16.0474Z" fill="#E2E0DF"/>
<path d="M4.83676 15.6464C4.64497 15.6934 4.47472 15.8039 4.35368 15.9599C4.23265 16.1159 4.16795 16.3083 4.1701 16.5058V18.8131L46.3576 10.4381C48.2743 6.23494 47.9722 6.89119 48.217 6.35474L4.83676 15.6464Z" fill="#E2E0DF"/>
<path d="M49.7325 2.25562C49.7183 2.18852 49.6909 2.12489 49.6521 2.06838C49.6132 2.01187 49.5635 1.96359 49.5059 1.92633C49.4483 1.88907 49.384 1.86355 49.3165 1.85123C49.249 1.83892 49.1798 1.84006 49.1127 1.85458L27.5242 6.48479L28.3158 7.37541L31.1544 6.79208V8.97437L32.196 8.75562V6.56812L34.4617 6.08375V8.26604L35.5033 8.04208V5.83896L37.7742 5.34937V7.53166L38.8158 7.30771V5.12541L41.0815 4.64104V6.82333L42.1231 6.59937V4.41708L44.3888 3.93271V6.115L45.4304 5.89104V3.70875L47.1804 3.33375V5.51604L48.2221 5.29208V3.115L49.3315 2.87541C49.3986 2.86119 49.4622 2.83386 49.5187 2.79498C49.5752 2.75609 49.6235 2.70643 49.6608 2.64884C49.698 2.59125 49.7235 2.52687 49.7358 2.45939C49.7482 2.39191 49.747 2.32266 49.7325 2.25562Z" fill="#E2E0DF"/>
<path d="M8.01379 13.912L28.7794 9.4589L27.17 7.65161H9.46171L8.01379 13.912Z" fill="#E2E0DF"/>
<path d="M9.95129 5.53174L9.70129 6.60986H26.2482L23.4409 3.45361H12.5607C11.9547 3.45358 11.3667 3.6591 10.8927 4.03658C10.4188 4.41406 10.0869 4.94117 9.95129 5.53174Z" fill="#E2E0DF"/>
<path d="M10.0607 3.3807C10.7432 2.75597 11.6354 2.41025 12.5607 2.41195H22.5086L21.6023 1.39632C21.2948 1.05099 20.9177 0.77457 20.4958 0.585179C20.074 0.395788 19.6168 0.297706 19.1544 0.297363H6.92004L7.56067 1.5109C7.81294 1.98823 8.16807 2.40357 8.60041 2.72692C9.03275 3.05028 9.53151 3.27358 10.0607 3.3807Z" fill="#E2E0DF"/>
<path d="M36.5919 19.8808C37.3628 19.8808 37.9877 19.2558 37.9877 18.4849C37.9877 17.714 37.3628 17.0891 36.5919 17.0891C35.821 17.0891 35.196 17.714 35.196 18.4849C35.196 19.2558 35.821 19.8808 36.5919 19.8808Z" fill="#E2E0DF"/>
<path d="M30.7481 19.8808C31.519 19.8808 32.144 19.2558 32.144 18.4849C32.144 17.714 31.519 17.0891 30.7481 17.0891C29.9772 17.0891 29.3523 17.714 29.3523 18.4849C29.3523 19.2558 29.9772 19.8808 30.7481 19.8808Z" fill="#E2E0DF"/>
</svg>
