<svg width="80"
    height="100%" viewBox="0 0 50 22" fill="none" xmlns="http://www.w3.org/2000/svg">
<path d="M2.77686 11.7817C1.06201 14.5942 0.394043 15.356 0.394043 16.9419C0.394043 19.2036 1.85107 20.2505 3.56982 21.938H35.3237C36.6167 21.938 38.5894 20.7661 40.6558 19.2036H5.86279C5.75919 19.2036 5.65984 19.1625 5.58658 19.0892C5.51332 19.0159 5.47217 18.9166 5.47217 18.813C5.47217 18.7094 5.51332 18.61 5.58658 18.5368C5.65984 18.4635 5.75919 18.4224 5.86279 18.4224H41.6558C44.4498 16.1049 47.1067 13.6267 49.6128 11.0005L2.77686 11.7817ZM16.4097 14.5161H8.98779C8.88419 14.5161 8.78483 14.475 8.71158 14.4017C8.63832 14.3284 8.59717 14.2291 8.59717 14.1255C8.59717 14.0219 8.63832 13.9225 8.71158 13.8493C8.78483 13.776 8.88419 13.7349 8.98779 13.7349H16.4097C16.5133 13.7349 16.6126 13.776 16.6859 13.8493C16.7591 13.9225 16.8003 14.0219 16.8003 14.1255C16.8003 14.2291 16.7591 14.3284 16.6859 14.4017C16.6126 14.475 16.5133 14.5161 16.4097 14.5161ZM25.7847 14.5161H24.2222C24.1186 14.5161 24.0192 14.475 23.946 14.4017C23.8727 14.3284 23.8315 14.2291 23.8315 14.1255C23.8315 14.0219 23.8727 13.9225 23.946 13.8493C24.0192 13.776 24.1186 13.7349 24.2222 13.7349H25.7847C25.8883 13.7349 25.9876 13.776 26.0609 13.8493C26.1341 13.9225 26.1753 14.0219 26.1753 14.1255C26.1753 14.2291 26.1341 14.3284 26.0609 14.4017C25.9876 14.475 25.8883 14.5161 25.7847 14.5161ZM29.6909 14.5161H28.1284C28.0248 14.5161 27.9255 14.475 27.8522 14.4017C27.7789 14.3284 27.7378 14.2291 27.7378 14.1255C27.7378 14.0219 27.7789 13.9225 27.8522 13.8493C27.9255 13.776 28.0248 13.7349 28.1284 13.7349H29.6909C29.7945 13.7349 29.8939 13.776 29.9671 13.8493C30.0404 13.9225 30.0815 14.0219 30.0815 14.1255C30.0815 14.2291 30.0404 14.3284 29.9671 14.4017C29.8939 14.475 29.7945 14.5161 29.6909 14.5161ZM36.7222 14.5161H35.1597C35.0561 14.5161 34.9567 14.475 34.8834 14.4017C34.8102 14.3284 34.769 14.2291 34.769 14.1255C34.769 14.0219 34.8102 13.9225 34.8834 13.8493C34.9567 13.776 35.0561 13.7349 35.1597 13.7349H36.7222C36.8258 13.7349 36.9251 13.776 36.9984 13.8493C37.0716 13.9225 37.1128 14.0219 37.1128 14.1255C37.1128 14.2291 37.0716 14.3284 36.9984 14.4017C36.9251 14.475 36.8258 14.5161 36.7222 14.5161ZM41.019 14.5161H39.4565C39.3529 14.5161 39.2536 14.475 39.1803 14.4017C39.1071 14.3284 39.0659 14.2291 39.0659 14.1255C39.0659 14.0219 39.1071 13.9225 39.1803 13.8493C39.2536 13.776 39.3529 13.7349 39.4565 13.7349H41.019C41.1226 13.7349 41.222 13.776 41.2953 13.8493C41.3685 13.9225 41.4097 14.0219 41.4097 14.1255C41.4097 14.2291 41.3685 14.3284 41.2953 14.4017C41.222 14.475 41.1226 14.5161 41.019 14.5161Z" fill="#E2E0DF"/>
<path d="M19.5581 10.7192L21.3081 10.6919L22.3042 8.49658C22.4526 8.16455 21.605 8.26611 34.7417 8.26611L30.5112 6.31299H3.51904V7.09424C6.66357 7.44189 17.0464 8.8208 19.5581 10.7192Z" fill="#E2E0DF"/>
<path d="M22.1675 10.6763L39.3472 10.3911L36.437 9.04736H22.9097L22.1675 10.6763Z" fill="#E2E0DF"/>
<path d="M8.55811 8.5708L8.10498 10.9146H8.88623L9.31592 8.70752L8.55811 8.5708Z" fill="#E2E0DF"/>
<path d="M28.687 5.53174L24.2105 2.40674H17.8394L15.4956 3.18799H10.6831L6.77686 0.0629883H3.56982L7.51514 5.53174H28.687Z" fill="#E2E0DF"/>
</svg>
