<svg width="32" height="32" viewBox="0 0 32 32" fill="none" xmlns="http://www.w3.org/2000/svg">
<g opacity="0.6">
<path fill-rule="evenodd" clip-rule="evenodd" d="M29.3333 16C29.3333 23.3638 23.3638 29.3333 16 29.3333C8.63616 29.3333 2.66663 23.3638 2.66663 16C2.66663 8.63616 8.63616 2.66663 16 2.66663C23.3638 2.66663 29.3333 8.63616 29.3333 16ZM13.435 12.501C13.5023 12.662 13.601 12.8081 13.7253 12.9306L16.828 16.0066L13.7373 19.0693C13.613 19.1918 13.5143 19.3379 13.447 19.4989C13.3796 19.6599 13.3449 19.8327 13.3449 20.0073C13.3449 20.1818 13.3796 20.3546 13.447 20.5157C13.5143 20.6767 13.613 20.8227 13.7373 20.9453C13.9894 21.1944 14.3295 21.3342 14.684 21.3342C15.0384 21.3342 15.3785 21.1944 15.6306 20.9453L19.5706 17.0386C19.7069 16.9035 19.815 16.7427 19.8888 16.5656C19.9627 16.3885 20.0007 16.1985 20.0007 16.0066C20.0007 15.8147 19.9627 15.6247 19.8888 15.4476C19.815 15.2705 19.7069 15.1097 19.5706 14.9746L15.6173 11.0546C15.3653 10.8059 15.0254 10.6664 14.6713 10.6664C14.3172 10.6664 13.9773 10.8059 13.7253 11.0546C13.601 11.1772 13.5023 11.3232 13.435 11.4842C13.3676 11.6453 13.3329 11.8181 13.3329 11.9926C13.3329 12.1672 13.3676 12.34 13.435 12.501Z" fill="#333333"/>
</g>
</svg>
