<svg width="32" height="32" viewBox="0 0 32 32" fill="none" xmlns="http://www.w3.org/2000/svg">
<g opacity="0.6">
<path fill-rule="evenodd" clip-rule="evenodd" d="M29.3333 16C29.3333 23.3638 23.3638 29.3333 16 29.3333C8.63616 29.3333 2.66663 23.3638 2.66663 16C2.66663 8.63616 8.63616 2.66663 16 2.66663C23.3638 2.66663 29.3333 8.63616 29.3333 16ZM18.565 12.501C18.4976 12.662 18.3989 12.8081 18.2746 12.9306L15.172 16.0066L18.2626 19.0693C18.3869 19.1918 18.4856 19.3379 18.553 19.4989C18.6203 19.6599 18.655 19.8327 18.655 20.0073C18.655 20.1818 18.6203 20.3546 18.553 20.5157C18.4856 20.6767 18.3869 20.8227 18.2626 20.9453C18.0105 21.1944 17.6704 21.3342 17.316 21.3342C16.9615 21.3342 16.6214 21.1944 16.3693 20.9453L12.4293 17.0386C12.293 16.9035 12.1849 16.7427 12.1111 16.5656C12.0373 16.3885 11.9993 16.1985 11.9993 16.0066C11.9993 15.8147 12.0373 15.6247 12.1111 15.4476C12.1849 15.2705 12.293 15.1097 12.4293 14.9746L16.3826 11.0546C16.6347 10.8059 16.9745 10.6664 17.3286 10.6664C17.6827 10.6664 18.0226 10.8059 18.2746 11.0546C18.3989 11.1772 18.4976 11.3232 18.565 11.4842C18.6323 11.6453 18.667 11.8181 18.667 11.9926C18.667 12.1672 18.6323 12.34 18.565 12.501Z" fill="#333333"/>
</g>
</svg>
