<svg width="16" height="18" viewBox="0 0 16 18" fill="none" xmlns="http://www.w3.org/2000/svg">
<mask id="mask0_10130_3578" style="mask-type:alpha" maskUnits="userSpaceOnUse" x="1" y="3" width="14" height="14">
<path fill-rule="evenodd" clip-rule="evenodd" d="M8.00004 3.33337C4.32004 3.33337 1.33337 6.32004 1.33337 10C1.33337 13.68 4.32004 16.6667 8.00004 16.6667C11.68 16.6667 14.6667 13.68 14.6667 10C14.6667 6.32004 11.68 3.33337 8.00004 3.33337ZM8.00004 10.6668C7.63337 10.6668 7.33337 10.3668 7.33337 10.0001V7.33343C7.33337 6.96676 7.63337 6.66676 8.00004 6.66676C8.36671 6.66676 8.66671 6.96676 8.66671 7.33343V10.0001C8.66671 10.3668 8.36671 10.6668 8.00004 10.6668ZM7.33337 12V13.3333H8.66671V12H7.33337Z" fill="black"/>
</mask>
<g mask="url(#mask0_10130_3578)">
<rect y="2" width="16" height="16" fill="#3B9FF3"/>
</g>
</svg>
