<svg width="20" height="20" viewBox="0 0 20 20" fill="none" xmlns="http://www.w3.org/2000/svg">
<path d="M11.4227 1.91116C11.2668 1.75449 11.0552 1.66699 10.8335 1.66699H5.00016C4.081 1.66699 3.3335 2.41449 3.3335 3.33366V16.667C3.3335 17.5862 4.081 18.3337 5.00016 18.3337H15.0002C15.9193 18.3337 16.6668 17.5862 16.6668 16.667V7.50033C16.6668 7.27866 16.5793 7.06699 16.4227 6.91116L11.4227 1.91116ZM5.00016 3.33366H10.4885L15.0002 7.84533L15.0018 15.4903L12.8618 13.3503C13.1535 12.8545 13.3335 12.2828 13.3335 11.667C13.3335 9.82866 11.8385 8.33366 10.0002 8.33366C8.16183 8.33366 6.66683 9.82866 6.66683 11.667C6.66683 13.5053 8.16183 15.0003 10.0002 15.0003C10.616 15.0003 11.1877 14.8203 11.6835 14.5287L13.8218 16.667H5.00016V3.33366ZM10.0002 13.3337C9.081 13.3337 8.3335 12.5862 8.3335 11.667C8.3335 10.7478 9.081 10.0003 10.0002 10.0003C10.9193 10.0003 11.6668 10.7478 11.6668 11.667C11.6668 12.5862 10.9193 13.3337 10.0002 13.3337Z" fill="#615E69"/>
</svg>
