<svg width="15" height="16" viewBox="0 0 15 16" fill="none" xmlns="http://www.w3.org/2000/svg">
<path d="M4.375 7.125H4.75V6.75V4.875C4.75 3.35898 5.98398 2.125 7.5 2.125C9.01602 2.125 10.25 3.35898 10.25 4.875V6.75V7.125H10.625H11.25C11.7323 7.125 12.125 7.51773 12.125 8V13C12.125 13.4823 11.7323 13.875 11.25 13.875H3.75C3.26773 13.875 2.875 13.4823 2.875 13V8C2.875 7.51773 3.26773 7.125 3.75 7.125H4.375ZM11.625 7.99991L11.6249 7.625H11.25H3.75H3.375V8V13V13.375H3.75H11.2513H11.6263L11.6263 12.9999L11.625 7.99991ZM5.25 6.75V7.125H5.625H9.375H9.75V6.75V4.875C9.75 3.63414 8.74086 2.625 7.5 2.625C6.25914 2.625 5.25 3.63414 5.25 4.875V6.75Z" stroke="#615E69" stroke-width="0.75"/>
</svg>
