<svg width="20" height="20" viewBox="0 0 20 20" fill="none" xmlns="http://www.w3.org/2000/svg">
<path d="M16.5774 0.808203C15.671 0.264375 14.7047 0 13.6234 0C12.3295 0 11.0595 0.380977 9.83129 0.749414C8.63145 1.10934 7.49813 1.4493 6.37637 1.44938C6.37622 1.44938 6.3761 1.44938 6.37594 1.44938C5.51333 1.44938 4.74442 1.23965 4.02532 0.808203C3.84435 0.699609 3.61892 0.696719 3.43517 0.800742C3.25149 0.904727 3.13794 1.09949 3.13794 1.31062V9.27531C3.13794 9.48113 3.24599 9.67184 3.42243 9.77773C4.3288 10.3216 5.29505 10.5859 6.37645 10.5859C7.67024 10.5859 8.94016 10.205 10.1682 9.83652C11.3682 9.47656 12.5015 9.13656 13.6234 9.13656C14.4863 9.13656 15.2554 9.34629 15.9745 9.77773C16.1554 9.88633 16.3809 9.88922 16.5646 9.7852C16.7483 9.68121 16.8618 9.48641 16.8618 9.27531V1.31062C16.8619 1.1048 16.7539 0.914062 16.5774 0.808203Z" fill="#3B9FF3"/>
<path d="M16.5773 0.808203C15.6709 0.264375 14.7046 0 13.6233 0C12.3885 0 11.1755 0.346992 9.99976 0.698867V9.88703C10.056 9.87019 10.1121 9.8534 10.1682 9.83656C11.3681 9.4766 12.5014 9.1366 13.6233 9.1366C14.4862 9.1366 15.2553 9.34633 15.9744 9.77777C16.1553 9.88637 16.3808 9.88926 16.5645 9.78523C16.7482 9.68125 16.8617 9.48644 16.8617 9.27535V1.31062C16.8618 1.1048 16.7538 0.914062 16.5773 0.808203Z" fill="#3B9FF3"/>
<path d="M3.72388 20C3.40032 20 3.13794 19.7377 3.13794 19.4141V0.585938C3.13794 0.262344 3.40032 0 3.72388 0C4.04751 0 4.30981 0.262344 4.30981 0.585938V19.4141C4.30981 19.7377 4.04751 20 3.72388 20Z" fill="#1E62DC"/>
</svg>
