<svg width="20" height="20" viewBox="0 0 20 20" fill="none" xmlns="http://www.w3.org/2000/svg">
<path d="M16.5775 0.808203C15.6711 0.264375 14.7048 0 13.6234 0C12.3296 0 11.0595 0.380977 9.83134 0.749414C8.63149 1.10934 7.49817 1.4493 6.37642 1.44938C6.37626 1.44938 6.37614 1.44938 6.37599 1.44938C5.62603 1.44938 4.94696 1.29062 4.30981 0.965703V0.585938C4.30981 0.262344 4.04747 0 3.72388 0C3.40028 0 3.13794 0.262344 3.13794 0.585938V1.31059V9.27527V19.4141C3.13794 19.7377 3.40028 20 3.72388 20C4.04747 20 4.30981 19.7377 4.30981 19.4141V10.213C4.95696 10.463 5.63997 10.5859 6.37645 10.5859C7.67024 10.5859 8.94016 10.205 10.1683 9.83652C11.3682 9.47656 12.5016 9.13656 13.6234 9.13656C14.4864 9.13656 15.2554 9.34629 15.9745 9.77777C16.1555 9.88637 16.3809 9.88926 16.5647 9.78523C16.7484 9.68121 16.8619 9.48645 16.8619 9.27535V1.31062C16.8619 1.1048 16.754 0.914062 16.5775 0.808203ZM9.83161 8.7141C8.63165 9.07406 7.49825 9.41406 6.37649 9.41406C5.62626 9.41406 4.94704 9.25555 4.30985 8.93062V2.24867C4.95688 2.49863 5.63977 2.62129 6.37602 2.62125C6.37614 2.62125 6.37642 2.62125 6.37657 2.62125C7.67024 2.62117 8.94009 2.24023 10.1681 1.87184C11.3681 1.51187 12.5016 1.17188 13.6234 1.17188C14.3736 1.17188 15.0529 1.33039 15.69 1.65527V8.33731C15.0429 8.0873 14.3599 7.96469 13.6234 7.96469C12.3297 7.96469 11.0597 8.34566 9.83161 8.7141Z" fill="#77757F"/>
</svg>
