<svg width="20" height="14" viewBox="0 0 20 14" fill="none" xmlns="http://www.w3.org/2000/svg">
<path d="M18.2423 3.09596H12.5559L10.6915 1.22378C9.63457 0.166784 7.9573 0.0739322 6.79016 1.00772L3.21598 3.86706C2.89996 3.39835 2.36422 3.08948 1.7577 3.08948H0.585898C0.262305 3.08944 0 3.35174 0 3.6753V13.0494C0 13.373 0.262305 13.6353 0.585898 13.6353H1.75766C2.445 13.6353 3.04113 13.2385 3.32988 12.6621C5.08305 13.3079 6.9184 13.6353 8.79238 13.6353C9.04012 13.6353 10.8838 13.6353 11.1317 13.6353C12.1009 13.6353 12.8894 12.8468 12.8894 11.8776C12.8894 11.6489 12.845 11.4305 12.7651 11.2298C13.511 11.0266 14.0611 10.3436 14.0611 9.53413C14.0611 9.30542 14.0168 9.08694 13.9369 8.88632C14.6828 8.68307 15.2329 8.00007 15.2329 7.19061C15.2329 6.98475 15.197 6.78717 15.1317 6.60342H18.2423C19.2115 6.60342 20 5.81495 20 4.84577V4.84186C20 3.87487 19.2115 3.09596 18.2423 3.09596ZM2.34352 11.8776C2.34352 12.2007 2.0807 12.4635 1.75762 12.4635H1.17176V4.2612H1.75766C2.0807 4.2612 2.34355 4.52401 2.34355 4.8471V11.8776H2.34352ZM18.8282 4.84577C18.8282 5.16882 18.5654 5.43948 18.2423 5.43948H11.1376C10.814 5.43948 10.5517 5.69397 10.5517 6.01757C10.5517 6.34112 10.814 6.60346 11.1376 6.60346H13.4496C13.4582 6.60385 13.4666 6.60475 13.4752 6.60475C13.7983 6.60475 14.0611 6.86757 14.0611 7.19065C14.0611 7.5137 13.7983 7.77655 13.4752 7.77655H11.1317C10.8082 7.77655 10.5458 8.03885 10.5458 8.36245C10.5458 8.68604 10.8081 8.94835 11.1317 8.94835H12.3035C12.6265 8.94835 12.8894 9.21116 12.8894 9.53425C12.8894 9.85733 12.6266 10.1201 12.3035 10.1201H11.1317C10.8082 10.1201 10.5458 10.3824 10.5458 10.706C10.5458 11.0296 10.8081 11.2919 11.1317 11.2919C11.4548 11.2919 11.7176 11.5548 11.7176 11.8778C11.7176 12.2009 11.4548 12.4637 11.1317 12.4637C10.8836 12.4637 9.04012 12.4637 8.79238 12.4637C6.97895 12.4637 5.20457 12.1329 3.51527 11.4801V5.12815L7.52211 1.92268C8.22234 1.36241 9.22871 1.41815 9.86293 2.05233L10.8988 3.096C8.91973 3.096 10.8832 3.09339 8.78816 3.09339C8.46461 3.09339 8.20227 3.35569 8.20227 3.67928C8.20227 4.00284 8.46457 4.25737 8.78816 4.25737C8.91668 4.25737 18.1136 4.25999 18.2423 4.25999C18.5654 4.25999 18.8282 4.52104 18.8282 4.84198V4.84577H18.8282Z" fill="#34303E"/>
</svg>
