<svg width="16" height="16" viewBox="0 0 16 16" fill="none" xmlns="http://www.w3.org/2000/svg">
<mask id="mask0_13718_40061" style="mask-type:alpha" maskUnits="userSpaceOnUse" x="1" y="1" width="14" height="14">
<path fill-rule="evenodd" clip-rule="evenodd" d="M8.00016 1.33301C4.32016 1.33301 1.3335 4.31967 1.3335 7.99967C1.3335 11.6797 4.32016 14.6663 8.00016 14.6663C11.6802 14.6663 14.6668 11.6797 14.6668 7.99967C14.6668 4.31967 11.6802 1.33301 8.00016 1.33301ZM8.00016 8.6664C7.6335 8.6664 7.3335 8.3664 7.3335 7.99973V5.33306C7.3335 4.9664 7.6335 4.6664 8.00016 4.6664C8.36683 4.6664 8.66683 4.9664 8.66683 5.33306V7.99973C8.66683 8.3664 8.36683 8.6664 8.00016 8.6664ZM7.3335 9.99962V11.333H8.66683V9.99962H7.3335Z" fill="black"/>
</mask>
<g mask="url(#mask0_13718_40061)">
<rect width="16" height="16" fill="#3B9FF3"/>
</g>
</svg>
