<svg width="4" height="12" viewBox="0 0 4 12" fill="none" xmlns="http://www.w3.org/2000/svg">
<path d="M2.00002 4.66602C1.26669 4.66602 0.666687 5.26602 0.666687 5.99935C0.666687 6.73268 1.26669 7.33268 2.00002 7.33268C2.73335 7.33268 3.33335 6.73268 3.33335 5.99935C3.33335 5.26602 2.73335 4.66602 2.00002 4.66602ZM2.00002 0.666016C1.26669 0.666016 0.666687 1.26602 0.666687 1.99935C0.666687 2.73268 1.26669 3.33268 2.00002 3.33268C2.73335 3.33268 3.33335 2.73268 3.33335 1.99935C3.33335 1.26602 2.73335 0.666016 2.00002 0.666016ZM2.00002 8.66602C1.26669 8.66602 0.666687 9.26602 0.666687 9.99935C0.666687 10.7327 1.26669 11.3327 2.00002 11.3327C2.73335 11.3327 3.33335 10.7327 3.33335 9.99935C3.33335 9.26602 2.73335 8.66602 2.00002 8.66602Z" fill="#8E8C94"/>
</svg>
