<svg width="21" height="20" viewBox="0 0 21 20" fill="none" xmlns="http://www.w3.org/2000/svg">
<path d="M10.4998 1.66663C5.90484 1.66663 2.1665 5.40496 2.1665 9.99996C2.1665 14.595 5.90484 18.3333 10.4998 18.3333C15.0948 18.3333 18.8332 14.595 18.8332 9.99996C18.8332 5.40496 15.0948 1.66663 10.4998 1.66663ZM10.4998 16.6666C6.824 16.6666 3.83317 13.6758 3.83317 9.99996C3.83317 6.32413 6.824 3.33329 10.4998 3.33329C14.1757 3.33329 17.1665 6.32413 17.1665 9.99996C17.1665 13.6758 14.1757 16.6666 10.4998 16.6666Z" fill="white"/>
<path d="M8.83225 11.3226L6.91641 9.41005L5.73975 10.5901L8.83391 13.6776L14.4222 8.08922L13.2439 6.91089L8.83225 11.3226Z" fill="white"/>
</svg>
