<svg width="20" height="20" viewBox="0 0 20 20" fill="none" xmlns="http://www.w3.org/2000/svg">
<path d="M10.8334 5.83337H9.16671V9.16671H5.83337V10.8334H9.16671V14.1667H10.8334V10.8334H14.1667V9.16671H10.8334V5.83337Z" fill="#18BA92"/>
<path d="M9.99996 1.66663C5.40496 1.66663 1.66663 5.40496 1.66663 9.99996C1.66663 14.595 5.40496 18.3333 9.99996 18.3333C14.595 18.3333 18.3333 14.595 18.3333 9.99996C18.3333 5.40496 14.595 1.66663 9.99996 1.66663ZM9.99996 16.6666C6.32413 16.6666 3.33329 13.6758 3.33329 9.99996C3.33329 6.32413 6.32413 3.33329 9.99996 3.33329C13.6758 3.33329 16.6666 6.32413 16.6666 9.99996C16.6666 13.6758 13.6758 16.6666 9.99996 16.6666Z" fill="#18BA92"/>
</svg>
