<svg width="21" height="20" viewBox="0 0 21 20" fill="none" xmlns="http://www.w3.org/2000/svg">
<path d="M11.333 5.83301H9.66634V9.16634H6.33301V10.833H9.66634V14.1663H11.333V10.833H14.6663V9.16634H11.333V5.83301Z" fill="white"/>
<path d="M10.5003 1.66699C5.90533 1.66699 2.16699 5.40533 2.16699 10.0003C2.16699 14.5953 5.90533 18.3337 10.5003 18.3337C15.0953 18.3337 18.8337 14.5953 18.8337 10.0003C18.8337 5.40533 15.0953 1.66699 10.5003 1.66699ZM10.5003 16.667C6.82449 16.667 3.83366 13.6762 3.83366 10.0003C3.83366 6.32449 6.82449 3.33366 10.5003 3.33366C14.1762 3.33366 17.167 6.32449 17.167 10.0003C17.167 13.6762 14.1762 16.667 10.5003 16.667Z" fill="white"/>
</svg>
