<svg width="16" height="18" viewBox="0 0 16 18" fill="none" xmlns="http://www.w3.org/2000/svg">
<path d="M8 0.209961L0.5 2.93762V9.00024C0.5 15.8508 7.77783 17.7142 7.85107 17.7325L8 17.7686L8.14893 17.7325C8.22217 17.7142 15.5 15.8508 15.5 9.00024V2.93762L8 0.209961ZM14.25 9.00024C14.25 14.4244 8.99426 16.192 8.00244 16.4771C7.04602 16.1938 1.75 14.3781 1.75 9.00024V3.81287L8 1.54053L14.25 3.81287V9.00024Z" fill="#18BA92"/>
<path d="M4.69189 8.55859L3.80811 9.44238L6.75 12.3843L12.1919 6.94238L11.3081 6.05859L6.75 10.6167L4.69189 8.55859Z" fill="#18BA92"/>
</svg>
