<svg width="20" height="21" viewBox="0 0 20 21" fill="none" xmlns="http://www.w3.org/2000/svg">
<rect y="0.5" width="20" height="20" rx="8" fill="#3B9FF3"/>
<path d="M10.5833 7.58325H9.41666V9.91659H7.08333V11.0833H9.41666V13.4166H10.5833V11.0833H12.9167V9.91659H10.5833V7.58325Z" fill="#F9F9F9"/>
<path d="M10 4.66675C6.7835 4.66675 4.16667 7.28358 4.16667 10.5001C4.16667 13.7166 6.7835 16.3334 10 16.3334C13.2165 16.3334 15.8333 13.7166 15.8333 10.5001C15.8333 7.28358 13.2165 4.66675 10 4.66675ZM10 15.1667C7.42692 15.1667 5.33334 13.0732 5.33334 10.5001C5.33334 7.927 7.42692 5.83341 10 5.83341C12.5731 5.83341 14.6667 7.927 14.6667 10.5001C14.6667 13.0732 12.5731 15.1667 10 15.1667Z" fill="#F9F9F9"/>
</svg>
