<svg width="15" height="16" viewBox="0 0 15 16" fill="none" xmlns="http://www.w3.org/2000/svg">
<path d="M4.875 11.0837V10.7626L4.58299 10.6291C2.78077 9.80464 1.75 8.3301 1.75 6.75C1.75 4.36761 4.22002 2.25 7.5 2.25C10.78 2.25 13.25 4.36761 13.25 6.75C13.25 9.08382 10.8829 11.1621 7.69916 11.2471L7.53993 11.2513L7.4125 11.3469L4.875 13.25V11.0837ZM5.125 11.75V12.7499L5.92498 12.15L7.45852 11H7.5C8.9765 11 10.3341 10.5503 11.3338 9.80056C12.3335 9.05089 13 7.97721 13 6.75C13 5.52279 12.3335 4.44911 11.3338 3.69944C10.3341 2.94974 8.9765 2.5 7.5 2.5C6.0235 2.5 4.66588 2.94974 3.66619 3.69944C2.66654 4.44911 2 5.52279 2 6.75C2 8.42994 3.23758 9.85598 5.04459 10.5516C5.04465 10.5516 5.04471 10.5516 5.04477 10.5516L5.125 10.5825V11.75Z" fill="#615E69" stroke="#615E69"/>
<path d="M8.93312 4.43311L7.5 5.86623L6.06687 4.43311L5.18312 5.31686L6.61625 6.74998L5.18312 8.1831L6.06687 9.06685L7.5 7.63373L8.93312 9.06685L9.81687 8.1831L8.38375 6.74998L9.81687 5.31686L8.93312 4.43311Z" fill="#615E69"/>
</svg>
