<svg width="20" height="20" viewBox="0 0 20 20" fill="none" xmlns="http://www.w3.org/2000/svg">
<path d="M7.91675 9.16699C8.6071 9.16699 9.16675 8.60735 9.16675 7.91699C9.16675 7.22664 8.6071 6.66699 7.91675 6.66699C7.22639 6.66699 6.66675 7.22664 6.66675 7.91699C6.66675 8.60735 7.22639 9.16699 7.91675 9.16699Z" fill="#6FEEFF"/>
<path d="M12.0833 9.16699C12.7736 9.16699 13.3333 8.60735 13.3333 7.91699C13.3333 7.22664 12.7736 6.66699 12.0833 6.66699C11.3929 6.66699 10.8333 7.22664 10.8333 7.91699C10.8333 8.60735 11.3929 9.16699 12.0833 9.16699Z" fill="#6FEEFF"/>
<path d="M10.0001 1.66699C5.40508 1.66699 1.66675 4.65783 1.66675 8.33366C1.66675 10.757 3.24758 12.9295 5.83341 14.112V18.3337L10.2834 14.997C14.7476 14.877 18.3334 11.9337 18.3334 8.33366C18.3334 4.65783 14.5951 1.66699 10.0001 1.66699ZM10.0001 13.3337H9.72258L7.50008 15.0003V12.9862L6.96592 12.7803C4.72592 11.9178 3.33341 10.2137 3.33341 8.33366C3.33341 5.57616 6.32425 3.33366 10.0001 3.33366C13.6759 3.33366 16.6667 5.57616 16.6667 8.33366C16.6667 11.0912 13.6759 13.3337 10.0001 13.3337Z" fill="#6FEEFF"/>
</svg>
