<svg width="20" height="21" viewBox="0 0 20 21" fill="none" xmlns="http://www.w3.org/2000/svg">
<path d="M0 2.50098C0 1.39641 0.895431 0.500977 2 0.500977H18C19.1046 0.500977 20 1.39641 20 2.50098V18.501C20 19.6055 19.1046 20.501 18 20.501H2C0.895431 20.501 0 19.6055 0 18.501V2.50098Z" fill="white"/>
<path d="M2 1.50098H18V-0.499023H2V1.50098ZM19 2.50098V18.501H21V2.50098H19ZM18 19.501H2V21.501H18V19.501ZM1 18.501V2.50098H-1V18.501H1ZM2 19.501C1.44772 19.501 1 19.0533 1 18.501H-1C-1 20.1578 0.343147 21.501 2 21.501V19.501ZM19 18.501C19 19.0533 18.5523 19.501 18 19.501V21.501C19.6569 21.501 21 20.1578 21 18.501H19ZM18 1.50098C18.5523 1.50098 19 1.94869 19 2.50098H21C21 0.844122 19.6569 -0.499023 18 -0.499023V1.50098ZM2 -0.499023C0.343146 -0.499023 -1 0.844123 -1 2.50098H1C1 1.94869 1.44772 1.50098 2 1.50098V-0.499023Z" fill="#8E8C94"/>
</svg>
