<svg width="16" height="16" viewBox="0 0 16 16" fill="none" xmlns="http://www.w3.org/2000/svg">
<path d="M8.5 3.4999C8.5 3.8865 8.8134 4.1999 9.2 4.1999C9.5866 4.1999 9.9 3.8865 9.9 3.4999H8.5ZM4.05714 10.4999C4.44374 10.4999 4.75714 10.1865 4.75714 9.7999C4.75714 9.4133 4.44374 9.0999 4.05714 9.0999V10.4999ZM3 2.0999H8.2V0.699902H3V2.0999ZM2.7 8.7999V2.3999H1.3V8.7999H2.7ZM8.5 2.3999V3.4999H9.9V2.3999H8.5ZM4.05714 9.0999H3V10.4999H4.05714V9.0999ZM1.3 8.7999C1.3 9.73879 2.06111 10.4999 3 10.4999V9.0999C2.83431 9.0999 2.7 8.96559 2.7 8.7999H1.3ZM8.2 2.0999C8.36568 2.0999 8.5 2.23422 8.5 2.3999H9.9C9.9 1.46102 9.13888 0.699902 8.2 0.699902V2.0999ZM3 0.699902C2.06112 0.699902 1.3 1.46102 1.3 2.3999H2.7C2.7 2.23422 2.83431 2.0999 3 2.0999V0.699902Z" fill="#1E62DC"/>
<rect x="6.80005" y="6.19971" width="7.2" height="8.4" rx="1" stroke="#1E62DC" stroke-width="1.4"/>
</svg>
