<svg width="10" height="10" viewBox="0 0 10 10" fill="none" xmlns="http://www.w3.org/2000/svg">
<rect width="10" height="10" transform="translate(0 0.000976562)" fill="white" fill-opacity="0.01"/>
<path d="M4.99993 4.41184L2.79451 2.20643C2.71592 2.13053 2.61067 2.08853 2.50143 2.08948C2.39218 2.09043 2.28767 2.13425 2.21042 2.2115C2.13316 2.28876 2.08934 2.39326 2.08839 2.50251C2.08745 2.61176 2.12944 2.71701 2.20534 2.79559L4.41076 5.00101L2.20534 7.20643C2.12944 7.28501 2.08745 7.39026 2.08839 7.49951C2.08934 7.60876 2.13316 7.71326 2.21042 7.79052C2.28767 7.86777 2.39218 7.91159 2.50143 7.91254C2.61067 7.91349 2.71592 7.87149 2.79451 7.79559L4.99993 5.59018L7.20534 7.79559C7.28393 7.87149 7.38918 7.91349 7.49843 7.91254C7.60767 7.91159 7.71218 7.86777 7.78943 7.79052C7.86669 7.71326 7.91051 7.60876 7.91146 7.49951C7.91241 7.39026 7.87041 7.28501 7.79451 7.20643L5.58909 5.00101L7.79451 2.79559C7.8343 2.75716 7.86605 2.71118 7.88788 2.66035C7.90972 2.60951 7.92122 2.55484 7.9217 2.49951C7.92218 2.44419 7.91163 2.38932 7.89068 2.33811C7.86973 2.28691 7.8388 2.24038 7.79967 2.20126C7.76055 2.16214 7.71403 2.1312 7.66282 2.11025C7.61162 2.0893 7.55675 2.07876 7.50143 2.07924C7.4461 2.07972 7.39143 2.09121 7.34059 2.11305C7.28976 2.13489 7.24378 2.16663 7.20534 2.20643L4.99993 4.41184Z" fill="white" stroke="white" stroke-width="1.5"/>
</svg>
