<svg width="20" height="20" viewBox="0 0 20 20" fill="none" xmlns="http://www.w3.org/2000/svg">
<path d="M5.83398 14.1773L9.51148 14.1648L17.5382 6.21484C17.8532 5.89984 18.0265 5.4815 18.0265 5.0365C18.0265 4.5915 17.8532 4.17317 17.5382 3.85817L16.2165 2.5365C15.5865 1.9065 14.4873 1.90984 13.8623 2.534L5.83398 10.4857V14.1773ZM15.0382 3.71484L16.3623 5.034L15.0315 6.35234L13.7098 5.0315L15.0382 3.71484ZM7.50065 11.1807L12.5257 6.20317L13.8473 7.52484L8.82315 12.5007L7.50065 12.5048V11.1807Z" fill="#615E69"/>
<path d="M4.16667 17.5H15.8333C16.7525 17.5 17.5 16.7525 17.5 15.8333V8.61L15.8333 10.2767V15.8333H6.79833C6.77667 15.8333 6.75417 15.8417 6.7325 15.8417C6.705 15.8417 6.6775 15.8342 6.64917 15.8333H4.16667V4.16667H9.8725L11.5392 2.5H4.16667C3.2475 2.5 2.5 3.2475 2.5 4.16667V15.8333C2.5 16.7525 3.2475 17.5 4.16667 17.5Z" fill="#615E69"/>
</svg>
