<svg width="20" height="20" viewBox="0 0 20 20" fill="none" xmlns="http://www.w3.org/2000/svg">
<path d="M5.83301 14.1775L9.51051 14.165L17.5372 6.21496C17.8522 5.89996 18.0255 5.48163 18.0255 5.03663C18.0255 4.59163 17.8522 4.17329 17.5372 3.85829L16.2155 2.53663C15.5855 1.90663 14.4863 1.90996 13.8613 2.53413L5.83301 10.4858V14.1775ZM15.0372 3.71496L16.3613 5.03413L15.0305 6.35246L13.7088 5.03163L15.0372 3.71496ZM7.49967 11.1808L12.5247 6.20329L13.8463 7.52496L8.82217 12.5008L7.49967 12.505V11.1808Z" fill="white"/>
<path d="M4.16667 17.5H15.8333C16.7525 17.5 17.5 16.7525 17.5 15.8333V8.61L15.8333 10.2767V15.8333H6.79833C6.77667 15.8333 6.75417 15.8417 6.7325 15.8417C6.705 15.8417 6.6775 15.8342 6.64917 15.8333H4.16667V4.16667H9.8725L11.5392 2.5H4.16667C3.2475 2.5 2.5 3.2475 2.5 4.16667V15.8333C2.5 16.7525 3.2475 17.5 4.16667 17.5Z" fill="white"/>
</svg>
