<svg width="18" height="14" viewBox="0 0 18 14" fill="none" xmlns="http://www.w3.org/2000/svg">
<path d="M15.667 0.333984H2.33366C1.41449 0.333984 0.666992 1.08148 0.666992 2.00065V12.0007C0.666992 12.9198 1.41449 13.6673 2.33366 13.6673H15.667C16.5862 13.6673 17.3337 12.9198 17.3337 12.0007V2.00065C17.3337 1.08148 16.5862 0.333984 15.667 0.333984ZM15.667 2.00065V2.42648L9.00033 7.61232L2.33366 2.42732V2.00065H15.667ZM2.33366 12.0007V4.53732L8.48866 9.32482C8.63866 9.44232 8.81949 9.50065 9.00033 9.50065C9.18116 9.50065 9.36199 9.44232 9.51199 9.32482L15.667 4.53732L15.6687 12.0007H2.33366Z" fill="#1E62DC"/>
</svg>
