<svg width="20" height="20" viewBox="0 0 20 20" fill="none" xmlns="http://www.w3.org/2000/svg">
<path d="M7.64318 13.535L9.99984 11.1783L12.3565 13.535L13.5348 12.3567L11.1782 10L13.5348 7.64333L12.3565 6.465L9.99984 8.82166L7.64318 6.465L6.46484 7.64333L8.82151 10L6.46484 12.3567L7.64318 13.535Z" fill="white"/>
<path d="M10.0003 18.3333C14.5953 18.3333 18.3337 14.595 18.3337 10C18.3337 5.40501 14.5953 1.66667 10.0003 1.66667C5.40533 1.66667 1.66699 5.40501 1.66699 10C1.66699 14.595 5.40533 18.3333 10.0003 18.3333ZM10.0003 3.33334C13.6762 3.33334 16.667 6.32417 16.667 10C16.667 13.6758 13.6762 16.6667 10.0003 16.6667C6.32449 16.6667 3.33366 13.6758 3.33366 10C3.33366 6.32417 6.32449 3.33334 10.0003 3.33334Z" fill="white"/>
</svg>
