<svg width="26" height="26" viewBox="0 0 26 26" fill="none" xmlns="http://www.w3.org/2000/svg">
<path d="M12.9998 5.70825C5.04873 5.70825 2.65915 12.601 2.63727 12.6708L2.52686 12.9999L2.63623 13.3291C2.65915 13.3989 5.04873 20.2916 12.9998 20.2916C20.9508 20.2916 23.3404 13.3989 23.3623 13.3291L23.4727 12.9999L23.3633 12.6708C23.3404 12.601 20.9508 5.70825 12.9998 5.70825ZM12.9998 17.1666C10.7019 17.1666 8.83311 15.2978 8.83311 12.9999C8.83311 10.702 10.7019 8.83325 12.9998 8.83325C15.2977 8.83325 17.1664 10.702 17.1664 12.9999C17.1664 15.2978 15.2977 17.1666 12.9998 17.1666Z" fill="#615E69"/>
<path d="M12.9998 10.9167C11.8707 10.9167 10.9165 11.8709 10.9165 13.0001C10.9165 14.1292 11.8707 15.0834 12.9998 15.0834C14.129 15.0834 15.0832 14.1292 15.0832 13.0001C15.0832 11.8709 14.129 10.9167 12.9998 10.9167Z" fill="#615E69"/>
</svg>
