<svg width="11" height="14" viewBox="0 0 11 14" fill="none" xmlns="http://www.w3.org/2000/svg">
<path d="M10.4606 4.925C10.4538 4.905 10.4481 4.88563 10.44 4.86625C10.4094 4.8 10.3713 4.73688 10.3175 4.68313L6.5675 0.933125C6.51375 0.879375 6.45062 0.84125 6.38438 0.810625C6.36562 0.801875 6.34562 0.796875 6.32562 0.79C6.27313 0.7725 6.21938 0.76125 6.16375 0.758125C6.15 0.756875 6.13812 0.75 6.125 0.75H1.75C1.06062 0.75 0.5 1.31062 0.5 2V12C0.5 12.6894 1.06062 13.25 1.75 13.25H9.25C9.93937 13.25 10.5 12.6894 10.5 12V5.125C10.5 5.11188 10.4931 5.1 10.4919 5.08625C10.4887 5.03125 10.4781 4.9775 10.4606 4.925ZM8.36625 4.5H6.75V2.88375L8.36625 4.5ZM1.75 12V2H5.5V5.125C5.5 5.47062 5.77938 5.75 6.125 5.75H9.25L9.25125 12H1.75Z" fill="#484848"/>
</svg>
