<svg width="18" height="14" viewBox="0 0 18 14" fill="none" xmlns="http://www.w3.org/2000/svg">
<path d="M0.804126 13.2917C0.959126 13.525 1.21996 13.6659 1.49996 13.6659H14C14.3333 13.6659 14.635 13.4675 14.7658 13.1609L17.2658 7.32752C17.3766 7.07002 17.35 6.77502 17.1958 6.54085C17.0408 6.30669 16.78 6.16585 16.5 6.16585H15.6666V3.66585C15.6666 2.74669 14.9191 1.99919 14 1.99919H8.45413L6.32413 0.33252H2.33329C1.41413 0.33252 0.666626 1.08002 0.666626 1.99919V12.8325H0.672459C0.672459 12.9925 0.713293 13.1534 0.804126 13.2917ZM14 3.66585V6.16585H3.99996C3.66663 6.16585 3.36496 6.36419 3.23413 6.67085L2.33329 8.77335V3.66585H7.87913H8.16663H14Z" fill="#615E69"/>
</svg>
