<svg width="16" height="16" viewBox="0 0 16 16" fill="none" xmlns="http://www.w3.org/2000/svg">
<mask id="mask0_12204_39624" style="mask-type:alpha" maskUnits="userSpaceOnUse" x="1" y="1" width="14" height="14">
<path fill-rule="evenodd" clip-rule="evenodd" d="M7.99967 1.33301C4.31967 1.33301 1.33301 4.31967 1.33301 7.99967C1.33301 11.6797 4.31967 14.6663 7.99967 14.6663C11.6797 14.6663 14.6663 11.6797 14.6663 7.99967C14.6663 4.31967 11.6797 1.33301 7.99967 1.33301ZM7.99967 8.6664C7.63301 8.6664 7.33301 8.3664 7.33301 7.99973V5.33306C7.33301 4.9664 7.63301 4.6664 7.99967 4.6664C8.36634 4.6664 8.66634 4.9664 8.66634 5.33306V7.99973C8.66634 8.3664 8.36634 8.6664 7.99967 8.6664ZM7.33301 9.99962V11.333H8.66634V9.99962H7.33301Z" fill="black"/>
</mask>
<g mask="url(#mask0_12204_39624)">
<rect width="16" height="16" fill="#A5A3A9"/>
</g>
</svg>
