<svg width="18" height="17" viewBox="0 0 18 17" fill="none" xmlns="http://www.w3.org/2000/svg">
<path d="M15.6667 5.66669H10.99L11.9258 2.86085C12.0942 2.35419 12.0092 1.79252 11.6967 1.35919C11.3842 0.925854 10.8775 0.666687 10.3433 0.666687H9C8.7525 0.666687 8.51833 0.776687 8.35916 0.966687L4.4425 5.66669H2.33333C1.41416 5.66669 0.666664 6.41419 0.666664 7.33335V14.8334C0.666664 15.7525 1.41416 16.5 2.33333 16.5H4.83333H13.4225C14.1133 16.5 14.74 16.0659 14.9833 15.4184L17.2808 9.29252C17.3158 9.19919 17.3333 9.10002 17.3333 9.00002V7.33335C17.3333 6.41419 16.5858 5.66669 15.6667 5.66669ZM2.33333 7.33335H4V14.8334H2.33333V7.33335ZM15.6667 8.84919L13.4225 14.8334H5.66666V6.80169L9.39 2.33335H10.345L9.04333 6.23585C8.9575 6.49002 9.00083 6.76919 9.1575 6.98669C9.31416 7.20502 9.56583 7.33335 9.83333 7.33335H15.6667V8.84919Z" fill="#1E62DC"/>
</svg>
