<svg width="14" height="12" viewBox="0 0 14 12" fill="none" xmlns="http://www.w3.org/2000/svg">
<path d="M0.333374 0.85H0.183374V1V2.66667V2.81667H0.333374H2.00004H2.15004V2.66667V1V0.85H2.00004H0.333374ZM0.333374 5.01667H0.183374V5.16667V6.83333V6.98333H0.333374H2.00004H2.15004V6.83333V5.16667V5.01667H2.00004H0.333374ZM0.333374 9.18333H0.183374V9.33333V11V11.15H0.333374H2.00004H2.15004V11V9.33333V9.18333H2.00004H0.333374ZM13.6667 2.81667H13.8167V2.66667V1V0.85H13.6667H12.6667H4.66671H3.68587H3.53587V1V2.66667V2.81667H3.68587H4.66671H12.6667H13.6667ZM3.66671 5.01667H3.51671V5.16667V6.83333V6.98333H3.66671H13.6667H13.8167V6.83333V5.16667V5.01667H13.6667H3.66671ZM3.66671 9.18333H3.51671V9.33333V11V11.15H3.66671H13.6667H13.8167V11V9.33333V9.18333H13.6667H3.66671Z" fill="#0842FF" stroke="#0842FF" stroke-width="0.3"/>
</svg>
