<svg width="15" height="16" viewBox="0 0 15 16" fill="none" xmlns="http://www.w3.org/2000/svg">
<path d="M4.375 8.25H4V8.625V9.71977L1.85029 8L4 6.28023V7.375V7.75H4.375H9.625V8.25H4.375Z" fill="#615E69" stroke="#615E69" stroke-width="0.75"/>
<path d="M8.12557 2.37402C6.62245 2.37402 5.20995 2.95965 4.14807 4.02215L5.03182 4.9059C5.85807 4.07965 6.95682 3.62402 8.12557 3.62402C9.29432 3.62402 10.3931 4.07965 11.2193 4.9059C12.0456 5.73215 12.5012 6.8309 12.5012 7.99965C12.5012 9.1684 12.0456 10.2671 11.2193 11.0934C10.3931 11.9196 9.29432 12.3753 8.12557 12.3753C6.95682 12.3753 5.85807 11.9196 5.03182 11.0934L4.14807 11.9771C5.20995 13.0396 6.62245 13.6253 8.12557 13.6253C9.6287 13.6253 11.0412 13.0396 12.1031 11.9771C13.1656 10.9153 13.7512 9.50277 13.7512 7.99965C13.7512 6.49652 13.1656 5.08402 12.1031 4.02215C11.0412 2.95965 9.6287 2.37402 8.12557 2.37402Z" fill="#615E69"/>
</svg>
