<svg width="20" height="21" viewBox="0 0 20 21" fill="none" xmlns="http://www.w3.org/2000/svg">
<path d="M16.5625 3.36841H3.43749C2.46082 3.36841 1.66666 4.11591 1.66666 5.03507V16.7017C1.66666 17.6209 2.46082 18.3684 3.43749 18.3684H16.5625C17.5392 18.3684 18.3333 17.6209 18.3333 16.7017V5.03507C18.3333 4.11591 17.5392 3.36841 16.5625 3.36841ZM16.5625 16.7017H3.43749C3.38999 16.7017 3.35749 16.6884 3.34332 16.6884C3.33749 16.6884 3.33416 16.6901 3.33332 16.6951L3.32332 5.07341C3.32916 5.06507 3.36666 5.03507 3.43749 5.03507H16.5625C16.6283 5.03591 16.6642 5.05841 16.6667 5.04174L16.6767 16.6634C16.6708 16.6717 16.6333 16.7017 16.5625 16.7017Z" fill="#18BA92"/>
<path d="M10.8333 13.3684H5V15.0351H10.8333H11.6667H15V13.3684H11.6667H10.8333ZM5 10.0351H11.6667V11.7018H5V10.0351ZM5 6.70178H14.1667V8.36845H5V6.70178Z" fill="#18BA92"/>
</svg>
