<svg width="136" height="170" viewBox="0 0 136 170" fill="none" xmlns="http://www.w3.org/2000/svg">
<path d="M120.979 63.7026C120.864 62.354 119.996 61.2466 118.714 60.8123L108.31 57.2892L118.438 45.6688C119.111 44.8975 119.392 43.8774 119.21 42.8706C119.028 41.8637 118.408 41.0066 117.508 40.5191L104.441 33.4393C103.587 32.9768 102.521 33.2937 102.058 34.1473C101.595 35.0009 101.913 36.0678 102.766 36.5302L115.654 43.5128L104.86 55.896L70.7672 37.4241L77.0933 30.1667C77.8213 30.4339 78.6074 30.5796 79.4267 30.5796C81.9709 30.5796 84.1916 29.1727 85.3548 27.0968L95.1234 32.3895C95.3896 32.5336 95.6763 32.6021 95.9592 32.6021C96.5836 32.6021 97.188 32.2688 97.5065 31.6812C97.969 30.8276 97.6518 29.7607 96.7983 29.2983L86.2129 23.5633C86.0936 19.9223 83.0966 16.9966 79.427 16.9966C75.6821 16.9966 72.6355 20.0432 72.6355 23.7881C72.6355 25.4369 73.2265 26.9498 74.2072 28.1276L68 35.2489L57.0028 22.6326C55.9645 21.4413 54.2692 21.135 52.8792 21.8878L48.5805 24.2168C48.0768 20.2336 44.6697 17.1421 40.5519 17.1421C36.0884 17.1421 32.457 20.7736 32.457 25.2373C32.457 27.7052 33.5687 29.9175 35.3159 31.4035L18.4915 40.5191C17.5919 41.0066 16.9718 41.8634 16.7897 42.8706C16.608 43.8774 16.8893 44.8974 17.5617 45.6685L27.69 57.2889L17.2863 60.8118C16.004 61.2461 15.1361 62.3536 15.0213 63.7022C14.9064 65.0508 15.5744 66.2892 16.7646 66.934L28.9819 73.5532V80.1882C28.9819 81.159 29.7687 81.946 30.7397 81.946C31.7108 81.946 32.4976 81.159 32.4976 80.1882V75.458L49.5902 84.7187C50.3193 85.1139 51.1328 85.3147 51.9494 85.3147C52.4833 85.3147 53.0189 85.2287 53.5326 85.0548L66.2424 80.7514V115.726L33.2466 97.8478C32.7847 97.5974 32.4978 97.1156 32.4978 96.5901V88.866C32.4978 87.8952 31.711 87.1082 30.74 87.1082C29.769 87.1082 28.9822 87.8952 28.9822 88.866V96.5901C28.9822 98.407 29.9743 100.073 31.5718 100.939L65.644 119.4C66.3818 119.8 67.1911 119.999 68.0004 119.999C68.8097 119.999 69.619 119.799 70.3568 119.4L104.429 100.939C106.026 100.073 107.019 98.407 107.019 96.5901V73.553L119.236 66.9338C120.425 66.2897 121.093 65.0515 120.979 63.7026ZM71.8859 50.1037C78.0392 51.8334 82.3368 57.5076 82.3368 63.9026C82.3368 65.6833 82.0168 67.4116 81.3845 69.0492L68 76.3011L54.6154 69.0492C53.9833 67.4116 53.6632 65.6833 53.6632 63.9026C53.6632 57.4879 57.9771 51.8087 64.1543 50.0919C65.0895 49.832 65.637 48.8629 65.377 47.9277C65.1174 46.9923 64.1477 46.445 63.2128 46.7047C55.5204 48.8429 50.1477 55.9148 50.1477 63.9026C50.1477 64.8658 50.2258 65.8167 50.3758 66.7523L34.4298 58.1125L68.0004 39.9235L101.571 58.1128L85.6248 66.7526C85.7748 65.8169 85.8529 64.8661 85.8529 63.9028C85.8529 55.9394 80.5009 48.8734 72.8377 46.7193C71.903 46.4563 70.9325 47.0014 70.67 47.9357C70.4065 48.8704 70.951 49.8409 71.8859 50.1037ZM79.4267 20.5127C81.2331 20.5127 82.7029 21.9822 82.7029 23.7886C82.7029 25.5949 81.2331 27.0647 79.4267 27.0647C77.6204 27.0647 76.1509 25.5949 76.1509 23.7886C76.1509 21.9822 77.6204 20.5127 79.4267 20.5127ZM40.5519 20.6582C43.0768 20.6582 45.1314 22.7126 45.1314 25.2377C45.1314 27.7627 43.0768 29.8172 40.5519 29.8172C38.027 29.8172 35.9727 27.7629 35.9727 25.2377C35.9727 22.7126 38.027 20.6582 40.5519 20.6582ZM39.3116 33.2377C39.7161 33.3003 40.1303 33.3328 40.5519 33.3328C43.828 33.3328 46.6534 31.3756 47.9263 28.5701L54.4387 25.0418L65.2322 37.4246L31.1396 55.8965L20.3458 43.5132L39.3116 33.2377ZM52.4048 81.7255C52.0288 81.853 51.6131 81.8171 51.2648 81.6282L31.5849 70.9657C31.5797 70.9629 31.5744 70.9601 31.5692 70.9573L18.769 64.0221L30.5764 60.0239L63.6211 77.9279L52.4048 81.7255ZM103.502 96.5908C103.502 97.1163 103.215 97.5982 102.754 97.8485L69.7578 115.726V80.7521L82.4675 85.0555C82.9813 85.2294 83.5168 85.3154 84.051 85.3154C84.8671 85.3154 85.6808 85.1143 86.41 84.7194L103.503 75.4587V96.5908H103.502ZM84.7349 81.6282C84.3866 81.8171 83.9708 81.853 83.5949 81.7255L72.3788 77.9279L105.424 60.0239L117.231 64.0221L84.7349 81.6282ZM117.586 64.1423C117.586 64.1423 117.586 64.1421 117.585 64.1421L117.586 64.1423Z" fill="#BBBABF"/>
<path d="M81.146 99.5359L77.1135 101.721C76.2599 102.183 75.9431 103.25 76.4055 104.104C76.7238 104.691 77.3285 105.025 77.9528 105.025C78.2355 105.025 78.5226 104.956 78.7886 104.812L82.821 102.627C83.6746 102.165 83.9915 101.098 83.5291 100.244C83.0667 99.3906 82.0003 99.0732 81.146 99.5359Z" fill="#BBBABF"/>
<path d="M47.3031 14.8031C47.6465 15.1462 48.0965 15.318 48.5463 15.318C48.996 15.318 49.446 15.1464 49.7894 14.8031L51.2395 13.353L52.6895 14.8031C53.0329 15.1462 53.4829 15.318 53.9327 15.318C54.3824 15.318 54.8324 15.1464 55.1758 14.8031C55.8623 14.1166 55.8623 13.0035 55.1758 12.3173L53.7255 10.867L55.1758 9.41666C55.8623 8.73018 55.8623 7.61713 55.1758 6.93088C54.4891 6.24439 53.3763 6.24439 52.6898 6.93088L51.2397 8.38096L49.7896 6.93088C49.1029 6.24439 47.9901 6.24439 47.3036 6.93088C46.6171 7.61736 46.6171 8.73041 47.3036 9.41666L48.7539 10.867L47.3036 12.3173C46.6167 13.0035 46.6167 14.1166 47.3031 14.8031Z" fill="#BBBABF"/>
<path d="M99.3444 26.3177C99.6878 26.6608 100.138 26.8326 100.588 26.8326C101.037 26.8326 101.487 26.6611 101.831 26.3177L103.281 24.8676L104.731 26.3177C105.074 26.6608 105.524 26.8326 105.974 26.8326C106.424 26.8326 106.874 26.6611 107.217 26.3177C107.904 25.6312 107.904 24.5182 107.217 23.8319L105.767 22.3816L107.217 20.9313C107.904 20.2448 107.904 19.1318 107.217 18.4455C106.53 17.759 105.418 17.759 104.731 18.4455L103.281 19.8956L101.831 18.4455C101.144 17.759 100.031 17.759 99.3449 18.4455C98.6584 19.132 98.6584 20.2451 99.3449 20.9313L100.795 22.3816L99.3449 23.8319C98.6579 24.5182 98.6579 25.6312 99.3444 26.3177Z" fill="#BBBABF"/>
<path d="M89.6396 15.3166C93.8626 15.3166 97.2981 11.8812 97.2981 7.65844C97.2978 3.43547 93.8624 0 89.6396 0C85.4169 0 81.9812 3.43547 81.9812 7.65844C81.9812 11.8812 85.4167 15.3166 89.6396 15.3166ZM89.6396 3.51562C91.9239 3.51562 93.7824 5.37398 93.7824 7.65844C93.7824 9.94266 91.9239 11.801 89.6396 11.801C87.3554 11.801 85.4968 9.94266 85.4968 7.65844C85.4968 5.37398 87.3554 3.51562 89.6396 3.51562Z" fill="#BBBABF"/>
<path d="M67.8015 65.7456C66.1079 65.7456 64.5094 66.3072 63.2982 67.3286C62.5562 67.9543 62.4617 69.0634 63.0877 69.8054C63.7133 70.5477 64.8223 70.6419 65.5646 70.0161C66.1341 69.5359 66.9488 69.261 67.8017 69.261H67.8134C68.6705 69.2636 69.4883 69.5436 70.0576 70.0295C70.3887 70.3121 70.7944 70.4502 71.1978 70.4502C71.6944 70.4502 72.188 70.2409 72.5356 69.8336C73.1659 69.0953 73.0782 67.9855 72.3399 67.3553C71.1296 66.3221 69.5255 65.7503 67.8235 65.7451C67.8162 65.7456 67.8087 65.7456 67.8015 65.7456Z" fill="#BBBABF"/>
<path d="M60.3644 60.5402H60.348C59.3763 60.5259 58.5933 61.3153 58.5862 62.2859C58.5797 63.2566 59.3693 64.0491 60.34 64.0559H60.3525C61.3174 64.0559 62.1033 63.2768 62.11 62.3102C62.1168 61.3395 61.3354 60.547 60.3644 60.5402Z" fill="#BBBABF"/>
<path d="M75.3077 64.0201C75.3138 64.0212 75.3201 64.0219 75.3262 64.0231C75.3768 64.033 75.4281 64.0412 75.4802 64.0466C75.497 64.0482 75.5141 64.0482 75.531 64.0494C75.5702 64.0522 75.6093 64.0559 75.6494 64.0562H75.6618C75.7223 64.0562 75.782 64.0531 75.8411 64.047C76.7287 63.9582 77.4215 63.2091 77.4215 62.2981C77.4215 61.399 76.7463 60.6591 75.8756 60.5544C75.8676 60.5534 75.8599 60.5515 75.8519 60.5508C75.8118 60.5466 75.7708 60.5455 75.7298 60.5438C75.711 60.5431 75.6927 60.5408 75.6738 60.5405H75.6646C75.6644 60.5405 75.6639 60.5405 75.6637 60.5405H75.6573H75.647C75.6463 60.5405 75.6456 60.5405 75.6449 60.5405C74.68 60.5405 73.9023 61.3196 73.8955 62.2862C73.8897 63.14 74.5 63.8553 75.3077 64.0201Z" fill="#BBBABF"/>
<path d="M1.39844 162H3.13672V150.877H3.18555L10.9395 162H12.6484V147.908H10.9102V159.031H10.8613L3.10742 147.908H1.39844V162ZM19.3281 162.195C22.1309 162.195 24.0254 160.164 24.0254 156.922V156.902C24.0254 153.66 22.1211 151.648 19.3184 151.648C16.5156 151.648 14.6211 153.67 14.6211 156.902V156.922C14.6211 160.154 16.5059 162.195 19.3281 162.195ZM19.3379 160.691C17.541 160.691 16.3594 159.314 16.3594 156.922V156.902C16.3594 154.529 17.5508 153.152 19.3184 153.152C21.1152 153.152 22.2871 154.52 22.2871 156.902V156.922C22.2871 159.305 21.125 160.691 19.3379 160.691ZM29.8457 162H31.5449V155.73C31.5449 154.188 32.4043 153.27 33.7227 153.27C34.1328 153.27 34.4941 153.318 34.6309 153.367V151.717C34.4941 151.697 34.2402 151.648 33.9473 151.648C32.8047 151.648 31.9258 152.391 31.584 153.562H31.5449V151.844H29.8457V162ZM39.709 162.195C41.9258 162.195 43.5859 160.867 43.918 159.188L43.9375 159.09H42.2676L42.2383 159.178C41.9453 160.047 41.0371 160.691 39.748 160.691C37.9414 160.691 36.7891 159.471 36.75 157.381H44.0645V156.756C44.0645 153.709 42.375 151.648 39.6016 151.648C36.8281 151.648 35.0312 153.807 35.0312 156.951V156.961C35.0312 160.154 36.7891 162.195 39.709 162.195ZM39.5918 153.152C41.0762 153.152 42.1699 154.08 42.3359 156.053H36.7793C36.9648 154.158 38.1172 153.152 39.5918 153.152ZM49.3867 162.195C51.6523 162.195 53.332 160.945 53.332 159.168V159.158C53.332 157.713 52.5898 156.902 50.5391 156.404L48.9277 156.014C47.8047 155.74 47.3457 155.262 47.3457 154.568V154.559C47.3457 153.66 48.1074 153.064 49.3379 153.064C50.5977 153.064 51.3496 153.719 51.4863 154.705L51.4961 154.773H53.1172L53.1074 154.646C52.9805 152.947 51.5645 151.648 49.3379 151.648C47.1406 151.648 45.6074 152.889 45.6074 154.637V154.646C45.6074 156.111 46.5352 157 48.4492 157.459L50.0605 157.85C51.2129 158.133 51.5938 158.543 51.5938 159.275V159.285C51.5938 160.203 50.7734 160.779 49.3965 160.779C48.0098 160.779 47.2578 160.184 47.0527 159.168L47.0332 159.07H45.334L45.3438 159.158C45.5488 160.975 46.9941 162.195 49.3867 162.195ZM58.5664 162.195C60.1094 162.195 61.1445 161.502 61.6914 160.555H61.7305V162H63.4297V151.844H61.7305V157.82C61.7305 159.549 60.6855 160.691 59.084 160.691C57.5215 160.691 56.75 159.783 56.75 158.133V151.844H55.0508V158.436C55.0508 160.75 56.3398 162.195 58.5664 162.195ZM65.7344 162H67.4336V147.908H65.7344V162ZM73.0293 162.195C73.3613 162.195 73.7227 162.156 73.9375 162.127V160.75C73.791 160.76 73.5957 160.789 73.3906 160.789C72.4824 160.789 72.0039 160.486 72.0039 159.402V153.25H73.9375V151.844H72.0039V149.1H70.2461V151.844H68.7617V153.25H70.2461V159.412C70.2461 161.355 71.1641 162.195 73.0293 162.195ZM79.3672 162.195C81.6328 162.195 83.3125 160.945 83.3125 159.168V159.158C83.3125 157.713 82.5703 156.902 80.5195 156.404L78.9082 156.014C77.7852 155.74 77.3262 155.262 77.3262 154.568V154.559C77.3262 153.66 78.0879 153.064 79.3184 153.064C80.5781 153.064 81.3301 153.719 81.4668 154.705L81.4766 154.773H83.0977L83.0879 154.646C82.9609 152.947 81.5449 151.648 79.3184 151.648C77.1211 151.648 75.5879 152.889 75.5879 154.637V154.646C75.5879 156.111 76.5156 157 78.4297 157.459L80.041 157.85C81.1934 158.133 81.5742 158.543 81.5742 159.275V159.285C81.5742 160.203 80.7539 160.779 79.377 160.779C77.9902 160.779 77.2383 160.184 77.0332 159.168L77.0137 159.07H75.3145L75.3242 159.158C75.5293 160.975 76.9746 162.195 79.3672 162.195ZM89.7285 162H91.4277V153.25H93.498V151.844H91.4082V150.604C91.4082 149.598 91.877 149.119 92.8145 149.119C93.0781 149.119 93.3418 149.129 93.5469 149.158V147.781C93.293 147.742 92.8926 147.713 92.5117 147.713C90.6367 147.713 89.7285 148.641 89.7285 150.594V151.844H88.3125V153.25H89.7285V162ZM98.4883 162.195C101.291 162.195 103.186 160.164 103.186 156.922V156.902C103.186 153.66 101.281 151.648 98.4785 151.648C95.6758 151.648 93.7812 153.67 93.7812 156.902V156.922C93.7812 160.154 95.666 162.195 98.4883 162.195ZM98.498 160.691C96.7012 160.691 95.5195 159.314 95.5195 156.922V156.902C95.5195 154.529 96.7109 153.152 98.4785 153.152C100.275 153.152 101.447 154.52 101.447 156.902V156.922C101.447 159.305 100.285 160.691 98.498 160.691ZM108.371 162.195C109.914 162.195 110.949 161.502 111.496 160.555H111.535V162H113.234V151.844H111.535V157.82C111.535 159.549 110.49 160.691 108.889 160.691C107.326 160.691 106.555 159.783 106.555 158.133V151.844H104.855V158.436C104.855 160.75 106.145 162.195 108.371 162.195ZM115.451 162H117.15V156.023C117.15 154.295 118.195 153.152 119.797 153.152C121.359 153.152 122.131 154.061 122.131 155.711V162H123.83V155.408C123.83 153.094 122.541 151.648 120.314 151.648C118.771 151.648 117.736 152.342 117.189 153.289H117.15V151.844H115.451V162ZM129.816 162.195C131.271 162.195 132.404 161.463 133.039 160.281H133.078V162H134.777V147.908H133.078V153.543H133.039C132.404 152.371 131.223 151.648 129.787 151.648C127.238 151.648 125.5 153.709 125.5 156.912V156.922C125.5 160.125 127.219 162.195 129.816 162.195ZM130.148 160.691C128.352 160.691 127.238 159.256 127.238 156.922V156.912C127.238 154.598 128.352 153.152 130.148 153.152C131.857 153.152 133.088 154.646 133.088 156.912V156.922C133.088 159.197 131.867 160.691 130.148 160.691Z" fill="#8E8C94"/>
</svg>
