<svg width="20" height="20" viewBox="0 0 20 20" fill="none" xmlns="http://www.w3.org/2000/svg">
<path d="M15.8333 3.33329H13.3333V1.66663H11.6667V3.33329H8.33333V1.66663H6.66667V3.33329H4.16667C3.2475 3.33329 2.5 4.08079 2.5 4.99996V16.6666C2.5 17.5858 3.2475 18.3333 4.16667 18.3333H15.8333C16.7525 18.3333 17.5 17.5858 17.5 16.6666V4.99996C17.5 4.08079 16.7525 3.33329 15.8333 3.33329ZM4.16667 16.6666V5.83329H6.66667H8.33333H11.6667H13.3333H15.8333V4.99996L15.835 16.6666H4.16667Z" fill="#964FFF"/>
<path d="M5.83337 7.5H14.1667V9.16667H5.83337V7.5ZM5.83337 10.8333H10V12.5H5.83337V10.8333Z" fill="#964FFF"/>
</svg>
