<svg width="120" height="170" viewBox="0 0 120 170" fill="none" xmlns="http://www.w3.org/2000/svg">
<path d="M112.978 63.7025C112.863 62.3539 111.995 61.2465 110.713 60.8122L100.309 57.289L110.437 45.6687C111.11 44.8973 111.391 43.8773 111.21 42.8704C111.028 41.8636 110.407 41.0064 109.507 40.5189L96.4403 33.4391C95.5865 32.9767 94.5201 33.2936 94.0572 34.1472C93.5947 35.0008 93.9118 36.0677 94.7652 36.5301L107.653 43.5126L96.8591 55.8959L62.7665 37.424L69.0926 30.1665C69.8205 30.4337 70.6066 30.5795 71.426 30.5795C73.9702 30.5795 76.1909 29.1725 77.3541 27.0967L87.1227 32.3894C87.3889 32.5335 87.6756 32.6019 87.9585 32.6019C88.5828 32.6019 89.1873 32.2687 89.5058 31.6811C89.9682 30.8275 89.6511 29.7606 88.7975 29.2982L78.2121 23.5632C78.0928 19.9222 75.0959 16.9965 71.4262 16.9965C67.6814 16.9965 64.6347 20.0431 64.6347 23.788C64.6347 25.4368 65.2258 26.9497 66.2064 28.1275L59.9992 35.2488L49.002 22.6325C47.9638 21.4412 46.2685 21.1348 44.8784 21.8877L40.5797 24.2167C40.0761 20.2334 36.6689 17.142 32.5512 17.142C28.0877 17.142 24.4563 20.7734 24.4563 25.2371C24.4563 27.7051 25.5679 29.9174 27.3152 31.4033L10.4907 40.5189C9.59119 41.0064 8.97103 41.8633 8.78892 42.8704C8.60728 43.8773 8.88853 44.8973 9.56096 45.6684L19.6893 57.2888L9.28557 60.8117C8.00329 61.246 7.1354 62.3534 7.02055 63.702C6.90571 65.0507 7.57368 66.2891 8.76384 66.9339L20.9812 73.5531V80.1881C20.9812 81.1589 21.768 81.9459 22.739 81.9459C23.71 81.9459 24.4968 81.1589 24.4968 80.1881V75.4579L41.5894 84.7186C42.3186 85.1137 43.1321 85.3146 43.9487 85.3146C44.4826 85.3146 45.0181 85.2286 45.5319 85.0547L58.2416 80.7513V115.725L25.2459 97.8476C24.7839 97.5973 24.4971 97.1154 24.4971 96.59V88.8659C24.4971 87.8951 23.7103 87.108 22.7392 87.108C21.7682 87.108 20.9814 87.8951 20.9814 88.8659V96.59C20.9814 98.4069 21.9735 100.073 23.571 100.939L57.6433 119.4C58.3811 119.8 59.1904 119.999 59.9997 119.999C60.809 119.999 61.6183 119.799 62.3561 119.4L96.4283 100.939C98.0256 100.073 99.018 98.4069 99.018 96.59V73.5529L111.235 66.9336C112.425 66.2896 113.093 65.0513 112.978 63.7025ZM63.8852 50.1035C70.0385 51.8332 74.336 57.5075 74.336 63.9024C74.336 65.6832 74.0161 67.4115 73.3838 69.0491L59.9992 76.301L46.6147 69.0491C45.9826 67.4115 45.6624 65.6832 45.6624 63.9024C45.6624 57.4878 49.9764 51.8086 56.1536 50.0918C57.0887 49.8319 57.6362 48.8627 57.3763 47.9276C57.1166 46.9922 56.147 46.4449 55.2121 46.7046C47.5196 48.8428 42.147 55.9147 42.147 63.9024C42.147 64.8657 42.2251 65.8166 42.3751 66.7522L26.429 58.1124L59.9997 39.9234L93.5701 58.1126L77.6241 66.7525C77.7741 65.8168 77.8521 64.866 77.8521 63.9027C77.8521 55.9393 72.5002 48.8733 64.837 46.7191C63.9023 46.4562 62.9317 47.0013 62.6692 47.9356C62.4058 48.8702 62.9503 49.8408 63.8852 50.1035ZM71.426 20.5126C73.2323 20.5126 74.7021 21.9821 74.7021 23.7885C74.7021 25.5948 73.2323 27.0646 71.426 27.0646C69.6197 27.0646 68.1501 25.5948 68.1501 23.7885C68.1501 21.9821 69.6197 20.5126 71.426 20.5126ZM32.5512 20.6581C35.0761 20.6581 37.1307 22.7124 37.1307 25.2376C37.1307 27.7625 35.0761 29.8171 32.5512 29.8171C30.0262 29.8171 27.9719 27.7628 27.9719 25.2376C27.9719 22.7124 30.0262 20.6581 32.5512 20.6581ZM31.3109 33.2376C31.7154 33.3002 32.1295 33.3327 32.5512 33.3327C35.8273 33.3327 38.6527 31.3755 39.9256 28.57L46.438 25.0417L57.2315 37.4245L23.1388 55.8964L12.3451 43.5131L31.3109 33.2376ZM44.4041 81.7254C44.0281 81.8529 43.6123 81.817 43.264 81.6281L23.5842 70.9656C23.579 70.9628 23.5736 70.96 23.5685 70.9572L10.7682 64.022L22.5756 60.0237L55.6204 77.9278L44.4041 81.7254ZM95.5016 96.5907C95.5016 97.1162 95.2145 97.598 94.7528 97.8483L61.757 115.726V80.752L74.4668 85.0554C74.9806 85.2293 75.5161 85.3153 76.0503 85.3153C76.8664 85.3153 77.6801 85.1142 78.4093 84.7193L95.5019 75.4586V96.5907H95.5016ZM76.7342 81.6281C76.3859 81.817 75.9701 81.8529 75.5942 81.7254L64.3781 77.9278L97.4228 60.0237L109.23 64.022L76.7342 81.6281ZM109.585 64.1422C109.585 64.1422 109.585 64.142 109.584 64.142L109.585 64.1422Z" fill="#BBBABF"/>
<path d="M73.1445 99.5357L69.1121 101.721C68.2585 102.183 67.9416 103.25 68.404 104.103C68.7223 104.691 69.327 105.024 69.9514 105.024C70.234 105.024 70.5211 104.956 70.7871 104.812L74.8196 102.627C75.6732 102.164 75.99 101.098 75.5276 100.244C75.0652 99.3904 73.9988 99.073 73.1445 99.5357Z" fill="#BBBABF"/>
<path d="M39.3019 14.8031C39.6453 15.1462 40.0953 15.318 40.545 15.318C40.9948 15.318 41.4448 15.1464 41.7882 14.8031L43.2382 13.353L44.6883 14.8031C45.0317 15.1462 45.4817 15.318 45.9314 15.318C46.3812 15.318 46.8312 15.1464 47.1746 14.8031C47.8611 14.1166 47.8611 13.0035 47.1746 12.3173L45.7243 10.867L47.1746 9.41666C47.8611 8.73018 47.8611 7.61713 47.1746 6.93088C46.4878 6.24439 45.375 6.24439 44.6886 6.93088L43.2385 8.38096L41.7884 6.93088C41.1017 6.24439 39.9889 6.24439 39.3024 6.93088C38.6159 7.61736 38.6159 8.73041 39.3024 9.41666L40.7527 10.867L39.3024 12.3173C38.6154 13.0035 38.6154 14.1166 39.3019 14.8031Z" fill="#BBBABF"/>
<path d="M91.3429 26.318C91.6863 26.6611 92.1363 26.8329 92.5861 26.8329C93.0358 26.8329 93.4858 26.6613 93.8292 26.318L95.2793 24.8679L96.7293 26.318C97.0727 26.6611 97.5227 26.8329 97.9725 26.8329C98.4222 26.8329 98.8722 26.6613 99.2156 26.318C99.9021 25.6315 99.9021 24.5184 99.2156 23.8322L97.7653 22.3819L99.2156 20.9316C99.9021 20.2451 99.9021 19.132 99.2156 18.4458C98.5289 17.7593 97.4161 17.7593 96.7296 18.4458L95.2795 19.8958L93.8294 18.4458C93.1427 17.7593 92.0299 17.7593 91.3434 18.4458C90.6569 19.1323 90.6569 20.2453 91.3434 20.9316L92.7937 22.3819L91.3434 23.8322C90.6564 24.5184 90.6564 25.6315 91.3429 26.318Z" fill="#BBBABF"/>
<path d="M81.6389 15.3166C85.8619 15.3166 89.2973 11.8812 89.2973 7.65844C89.2971 3.43547 85.8616 0 81.6389 0C77.4162 0 73.9805 3.43547 73.9805 7.65844C73.9805 11.8812 77.4159 15.3166 81.6389 15.3166ZM81.6389 3.51562C83.9231 3.51562 85.7817 5.37398 85.7817 7.65844C85.7817 9.94266 83.9231 11.801 81.6389 11.801C79.3547 11.801 77.4961 9.94266 77.4961 7.65844C77.4961 5.37398 79.3547 3.51562 81.6389 3.51562Z" fill="#BBBABF"/>
<path d="M59.7998 65.7458C58.1062 65.7458 56.5077 66.3074 55.2965 67.3288C54.5545 67.9546 54.46 69.0636 55.086 69.8057C55.7116 70.5479 56.8206 70.6422 57.5629 70.0164C58.1324 69.5361 58.9471 69.2612 59.8 69.2612H59.8117C60.6688 69.2638 61.4866 69.5439 62.0559 70.0297C62.387 70.3124 62.7927 70.4504 63.1961 70.4504C63.6927 70.4504 64.1863 70.2411 64.5339 69.8338C65.1641 69.0955 65.0765 67.9857 64.3382 67.3555C63.1279 66.3224 61.5238 65.7505 59.8218 65.7454C59.8145 65.7458 59.807 65.7458 59.7998 65.7458Z" fill="#BBBABF"/>
<path d="M52.3642 60.5404H52.3478C51.3761 60.5261 50.593 61.3154 50.586 62.286C50.5794 63.2568 51.369 64.0492 52.3398 64.056H52.3522C53.3171 64.056 54.103 63.2769 54.1098 62.3104C54.1166 61.3396 53.3352 60.5471 52.3642 60.5404Z" fill="#BBBABF"/>
<path d="M67.3067 64.0201C67.3128 64.0212 67.3191 64.0219 67.3252 64.0231C67.3758 64.033 67.4272 64.0412 67.4792 64.0466C67.4961 64.0482 67.5132 64.0482 67.53 64.0494C67.5692 64.0522 67.6083 64.0559 67.6484 64.0562H67.6608C67.7213 64.0562 67.7811 64.0531 67.8401 64.047C68.7277 63.9582 69.4205 63.2091 69.4205 62.2981C69.4205 61.399 68.7453 60.6591 67.8746 60.5544C67.8666 60.5534 67.8589 60.5515 67.8509 60.5508C67.8108 60.5466 67.7698 60.5455 67.7288 60.5438C67.71 60.5431 67.6918 60.5408 67.6728 60.5405H67.6636C67.6634 60.5405 67.6629 60.5405 67.6627 60.5405H67.6564H67.6461C67.6454 60.5405 67.6447 60.5405 67.644 60.5405C66.679 60.5405 65.9014 61.3196 65.8946 62.2862C65.8887 63.14 66.499 63.8553 67.3067 64.0201Z" fill="#BBBABF"/>
<path d="M27.2656 162H29.0039V150.877H29.0527L36.8066 162H38.5156V147.908H36.7773V159.031H36.7285L28.9746 147.908H27.2656V162ZM45.1953 162.195C47.998 162.195 49.8926 160.164 49.8926 156.922V156.902C49.8926 153.66 47.9883 151.648 45.1855 151.648C42.3828 151.648 40.4883 153.67 40.4883 156.902V156.922C40.4883 160.154 42.373 162.195 45.1953 162.195ZM45.2051 160.691C43.4082 160.691 42.2266 159.314 42.2266 156.922V156.902C42.2266 154.529 43.418 153.152 45.1855 153.152C46.9824 153.152 48.1543 154.52 48.1543 156.902V156.922C48.1543 159.305 46.9922 160.691 45.2051 160.691ZM55.9766 162H60.7129C64.9023 162 67.3633 159.393 67.3633 154.949V154.93C67.3633 150.506 64.8828 147.908 60.7129 147.908H55.9766V162ZM57.7344 160.418V149.49H60.5957C63.7891 149.49 65.5664 151.434 65.5664 154.949V154.969C65.5664 158.465 63.7891 160.418 60.5957 160.418H57.7344ZM72.2559 162.195C73.6133 162.195 74.834 161.463 75.4297 160.35H75.4688V162H77.168V154.979C77.168 152.947 75.6641 151.648 73.2617 151.648C70.8691 151.648 69.4141 152.996 69.2676 154.666L69.2578 154.773H70.8984L70.918 154.686C71.1133 153.777 71.9336 153.152 73.2422 153.152C74.6582 153.152 75.4688 153.904 75.4688 155.145V155.994L72.5586 156.16C70.2246 156.297 68.877 157.381 68.877 159.109V159.129C68.877 160.975 70.2344 162.195 72.2559 162.195ZM70.6152 159.129V159.109C70.6152 158.162 71.3965 157.557 72.7539 157.479L75.4688 157.312V158.143C75.4688 159.617 74.2383 160.721 72.6367 160.721C71.416 160.721 70.6152 160.105 70.6152 159.129ZM82.627 162.195C82.959 162.195 83.3203 162.156 83.5352 162.127V160.75C83.3887 160.76 83.1934 160.789 82.9883 160.789C82.0801 160.789 81.6016 160.486 81.6016 159.402V153.25H83.5352V151.844H81.6016V149.1H79.8438V151.844H78.3594V153.25H79.8438V159.412C79.8438 161.355 80.7617 162.195 82.627 162.195ZM88.1348 162.195C89.4922 162.195 90.7129 161.463 91.3086 160.35H91.3477V162H93.0469V154.979C93.0469 152.947 91.543 151.648 89.1406 151.648C86.748 151.648 85.293 152.996 85.1465 154.666L85.1367 154.773H86.7773L86.7969 154.686C86.9922 153.777 87.8125 153.152 89.1211 153.152C90.5371 153.152 91.3477 153.904 91.3477 155.145V155.994L88.4375 156.16C86.1035 156.297 84.7559 157.381 84.7559 159.109V159.129C84.7559 160.975 86.1133 162.195 88.1348 162.195ZM86.4941 159.129V159.109C86.4941 158.162 87.2754 157.557 88.6328 157.479L91.3477 157.312V158.143C91.3477 159.617 90.1172 160.721 88.5156 160.721C87.2949 160.721 86.4941 160.105 86.4941 159.129Z" fill="#8E8C94"/>
</svg>
