<svg width="32" height="32" viewBox="0 0 32 32" fill="none" xmlns="http://www.w3.org/2000/svg">
<circle cx="16" cy="16" r="16" fill="#EEF2FA"/>
<path d="M23.5 20.1666H22.4842L21.8333 17.5641V14.3333C21.8317 12.9318 21.3255 11.5777 20.4073 10.5187C19.4892 9.4598 18.2205 8.76684 16.8333 8.56663V7.66663H15.1667V8.56663C13.7795 8.76684 12.5108 9.4598 11.5927 10.5187C10.6745 11.5777 10.1683 12.9318 10.1667 14.3333V17.5641L9.51583 20.1666H8.5V21.8333H12.785C12.9669 22.5479 13.3817 23.1816 13.9639 23.6342C14.5461 24.0868 15.2626 24.3325 16 24.3325C16.7374 24.3325 17.4539 24.0868 18.0361 23.6342C18.6183 23.1816 19.0331 22.5479 19.215 21.8333H23.5V20.1666ZM11.8083 17.8691L11.8333 14.3333C11.8333 13.2282 12.2723 12.1684 13.0537 11.387C13.8351 10.6056 14.8949 10.1666 16 10.1666C17.1051 10.1666 18.1649 10.6056 18.9463 11.387C19.7277 12.1684 20.1667 13.2282 20.1667 14.3333V17.6666L20.7733 20.1666H11.2342L11.8083 17.8691ZM16 22.6666C15.7087 22.6657 15.4228 22.5883 15.171 22.442C14.9191 22.2958 14.7101 22.0858 14.565 21.8333H17.435C17.2899 22.0858 17.0809 22.2958 16.829 22.442C16.5772 22.5883 16.2913 22.6657 16 22.6666Z" fill="#3B9FF3"/>
</svg>
