<svg width="20" height="20" viewBox="0 0 20 20" fill="none" xmlns="http://www.w3.org/2000/svg">
<path d="M16.5858 7.15496C16.5449 7.06663 16.4941 6.98246 16.4224 6.91079L11.4224 1.91079C11.3508 1.83913 11.2666 1.78829 11.1783 1.74746C11.1533 1.73579 11.1266 1.72913 11.0999 1.71996C11.0299 1.69663 10.9583 1.68163 10.8841 1.67746C10.8666 1.67579 10.8508 1.66663 10.8333 1.66663H4.99992C4.08075 1.66663 3.33325 2.41413 3.33325 3.33329V16.6666C3.33325 17.5858 4.08075 18.3333 4.99992 18.3333H14.9999C15.9191 18.3333 16.6666 17.5858 16.6666 16.6666V7.49996C16.6666 7.48246 16.6574 7.46663 16.6558 7.44829C16.6516 7.37413 16.6374 7.30246 16.6133 7.23246C16.6049 7.20579 16.5974 7.17996 16.5858 7.15496ZM13.8216 6.66663H11.6666V4.51163L13.8216 6.66663ZM4.99992 16.6666V3.33329H9.99992V7.49996C9.99992 7.96079 10.3724 8.33329 10.8333 8.33329H14.9999L15.0016 16.6666H4.99992Z" fill="#964FFF"/>
<path d="M6.66675 9.99996H13.3334V11.6666H6.66675V9.99996ZM6.66675 13.3333H13.3334V15H6.66675V13.3333ZM6.66675 6.66663H8.33341V8.33329H6.66675V6.66663Z" fill="#964FFF"/>
</svg>
