<svg width="20" height="20" viewBox="0 0 20 20" fill="none" xmlns="http://www.w3.org/2000/svg">
<path d="M15.0068 1.44938H14.8824V1.25C14.8824 0.842726 14.5522 0.5125 14.1449 0.5125C13.7376 0.5125 13.4074 0.842724 13.4074 1.25V1.44938H6.59302V1.25C6.59302 0.842725 6.26279 0.5125 5.85552 0.5125C5.44824 0.5125 5.11802 0.842725 5.11802 1.25V1.44938H4.99552C2.78137 1.44938 0.980518 3.25023 0.980518 5.46438V15.4731C0.980518 17.6873 2.78137 19.4881 4.99552 19.4881H15.0043C17.2184 19.4881 19.0193 17.6873 19.0193 15.4731V5.46188V5.46182C19.0186 3.24964 17.2191 1.44938 15.0068 1.44938ZM2.45552 15.4725V8.07938H17.543V15.4725V15.4726C17.5436 16.8728 16.4039 18.0125 15.0043 18.0125H4.99552C3.59529 18.0125 2.45552 16.8727 2.45552 15.4725ZM4.99552 2.92438H5.11802V3.12375C5.11802 3.53103 5.44824 3.86125 5.85552 3.86125C6.26279 3.86125 6.59302 3.53103 6.59302 3.12375V2.92438H13.4061V3.12375C13.4061 3.53103 13.7364 3.86125 14.1436 3.86125C14.5509 3.86125 14.8811 3.53103 14.8811 3.12375V2.92438H15.0055C16.4044 2.92438 17.5424 4.06285 17.5424 5.46188V6.60438H2.45489V5.46445C2.45489 5.46442 2.45489 5.4644 2.45489 5.46438C2.45552 4.06411 3.59533 2.92438 4.99552 2.92438Z" fill="#E042FA" stroke="#E042FA" stroke-width="0.35"/>
<path d="M10 8.62395C9.59272 8.62395 9.2625 8.95418 9.2625 9.36145V12.6102C9.2625 13.0175 9.59272 13.3477 10 13.3477C10.4073 13.3477 10.7375 13.0175 10.7375 12.6102V9.36145C10.7375 8.95342 10.4071 8.62395 10 8.62395Z" fill="#E042FA" stroke="#E042FA" stroke-width="0.35"/>
<path d="M10 14.7769C9.59272 14.7769 9.2625 15.1071 9.2625 15.5144V15.9619C9.2625 16.3692 9.59272 16.6994 10 16.6994C10.4073 16.6994 10.7375 16.3692 10.7375 15.9619V15.5144C10.7375 15.1071 10.4073 14.7769 10 14.7769Z" fill="#E042FA" stroke="#E042FA" stroke-width="0.35"/>
</svg>
