<svg width="21" height="20" viewBox="0 0 21 20" fill="none" xmlns="http://www.w3.org/2000/svg">
<path d="M9.6865 9.61342L8.83317 8.33341L7.1665 10.8334H8.83317H10.4998H14.6665L11.7498 6.66675L9.6865 9.61342Z" fill="#615E69"/>
<path d="M8.419 7.50012C9.11074 7.50012 9.6715 6.93935 9.6715 6.24762C9.6715 5.55588 9.11074 4.99512 8.419 4.99512C7.72727 4.99512 7.1665 5.55588 7.1665 6.24762C7.1665 6.93935 7.72727 7.50012 8.419 7.50012Z" fill="#615E69"/>
<path d="M16.3333 1.66675H5.5C4.495 1.66675 3 2.33258 3 4.16675V11.6667V14.1667V15.8334C3 17.6676 4.495 18.3334 5.5 18.3334H18V16.6667H5.51C5.125 16.6567 4.66667 16.5051 4.66667 15.8334C4.66667 15.1617 5.125 15.0101 5.51 15.0001H16.3333H17.1667H18V14.1667V11.6667V3.33341C18 2.41425 17.2525 1.66675 16.3333 1.66675ZM16.3333 13.3334H4.66667V11.6667V4.16675C4.66667 3.49508 5.125 3.34341 5.5 3.33341H16.3333V11.6667V13.3334Z" fill="#615E69"/>
</svg>
