<svg width="20" height="20" viewBox="0 0 20 20" fill="none" xmlns="http://www.w3.org/2000/svg">
<path d="M9.18669 9.61219L8.33335 8.33219L6.66669 10.8322H8.33335H10H14.1667L11.25 6.66553L9.18669 9.61219Z" fill="white"/>
<path d="M7.91919 7.49914C8.61092 7.49914 9.17169 6.93838 9.17169 6.24664C9.17169 5.5549 8.61092 4.99414 7.91919 4.99414C7.22745 4.99414 6.66669 5.5549 6.66669 6.24664C6.66669 6.93838 7.22745 7.49914 7.91919 7.49914Z" fill="white"/>
<path d="M15.8333 1.66553H5C3.995 1.66553 2.5 2.33136 2.5 4.16553V11.6655V14.1655V15.8322C2.5 17.6664 3.995 18.3322 5 18.3322H17.5V16.6655H5.01C4.625 16.6555 4.16667 16.5039 4.16667 15.8322C4.16667 15.1605 4.625 15.0089 5.01 14.9989H15.8333H16.6667H17.5V14.1655V11.6655V3.33219C17.5 2.41303 16.7525 1.66553 15.8333 1.66553ZM15.8333 13.3322H4.16667V11.6655V4.16553C4.16667 3.49386 4.625 3.34219 5 3.33219H15.8333V11.6655V13.3322Z" fill="white"/>
</svg>
