<svg width="16" height="16" viewBox="0 0 16 16" fill="none" xmlns="http://www.w3.org/2000/svg">
<path d="M8.66699 4.66663H7.33366V7.33329H4.66699V8.66663H7.33366V11.3333H8.66699V8.66663H11.3337V7.33329H8.66699V4.66663Z" fill="white"/>
<path d="M7.99968 1.33337C4.32367 1.33337 1.33301 4.32404 1.33301 8.00004C1.33301 11.676 4.32367 14.6667 7.99968 14.6667C11.6757 14.6667 14.6663 11.676 14.6663 8.00004C14.6663 4.32404 11.6757 1.33337 7.99968 1.33337ZM7.99968 13.3334C5.05901 13.3334 2.66634 10.9407 2.66634 8.00004C2.66634 5.05937 5.05901 2.66671 7.99968 2.66671C10.9403 2.66671 13.333 5.05937 13.333 8.00004C13.333 10.9407 10.9403 13.3334 7.99968 13.3334Z" fill="white"/>
</svg>
