<svg width="23" height="20" viewBox="0 0 23 20" fill="none" xmlns="http://www.w3.org/2000/svg">
<path d="M4.35757 7.97868C4.78443 6.49002 5.67162 5.17472 6.89197 4.22127C8.11232 3.26783 9.60319 2.7252 11.1509 2.67115C12.6986 2.61711 14.2237 3.05442 15.5076 3.92041C16.7915 4.78641 17.7682 6.03662 18.2979 7.49187" stroke="white" stroke-width="2" stroke-linecap="round" stroke-linejoin="round"/>
<path d="M18.1634 12.8508C17.6118 14.1582 16.6926 15.2775 15.5175 16.073C14.3423 16.8684 12.9616 17.3058 11.5428 17.3321C10.124 17.3583 8.728 16.9724 7.52417 16.2211C6.32034 15.4698 5.36036 14.3853 4.76064 13.0992" stroke="white" stroke-width="2" stroke-linecap="round" stroke-linejoin="round"/>
<path d="M6.26172 12.4457L4.12259 12.763L3.09289 14.6646" stroke="white" stroke-width="2" stroke-linecap="round" stroke-linejoin="round"/>
<path d="M16.6111 8.10822L18.7502 7.791L19.7799 5.88938" stroke="white" stroke-width="2" stroke-linecap="round" stroke-linejoin="round"/>
</svg>
