<svg width="22" height="22" viewBox="0 0 22 22" fill="none" xmlns="http://www.w3.org/2000/svg">
<rect x="0.75" y="0.751953" width="20.5" height="20.5" rx="4.78333" fill="#FF6E01"/>
<path d="M9.39016 13.4175L11.0005 11.8071L12.6109 13.4175L13.4161 12.6123L11.8057 11.0019L13.4161 9.3915L12.6109 8.5863L11.0005 10.1967L9.39016 8.5863L8.58496 9.3915L10.1954 11.0019L8.58496 12.6123L9.39016 13.4175Z" fill="white"/>
<path d="M11.0001 16.6964C14.14 16.6964 16.6946 14.1419 16.6946 11.0019C16.6946 7.86202 14.14 5.3075 11.0001 5.3075C7.86019 5.3075 5.30566 7.86202 5.30566 11.0019C5.30566 14.1419 7.86019 16.6964 11.0001 16.6964ZM11.0001 6.44638C13.5119 6.44638 15.5557 8.49012 15.5557 11.0019C15.5557 13.5138 13.5119 15.5575 11.0001 15.5575C8.48829 15.5575 6.44455 13.5138 6.44455 11.0019C6.44455 8.49012 8.48829 6.44638 11.0001 6.44638Z" fill="white"/>
</svg>
