<svg width="20" height="20" viewBox="0 0 20 20" fill="none" xmlns="http://www.w3.org/2000/svg">
<path d="M16.5741 8.42214C16.3958 8.0013 16.1749 7.59297 15.9166 7.2088L14.5349 8.1413C14.7333 8.43464 14.9024 8.74714 15.0383 9.07047C15.1783 9.40214 15.2858 9.74797 15.3574 10.0955C15.4308 10.4563 15.4683 10.8271 15.4683 11.1988C15.4683 11.5705 15.4308 11.943 15.3574 12.3021C15.2858 12.6505 15.1791 12.9946 15.0374 13.328C14.9024 13.6496 14.7333 13.9621 14.5349 14.2546C14.3399 14.5438 14.1141 14.8163 13.8658 15.0655C13.6183 15.313 13.3458 15.5371 13.0549 15.7338C12.7616 15.9321 12.4499 16.1013 12.1266 16.2371C11.7974 16.3763 11.4524 16.4838 11.1024 16.5563C10.3824 16.7021 9.61411 16.7021 8.89745 16.5563C8.54578 16.4838 8.19995 16.3763 7.86995 16.2363C7.54745 16.1005 7.23578 15.9313 6.94245 15.733C6.65328 15.5388 6.38161 15.3138 6.13328 15.0663C5.88411 14.8163 5.65911 14.543 5.46411 14.2555C5.26661 13.963 5.09745 13.6505 4.95995 13.3263C4.82078 12.9963 4.71411 12.6521 4.64161 12.3013C4.56828 11.9421 4.53078 11.5713 4.53078 11.1988C4.53078 10.8263 4.56828 10.4555 4.64245 10.0955C4.71411 9.74547 4.82078 9.40047 4.95995 9.07047C5.09745 8.74547 5.26745 8.43297 5.46411 8.14214C5.65911 7.85297 5.88411 7.58047 6.13245 7.33214C6.37911 7.08464 6.65161 6.85964 6.94245 6.6638C7.23411 6.46714 7.54661 6.29714 7.87078 6.15964C8.19995 6.02047 8.54578 5.91297 8.89578 5.8413C8.98495 5.82297 9.07578 5.81464 9.16578 5.80047V8.33464L13.3324 5.0013L9.16578 1.66797V4.1163C8.96328 4.14047 8.76078 4.16797 8.56161 4.2088C8.10328 4.30297 7.65161 4.44297 7.22161 4.62547C6.79745 4.80464 6.38911 5.0263 6.00911 5.2838C5.63078 5.5388 5.27578 5.8313 4.95328 6.1538C4.62995 6.47714 4.33745 6.83214 4.08245 7.2088C3.82495 7.58964 3.60411 7.99714 3.42411 8.4213C3.24161 8.85297 3.10161 9.3038 3.00828 9.7613C2.91161 10.2305 2.86328 10.7146 2.86328 11.1996C2.86328 11.6846 2.91245 12.168 3.00828 12.6371C3.10245 13.0963 3.24245 13.5471 3.42411 13.9763C3.60328 14.4005 3.82495 14.8088 4.08245 15.1896C4.33661 15.5646 4.62911 15.9196 4.95328 16.2463C5.27745 16.5696 5.63161 16.8621 6.00745 17.1155C6.38995 17.3746 6.79828 17.5963 7.22078 17.7738C7.65078 17.9555 8.10161 18.0963 8.56161 18.1905C9.03161 18.2855 9.51495 18.3346 9.99911 18.3346C10.4833 18.3346 10.9666 18.2855 11.4383 18.1896C11.8974 18.0946 12.3483 17.9546 12.7749 17.7738C13.1974 17.5963 13.6066 17.3746 13.9891 17.1155C14.3666 16.8605 14.7216 16.568 15.0458 16.2438C15.3691 15.9196 15.6616 15.5655 15.9166 15.1888C16.1766 14.8038 16.3966 14.3955 16.5733 13.9763C16.7566 13.543 16.8974 13.0921 16.9899 12.6363C17.0858 12.1671 17.1349 11.683 17.1349 11.1988C17.1349 10.7155 17.0858 10.2313 16.9899 9.7613C16.8966 9.3063 16.7558 8.85547 16.5741 8.42214Z" fill="white"/>
</svg>
