<svg width="15" height="16" viewBox="0 0 15 16" fill="none" xmlns="http://www.w3.org/2000/svg">
<path d="M6.875 4.875H8.125V9.25H6.875V4.875ZM6.875 9.875H8.125V11.125H6.875V9.875Z" fill="#615E69"/>
<path d="M13.5669 5.05813L10.4419 1.93312C10.325 1.81562 10.1663 1.75 10 1.75H5C4.83375 1.75 4.675 1.81562 4.55813 1.93312L1.43312 5.05813C1.31562 5.175 1.25 5.33375 1.25 5.5V10.5C1.25 10.6663 1.31562 10.825 1.43312 10.9419L4.55813 14.0669C4.675 14.1844 4.83375 14.25 5 14.25H10C10.1663 14.25 10.325 14.1844 10.4419 14.0669L13.5669 10.9419C13.6844 10.825 13.75 10.6663 13.75 10.5V5.5C13.75 5.33375 13.6844 5.175 13.5669 5.05813ZM12.5 10.2413L9.74125 13H5.25875L2.5 10.2413V5.75875L5.25875 3H9.74125L12.5 5.75875V10.2413Z" fill="#615E69"/>
</svg>
