<svg width="20" height="20" viewBox="0 0 20 20" fill="none" xmlns="http://www.w3.org/2000/svg">
<path d="M10 1.20996L2.5 3.93762V10.0002C2.5 16.8508 9.77783 18.7142 9.85107 18.7325L10 18.7686L10.1489 18.7325C10.2222 18.7142 17.5 16.8508 17.5 10.0002V3.93762L10 1.20996ZM16.25 10.0002C16.25 15.4244 10.9943 17.192 10.0024 17.4771C9.04602 17.1938 3.75 15.3781 3.75 10.0002V4.81287L10 2.54053L16.25 4.81287V10.0002Z" fill="#18BA92"/>
<path d="M6.69238 9.55859L5.80859 10.4424L8.75049 13.3843L14.1924 7.94238L13.3086 7.05859L8.75049 11.6167L6.69238 9.55859Z" fill="#18BA92"/>
</svg>
