<svg width="20" height="20" viewBox="0 0 20 20" fill="none" xmlns="http://www.w3.org/2000/svg">
<path d="M16.6665 1.66699H5.83317C3.53567 1.66699 1.6665 3.53616 1.6665 5.83366V14.167C1.6665 16.4645 3.53567 18.3337 5.83317 18.3337H15.8332C17.2115 18.3337 18.3332 17.212 18.3332 15.8337C18.3332 14.4553 17.2115 13.3337 15.8332 13.3337H4.99984V15.0003H15.8332C16.2932 15.0003 16.6665 15.3737 16.6665 15.8337C16.6665 16.2937 16.2932 16.667 15.8332 16.667H5.83317C4.45484 16.667 3.33317 15.5453 3.33317 14.167C3.33317 12.7887 4.45484 11.667 5.83317 11.667H16.6665C17.5857 11.667 18.3332 10.9195 18.3332 10.0003V3.33366C18.3332 2.41449 17.5857 1.66699 16.6665 1.66699ZM16.6665 10.0003H5.83317C4.89567 10.0003 4.02984 10.3112 3.33317 10.8353V5.83366C3.33317 4.45533 4.45484 3.33366 5.83317 3.33366H16.6665V10.0003Z" fill="#41E081"/>
</svg>
