<svg width="18" height="18" viewBox="0 0 18 18" fill="none" xmlns="http://www.w3.org/2000/svg">
<path d="M13.1642 15.535C12.415 15.535 12.0908 15.2759 11.6008 14.8842C11.0342 14.4317 10.33 13.8684 8.99499 13.8684C7.66082 13.8684 6.95666 14.4317 6.39082 14.885C5.90166 15.2759 5.57832 15.535 4.82916 15.535C4.08166 15.535 3.75832 15.2759 3.26916 14.885C2.70332 14.4317 2.00082 13.8684 0.666656 13.8684V15.535C1.41499 15.535 1.73832 15.7942 2.22749 16.185C2.79332 16.6384 3.49666 17.2017 4.82916 17.2017C6.16332 17.2017 6.86666 16.6384 7.43249 16.1859C7.92249 15.7942 8.24582 15.535 8.99499 15.535C9.74499 15.535 10.0875 15.8084 10.56 16.1859C11.1258 16.6384 11.83 17.2017 13.1642 17.2017C14.4983 17.2017 15.2025 16.6384 15.7683 16.1859C16.2408 15.8084 16.5833 15.535 17.3333 15.535V13.8684C15.9983 13.8684 15.2942 14.4317 14.7275 14.8842C14.2375 15.2759 13.9133 15.535 13.1642 15.535ZM3.99999 5.9517L2.33332 6.36837L3.99999 13.035C3.99999 13.035 4.57332 13.035 4.82916 13.035C6.16332 13.035 6.86666 12.4717 7.43249 12.0192C7.92249 11.6275 8.24582 11.3684 8.99499 11.3684C9.74499 11.3684 10.0875 11.6417 10.56 12.0192C11.1258 12.4717 11.83 13.035 13.1642 13.035C13.4225 13.035 14 13.035 14 13.035L14.0225 12.9459L14.2833 11.9025L15.6667 6.36837L14 5.9517V3.03587C14 2.63753 13.7192 2.29587 13.33 2.21837L9.83332 1.5192V0.535034H8.16666V1.5192L4.66999 2.21837C4.28082 2.29587 3.99999 2.63753 3.99999 3.03587V5.9517ZM5.66666 3.71753L8.99999 3.05087L12.3333 3.71753V5.53503L8.99999 4.7017L5.66666 5.53503V3.71753Z" fill="#C80068"/>
</svg>
