<svg width="20" height="20" viewBox="0 0 20 20" fill="none" xmlns="http://www.w3.org/2000/svg">
<path d="M16.6667 4.99996H14.1667V3.33329C14.1667 2.41413 13.4192 1.66663 12.5001 1.66663H7.50008C6.58091 1.66663 5.83342 2.41413 5.83342 3.33329V4.99996H3.33341C2.41425 4.99996 1.66675 5.74746 1.66675 6.66663V15.8333C1.66675 16.7525 2.41425 17.5 3.33341 17.5H16.6667C17.5859 17.5 18.3334 16.7525 18.3334 15.8333V6.66663C18.3334 5.74746 17.5859 4.99996 16.6667 4.99996ZM13.3334 6.66663V15.8333H6.66675V6.66663H13.3334ZM12.5001 3.33329V4.99996H7.50008V3.33329H12.5001ZM3.33341 6.66663H5.00008V15.8333H3.33341V6.66663ZM15.0001 15.8333V6.66663H16.6667L16.6676 15.8333H15.0001Z" fill="#1ED39D"/>
</svg>
