<svg width="11" height="10" viewBox="0 0 11 10" fill="none" xmlns="http://www.w3.org/2000/svg">
<rect width="10" height="10" transform="translate(0.5 0.000976562)" fill="white" fill-opacity="0.01"/>
<path d="M5.49993 4.41184L3.29451 2.20643C3.21592 2.13053 3.11067 2.08853 3.00143 2.08948C2.89218 2.09043 2.78767 2.13425 2.71042 2.2115C2.63316 2.28876 2.58934 2.39326 2.58839 2.50251C2.58745 2.61176 2.62944 2.71701 2.70534 2.79559L4.91076 5.00101L2.70534 7.20643C2.62944 7.28501 2.58745 7.39026 2.58839 7.49951C2.58934 7.60876 2.63316 7.71326 2.71042 7.79052C2.78767 7.86777 2.89218 7.91159 3.00143 7.91254C3.11067 7.91349 3.21592 7.87149 3.29451 7.79559L5.49993 5.59018L7.70534 7.79559C7.78393 7.87149 7.88918 7.91349 7.99843 7.91254C8.10767 7.91159 8.21218 7.86777 8.28943 7.79052C8.36669 7.71326 8.41051 7.60876 8.41146 7.49951C8.41241 7.39026 8.37041 7.28501 8.29451 7.20643L6.08909 5.00101L8.29451 2.79559C8.3343 2.75716 8.36605 2.71118 8.38788 2.66035C8.40972 2.60951 8.42122 2.55484 8.4217 2.49951C8.42218 2.44419 8.41163 2.38932 8.39068 2.33811C8.36973 2.28691 8.3388 2.24038 8.29967 2.20126C8.26055 2.16214 8.21403 2.1312 8.16282 2.11025C8.11162 2.0893 8.05675 2.07876 8.00143 2.07924C7.9461 2.07972 7.89143 2.09121 7.84059 2.11305C7.78976 2.13489 7.74378 2.16663 7.70534 2.20643L5.49993 4.41184Z" fill="white" stroke="white" stroke-width="1.5"/>
</svg>
