<svg width="15" height="15" viewBox="0 0 15 15" fill="none" xmlns="http://www.w3.org/2000/svg">
<rect width="15" height="15" transform="translate(0 0.000976562)" fill="white" fill-opacity="0.01"/>
<path d="M4.20924 7.702C4.0964 7.58199 3.94074 7.51138 3.77612 7.50552C3.6115 7.49967 3.45122 7.55904 3.33014 7.67073C3.20906 7.78242 3.13697 7.9374 3.12954 8.10196C3.12212 8.26652 3.17996 8.42736 3.29049 8.5495L5.54799 10.9989C5.88361 11.3276 6.38361 11.3276 6.69424 11.0176L6.92174 10.7932C7.74332 9.98526 8.56395 9.1763 9.38361 8.36637L9.40861 8.34137C10.1747 7.58641 10.9368 6.82744 11.6949 6.0645C11.8082 5.94587 11.8703 5.78745 11.8678 5.62343C11.8654 5.45941 11.7985 5.30293 11.6817 5.18776C11.5649 5.07258 11.4075 5.00795 11.2434 5.00781C11.0794 5.00767 10.9219 5.07203 10.8049 5.187C10.0503 5.94596 9.29193 6.70118 8.52986 7.45262L8.50486 7.47762C7.71941 8.25406 6.93295 9.02947 6.14549 9.80387L4.20924 7.702Z" fill="white" stroke="white"/>
</svg>
