<svg width="20" height="20" viewBox="0 0 20 20" fill="none" xmlns="http://www.w3.org/2000/svg">
<g clip-path="url(#clip0_591_42263)">
<path d="M9.25095 17.4005L9.2517 17.4005C10.7379 17.5516 12.2351 17.2492 13.5462 16.5333C14.8574 15.8174 15.9212 14.7213 16.5976 13.3894C17.2741 12.0574 17.5316 10.5519 17.3363 9.07085C17.1409 7.58979 16.5019 6.20252 15.5032 5.09151C14.5046 3.98049 13.193 3.19776 11.741 2.84624C10.2891 2.49473 8.76476 2.59089 7.3685 3.1221C5.97224 3.6533 4.76945 4.59467 3.91832 5.82238C3.06723 7.05003 2.60762 8.50652 2.59992 10.0003C2.59992 10.0004 2.59992 10.0005 2.59992 10.0006L2.49992 10L9.25095 17.4005ZM9.25095 17.4005C9.12829 17.3889 9.00456 17.4018 8.88689 17.4383M9.25095 17.4005L8.88689 17.4383M8.88689 17.4383C8.76922 17.4748 8.65995 17.5343 8.56537 17.6132M8.88689 17.4383L8.56537 17.6132M8.56537 17.6132C8.4708 17.6922 8.39279 17.7891 8.33585 17.8984M8.56537 17.6132L8.33585 17.8984M8.33585 17.8984C8.27898 18.0075 8.24425 18.1268 8.23365 18.2494L8.33585 17.8984Z" fill="#FF6E01" stroke="#FF6E01" stroke-width="0.2"/>
<path d="M9.99984 4.06675C9.7523 4.06675 9.5149 4.16508 9.33987 4.34012C9.16484 4.51515 9.0665 4.75255 9.0665 5.00008V10.0001C9.0665 10.2476 9.16484 10.485 9.33987 10.66C9.5149 10.8351 9.7523 10.9334 9.99984 10.9334H13.3332C13.5807 10.9334 13.8181 10.8351 13.9931 10.66C14.1682 10.485 14.2665 10.2476 14.2665 10.0001C14.2665 9.75255 14.1682 9.51515 13.9931 9.34012C13.8181 9.16508 13.5807 9.06675 13.3332 9.06675H10.9332V5.00008C10.9332 4.75255 10.8348 4.51515 10.6598 4.34012C10.4848 4.16508 10.2474 4.06675 9.99984 4.06675Z" fill="#FF6E01" stroke="#FF6E01" stroke-width="0.2"/>
<path d="M5.93317 14.1667V10.8333C5.93317 10.5858 5.83484 10.3484 5.6598 10.1734C5.48477 9.99833 5.24737 9.9 4.99984 9.9C4.7523 9.9 4.5149 9.99833 4.33987 10.1734C4.16484 10.3484 4.0665 10.5858 4.0665 10.8333V14.1667C4.0665 14.4142 4.16484 14.6516 4.33987 14.8266C4.51491 15.0017 4.7523 15.1 4.99984 15.1C5.24737 15.1 5.48477 15.0017 5.6598 14.8266C5.83484 14.6516 5.93317 14.4142 5.93317 14.1667Z" fill="#FF6E01" stroke="#FF6E01" stroke-width="0.2"/>
<path d="M5 19.2667C5.74558 19.2667 6.35 18.6623 6.35 17.9167C6.35 17.1712 5.74558 16.5667 5 16.5667C4.25442 16.5667 3.65 17.1712 3.65 17.9167C3.65 18.6623 4.25442 19.2667 5 19.2667Z" fill="#FF6E01" stroke="#FF6E01" stroke-width="0.2"/>
</g>
<defs>
<clipPath id="clip0_591_42263">
<rect width="20" height="20" fill="white"/>
</clipPath>
</defs>
</svg>