<svg width="21" height="20" viewBox="0 0 21 20" fill="none" xmlns="http://www.w3.org/2000/svg">
<path d="M10.5003 1.66667C5.90533 1.66667 2.16699 5.40501 2.16699 10C2.16699 14.595 5.90533 18.3333 10.5003 18.3333C15.0953 18.3333 18.8337 14.595 18.8337 10C18.8337 5.40501 15.0953 1.66667 10.5003 1.66667ZM10.5003 16.6667C6.82449 16.6667 3.83366 13.6758 3.83366 10C3.83366 6.32417 6.82449 3.33334 10.5003 3.33334C14.1762 3.33334 17.167 6.32417 17.167 10C17.167 13.6758 14.1762 16.6667 10.5003 16.6667Z" fill="white"/>
<path d="M8.83273 11.3225L6.9169 9.41001L5.74023 10.59L8.8344 13.6775L14.4227 8.08918L13.2444 6.91084L8.83273 11.3225Z" fill="white"/>
</svg>
