<svg width="20" height="20" viewBox="0 0 20 20" fill="none" xmlns="http://www.w3.org/2000/svg">
<path d="M19.8635 9.51053C18.6495 7.65686 17.1915 6.03874 15.5435 4.71626L18.362 1.43128C18.6458 1.11188 18.6537 0.584881 18.3796 0.254164C18.1056 -0.0765527 17.6534 -0.0857231 17.3696 0.233677C17.3637 0.24036 17.3578 0.247189 17.3521 0.254164L14.2728 3.83966C12.9621 2.99892 11.4958 2.54182 10 2.50767C4.57147 2.50767 0.315095 9.22416 0.136512 9.51048C-0.0455039 9.80233 -0.0455039 10.1976 0.136512 10.4895C1.35048 12.3431 2.80849 13.9613 4.45646 15.2837L1.63792 18.5687C1.35416 18.8881 1.34629 19.4151 1.62034 19.7458C1.89439 20.0766 2.34656 20.0857 2.63032 19.7663C2.63626 19.7596 2.64212 19.7528 2.6479 19.7458L5.72714 16.1603C7.03783 17.0011 8.50416 17.4582 9.99996 17.4923C15.4285 17.4923 19.6849 10.7758 19.8635 10.4895C20.0455 10.1977 20.0455 9.80237 19.8635 9.51053ZM5.49503 14.0758C4.03995 12.9463 2.73566 11.573 1.62436 10C2.67577 8.5157 6.08573 4.17263 10 4.17263C11.1137 4.19887 12.2086 4.51159 13.2064 5.08834L11.9664 6.53354C10.3258 5.26409 8.1128 5.78504 7.0236 7.69715C6.23016 9.09002 6.23016 10.9014 7.0236 12.2943L5.49503 14.0758ZM11.9286 8.93027C12.0683 9.26342 12.1416 9.62916 12.1428 10C12.1428 11.3793 11.1835 12.4975 10 12.4975C9.6818 12.4961 9.36799 12.4106 9.08214 12.2477L11.9286 8.93027ZM8.07145 11.0697C7.93167 10.7366 7.85838 10.3708 7.85717 9.99998C7.85717 8.62067 8.81655 7.50253 10 7.50253C10.3182 7.50394 10.632 7.58935 10.9179 7.75227L8.07145 11.0697ZM10 15.8274C8.88636 15.8011 7.7915 15.4884 6.79362 14.9117L8.03362 13.4665C9.67423 14.7359 11.8872 14.215 12.9764 12.3028C13.7698 10.91 13.7698 9.09855 12.9764 7.70569L14.505 5.92416C15.9601 7.05367 17.2643 8.42707 18.3757 9.99998C17.3242 11.4843 13.9142 15.8274 10 15.8274Z" fill="white"/>
</svg>
