<svg width="20" height="20" viewBox="0 0 20 20" fill="none" xmlns="http://www.w3.org/2000/svg">
<path d="M14.1645 16.667C13.4153 16.667 13.0912 16.4078 12.6012 16.0162C12.0345 15.5637 11.3303 15.0003 9.99533 15.0003C8.66116 15.0003 7.95699 15.5637 7.39116 16.017C6.90199 16.4078 6.57866 16.667 5.82949 16.667C5.08199 16.667 4.75866 16.4078 4.26949 16.017C3.70366 15.5637 3.00116 15.0003 1.66699 15.0003V16.667C2.41533 16.667 2.73866 16.9262 3.22783 17.317C3.79366 17.7703 4.49699 18.3337 5.82949 18.3337C7.16366 18.3337 7.86699 17.7703 8.43283 17.3178C8.92283 16.9262 9.24616 16.667 9.99533 16.667C10.7453 16.667 11.0878 16.9403 11.5603 17.3178C12.1262 17.7703 12.8303 18.3337 14.1645 18.3337C15.4987 18.3337 16.2028 17.7703 16.7687 17.3178C17.2412 16.9403 17.5837 16.667 18.3337 16.667V15.0003C16.9987 15.0003 16.2945 15.5637 15.7278 16.0162C15.2378 16.4078 14.9137 16.667 14.1645 16.667ZM5.00033 7.08366L3.33366 7.50033L5.00033 14.167C5.00033 14.167 5.57366 14.167 5.82949 14.167C7.16366 14.167 7.86699 13.6037 8.43283 13.1512C8.92283 12.7595 9.24616 12.5003 9.99533 12.5003C10.7453 12.5003 11.0878 12.7737 11.5603 13.1512C12.1262 13.6037 12.8303 14.167 14.1645 14.167C14.4228 14.167 15.0003 14.167 15.0003 14.167L15.0228 14.0778L15.2837 13.0345L16.667 7.50033L15.0003 7.08366V4.16783C15.0003 3.76949 14.7195 3.42783 14.3303 3.35033L10.8337 2.65116V1.66699H9.16699V2.65116L5.67033 3.35033C5.28116 3.42783 5.00033 3.76949 5.00033 4.16783V7.08366ZM6.66699 4.84949L10.0003 4.18283L13.3337 4.84949V6.66699L10.0003 5.83366L6.66699 6.66699V4.84949Z" fill="#C80068"/>
</svg>
