<svg width="15" height="16" viewBox="0 0 15 16" fill="none" xmlns="http://www.w3.org/2000/svg">
<path d="M0.65 13.0398V12.8656C1.21777 12.9904 1.58036 13.2739 1.94114 13.5568L1.94182 13.5574C1.95005 13.5638 1.95833 13.5703 1.96667 13.5768C2.16853 13.7348 2.40141 13.9171 2.67936 14.0485C2.99018 14.1953 3.32821 14.268 3.74625 14.268C4.16482 14.268 4.50318 14.1954 4.81425 14.0486C5.0925 13.9172 5.32546 13.7348 5.52734 13.5768C5.53567 13.5703 5.54395 13.5638 5.55218 13.5574L5.55286 13.5568C6.03458 13.179 6.52151 12.7997 7.4955 12.7997C8.4704 12.7997 8.95736 13.1791 9.44046 13.5567C9.44825 13.5628 9.45608 13.569 9.46395 13.5751C9.66668 13.7339 9.90028 13.9168 10.1794 14.0485C10.4907 14.1954 10.8292 14.268 11.2477 14.268C11.6663 14.268 12.0048 14.1954 12.3161 14.0485C12.5952 13.9168 12.8288 13.7339 13.0315 13.5751C13.0394 13.569 13.0473 13.5628 13.055 13.5567C13.4168 13.274 13.7807 12.9902 14.35 12.8655V13.041C14.1992 13.0779 14.0584 13.1287 13.9236 13.1926C13.6428 13.3258 13.4097 13.5082 13.2126 13.6625C13.2053 13.6681 13.1982 13.6737 13.1911 13.6793L13.1908 13.6795C12.7088 14.0569 12.2218 14.4362 11.2477 14.4362C10.2737 14.4362 9.78674 14.0569 9.30466 13.6795L9.30442 13.6793C9.29731 13.6737 9.29014 13.6681 9.28293 13.6625C9.08583 13.5082 8.85272 13.3258 8.57193 13.1926C8.26115 13.0452 7.91869 12.968 7.4955 12.968C7.07691 12.968 6.73851 13.0405 6.4273 13.1875C6.14889 13.319 5.91571 13.5016 5.71344 13.66C5.70515 13.6665 5.6969 13.673 5.68871 13.6794L5.68859 13.6795C5.20633 14.057 4.72019 14.4362 3.74625 14.4362C2.77401 14.4362 2.28794 14.0572 1.80586 13.6791L1.80518 13.6786C1.79695 13.6721 1.78867 13.6657 1.78033 13.6591C1.57846 13.5011 1.34554 13.3188 1.06745 13.1874C0.934641 13.1247 0.796865 13.0755 0.65 13.0398ZM3.1545 5.8068L3.65 5.68555V5.17543V2.6067C3.65 2.57614 3.67316 2.53507 3.72736 2.52451L3.72785 2.52441L6.87485 1.90847L7.4 1.80569V1.27058V1.05356H7.6V1.27058V1.80569L8.12515 1.90847L11.2721 2.52441L11.2726 2.52451C11.3268 2.53507 11.35 2.57614 11.35 2.6067V5.17543V5.68555L11.8455 5.8068L12.7078 6.01781L11.6252 10.257L11.6252 10.2571L11.4953 10.7656H11.4941H11.4922H11.4903H11.4883H11.4864H11.4845H11.4825H11.4806H11.4787H11.4768H11.4749H11.4729H11.471H11.4691H11.4672H11.4653H11.4634H11.4615H11.4596H11.4577H11.4558H11.4539H11.452H11.4501H11.4482H11.4463H11.4444H11.4425H11.4406H11.4387H11.4369H11.435H11.4331H11.4312H11.4294H11.4275H11.4256H11.4238H11.4219H11.4201H11.4182H11.4164H11.4145H11.4127H11.4108H11.409H11.4072H11.4053H11.4035H11.4017H11.3999H11.398H11.3962H11.3944H11.3926H11.3908H11.389H11.3872H11.3854H11.3836H11.3818H11.38H11.3782H11.3765H11.3747H11.3729H11.3712H11.3694H11.3676H11.3659H11.3641H11.3624H11.3606H11.3589H11.3572H11.3554H11.3537H11.352H11.3503H11.3485H11.3468H11.3451H11.3434H11.3417H11.34H11.3383H11.3366H11.335H11.3333H11.3316H11.33H11.3283H11.3266H11.325H11.3233H11.3217H11.32H11.3184H11.3168H11.3152H11.3135H11.3119H11.3103H11.3087H11.3071H11.3055H11.3039H11.3024H11.3008H11.2992H11.2976H11.2961H11.2945H11.293H11.2914H11.2899H11.2883H11.2868H11.2853H11.2838H11.2823H11.2807H11.2792H11.2778H11.2763H11.2748H11.2733H11.2718H11.2704H11.2689H11.2674H11.266H11.2646H11.2631H11.2617H11.2603H11.2589H11.2574H11.256H11.2546H11.2533H11.2519H11.2505H11.2491H11.2477C10.2737 10.7656 9.78674 10.3862 9.30466 10.0088L9.30442 10.0086C9.29731 10.0031 9.29015 9.99747 9.28294 9.99183C9.08583 9.83757 8.85272 9.65513 8.57193 9.52197C8.26115 9.37458 7.91869 9.2973 7.4955 9.2973C7.07691 9.2973 6.73851 9.36986 6.4273 9.51685C6.14889 9.64835 5.91572 9.83096 5.71345 9.98936C5.70515 9.99586 5.69691 10.0023 5.68871 10.0087L5.68859 10.0088C5.20633 10.3863 4.72019 10.7656 3.74625 10.7656H3.7449H3.74354H3.74217H3.7408H3.73942H3.73804H3.73665H3.73525H3.73385H3.73244H3.73102H3.7296H3.72817H3.72674H3.7253H3.72385H3.7224H3.72094H3.71948H3.71801H3.71653H3.71505H3.71356H3.71207H3.71057H3.70907H3.70756H3.70604H3.70452H3.70299H3.70146H3.69993H3.69838H3.69683H3.69528H3.69372H3.69216H3.69059H3.68901H3.68744H3.68585H3.68426H3.68267H3.68107H3.67946H3.67785H3.67624H3.67462H3.67299H3.67137H3.66973H3.66809H3.66645H3.6648H3.66315H3.66149H3.65983H3.65817H3.6565H3.65482H3.65314H3.65146H3.64977H3.64808H3.64638H3.64468H3.64298H3.64127H3.63955H3.63784H3.63612H3.63439H3.63266H3.63093H3.62919H3.62745H3.62571H3.62396H3.62221H3.62045H3.61869H3.61693H3.61516H3.61339H3.61162H3.60984H3.60806H3.60627H3.60449H3.6027H3.6009H3.5991H3.5973H3.5955H3.59369H3.59188H3.59007H3.58825H3.58643H3.58461H3.58278H3.58096H3.57912H3.57729H3.57545H3.57361H3.57177H3.56993H3.56808H3.56623H3.56438H3.56252H3.56066H3.5588H3.55694H3.55507H3.55321H3.55133H3.54946H3.54759H3.54571H3.54383H3.54195H3.54007H3.53818H3.53629H3.5344H3.53251H3.53062H3.52872H3.52682H3.52493H3.52302H3.52112H3.51922H3.51731H3.5154H3.51349H3.51158H3.50967H3.50776H3.50584H3.50485L2.29226 6.0178L3.1545 5.8068ZM12 2.6067C12 2.25578 11.7472 1.95479 11.397 1.88651L12.8686 5.38799L12 5.17543V2.6067ZM4.37512 2.56933L3.85 2.67213V3.20722V4.80836V5.63661L4.6545 5.43974L7.5 4.74341L10.3455 5.43974L11.15 5.63661V4.80836V3.20722V2.67213L10.6249 2.56933L7.62488 1.98202L7.5 1.95757L7.37512 1.98202L4.37512 2.56933Z" fill="#0842FF" stroke="#0842FF" stroke-width="1.3"/>
</svg>
