<svg width="20" height="20" viewBox="0 0 20 20" fill="none" xmlns="http://www.w3.org/2000/svg">
<path d="M4.16667 1.66699C3.2475 1.66699 2.5 2.41449 2.5 3.33366V13.3337C2.5 14.2528 3.2475 15.0003 4.16667 15.0003H7.155L10 17.8453L12.845 15.0003H15.8333C16.7525 15.0003 17.5 14.2528 17.5 13.3337V3.33366C17.5 2.41449 16.7525 1.66699 15.8333 1.66699H4.16667ZM15.8333 13.3337H12.155L10 15.4887L7.845 13.3337H4.16667V3.33366H15.8333V13.3337Z" fill="#AD45FF"/>
<path d="M9.1665 5H10.8332V10H9.1665V5ZM9.1665 10.8333H10.8332V12.5H9.1665V10.8333Z" fill="#AD45FF"/>
</svg>
