<svg width="20" height="20" viewBox="0 0 20 20" fill="none" xmlns="http://www.w3.org/2000/svg">
<path d="M10 3.3335C5.72427 3.3335 2.00024 6.01899 0 10.0002C2.00024 13.9822 5.72427 16.6667 10 16.6667C14.2757 16.6667 17.9998 13.9822 20 10.0002C17.9998 6.01924 14.2757 3.3335 10 3.3335ZM10 15.0002C6.78223 15.0002 3.74351 13.1047 1.89873 10.0002C3.74346 6.89575 6.78223 5.00024 10 5.00024C13.2177 5.00024 16.2565 6.89575 18.1013 10.0002C16.2565 13.1047 13.2177 15.0002 10 15.0002Z" fill="white"/>
<path d="M10 6.25C7.92798 6.25 6.25 7.92798 6.25 10C6.25 12.0712 7.92798 13.75 10 13.75C12.071 13.75 13.75 12.0712 13.75 10C13.75 7.92798 12.071 6.25 10 6.25ZM10 12.0835C8.84927 12.0835 7.91675 11.151 7.91675 10C7.91675 8.84927 8.84927 7.91675 10 7.91675C11.1507 7.91675 12.0833 8.84927 12.0833 10C12.0833 11.151 11.1507 12.0835 10 12.0835Z" fill="white"/>
</svg>
