<svg width="16" height="16" viewBox="0 0 16 16" fill="none" xmlns="http://www.w3.org/2000/svg">
<path d="M14.6667 0.666626H1.33334C0.598312 0.666626 0 1.26463 0 1.99997V11.3333C0 12.0687 0.598312 12.6667 1.33334 12.6667H6.0015C5.9875 13.1985 5.88594 14.0492 5.50456 14.4508C5.36459 14.598 5.20444 14.6667 5 14.6667C4.81575 14.6667 4.66666 14.8158 4.66666 15C4.66666 15.1843 4.81575 15.3333 5 15.3333H11C11.1842 15.3333 11.3333 15.1843 11.3333 15C11.3333 14.8158 11.1842 14.6667 11 14.6667C10.7956 14.6667 10.6354 14.5983 10.4961 14.4512C10.1157 14.0515 10.0134 13.1996 9.99891 12.6667H14.6667C15.4017 12.6667 16 12.0687 16 11.3333V1.99997C16 1.26463 15.4017 0.666626 14.6667 0.666626ZM8 12.0019C7.6315 12.0019 7.33138 11.7018 7.33138 11.3333C7.33138 10.9648 7.6315 10.6647 8 10.6647C8.3685 10.6647 8.66862 10.9648 8.66862 11.3333C8.66862 11.7018 8.3685 12.0019 8 12.0019ZM2 9.99997V2.49997H14V9.99997H2Z" fill="white"/>
</svg>
