<svg width="20" height="20" viewBox="0 0 20 20" fill="none" xmlns="http://www.w3.org/2000/svg">
<path fill-rule="evenodd" clip-rule="evenodd" d="M17.6923 10.9091H2.3077C1.69603 10.9112 1.10974 11.1983 0.676085 11.7081C0.461081 11.9607 0.290617 12.2612 0.174566 12.5922C0.0585157 12.9232 -0.000815697 13.2781 8.4698e-06 13.6364V17.2727C-0.000815697 17.631 0.0585157 17.9859 0.174566 18.3169C0.290617 18.6479 0.461081 18.9484 0.676085 19.201C1.10974 19.7108 1.69603 19.9979 2.3077 20H17.6923C18.304 19.9979 18.8903 19.7108 19.3239 19.201C19.5389 18.9484 19.7094 18.6479 19.8254 18.3169C19.9415 17.9859 20.0008 17.631 20 17.2727V13.6364C20.0008 13.2781 19.9415 12.9232 19.8254 12.5922C19.7094 12.2612 19.5389 11.9607 19.3239 11.7081C18.8903 11.1983 18.304 10.9112 17.6923 10.9091V10.9091ZM18.4615 17.2727C18.4615 17.5138 18.3805 17.7451 18.2362 17.9156C18.092 18.086 17.8963 18.1818 17.6923 18.1818H2.3077C2.10369 18.1818 1.90803 18.086 1.76377 17.9156C1.61951 17.7451 1.53847 17.5138 1.53847 17.2727V13.6364C1.53847 13.3953 1.61951 13.164 1.76377 12.9935C1.90803 12.8231 2.10369 12.7273 2.3077 12.7273H17.6923C17.8963 12.7273 18.092 12.8231 18.2362 12.9935C18.3805 13.164 18.4615 13.3953 18.4615 13.6364V17.2727Z" fill="#615E69"/>
<path fill-rule="evenodd" clip-rule="evenodd" d="M19.3239 0.799C18.8903 0.289194 18.304 0.00208791 17.6923 0H2.3077C1.69603 0.00208791 1.10974 0.289194 0.676085 0.799C0.461081 1.05159 0.290617 1.35209 0.174566 1.68308C0.0585157 2.01407 -0.000815697 2.36899 8.4698e-06 2.72727V6.36364C-0.000815697 6.72192 0.0585157 7.07683 0.174566 7.40783C0.290617 7.73882 0.461081 8.03932 0.676085 8.29191C1.10974 8.80172 1.69603 9.08882 2.3077 9.09091H17.6923C18.304 9.08882 18.8903 8.80172 19.3239 8.29191C19.5389 8.03932 19.7094 7.73882 19.8254 7.40783C19.9415 7.07683 20.0008 6.72192 20 6.36364V2.72727C20.0008 2.36899 19.9415 2.01407 19.8254 1.68308C19.7094 1.35209 19.5389 1.05159 19.3239 0.799V0.799ZM18.4615 6.36364C18.4615 6.60474 18.3805 6.83597 18.2362 7.00646C18.092 7.17695 17.8963 7.27273 17.6923 7.27273H2.3077C2.10369 7.27273 1.90803 7.17695 1.76377 7.00646C1.61951 6.83597 1.53847 6.60474 1.53847 6.36364V2.72727C1.53847 2.48617 1.61951 2.25494 1.76377 2.08445C1.90803 1.91396 2.10369 1.81818 2.3077 1.81818H17.6923C17.8963 1.81818 18.092 1.91396 18.2362 2.08445C18.3805 2.25494 18.4615 2.48617 18.4615 2.72727V6.36364Z" fill="#615E69"/>
<path fill-rule="evenodd" clip-rule="evenodd" d="M13.077 14.5455H3.8462C3.64218 14.5455 3.44653 14.6412 3.30227 14.8117C3.15801 14.9822 3.07697 15.2134 3.07697 15.4545C3.07697 15.6957 3.15801 15.9269 3.30227 16.0974C3.44653 16.2679 3.64218 16.3636 3.8462 16.3636H13.077C13.281 16.3636 13.4766 16.2679 13.6209 16.0974C13.7651 15.9269 13.8462 15.6957 13.8462 15.4545C13.8462 15.2134 13.7651 14.9822 13.6209 14.8117C13.4766 14.6412 13.281 14.5455 13.077 14.5455Z" fill="#615E69"/>
<path fill-rule="evenodd" clip-rule="evenodd" d="M13.077 3.63636H3.8462C3.64218 3.63636 3.44653 3.73214 3.30227 3.90263C3.15801 4.07311 3.07697 4.30435 3.07697 4.54545C3.07697 4.78656 3.15801 5.01779 3.30227 5.18828C3.44653 5.35876 3.64218 5.45454 3.8462 5.45454H13.077C13.281 5.45454 13.4766 5.35876 13.6209 5.18828C13.7651 5.01779 13.8462 4.78656 13.8462 4.54545C13.8462 4.30435 13.7651 4.07311 13.6209 3.90263C13.4766 3.73214 13.281 3.63636 13.077 3.63636Z" fill="#615E69"/>
</svg>
