<svg width="120" height="40" viewBox="0 0 120 40" fill="none" xmlns="http://www.w3.org/2000/svg">
<rect width="120" height="40" rx="6" fill="#3B9FF3"/>
<path d="M21.3682 25H23.1318V21.3086H25.0391L26.9805 25H28.9902L26.8369 21.042C27.9854 20.625 28.6963 19.5518 28.6963 18.2256V18.2119C28.6963 16.3047 27.4111 15.1357 25.3057 15.1357H21.3682V25ZM23.1318 19.9141V16.5645H25.0869C26.1943 16.5645 26.8916 17.1934 26.8916 18.2256V18.2393C26.8916 19.2988 26.2354 19.9141 25.1211 19.9141H23.1318ZM33.0918 25.1436C34.9854 25.1436 36.0518 24.0225 36.2773 22.9082L36.2979 22.833H34.7051L34.6914 22.8809C34.5273 23.3662 33.9736 23.8174 33.126 23.8174C32.0186 23.8174 31.3213 23.0654 31.2939 21.7939H36.3662V21.2471C36.3662 19.0596 35.0811 17.6035 33.0098 17.6035C30.9385 17.6035 29.6055 19.1074 29.6055 21.3906V21.3975C29.6055 23.7012 30.918 25.1436 33.0918 25.1436ZM33.0303 18.9365C33.9326 18.9365 34.5889 19.5107 34.7119 20.6592H31.3145C31.4512 19.5449 32.1279 18.9365 33.0303 18.9365ZM37.9385 25H39.6406V19.0664H41.0625V17.7539H39.6064V17.1113C39.6064 16.5234 39.9141 16.2158 40.5771 16.2158C40.7617 16.2158 40.9531 16.2295 41.0898 16.25V15.0605C40.8779 15.0195 40.5156 14.9922 40.1807 14.9922C38.6084 14.9922 37.9385 15.6484 37.9385 17.0635V17.7539H36.9473V19.0664H37.9385V25ZM42.1836 25H43.8857V20.7959C43.8857 19.7227 44.4668 19.1143 45.4307 19.1143C45.7178 19.1143 45.9775 19.1553 46.1211 19.21V17.6719C45.9912 17.6377 45.793 17.6035 45.5811 17.6035C44.7471 17.6035 44.1455 18.1299 43.9199 19.0049H43.8857V17.7539H42.1836V25ZM49.9082 25.1436C51.8018 25.1436 52.8682 24.0225 53.0938 22.9082L53.1143 22.833H51.5215L51.5078 22.8809C51.3438 23.3662 50.79 23.8174 49.9424 23.8174C48.835 23.8174 48.1377 23.0654 48.1104 21.7939H53.1826V21.2471C53.1826 19.0596 51.8975 17.6035 49.8262 17.6035C47.7549 17.6035 46.4219 19.1074 46.4219 21.3906V21.3975C46.4219 23.7012 47.7344 25.1436 49.9082 25.1436ZM49.8467 18.9365C50.749 18.9365 51.4053 19.5107 51.5283 20.6592H48.1309C48.2676 19.5449 48.9443 18.9365 49.8467 18.9365ZM57.1133 25.1436C58.8906 25.1436 60.1553 24.2275 60.1553 22.8604V22.8535C60.1553 21.8008 59.5742 21.2129 58.0771 20.8779L56.8672 20.6113C56.1152 20.4404 55.835 20.167 55.835 19.75V19.7432C55.835 19.21 56.3066 18.8613 57.0586 18.8613C57.8516 18.8613 58.3164 19.2852 58.3916 19.8662L58.3984 19.9209H59.9844L59.9775 19.8457C59.916 18.5947 58.8633 17.6035 57.0586 17.6035C55.3086 17.6035 54.1533 18.499 54.1533 19.8252V19.832C54.1533 20.9053 54.8506 21.582 56.2383 21.8896L57.4414 22.1562C58.1934 22.3271 58.4463 22.5732 58.4463 23.0107V23.0176C58.4463 23.5508 57.9473 23.8857 57.1201 23.8857C56.2588 23.8857 55.7871 23.5166 55.6572 22.8945L55.6436 22.833H53.9688L53.9756 22.8945C54.126 24.2412 55.2129 25.1436 57.1133 25.1436ZM61.29 25H62.9922V20.8232C62.9922 19.7705 63.6211 19.0391 64.585 19.0391C65.5625 19.0391 66.123 19.709 66.123 20.8232V25H67.8252V20.4883C67.8252 18.7383 66.8271 17.6035 65.2686 17.6035C64.1816 17.6035 63.4092 18.1025 63.0332 18.9707H62.9922V15.1357H61.29V25ZM74.6953 25.1436C75.7412 25.1436 76.541 24.624 76.9512 23.7695H76.9922V25H78.6943V15.1357H76.9922V18.998H76.9512C76.541 18.1299 75.7139 17.6035 74.6885 17.6035C72.8701 17.6035 71.7012 19.0322 71.7012 21.3701V21.377C71.7012 23.708 72.8633 25.1436 74.6953 25.1436ZM75.208 23.708C74.1143 23.708 73.4375 22.8193 73.4375 21.377V21.3701C73.4375 19.9277 74.1211 19.0391 75.208 19.0391C76.2539 19.0391 76.9922 19.9551 76.9922 21.3701V21.377C76.9922 22.7988 76.2607 23.708 75.208 23.708ZM82.2627 25.123C83.2197 25.123 84.0264 24.6445 84.4434 23.8857H84.4844V25H86.1865V20.0166C86.1865 18.5605 85.0176 17.6035 83.2061 17.6035C81.3672 17.6035 80.2529 18.5674 80.1504 19.8525L80.1436 19.9346H81.7227L81.7363 19.873C81.8457 19.3398 82.3379 18.9639 83.1445 18.9639C84.0059 18.9639 84.4844 19.4082 84.4844 20.1396V20.6387L82.5908 20.7549C80.834 20.8643 79.8359 21.6367 79.8359 22.9219V22.9355C79.8359 24.2275 80.8135 25.123 82.2627 25.123ZM81.5312 22.8672V22.8604C81.5312 22.2861 81.9893 21.9238 82.8301 21.8691L84.4844 21.7666V22.3135C84.4844 23.1748 83.7461 23.8242 82.7686 23.8242C82.0234 23.8242 81.5312 23.4619 81.5312 22.8672ZM90.2539 25.1436C90.5957 25.1436 90.8965 25.1094 91.0947 25.082V23.8037C90.9785 23.8105 90.8486 23.8311 90.6846 23.8311C90.0625 23.8311 89.748 23.6055 89.748 22.8945V19.0664H91.0947V17.7539H89.748V15.915H88.0186V17.7539H86.9932V19.0664H88.0186V23.0381C88.0186 24.5283 88.7363 25.1436 90.2539 25.1436ZM94.3076 25.123C95.2646 25.123 96.0713 24.6445 96.4883 23.8857H96.5293V25H98.2314V20.0166C98.2314 18.5605 97.0625 17.6035 95.251 17.6035C93.4121 17.6035 92.2979 18.5674 92.1953 19.8525L92.1885 19.9346H93.7676L93.7812 19.873C93.8906 19.3398 94.3828 18.9639 95.1895 18.9639C96.0508 18.9639 96.5293 19.4082 96.5293 20.1396V20.6387L94.6357 20.7549C92.8789 20.8643 91.8809 21.6367 91.8809 22.9219V22.9355C91.8809 24.2275 92.8584 25.123 94.3076 25.123ZM93.5762 22.8672V22.8604C93.5762 22.2861 94.0342 21.9238 94.875 21.8691L96.5293 21.7666V22.3135C96.5293 23.1748 95.791 23.8242 94.8135 23.8242C94.0684 23.8242 93.5762 23.4619 93.5762 22.8672Z" fill="white"/>
</svg>
