<svg width="15" height="14" viewBox="0 0 15 14" fill="none" xmlns="http://www.w3.org/2000/svg">
<path d="M14.0408 6.712L2.16883 0.779204C2.02257 0.706184 1.86008 0.671724 1.69677 0.679091C1.53346 0.686458 1.37473 0.735408 1.23564 0.8213C1.09654 0.907193 0.981684 1.02718 0.901952 1.1699C0.822219 1.31261 0.780253 1.47333 0.780029 1.6368V5.1952C0.780861 5.41531 0.856803 5.62853 0.995293 5.79961C1.13378 5.97069 1.32652 6.08936 1.54163 6.136L6.70005 7L1.54163 7.864C1.32652 7.91065 1.13378 8.02932 0.995293 8.2004C0.856803 8.37148 0.780861 8.5847 0.780029 8.8048V12.3632C0.780253 12.5267 0.822219 12.6874 0.901952 12.8301C0.981684 12.9728 1.09654 13.0928 1.23564 13.1787C1.37473 13.2646 1.53346 13.3136 1.69677 13.3209C1.86008 13.3283 2.02257 13.2938 2.16883 13.2208L14.0408 7.32C14.1048 7.29896 14.1606 7.25824 14.2001 7.20366C14.2396 7.14907 14.2609 7.0834 14.2609 7.016C14.2609 6.94861 14.2396 6.88294 14.2001 6.82835C14.1606 6.77377 14.1048 6.73305 14.0408 6.712Z" fill="white"/>
</svg>
