<svg width="77" height="66" viewBox="0 0 77 66" fill="none" xmlns="http://www.w3.org/2000/svg">
<path d="M57.728 35.3877L52.636 44.6957L57.72 35.3997L57.728 35.3877Z" fill="#EF8300"/>
<path d="M75.484 49.8799H74.14L70.036 65.9959L54.068 60.3279C54.068 60.3279 53.996 60.4879 53.892 60.6759L53.588 60.4079L53.34 60.1879L44.576 61.0359L44.524 59.2399V59.2359L43.572 57.7919H39.06V50.4479H41.74V49.9959H42.32L44.296 51.6959L44.324 52.0719L52.632 48.1719H60.804L75.452 49.8519L75.484 49.8799Z" fill="#EF8300"/>
<path d="M73.284 23.5839L71.34 25.2239L72.988 26.4199L71.196 28.4359L72.16 29.5519L69.252 32.9039L69.312 33.0959L54.2 28.9719L43.96 19.5159L50.044 14.8959L69.344 0.223906H69.352L69.852 0.00390625L73.656 11.3479L72.016 22.4639L73.284 23.5839Z" fill="#733800"/>
<path d="M75.484 49.88H74.14L70.036 65.996L54.068 60.328C54.068 60.328 53.996 60.488 53.892 60.676L53.588 60.408L53.34 60.188L44.332 52.112L44.296 52.084L44.324 52.068L52.632 48.168H60.804L75.452 49.848L75.484 49.88Z" fill="#DC7600"/>
<path d="M53.344 60.1881L44.576 61.0361L44.524 59.2401V59.2361L44.3 52.0801L44.332 52.1121L53.344 60.1881Z" fill="#D4C2B1"/>
<path d="M60.804 48.168L53.592 60.408L52.636 48.168H60.804Z" fill="#C66100"/>
<path d="M69.344 0.223633L50.044 14.8956L43.96 19.5156L47.692 9.62763H47.768L48.408 9.35163L69.344 0.223633Z" fill="#DC7600"/>
<path d="M59.404 35.1438L58.06 34.7718L57.72 35.3958L52.636 44.6918L51.948 40.6638L44.636 42.6758L42.772 46.4078L43.368 35.2878L41.8 33.4238L43.512 34.8398L43.96 19.5078L54.2 28.9598C54.2 28.9598 58.06 33.7198 58.436 34.0158C58.808 34.3238 59.404 35.1438 59.404 35.1438Z" fill="#DC7600"/>
<path d="M58.06 34.7764L57.72 35.4004L52.636 44.6964L51.948 40.6724L44.636 42.6804L42.772 46.4164L43.452 35.7964L43.512 34.8484L58.06 34.7764Z" fill="#C66100"/>
<path d="M44.636 42.6794L46.872 38.7074L46.144 37.8154L51.948 40.6714L44.636 42.6794Z" fill="#263344"/>
<path d="M44.636 42.6799L42.772 46.4159L43.364 35.2959L43.452 35.7959L44.636 42.6799Z" fill="#DC7312"/>
<path d="M57.728 35.3877L52.636 44.6957L51.948 40.6717L57.72 35.3997L57.728 35.3877Z" fill="#DC7312"/>
<path d="M76.232 48.7994L74.852 48.5354V47.9794L73.952 48.3514L69.312 33.0954L54.2 28.9714C54.2 28.9714 58.06 33.7314 58.436 34.0274C58.808 34.3234 59.404 35.1434 59.404 35.1434L58.06 34.7714L57.72 35.3954L57.728 35.3874L52.632 44.6954L51.944 40.6674L44.632 42.6794L42.768 46.4114L43.364 35.2914L41.796 33.4274L43.508 34.8434L43.956 19.5114L47.684 9.62342L39.396 9.60742H39.212H39.056L29.304 9.62342L33.032 19.5114L33.48 34.8434L35.192 33.4274L33.624 35.2914L34.22 46.4114L32.356 42.6794L25.044 40.6674L24.356 44.6954L19.26 35.3874L19.268 35.3954L18.928 34.7714L17.584 35.1434C17.584 35.1434 18.18 34.3234 18.552 34.0274C18.928 33.7314 22.788 28.9714 22.788 28.9714L7.676 33.0954L3.036 48.3514L2.136 47.9794V48.5354L0.755997 48.7994L2.136 49.2834L1.536 49.8434L16.184 48.1634H24.356L32.664 52.0634L32.692 51.6874L34.668 49.9874H35.26V50.4394H39.064H39.404H41.74V49.9874H42.32L44.296 51.6874L44.324 52.0634L52.632 48.1634H60.804L75.452 49.8434L74.852 49.2834L76.232 48.7994Z" fill="#EF8300"/>
<path d="M19.272 35.3877L24.364 44.6957L19.28 35.3997L19.272 35.3877Z" fill="#EF8300"/>
<path d="M53.592 60.408L53.344 60.188L44.58 61.036L44.528 59.24V59.236L43.576 57.792H39.896H39.06H33.428L32.476 59.236V59.24L32.424 61.036L23.66 60.188L23.412 60.408L23.108 60.676C23.288 61 23.544 61.4 23.64 61.184C23.788 60.852 23.976 60.364 23.976 60.364L32.816 64.54H39.06H39.888H44.184L53.024 60.364C53.024 60.364 53.216 60.852 53.36 61.184C53.456 61.4 53.712 61 53.892 60.676L53.592 60.408Z" fill="#BEAC9C"/>
<path d="M1.51599 49.8799H2.85999L6.96399 65.9959L22.932 60.3279C22.932 60.3279 23.004 60.4879 23.108 60.6759L23.412 60.4079L23.66 60.1879L32.424 61.0359L32.476 59.2399V59.2359L33.428 57.7919H37.94V50.4479H35.26V49.9959H34.68L32.704 51.6959L32.676 52.0719L24.368 48.1719H16.196L1.54799 49.8519L1.51599 49.8799Z" fill="#EF8300"/>
<path d="M3.71599 23.5839L5.65999 25.2239L4.01199 26.4199L5.80399 28.4359L4.83999 29.5519L7.74799 32.9039L7.68799 33.0959L22.8 28.9719L33.04 19.5159L26.956 14.8959L7.65599 0.223906H7.64799L7.14799 0.00390625L3.34399 11.3479L4.98399 22.4639L3.71599 23.5839Z" fill="#733800"/>
<path d="M1.51599 49.88H2.85999L6.96399 65.996L22.932 60.328C22.932 60.328 23.004 60.488 23.108 60.676L23.412 60.408L23.66 60.188L32.668 52.112L32.704 52.084L32.676 52.068L24.368 48.168H16.196L1.54799 49.848L1.51599 49.88Z" fill="#DC7600"/>
<path d="M23.656 60.1881L32.424 61.0361L32.476 59.2401V59.2361L32.7 52.0801L32.668 52.1121L23.656 60.1881Z" fill="#D4C2B1"/>
<path d="M16.196 48.168L23.408 60.408L24.364 48.168H16.196Z" fill="#C66100"/>
<path d="M7.65599 0.223633L26.956 14.8956L33.04 19.5156L29.308 9.62763H29.232L28.592 9.35163L7.65599 0.223633Z" fill="#DC7600"/>
<path d="M17.596 35.1438L18.94 34.7718L19.28 35.3958L24.364 44.6918L25.052 40.6638L32.364 42.6758L34.228 46.4078L33.632 35.2878L35.2 33.4238L33.488 34.8398L33.04 19.5078L22.8 28.9598C22.8 28.9598 18.94 33.7198 18.564 34.0158C18.192 34.3238 17.596 35.1438 17.596 35.1438Z" fill="#DC7600"/>
<path d="M18.94 34.7764L19.28 35.4004L24.364 44.6964L25.052 40.6724L32.364 42.6804L34.228 46.4164L33.548 35.7964L33.488 34.8484L18.94 34.7764Z" fill="#C66100"/>
<path d="M32.364 42.6794L30.128 38.7074L30.856 37.8154L25.052 40.6714L32.364 42.6794Z" fill="#263344"/>
<path d="M32.364 42.6799L34.228 46.4159L33.636 35.2959L33.548 35.7959L32.364 42.6799Z" fill="#DC7312"/>
<path d="M19.272 35.3877L24.364 44.6957L25.052 40.6717L19.28 35.3997L19.272 35.3877Z" fill="#DC7312"/>
<path d="M44.968 59.9202L44.332 52.1122L44.328 52.0682L44.3 51.6922L42.32 49.9922H41.74V50.4442H35.26V49.9922H34.68L32.7 51.6922L32.672 52.0682L32.668 52.1122L32.032 59.9202L32.476 59.2402V59.2362L33.428 57.7922H37.584H39.416H43.572L44.524 59.2362V59.2402L44.968 59.9202Z" fill="black"/>
</svg>
