<svg width="16" height="16" viewBox="0 0 16 16" fill="none" xmlns="http://www.w3.org/2000/svg">
<path d="M13.3335 1.33325H6.66683C5.9315 1.33325 5.3335 1.93125 5.3335 2.66659V5.33325H2.66683C1.9315 5.33325 1.3335 5.93125 1.3335 6.66659V13.3333C1.3335 14.0686 1.9315 14.6666 2.66683 14.6666H9.3335C10.0688 14.6666 10.6668 14.0686 10.6668 13.3333V10.6666H13.3335C14.0688 10.6666 14.6668 10.0686 14.6668 9.33325V2.66659C14.6668 1.93125 14.0688 1.33325 13.3335 1.33325ZM2.66683 13.3333V6.66659H9.3335L9.33483 13.3333H2.66683ZM13.3335 9.33325H10.6668V6.66659C10.6668 5.93125 10.0688 5.33325 9.3335 5.33325H6.66683V2.66659H13.3335V9.33325Z" fill="#F6BA5F"/>
</svg>
