<svg width="16" height="16" viewBox="0 0 16 16" fill="none" xmlns="http://www.w3.org/2000/svg">
<path d="M6.51547 8.5C6.51547 7.67157 7.18705 7 8.01547 7C8.8439 7 9.51547 7.67157 9.51547 8.5C9.51547 9.32843 8.8439 10 8.01547 10C7.18705 10 6.51547 9.32843 6.51547 8.5Z" fill="#616161"/>
<path fill-rule="evenodd" clip-rule="evenodd" d="M5.85355 3.43934C6.13486 3.15803 6.51639 3 6.91421 3H9.08579C9.48361 3 9.86514 3.15804 10.1464 3.43934L10.5607 3.85355C10.6544 3.94732 10.7816 4 10.9142 4H12.5C13.3287 4 14 4.67238 14 5.50049V11.4995C14 12.3276 13.3287 13 12.5 13H3.5C2.67157 13 2 12.3284 2 11.5V5.5C2 4.67157 2.67157 4 3.5 4H5.08579C5.21839 4 5.34557 3.94732 5.43934 3.85355L5.85355 3.43934ZM4.5 6C4.22386 6 4 6.22386 4 6.5C4 6.77614 4.22386 7 4.5 7H4.505C4.78114 7 5.005 6.77614 5.005 6.5C5.005 6.22386 4.78114 6 4.505 6H4.5ZM8.01547 6C6.63476 6 5.51547 7.11929 5.51547 8.5C5.51547 9.88071 6.63476 11 8.01547 11C9.39619 11 10.5155 9.88071 10.5155 8.5C10.5155 7.11929 9.39619 6 8.01547 6Z" fill="#616161"/>
</svg>
