<svg width="80" height="80" viewBox="0 0 80 80" fill="none" xmlns="http://www.w3.org/2000/svg">
<path d="M40.0002 10C31.7159 10 25.0002 16.7157 25.0002 25C25.0002 33.2843 31.7159 40 40.0002 40C48.2845 40 55.0002 33.2843 55.0002 25C55.0002 16.7157 48.2845 10 40.0002 10Z" fill="#F6F4E3"/>
<path d="M55.0002 45H25.0002C21.5593 45 18.2925 46.4883 16.3234 48.8978C14.2513 51.4334 13.678 54.9909 15.9107 58.2912C20.7026 65.3741 29.9015 70 40.0002 70C50.0989 70 59.2978 65.3741 64.0897 58.2912C66.3224 54.9909 65.7491 51.4334 63.677 48.8978C61.7079 46.4883 58.4411 45 55.0002 45Z" fill="#F6F4E3"/>
</svg>
