<svg width="15" height="16" viewBox="0 0 15 16" fill="none" xmlns="http://www.w3.org/2000/svg">
<g clip-path="url(#clip0_3033_3106)">
<path d="M1.71356 3.37693C1.41403 3.7139 1.25 4.13865 1.25 4.57728V11.6328C1.25 13.1862 2.59315 14.4453 4.25 14.4453H10.75C12.4069 14.4453 13.75 13.1862 13.75 11.6328V4.57728C13.75 4.13865 13.586 3.7139 13.2864 3.37693L12.2664 2.22934C11.8864 1.80186 11.3235 1.55469 10.7299 1.55469H4.27008C3.67652 1.55469 3.11363 1.80186 2.73364 2.22934L1.71356 3.37693Z" stroke="#1E62DC" stroke-width="1.5"/>
<path d="M1.25 4.19141H13.75" stroke="#1E62DC" stroke-width="1.5"/>
<path d="M10 6.82812C10 8.12254 8.88071 9.17188 7.5 9.17188C6.11929 9.17188 5 8.12254 5 6.82812" stroke="#1E62DC" stroke-width="1.5" stroke-linecap="round"/>
</g>
<defs>
<clipPath id="clip0_3033_3106">
<rect width="15" height="15" fill="white" transform="translate(0 0.5)"/>
</clipPath>
</defs>
</svg>
