<svg width="15" height="16" viewBox="0 0 15 16" fill="none" xmlns="http://www.w3.org/2000/svg">
<path d="M3.20115 13.2734C3.4374 13.495 3.75115 13.6168 4.0849 13.6168C4.41865 13.6168 4.7324 13.495 4.96865 13.2734L7.67865 10.7328C8.12615 10.8623 8.59053 10.9279 9.06428 10.9279C10.3162 10.9279 11.4937 10.4715 12.378 9.6418C13.7193 8.38379 14.1199 6.50762 13.398 4.86172L13.0418 4.04844L10.3893 6.53457L9.06365 5.29122L11.7155 2.80508L10.8474 2.47051C10.2787 2.25136 9.67803 2.14062 9.06178 2.14062C7.8099 2.14062 6.63303 2.59766 5.74865 3.42734C4.50803 4.58984 4.0724 6.28203 4.5849 7.83242L1.8749 10.373C1.3874 10.8295 1.3874 11.5737 1.8749 12.0301L3.20115 13.2734ZM6.04365 8.12247L5.8849 7.76153C5.3549 6.55391 5.64865 5.17754 6.6324 4.25586C7.28115 3.64766 8.14365 3.3125 9.06178 3.3125C9.1724 3.3125 9.28178 3.31719 9.39053 3.32715L7.2949 5.2918L10.388 8.19219L12.4849 6.22637C12.5824 7.16856 12.233 8.11953 11.493 8.81387C10.5243 9.72207 9.01553 10.0016 7.75303 9.51465L7.36865 9.36523L4.0849 12.445H4.08553L4.0849 13.0309V12.445L2.75865 11.2016L6.04365 8.12247Z" fill="#1E62DC"/>
</svg>
