<svg width="15" height="16" viewBox="0 0 15 16" fill="none" xmlns="http://www.w3.org/2000/svg">
<path d="M11.875 1.75H5.625C4.93563 1.75 4.375 2.31062 4.375 3V6.75H3.125C2.43562 6.75 1.875 7.31063 1.875 8V13.625C1.875 13.97 2.15438 14.25 2.5 14.25H7.5H12.5C12.8456 14.25 13.125 13.97 13.125 13.625V3C13.125 2.31062 12.5644 1.75 11.875 1.75ZM3.125 8H5H6.875V9.25V10.5V13H3.125V8ZM11.875 13H8.125V10.5V9.25V8C8.125 7.31063 7.56437 6.75 6.875 6.75H5.625V3H11.875V13Z" fill="#1E62DC"/>
<path d="M6.875 4.25H8.125V5.5H6.875V4.25ZM9.375 4.25H10.625V5.5H9.375V4.25ZM9.375 6.76938H10.625V8H9.375V6.76938ZM9.375 9.25H10.625V10.5H9.375V9.25ZM4.375 9.25063H5.625V10.5006H4.375V9.25063Z" fill="#1E62DC"/>
</svg>
