<svg width="15" height="16" viewBox="0 0 15 16" fill="none" xmlns="http://www.w3.org/2000/svg">
<ellipse cx="2.5" cy="7.29694" rx="1.25" ry="1.17188" stroke="#1E62DC" stroke-width="1.125"/>
<ellipse cx="12.5" cy="7.29694" rx="1.25" ry="1.17188" stroke="#1E62DC" stroke-width="1.125"/>
<path d="M4.375 12.1796C4.375 10.4537 5.77411 9.05463 7.5 9.05463V9.05463C9.22589 9.05463 10.625 10.4537 10.625 12.1796V13.1562H4.375V12.1796Z" stroke="#1E62DC" stroke-width="1.125"/>
<path d="M4.56486 11.1045L5.09303 11.298L5.19796 11.0116L5.01518 10.7674L4.56486 11.1045ZM4.375 13.1562H3.8125V13.7187H4.375V13.1562ZM5 13.1562H5.5625V12.5937H5V13.1562ZM5 13.1562V13.7188H5.5625V13.1562H5ZM0.625 13.1562H0.0625V13.7188H0.625V13.1562ZM4.9375 12.1796C4.9375 11.8688 4.99258 11.5722 5.09303 11.298L4.0367 10.911C3.89149 11.3073 3.8125 11.7349 3.8125 12.1796H4.9375ZM4.9375 13.1562V12.1796H3.8125V13.1562H4.9375ZM5 12.5937H4.375V13.7187H5V12.5937ZM4.4375 13.1562V13.1562H5.5625V13.1562H4.4375ZM5 12.5938H4.0625V13.7188H5V12.5938ZM4.0625 12.5938H0.625V13.7188H4.0625V12.5938ZM1.1875 13.1562V12.4141H0.0625V13.1562H1.1875ZM1.1875 12.4141C1.1875 11.5166 1.91504 10.7891 2.8125 10.7891V9.66406C1.29372 9.66406 0.0625 10.8953 0.0625 12.4141H1.1875ZM2.8125 10.7891C3.34475 10.7891 3.81722 11.0444 4.11454 11.4416L5.01518 10.7674C4.5146 10.0987 3.71423 9.66406 2.8125 9.66406V10.7891Z" fill="#1E62DC"/>
<path d="M10.4351 11.1045L9.90697 11.298L9.80204 11.0116L9.98482 10.7674L10.4351 11.1045ZM10.625 13.1562H11.1875V13.7187H10.625V13.1562ZM10 13.1562H9.4375V12.5937H10V13.1562ZM10 13.1562V13.7188H9.4375V13.1562H10ZM14.375 13.1562H14.9375V13.7188H14.375V13.1562ZM10.0625 12.1796C10.0625 11.8688 10.0074 11.5722 9.90697 11.298L10.9633 10.911C11.1085 11.3073 11.1875 11.7349 11.1875 12.1796H10.0625ZM10.0625 13.1562V12.1796H11.1875V13.1562H10.0625ZM10 12.5937H10.625V13.7187H10V12.5937ZM10.5625 13.1562V13.1562H9.4375V13.1562H10.5625ZM10 12.5938H10.9375V13.7188H10V12.5938ZM10.9375 12.5938H14.375V13.7188H10.9375V12.5938ZM13.8125 13.1562V12.4141H14.9375V13.1562H13.8125ZM13.8125 12.4141C13.8125 11.5166 13.085 10.7891 12.1875 10.7891V9.66406C13.7063 9.66406 14.9375 10.8953 14.9375 12.4141H13.8125ZM12.1875 10.7891C11.6552 10.7891 11.1828 11.0444 10.8855 11.4416L9.98482 10.7674C10.4854 10.0987 11.2858 9.66406 12.1875 9.66406V10.7891Z" fill="#1E62DC"/>
<g clip-path="url(#clip0_3033_3001)">
<path d="M3.75 4.36713L4.51875 4.40228C4.56418 4.0175 4.69429 3.64571 4.90085 3.31046C5.1074 2.97521 5.3859 2.68379 5.71875 2.45463L5.29875 1.84994C5.1975 1.68119 5.25 1.46674 5.4375 1.3683C5.625 1.27338 5.84625 1.32963 5.95125 1.49838L6.3 2.13823C6.67908 1.98544 7.08739 1.90664 7.5 1.90664C7.91261 1.90664 8.32091 1.98544 8.7 2.13823L9.04875 1.49838C9.15375 1.32963 9.375 1.27338 9.5625 1.3683C9.75 1.46674 9.8025 1.68119 9.70125 1.84994L9.28125 2.45463C9.6141 2.68379 9.89261 2.97521 10.0992 3.31046C10.3057 3.64571 10.4358 4.0175 10.4813 4.40228L11.25 4.36713C11.3495 4.36713 11.4448 4.40418 11.5152 4.4701C11.5855 4.53602 11.625 4.62546 11.625 4.71869C11.625 4.81192 11.5855 4.90136 11.5152 4.96728C11.4448 5.03323 11.3495 5.07025 11.25 5.07025L10.4813 5.0351C10.4358 5.41992 10.3057 5.79169 10.0992 6.12694C9.89261 6.46216 9.6141 6.7536 9.28125 6.98275L9.70125 7.58744C9.8025 7.75619 9.75 7.97064 9.5625 8.06908C9.375 8.164 9.15375 8.10775 9.04875 7.939L8.7 7.29916C8.32091 7.45195 7.91261 7.53073 7.5 7.53073C7.08739 7.53073 6.67908 7.45195 6.3 7.29916L5.95125 7.939C5.84625 8.10775 5.625 8.164 5.4375 8.06908C5.25 7.97064 5.1975 7.75619 5.29875 7.58744L5.71875 6.98275C5.3859 6.7536 5.1074 6.46216 4.90085 6.12694C4.69429 5.79169 4.56418 5.41992 4.51875 5.0351L3.75 5.07025C3.65054 5.07025 3.55516 5.03323 3.48483 4.96728C3.41451 4.90136 3.375 4.81192 3.375 4.71869C3.375 4.62546 3.41451 4.53602 3.48483 4.4701C3.55516 4.40418 3.65054 4.36713 3.75 4.36713ZM6.40125 4.49018C6.45 4.27572 6.57375 4.08588 6.75 3.94174L6.1275 3.04877C5.65701 3.3873 5.34834 3.88646 5.26875 4.43744L6.40125 4.49018ZM7.5 3.66401C7.62 3.66401 7.7325 3.68158 7.8375 3.71323L8.355 2.76752C8.0925 2.66557 7.80375 2.60932 7.5 2.60932C7.19625 2.60932 6.9075 2.66557 6.645 2.76752L7.1625 3.71323C7.2675 3.68158 7.38 3.66401 7.5 3.66401ZM8.59875 4.49018L9.73125 4.43744C9.65168 3.88646 9.34298 3.3873 8.8725 3.04877L8.25 3.94174C8.42625 4.08588 8.55 4.27572 8.59875 4.49018ZM8.59875 4.94721C8.55 5.16166 8.42625 5.3515 8.25 5.49564L8.8725 6.38861C9.34298 6.05009 9.65168 5.55094 9.73125 4.99994L8.59875 4.94721ZM7.5 5.77338C7.38 5.77338 7.2675 5.7558 7.15875 5.72416L6.645 6.66986C6.9075 6.77182 7.19625 6.82807 7.5 6.82807C7.80375 6.82807 8.0925 6.77182 8.355 6.66986L7.84125 5.72416C7.7325 5.7558 7.62 5.77338 7.5 5.77338ZM6.40125 4.94721L5.26875 4.99994C5.35125 5.56244 5.66625 6.05814 6.1275 6.38861L6.75 5.49564C6.57375 5.3515 6.45 5.16166 6.40125 4.94721Z" fill="#1E62DC"/>
</g>
<defs>
<clipPath id="clip0_3033_3001">
<rect width="9" height="8.4375" fill="white" transform="translate(3 0.5)"/>
</clipPath>
</defs>
</svg>
