<svg width="15" height="16" viewBox="0 0 15 16" fill="none" xmlns="http://www.w3.org/2000/svg">
<path d="M13.5662 3.80687L11.6919 1.93312C11.575 1.81562 11.4163 1.75 11.25 1.75H3.75C3.58375 1.75 3.425 1.81562 3.30813 1.93312L1.43375 3.80687C1.32 3.92 1.25 4.07625 1.25 4.24938V12.375C1.25 13.0644 1.81062 13.625 2.5 13.625H12.5C13.1894 13.625 13.75 13.0644 13.75 12.375V4.24938C13.75 4.07625 13.68 3.92 13.5662 3.80687ZM4.00875 3H10.9913L11.6156 3.62438H3.38438L4.00875 3ZM2.5 12.375V4.87438H12.5L12.5013 12.375H2.5Z" fill="#1E62DC"/>
<path d="M9.375 8H5.625V6.75H4.375V9.25H10.625V6.75H9.375V8Z" fill="#1E62DC"/>
</svg>
