<svg width="15" height="16" viewBox="0 0 15 16" fill="none" xmlns="http://www.w3.org/2000/svg">
<path d="M6.25 2.375H2.5C2.15438 2.375 1.875 2.65438 1.875 3V6.75C1.875 7.09562 2.15438 7.375 2.5 7.375H6.25C6.59562 7.375 6.875 7.09562 6.875 6.75V3C6.875 2.65438 6.59562 2.375 6.25 2.375ZM5.625 6.125H3.125V3.625H5.625V6.125ZM12.5 8.625H8.75C8.40438 8.625 8.125 8.90438 8.125 9.25V13C8.125 13.3456 8.40438 13.625 8.75 13.625H12.5C12.8456 13.625 13.125 13.3456 13.125 13V9.25C13.125 8.90438 12.8456 8.625 12.5 8.625ZM11.875 12.375H9.375V9.875H11.875V12.375ZM10.625 2.375C9.24625 2.375 8.125 3.49625 8.125 4.875C8.125 6.25375 9.24625 7.375 10.625 7.375C12.0037 7.375 13.125 6.25375 13.125 4.875C13.125 3.49625 12.0037 2.375 10.625 2.375ZM10.625 6.125C9.93563 6.125 9.375 5.56437 9.375 4.875C9.375 4.18562 9.93563 3.625 10.625 3.625C11.3144 3.625 11.875 4.18562 11.875 4.875C11.875 5.56437 11.3144 6.125 10.625 6.125ZM4.375 8.625C2.99625 8.625 1.875 9.74625 1.875 11.125C1.875 12.5037 2.99625 13.625 4.375 13.625C5.75375 13.625 6.875 12.5037 6.875 11.125C6.875 9.74625 5.75375 8.625 4.375 8.625ZM4.375 12.375C3.68562 12.375 3.125 11.8144 3.125 11.125C3.125 10.4356 3.68562 9.875 4.375 9.875C5.06437 9.875 5.625 10.4356 5.625 11.125C5.625 11.8144 5.06437 12.375 4.375 12.375Z" fill="#1E62DC"/>
</svg>
