<svg width="15" height="16" viewBox="0 0 15 16" fill="none" xmlns="http://www.w3.org/2000/svg">
<path d="M7.5 1.75C4.11188 1.75 1.25 4.61188 1.25 8C1.25 9.99312 2.245 11.7987 3.75 12.9525V13H3.81375C4.85625 13.7781 6.13312 14.25 7.5 14.25C8.86688 14.25 10.1438 13.7781 11.1863 13H11.25V12.9525C12.755 11.7987 13.75 9.99375 13.75 8C13.75 4.61188 10.8881 1.75 7.5 1.75ZM5.04625 12.3294C5.23188 11.4888 5.98 10.8581 6.875 10.8581H8.125C9.02 10.8581 9.76812 11.4894 9.95375 12.3294C9.22375 12.7525 8.385 13 7.5 13C6.615 13 5.77625 12.7525 5.04625 12.3294ZM11.0063 11.5256C10.5331 10.4006 9.42 9.60812 8.125 9.60812H6.875C5.58 9.60812 4.46625 10.4013 3.99375 11.5256C3.07687 10.6138 2.5 9.36 2.5 8C2.5 5.28938 4.78938 3 7.5 3C10.2106 3 12.5 5.28938 12.5 8C12.5 9.36 11.9231 10.6138 11.0063 11.5256Z" fill="#1E62DC"/>
<path d="M7.5 4.25C6.075 4.25 5 5.325 5 6.75C5 8.175 6.075 9.25 7.5 9.25C8.925 9.25 10 8.175 10 6.75C10 5.325 8.925 4.25 7.5 4.25ZM7.5 8C6.76375 8 6.25 7.48625 6.25 6.75C6.25 6.01375 6.76375 5.5 7.5 5.5C8.23625 5.5 8.75 6.01375 8.75 6.75C8.75 7.48625 8.23625 8 7.5 8Z" fill="#1E62DC"/>
</svg>
