<svg width="15" height="16" viewBox="0 0 15 16" fill="none" xmlns="http://www.w3.org/2000/svg">
<path d="M13.3787 4.30372L7.75375 1.80372C7.59125 1.73185 7.40813 1.73185 7.24563 1.80372L1.62062 4.30372C1.60812 4.30935 1.59938 4.31872 1.58688 4.3256C1.56938 4.33435 1.55062 4.33997 1.53437 4.3506C1.52062 4.35997 1.51 4.37185 1.49687 4.38185C1.47937 4.39497 1.4625 4.40935 1.44688 4.42435C1.42125 4.44872 1.39875 4.47497 1.37812 4.5031C1.36562 4.5206 1.3525 4.53622 1.34125 4.55372C1.32187 4.58685 1.3075 4.62122 1.29375 4.65685C1.28812 4.67372 1.27938 4.68935 1.27438 4.70622C1.25938 4.7606 1.25 4.81685 1.25 4.87497V11.125C1.25 11.3725 1.395 11.5956 1.62125 11.6962L7.24625 14.1962C7.3275 14.2325 7.41375 14.25 7.5 14.25C7.58687 14.25 7.67063 14.2256 7.75125 14.19L7.75375 14.1962L13.3787 11.6962C13.605 11.5956 13.75 11.3725 13.75 11.125V4.87497C13.75 4.62747 13.605 4.40435 13.3787 4.30372ZM7.5 3.05935L11.5863 4.87497L7.5 6.6906L6.6825 6.32747L3.41437 4.87497L7.5 3.05935ZM2.5 10.7193V5.83685L6.875 7.78122V12.6631L2.5 10.7193ZM8.125 12.6631V7.78122L12.5 5.83685V10.7193L8.125 12.6631Z" fill="#1E62DC"/>
</svg>
