<svg width="15" height="16" viewBox="0 0 15 16" fill="none" xmlns="http://www.w3.org/2000/svg">
<path d="M7.5 1.75C4.11188 1.75 1.25 4.61188 1.25 8C1.25 11.3881 4.11188 14.25 7.5 14.25C10.8881 14.25 13.75 11.3881 13.75 8C13.75 4.61188 10.8881 1.75 7.5 1.75ZM8.82062 9.875H6.24125L5.16437 7.94125L6.37625 6.125H8.71125L9.88062 8.03875L8.82062 9.875ZM2.5 8C2.5 7.40438 2.61625 6.83125 2.8175 6.29562L4.81 9.875H2.88125C2.6375 9.2925 2.5 8.65938 2.5 8ZM10.1769 6.125H12.1181C12.3625 6.7075 12.5 7.34062 12.5 8C12.5 8.5275 12.4106 9.0375 12.2519 9.52L10.1769 6.125ZM11.3675 4.875H7.20937L8.4 3.08938C9.57875 3.31375 10.6263 3.96625 11.3675 4.875ZM6.93313 3.03688L5.7075 4.875H5.625V4.99813L4.48125 6.71375L3.53125 5.00875C4.34375 3.94438 5.56188 3.19938 6.93313 3.03688ZM3.6325 11.125H8.09937L7.03125 12.9756C5.6775 12.8425 4.46312 12.1438 3.6325 11.125ZM8.525 12.8875L10.6231 9.25313L11.5881 10.8319C10.8669 11.8581 9.775 12.6156 8.525 12.8875Z" fill="#1E62DC"/>
</svg>
