<svg width="15" height="16" viewBox="0 0 15 16" fill="none" xmlns="http://www.w3.org/2000/svg">
<path d="M13.75 9.875L11.875 7.375L10 9.875H11.1912C10.9187 11.4181 9.6675 12.6694 8.125 12.9412V8.625H9.375V7.375H8.125V6.335C9.08938 6.04813 9.82125 5.13313 9.82125 4.07188C9.82125 2.79125 8.78 1.75 7.5 1.75C6.22 1.75 5.17875 2.79125 5.17875 4.07188C5.17875 5.13313 5.91062 6.04813 6.875 6.335V7.375H5.625V8.625H6.875V12.9412C5.33187 12.6694 4.08062 11.4181 3.80875 9.875H5L3.125 7.375L1.25 9.875H2.54562C2.865 12.3031 5.00125 14.25 7.5 14.25C9.99875 14.25 12.135 12.3031 12.4544 9.875H13.75ZM6.42875 4.07188C6.42875 3.48125 6.90938 3 7.5 3C8.09062 3 8.57125 3.48125 8.57125 4.07188C8.57125 4.66625 8.07062 5.1875 7.5 5.1875C6.92938 5.1875 6.42875 4.66625 6.42875 4.07188Z" fill="#1E62DC"/>
</svg>
