<svg width="15" height="16" viewBox="0 0 15 16" fill="none" xmlns="http://www.w3.org/2000/svg">
<path d="M7.5 1.75C4.05375 1.75 1.25 3.99313 1.25 6.75C1.25 8.5675 2.43625 10.1969 4.375 11.0837V14.25L7.7125 11.7469C11.0606 11.6575 13.75 9.45 13.75 6.75C13.75 3.99313 10.9462 1.75 7.5 1.75ZM7.5 10.5H7.29187L5.625 11.75V10.2394L5.22438 10.085C3.54375 9.43813 2.5 8.16 2.5 6.75C2.5 4.68187 4.74313 3 7.5 3C10.2569 3 12.5 4.68187 12.5 6.75C12.5 8.81812 10.2569 10.5 7.5 10.5Z" fill="#1E62DC"/>
<path d="M6.875 4.25H8.125V7.375H6.875V4.25ZM6.875 8H8.125V9.25H6.875V8Z" fill="#1E62DC"/>
</svg>
