<svg width="15" height="16" viewBox="0 0 15 16" fill="none" xmlns="http://www.w3.org/2000/svg">
<path d="M12.5 1.75H2.5C1.81062 1.75 1.25 2.31062 1.25 3V10.5C1.25 11.1894 1.81062 11.75 2.5 11.75H4.375V14.1044L8.29813 11.75H12.5C13.1894 11.75 13.75 11.1894 13.75 10.5V3C13.75 2.31062 13.1894 1.75 12.5 1.75ZM12.5 10.5H7.95187L5.625 11.8956V10.5H2.5V3H12.5V10.5Z" fill="#1E62DC"/>
<path d="M6.06686 9.06685L7.49998 7.63373L8.9331 9.06685L9.81685 8.1831L8.38373 6.74998L9.81685 5.31686L8.9331 4.43311L7.49998 5.86623L6.06686 4.43311L5.18311 5.31686L6.61623 6.74998L5.18311 8.1831L6.06686 9.06685Z" fill="#1E62DC"/>
</svg>
