<svg width="15" height="16" viewBox="0 0 15 16" fill="none" xmlns="http://www.w3.org/2000/svg">
<path d="M7.13756 14.1344C7.2463 14.2113 7.37318 14.25 7.50005 14.25C7.62693 14.25 7.7538 14.2113 7.86255 14.1344C8.05255 13.9988 12.5182 10.775 12.5001 6.75C12.5001 3.99313 10.2569 1.75 7.50005 1.75C4.74318 1.75 2.50006 3.99313 2.50006 6.7475C2.48193 10.775 6.94756 13.9988 7.13756 14.1344ZM7.50005 3C9.56818 3 11.2501 4.68187 11.2501 6.7525C11.2632 9.52625 8.50756 12.0169 7.50005 12.8344C6.49318 12.0169 3.73693 9.52625 3.75005 6.75C3.75005 4.68187 5.43193 3 7.50005 3Z" fill="#1E62DC"/>
<path d="M6.875 9.25H8.125V7.375H10V6.125H8.125V4.25H6.875V6.125H5V7.375H6.875V9.25Z" fill="#1E62DC"/>
</svg>
