<svg width="15" height="16" viewBox="0 0 15 16" fill="none" xmlns="http://www.w3.org/2000/svg">
<path d="M7.5 10.5C8.88071 10.5 10 9.38071 10 8C10 6.61929 8.88071 5.5 7.5 5.5C6.11929 5.5 5 6.61929 5 8C5 9.38071 6.11929 10.5 7.5 10.5Z" fill="#1E62DC"/>
<path d="M8.125 3.04312V1.75H6.875V3.04312C4.61812 3.32625 2.82687 5.11812 2.54312 7.375H1.25V8.625H2.54312C2.82687 10.8819 4.6175 12.6737 6.875 12.9569V14.25H8.125V12.9569C10.3819 12.6737 12.1737 10.8825 12.4569 8.625H13.75V7.375H12.4569C12.1737 5.11812 10.3819 3.32625 8.125 3.04312ZM7.5 11.75C5.43188 11.75 3.75 10.0681 3.75 8C3.75 5.93188 5.43188 4.25 7.5 4.25C9.56812 4.25 11.25 5.93188 11.25 8C11.25 10.0681 9.56812 11.75 7.5 11.75Z" fill="#1E62DC"/>
</svg>
