<svg width="15" height="16" viewBox="0 0 15 16" fill="none" xmlns="http://www.w3.org/2000/svg">
<path d="M11.875 1.75H3.125C2.43562 1.75 1.875 2.31062 1.875 3V13C1.875 13.6894 2.43562 14.25 3.125 14.25H11.875C12.5644 14.25 13.125 13.6894 13.125 13V3C13.125 2.31062 12.5644 1.75 11.875 1.75ZM3.125 13V3H11.875L11.8756 13H3.125Z" fill="#1E62DC"/>
<path d="M4.375 8H5.625V9.25H4.375V8ZM4.375 10.5H5.625V11.75H4.375V10.5ZM6.875 8H8.125V9.25H6.875V8ZM4.375 4.25H10.625V6.75H4.375V4.25ZM6.875 10.5H8.125V11.75H6.875V10.5ZM9.375 8H10.625V11.75H9.375V8Z" fill="#1E62DC"/>
</svg>
