<svg width="15" height="16" viewBox="0 0 15 16" fill="none" xmlns="http://www.w3.org/2000/svg">
<path d="M13.125 3H11.25V2.375C11.25 2.02938 10.9706 1.75 10.625 1.75H4.375C4.02938 1.75 3.75 2.02938 3.75 2.375V3H1.875C1.52938 3 1.25 3.27938 1.25 3.625V5.5C1.25 8.19375 2.37437 9.81875 4.26187 9.8825C4.81187 10.8256 5.75938 11.5056 6.875 11.6938V13H5.625V14.25H9.375V13H8.125V11.6938C9.24 11.505 10.1881 10.825 10.7381 9.8825C12.6256 9.81875 13.75 8.19375 13.75 5.5V3.625C13.75 3.27938 13.4706 3 13.125 3ZM2.5 5.5V4.25H3.75V8.01312V8.51875C2.635 8.04875 2.5 6.31187 2.5 5.5ZM7.5 10.5C6.12125 10.5 5 9.37875 5 8V3H10V8C10 9.37875 8.87875 10.5 7.5 10.5ZM11.25 8.51875V8.01312V4.25H12.5V5.5C12.5 6.31187 12.365 8.04875 11.25 8.51875Z" fill="#1E62DC"/>
</svg>
