<svg width="15" height="16" viewBox="0 0 15 16" fill="none" xmlns="http://www.w3.org/2000/svg">
<path d="M12.5906 5.66873L13.5675 4.69186L12.6838 3.80811L11.6163 4.87498C10.96 4.48123 10.195 4.24998 9.375 4.24998C6.96312 4.24998 5 6.21248 5 8.62498C5 11.0375 6.96312 13 9.375 13C11.7869 13 13.75 11.0375 13.75 8.62498C13.75 7.48436 13.3075 6.44811 12.5906 5.66873ZM9.375 11.75C7.65188 11.75 6.25 10.3481 6.25 8.62498C6.25 6.90186 7.65188 5.49998 9.375 5.49998C11.0981 5.49998 12.5 6.90186 12.5 8.62498C12.5 10.3481 11.0981 11.75 9.375 11.75Z" fill="#1E62DC"/>
<path d="M8.75 6.75H10V9.25H8.75V6.75ZM8.125 2.375H10.625V3.625H8.125V2.375ZM1.875 5.5H4.375V6.75H1.875V5.5ZM1.875 10.5H4.375V11.75H1.875V10.5ZM1.25 8H3.74375V9.25H1.25V8Z" fill="#1E62DC"/>
</svg>
