<svg width="15" height="16" viewBox="0 0 15 16" fill="none" xmlns="http://www.w3.org/2000/svg">
<path d="M11.875 3H10.625V1.75H9.375V3H5.625V1.75H4.375V3H3.125C2.43562 3 1.875 3.56062 1.875 4.25V5.5V13C1.875 13.6894 2.43562 14.25 3.125 14.25H11.875C12.5644 14.25 13.125 13.6894 13.125 13V5.5V4.25C13.125 3.56062 12.5644 3 11.875 3ZM11.8763 13H3.125V5.5H11.875L11.8763 13Z" fill="#1E62DC"/>
<path d="M6.87498 11.3837L10.4419 7.81686L9.55811 6.93311L6.87498 9.61623L5.44186 8.18311L4.55811 9.06686L6.87498 11.3837Z" fill="#1E62DC"/>
</svg>
