<svg width="15" height="16" viewBox="0 0 15 16" fill="none" xmlns="http://www.w3.org/2000/svg">
<path d="M12.5 2.375H2.5C1.81062 2.375 1.25 2.93562 1.25 3.625V12.375C1.25 13.0644 1.81062 13.625 2.5 13.625H12.5C13.1894 13.625 13.75 13.0644 13.75 12.375V3.625C13.75 2.93562 13.1894 2.375 12.5 2.375ZM2.5 12.375V4.875H12.5L12.5013 12.375H2.5Z" fill="#1E62DC"/>
<path d="M5.80809 6.30811L3.49121 8.62498L5.80809 10.9419L6.69184 10.0581L5.25871 8.62498L6.69184 7.19186L5.80809 6.30811ZM9.19184 6.30811L8.30809 7.19186L9.74121 8.62498L8.30809 10.0581L9.19184 10.9419L11.5087 8.62498L9.19184 6.30811Z" fill="#1E62DC"/>
</svg>
