<svg width="15" height="16" viewBox="0 0 15 16" fill="none" xmlns="http://www.w3.org/2000/svg">
<path d="M5.21439 2.03981C5.05717 2.03981 4.90782 2.04933 4.76027 2.03981C4.70231 2.03787 4.64537 2.02579 4.59282 2.00431C4.54028 1.98283 4.49317 1.95236 4.45429 1.9147C4.41541 1.87705 4.38554 1.83298 4.36643 1.78507C4.34732 1.73716 4.33938 1.6864 4.34305 1.63576C4.35817 1.40994 4.50752 1.28566 4.75906 1.25605C4.83949 1.24981 4.9203 1.2484 5.00094 1.25181H10.0004C10.081 1.24905 10.1617 1.25029 10.2423 1.25551C10.4969 1.2809 10.6807 1.4533 10.6601 1.66221C10.6389 1.88221 10.4957 2.01813 10.2368 2.03981C10.0905 2.05198 9.94178 2.03981 9.7779 2.03981C9.77122 2.15563 9.76275 2.24131 9.76275 2.32699C9.76275 3.63538 9.75735 4.94378 9.76942 6.25165C9.77483 6.40626 9.82852 6.55661 9.92482 6.68638C11.2309 8.41363 12.5491 10.134 13.8588 11.8597C14.5016 12.7059 14.3383 13.7245 13.4712 14.3453C13.1311 14.5988 12.6996 14.7391 12.2528 14.7415C9.0801 14.7457 5.90734 14.761 2.73522 14.7361C1.12859 14.7219 0.208277 13.1248 1.09534 11.9232C1.90076 10.8326 2.73764 9.75905 3.5612 8.67808C4.0782 7.999 4.59822 7.32154 5.10917 6.63825C5.18282 6.5464 5.22632 6.43867 5.23495 6.32675C5.24341 4.957 5.24099 3.58726 5.23979 2.21751C5.23918 2.16621 5.22527 2.11544 5.21439 2.03981ZM7.50735 13.9513H12.1168C12.6005 13.9513 12.9754 13.7784 13.2052 13.404C13.4277 13.0396 13.3932 12.6747 13.1332 12.3314C12.5689 11.585 11.9998 10.8409 11.4262 10.0991C11.3654 10.0253 11.2753 9.974 11.1735 9.95525C10.212 9.82993 9.24337 9.74 8.28675 9.59142C6.83854 9.36665 5.4109 9.35128 4.0129 9.80293C3.84001 9.86105 3.69005 9.9617 3.58116 10.0927C3.01579 10.8062 2.48065 11.5381 1.91891 12.2558C1.62866 12.6292 1.54703 13.0126 1.8016 13.4193C2.04952 13.8139 2.45464 13.9577 2.95834 13.9555C4.47607 13.9471 5.9914 13.9513 7.50735 13.9513ZM6.14801 2.05198C6.14801 2.17996 6.14801 2.28415 6.14801 2.3878C6.14801 3.50264 6.11414 4.61906 6.16372 5.73231C6.19396 6.41454 6.0301 6.99628 5.53426 7.53043C5.16662 7.92814 4.87577 8.38033 4.53352 8.83093C4.94228 8.77805 5.3069 8.7251 5.67334 8.68175C6.82705 8.55223 7.95233 8.72615 9.07763 8.9192C9.5838 9.00598 10.0953 9.06785 10.6045 9.14135L10.6432 9.07415C10.5863 8.99593 10.5319 8.91553 10.4732 8.83933C10.001 8.21848 9.51847 7.60342 9.06195 6.97354C8.94547 6.81517 8.87873 6.63277 8.86845 6.44469C8.8515 5.08446 8.85758 3.7237 8.85637 2.36295V2.05092L6.14801 2.05198Z" fill="#1E62DC" stroke="#1E62DC" stroke-width="0.5"/>
</svg>
