<svg width="15" height="16" viewBox="0 0 15 16" fill="none" xmlns="http://www.w3.org/2000/svg">
<path d="M3.46071 4.58567L3.63343 4.11645L2.61754 3.7425L2.99149 4.75839L3.46071 4.58567ZM11.4808 7.53789L11.8344 7.89145L12.3871 7.3387L11.6536 7.06867L11.4808 7.53789ZM6.41293 12.6058L5.94371 12.7785L6.21374 13.5121L6.76648 12.9594L6.41293 12.6058ZM9.67838 9.34036L9.32482 8.98681L9.32482 8.98681L9.67838 9.34036ZM8.2154 10.8033L7.86184 10.4498L7.50829 10.8033L7.86184 11.1569L8.2154 10.8033ZM10.0441 12.6321L9.69057 12.9856L10.0441 13.3392L10.3977 12.9856L10.0441 12.6321ZM11.5071 11.1691L11.8607 11.5226L12.2142 11.1691L11.8607 10.8155L11.5071 11.1691ZM3.28799 5.05489L11.3081 8.00711L11.6536 7.06867L3.63343 4.11645L3.28799 5.05489ZM6.88215 12.4331L3.92993 4.41295L2.99149 4.75839L5.94371 12.7785L6.88215 12.4331ZM9.32482 8.98681L6.05938 12.2522L6.76648 12.9594L10.0319 9.69391L9.32482 8.98681ZM8.56895 11.1569L10.0319 9.69391L9.32482 8.98681L7.86184 10.4498L8.56895 11.1569ZM10.3977 12.2785L8.56895 10.4498L7.86184 11.1569L9.69057 12.9856L10.3977 12.2785ZM11.1535 10.8155L9.69057 12.2785L10.3977 12.9856L11.8607 11.5226L11.1535 10.8155ZM9.32482 9.69391L11.1535 11.5226L11.8607 10.8155L10.0319 8.98681L9.32482 9.69391ZM11.1273 7.18434L9.32482 8.98681L10.0319 9.69391L11.8344 7.89145L11.1273 7.18434Z" fill="#1E62DC"/>
</svg>
