<svg width="15" height="16" viewBox="0 0 15 16" fill="none" xmlns="http://www.w3.org/2000/svg">
<path d="M3.125 14.25H11.875C12.5644 14.25 13.125 13.6894 13.125 13V3.625C13.125 2.93562 12.5644 2.375 11.875 2.375H10.625C10.625 2.02938 10.3456 1.75 9.99998 1.75H5C4.65437 1.75 4.375 2.02938 4.375 2.375H3.125C2.43562 2.375 1.875 2.93562 1.875 3.625V13C1.875 13.6894 2.43562 14.25 3.125 14.25ZM3.125 3.625H4.375V4.875H10.625V3.625H11.875V13H3.125V3.625Z" fill="#1E62DC"/>
<path d="M6.87498 8.99126L5.75435 7.8706L4.87061 8.75433L6.87498 10.7587L10.1294 7.50435L9.24563 6.62061L6.87498 8.99126Z" fill="#1E62DC"/>
</svg>
