<svg width="15" height="16" viewBox="0 0 15 16" fill="none" xmlns="http://www.w3.org/2000/svg">
<path d="M7.5 10.3438C8.87875 10.3438 10 9.29258 10 8C10 6.70742 8.87875 5.65625 7.5 5.65625C6.12125 5.65625 5 6.70742 5 8C5 9.29258 6.12125 10.3438 7.5 10.3438ZM7.5 6.82812C8.1775 6.82812 8.75 7.36484 8.75 8C8.75 8.63516 8.1775 9.17188 7.5 9.17188C6.8225 9.17188 6.25 8.63516 6.25 8C6.25 7.36484 6.8225 6.82812 7.5 6.82812Z" fill="#1E62DC"/>
<path d="M1.7779 10.4234L2.4029 11.4372C2.73478 11.9744 3.53353 12.176 4.10915 11.8648L4.43978 11.6856C4.80353 11.9533 5.2029 12.1731 5.62478 12.3372V12.6875C5.62478 13.3338 6.1854 13.8594 6.87478 13.8594H8.12478C8.81415 13.8594 9.37478 13.3338 9.37478 12.6875V12.3372C9.79665 12.1731 10.196 11.9533 10.5598 11.6862L10.8904 11.8654C11.4673 12.176 12.2642 11.9756 12.5973 11.4372L13.2217 10.424C13.5667 9.86445 13.3617 9.14609 12.7648 8.82325L12.4492 8.65215C12.4829 8.43477 12.4998 8.21739 12.4998 8C12.4998 7.78262 12.4829 7.56465 12.4492 7.34903L12.7648 7.17793C13.3617 6.8545 13.5667 6.13672 13.2217 5.57715L12.5973 4.56406C12.2654 4.025 11.4673 3.82286 10.8904 4.13516L10.5598 4.31445C10.196 4.04668 9.79665 3.82695 9.37478 3.66289V3.3125C9.37478 2.66622 8.81415 2.14062 8.12478 2.14062H6.87478C6.1854 2.14062 5.62478 2.66622 5.62478 3.3125V3.66289C5.2029 3.82695 4.80353 4.04668 4.43978 4.31387L4.10915 4.13457C3.53165 3.82344 2.73415 4.025 2.40228 4.56348L1.7779 5.57656C1.4329 6.13614 1.6379 6.8545 2.23478 7.17734L2.5504 7.34844C2.51665 7.56465 2.49978 7.78262 2.49978 8C2.49978 8.21739 2.51665 8.43477 2.5504 8.65098L2.23478 8.82207C1.6379 9.14551 1.4329 9.86387 1.7779 10.4234ZM3.85665 8.80742C3.78603 8.542 3.74978 8.27012 3.74978 8C3.74978 7.7293 3.78603 7.45742 3.85603 7.19258C3.92353 6.93887 3.80415 6.67403 3.56228 6.54336L2.8604 6.1625L3.48415 5.14942L4.19978 5.53731C4.43978 5.6668 4.74165 5.63398 4.94228 5.45411C5.36915 5.075 5.88415 4.79141 6.43228 4.63437C6.6954 4.55937 6.87478 4.33145 6.87478 4.07422V3.3125H8.12478V4.07422C8.12478 4.33145 8.30415 4.55937 8.56728 4.63437C9.1154 4.792 9.6304 5.075 10.0573 5.45411C10.2579 5.63398 10.561 5.66622 10.7998 5.53731L11.5148 5.15L12.1398 6.16309L11.4373 6.54336C11.1954 6.67461 11.076 6.93945 11.1435 7.19258C11.2135 7.45742 11.2498 7.7293 11.2498 8C11.2498 8.27012 11.2135 8.542 11.1429 8.80742C11.076 9.06114 11.1954 9.32598 11.4373 9.45664L12.1392 9.83692L11.5154 10.85L10.7998 10.4627C10.5604 10.3333 10.2579 10.3654 10.0573 10.5459C9.6304 10.925 9.1154 11.2086 8.56728 11.3656C8.30415 11.4406 8.12478 11.6685 8.12478 11.9258L8.12603 12.6875H6.87478V11.9258C6.87478 11.6685 6.6954 11.4406 6.43228 11.3656C5.88415 11.208 5.36915 10.925 4.94228 10.5459C4.82353 10.4393 4.66853 10.3848 4.51228 10.3848C4.40478 10.3848 4.29728 10.4106 4.19978 10.4633L3.48478 10.8512L2.85978 9.83809L3.56228 9.45664C3.80415 9.32598 3.92353 9.06114 3.85665 8.80742Z" fill="#1E62DC"/>
</svg>
