<svg width="15" height="16" viewBox="0 0 15 16" fill="none" xmlns="http://www.w3.org/2000/svg">
<path d="M1.25 7.37502L2.53125 7.43752C2.60697 6.75345 2.82382 6.09249 3.16807 5.4965C3.51232 4.9005 3.97651 4.38242 4.53125 3.97502L3.83125 2.90002C3.6625 2.60002 3.75 2.21877 4.0625 2.04377C4.375 1.87502 4.74375 1.97502 4.91875 2.27502L5.5 3.41252C6.13179 3.1409 6.81231 3.00082 7.5 3.00082C8.18769 3.00082 8.86819 3.1409 9.5 3.41252L10.0812 2.27502C10.2562 1.97502 10.625 1.87502 10.9375 2.04377C11.25 2.21877 11.3375 2.60002 11.1687 2.90002L10.4687 3.97502C11.0235 4.38242 11.4877 4.9005 11.8319 5.4965C12.1762 6.09249 12.393 6.75345 12.4687 7.43752L13.75 7.37502C13.9157 7.37502 14.0747 7.44089 14.1919 7.55808C14.3091 7.67527 14.375 7.83427 14.375 8.00002C14.375 8.16577 14.3091 8.32477 14.1919 8.44195C14.0747 8.5592 13.9157 8.62502 13.75 8.62502L12.4687 8.56252C12.393 9.24664 12.1762 9.90758 11.8319 10.5036C11.4877 11.0995 11.0235 11.6176 10.4687 12.025L11.1687 13.1C11.3375 13.4 11.25 13.7813 10.9375 13.9563C10.625 14.125 10.2562 14.025 10.0812 13.725L9.5 12.5875C8.86819 12.8591 8.18769 12.9992 7.5 12.9992C6.81231 12.9992 6.13179 12.8591 5.5 12.5875L4.91875 13.725C4.74375 14.025 4.375 14.125 4.0625 13.9563C3.75 13.7813 3.6625 13.4 3.83125 13.1L4.53125 12.025C3.97651 11.6176 3.51232 11.0995 3.16807 10.5036C2.82382 9.90758 2.60697 9.24664 2.53125 8.56252L1.25 8.62502C1.08424 8.62502 0.925269 8.5592 0.808056 8.44195C0.69085 8.32477 0.625 8.16577 0.625 8.00002C0.625 7.83427 0.69085 7.67527 0.808056 7.55808C0.925269 7.44089 1.08424 7.37502 1.25 7.37502ZM5.66875 7.59377C5.75 7.21252 5.95625 6.87502 6.25 6.61877L5.2125 5.03127C4.42836 5.6331 3.91389 6.52049 3.78125 7.50002L5.66875 7.59377ZM7.5 6.12502C7.7 6.12502 7.8875 6.15627 8.0625 6.21252L8.925 4.53127C8.4875 4.35002 8.00625 4.25002 7.5 4.25002C6.99375 4.25002 6.5125 4.35002 6.075 4.53127L6.9375 6.21252C7.1125 6.15627 7.3 6.12502 7.5 6.12502ZM9.33125 7.59377L11.2187 7.50002C11.0861 6.52049 10.5716 5.6331 9.7875 5.03127L8.75 6.61877C9.04375 6.87502 9.25 7.21252 9.33125 7.59377ZM9.33125 8.40627C9.25 8.78752 9.04375 9.12502 8.75 9.38127L9.7875 10.9688C10.5716 10.367 11.0861 9.47958 11.2187 8.50002L9.33125 8.40627ZM7.5 9.87502C7.3 9.87502 7.1125 9.84377 6.93125 9.78752L6.075 11.4688C6.5125 11.65 6.99375 11.75 7.5 11.75C8.00625 11.75 8.4875 11.65 8.925 11.4688L8.06875 9.78752C7.8875 9.84377 7.7 9.87502 7.5 9.87502ZM5.66875 8.40627L3.78125 8.50002C3.91875 9.50002 4.44375 10.3813 5.2125 10.9688L6.25 9.38127C5.95625 9.12502 5.75 8.78752 5.66875 8.40627Z" fill="#1E62DC"/>
</svg>
