<svg width="15" height="16" viewBox="0 0 15 16" fill="none" xmlns="http://www.w3.org/2000/svg">
<path d="M10.6231 13C10.0612 13 9.81812 12.8056 9.45063 12.5119C9.02563 12.1725 8.4975 11.75 7.49625 11.75C6.49563 11.75 5.9675 12.1725 5.54313 12.5125C5.17625 12.8056 4.93375 13 4.37187 13C3.81125 13 3.56875 12.8056 3.20188 12.5125C2.7775 12.1725 2.25063 11.75 1.25 11.75V13C1.81125 13 2.05375 13.1944 2.42062 13.4875C2.845 13.8275 3.3725 14.25 4.37187 14.25C5.3725 14.25 5.9 13.8275 6.32438 13.4881C6.69188 13.1944 6.93438 13 7.49625 13C8.05875 13 8.31562 13.205 8.67 13.4881C9.09437 13.8275 9.6225 14.25 10.6231 14.25C11.6237 14.25 12.1519 13.8275 12.5763 13.4881C12.9306 13.205 13.1875 13 13.75 13V11.75C12.7487 11.75 12.2206 12.1725 11.7956 12.5119C11.4281 12.8056 11.185 13 10.6231 13ZM3.75 5.8125L2.5 6.125L3.75 11.125C3.75 11.125 4.18 11.125 4.37187 11.125C5.3725 11.125 5.9 10.7025 6.32438 10.3631C6.69188 10.0694 6.93438 9.875 7.49625 9.875C8.05875 9.875 8.31562 10.08 8.67 10.3631C9.09437 10.7025 9.6225 11.125 10.6231 11.125C10.8169 11.125 11.25 11.125 11.25 11.125L11.2669 11.0581L11.4625 10.2756L12.5 6.125L11.25 5.8125V3.62562C11.25 3.32687 11.0394 3.07062 10.7475 3.0125L8.125 2.48812V1.75H6.875V2.48812L4.2525 3.0125C3.96062 3.07062 3.75 3.32687 3.75 3.62562V5.8125ZM5 4.13687L7.5 3.63688L10 4.13687V5.5L7.5 4.875L5 5.5V4.13687Z" fill="#1E62DC"/>
</svg>
