<svg width="15" height="16" viewBox="0 0 15 16" fill="none" xmlns="http://www.w3.org/2000/svg">
<path d="M11.875 1.75623H3.75C2.99625 1.75623 1.875 2.25561 1.875 3.63123V5.50623V9.25623V11.1312V12.3813C1.875 13.7568 2.99625 14.2563 3.75 14.2563H13.125V13.0062H3.7575C3.46875 12.9987 3.125 12.8843 3.125 12.3813C3.125 12.3181 3.13063 12.2619 3.14 12.2106C3.21 11.8512 3.50437 11.7625 3.75688 11.7562H12.5C12.5113 11.7562 12.5194 11.7506 12.5306 11.75H13.125V11.1312V9.87498V3.00623C13.125 2.31685 12.5644 1.75623 11.875 1.75623ZM11.875 10.5063H3.125V9.25623V5.50623V3.63123C3.125 3.12748 3.46875 3.01373 3.75 3.00623H8.12497V7.38123L9.375 6.75623L10.625 7.38123V3.00623H11.875V9.87498V10.5063Z" fill="#1E62DC"/>
</svg>
