<svg width="32" height="32" viewBox="0 0 32 32" fill="none" xmlns="http://www.w3.org/2000/svg">
<path d="M0 16C0 7.16344 7.16344 0 16 0C24.8366 0 32 7.16344 32 16C32 24.8366 24.8366 32 16 32C7.16344 32 0 24.8366 0 16Z" fill="#3B9FF3" fill-opacity="0.1"/>
<path d="M24.25 7.75H9.58329C9.07638 7.75 8.66663 8.15975 8.66663 8.66667V11.0408C8.66663 11.5203 8.86188 11.9914 9.20104 12.3306L14.1666 17.2962V24.25C14.1666 24.5681 14.3316 24.8623 14.602 25.0301C14.7487 25.1208 14.9155 25.1667 15.0833 25.1667C15.2235 25.1667 15.3638 25.1346 15.493 25.0704L19.1597 23.2371C19.4705 23.0813 19.6666 22.7641 19.6666 22.4167V17.2962L24.6322 12.3306C24.9714 11.9914 25.1666 11.5203 25.1666 11.0408V8.66667C25.1666 8.15975 24.7569 7.75 24.25 7.75ZM18.1019 16.2686C17.9295 16.44 17.8333 16.6728 17.8333 16.9167V21.8502L16 22.7668V16.9167C16 16.6728 15.9037 16.44 15.7314 16.2686L10.5 11.0408V9.58333H23.3342L23.336 11.0344L18.1019 16.2686Z" fill="#3B9FF3"/>
</svg>
