<svg width="32" height="32" viewBox="0 0 32 32" fill="none" xmlns="http://www.w3.org/2000/svg">
<path d="M0 16C0 7.16344 7.16344 0 16 0C24.8366 0 32 7.16344 32 16C32 24.8366 24.8366 32 16 32C7.16344 32 0 24.8366 0 16Z" fill="#3B9FF3" fill-opacity="0.1"/>
<path d="M22.606 13.7608H22.2024V11.8137C22.2021 11.8013 22.2009 11.789 22.1989 11.7768C22.1994 11.6986 22.1715 11.6228 22.1203 11.5637L18.881 7.8631L18.8786 7.86072C18.8592 7.83976 18.8372 7.82136 18.8131 7.80595L18.7917 7.79286C18.7711 7.78142 18.7494 7.77223 18.7268 7.76548L18.709 7.75952C18.6842 7.75336 18.6588 7.75016 18.6334 7.75H10.6708C10.3071 7.75 10.0119 8.04584 10.0119 8.40893V13.7602H9.6083C9.08806 13.7602 8.66663 14.1816 8.66663 14.7018V19.5995C8.66663 20.1191 9.08865 20.5412 9.6083 20.5412H10.0119V23.8936C10.0119 24.2567 10.3071 24.5525 10.6708 24.5525H21.5435C21.9066 24.5525 22.2024 24.2567 22.2024 23.8936V20.5412H22.606C23.1257 20.5412 23.5477 20.1197 23.5477 19.5995V14.7018C23.5477 14.1822 23.1263 13.7608 22.606 13.7608ZM11.4166 9.125H18.3036V11.7804C18.3036 11.9625 18.4512 12.1096 18.6334 12.1096H20.8468V13.7083H11.4166V9.125ZM15.6006 17.4376C14.8006 17.1519 14.2726 16.709 14.2726 16.0096C14.2726 15.1887 14.9655 14.5679 16.0935 14.5679C16.6435 14.5679 17.0357 14.675 17.3214 14.8102L17.0786 15.681C16.7673 15.5294 16.4254 15.4514 16.0792 15.453C15.6077 15.453 15.3792 15.6739 15.3792 15.9167C15.3792 16.2239 15.6429 16.359 16.2714 16.5947C17.1214 16.909 17.5137 17.3513 17.5137 18.0298C17.5137 18.837 16.9 19.5221 15.5792 19.5221C15.0292 19.5221 14.4869 19.3721 14.2155 19.2221L14.4369 18.3298C14.8107 18.5207 15.2232 18.6233 15.6429 18.6298C16.1429 18.6298 16.4072 18.4221 16.4072 18.1084C16.4072 17.8084 16.1792 17.6376 15.6006 17.4376ZM9.93033 17.109C9.93033 15.4739 11.1012 14.5673 12.5571 14.5673C13.1214 14.5673 13.5494 14.681 13.7423 14.7745L13.5137 15.6382C13.2245 15.5167 12.9136 15.456 12.6 15.4596C11.7434 15.4596 11.0726 15.9804 11.0726 17.0513C11.0726 18.0078 11.6434 18.615 12.6071 18.615C12.9428 18.615 13.3 18.5513 13.5208 18.4578L13.6786 19.3144C13.4857 19.4066 13.0286 19.5215 12.4506 19.5215C10.7869 19.5221 9.93033 18.4798 9.93033 17.109ZM20.8468 23.3333H11.4166V20.5833H20.8468V23.3333ZM20.6637 19.4507H19.3929L17.8512 14.6387H19.0435L19.6286 16.6739C19.7923 17.2519 19.9423 17.7947 20.0566 18.3941H20.078C20.1997 17.8221 20.3449 17.2554 20.5131 16.6953L21.1274 14.6393H22.2834L20.6637 19.4507Z" fill="#3B9FF3"/>
</svg>
