<svg width="32" height="32" viewBox="0 0 32 32" fill="none" xmlns="http://www.w3.org/2000/svg">
<path d="M0 16C0 7.16344 7.16344 0 16 0C24.8366 0 32 7.16344 32 16C32 24.8366 24.8366 32 16 32C7.16344 32 0 24.8366 0 16Z" fill="#DC2425" fill-opacity="0.1"/>
<path d="M18.75 6.83337H13.25C12.2389 6.83337 11.4167 7.65562 11.4167 8.66671V10.5H7.75V12.3334H9.58333V23.3334C9.58333 24.3445 10.4056 25.1667 11.4167 25.1667H20.5833C21.5944 25.1667 22.4167 24.3445 22.4167 23.3334V12.3334H24.25V10.5H20.5833V8.66671C20.5833 7.65562 19.7611 6.83337 18.75 6.83337ZM13.25 8.66671H18.75V10.5H13.25V8.66671ZM20.5833 23.3334H11.4167V12.3334H12.3333H19.6667H20.5833V23.3334Z" fill="#DC2425"/>
</svg>
