<svg width="32" height="32" viewBox="0 0 32 32" fill="none" xmlns="http://www.w3.org/2000/svg">
<path d="M0 16C0 7.16344 7.16344 0 16 0C24.8366 0 32 7.16344 32 16C32 24.8366 24.8366 32 16 32C7.16344 32 0 24.8366 0 16Z" fill="#3B9FF3" fill-opacity="0.1"/>
<path d="M21.5 7.75004L21.5 17.8334C21.0137 17.8334 20.5474 18.0265 20.2036 18.3703C19.8598 18.7142 19.6666 19.1805 19.6666 19.6667L19.6666 21.5C19.6666 21.9863 19.8598 22.4526 20.2036 22.7964C20.5474 23.1402 21.0137 23.3334 21.5 23.3334L21.5 24.25C21.5 24.4932 21.5965 24.7263 21.7684 24.8982C21.9404 25.0701 22.1735 25.1667 22.4166 25.1667C22.6597 25.1667 22.8929 25.0701 23.0648 24.8982C23.2367 24.7263 23.3333 24.4932 23.3333 24.25L23.3333 23.3334C23.8195 23.3334 24.2858 23.1402 24.6297 22.7964C24.9735 22.4526 25.1666 21.9863 25.1666 21.5L25.1666 19.6667C25.1666 19.1805 24.9735 18.7142 24.6297 18.3703C24.2858 18.0265 23.8195 17.8334 23.3333 17.8334L23.3333 7.75004C23.3333 7.50693 23.2367 7.27377 23.0648 7.10186C22.8929 6.92995 22.6597 6.83337 22.4166 6.83337C22.1735 6.83337 21.9404 6.92995 21.7684 7.10186C21.5965 7.27377 21.5 7.50693 21.5 7.75004ZM23.3333 19.6667L23.3333 21.5L22.4166 21.5L21.5 21.5L21.5 19.6667L23.3333 19.6667ZM16.9166 24.25L16.9166 16C17.4029 16 17.8692 15.8069 18.213 15.4631C18.5568 15.1193 18.75 14.6529 18.75 14.1667L18.75 12.3334C18.75 11.8471 18.5568 11.3808 18.213 11.037C17.8692 10.6932 17.4029 10.5 16.9166 10.5L16.9166 7.75004C16.9166 7.50693 16.82 7.27377 16.6481 7.10186C16.4762 6.92995 16.2431 6.83337 16 6.83337C15.7568 6.83337 15.5237 6.92995 15.3518 7.10186C15.1799 7.27377 15.0833 7.50693 15.0833 7.75004L15.0833 10.5C14.5971 10.5 14.1307 10.6932 13.7869 11.037C13.4431 11.3808 13.25 11.8471 13.25 12.3334L13.25 14.1667C13.25 14.6529 13.4431 15.1193 13.7869 15.4631C14.1307 15.8069 14.5971 16 15.0833 16L15.0833 24.25C15.0833 24.4932 15.1799 24.7263 15.3518 24.8982C15.5237 25.0701 15.7568 25.1667 16 25.1667C16.2431 25.1667 16.4762 25.0701 16.6481 24.8982C16.82 24.7263 16.9166 24.4932 16.9166 24.25ZM15.0833 12.3334L16.9166 12.3334L16.9166 14.1667L16 14.1667L15.0833 14.1667L15.0833 12.3334ZM10.5 24.25L10.5 21.5C10.9862 21.5 11.4525 21.3069 11.7963 20.9631C12.1401 20.6193 12.3333 20.1529 12.3333 19.6667L12.3333 17.8334C12.3333 17.3471 12.1401 16.8808 11.7963 16.537C11.4525 16.1932 10.9862 16 10.5 16L10.5 7.75004C10.5 7.50693 10.4034 7.27377 10.2315 7.10186C10.0596 6.92995 9.8264 6.83337 9.58329 6.83337C9.34017 6.83337 9.10701 6.92995 8.9351 7.10186C8.7632 7.27377 8.66662 7.50693 8.66662 7.75004L8.66662 16C8.18039 16 7.71407 16.1932 7.37026 16.537C7.02644 16.8808 6.83329 17.3471 6.83329 17.8334L6.83329 19.6667C6.83329 20.1529 7.02644 20.6193 7.37026 20.9631C7.71407 21.3069 8.18039 21.5 8.66662 21.5L8.66662 24.25C8.66662 24.4932 8.7632 24.7263 8.9351 24.8982C9.10701 25.0701 9.34017 25.1667 9.58329 25.1667C9.8264 25.1667 10.0596 25.0701 10.2315 24.8982C10.4034 24.7263 10.5 24.4932 10.5 24.25ZM8.66662 17.8334L10.5 17.8334L10.5 19.6667L9.58329 19.6667L8.66662 19.6667L8.66662 17.8334Z" fill="#3B9FF3"/>
</svg>
