<svg width="32" height="32" viewBox="0 0 32 32" fill="none" xmlns="http://www.w3.org/2000/svg">
<path d="M0 16C0 7.16344 7.16344 0 16 0C24.8366 0 32 7.16344 32 16C32 24.8366 24.8366 32 16 32C7.16344 32 0 24.8366 0 16Z" fill="#1BD2A4" fill-opacity="0.1"/>
<path d="M8.86983 9.13449L18.5378 7.7539C18.5924 7.74607 18.648 7.75006 18.7009 7.76561C18.7538 7.78115 18.8027 7.80788 18.8444 7.84399C18.886 7.88009 18.9194 7.92473 18.9423 7.97488C18.9652 8.02502 18.977 8.0795 18.977 8.13462V24.168C18.977 24.223 18.9652 24.2774 18.9423 24.3275C18.9195 24.3776 18.8862 24.4222 18.8446 24.4583C18.8031 24.4944 18.7542 24.5211 18.7014 24.5367C18.6486 24.5523 18.5931 24.5564 18.5386 24.5487L8.86906 23.1681C8.68571 23.142 8.51794 23.0506 8.39657 22.9107C8.2752 22.7708 8.20838 22.5919 8.20837 22.4067V9.89594C8.20838 9.71074 8.2752 9.53176 8.39657 9.39188C8.51794 9.252 8.68571 9.16061 8.86906 9.13449H8.86983ZM9.74741 10.5635V21.7391L17.4388 22.8382V9.46445L9.74741 10.5635ZM19.7462 21.5352H22.0536V10.7674H19.7462V9.2291H22.8227C23.0267 9.2291 23.2223 9.31013 23.3666 9.45437C23.5108 9.59861 23.5918 9.79424 23.5918 9.99823V22.3044C23.5918 22.5084 23.5108 22.704 23.3666 22.8482C23.2223 22.9925 23.0267 23.0735 22.8227 23.0735H19.7462V21.5352ZM14.516 16.1513L16.6696 19.2278H14.8237L13.5931 17.4696L12.3625 19.2278H10.5165L12.6701 16.1513L10.5165 13.0748H12.3625L13.5931 14.833L14.8237 13.0748H16.6696L14.516 16.1513Z" fill="#18BA92"/>
</svg>
