<svg width="32" height="32" viewBox="0 0 32 32" fill="none" xmlns="http://www.w3.org/2000/svg">
<path d="M0 16C0 7.16344 7.16344 0 16 0C24.8366 0 32 7.16344 32 16C32 24.8366 24.8366 32 16 32C7.16344 32 0 24.8366 0 16Z" fill="#3B9FF3" fill-opacity="0.1"/>
<path d="M24 18.9724L22.1147 20.8578L19.2951 18.0382L18.0382 19.2951L20.8578 22.1147L18.9724 24H24V18.9724ZM8 13.0276L9.88533 11.1422L12.7049 13.9618L13.9618 12.7049L11.1422 9.88533L13.0276 8H8V13.0276ZM24 8H18.9724L20.8578 9.88533L18.0382 12.7049L19.2951 13.9618L22.1147 11.1422L24 13.0276V8ZM8 24H13.0276L11.1422 22.1147L13.9618 19.2951L12.7049 18.0382L9.88533 20.8578L8 18.9724V24Z" fill="#3B9FF3"/>
</svg>
