<svg width="32" height="32" viewBox="0 0 32 32" fill="none" xmlns="http://www.w3.org/2000/svg">
<path d="M0 16C0 7.16344 7.16344 0 16 0C24.8366 0 32 7.16344 32 16C32 24.8366 24.8366 32 16 32C7.16344 32 0 24.8366 0 16Z" fill="#1BD2A4" fill-opacity="0.1"/>
<path d="M23.3334 7.75H8.66671C7.65562 7.75 6.83337 8.57225 6.83337 9.58333V22.4167C6.83337 23.4278 7.65562 24.25 8.66671 24.25H14.1667H16H23.3334C24.3445 24.25 25.1667 23.4278 25.1667 22.4167V9.58333C25.1667 8.57225 24.3445 7.75 23.3334 7.75ZM8.66671 22.4167V11.4167H14.1667V22.4167H8.66671ZM16 22.4167V11.4167H23.3334V9.58333L23.3352 22.4167H16Z" fill="#18BA92"/>
<path d="M10.5 14.1666H12.3333V16H10.5V14.1666ZM10.5 17.8333H12.3333V19.6666H10.5V17.8333Z" fill="#18BA92"/>
</svg>
