<svg width="32" height="32" viewBox="0 0 32 32" fill="none" xmlns="http://www.w3.org/2000/svg">
<path d="M0 16C0 7.16344 7.16344 0 16 0C24.8366 0 32 7.16344 32 16C32 24.8366 24.8366 32 16 32C7.16344 32 0 24.8366 0 16Z" fill="#1BD2A4" fill-opacity="0.1"/>
<path d="M15.8876 7.75L15.6264 7.85865L11.4475 9.53507L11.0122 9.70919V14.3881L7.24708 16.0207L6.83337 16.2164V21.8321L7.18161 22.0494L11.3605 24.3784L11.6871 24.5525L12.0138 24.4L15.8876 22.4631L19.7621 24.4L20.088 24.5525L20.4147 24.3784L24.5935 22.0494L24.9418 21.8321V16.2164L24.5281 16.0207L20.7629 14.3881V9.70849L20.3276 9.53437L16.1488 7.85865L15.8876 7.75ZM15.8876 9.27389L18.1727 10.1654L15.8876 11.0583L13.6024 10.1661L15.8876 9.27389ZM12.4052 11.1892L15.1911 12.2548V15.6508L12.4052 14.4104V11.1892ZM19.37 11.1892V14.4097L16.584 15.6508V12.2555L19.37 11.1892ZM11.7087 15.6285L14.2334 16.7387L11.7087 17.9798L9.18398 16.7171L11.7087 15.6285ZM20.0664 15.6285L22.5912 16.7171L20.0664 17.9798L17.5417 16.7387L18.3252 16.3905L20.0664 15.6285ZM8.22633 17.7841L11.0122 19.1771V22.5947L8.22633 21.0276V17.7841ZM23.5488 17.7841V21.0276L20.7629 22.5947V19.1771L23.5488 17.7841ZM15.1911 17.828V21.2449L12.4052 22.6379V19.1771L15.1911 17.828ZM16.584 17.828L19.37 19.1771V22.6379L16.584 21.2449V17.828Z" fill="#18BA92"/>
</svg>
