<svg width="32" height="32" viewBox="0 0 32 32" fill="none" xmlns="http://www.w3.org/2000/svg">
<path d="M0 16C0 7.16344 7.16344 0 16 0C24.8366 0 32 7.16344 32 16C32 24.8366 24.8366 32 16 32C7.16344 32 0 24.8366 0 16Z" fill="#3B9FF3" fill-opacity="0.1"/>
<path d="M13.25 14.1667H18.75C20.2661 14.1667 21.5 15.4005 21.5 16.9167C21.5 18.4329 20.2661 19.6667 18.75 19.6667H16V21.5H18.75C21.2772 21.5 23.3333 19.444 23.3333 16.9167C23.3333 14.3895 21.2772 12.3334 18.75 12.3334H13.25V9.58337L8.66663 13.25L13.25 16.9167V14.1667Z" fill="#3B9FF3"/>
</svg>
