<svg width="32" height="32" viewBox="0 0 32 32" fill="none" xmlns="http://www.w3.org/2000/svg">
<path d="M0 16C0 7.16344 7.16344 0 16 0C24.8366 0 32 7.16344 32 16C32 24.8366 24.8366 32 16 32C7.16344 32 0 24.8366 0 16Z" fill="#3B9FF3" fill-opacity="0.1"/>
<path d="M23.2755 12.9567C23.2655 12.9274 23.2572 12.899 23.2453 12.8705C23.2004 12.7734 23.1445 12.6808 23.0656 12.602L17.5656 7.10196C17.4868 7.02312 17.3942 6.96721 17.297 6.92229C17.2695 6.90946 17.2402 6.90212 17.2109 6.89204C17.1339 6.86637 17.055 6.84987 16.9735 6.84529C16.9533 6.84346 16.9359 6.83337 16.9166 6.83337H10.5C9.48888 6.83337 8.66663 7.65562 8.66663 8.66671V23.3334C8.66663 24.3445 9.48888 25.1667 10.5 25.1667H21.5C22.511 25.1667 23.3333 24.3445 23.3333 23.3334V13.25C23.3333 13.2308 23.3232 13.2134 23.3214 13.1932C23.3168 13.1125 23.3012 13.0337 23.2755 12.9567ZM20.2038 12.3334H17.8333V9.96287L20.2038 12.3334ZM10.5 23.3334V8.66671H16V13.25C16 13.757 16.4097 14.1667 16.9166 14.1667H21.5L21.5018 23.3334H10.5Z" fill="#3B9FF3"/>
</svg>
