<svg width="32" height="32" viewBox="0 0 32 32" fill="none" xmlns="http://www.w3.org/2000/svg">
<circle cx="16" cy="16" r="16" fill="#1E62DC" fill-opacity="0.1"/>
<path d="M23.2444 12.8705C23.1995 12.7734 23.1435 12.6808 23.0647 12.602L17.5647 7.10196C17.4859 7.02312 17.3933 6.96721 17.2961 6.92229C17.2686 6.90946 17.2393 6.90212 17.21 6.89204C17.133 6.86637 17.0541 6.84987 16.9725 6.84529C16.9533 6.84346 16.9359 6.83337 16.9166 6.83337H10.5C9.48888 6.83337 8.66663 7.65562 8.66663 8.66671V23.3334C8.66663 24.3445 9.48888 25.1667 10.5 25.1667H21.5C22.511 25.1667 23.3333 24.3445 23.3333 23.3334V13.25C23.3333 13.2308 23.3232 13.2134 23.3214 13.1932C23.3168 13.1116 23.3012 13.0328 23.2746 12.9558C23.2655 12.9265 23.2572 12.898 23.2444 12.8705ZM20.2038 12.3334H17.8333V9.96287L20.2038 12.3334ZM10.5 23.3334V8.66671H16V13.25C16 13.757 16.4097 14.1667 16.9166 14.1667H21.5L21.5018 23.3334H10.5Z" fill="#1E62DC"/>
<path d="M12.3334 16H19.6667V17.8334H12.3334V16ZM12.3334 19.6667H19.6667V21.5H12.3334V19.6667ZM12.3334 12.3334H14.1667V14.1667H12.3334V12.3334Z" fill="#1E62DC"/>
</svg>
