<svg width="40" height="40" viewBox="0 0 40 40" fill="none" xmlns="http://www.w3.org/2000/svg">
<path d="M34.9998 5H8.33317C7.4115 5 6.6665 5.745 6.6665 6.66667V10.9833C6.6665 11.855 7.0215 12.7117 7.63817 13.3283L16.6665 22.3567V35C16.6665 35.5783 16.9665 36.1133 17.4582 36.4183C17.7248 36.5833 18.0282 36.6667 18.3332 36.6667C18.5882 36.6667 18.8432 36.6083 19.0782 36.4917L25.7448 33.1583C26.3098 32.875 26.6665 32.2983 26.6665 31.6667V22.3567L35.6948 13.3283C36.3115 12.7117 36.6665 11.855 36.6665 10.9833V6.66667C36.6665 5.745 35.9215 5 34.9998 5ZM23.8215 20.4883C23.5082 20.8 23.3332 21.2233 23.3332 21.6667V30.6367L19.9998 32.3033V21.6667C19.9998 21.2233 19.8248 20.8 19.5115 20.4883L9.99984 10.9833V8.33333H33.3348L33.3382 10.9717L23.8215 20.4883Z" fill="#3B9FF3"/>
</svg>
