<svg width="40" height="40" viewBox="0 0 40 40" fill="none" xmlns="http://www.w3.org/2000/svg">
<path d="M31.6026 15.7309H30.8823V12.2547C30.8823 12.2329 30.8788 12.2112 30.876 12.1891C30.8748 12.0512 30.8309 11.9155 30.7364 11.8082L24.9523 5.20119C24.9506 5.19933 24.9488 5.19878 24.9476 5.19709C24.9132 5.1584 24.873 5.12639 24.8305 5.09882C24.8178 5.09023 24.8052 5.08317 24.792 5.07589C24.7552 5.05592 24.7161 5.03912 24.6759 5.02703C24.665 5.02418 24.6553 5.0197 24.6444 5.01674C24.6006 5.00646 24.5553 5 24.5094 5H10.294C9.6449 5 9.11761 5.52795 9.11761 6.17649V15.7305H8.39739C7.46876 15.7305 6.71582 16.4832 6.71582 17.4119V26.156C6.71582 27.0843 7.46876 27.8377 8.39739 27.8377H9.11761V33.8236C9.11761 34.4722 9.6449 35 10.294 35H29.7058C30.3544 35 30.8823 34.4722 30.8823 33.8236V27.8378H31.6026C32.5309 27.8378 33.284 27.0847 33.284 26.1563V17.4123C33.284 16.4832 32.5309 15.7309 31.6026 15.7309ZM10.294 6.17649H23.9211V12.1955C23.9211 12.5205 24.1847 12.7838 24.5093 12.7838H29.7058V15.7308H10.294V6.17649ZM19.1503 22.1358C17.6905 21.6274 16.7394 20.8197 16.7394 19.5429C16.7394 18.0435 17.9903 16.8964 20.0625 16.8964C21.0532 16.8964 21.7831 17.1049 22.304 17.34L21.8614 18.9431C21.5096 18.7731 20.8841 18.5256 20.0235 18.5256C19.1635 18.5256 18.7465 18.9167 18.7465 19.3728C18.7465 19.9335 19.2415 20.1809 20.3759 20.6111C21.9266 21.1845 22.6565 21.9921 22.6565 23.2306C22.6565 24.7029 21.5228 25.9547 19.1114 25.9547C18.108 25.9547 17.1171 25.6933 16.622 25.4201L17.0258 23.7777C17.5605 24.0521 18.3814 24.3252 19.2289 24.3252C20.141 24.3252 20.6235 23.9473 20.6235 23.3734C20.6232 22.8257 20.2059 22.5132 19.1503 22.1358ZM8.80125 21.5619C8.80125 18.5646 10.9392 16.8964 13.5973 16.8964C14.6271 16.8964 15.4091 17.1049 15.7612 17.2876L15.3568 18.8642C14.953 18.6955 14.392 18.5393 13.6884 18.5393C12.1114 18.5393 10.8867 19.49 10.8867 21.4446C10.8867 23.2042 11.9291 24.3117 13.7021 24.3117C14.3011 24.3117 14.9659 24.1816 15.3568 24.0251L15.6568 25.5761C15.2917 25.7588 14.4709 25.9547 13.4021 25.9547C10.3653 25.9547 8.80125 24.0642 8.80125 21.5619ZM29.7058 33.5047H10.294V27.8378H29.7058V33.5047ZM28.3918 25.8238H26.0719L23.2568 17.04H25.4338L26.5021 20.7548C26.8019 21.7969 27.0755 22.8004 27.2845 23.8953H27.3233C27.5448 22.8394 27.8182 21.7969 28.1181 20.7933L29.2391 17.04H31.351L28.3918 25.8238Z" fill="#3B9FF3"/>
</svg>
