<svg width="40" height="40" viewBox="0 0 40 40" fill="none" xmlns="http://www.w3.org/2000/svg">
<path d="M35 29.633L35 10.367C35 7.40762 32.5924 5 29.633 5L10.3669 5C7.40762 5 5 7.40762 5 10.367L5 29.6331C5 32.5924 7.40762 35 10.367 35L29.633 35C32.5924 35 35 32.5924 35 29.633ZM10.367 33.2422C8.37687 33.2422 6.75781 31.6231 6.75781 29.633L6.75781 10.367C6.75781 8.37687 8.37687 6.75781 10.367 6.75781L29.633 6.75781C31.6231 6.75781 33.2422 8.37687 33.2422 10.367L33.2422 29.6331C33.2422 31.6231 31.6231 33.2422 29.633 33.2422L10.367 33.2422Z" fill="#3B9FF3"/>
<path d="M28.4102 30.3554L28.4102 16.969C29.5032 16.601 30.293 15.5671 30.293 14.3515C30.293 13.136 29.5032 12.1021 28.4102 11.734L28.4102 9.64453C28.4102 9.15914 28.0167 8.76562 27.5313 8.76562C27.0459 8.76562 26.6524 9.15914 26.6524 9.64453L26.6524 11.7341C25.5593 12.1021 24.7696 13.136 24.7696 14.3516C24.7696 15.5672 25.5593 16.6011 26.6524 16.9691L26.6524 30.3555C26.6524 30.8409 27.0459 31.2344 27.5313 31.2344C28.0167 31.2344 28.4102 30.8409 28.4102 30.3554ZM26.5274 14.3515C26.5274 13.798 26.9777 13.3477 27.5313 13.3477C28.0848 13.3477 28.5352 13.798 28.5352 14.3515C28.5352 14.9051 28.0848 15.3554 27.5313 15.3554C26.9777 15.3554 26.5274 14.9051 26.5274 14.3515Z" fill="#3B9FF3"/>
<path d="M20.8789 30.3554L20.8789 28.2659C21.972 27.8978 22.7617 26.8639 22.7617 25.6484C22.7617 24.4328 21.972 23.3989 20.8789 23.0309L20.8789 9.64453C20.8789 9.15914 20.4854 8.76562 20 8.76562C19.5146 8.76562 19.1211 9.15914 19.1211 9.64453L19.1211 23.0309C18.028 23.3989 17.2383 24.4329 17.2383 25.6484C17.2383 26.8639 18.028 27.8979 19.1211 28.2659L19.1211 30.3555C19.1211 30.8409 19.5146 31.2344 20 31.2344C20.4854 31.2344 20.8789 30.8409 20.8789 30.3554ZM18.9961 25.6484C18.9961 25.0949 19.4465 24.6445 20 24.6445C20.5536 24.6445 21.0039 25.0949 21.0039 25.6484C21.0039 26.202 20.5536 26.6523 20 26.6523C19.4465 26.6523 18.9961 26.202 18.9961 25.6484Z" fill="#3B9FF3"/>
<path d="M13.3477 30.3554L13.3477 20.7347C14.4407 20.3667 15.2305 19.3328 15.2305 18.1172C15.2305 16.9016 14.4407 15.8677 13.3477 15.4997L13.3477 9.64453C13.3477 9.15914 12.9542 8.76562 12.4688 8.76562C11.9834 8.76562 11.5899 9.15914 11.5899 9.64453L11.5899 15.4997C10.4968 15.8677 9.70707 16.9016 9.70707 18.1172C9.70707 19.3328 10.4968 20.3667 11.5899 20.7347L11.5899 30.3555C11.5899 30.8409 11.9834 31.2344 12.4688 31.2344C12.9542 31.2344 13.3477 30.8409 13.3477 30.3554ZM11.4648 18.1172C11.4648 17.5637 11.9152 17.1133 12.4687 17.1133C13.0222 17.1133 13.4726 17.5637 13.4726 18.1172C13.4726 18.6707 13.0223 19.1211 12.4688 19.1211C11.9152 19.1211 11.4648 18.6707 11.4648 18.1172Z" fill="#3B9FF3"/>
</svg>
