<svg width="40" height="40" viewBox="0 0 40 40" fill="none" xmlns="http://www.w3.org/2000/svg">
<path d="M34.033 8.46143H23.4614V11.9045H26.9587V14.248H23.4614V16.5383H26.923V18.846H23.4614V21.1537H26.923V23.4614H23.4614V25.7691H26.923V28.0768H23.4614V31.5383H34.033C34.5649 31.5383 34.9999 31.0872 34.9999 30.5345V9.46527C34.9999 8.91258 34.5649 8.46143 34.033 8.46143ZM32.6922 28.0768H28.0768V25.7691H32.6922V28.0768ZM32.6922 23.4614H28.0768V21.1537H32.6922V23.4614ZM32.6922 18.846H28.0768V16.5383H32.6922V18.846ZM32.6922 14.2307H28.0768V11.923H32.6922V14.2307Z" fill="#18BA92"/>
<path d="M5 8.33346V31.6677L22.3077 35V5L5 8.33346ZM15.9477 25.8615L13.9342 22.055C13.8581 21.9131 13.7796 21.6523 13.6977 21.2727H13.6665C13.6285 21.4515 13.5385 21.7238 13.3965 22.0885L11.3762 25.8615H8.23885L11.9635 20.0185L8.55615 14.1742H11.7592L13.43 17.6785C13.5604 17.9554 13.6769 18.2842 13.7808 18.6638H13.8131C13.8788 18.4354 14.0012 18.0962 14.18 17.645L16.0377 14.1731H18.9708L15.4665 19.9677L19.0688 25.8604L15.9477 25.8615Z" fill="#18BA92"/>
</svg>
