<svg width="40" height="40" viewBox="0 0 40 40" fill="none" xmlns="http://www.w3.org/2000/svg">
<path d="M29.2853 26.4285C29.1953 26.4285 29.1053 26.4113 29.0196 26.377L21.8768 23.5199C21.6054 23.4113 21.4282 23.1499 21.4282 22.8571C21.4282 22.5642 21.6054 22.3028 21.8768 22.1942L29.0196 19.3371C29.1896 19.2685 29.3796 19.2685 29.5496 19.3371L36.6924 22.1942C36.9653 22.3028 37.1424 22.5642 37.1424 22.8571C37.1424 23.1499 36.9653 23.4113 36.6939 23.5199L29.551 26.377C29.4653 26.4113 29.3753 26.4285 29.2853 26.4285ZM24.0668 22.8571L29.2853 24.9442L34.5039 22.8571L29.2853 20.7699L24.0668 22.8571Z" fill="#18BA92"/>
<path d="M29.2853 34.9997C29.1953 34.9997 29.1053 34.9825 29.0196 34.9482L21.8768 32.0911C21.6054 31.9825 21.4282 31.7211 21.4282 31.4283V22.8569C21.4282 22.4626 21.7482 22.1426 22.1425 22.1426C22.5368 22.1426 22.8568 22.4626 22.8568 22.8569V30.9454L29.2853 33.5168L35.7139 30.9454V22.8569C35.7139 22.4626 36.0339 22.1426 36.4281 22.1426C36.8224 22.1426 37.1424 22.4626 37.1424 22.8569V31.4283C37.1424 31.7211 36.9653 31.9825 36.6939 32.0911L29.551 34.9482C29.4653 34.9825 29.3753 34.9997 29.2853 34.9997Z" fill="#18BA92"/>
<path d="M29.2856 35C28.8913 35 28.5713 34.68 28.5713 34.2857V25.7143C28.5713 25.32 28.8913 25 29.2856 25C29.6799 25 29.9998 25.32 29.9998 25.7143V34.2857C29.9998 34.68 29.6799 35 29.2856 35Z" fill="#18BA92"/>
<path d="M10.7145 26.4285C10.6245 26.4285 10.5345 26.4113 10.4488 26.377L3.30599 23.5199C3.03456 23.4113 2.85742 23.1499 2.85742 22.8571C2.85742 22.5642 3.03456 22.3028 3.30599 22.1942L10.4488 19.3371C10.6188 19.2685 10.8088 19.2685 10.9788 19.3371L18.1216 22.1942C18.3945 22.3028 18.5716 22.5642 18.5716 22.8571C18.5716 23.1499 18.3945 23.4113 18.1231 23.5199L10.9802 26.377C10.8945 26.4113 10.8045 26.4285 10.7145 26.4285ZM5.49598 22.8571L10.7145 24.9442L15.9331 22.8571L10.7145 20.7699L5.49598 22.8571Z" fill="#18BA92"/>
<path d="M10.7145 34.9997C10.6245 34.9997 10.5345 34.9825 10.4488 34.9482L3.30599 32.0911C3.03456 31.9825 2.85742 31.7211 2.85742 31.4283V22.8569C2.85742 22.4626 3.17742 22.1426 3.5717 22.1426C3.96599 22.1426 4.28599 22.4626 4.28599 22.8569V30.9454L10.7145 33.5168L17.1431 30.9454V22.8569C17.1431 22.4626 17.4631 22.1426 17.8574 22.1426C18.2516 22.1426 18.5716 22.4626 18.5716 22.8569V31.4283C18.5716 31.7211 18.3945 31.9825 18.1231 32.0911L10.9802 34.9482C10.8945 34.9825 10.8045 34.9997 10.7145 34.9997Z" fill="#18BA92"/>
<path d="M10.7148 35C10.3205 35 10.0005 34.68 10.0005 34.2857V25.7143C10.0005 25.32 10.3205 25 10.7148 25C11.1091 25 11.4291 25.32 11.4291 25.7143V34.2857C11.4291 34.68 11.1091 35 10.7148 35Z" fill="#18BA92"/>
<path d="M20.0002 12.1428C19.9102 12.1428 19.8202 12.1257 19.7345 12.0914L12.5916 9.23427C12.3202 9.1257 12.1431 8.86427 12.1431 8.57141C12.1431 8.27856 12.3202 8.01713 12.5916 7.90856L19.7345 5.05143C19.9045 4.98286 20.0945 4.98286 20.2645 5.05143L27.4073 7.90856C27.6801 8.01713 27.8573 8.27856 27.8573 8.57141C27.8573 8.86427 27.6801 9.1257 27.4087 9.23427L20.2659 12.0914C20.1802 12.1257 20.0902 12.1428 20.0002 12.1428ZM14.7816 8.57141L20.0002 10.6585L25.2187 8.57141L20.0002 6.48428L14.7816 8.57141Z" fill="#18BA92"/>
<path d="M20.0002 20.7145C19.9102 20.7145 19.8202 20.6974 19.7345 20.6631L12.5916 17.8059C12.3202 17.6974 12.1431 17.4359 12.1431 17.1431V8.5717C12.1431 8.17742 12.4631 7.85742 12.8573 7.85742C13.2516 7.85742 13.5716 8.17742 13.5716 8.5717V16.6602L20.0002 19.2317L26.4287 16.6602V8.5717C26.4287 8.17742 26.7487 7.85742 27.143 7.85742C27.5373 7.85742 27.8573 8.17742 27.8573 8.5717V17.1431C27.8573 17.4359 27.6801 17.6974 27.4087 17.8059L20.2659 20.6631C20.1802 20.6974 20.0902 20.7145 20.0002 20.7145Z" fill="#18BA92"/>
<path d="M19.9999 20.7143C19.6056 20.7143 19.2856 20.3943 19.2856 20V11.4286C19.2856 11.0344 19.6056 10.7144 19.9999 10.7144C20.3942 10.7144 20.7142 11.0344 20.7142 11.4286V20C20.7142 20.3943 20.3942 20.7143 19.9999 20.7143Z" fill="#18BA92"/>
</svg>
