<svg width="14" height="14" viewBox="0 0 14 14" fill="none" xmlns="http://www.w3.org/2000/svg">
<path d="M12.6875 0.65625H9.18753C9.01348 0.65625 8.84657 0.72539 8.72349 0.848461C8.60042 0.971532 8.53128 1.13845 8.53128 1.3125C8.53128 1.48655 8.60042 1.65347 8.72349 1.77654C8.84657 1.89961 9.01348 1.96875 9.18753 1.96875H11.1032L4.81253 8.25943C4.69002 8.38261 4.62135 8.54935 4.62158 8.72309C4.62182 8.89683 4.69094 9.06339 4.81379 9.18624C4.93665 9.30909 5.1032 9.37821 5.27694 9.37845C5.45068 9.37869 5.61742 9.31002 5.74061 9.1875L12.0313 2.89682V4.8125C12.0313 4.98655 12.1004 5.15347 12.2235 5.27654C12.3466 5.39961 12.5135 5.46875 12.6875 5.46875C12.8616 5.46875 13.0285 5.39961 13.1516 5.27654C13.2746 5.15347 13.3438 4.98655 13.3438 4.8125V1.3125C13.3438 1.13845 13.2746 0.971532 13.1516 0.848461C13.0285 0.72539 12.8616 0.65625 12.6875 0.65625Z" fill="white"/>
<path d="M12.6875 6.78125C12.5135 6.78125 12.3465 6.85039 12.2235 6.97346C12.1004 7.09653 12.0312 7.26345 12.0312 7.4375V12.0312H1.96875V1.96875H6.5625C6.73655 1.96875 6.90347 1.89961 7.02654 1.77654C7.14961 1.65347 7.21875 1.48655 7.21875 1.3125C7.21875 1.13845 7.14961 0.971532 7.02654 0.848461C6.90347 0.72539 6.73655 0.65625 6.5625 0.65625H1.3125C1.13845 0.65625 0.971532 0.72539 0.848461 0.848461C0.72539 0.971532 0.65625 1.13845 0.65625 1.3125V12.6875C0.65625 12.8615 0.72539 13.0285 0.848461 13.1515C0.971532 13.2746 1.13845 13.3438 1.3125 13.3438H12.6875C12.8615 13.3438 13.0285 13.2746 13.1515 13.1515C13.2746 13.0285 13.3438 12.8615 13.3438 12.6875V7.4375C13.3438 7.26345 13.2746 7.09653 13.1515 6.97346C13.0285 6.85039 12.8615 6.78125 12.6875 6.78125Z" fill="white"/>
</svg>
