<svg width="40" height="40" viewBox="0 0 40 40" fill="none" xmlns="http://www.w3.org/2000/svg">
<path d="M31.0212 18.9825C30.8713 18.2537 30.65 17.5437 30.365 16.8725C30.0837 16.2075 29.735 15.565 29.3275 14.9587C28.9225 14.36 28.4613 13.8012 27.955 13.2975C27.45 12.79 26.8888 12.3275 26.29 11.9213C25.6862 11.5138 25.0425 11.1663 24.38 10.885C23.7075 10.5988 22.9975 10.3788 22.2662 10.2275C21.5162 10.0738 20.7425 10 19.9688 10.0025V7.5L15 11.25L19.9688 15V12.5025C20.5738 12.5 21.1788 12.5575 21.7625 12.6775C22.33 12.795 22.8825 12.9662 23.405 13.1888C23.9213 13.4062 24.4212 13.6788 24.89 13.9938C25.3562 14.3088 25.7925 14.6688 26.1875 15.065C26.5813 15.4575 26.9425 15.8938 27.255 16.3587C27.5725 16.8287 27.8438 17.3287 28.0625 17.8475C28.285 18.3687 28.455 18.9212 28.5725 19.4862C28.69 20.06 28.75 20.6538 28.75 21.25C28.75 21.8462 28.69 22.44 28.5725 23.0125C28.455 23.58 28.285 24.1325 28.0625 24.6562C27.8438 25.1725 27.5725 25.6725 27.2575 26.1413C26.9412 26.6075 26.58 27.0437 26.185 27.44C25.7913 27.835 25.3562 28.1938 24.89 28.5075C24.425 28.8212 23.9262 29.0925 23.4037 29.3138C22.8825 29.535 22.3312 29.7062 21.765 29.8237C20.615 30.0587 19.3825 30.0587 18.2375 29.8237C17.67 29.7062 17.1175 29.535 16.595 29.3125C16.075 29.0925 15.5763 28.8213 15.1087 28.5063C14.645 28.1938 14.21 27.8337 13.815 27.4388C13.4212 27.0438 13.06 26.6075 12.7463 26.1438C12.4288 25.6738 12.1575 25.1737 11.9388 24.6562C11.7163 24.1338 11.5463 23.5812 11.4288 23.0163C11.31 22.44 11.25 21.8462 11.25 21.25H8.75C8.75 22.0138 8.8275 22.7762 8.97875 23.5175C9.12875 24.245 9.35 24.955 9.635 25.6287C9.91625 26.2938 10.265 26.9363 10.6738 27.5425C11.0775 28.1388 11.5388 28.6975 12.045 29.2038C12.5525 29.7125 13.1125 30.175 13.7087 30.5775C14.3075 30.9837 14.9513 31.3325 15.62 31.615C16.2925 31.9012 17.0025 32.1213 17.7338 32.2725C18.4738 32.4225 19.2362 32.5 20 32.5C20.7638 32.5 21.5262 32.4225 22.2675 32.2712C22.9963 32.12 23.7063 31.9 24.3775 31.615C25.0487 31.3312 25.6925 30.9825 26.29 30.5775C26.8875 30.175 27.4475 29.7125 27.9538 29.2038C28.46 28.6975 28.9212 28.1375 29.3287 27.5387C29.735 26.935 30.0837 26.2913 30.365 25.6287C30.6512 24.9538 30.8713 24.2437 31.0212 23.5138C31.1725 22.7762 31.25 22.0138 31.25 21.25C31.25 20.4862 31.1725 19.7238 31.0212 18.9825Z" fill="#3B9FF3"/>
</svg>
