<svg width="40" height="40" viewBox="0 0 40 40" fill="none" xmlns="http://www.w3.org/2000/svg">
<path d="M8.64453 13.7891L10.2013 32.5821C10.3129 33.9374 11.4673 35 12.8277 35H27.1718C28.5322 35 29.6866 33.9374 29.7982 32.5821L31.3549 13.7891H8.64453ZM15.6044 31.4844C15.1443 31.4844 14.7572 31.1265 14.728 30.6604L13.8491 16.4807C13.8191 15.9958 14.1873 15.5786 14.6714 15.5486C15.1735 15.5134 15.5726 15.8859 15.6035 16.3708L16.4824 30.5505C16.5135 31.0527 16.1162 31.4844 15.6044 31.4844ZM20.8786 30.6055C20.8786 31.0913 20.4855 31.4844 19.9997 31.4844C19.5139 31.4844 19.1208 31.0913 19.1208 30.6055V16.4258C19.1208 15.94 19.5139 15.5469 19.9997 15.5469C20.4855 15.5469 20.8786 15.94 20.8786 16.4258V30.6055ZM26.1503 16.4807L25.2714 30.6604C25.2425 31.1218 24.858 31.5063 24.3393 31.4827C23.8552 31.4526 23.487 31.0355 23.517 30.5506L24.3959 16.3709C24.426 15.886 24.8509 15.5332 25.328 15.5486C25.8122 15.5787 26.1804 15.9958 26.1503 16.4807Z" fill="#F42829"/>
<path d="M31.4258 8.51562H26.1523V7.63672C26.1523 6.18277 24.9696 5 23.5156 5H16.4844C15.0304 5 13.8477 6.18277 13.8477 7.63672V8.51562H8.57422C7.60338 8.51562 6.81641 9.3026 6.81641 10.2734C6.81641 11.2442 7.60338 12.0312 8.57422 12.0312C16.6582 12.0312 23.3421 12.0312 31.4258 12.0312C32.3966 12.0312 33.1836 11.2442 33.1836 10.2734C33.1836 9.3026 32.3966 8.51562 31.4258 8.51562ZM24.3945 8.51562H15.6055V7.63672C15.6055 7.1518 15.9995 6.75781 16.4844 6.75781H23.5156C24.0005 6.75781 24.3945 7.1518 24.3945 7.63672V8.51562Z" fill="#F42829"/>
</svg>
