<svg width="40" height="40" viewBox="0 0 40 40" fill="none" xmlns="http://www.w3.org/2000/svg">
<path d="M8.33333 35H31.6667C33.505 35 35 33.505 35 31.6667V13.3333C35 12.8917 34.825 12.4667 34.5117 12.155L27.845 5.48833C27.5333 5.175 27.11 5 26.6667 5H8.33333C6.495 5 5 6.495 5 8.33333V31.6667C5 33.505 6.495 35 8.33333 35ZM25 31.6667H15V23.3333H25V31.6667ZM21.6667 11.6667H18.3333V8.33333H21.6667V11.6667ZM8.33333 8.33333H11.6667V15H15H18.3333H21.6667H23.3333H25V8.33333H25.9767L31.6667 14.0233L31.6683 31.6667H28.3333V23.3333C28.3333 21.495 26.8383 20 25 20H15C13.1617 20 11.6667 21.495 11.6667 23.3333V31.6667H8.33333V8.33333Z" fill="#3B9FF3"/>
</svg>
