<svg width="40" height="40" viewBox="0 0 40 40" fill="none" xmlns="http://www.w3.org/2000/svg">
<path d="M31.5385 32.6923H20C19.694 32.6923 19.4005 32.8139 19.1841 33.0303C18.9677 33.2466 18.8462 33.5401 18.8462 33.8462C18.8462 34.1522 18.9677 34.4457 19.1841 34.662C19.4005 34.8784 19.694 35 20 35H31.5385C32.4565 35 33.337 34.6353 33.9861 33.9861C34.6353 33.337 35 32.4565 35 31.5385V8.46154C35 7.54348 34.6353 6.66303 33.9861 6.01386C33.337 5.3647 32.4565 5 31.5385 5H8.46154C7.54348 5 6.66303 5.3647 6.01386 6.01386C5.3647 6.66303 5 7.54348 5 8.46154V9.61538C5 9.9214 5.12157 10.2149 5.33795 10.4313C5.55434 10.6477 5.84783 10.7692 6.15385 10.7692C6.45987 10.7692 6.75335 10.6477 6.96974 10.4313C7.18613 10.2149 7.30769 9.9214 7.30769 9.61538V8.46154C7.30769 8.15552 7.42926 7.86203 7.64565 7.64565C7.86203 7.42926 8.15552 7.30769 8.46154 7.30769H31.5385C31.8445 7.30769 32.138 7.42926 32.3544 7.64565C32.5707 7.86203 32.6923 8.15552 32.6923 8.46154V13.0769H6.15385C5.84783 13.0769 5.55434 13.1985 5.33795 13.4149C5.12157 13.6313 5 13.9248 5 14.2308V31.5385C5 32.4565 5.3647 33.337 6.01386 33.9861C6.66303 34.6353 7.54348 35 8.46154 35H15.3846C15.6906 35 15.9841 34.8784 16.2005 34.662C16.4169 34.4457 16.5385 34.1522 16.5385 33.8462V15.3846H32.6923V31.5385C32.6923 31.8445 32.5707 32.138 32.3544 32.3544C32.138 32.5707 31.8445 32.6923 31.5385 32.6923ZM14.2308 32.6923H8.46154C8.15552 32.6923 7.86203 32.5707 7.64565 32.3544C7.42926 32.138 7.30769 31.8445 7.30769 31.5385V15.3846H14.2308V32.6923Z" fill="#18BA92"/>
</svg>
