<svg width="48" height="40" viewBox="0 0 48 40" fill="none" xmlns="http://www.w3.org/2000/svg">
<path d="M23.6477 2.85149C23.2475 2.8508 22.8639 2.70045 22.5807 2.4333C22.2975 2.16614 22.1377 1.8039 22.1362 1.42575C22.1377 1.04759 22.2975 0.685349 22.5807 0.418193C22.8639 0.151037 23.2475 0.000687559 23.6477 0V0C24.0457 0.00343743 24.4262 0.155083 24.7066 0.422016C24.987 0.68895 25.1446 1.04963 25.1454 1.42575C25.139 1.80022 24.9796 2.15784 24.7004 2.42364C24.4211 2.68943 24.0439 2.84277 23.6477 2.85149Z" fill="#EC1E24"/>
<path d="M23.6482 13.821C23.248 13.8203 22.8644 13.6699 22.5812 13.4028C22.298 13.1356 22.1382 12.7734 22.1367 12.3952V5.32394C22.1382 4.94578 22.298 4.58354 22.5812 4.31639C22.8644 4.04923 23.248 3.89888 23.6482 3.89819C24.0462 3.90163 24.4267 4.05328 24.7071 4.32021C24.9875 4.58714 25.1451 4.94782 25.1458 5.32394V12.3952C25.1444 12.7711 24.9865 13.1314 24.7063 13.3982C24.426 13.665 24.046 13.8168 23.6482 13.821Z" fill="#EC1E24"/>
<path d="M23.6477 6.11023C21.5505 6.10954 19.5388 6.89581 18.0549 8.29621C16.5709 9.69662 15.7361 11.5966 15.7339 13.5784V18.4484C15.7339 18.8265 15.8928 19.1892 16.1758 19.4566C16.4587 19.7239 16.8425 19.8742 17.2426 19.8742C17.6427 19.8742 18.0265 19.7239 18.3094 19.4566C18.5923 19.1892 18.7513 18.8265 18.7513 18.4484V13.5601C18.7506 12.9485 18.8775 12.3428 19.1248 11.7776C19.3722 11.2124 19.735 10.6989 20.1927 10.2664C20.6503 9.83394 21.1937 9.49101 21.7918 9.25728C22.3899 9.02354 23.0309 8.90358 23.6781 8.90427C24.3253 8.90358 24.9662 9.02354 25.5643 9.25728C26.1624 9.49101 26.7058 9.83394 27.1634 10.2664C27.6211 10.6989 27.9839 11.2124 28.2313 11.7776C28.4786 12.3428 28.6055 12.9485 28.6048 13.5601V18.4484C28.6048 18.8265 28.7638 19.1892 29.0467 19.4566C29.3296 19.7239 29.7134 19.8742 30.1135 19.8742C30.5137 19.8742 30.8974 19.7239 31.1803 19.4566C31.4633 19.1892 31.6222 18.8265 31.6222 18.4484V13.5784C31.5933 11.5945 30.7416 9.70056 29.2503 8.30395C27.759 6.90733 25.7472 6.11962 23.6477 6.11023Z" fill="#EC1E24"/>
<path d="M44.5547 37.8375C44.7616 37.5143 45.0957 37.282 45.4838 37.1914C45.8718 37.1008 46.282 37.1594 46.6243 37.3544C46.9668 37.5495 47.2132 37.8651 47.3096 38.2318C47.406 38.5985 47.3444 38.9864 47.1383 39.3102C46.9318 39.6339 46.5979 39.8668 46.2098 39.9579C45.8218 40.0489 45.4113 39.9907 45.0686 39.7959C44.7305 39.5966 44.4877 39.2807 44.3918 38.9151C44.2958 38.5496 44.3543 38.1631 44.5547 37.8375Z" fill="#FDD301"/>
<path d="M34.6115 32.1756C34.8185 31.8525 35.1524 31.6201 35.5402 31.529C35.9281 31.438 36.3383 31.4959 36.6812 31.6899L43.089 35.3457C43.4314 35.5408 43.6779 35.8563 43.7743 36.2231C43.8706 36.5898 43.809 36.9777 43.6029 37.3015C43.3965 37.6251 43.0626 37.858 42.6745 37.9491C42.2864 38.0402 41.876 37.9819 41.5333 37.7872L35.1227 34.1314C34.7813 33.9354 34.5359 33.6197 34.4401 33.2532C34.3443 32.8867 34.4059 32.4993 34.6115 32.1756Z" fill="#FDD301"/>
<path d="M41.6002 36.1554C42.6832 34.4565 43.0078 32.4207 42.5026 30.4957C41.9974 28.5707 40.7037 26.9142 38.9061 25.8905L35.7671 24.1044L35.2145 23.7884L34.5016 23.3837C34.3318 23.2846 34.143 23.2182 33.946 23.1885C33.749 23.1588 33.5477 23.1663 33.3537 23.2106C33.1598 23.2549 32.9771 23.3351 32.8162 23.4465C32.6553 23.558 32.5194 23.6985 32.4163 23.86C32.3133 24.0214 32.2451 24.2006 32.2158 24.3871C32.1865 24.5736 32.1967 24.7637 32.2457 24.9465C32.2947 25.1293 32.3815 25.3011 32.5013 25.4519C32.621 25.6027 32.7712 25.7296 32.9431 25.8252L33.656 26.23L34.2087 26.5459L37.3725 28.3477C38.4907 28.9835 39.2959 30.0131 39.611 31.2099C39.926 32.4067 39.7252 33.6728 39.0525 34.7296C38.7189 35.2538 38.2791 35.7106 37.7585 36.0741C37.2378 36.4375 36.6464 36.7003 36.0181 36.8475C35.3899 36.9947 34.7371 37.0234 34.0971 36.932C33.457 36.8406 32.8424 36.6308 32.2882 36.3146L29.1244 34.5129L28.5717 34.1969L27.8588 33.7896C27.5159 33.5943 27.1049 33.5357 26.7162 33.6268C26.3276 33.7179 25.9931 33.9511 25.7864 34.2752C25.5798 34.5994 25.5178 34.9878 25.6142 35.3551C25.7106 35.7223 25.9574 36.0384 26.3004 36.2337L27.0133 36.6384L27.5659 36.9544L30.7022 38.7405C32.5145 39.7463 34.6724 40.0389 36.711 39.5554C38.7495 39.0718 40.5053 37.8508 41.6002 36.1554Z" fill="#FDD301"/>
<path d="M2.7994 37.8375C2.5925 37.5143 2.25836 37.282 1.87033 37.1914C1.48229 37.1008 1.07209 37.1594 0.729766 37.3544C0.387327 37.5495 0.140847 37.8651 0.0444775 38.2318C-0.0518918 38.5986 0.00973295 38.9864 0.215812 39.3103C0.422783 39.634 0.757214 39.867 1.14573 39.9581C1.53425 40.0491 1.94512 39.9908 2.28821 39.7959C2.62646 39.5967 2.86911 39.2805 2.96457 38.9148C3.06003 38.5491 3.00078 38.1626 2.7994 37.8375Z" fill="#3CB44A"/>
<path d="M12.7442 32.1758C12.5367 31.8525 12.2023 31.62 11.814 31.529C11.4257 31.438 11.015 31.4959 10.6718 31.6901L4.26395 35.3459C3.92151 35.541 3.67503 35.8565 3.57866 36.2233C3.48229 36.59 3.54391 36.9779 3.74999 37.3017C3.95696 37.6255 4.29139 37.8585 4.67991 37.9495C5.06843 38.0406 5.4793 37.9823 5.82238 37.7874L12.2302 34.1316C12.5715 33.9356 12.817 33.62 12.9133 33.2537C13.0096 32.8874 12.9488 32.5 12.7442 32.1758Z" fill="#3CB44A"/>
<path d="M5.7543 36.1554C4.67127 34.4565 4.34666 32.4207 4.8519 30.4957C5.35714 28.5707 6.65083 26.9142 8.44842 25.8905L11.5874 24.1044L12.14 23.7884L12.8502 23.3837C13.0199 23.2846 13.2087 23.2182 13.4057 23.1885C13.6028 23.1588 13.8041 23.1663 13.998 23.2106C14.1919 23.2549 14.3746 23.3351 14.5355 23.4465C14.6964 23.558 14.8324 23.6985 14.9354 23.86C15.0385 24.0214 15.1066 24.2006 15.1359 24.3871C15.1652 24.5736 15.155 24.7637 15.1061 24.9465C15.0571 25.1293 14.9702 25.3011 14.8505 25.4519C14.7308 25.6027 14.5806 25.7296 14.4086 25.8252L13.6957 26.23L13.1431 26.5459L9.97646 28.3477C8.86019 28.9853 8.05722 30.0154 7.7438 31.2119C7.43038 32.4084 7.63212 33.6735 8.30473 34.7296C8.63812 35.2537 9.07761 35.7105 9.59803 36.0739C10.1185 36.4373 10.7096 36.7001 11.3376 36.8473C11.9657 36.9945 12.6183 37.0233 13.2581 36.9319C13.8979 36.8405 14.5123 36.6307 15.0663 36.3146L18.2384 34.5233L18.791 34.2074L19.5012 33.8C19.8441 33.6047 20.2552 33.5462 20.6438 33.6372C21.0325 33.7283 21.3669 33.9616 21.5736 34.2857C21.7802 34.6098 21.8422 34.9982 21.7458 35.3655C21.6494 35.7328 21.4026 36.0488 21.0596 36.2441L20.3467 36.6489L19.7941 36.9648L16.6496 38.7509C14.8361 39.755 12.6779 40.0456 10.6399 39.5601C8.6019 39.0746 6.84733 37.8518 5.7543 36.1554Z" fill="#3CB44A"/>
</svg>
