<svg width="35" height="31" viewBox="0 0 35 31" fill="none" xmlns="http://www.w3.org/2000/svg">
<path d="M17.478 2.20991C17.1822 2.20937 16.8987 2.09285 16.6894 1.88581C16.48 1.67876 16.3619 1.39803 16.3608 1.10495C16.3619 0.81188 16.48 0.531145 16.6894 0.3241C16.8987 0.117054 17.1822 0.000532858 17.478 0V0C17.7721 0.00266401 18.0534 0.120189 18.2606 0.327063C18.4679 0.533936 18.5844 0.81346 18.5849 1.10495C18.5802 1.39517 18.4624 1.67232 18.256 1.87832C18.0497 2.08431 17.7708 2.20314 17.478 2.20991Z" fill="#EC1E24"/>
<path d="M17.478 10.7113C17.1822 10.7107 16.8987 10.5942 16.6894 10.3872C16.48 10.1801 16.3619 9.89938 16.3608 9.60631V4.12607C16.3619 3.833 16.48 3.55226 16.6894 3.34522C16.8987 3.13817 17.1822 3.02165 17.478 3.02112C17.7721 3.02378 18.0534 3.14131 18.2606 3.34818C18.4679 3.55505 18.5844 3.83458 18.5849 4.12607V9.60631C18.5839 9.89764 18.4672 10.1769 18.26 10.3836C18.0529 10.5904 17.772 10.7081 17.478 10.7113Z" fill="#EC1E24"/>
<path d="M17.4786 4.7356C15.9285 4.73506 14.4417 5.34442 13.3449 6.42973C12.2481 7.51505 11.631 8.9875 11.6294 10.5234V14.2977C11.6294 14.5907 11.7469 14.8718 11.956 15.079C12.1651 15.2862 12.4488 15.4026 12.7445 15.4026C13.0402 15.4026 13.3239 15.2862 13.533 15.079C13.7421 14.8718 13.8596 14.5907 13.8596 14.2977V10.5093C13.8591 10.0353 13.9529 9.56583 14.1357 9.12781C14.3185 8.68979 14.5867 8.29181 14.9249 7.95664C15.2632 7.62147 15.6648 7.35571 16.1069 7.17456C16.5489 6.99341 17.0227 6.90045 17.501 6.90098C17.9794 6.90045 18.4531 6.99341 18.8952 7.17456C19.3372 7.35571 19.7389 7.62147 20.0771 7.95664C20.4154 8.29181 20.6836 8.68979 20.8664 9.12781C21.0492 9.56583 21.143 10.0353 21.1425 10.5093V14.2977C21.1425 14.5907 21.2599 14.8718 21.4691 15.079C21.6782 15.2862 21.9618 15.4026 22.2576 15.4026C22.5533 15.4026 22.8369 15.2862 23.0461 15.079C23.2552 14.8718 23.3727 14.5907 23.3727 14.2977V10.5234C23.3513 8.98591 22.7218 7.5181 21.6195 6.43573C20.5173 5.35335 19.0303 4.74287 17.4786 4.7356Z" fill="#EC1E24"/>
<path d="M32.9311 29.324C33.084 29.0735 33.331 28.8934 33.6178 28.8233C33.9046 28.7531 34.2078 28.7985 34.4608 28.9496C34.7139 29.1008 34.8961 29.3454 34.9673 29.6296C35.0385 29.9138 34.993 30.2144 34.8406 30.4654C34.6881 30.7162 34.4412 30.8967 34.1544 30.9673C33.8676 31.0379 33.5642 30.9927 33.311 30.8418C33.061 30.6873 32.8816 30.4425 32.8107 30.1592C32.7398 29.8759 32.783 29.5763 32.9311 29.324Z" fill="#FDD301"/>
<path d="M25.5821 24.9362C25.7351 24.6858 25.9819 24.5056 26.2686 24.4351C26.5552 24.3646 26.8584 24.4094 27.1118 24.5598L31.8479 27.393C32.101 27.5442 32.2832 27.7888 32.3544 28.073C32.4257 28.3572 32.3801 28.6578 32.2278 28.9088C32.0752 29.1596 31.8284 29.3401 31.5416 29.4107C31.2548 29.4812 30.9514 29.4361 30.6981 29.2852L25.96 26.452C25.7076 26.3001 25.5262 26.0553 25.4554 25.7713C25.3846 25.4873 25.4302 25.187 25.5821 24.9362Z" fill="#FDD301"/>
<path d="M30.7477 28.0204C31.5481 26.7038 31.7881 25.126 31.4146 23.6342C31.0412 22.1423 30.085 20.8585 28.7564 20.0652L26.4363 18.6809L26.0279 18.4361L25.501 18.1224C25.3755 18.0455 25.236 17.9941 25.0903 17.9711C24.9447 17.9481 24.7959 17.9539 24.6526 17.9882C24.5093 18.0225 24.3742 18.0847 24.2553 18.1711C24.1364 18.2575 24.0359 18.3664 23.9597 18.4915C23.8836 18.6166 23.8332 18.7555 23.8116 18.9C23.7899 19.0446 23.7974 19.1919 23.8336 19.3336C23.8698 19.4752 23.934 19.6083 24.0225 19.7252C24.111 19.8421 24.222 19.9405 24.3491 20.0146L24.876 20.3282L25.2845 20.5731L27.6229 21.9695C28.4494 22.4623 29.0445 23.2602 29.2774 24.1877C29.5103 25.1152 29.3618 26.0964 28.8646 26.9155C28.618 27.3217 28.293 27.6758 27.9082 27.9574C27.5234 28.2391 27.0863 28.4427 26.6219 28.5568C26.1575 28.6709 25.675 28.6932 25.202 28.6223C24.7289 28.5515 24.2746 28.3889 23.8651 28.1439L21.5266 26.7475L21.1182 26.5026L20.5913 26.1869C20.3378 26.0356 20.034 25.9902 19.7467 26.0608C19.4595 26.1314 19.2123 26.3121 19.0595 26.5633C18.9068 26.8145 18.861 27.1155 18.9322 27.4002C19.0035 27.6848 19.1859 27.9298 19.4394 28.0811L19.9663 28.3948L20.3748 28.6397L22.6928 30.0239C24.0323 30.8034 25.6273 31.0302 27.134 30.6554C28.6407 30.2807 29.9384 29.3344 30.7477 28.0204Z" fill="#FDD301"/>
<path d="M2.06907 29.324C1.91615 29.0735 1.66918 28.8934 1.38238 28.8233C1.09558 28.7531 0.792394 28.7985 0.539379 28.9496C0.286278 29.1008 0.104102 29.3454 0.0328739 29.6296C-0.0383538 29.9138 0.00719374 30.2144 0.15951 30.4654C0.312484 30.7163 0.559666 30.8969 0.846824 30.9674C1.13398 31.038 1.43766 30.9928 1.69124 30.8418C1.94125 30.6873 2.12059 30.4424 2.19115 30.1589C2.26171 29.8755 2.21791 29.5759 2.06907 29.324Z" fill="#3CB44A"/>
<path d="M9.41904 24.9363C9.26569 24.6858 9.01852 24.5056 8.73152 24.4351C8.44452 24.3645 8.14102 24.4094 7.88731 24.5599L3.1512 27.3931C2.89809 27.5443 2.71592 27.7889 2.64469 28.0731C2.57346 28.3573 2.61901 28.6579 2.77133 28.9089C2.9243 29.1598 3.17148 29.3404 3.45864 29.411C3.7458 29.4815 4.04948 29.4363 4.30306 29.2853L9.03917 26.4521C9.29143 26.3002 9.47289 26.0556 9.54404 25.7717C9.61519 25.4878 9.57026 25.1876 9.41904 24.9363Z" fill="#3CB44A"/>
<path d="M4.25308 28.0204C3.45259 26.7038 3.21267 25.126 3.5861 23.6342C3.95952 22.1423 4.91571 20.8585 6.24433 20.0652L8.56439 18.6809L8.97285 18.4361L9.49772 18.1224C9.62315 18.0455 9.76272 17.9941 9.90834 17.9711C10.054 17.9481 10.2027 17.9539 10.3461 17.9882C10.4894 18.0225 10.6245 18.0847 10.7434 18.1711C10.8623 18.2575 10.9628 18.3664 11.0389 18.4915C11.1151 18.6166 11.1655 18.7555 11.1871 18.9C11.2088 19.0446 11.2013 19.1919 11.1651 19.3336C11.1289 19.4752 11.0646 19.6083 10.9762 19.7252C10.8877 19.8421 10.7767 19.9405 10.6496 20.0146L10.1227 20.3282L9.71421 20.5731L7.37372 21.9695C6.54867 22.4636 5.95519 23.262 5.72354 24.1892C5.49189 25.1165 5.64099 26.097 6.13813 26.9155C6.38454 27.3216 6.70937 27.6757 7.09402 27.9573C7.47867 28.2389 7.9156 28.4426 8.37979 28.5567C8.84398 28.6708 9.32632 28.693 9.79921 28.6222C10.2721 28.5514 10.7262 28.3888 11.1357 28.1439L13.4802 26.7556L13.8887 26.5107L14.4136 26.195C14.6671 26.0437 14.9708 25.9983 15.2581 26.0689C15.5454 26.1395 15.7925 26.3202 15.9453 26.5714C16.098 26.8226 16.1438 27.1236 16.0726 27.4083C16.0013 27.6929 15.8189 27.9379 15.5654 28.0892L15.0385 28.4029L14.63 28.6478L12.3059 30.032C10.9656 30.8101 9.37038 31.0354 7.86407 30.6591C6.35777 30.2828 5.06095 29.3352 4.25308 28.0204Z" fill="#3CB44A"/>
</svg>
