<svg width="32" height="32" viewBox="0 0 32 32" fill="none" xmlns="http://www.w3.org/2000/svg">
<path fill-rule="evenodd" clip-rule="evenodd" d="M2.66663 16C2.66663 8.77196 8.77196 2.66663 16 2.66663C23.228 2.66663 29.3333 8.77196 29.3333 16C29.3333 20.2533 27.2106 24.104 24 26.5653V26.6666H23.864C21.64 28.3266 18.916 29.3333 16 29.3333C13.084 29.3333 10.36 28.3266 8.13596 26.6666H7.99996V26.5653C4.78929 24.104 2.66663 20.252 2.66663 16ZM14.6666 22.0973C12.7573 22.0973 11.1613 23.4426 10.7653 25.236C12.3226 26.1386 14.112 26.6666 16 26.6666C17.888 26.6666 19.6773 26.1386 21.2346 25.236C20.8386 23.444 19.2426 22.0973 17.3333 22.0973H14.6666ZM17.3333 19.4306C20.096 19.4306 22.4706 21.1213 23.48 23.5213C25.436 21.576 26.6666 18.9013 26.6666 16C26.6666 10.2173 21.7826 5.33329 16 5.33329C10.2173 5.33329 5.33329 10.2173 5.33329 16C5.33329 18.9013 6.56396 21.576 8.51996 23.5213C9.52796 21.1226 11.904 19.4306 14.6666 19.4306H17.3333ZM10.6666 13.3333C10.6666 10.2933 12.96 7.99996 16 7.99996C19.04 7.99996 21.3333 10.2933 21.3333 13.3333C21.3333 16.3733 19.04 18.6666 16 18.6666C12.96 18.6666 10.6666 16.3733 10.6666 13.3333ZM13.3333 13.3333C13.3333 14.904 14.4293 16 16 16C17.5706 16 18.6666 14.904 18.6666 13.3333C18.6666 11.7626 17.5706 10.6666 16 10.6666C14.4293 10.6666 13.3333 11.7626 13.3333 13.3333Z" fill="#999999"/>
</svg>
