<svg width="160" height="105" viewBox="0 0 160 105" fill="none" xmlns="http://www.w3.org/2000/svg">
<g clip-path="url(#clip0_535_15566)">
<path d="M136.953 23.4128L137.105 90.33L80 104.158V34.8667L136.953 23.4128Z" fill="#FFBA59"/>
<path d="M80 10.6204L136.953 23.4128L80 34.8666V10.6204Z" fill="#DB8829"/>
<path d="M23.0469 23.5643L80.0003 10.6204V34.8666L23.0469 23.5643Z" fill="#CC7F26"/>
<path d="M23.047 23.5643L80.0005 34.8666V104.158L22.8955 90.3299L23.047 23.5643Z" fill="#FFAF40"/>
<path d="M137.017 23.4759L155.037 11.6811L100.496 0L80 10.6835L137.017 23.4759Z" fill="#FFBF66"/>
<path d="M22.9834 23.4759L4.96289 11.6811L59.5043 0L80 10.6835L22.9834 23.4759Z" fill="#FFBF66"/>
<path d="M137.017 23.476L160 44.3505L99.7506 57.1429L80 34.9045L137.017 23.476Z" fill="#FFBF66"/>
<path opacity="0.2" d="M99.7506 57.1429L137.017 49.225L96.7703 61.2471L80 34.9045L99.7506 57.1429Z" fill="#AB4900"/>
<path d="M80.0005 103.678V104.158L22.8955 90.3299L23.0344 26.3047C26.1283 69.5691 60.856 93.6259 80.0005 103.678Z" fill="#FFA629"/>
<path d="M22.9834 23.476L0 44.3505L60.2494 57.1429L80 34.9045L22.9834 23.476Z" fill="#FFBF66"/>
<path opacity="0.2" d="M60.2494 57.1429L22.9834 49.225L63.2297 61.2471L80 34.9045L60.2494 57.1429Z" fill="#AB4900"/>
</g>
<defs>
<clipPath id="clip0_535_15566">
<rect width="160" height="104.158" fill="white"/>
</clipPath>
</defs>
</svg>
