<svg width="32" height="32" viewBox="0 0 32 32" fill="none" xmlns="http://www.w3.org/2000/svg">
<path d="M15.1512 10.8589C13.005 10.8589 11.1792 12.3003 10.6987 14.2543C10.6667 14.3824 10.4745 14.3824 10.4104 14.2543C9.8979 12.3003 8.10411 10.8589 5.95796 10.8589H0V21.1732H21.1412V10.8589H15.1512Z" fill="#242424"/>
<path d="M21.1411 26.8428C21.1411 29.6937 18.8348 32 15.984 32C13.1331 32 10.8268 29.6937 10.8268 26.8428C10.8268 23.992 13.1331 21.6857 15.984 21.6857C18.8348 21.6857 21.1411 23.992 21.1411 26.8428Z" fill="#242424"/>
<path d="M21.6537 10.3143H32V0.0319824L21.6537 10.3143Z" fill="#242424"/>
<path d="M21.1091 10.3143H10.8268V5.15715C10.8268 2.3063 13.1331 0 15.984 0C18.8348 0 21.1411 2.3063 21.1411 5.15715V10.3143H21.1091Z" fill="#242424"/>
</svg>
