<svg width="180" height="180" viewBox="0 0 180 180" fill="none" xmlns="http://www.w3.org/2000/svg">
<path d="M133.263 95.373L121.806 116.316L133.245 95.4001L133.263 95.373Z" fill="#EF8300"/>
<path d="M173.214 127.98H170.19L160.956 164.241L125.028 151.488C125.028 151.488 124.866 151.848 124.632 152.271L123.948 151.668L123.39 151.173L103.671 153.081L103.554 149.04V149.031L101.412 145.782H91.26V129.258H97.29V128.241H98.595L103.041 132.066L103.104 132.912L121.797 124.137H140.184L173.142 127.917L173.214 127.98Z" fill="#EF8300"/>
<path d="M168.264 68.814L163.89 72.504L167.598 75.195L163.566 79.731L165.735 82.242L159.192 89.784L159.327 90.216L125.325 80.937L102.285 59.661L115.974 49.266L159.399 16.254H159.417L160.542 15.759L169.101 41.283L165.411 66.294L168.264 68.814Z" fill="#733800"/>
<path d="M173.214 127.98H170.19L160.956 164.241L125.028 151.488C125.028 151.488 124.866 151.848 124.632 152.271L123.948 151.668L123.39 151.173L103.122 133.002L103.041 132.939L103.104 132.903L121.797 124.128H140.184L173.142 127.908L173.214 127.98Z" fill="#DC7600"/>
<path d="M123.399 151.173L103.671 153.081L103.554 149.04V149.031L103.05 132.93L103.122 133.002L123.399 151.173Z" fill="#D4C2B1"/>
<path d="M140.184 124.128L123.957 151.668L121.806 124.128H140.184Z" fill="#C66100"/>
<path d="M159.399 16.254L115.974 49.266L102.285 59.661L110.682 37.413H110.853L112.293 36.792L159.399 16.254Z" fill="#DC7600"/>
<path d="M137.034 94.8241L134.01 93.9871L133.245 95.3911L121.806 116.307L120.258 107.244L103.806 111.771L99.612 120.168L100.953 95.1481L97.425 90.9541L101.277 94.1401L102.285 59.6431L125.325 80.9101C125.325 80.9101 134.01 91.6201 134.856 92.2861C135.693 92.9791 137.034 94.8241 137.034 94.8241Z" fill="#DC7600"/>
<path d="M134.01 93.9961L133.245 95.4001L121.806 116.316L120.258 107.262L103.806 111.78L99.612 120.186L101.142 96.2911L101.277 94.1581L134.01 93.9961Z" fill="#C66100"/>
<path d="M103.806 111.78L108.837 102.843L107.199 100.836L120.258 107.262L103.806 111.78Z" fill="#263344"/>
<path d="M103.806 111.78L99.612 120.186L100.944 95.166L101.142 96.291L103.806 111.78Z" fill="#DC7312"/>
<path d="M133.263 95.373L121.806 116.316L120.258 107.262L133.245 95.4001L133.263 95.373Z" fill="#DC7312"/>
<path d="M174.897 125.55L171.792 124.956V123.705L169.767 124.542L159.327 90.216L125.325 80.937C125.325 80.937 134.01 91.647 134.856 92.313C135.693 92.979 137.034 94.824 137.034 94.824L134.01 93.9871L133.245 95.391L133.263 95.373L121.797 116.316L120.249 107.253L103.797 111.78L99.603 120.177L100.944 95.1571L97.416 90.963L101.268 94.149L102.276 59.652L110.664 37.404L92.016 37.368H91.602H91.251L69.309 37.404L77.697 59.652L78.705 94.149L82.557 90.963L79.029 95.1571L80.37 120.177L76.176 111.78L59.724 107.253L58.176 116.316L46.71 95.373L46.728 95.391L45.963 93.9871L42.939 94.824C42.939 94.824 44.28 92.979 45.117 92.313C45.963 91.647 54.648 80.937 54.648 80.937L20.646 90.216L10.206 124.542L8.18099 123.705V124.956L5.07599 125.55L8.18099 126.639L6.83099 127.899L39.789 124.119H58.176L76.869 132.894L76.932 132.048L81.378 128.223H82.71V129.24H91.269H92.034H97.29V128.223H98.595L103.041 132.048L103.104 132.894L121.797 124.119H140.184L173.142 127.899L171.792 126.639L174.897 125.55Z" fill="#EF8300"/>
<path d="M46.737 95.373L58.194 116.316L46.755 95.4001L46.737 95.373Z" fill="#EF8300"/>
<path d="M123.957 151.668L123.399 151.173L103.68 153.081L103.563 149.04V149.031L101.421 145.782H93.141H91.26H78.588L76.446 149.031V149.04L76.329 153.081L56.61 151.173L56.052 151.668L55.368 152.271C55.773 153 56.349 153.9 56.565 153.414C56.898 152.667 57.321 151.569 57.321 151.569L77.211 160.965H91.26H93.123H102.789L122.679 151.569C122.679 151.569 123.111 152.667 123.435 153.414C123.651 153.9 124.227 153 124.632 152.271L123.957 151.668Z" fill="#BEAC9C"/>
<path d="M6.78601 127.98H9.81001L19.044 164.241L54.972 151.488C54.972 151.488 55.134 151.848 55.368 152.271L56.052 151.668L56.61 151.173L76.329 153.081L76.446 149.04V149.031L78.588 145.782H88.74V129.258H82.71V128.241H81.405L76.959 132.066L76.896 132.912L58.203 124.137H39.816L6.85801 127.917L6.78601 127.98Z" fill="#EF8300"/>
<path d="M11.736 68.814L16.11 72.504L12.402 75.195L16.434 79.731L14.265 82.242L20.808 89.784L20.673 90.216L54.675 80.937L77.715 59.661L64.026 49.266L20.601 16.254H20.583L19.458 15.759L10.899 41.283L14.589 66.294L11.736 68.814Z" fill="#733800"/>
<path d="M6.78601 127.98H9.81001L19.044 164.241L54.972 151.488C54.972 151.488 55.134 151.848 55.368 152.271L56.052 151.668L56.61 151.173L76.878 133.002L76.959 132.939L76.896 132.903L58.203 124.128H39.816L6.85801 127.908L6.78601 127.98Z" fill="#DC7600"/>
<path d="M56.601 151.173L76.329 153.081L76.446 149.04V149.031L76.95 132.93L76.878 133.002L56.601 151.173Z" fill="#D4C2B1"/>
<path d="M39.816 124.128L56.043 151.668L58.194 124.128H39.816Z" fill="#C66100"/>
<path d="M20.601 16.254L64.026 49.266L77.715 59.661L69.318 37.413H69.147L67.707 36.792L20.601 16.254Z" fill="#DC7600"/>
<path d="M42.966 94.8241L45.99 93.9871L46.755 95.3911L58.194 116.307L59.742 107.244L76.194 111.771L80.388 120.168L79.047 95.1481L82.575 90.9541L78.723 94.1401L77.715 59.6431L54.675 80.9101C54.675 80.9101 45.99 91.6201 45.144 92.2861C44.307 92.9791 42.966 94.8241 42.966 94.8241Z" fill="#DC7600"/>
<path d="M45.99 93.9961L46.755 95.4001L58.194 116.316L59.742 107.262L76.194 111.78L80.388 120.186L78.858 96.2911L78.723 94.1581L45.99 93.9961Z" fill="#C66100"/>
<path d="M76.194 111.78L71.163 102.843L72.801 100.836L59.742 107.262L76.194 111.78Z" fill="#263344"/>
<path d="M76.194 111.78L80.388 120.186L79.056 95.166L78.858 96.291L76.194 111.78Z" fill="#DC7312"/>
<path d="M46.737 95.373L58.194 116.316L59.742 107.262L46.755 95.4001L46.737 95.373Z" fill="#DC7312"/>
<path d="M104.553 150.57L103.122 133.002L103.113 132.903L103.05 132.057L98.595 128.232H97.29V129.249H82.71V128.232H81.405L76.95 132.057L76.887 132.903L76.878 133.002L75.447 150.57L76.446 149.04V149.031L78.588 145.782H87.939H92.061H101.412L103.554 149.031V149.04L104.553 150.57Z" fill="black"/>
</svg>
