<svg width="16" height="16" viewBox="0 0 16 16" fill="none" xmlns="http://www.w3.org/2000/svg">
<path d="M13.4944 3.45709C12.4838 2.99341 11.4002 2.6518 10.2672 2.45614C10.2466 2.45237 10.2259 2.4618 10.2153 2.48068C10.076 2.72855 9.92158 3.05192 9.81348 3.30609C8.59485 3.12365 7.38247 3.12365 6.18883 3.30609C6.0807 3.04627 5.92073 2.72855 5.78074 2.48068C5.77011 2.46243 5.74949 2.453 5.72886 2.45614C4.59647 2.65117 3.51283 2.99279 2.50167 3.45709C2.49292 3.46086 2.48542 3.46716 2.48044 3.47533C0.424999 6.54611 -0.138072 9.54142 0.138152 12.4996C0.139402 12.5141 0.147526 12.5279 0.158775 12.5367C1.51489 13.5326 2.82853 14.1372 4.11777 14.538C4.1384 14.5443 4.16026 14.5367 4.17339 14.5197C4.47836 14.1032 4.75022 13.6641 4.98331 13.2023C4.99706 13.1753 4.98393 13.1432 4.95582 13.1325C4.52461 12.9689 4.11402 12.7695 3.71905 12.543C3.68781 12.5248 3.68531 12.4801 3.71405 12.4587C3.79717 12.3964 3.8803 12.3316 3.95967 12.2662C3.97403 12.2542 3.99403 12.2517 4.01092 12.2592C6.60565 13.4439 9.41476 13.4439 11.9789 12.2592C11.9958 12.2511 12.0158 12.2536 12.0308 12.2655C12.1101 12.331 12.1933 12.3964 12.277 12.4587C12.3057 12.4801 12.3039 12.5248 12.2726 12.543C11.8777 12.7739 11.4671 12.9689 11.0352 13.1319C11.0071 13.1426 10.9946 13.1753 11.0084 13.2023C11.2465 13.6635 11.5183 14.1026 11.8177 14.5191C11.8302 14.5367 11.8527 14.5443 11.8733 14.538C13.1688 14.1372 14.4824 13.5326 15.8385 12.5367C15.8504 12.5279 15.8579 12.5147 15.8592 12.5002C16.1897 9.08025 15.3054 6.10951 13.515 3.47596C13.5106 3.46716 13.5031 3.46086 13.4944 3.45709ZM5.37079 10.6984C4.58959 10.6984 3.94591 9.98118 3.94591 9.10039C3.94591 8.2196 4.57711 7.5024 5.37079 7.5024C6.1707 7.5024 6.80815 8.2259 6.79564 9.10039C6.79564 9.98118 6.16444 10.6984 5.37079 10.6984ZM10.639 10.6984C9.85785 10.6984 9.21417 9.98118 9.21417 9.10039C9.21417 8.2196 9.84534 7.5024 10.639 7.5024C11.439 7.5024 12.0764 8.2259 12.0639 9.10039C12.0639 9.98118 11.439 10.6984 10.639 10.6984Z" fill="white"/>
</svg>
