<svg width="24" height="24" viewBox="0 0 24 24" fill="none" xmlns="http://www.w3.org/2000/svg">
<path d="M12.8849 2.53152C12.5389 1.87752 11.4629 1.87752 11.1169 2.53152L2.11694 19.5315C2.03592 19.6839 1.99575 19.8546 2.00036 20.0272C2.00496 20.1997 2.05417 20.368 2.14319 20.5159C2.23221 20.6637 2.35801 20.786 2.50833 20.8707C2.65865 20.9555 2.82837 20.9998 3.00094 20.9995H21.0009C21.1734 20.9999 21.343 20.9555 21.4932 20.8708C21.6434 20.7861 21.7691 20.6639 21.8581 20.5162C21.947 20.3684 21.9961 20.2002 22.0007 20.0278C22.0052 19.8554 21.965 19.6847 21.8839 19.5325L12.8849 2.53152ZM13.0009 17.9995H11.0009V15.9995H13.0009V17.9995ZM11.0009 13.9995V8.99952H13.0009L13.0019 13.9995H11.0009Z" fill="white"/>
</svg>
