<svg width="164" height="164" viewBox="0 0 164 164" fill="none" xmlns="http://www.w3.org/2000/svg">
<g clip-path="url(#clip0_1757_43335)">
<path d="M0 8C0 3.58173 3.58172 0 8 0H155.5C159.918 0 163.5 3.58172 163.5 8V155.5C163.5 159.918 159.918 163.5 155.5 163.5H8C3.58173 163.5 0 159.918 0 155.5V8Z" fill="#999575"/>
<rect width="163.5" height="81.75" fill="#999575"/>
<rect y="81.75" width="163.5" height="81.75" fill="#F6F4E3"/>
<path d="M138.975 0H24.525C11.0011 0 0 11.0011 0 24.525V138.975C0 152.499 11.0011 163.5 24.525 163.5H138.975C152.499 163.5 163.5 152.499 163.5 138.975V24.525C163.5 11.0011 152.499 0 138.975 0Z" fill="#999575"/>
<path d="M124.509 96.1919C121.787 97.565 118.502 98.2915 115.001 98.2915C107.732 98.2915 100.659 95.2978 96.5273 90.4758L79.3789 70.5492C73.6508 63.8591 65.5756 60.0271 57.225 60.0271C48.8744 60.0271 40.7992 63.8591 35.0791 70.5412L0 111.424V138.975C0 152.499 11.0011 163.5 24.525 163.5H138.975C152.499 163.5 163.5 152.499 163.5 138.975V76.6964L124.509 96.1919Z" fill="#F6F4E3"/>
<path d="M114.452 73.5747C127.997 73.5747 138.977 62.5944 138.977 49.0497C138.977 35.5049 127.997 24.5247 114.452 24.5247C100.907 24.5247 89.927 35.5049 89.927 49.0497C89.927 62.5944 100.907 73.5747 114.452 73.5747Z" fill="#E2DCAB"/>
</g>
<path d="M8 1H155.5V-1H8V1ZM162.5 8V155.5H164.5V8H162.5ZM155.5 162.5H8V164.5H155.5V162.5ZM1 155.5V8H-1V155.5H1ZM8 162.5C4.13401 162.5 1 159.366 1 155.5H-1C-1 160.471 3.02944 164.5 8 164.5V162.5ZM162.5 155.5C162.5 159.366 159.366 162.5 155.5 162.5V164.5C160.471 164.5 164.5 160.471 164.5 155.5H162.5ZM155.5 1C159.366 1 162.5 4.13401 162.5 8H164.5C164.5 3.02944 160.471 -1 155.5 -1V1ZM8 -1C3.02944 -1 -1 3.02944 -1 8H1C1 4.13401 4.13401 1 8 1V-1Z" fill="#F6F4E3"/>
<defs>
<clipPath id="clip0_1757_43335">
<path d="M0 8C0 3.58173 3.58172 0 8 0H155.5C159.918 0 163.5 3.58172 163.5 8V155.5C163.5 159.918 159.918 163.5 155.5 163.5H8C3.58173 163.5 0 159.918 0 155.5V8Z" fill="white"/>
</clipPath>
</defs>
</svg>
