<svg width="16" height="16" viewBox="0 0 16 16" fill="none" xmlns="http://www.w3.org/2000/svg">
<path d="M15.2 8.12048C15.2 7.19686 14.4914 6.44726 13.6183 6.44726C13.188 6.44726 12.8084 6.62127 12.53 6.91576C11.4545 6.09922 9.96132 5.56379 8.31633 5.49686L9.0376 1.92285L11.3785 2.44489C11.4039 3.07403 11.8974 3.58269 12.5047 3.58269C13.1248 3.58269 13.6309 3.04726 13.6309 2.39135C13.6309 1.73545 13.1248 1.20001 12.5047 1.20001C12.0619 1.20001 11.6822 1.46773 11.5051 1.8693L8.88575 1.28033C8.80983 1.26694 8.73391 1.28033 8.67064 1.32048C8.60737 1.36064 8.56941 1.42757 8.5441 1.50789L7.74691 5.49686C6.06396 5.55041 4.55816 6.07245 3.46993 6.91576C3.19155 6.63466 2.79928 6.44726 2.38171 6.44726C1.5086 6.44726 0.799988 7.19686 0.799988 8.12048C0.799988 8.80316 1.1796 9.37875 1.73637 9.64647C1.71106 9.8071 1.69841 9.98112 1.69841 10.1551C1.69841 12.7252 4.5202 14.8 8.01264 14.8C11.5051 14.8 14.3269 12.7252 14.3269 10.1551C14.3269 9.98112 14.3142 9.82049 14.2889 9.65985C14.8077 9.39214 15.2 8.80316 15.2 8.12048ZM4.38101 9.31182C4.38101 8.65592 4.88716 8.12048 5.50719 8.12048C6.12723 8.12048 6.63338 8.65592 6.63338 9.31182C6.63338 9.96773 6.12723 10.5032 5.50719 10.5032C4.88716 10.5032 4.38101 9.96773 4.38101 9.31182ZM10.6699 12.4575C9.89806 13.274 8.43022 13.3276 7.99999 13.3276C7.56976 13.3276 6.08927 13.2606 5.33004 12.4575C5.21616 12.337 5.21616 12.1362 5.33004 12.0158C5.44392 11.8953 5.63373 11.8953 5.74761 12.0158C6.22846 12.5244 7.26607 12.7118 8.01264 12.7118C8.75922 12.7118 9.78417 12.5244 10.2777 12.0158C10.3916 11.8953 10.5814 11.8953 10.6952 12.0158C10.7838 12.1496 10.7838 12.337 10.6699 12.4575ZM10.4675 10.5032C9.84744 10.5032 9.34129 9.96773 9.34129 9.31182C9.34129 8.65592 9.84744 8.12048 10.4675 8.12048C11.0875 8.12048 11.5937 8.65592 11.5937 9.31182C11.5937 9.96773 11.0875 10.5032 10.4675 10.5032Z" fill="white"/>
</svg>
