<svg width="16" height="16" viewBox="0 0 16 16" fill="none" xmlns="http://www.w3.org/2000/svg">
<path d="M14.038 4.78714C14.0442 4.92795 14.0442 5.06235 14.0442 5.20315C14.0504 9.47196 10.9141 14.4 5.17858 14.4C3.48695 14.4 1.82618 13.8944 0.400024 12.9472C0.646978 12.9792 0.893932 12.992 1.14089 12.992C2.54235 12.992 3.90677 12.5056 5.01188 11.6032C3.67833 11.5776 2.5053 10.6752 2.09783 9.35676C2.56704 9.45276 3.0486 9.43356 3.50547 9.29916C2.05461 9.00476 1.01123 7.67995 1.00506 6.13755C1.00506 6.12475 1.00506 6.11195 1.00506 6.09915C1.43723 6.34875 1.92496 6.48955 2.41887 6.50235C1.05445 5.55515 0.628457 3.66714 1.45575 2.18874C3.04243 4.21114 5.37614 5.43355 7.88272 5.56795C7.62959 4.44794 7.97533 3.27034 8.7841 2.47674C10.0374 1.25433 12.013 1.31833 13.1984 2.61754C13.896 2.47674 14.569 2.20794 15.1802 1.83034C14.9456 2.57914 14.4579 3.21274 13.8096 3.61594C14.427 3.53914 15.032 3.36634 15.6 3.11034C15.1802 3.76314 14.6493 4.32634 14.038 4.78714Z" fill="white"/>
</svg>
