<svg width="16" height="17" viewBox="0 0 16 17" fill="none" xmlns="http://www.w3.org/2000/svg">
<path fill-rule="evenodd" clip-rule="evenodd" d="M1.35803 7.86219C5.49236 6.06094 8.24922 4.87344 9.62862 4.2997C13.5671 2.66155 14.3855 2.37699 14.9189 2.36759C15.0362 2.36553 15.2985 2.3946 15.4684 2.53248C15.6119 2.6489 15.6514 2.80616 15.6703 2.91654C15.6892 3.02692 15.7127 3.27836 15.694 3.47484C15.4806 5.71733 14.5571 11.1593 14.0872 13.6709C13.8884 14.7337 13.497 15.09 13.118 15.1249C12.2945 15.2007 11.6691 14.5806 10.8714 14.0577C9.62323 13.2395 8.91807 12.7302 7.70648 11.9318C6.30628 11.0091 7.21398 10.5019 8.01195 9.67312C8.22078 9.45622 11.8495 6.15567 11.9197 5.85625C11.9285 5.81881 11.9366 5.67922 11.8537 5.60552C11.7708 5.53182 11.6484 5.55702 11.5601 5.57706C11.4349 5.60548 9.44087 6.92344 5.57804 9.53096C5.01205 9.91961 4.49939 10.109 4.04007 10.099C3.5337 10.0881 2.55965 9.81274 1.83555 9.57736C0.9474 9.28866 0.24152 9.13602 0.302987 8.64572C0.335002 8.39034 0.686684 8.12917 1.35803 7.86219Z" fill="white"/>
</svg>
